<svg xmlns="http://www.w3.org/2000/svg" xmlns:xlink="http://www.w3.org/1999/xlink" width="183.247" height="197.425" viewBox="0 0 183.247 197.425">
  <defs>
    <clipPath id="clip-path">
      <rect id="Rect치ngulo_344645" data-name="Rect치ngulo 344645" width="183.247" height="197.425" fill="none"/>
    </clipPath>
  </defs>
  <g id="Grupo_983912" data-name="Grupo 983912" clip-path="url(#clip-path)">
    <path id="Trazado_720302" data-name="Trazado 720302" d="M162.742,40.983a27.652,27.652,0,0,1-13.4-3.02,38.976,38.976,0,0,0-18.168-4.025,38.971,38.971,0,0,0-18.165,4.025,27.658,27.658,0,0,1-13.393,3.02,27.612,27.612,0,0,1-13.39-3.02,38.994,38.994,0,0,0-18.165-4.025A39.033,39.033,0,0,0,49.89,37.963a27.6,27.6,0,0,1-13.383,3.02,27.622,27.622,0,0,1-13.39-3.02A39.023,39.023,0,0,0,4.95,33.938c-2.9,0-1.506,1.986-1.506,4.512S2.049,43.1,4.95,43.1c.137,0,.266,0,.4,0l8.87,23.556a5.789,5.789,0,0,1,2.645-.631,30.728,30.728,0,0,1,16.1,4.183,19.466,19.466,0,0,0,10.689,2.862,19.448,19.448,0,0,0,10.689-2.862,30.732,30.732,0,0,1,16.1-4.183,30.778,30.778,0,0,1,16.108,4.183,19.43,19.43,0,0,0,10.689,2.862,19.475,19.475,0,0,0,10.689-2.862,33.087,33.087,0,0,1,32.206,0,19.466,19.466,0,0,0,10.689,2.862,6.031,6.031,0,0,1,1.321.154l7.861-23.153,2.736-8.033v3.037c0-2.529,2.894-4.1,0-4.1" transform="translate(7.781 84.955)" fill="#99e0e0"/>
    <path id="Trazado_720303" data-name="Trazado 720303" d="M146.065,50.3a6.031,6.031,0,0,0-1.321-.154,19.466,19.466,0,0,1-10.689-2.862,30.69,30.69,0,0,0-16.1-4.183,30.692,30.692,0,0,0-16.108,4.183,19.466,19.466,0,0,1-10.689,2.862,19.439,19.439,0,0,1-10.689-2.862,30.719,30.719,0,0,0-16.1-4.183A30.724,30.724,0,0,0,48.26,47.281a19.448,19.448,0,0,1-10.689,2.862,19.475,19.475,0,0,1-10.689-2.862,30.669,30.669,0,0,0-16.1-4.183,5.8,5.8,0,0,0-2.648.631,4.506,4.506,0,0,0-2.6,3.952c0,2.529,2.347,4.582,5.248,4.582.189,0,.382,0,.568,0L21.978,80.5H135.8l7.22-21.234c.554.021,1.128.035,1.724.035,2.9,0,5.248-2.049,5.248-4.575a4.735,4.735,0,0,0-3.927-4.428" transform="translate(13.861 107.886)" fill="#2bbfbf"/>
    <path id="Trazado_720304" data-name="Trazado 720304" d="M48.42,15a5.185,5.185,0,0,1,2.116,7.021L28.626,62.816a5.18,5.18,0,0,1-7.014,2.112L21,64.6a5.192,5.192,0,0,1-2.116-7.017L40.79,16.789a5.2,5.2,0,0,1,7.028-2.112Z" transform="translate(45.728 35.195)" fill="#d6d6d6"/>
    <path id="Trazado_720305" data-name="Trazado 720305" d="M71.283,13.6a5.18,5.18,0,0,1-3.468,6.457S34.568,30.072,23.477,33.414a5.177,5.177,0,0,1-6.453-3.468l-.2-.662c-.827-2.743.827-5.353,3.461-6.46C30.039,18.753,61.929,7.216,61.929,7.216c2.736-.827,8.327,2.981,9.154,5.724Z" transform="translate(41.58 17.775)" fill="#d6d6d6"/>
    <path id="Trazado_720306" data-name="Trazado 720306" d="M50.923,18.064a5.189,5.189,0,0,1,2.116,7.021l-21.9,40.789a5.192,5.192,0,0,1-7.028,2.116l-.61-.329a5.183,5.183,0,0,1-2.116-7.021L43.293,19.85a5.19,5.19,0,0,1,7.021-2.116Z" transform="translate(51.983 42.853)" fill="#d6d6d6"/>
    <path id="Trazado_720307" data-name="Trazado 720307" d="M54.875,18.467a5.2,5.2,0,0,1,2.116,7.021l-21.917,40.8a5.174,5.174,0,0,1-7.014,2.109l-.61-.326a5.187,5.187,0,0,1-2.116-7.017l21.91-40.8a5.191,5.191,0,0,1,7.021-2.112Z" transform="translate(61.88 43.869)" fill="#d6d6d6"/>
    <path id="Trazado_720308" data-name="Trazado 720308" d="M59.363,17.745a5.184,5.184,0,0,1,2.109,7.017L39.562,65.551a5.177,5.177,0,0,1-7.021,2.116l-.61-.326a5.19,5.19,0,0,1-2.109-7.024l21.91-40.785a5.184,5.184,0,0,1,7.021-2.116Z" transform="translate(73.111 42.051)" fill="#d6d6d6"/>
    <path id="Trazado_720309" data-name="Trazado 720309" d="M80.624,25.793c2.642,1.419,3.272,5.388,1.4,8.863l-13.369,24.9c-1.867,3.482-5.528,5.146-8.17,3.728L26.568,45.072c-2.634-1.419-3.262-5.388-1.4-8.867L38.542,11.3c1.867-3.475,5.528-5.143,8.17-3.728Z" transform="translate(60.321 17.702)" fill="#d6d6d6"/>
    <path id="Trazado_720310" data-name="Trazado 720310" d="M31.843,23.605s.61-5.868-5.6-4-3.332-5.3-3.332-5.3,17.867-4.232,18.736-3.664-5.476,15.488-9.806,12.966" transform="translate(55.69 26.501)" fill="#d6d6d6"/>
    <rect id="Rect치ngulo_344644" data-name="Rect치ngulo 344644" width="37.088" height="37.494" transform="translate(103.629 32.668) rotate(-61.755)" fill="#d6d6d6"/>
    <path id="Trazado_720311" data-name="Trazado 720311" d="M91.623,134.324H40.3c-4.757,0-13.309-2.074-17.17-15.951C16.029,92.771.331,32.385.169,31.779a5.248,5.248,0,1,1,10.16-2.638c.158.6,15.831,60.9,22.915,86.423,1.524,5.486,3.9,8.264,7.056,8.264H91.623a5.248,5.248,0,1,1,0,10.5" transform="translate(0.002 63.103)" fill="#485665"/>
    <path id="Trazado_720312" data-name="Trazado 720312" d="M81.227,134.324H29.9a5.248,5.248,0,1,1,0-10.5H81.227c3.153,0,5.528-2.778,7.056-8.264,7.08-25.518,22.757-85.82,22.915-86.423a5.248,5.248,0,1,1,10.16,2.638c-.158.606-15.852,60.993-22.971,86.595-3.85,13.877-12.405,15.951-17.159,15.951" transform="translate(61.722 63.103)" fill="#485665"/>
  </g>
</svg>
