<svg id="Grupo_983899" data-name="Grupo 983899" xmlns="http://www.w3.org/2000/svg" xmlns:xlink="http://www.w3.org/1999/xlink" width="491.46" height="685" viewBox="0 0 491.46 685">
  <defs>
    <clipPath id="clip-path">
      <rect id="Rectángulo_344625" data-name="Rectángulo 344625" width="491.46" height="685" fill="none"/>
    </clipPath>
  </defs>
  <g id="Grupo_983898" data-name="Grupo 983898" clip-path="url(#clip-path)">
    <path id="Trazado_720224" data-name="Trazado 720224" d="M11.067,296.81C-3.381,224.17.094,185.484,1.093,170.447a29.367,29.367,0,0,1,5.066-14.64c6.5-9.5,10.707-12.174,10.707-12.174,4.958-14.873,11.569-14.873,11.569-14.873.551-13.221,9.365-8.814,9.365-8.814l4.409,3.856c11.016-12.671,18.178-15.426,18.178-15.426,13.222-2.753,7.162,7.714,7.162,7.714L52.4,135.1c2.2,13.772.826,16.8.826,16.8-1.653,4.959-4.958,3.857-4.958,3.857a24.943,24.943,0,0,0,3.759,10.969,5.55,5.55,0,0,0,9.243.007c.977-1.473,2.147-2.988,2.147-2.988,5.509-8.815,13-11.1,19.17-13.69a6.618,6.618,0,0,1,8.2,2.628,3.484,3.484,0,0,1-.7,4.473,138.17,138.17,0,0,1-11.518,9.068c-9.365,7.712-13.221,19.832-13.221,19.832-11.017,19.281-24.79,23.689-24.79,23.689,7.712,40.215,21.93,67.857,21.93,67.857Z" transform="translate(0 19.053)" fill="#fcaa97"/>
    <path id="Trazado_720225" data-name="Trazado 720225" d="M77.462,128.523c4.23,11.527,1.272,23.215-6.605,26.105s-17.692-4.111-21.922-15.635-1.273-23.213,6.605-26.1S73.233,117,77.462,128.523" transform="translate(8.299 19.816)" fill="#f08f4a"/>
    <path id="Trazado_720226" data-name="Trazado 720226" d="M218.957,127.028a109.811,109.811,0,0,1-2.52,27.62,8.848,8.848,0,0,1-6.182,6.51l-38.763,11.075,77.977,102.273,63.286-106.229-20.664-6.6a9.389,9.389,0,0,1-6.5-8.181c-1.091-13.272-1.091-25.908-1.091-25.908Z" transform="translate(30.278 22.427)" fill="#fcaa97"/>
    <path id="Trazado_720227" data-name="Trazado 720227" d="M283.881,160.614a9.387,9.387,0,0,1-6.132-8.049c-.638-7.77-.9-15.316-1.013-20.243l-60.82,7.614c23.166,35.6,65.329,21.816,67.965,20.678" transform="translate(38.121 23.362)" fill="#c77f6d"/>
    <path id="Trazado_720228" data-name="Trazado 720228" d="M320.3,155.123c-19.212,58.2-42.378,81.932-42.378,81.932-34.468-53.114-39.553-81.367-39.553-81.367-35.643,9.316-67.45,21.017-81.325,28.177a40.836,40.836,0,0,0-13.957,11.816C103.324,248.747,72.8,295.82,72.8,295.82L63.2,263.047C36.076,267.568,5.563,286.78,5.563,286.78c9.605,32.207,24.862,68.371,24.862,68.371,20.343,72.891,120.92-18.647,120.92-18.647L146.26,656.886H410.7l7.911-324.337c44.074-2.826,65.545,39.552,65.545,39.552,28.817-41.248-50.288-154.257-50.288-154.257C391.491,169.815,320.3,155.123,320.3,155.123" transform="translate(0.982 27.388)" fill="#73c0e6"/>
    <path id="Trazado_720229" data-name="Trazado 720229" d="M228.24,645.408h-.006a.6.6,0,0,1-.6-.607l3.689-408.818,6.865-11.442a.6.6,0,0,1,1.031.619l-6.7,11.161-3.686,408.491a.6.6,0,0,1-.6.6" transform="translate(40.191 39.592)" fill="#382118"/>
    <path id="Trazado_720230" data-name="Trazado 720230" d="M60.4,303.821h-.021a.6.6,0,0,1-.58-.622,270.927,270.927,0,0,1,2.833-29.46.6.6,0,0,1,1.186.2A269.207,269.207,0,0,0,61,303.241a.6.6,0,0,1-.6.58" transform="translate(10.558 48.241)" fill="#382118"/>
    <path id="Trazado_720231" data-name="Trazado 720231" d="M54.16,294.723A.612.612,0,0,1,54,294.7a.6.6,0,0,1-.421-.739,79.251,79.251,0,0,1,5.7-13.688.6.6,0,0,1,1.059.571,77.975,77.975,0,0,0-5.6,13.434.6.6,0,0,1-.58.444" transform="translate(9.456 49.428)" fill="#382118"/>
    <path id="Trazado_720232" data-name="Trazado 720232" d="M178.764,550.077h-52.44a.6.6,0,1,1,0-1.2h51.231l-.559-109-48.551-1.622a.6.6,0,1,1,.04-1.2l49.708,1.66Z" transform="translate(22.197 77.163)" fill="#382118"/>
    <path id="Trazado_720233" data-name="Trazado 720233" d="M359.7,550.077h-52.44l.571-111.368,49.708-1.66a.6.6,0,1,1,.04,1.2l-48.551,1.622-.56,109H359.7a.6.6,0,0,1,0,1.2" transform="translate(54.248 77.163)" fill="#382118"/>
    <path id="Trazado_720234" data-name="Trazado 720234" d="M246.937,242.035a5.749,5.749,0,1,1-5.749-5.749,5.749,5.749,0,0,1,5.749,5.749" transform="translate(41.568 41.718)" fill="#4d99bf"/>
    <path id="Trazado_720235" data-name="Trazado 720235" d="M245.662,322.995a5.748,5.748,0,1,1-5.749-5.749,5.749,5.749,0,0,1,5.749,5.749" transform="translate(41.343 56.012)" fill="#4d99bf"/>
    <path id="Trazado_720236" data-name="Trazado 720236" d="M245.662,409.368a5.748,5.748,0,1,1-5.749-5.749,5.749,5.749,0,0,1,5.749,5.749" transform="translate(41.343 71.261)" fill="#4d99bf"/>
    <path id="Trazado_720237" data-name="Trazado 720237" d="M245.662,486.818a5.748,5.748,0,1,1-5.749-5.749,5.749,5.749,0,0,1,5.749,5.749" transform="translate(41.343 84.935)" fill="#4d99bf"/>
    <path id="Trazado_720238" data-name="Trazado 720238" d="M405.681,302.36a.6.6,0,0,1-.365-.122c-.094-.072-9.554-7.056-24.843-1.049a.6.6,0,1,1-.439-1.119c15.954-6.268,25.609.9,26.011,1.212a.6.6,0,0,1-.365,1.079" transform="translate(67.03 52.527)" fill="#382118"/>
    <path id="Trazado_720239" data-name="Trazado 720239" d="M396.923,309.949a.6.6,0,0,1-.445-.2c-.054-.06-5.55-6.019-11.421-6.019a.6.6,0,1,1,0-1.2c6.408,0,12.073,6.151,12.31,6.412a.6.6,0,0,1-.445,1.006" transform="translate(67.878 53.413)" fill="#382118"/>
    <path id="Trazado_720240" data-name="Trazado 720240" d="M129.56,316.93h-.015a.6.6,0,0,1-.586-.615l1.131-46.335a.6.6,0,0,1,1.2.029l-1.129,46.334a.6.6,0,0,1-.6.587" transform="translate(22.768 47.563)" fill="#382118"/>
    <path id="Trazado_720241" data-name="Trazado 720241" d="M18.619,190.243h-.04a.452.452,0,0,1-.411-.489c.018-.191,1.862-19.106,17.447-21.889a.451.451,0,1,1,.159.887c-14.912,2.664-16.692,20.9-16.708,21.08a.449.449,0,0,1-.447.412" transform="translate(3.207 29.636)" fill="#382118"/>
    <path id="Trazado_720242" data-name="Trazado 720242" d="M45.858,133.505a.451.451,0,0,1-.4-.249c-.027-.054-2.807-5.505-9.8-11.426a.451.451,0,0,1,.582-.689c7.15,6.051,9.914,11.483,10.029,11.711a.45.45,0,0,1-.2.6.44.44,0,0,1-.2.048" transform="translate(6.266 21.369)" fill="#382118"/>
    <path id="Trazado_720243" data-name="Trazado 720243" d="M28.319,170.892a5.537,5.537,0,0,1-2.1-.415l-.1-.04a5.769,5.769,0,0,1-3.53-5.9c.267-2.851.747-5.486.885-6.21l-4.292-5.9a.451.451,0,1,1,.729-.531l4.524,6.219-.039.194c-.006.029-.6,3.026-.909,6.313a4.87,4.87,0,0,0,2.979,4.979l.093.039a4.6,4.6,0,0,0,5.364-1.411,23.433,23.433,0,0,0,2.645-4.151l.125-.249h1.474a3.867,3.867,0,0,0,3.585-2.394,45.721,45.721,0,0,0,2.551-9.161,7.949,7.949,0,0,0-.778-5.133l-8.6-16.254c-.028-.052-3.2-5.739-7.768-4.729a.451.451,0,1,1-.2-.88c5.23-1.165,8.616,4.922,8.757,5.182l8.608,16.259a8.854,8.854,0,0,1,.867,5.717,46.451,46.451,0,0,1-2.6,9.344,4.765,4.765,0,0,1-4.418,2.952h-.918a24.274,24.274,0,0,1-2.623,4.061,5.516,5.516,0,0,1-4.314,2.1" transform="translate(3.373 22.093)" fill="#382118"/>
    <path id="Trazado_720244" data-name="Trazado 720244" d="M35.889,162.965a.463.463,0,0,1-.167-.032.452.452,0,0,1-.252-.587,47.131,47.131,0,0,0,1.794-5.551,6.374,6.374,0,0,0-.426-4.189c-1.721-3.637-5.138-10.381-8.672-14.679a5.029,5.029,0,0,0-4.986-1.758,48.1,48.1,0,0,0-8.592,3.067.451.451,0,1,1-.366-.824,48.952,48.952,0,0,1,8.763-3.125,5.926,5.926,0,0,1,5.878,2.066c3.6,4.373,7.052,11.191,8.791,14.866A7.274,7.274,0,0,1,38.141,157a47.158,47.158,0,0,1-1.833,5.678.451.451,0,0,1-.419.284" transform="translate(2.463 23.861)" fill="#382118"/>
    <path id="Trazado_720245" data-name="Trazado 720245" d="M23.3,153.858a.451.451,0,0,1-.049-.9l4.958-.552a.451.451,0,1,1,.1.9l-4.958.552-.051,0" transform="translate(4.034 26.908)" fill="#382118"/>
    <path id="Trazado_720246" data-name="Trazado 720246" d="M27.982,197.734a.451.451,0,0,1-.1-.891,32.466,32.466,0,0,0,7.578-2.7.451.451,0,1,1,.465.773,32.618,32.618,0,0,1-7.848,2.808.467.467,0,0,1-.1.011" transform="translate(4.861 34.265)" fill="#382118"/>
    <path id="Trazado_720247" data-name="Trazado 720247" d="M303.358,155.689c1.525-1.92,3.073-4.127,5.453-4.714,2.47-.609,4.992.767,6.944,2.4s3.71,3.607,6.065,4.567c2.834,1.155,6.046.646,9.075,1.089a15.813,15.813,0,0,1,10.876,7.3,18.883,18.883,0,0,1,2.423,13,8.433,8.433,0,0,1-1.547,3.973,3.912,3.912,0,0,1-3.8,1.508,7.667,7.667,0,0,1-2.24-1.2,14.155,14.155,0,0,0-6.311-2.191,2.461,2.461,0,0,1-1.455-.429,2.389,2.389,0,0,1-.571-1.094c-2.1-6.411-7.406-11.506-13.626-14.116a34.488,34.488,0,0,0-20.878-1.418,48.039,48.039,0,0,0,9.59-8.674" transform="translate(51.866 26.629)" fill="#e34927"/>
    <path id="Trazado_720248" data-name="Trazado 720248" d="M328.966,380.2a81.912,81.912,0,0,0-24.682,9.545.094.094,0,0,0-.041.1c2.471,10.009-1.9,21.543-2.918,24.026a.1.1,0,0,1-.182-.048c.442-10.59-1.141-16.772-1.4-17.7a.1.1,0,0,0-.147-.049c-6.572,4.407-8.846,8.258-8.926,8.4l-.008.011c-5.077,6.089-15.388,12.857-17.435,14.174a.1.1,0,0,1-.135-.131c4.321-6.885,14.669-19.76,16.245-21.711a.1.1,0,0,0-.1-.152c-9.119,2.934-21.124,9.2-24.49,10.994a.1.1,0,0,1-.1-.162c13.28-10.713,22.224-17.591,23.363-18.464.058-.044.038-.121-.021-.164a25.143,25.143,0,0,0-10.591-4.451,27.706,27.706,0,0,1,9.891-.282,84.5,84.5,0,0,0,15.8.566.084.084,0,0,0,.029-.008c10.207-4.836,21.43-10.689,22.5-11.25a.093.093,0,0,1,.127.045l3.291,6.58a.1.1,0,0,1-.067.136" transform="translate(46.716 65.931)" fill="#ffe09c"/>
    <path id="Trazado_720249" data-name="Trazado 720249" d="M267.212,401.22h0a.488.488,0,0,0-.727-.148c-1.25.98-1.61,1.069-3.024,2.212,0,0,.759.049,3.548-1.393a.49.49,0,0,0,.2-.671" transform="translate(46.515 70.793)" fill="#d67623"/>
    <path id="Trazado_720250" data-name="Trazado 720250" d="M273.806,409.285c-.832,1.2-1.575,2.326-2.181,3.31,0,0,1.334-.838,3.32-2.2a.583.583,0,0,0,.06-.914l-.334-.3a.584.584,0,0,0-.865.1" transform="translate(47.957 72.217)" fill="#d67623"/>
    <path id="Trazado_720251" data-name="Trazado 720251" d="M295.73,405.8c-.014.937-.042,1.911-.091,2.927,0,0,.458-1.026,1.058-2.747a.5.5,0,0,0-.42-.665.5.5,0,0,0-.547.485" transform="translate(52.197 71.561)" fill="#d67623"/>
    <path id="Trazado_720252" data-name="Trazado 720252" d="M278.293,382.819a.375.375,0,0,0-.416-.375c-.766.088-1.571.211-2.408.379a16.9,16.9,0,0,1,2.348.507.377.377,0,0,0,.477-.362Z" transform="translate(48.635 67.522)" fill="#d67623"/>
    <path id="Trazado_720253" data-name="Trazado 720253" d="M287.729,383.669a110.412,110.412,0,0,0-22.556,15.272.093.093,0,0,0-.013.109c5.035,9,3.88,21.276,3.554,23.941a.1.1,0,0,1-.188,0c-2.38-10.329-5.545-15.869-6.044-16.7a.1.1,0,0,0-.155-.007c-5.169,5.991-6.34,10.308-6.382,10.462l0,.012c-3.281,7.217-11.43,16.476-13.055,18.288a.1.1,0,0,1-.166-.089c2.343-7.784,8.908-22.942,9.909-25.239a.1.1,0,0,0-.14-.12c-8.016,5.247-17.931,14.467-20.7,17.092a.1.1,0,0,1-.141-.129c9.965-13.849,16.768-22.851,17.634-23.995a.1.1,0,0,0-.064-.152,25.148,25.148,0,0,0-11.393-1.486,27.693,27.693,0,0,1,9.463-2.893,84.486,84.486,0,0,0,15.389-3.644.082.082,0,0,0,.026-.015c8.561-7.368,17.83-15.986,18.717-16.812.039-.036,7.4-6.366,7.441-6.326l5.65,6.78c.042.047-6.724,5.623-6.78,5.651" transform="translate(40.895 65.544)" fill="#ffe09c"/>
    <path id="Trazado_720254" data-name="Trazado 720254" d="M233.733,416.591h0a.487.487,0,0,0-.74.051c-.945,1.275-1.27,1.458-2.33,2.933,0,0,.745-.153,3.052-2.282a.491.491,0,0,0,.018-.7" transform="translate(40.725 73.526)" fill="#d67623"/>
    <path id="Trazado_720255" data-name="Trazado 720255" d="M242.179,422.594c-.484,1.381-.9,2.66-1.226,3.77,0,0,1.064-1.161,2.618-3a.584.584,0,0,0-.185-.9l-.4-.2a.582.582,0,0,0-.806.329" transform="translate(42.542 74.543)" fill="#d67623"/>
    <path id="Trazado_720256" data-name="Trazado 720256" d="M262.506,413.345q.353,1.359.688,2.846s.169-1.111.292-2.928a.5.5,0,0,0-.581-.529.494.494,0,0,0-.4.612" transform="translate(46.344 72.869)" fill="#d67623"/>
    <path id="Trazado_720257" data-name="Trazado 720257" d="M239.617,395.876a.375.375,0,0,0-.5-.252c-.715.288-1.459.62-2.223,1a17.012,17.012,0,0,1,2.4-.134.376.376,0,0,0,.364-.475Z" transform="translate(41.825 69.845)" fill="#d67623"/>
    <path id="Trazado_720258" data-name="Trazado 720258" d="M299.283,162.9c42.378-11.3,41.249,23.732,41.249,23.732,2.26,64.415,35.033,96.623,35.033,96.623,33.9,40.118,28.251,87.582,28.251,87.582,30.513,28.817,13,32.208,13,32.208,8.476,20.341-14.126,6.78-14.126,6.78,0,22.6-39.553-13.561-39.553-13.561-16.387,40.118-35.033,22.6-35.033,22.6l-3.956-5.65c2.826-7.911,5.651-21.472,5.651-21.472-28.817,37.293-40.684,24.3-40.684,24.3l-3.956-6.216c-3.954-8.476,1.7-14.126,1.7-14.126,9.607-17.517-.565-44.074-.565-44.074-90.408-72.891,6.78-140.132,6.78-140.132,23.168-18.081,5.085-40.118,5.085-40.118Z" transform="translate(43.749 28.365)" fill="#f08f4a"/>
    <path id="Trazado_720259" data-name="Trazado 720259" d="M299.589,168.827c15.9,14.36,20.854-12.994.282-2.2a1.354,1.354,0,0,0-.282,2.2" transform="translate(52.816 28.961)" fill="#e34927"/>
    <path id="Trazado_720260" data-name="Trazado 720260" d="M308.747,166.429a.848.848,0,1,1-.658-.327c.027,0,.049.006.074.007a5.345,5.345,0,0,0-2.128-.42c-2.028,0-3.673,1.012-3.673,2.26s1.645,2.26,3.673,2.26,3.672-1.012,3.672-2.26a1.9,1.9,0,0,0-.96-1.52" transform="translate(53.384 29.253)" fill="#382118"/>
    <path id="Trazado_720261" data-name="Trazado 720261" d="M290.763,170.238c1.912,7.925-1.478,12.446-1.478,12.446-12.431,11.867-6.205,19.07-1.131,18.647,6.78-.565,10.031-6.683,10.031-6.683,4.66-11.4-4.283-23.7-4.283-23.7Z" transform="translate(49.793 30.056)" fill="#e34927"/>
    <path id="Trazado_720262" data-name="Trazado 720262" d="M294.906,162.611c-9.282-1.162-17.758,7.312-17.758,7.312,11.867,0,16.615,2.252,16.615,2.252,1.467-.557,6.552,2.834,6.552,2.834a21.877,21.877,0,0,0-3.956-8.476,5.194,5.194,0,0,1-1.454-3.923" transform="translate(48.932 28.691)" fill="#ffe09c"/>
    <path id="Trazado_720263" data-name="Trazado 720263" d="M291.655,164.333c0,.312-.506.565-1.131.565s-1.13-.253-1.13-.565.506-.565,1.13-.565,1.131.253,1.131.565" transform="translate(51.094 28.914)" fill="#382118"/>
    <path id="Trazado_720264" data-name="Trazado 720264" d="M382.77,376.763a.6.6,0,0,1-.553-.365c-4.949-11.548-22.742-22.216-22.922-22.322a.6.6,0,0,1,.614-1.034c.745.442,18.308,10.973,23.412,22.882a.6.6,0,0,1-.315.789.584.584,0,0,1-.236.049" transform="translate(63.384 62.317)" fill="#382118"/>
    <path id="Trazado_720265" data-name="Trazado 720265" d="M395.681,371.339a.6.6,0,0,1-.547-.352c-6.062-13.227-25.548-24.478-25.744-24.59a.6.6,0,1,1,.6-1.044c.815.465,20.017,11.553,26.241,25.134a.6.6,0,0,1-.546.852" transform="translate(65.164 60.96)" fill="#382118"/>
    <path id="Trazado_720266" data-name="Trazado 720266" d="M348.7,362.692a.566.566,0,0,1-.139-.016,100.5,100.5,0,0,1-17.065-5.69.6.6,0,0,1,.5-1.092,99.3,99.3,0,0,0,16.838,5.611.6.6,0,0,1-.138,1.187" transform="translate(58.466 62.825)" fill="#382118"/>
    <path id="Trazado_720267" data-name="Trazado 720267" d="M358.778,357.524a41.088,41.088,0,0,1-17.048-3.647,54.776,54.776,0,0,1-8.378-4.892,84.093,84.093,0,0,1-34.188-87.073.6.6,0,0,1,1.175.256A82.887,82.887,0,0,0,334.037,348a53.586,53.586,0,0,0,8.194,4.787,40.339,40.339,0,0,0,31.041.837.6.6,0,0,1,.442,1.119,40.814,40.814,0,0,1-14.936,2.785" transform="translate(52.481 46.158)" fill="#382118"/>
    <path id="Trazado_720268" data-name="Trazado 720268" d="M368.094,347.587a.591.591,0,0,1-.268-.064,107.835,107.835,0,0,1-32.449-24.949c-4.327-4.907-10.16-12.466-10.847-21.406a.6.6,0,0,1,1.2-.093c.66,8.582,6.337,15.926,10.549,20.7a106.65,106.65,0,0,0,32.086,24.669.6.6,0,0,1-.269,1.139" transform="translate(57.297 53.058)" fill="#382118"/>
    <path id="Trazado_720269" data-name="Trazado 720269" d="M368.794,339.311a.6.6,0,0,1-.342-.107c-11.617-8.054-19.712-21.984-24.059-41.4a.6.6,0,1,1,1.173-.262c4.28,19.113,12.21,32.8,23.572,40.676a.6.6,0,0,1-.344,1.1" transform="translate(60.802 52.449)" fill="#382118"/>
    <path id="Trazado_720270" data-name="Trazado 720270" d="M294.186,224.753a9.363,9.363,0,0,1-2.288-.289,5.892,5.892,0,0,1-3.839-2.793c-.108-.184-.211-.379-.313-.573a5.627,5.627,0,0,0-.536-.894c-.594-.733-1.255-.574-2.52-.072l-.16.064a4.618,4.618,0,0,1-4.517-.267,6.72,6.72,0,0,1-2.481-5.733.6.6,0,0,1,1.2.1,5.583,5.583,0,0,0,1.962,4.646,3.406,3.406,0,0,0,3.4.14l.156-.062c1.068-.425,2.683-1.067,3.9.431a6.48,6.48,0,0,1,.668,1.094c.093.178.186.354.284.521a4.74,4.74,0,0,0,3.1,2.237,7.86,7.86,0,0,0,6.315-1.055.6.6,0,0,1,.649,1.012,9.123,9.123,0,0,1-4.971,1.5" transform="translate(48.996 37.719)" fill="#985419"/>
    <path id="Trazado_720271" data-name="Trazado 720271" d="M318.454,227.063a7.947,7.947,0,0,1-.824-.045,9.954,9.954,0,0,1-5.486-2.444.6.6,0,0,1,.788-.908,8.76,8.76,0,0,0,4.824,2.155,4.654,4.654,0,0,0,2.692-.4c.209-.111.411-.244.612-.375a5,5,0,0,1,1.354-.7,4.764,4.764,0,0,1,2.312.089l.173.038a20.244,20.244,0,0,0,4.53.419,4.04,4.04,0,0,0,3.084-1.047.6.6,0,0,1,.9.793,5.167,5.167,0,0,1-3.963,1.457,21.4,21.4,0,0,1-4.8-.445l-.178-.036a3.744,3.744,0,0,0-1.733-.111,4.087,4.087,0,0,0-1.026.547c-.233.152-.466.3-.708.432a5.414,5.414,0,0,1-2.555.582" transform="translate(55.074 39.464)" fill="#985419"/>
    <path id="Trazado_720272" data-name="Trazado 720272" d="M274.243,232.976a7.414,7.414,0,0,1-6.646-4.114.6.6,0,1,1,1.093-.5,6.128,6.128,0,0,0,7.321,3.124.6.6,0,0,1,.394,1.137,6.588,6.588,0,0,1-2.161.357" transform="translate(47.236 40.256)" fill="#985419"/>
    <path id="Trazado_720273" data-name="Trazado 720273" d="M281.018,242.135a7.417,7.417,0,0,1-6.682-4.2.6.6,0,0,1,1.1-.489,6.129,6.129,0,0,0,7.282,3.213.6.6,0,1,1,.38,1.141,6.557,6.557,0,0,1-2.079.331" transform="translate(48.426 41.86)" fill="#985419"/>
    <path id="Trazado_720274" data-name="Trazado 720274" d="M437.355,351.383A59.882,59.882,0,0,1,385.8,367.121c-20.081-4.884-29.85-4.341-29.85-4.341-19.083-3.23-28.8-5.03-33.692-6a26.3,26.3,0,0,1-8.67-3.4c-23.553-14.509-30.906-19.9-30.906-19.9a5.851,5.851,0,0,1,0-6.513c-9.227-7.6-10.313-11.4-10.313-11.4-1.628-5.427,5.427-4.884,5.427-4.884-14.654-10.855-2.171-12.483-2.171-12.483-1.628-7.6,5.97-6.512,5.97-6.512,26.051,8.683,38.533,8.141,38.533,8.141,26.594,1.086,22.795-8.684,22.795-8.684-1.085-5.426-6.512-9.225-6.512-9.225-6.69-7.359-5.958-12.45-4.412-15.274a2.828,2.828,0,0,1,4.383-.692c9.767,8.948,16.854,16.508,16.854,16.508,14.11,9.769,18.452,26.051,18.452,26.051,3.413,7.611,7.714,10.908,11.246,12.281a9.676,9.676,0,0,0,10.1-1.994,27.29,27.29,0,0,0,4.159-4.86c31.478,5.427,40.162,37.449,40.162,37.449" transform="translate(47.787 46.823)" fill="#fcaa97"/>
    <path id="Trazado_720275" data-name="Trazado 720275" d="M306.424,306.246a.434.434,0,0,1-.1-.012c-.958-.222-23.539-5.533-31.672-12.581a.451.451,0,1,1,.591-.682c7.965,6.9,31.053,12.33,31.286,12.384a.451.451,0,0,1-.1.891" transform="translate(48.464 51.706)" fill="#382118"/>
    <path id="Trazado_720276" data-name="Trazado 720276" d="M303.384,316.855a.466.466,0,0,1-.138-.021,135.185,135.185,0,0,1-26.695-12.53.451.451,0,1,1,.478-.765,134.163,134.163,0,0,0,26.492,12.436.451.451,0,0,1-.138.88" transform="translate(48.789 53.579)" fill="#382118"/>
    <path id="Trazado_720277" data-name="Trazado 720277" d="M304.822,329.065a.441.441,0,0,1-.128-.019c-.147-.044-14.832-4.438-24.012-10.918a.451.451,0,0,1,.52-.738c9.058,6.395,23.6,10.748,23.748,10.791a.451.451,0,0,1-.127.884" transform="translate(49.522 56.022)" fill="#382118"/>
    <path id="Trazado_720278" data-name="Trazado 720278" d="M186.027,113.818a11.641,11.641,0,0,1-3.366-3.778l-9.538-14.516c-1.9-2.893-3.837-5.864-4.647-9.244-.917-3.819-.32-7.824.279-11.707q2.017-13.072,4.036-26.145c.452-2.93.961-6,2.751-8.338C177.673,37.3,181.2,36.083,184,34c6.319-4.7,8.623-13.492,14.818-18.361,2.781-2.187,6.155-3.423,9.465-4.624L232.64,2.175c3.907-1.417,8.1-2.852,12.12-1.83,2.331.592,4.4,1.97,6.689,2.7,8.174,2.61,17.122-3.388,25.4-1.146,8.763,2.375,13.143,12.86,21.47,16.516,4.127,1.813,9.049,1.853,12.6,4.66,7.179,5.679,3.749,17.514,7.281,26.041,2.245,5.42,7.432,9.668,7.859,15.534.42,5.79-3.985,10.753-5.209,16.424-1.344,6.229,1.169,13.241-1.8,18.857-2.848,5.384-9.428,7.133-14.608,10.234-4.727,2.83-8.564,7.063-13.437,9.622-6.233,3.273-13.527,3.5-20.539,3.663l-49.442,1.128c-6.462.147-14.469.422-19.91-3.763-2.191-1.685-2.444-3.732-5.2-5.072-3.019-1.467-6.82-.066-9.877-1.927" transform="translate(29.662 0)" fill="#87cbed"/>
    <path id="Trazado_720279" data-name="Trazado 720279" d="M302.973,92.648a7.033,7.033,0,0,0-3.817,0c1.132-38.98-20.183-69.754-55.585-67.694-38.487,2.239-52.377,32.742-48.321,71.624a7.183,7.183,0,0,0-5.66-.626c-5.139,1.78-6.869,10.255-3.864,18.927s9.608,14.26,14.747,12.48a6.052,6.052,0,0,0,1.465-.752c10.825,30.734,31.73,51.785,49.5,50.485,19.365-1.417,35.078-23.638,42.8-52.4,5.367,1.038,11.542-4.689,14.027-13.18,2.578-8.809.208-17.255-5.292-18.865" transform="translate(32.53 4.388)" fill="#fcaa97"/>
    <path id="Trazado_720280" data-name="Trazado 720280" d="M238.015,110.674a.642.642,0,0,1-.067,0,.6.6,0,0,1-.532-.665,36.369,36.369,0,0,0,0-7.9.6.6,0,0,1,1.186-.2,36.857,36.857,0,0,1,0,8.23.6.6,0,0,1-.6.535" transform="translate(41.917 17.904)" fill="#382118"/>
    <path id="Trazado_720281" data-name="Trazado 720281" d="M240.44,116.8a9.611,9.611,0,0,1-5.02-1.4.6.6,0,0,1,.619-1.031c4.967,2.981,9.894-.371,10.1-.515a.6.6,0,1,1,.688.986,12.11,12.11,0,0,1-6.388,1.965" transform="translate(41.513 20.082)" fill="#382118"/>
    <path id="Trazado_720282" data-name="Trazado 720282" d="M192.8,105.513a.6.6,0,0,1-.332-.1c-.053-.034-5.186-3.56-2.93-10.893a.6.6,0,1,1,1.148.353c-1.985,6.452,2.267,9.417,2.45,9.541a.6.6,0,0,1-.337,1.1" transform="translate(33.363 16.613)" fill="#382118"/>
    <path id="Trazado_720283" data-name="Trazado 720283" d="M282.422,102.679a.6.6,0,0,1-.333-1.1c.178-.12,4.376-3.021,2.9-9.448a.6.6,0,0,1,1.172-.269c1.671,7.263-3.354,10.685-3.406,10.72a.589.589,0,0,1-.331.1" transform="translate(49.757 16.136)" fill="#382118"/>
    <path id="Trazado_720284" data-name="Trazado 720284" d="M259.346,96.364a7.75,7.75,0,0,1,.4-2.519,1.8,1.8,0,0,0,1.923.938c2.22-.321,2.044-3.387.253-3.872a3.32,3.32,0,0,1,1.692-.488c2.375-.014,4.318,2.621,4.338,5.887s-1.888,5.926-4.265,5.942-4.318-2.621-4.338-5.887" transform="translate(45.789 15.964)" fill="#382118"/>
    <path id="Trazado_720285" data-name="Trazado 720285" d="M212.288,97.518a7.748,7.748,0,0,1,.282-2.534,1.8,1.8,0,0,0,1.964.849c2.2-.421,1.887-3.477.078-3.879a3.31,3.31,0,0,1,1.667-.565c2.372-.122,4.432,2.423,4.6,5.685s-1.618,6.006-3.991,6.129-4.432-2.423-4.6-5.685" transform="translate(37.479 16.135)" fill="#382118"/>
    <path id="Trazado_720286" data-name="Trazado 720286" d="M272.4,85.64c-.637,1.341-4.729.734-9.141-1.358s-7.472-4.876-6.837-6.217,4.729-.733,9.141,1.358,7.473,4.876,6.837,6.217" transform="translate(45.258 13.657)" fill="#943c26"/>
    <path id="Trazado_720287" data-name="Trazado 720287" d="M206.151,88.382c.637,1.341,4.729.734,9.141-1.358s7.472-4.876,6.837-6.217-4.729-.733-9.141,1.358-7.473,4.876-6.837,6.217" transform="translate(36.382 14.141)" fill="#943c26"/>
    <path id="Trazado_720288" data-name="Trazado 720288" d="M228.327,125.466c13.442,1.075,30.11-1.613,30.11-1.613-14.518,27.96-30.11,1.613-30.11,1.613" transform="translate(40.312 21.867)" fill="#fff"/>
    <path id="Trazado_720289" data-name="Trazado 720289" d="M274.7,109.041c0,2.673-3.731,4.839-8.335,4.839s-8.334-2.166-8.334-4.839,3.731-4.839,8.334-4.839,8.335,2.166,8.335,4.839" transform="translate(45.557 18.397)" fill="#ff8382"/>
    <path id="Trazado_720290" data-name="Trazado 720290" d="M208.219,110.412c0,2.673,3.731,4.839,8.335,4.839s8.334-2.166,8.334-4.839-3.731-4.839-8.334-4.839-8.335,2.166-8.335,4.839" transform="translate(36.762 18.639)" fill="#ff8382"/>
    <path id="Trazado_720291" data-name="Trazado 720291" d="M261.016,77.083a64.775,64.775,0,0,1-16.88-4.91c-2.7-1.166-5.325-2.478-7.912-3.887-2.613-1.4-5.284-2.7-7.99-3.911-3.947-1.768-7.949-3.379-11.909-5.052a101.042,101.042,0,0,1,24.03,9.623c25.338,12.269,53.264,3.926,53.264,3.926-18.1-48.1-87.912-15.214-87.912-15.214a53.843,53.843,0,0,1,5.843.677l-.248.574c5.47,2.293,11.029,4.293,16.451,6.576,2.713,1.138,5.385,2.361,8,3.694,2.63,1.355,5.32,2.624,8.069,3.737a65.351,65.351,0,0,0,17.141,4.567,64.291,64.291,0,0,0,17.678-.586,64.11,64.11,0,0,1-17.627.186" transform="translate(36.319 8.243)" fill="#943c26"/>
    <path id="Trazado_720292" data-name="Trazado 720292" d="M192.83,94.129C196.809,76,212.456,59.985,244.447,59.717c43.828-.368,54.271,31.353,54.271,31.353.036-28.664.036-72.217-52.971-71.413-72.916,1.1-52.918,74.472-52.918,74.472" transform="translate(33.602 3.469)" fill="#87cbed"/>
    <path id="Trazado_720293" data-name="Trazado 720293" d="M191.807,92.016a37.535,37.535,0,0,1,10.615-24.926c9.454-9.851,24.125-15.033,43.605-15.4,22.871-.431,36.563,9.234,44.023,17.418a50.517,50.517,0,0,1,10.835,18.171l-4.045,1.166A47.252,47.252,0,0,0,286.813,71.8C276.822,60.928,263.136,55.58,246.106,55.9c-18.32.346-32,5.092-40.646,14.107a33.632,33.632,0,0,0-9.444,21.918Z" transform="translate(33.864 9.123)" fill="#4d99bf"/>
    <path id="Trazado_720294" data-name="Trazado 720294" d="M49.887,126.984a.6.6,0,0,1-.6-.546c-.027-.286-.6-7.055,4.139-10.605a.6.6,0,1,1,.722.961c-4.192,3.144-3.67,9.471-3.664,9.535a.6.6,0,0,1-.545.653l-.055,0" transform="translate(8.696 20.429)" fill="#ffe09c"/>
    <path id="Trazado_720295" data-name="Trazado 720295" d="M242.53,241.778l-1.335-1.959c-1.44-2.114-35.324-52.144-39.288-83.854l3.58-.447c3.423,27.375,30.956,70.537,37.364,80.278,32.467-39.285,40.925-80.551,41.009-80.969l3.539.7c-.086.434-8.964,43.873-43.336,84.445Z" transform="translate(35.648 27.335)" fill="#4d99bf"/>
    <path id="Trazado_720296" data-name="Trazado 720296" d="M418.236,345.292a1.8,1.8,0,0,1-1.739-1.329c-.082-.3-8.6-30.076-39.285-36a1.8,1.8,0,0,1,.684-3.543,53.3,53.3,0,0,1,33.542,21.7,58.1,58.1,0,0,1,8.539,16.894,1.8,1.8,0,0,1-1.266,2.215,1.842,1.842,0,0,1-.475.064" transform="translate(66.341 53.742)" fill="#4d99bf"/>
    <path id="Trazado_720297" data-name="Trazado 720297" d="M6.625,272.4l-1.846-3.1c23.662-14.085,57.725-23.822,58.067-23.918l.984,3.471c-.336.1-33.954,9.709-57.2,23.548" transform="translate(0.844 43.323)" fill="#4d99bf"/>
  </g>
</svg>
