<svg xmlns="http://www.w3.org/2000/svg" xmlns:xlink="http://www.w3.org/1999/xlink" width="140" height="140" viewBox="0 0 140 140">
  <defs>
    <clipPath id="clip-path">
      <circle id="Elipse_5879" data-name="Elipse 5879" cx="65" cy="65" r="65" transform="translate(8576 -10550)" fill="#f3b7b7"/>
    </clipPath>
    <clipPath id="clip-path-2">
      <rect id="Rectángulo_344553" data-name="Rectángulo 344553" width="125.567" height="175.017" fill="none"/>
    </clipPath>
  </defs>
  <g id="Grupo_983956" data-name="Grupo 983956" transform="translate(-8571 10555)">
    <circle id="Elipse_5877" data-name="Elipse 5877" cx="70" cy="70" r="70" transform="translate(8571 -10555)" fill="#b20d0d"/>
    <g id="Enmascarar_grupo_981444" data-name="Enmascarar grupo 981444" clip-path="url(#clip-path)">
      <g id="Grupo_983824" data-name="Grupo 983824" transform="translate(8582.567 -10543.003)">
        <g id="Grupo_983823" data-name="Grupo 983823" clip-path="url(#clip-path-2)">
          <path id="Trazado_719352" data-name="Trazado 719352" d="M2.828,156.177C-.864,137.618.024,127.734.279,123.892a7.5,7.5,0,0,1,1.294-3.74,11.724,11.724,0,0,1,2.736-3.11c1.267-3.8,2.956-3.8,2.956-3.8.141-3.378,2.393-2.252,2.393-2.252l1.126.985c2.815-3.238,4.644-3.941,4.644-3.941,3.378-.7,1.83,1.971,1.83,1.971l-3.871,4.856c.563,3.519.211,4.293.211,4.293-.422,1.267-1.267.985-1.267.985a6.373,6.373,0,0,0,.96,2.8,1.418,1.418,0,0,0,2.362,0c.25-.376.549-.764.549-.764,1.407-2.252,3.321-2.837,4.9-3.5a1.691,1.691,0,0,1,2.095.672.89.89,0,0,1-.179,1.143,35.3,35.3,0,0,1-2.943,2.317,12.148,12.148,0,0,0-3.378,5.067c-2.815,4.926-6.334,6.052-6.334,6.052a70.751,70.751,0,0,0,5.6,17.337Z" transform="translate(0 -75.475)" fill="#fcaa97"/>
          <path id="Trazado_719353" data-name="Trazado 719353" d="M54.788,116.4c1.081,2.945.325,5.931-1.688,6.67s-4.52-1.05-5.6-3.995-.325-5.931,1.688-6.67,4.52,1.05,5.6,3.994" transform="translate(-32.876 -78.498)" fill="#f08f4a"/>
          <path id="Trazado_719354" data-name="Trazado 719354" d="M183.619,127.028a28.056,28.056,0,0,1-.644,7.057,2.261,2.261,0,0,1-1.579,1.663l-9.9,2.83,19.923,26.131,16.169-27.141-5.28-1.685a2.4,2.4,0,0,1-1.66-2.09c-.279-3.391-.279-6.619-.279-6.619Z" transform="translate(-119.94 -88.842)" fill="#fcaa97"/>
          <path id="Trazado_719355" data-name="Trazado 719355" d="M233.281,139.551a2.4,2.4,0,0,1-1.567-2.056c-.163-1.985-.231-3.913-.259-5.172l-15.539,1.945c5.919,9.1,16.692,5.574,17.365,5.283" transform="translate(-151.01 -92.546)" fill="#c77f6d"/>
          <path id="Trazado_719356" data-name="Trazado 719356" d="M85.977,155.123c-4.909,14.87-10.828,20.933-10.828,20.933-8.807-13.571-10.106-20.789-10.106-20.789-9.107,2.38-17.233,5.37-20.778,7.2a10.434,10.434,0,0,0-3.566,3.019c-10.158,13.558-17.956,25.585-17.956,25.585L20.289,182.7c-6.93,1.155-14.726,6.064-14.726,6.064,2.454,8.229,6.352,17.469,6.352,17.469,5.2,18.624,30.9-4.764,30.9-4.764l-1.3,81.857h67.565l2.021-82.868c11.261-.722,16.747,10.106,16.747,10.106,7.363-10.539-12.849-39.412-12.849-39.412-10.828-12.271-29.018-16.025-29.018-16.025" transform="translate(-3.891 -108.492)" fill="#73c0e6"/>
          <path id="Trazado_719357" data-name="Trazado 719357" d="M227.793,331.854h0a.153.153,0,0,1-.152-.155l.942-104.452,1.754-2.923a.154.154,0,1,1,.263.158l-1.711,2.852L227.946,331.7a.154.154,0,0,1-.154.152" transform="translate(-159.209 -156.838)" fill="#382118"/>
          <path id="Trazado_719358" data-name="Trazado 719358" d="M59.955,281.05H59.95a.154.154,0,0,1-.148-.159,69.222,69.222,0,0,1,.724-7.527.154.154,0,0,1,.3.051,68.783,68.783,0,0,0-.72,7.487.154.154,0,0,1-.154.148" transform="translate(-41.825 -191.099)" fill="#382118"/>
          <path id="Trazado_719359" data-name="Trazado 719359" d="M53.712,283.732a.156.156,0,0,1-.041-.005.154.154,0,0,1-.108-.189,20.247,20.247,0,0,1,1.456-3.5.154.154,0,0,1,.271.146,19.922,19.922,0,0,0-1.431,3.432.154.154,0,0,1-.148.113" transform="translate(-37.458 -195.801)" fill="#382118"/>
          <path id="Trazado_719360" data-name="Trazado 719360" d="M139.275,465.927h-13.4a.154.154,0,0,1,0-.307h13.089l-.143-27.85-12.4-.415a.154.154,0,1,1,.01-.307l12.7.424Z" transform="translate(-87.93 -305.668)" fill="#382118"/>
          <path id="Trazado_719361" data-name="Trazado 719361" d="M320.656,465.927h-13.4l.146-28.454,12.7-.424a.154.154,0,1,1,.01.307l-12.4.415-.143,27.85h13.09a.154.154,0,0,1,0,.307" transform="translate(-214.894 -305.668)" fill="#382118"/>
          <path id="Trazado_719362" data-name="Trazado 719362" d="M238.378,237.755a1.469,1.469,0,1,1-1.469-1.469,1.469,1.469,0,0,1,1.469,1.469" transform="translate(-164.665 -165.256)" fill="#4d99bf"/>
          <path id="Trazado_719363" data-name="Trazado 719363" d="M237.1,318.715a1.469,1.469,0,1,1-1.469-1.469,1.469,1.469,0,0,1,1.469,1.469" transform="translate(-163.774 -221.879)" fill="#4d99bf"/>
          <path id="Trazado_719364" data-name="Trazado 719364" d="M237.1,405.088a1.469,1.469,0,1,1-1.469-1.469,1.469,1.469,0,0,1,1.469,1.469" transform="translate(-163.774 -282.288)" fill="#4d99bf"/>
          <path id="Trazado_719365" data-name="Trazado 719365" d="M237.1,482.538a1.469,1.469,0,1,1-1.469-1.469,1.469,1.469,0,0,1,1.469,1.469" transform="translate(-163.774 -336.456)" fill="#4d99bf"/>
          <path id="Trazado_719366" data-name="Trazado 719366" d="M386.3,298.748a.154.154,0,0,1-.093-.031c-.024-.018-2.441-1.8-6.347-.268a.154.154,0,1,1-.112-.286c4.076-1.6,6.543.231,6.646.31a.154.154,0,0,1-.093.276" transform="translate(-265.526 -208.075)" fill="#382118"/>
          <path id="Trazado_719367" data-name="Trazado 719367" d="M387.641,304.426a.153.153,0,0,1-.114-.05,4.836,4.836,0,0,0-2.918-1.538.154.154,0,1,1,0-.307,5.053,5.053,0,0,1,3.145,1.638.154.154,0,0,1-.114.257" transform="translate(-268.885 -211.588)" fill="#382118"/>
          <path id="Trazado_719368" data-name="Trazado 719368" d="M129.112,281.539h0a.153.153,0,0,1-.15-.157l.289-11.839a.154.154,0,0,1,.307.008l-.289,11.838a.154.154,0,0,1-.154.15" transform="translate(-90.193 -188.412)" fill="#382118"/>
          <path id="Trazado_719369" data-name="Trazado 719369" d="M18.282,173.577h-.01a.116.116,0,0,1-.1-.125c0-.049.476-4.882,4.458-5.592a.115.115,0,1,1,.041.227c-3.81.681-4.265,5.339-4.269,5.386a.115.115,0,0,1-.114.105" transform="translate(-12.705 -117.398)" fill="#382118"/>
          <path id="Trazado_719370" data-name="Trazado 719370" d="M38.139,124.221a.115.115,0,0,1-.1-.064,10.609,10.609,0,0,0-2.5-2.919.115.115,0,0,1,.149-.176,10.63,10.63,0,0,1,2.562,2.992.115.115,0,0,1-.052.155.112.112,0,0,1-.051.012" transform="translate(-24.821 -84.65)" fill="#382118"/>
          <path id="Trazado_719371" data-name="Trazado 719371" d="M21.458,136.824a1.415,1.415,0,0,1-.536-.106l-.024-.01A1.474,1.474,0,0,1,20,135.2c.068-.728.191-1.4.226-1.587l-1.1-1.508a.115.115,0,1,1,.186-.136l1.156,1.589-.01.05c0,.008-.154.773-.232,1.613a1.244,1.244,0,0,0,.761,1.272l.024.01a1.175,1.175,0,0,0,1.37-.36,5.987,5.987,0,0,0,.676-1.061l.032-.064h.377a.988.988,0,0,0,.916-.612,11.682,11.682,0,0,0,.652-2.341,2.031,2.031,0,0,0-.2-1.312l-2.2-4.153c-.007-.013-.818-1.466-1.985-1.208a.115.115,0,1,1-.05-.225c1.336-.3,2.2,1.257,2.237,1.324l2.2,4.154a2.262,2.262,0,0,1,.222,1.461,11.868,11.868,0,0,1-.666,2.387,1.217,1.217,0,0,1-1.129.754H23.23a6.2,6.2,0,0,1-.67,1.038,1.409,1.409,0,0,1-1.1.536" transform="translate(-13.36 -87.516)" fill="#382118"/>
          <path id="Trazado_719372" data-name="Trazado 719372" d="M19.557,142.256a.118.118,0,0,1-.043-.008.116.116,0,0,1-.064-.15,12.041,12.041,0,0,0,.458-1.418,1.628,1.628,0,0,0-.109-1.07,20.186,20.186,0,0,0-2.216-3.75,1.285,1.285,0,0,0-1.274-.449,12.291,12.291,0,0,0-2.2.784.115.115,0,1,1-.093-.21,12.508,12.508,0,0,1,2.239-.8,1.514,1.514,0,0,1,1.5.528,20.4,20.4,0,0,1,2.246,3.8,1.859,1.859,0,0,1,.124,1.222,12.049,12.049,0,0,1-.468,1.451.115.115,0,0,1-.107.072" transform="translate(-9.759 -94.522)" fill="#382118"/>
          <path id="Trazado_719373" data-name="Trazado 719373" d="M22.964,152.776a.115.115,0,0,1-.013-.23l1.267-.141a.115.115,0,1,1,.026.229l-1.267.141h-.013" transform="translate(-15.981 -106.591)" fill="#382118"/>
          <path id="Trazado_719374" data-name="Trazado 719374" d="M27.646,195.011a.115.115,0,0,1-.025-.228,8.3,8.3,0,0,0,1.936-.69.115.115,0,1,1,.119.2,8.334,8.334,0,0,1-2.005.718l-.025,0" transform="translate(-19.255 -135.736)" fill="#382118"/>
          <path id="Trazado_719375" data-name="Trazado 719375" d="M296.218,152.069a2.9,2.9,0,0,1,1.393-1.2,2.119,2.119,0,0,1,1.774.612,6.348,6.348,0,0,0,1.55,1.167,9.781,9.781,0,0,0,2.319.278,4.04,4.04,0,0,1,2.779,1.865,4.825,4.825,0,0,1,.619,3.322,2.155,2.155,0,0,1-.4,1.015,1,1,0,0,1-.97.385,1.959,1.959,0,0,1-.572-.307,3.616,3.616,0,0,0-1.612-.56.629.629,0,0,1-.372-.11.611.611,0,0,1-.146-.28,6.117,6.117,0,0,0-3.481-3.607,8.812,8.812,0,0,0-5.334-.362,12.274,12.274,0,0,0,2.45-2.216" transform="translate(-205.459 -105.487)" fill="#e34927"/>
          <path id="Trazado_719376" data-name="Trazado 719376" d="M281.044,375.158a20.927,20.927,0,0,0-6.306,2.439.024.024,0,0,0-.01.026,11.1,11.1,0,0,1-.746,6.139.024.024,0,0,1-.047-.012,15.466,15.466,0,0,0-.358-4.524.024.024,0,0,0-.038-.013,7.556,7.556,0,0,0-2.281,2.145l0,0a23.321,23.321,0,0,1-4.455,3.621.025.025,0,0,1-.035-.033c1.1-1.759,3.748-5.049,4.15-5.547a.025.025,0,0,0-.027-.039,45.431,45.431,0,0,0-6.257,2.809.025.025,0,0,1-.026-.042c3.393-2.737,5.678-4.494,5.969-4.717.015-.011.01-.031-.005-.042a6.424,6.424,0,0,0-2.706-1.137,7.08,7.08,0,0,1,2.527-.072,21.591,21.591,0,0,0,4.038.145l.008,0c2.608-1.236,5.475-2.731,5.749-2.874a.024.024,0,0,1,.032.011l.841,1.681a.024.024,0,0,1-.017.035" transform="translate(-185.058 -261.173)" fill="#ffe09c"/>
          <path id="Trazado_719377" data-name="Trazado 719377" d="M264.419,401.032h0a.125.125,0,0,0-.186-.038c-.319.25-.411.273-.773.565a2.416,2.416,0,0,0,.907-.356.125.125,0,0,0,.052-.171" transform="translate(-184.262 -280.434)" fill="#d67623"/>
          <path id="Trazado_719378" data-name="Trazado 719378" d="M272.182,409.1c-.213.308-.4.594-.557.846,0,0,.341-.214.848-.563a.149.149,0,0,0,.015-.234l-.085-.076a.149.149,0,0,0-.221.027" transform="translate(-189.972 -286.075)" fill="#d67623"/>
          <path id="Trazado_719379" data-name="Trazado 719379" d="M295.662,405.441c0,.239-.011.488-.023.748,0,0,.117-.262.27-.7a.128.128,0,0,0-.107-.17.126.126,0,0,0-.14.124" transform="translate(-206.767 -283.475)" fill="#d67623"/>
          <path id="Trazado_719380" data-name="Trazado 719380" d="M276.19,382.537a.1.1,0,0,0-.106-.1c-.2.023-.4.054-.615.1a4.317,4.317,0,0,1,.6.13.1.1,0,0,0,.122-.093Z" transform="translate(-192.66 -267.476)" fill="#d67623"/>
          <path id="Trazado_719381" data-name="Trazado 719381" d="M245.96,374.414a28.211,28.211,0,0,0-5.763,3.9.024.024,0,0,0,0,.028,11.1,11.1,0,0,1,.908,6.117.024.024,0,0,1-.048,0,15.465,15.465,0,0,0-1.544-4.267.024.024,0,0,0-.04,0,7.563,7.563,0,0,0-1.63,2.673v0a23.319,23.319,0,0,1-3.336,4.673.025.025,0,0,1-.042-.023c.6-1.989,2.276-5.862,2.532-6.449a.025.025,0,0,0-.036-.031,45.486,45.486,0,0,0-5.289,4.367.025.025,0,0,1-.036-.033c2.546-3.538,4.284-5.838,4.506-6.131a.025.025,0,0,0-.016-.039,6.425,6.425,0,0,0-2.911-.38,7.075,7.075,0,0,1,2.418-.739,21.593,21.593,0,0,0,3.932-.931l.007,0c2.187-1.882,4.555-4.084,4.782-4.3.01-.009,1.892-1.627,1.9-1.616l1.444,1.732c.011.012-1.718,1.437-1.732,1.444" transform="translate(-161.998 -259.641)" fill="#ffe09c"/>
          <path id="Trazado_719382" data-name="Trazado 719382" d="M231.447,416.482h0a.125.125,0,0,0-.189.013c-.241.326-.324.372-.6.749,0,0,.19-.039.78-.583a.125.125,0,0,0,0-.179" transform="translate(-161.324 -291.258)" fill="#d67623"/>
          <path id="Trazado_719383" data-name="Trazado 719383" d="M241.266,422.3c-.124.353-.231.68-.313.963,0,0,.272-.3.669-.767a.149.149,0,0,0-.047-.229l-.1-.051a.149.149,0,0,0-.206.084" transform="translate(-168.521 -295.287)" fill="#d67623"/>
          <path id="Trazado_719384" data-name="Trazado 719384" d="M262.494,412.884q.09.347.176.727s.043-.284.075-.748a.128.128,0,0,0-.148-.135.126.126,0,0,0-.1.156" transform="translate(-183.584 -288.657)" fill="#d67623"/>
          <path id="Trazado_719385" data-name="Trazado 719385" d="M237.589,395.668a.1.1,0,0,0-.128-.064c-.183.074-.373.158-.568.256a4.343,4.343,0,0,1,.613-.034.1.1,0,0,0,.093-.121Z" transform="translate(-165.681 -276.677)" fill="#d67623"/>
          <path id="Trazado_719386" data-name="Trazado 719386" d="M260.947,161.232c10.828-2.887,10.539,6.064,10.539,6.064.577,16.458,8.951,24.687,8.951,24.687a31.783,31.783,0,0,1,7.218,22.377c7.8,7.363,3.321,8.229,3.321,8.229,2.166,5.2-3.609,1.732-3.609,1.732,0,5.775-10.106-3.465-10.106-3.465-4.187,10.25-8.951,5.775-8.951,5.775l-1.011-1.444a53.723,53.723,0,0,0,1.444-5.486c-7.363,9.528-10.395,6.208-10.395,6.208l-1.011-1.588a3.208,3.208,0,0,1,.433-3.609c2.454-4.475-.144-11.261-.144-11.261-23.1-18.624,1.732-35.8,1.732-35.8,5.919-4.62,1.3-10.25,1.3-10.25Z" transform="translate(-173.303 -112.363)" fill="#f08f4a"/>
          <path id="Trazado_719387" data-name="Trazado 719387" d="M299.258,165.26c4.061,3.669,5.328-3.32.072-.562a.346.346,0,0,0-.072.562" transform="translate(-209.219 -114.725)" fill="#e34927"/>
          <path id="Trazado_719388" data-name="Trazado 719388" d="M303.993,165.878a.217.217,0,1,1-.168-.084l.019,0a1.366,1.366,0,0,0-.544-.107c-.518,0-.939.259-.939.577s.42.577.939.577.938-.259.938-.577a.485.485,0,0,0-.245-.388" transform="translate(-211.469 -115.882)" fill="#382118"/>
          <path id="Trazado_719389" data-name="Trazado 719389" d="M284.256,170.238a3.938,3.938,0,0,1-.378,3.18c-3.176,3.032-1.585,4.872-.289,4.764a3.45,3.45,0,0,0,2.563-1.707c1.191-2.912-1.094-6.054-1.094-6.054Z" transform="translate(-197.244 -119.063)" fill="#e34927"/>
          <path id="Trazado_719390" data-name="Trazado 719390" d="M281.685,162.53c-2.371-.3-4.537,1.868-4.537,1.868a11,11,0,0,1,4.245.575c.375-.142,1.674.724,1.674.724a5.59,5.59,0,0,0-1.011-2.166,1.327,1.327,0,0,1-.372-1" transform="translate(-193.835 -113.652)" fill="#ffe09c"/>
          <path id="Trazado_719391" data-name="Trazado 719391" d="M289.972,163.912c0,.08-.129.144-.289.144s-.289-.065-.289-.144.129-.144.289-.144.289.065.289.144" transform="translate(-202.4 -114.538)" fill="#382118"/>
          <path id="Trazado_719392" data-name="Trazado 719392" d="M365.074,359.04a.154.154,0,0,1-.141-.093c-1.264-2.95-5.81-5.676-5.856-5.7a.154.154,0,0,1,.157-.264c.19.113,4.678,2.8,5.982,5.846a.153.153,0,0,1-.081.2.149.149,0,0,1-.06.013" transform="translate(-251.083 -246.856)" fill="#382118"/>
          <path id="Trazado_719393" data-name="Trazado 719393" d="M375.881,351.934a.154.154,0,0,1-.14-.09c-1.549-3.379-6.527-6.254-6.578-6.283a.154.154,0,0,1,.152-.267c.208.119,5.114,2.952,6.7,6.422a.154.154,0,0,1-.139.218" transform="translate(-258.136 -241.482)" fill="#382118"/>
          <path id="Trazado_719394" data-name="Trazado 719394" d="M335.632,357.59a.145.145,0,0,1-.035,0,25.677,25.677,0,0,1-4.36-1.454.154.154,0,0,1,.129-.279,25.369,25.369,0,0,0,4.3,1.434.154.154,0,0,1-.035.3" transform="translate(-231.601 -248.871)" fill="#382118"/>
          <path id="Trazado_719395" data-name="Trazado 719395" d="M312.97,285.988a10.5,10.5,0,0,1-4.356-.932,13.991,13.991,0,0,1-2.141-1.25,21.486,21.486,0,0,1-8.735-22.247.154.154,0,0,1,.3.066,21.177,21.177,0,0,0,8.61,21.929,13.691,13.691,0,0,0,2.093,1.223,10.306,10.306,0,0,0,7.931.214.154.154,0,0,1,.113.286,10.429,10.429,0,0,1-3.816.712" transform="translate(-207.894 -182.847)" fill="#382118"/>
          <path id="Trazado_719396" data-name="Trazado 719396" d="M335.659,312.546a.151.151,0,0,1-.069-.016,27.552,27.552,0,0,1-8.291-6.374,9.882,9.882,0,0,1-2.771-5.469.154.154,0,0,1,.306-.024,9.605,9.605,0,0,0,2.7,5.29,27.249,27.249,0,0,0,8.2,6.3.154.154,0,0,1-.069.291" transform="translate(-226.972 -210.181)" fill="#382118"/>
          <path id="Trazado_719397" data-name="Trazado 719397" d="M350.616,307.862a.153.153,0,0,1-.087-.027c-2.968-2.058-5.036-5.617-6.147-10.578a.154.154,0,1,1,.3-.067c1.094,4.883,3.12,8.38,6.023,10.393a.154.154,0,0,1-.088.28" transform="translate(-240.855 -207.768)" fill="#382118"/>
          <path id="Trazado_719398" data-name="Trazado 719398" d="M281.772,216.479a2.393,2.393,0,0,1-.585-.074,1.505,1.505,0,0,1-.981-.714c-.028-.047-.054-.1-.08-.146a1.436,1.436,0,0,0-.137-.228c-.152-.187-.321-.147-.644-.018l-.041.016a1.18,1.18,0,0,1-1.154-.068,1.717,1.717,0,0,1-.634-1.465.154.154,0,0,1,.306.024,1.426,1.426,0,0,0,.5,1.187.87.87,0,0,0,.868.036l.04-.016c.273-.109.685-.273,1,.11a1.653,1.653,0,0,1,.171.28c.024.045.048.09.072.133a1.211,1.211,0,0,0,.792.571,2.008,2.008,0,0,0,1.613-.27.154.154,0,0,1,.166.259,2.331,2.331,0,0,1-1.27.383" transform="translate(-194.09 -149.418)" fill="#985419"/>
          <path id="Trazado_719399" data-name="Trazado 719399" d="M313.6,224.424a2.029,2.029,0,0,1-.21-.011,2.543,2.543,0,0,1-1.4-.624.154.154,0,1,1,.2-.232,2.238,2.238,0,0,0,1.232.551,1.189,1.189,0,0,0,.688-.1c.053-.028.1-.062.156-.1a1.277,1.277,0,0,1,.346-.178,1.217,1.217,0,0,1,.591.023l.044.01a5.173,5.173,0,0,0,1.157.107,1.032,1.032,0,0,0,.788-.268.154.154,0,1,1,.231.2,1.32,1.32,0,0,1-1.012.372,5.468,5.468,0,0,1-1.226-.114l-.045-.009a.956.956,0,0,0-.443-.028,1.044,1.044,0,0,0-.262.14c-.06.039-.119.078-.181.11a1.383,1.383,0,0,1-.653.149" transform="translate(-218.166 -156.327)" fill="#985419"/>
          <path id="Trazado_719400" data-name="Trazado 719400" d="M269.253,229.278a1.894,1.894,0,0,1-1.7-1.051.154.154,0,0,1,.279-.128,1.566,1.566,0,0,0,1.87.8.154.154,0,0,1,.1.29,1.683,1.683,0,0,1-.552.091" transform="translate(-187.116 -159.468)" fill="#985419"/>
          <path id="Trazado_719401" data-name="Trazado 719401" d="M276.005,238.381a1.9,1.9,0,0,1-1.707-1.072.154.154,0,0,1,.281-.125,1.566,1.566,0,0,0,1.86.821.154.154,0,1,1,.1.292,1.676,1.676,0,0,1-.531.084" transform="translate(-191.832 -165.82)" fill="#985419"/>
          <path id="Trazado_719402" data-name="Trazado 719402" d="M313.254,287.22a15.3,15.3,0,0,1-13.173,4.021,29.606,29.606,0,0,0-7.627-1.109c-4.876-.825-7.357-1.285-8.608-1.533a6.72,6.72,0,0,1-2.215-.87c-6.018-3.707-7.9-5.085-7.9-5.085a1.5,1.5,0,0,1,0-1.664c-2.357-1.941-2.635-2.912-2.635-2.912-.416-1.387,1.387-1.248,1.387-1.248-3.744-2.773-.555-3.189-.555-3.189-.416-1.941,1.525-1.664,1.525-1.664,6.656,2.218,9.845,2.08,9.845,2.08,6.795.277,5.824-2.219,5.824-2.219a4.429,4.429,0,0,0-1.664-2.357c-1.709-1.88-1.522-3.181-1.127-3.9a.723.723,0,0,1,1.12-.177c2.5,2.286,4.306,4.218,4.306,4.218a13.041,13.041,0,0,1,4.714,6.656,5.486,5.486,0,0,0,2.873,3.138,2.472,2.472,0,0,0,2.582-.51,6.972,6.972,0,0,0,1.063-1.242c8.042,1.387,10.261,9.568,10.261,9.568" transform="translate(-189.301 -185.479)" fill="#fcaa97"/>
          <path id="Trazado_719403" data-name="Trazado 719403" d="M282.653,296.28a.111.111,0,0,1-.026,0c-.245-.057-6.014-1.414-8.092-3.214a.115.115,0,0,1,.151-.174c2.035,1.764,7.934,3.15,7.993,3.164a.115.115,0,0,1-.026.228" transform="translate(-191.979 -204.824)" fill="#382118"/>
          <path id="Trazado_719404" data-name="Trazado 719404" d="M283.25,306.89a.119.119,0,0,1-.035-.005,34.541,34.541,0,0,1-6.82-3.2.115.115,0,0,1,.122-.2,34.279,34.279,0,0,0,6.769,3.177.115.115,0,0,1-.035.225" transform="translate(-193.27 -212.244)" fill="#382118"/>
          <path id="Trazado_719405" data-name="Trazado 719405" d="M286.707,320.312a.113.113,0,0,1-.033,0,25.393,25.393,0,0,1-6.135-2.79.115.115,0,0,1,.133-.189,25.148,25.148,0,0,0,6.067,2.757.115.115,0,0,1-.032.226" transform="translate(-196.173 -221.922)" fill="#382118"/>
          <path id="Trazado_719406" data-name="Trazado 719406" d="M172.608,29.08a2.974,2.974,0,0,1-.86-.965l-2.437-3.709a7.7,7.7,0,0,1-1.187-2.362,7.788,7.788,0,0,1,.071-2.991q.515-3.34,1.031-6.68a4.583,4.583,0,0,1,.7-2.13,9.649,9.649,0,0,1,2.162-1.557c1.615-1.2,2.2-3.447,3.786-4.691a8.505,8.505,0,0,1,2.418-1.181L184.517.556a5.383,5.383,0,0,1,3.1-.467c.6.151,1.124.5,1.709.69,2.088.667,4.375-.866,6.49-.293,2.239.607,3.358,3.286,5.486,4.22,1.055.463,2.312.473,3.219,1.191,1.834,1.451.958,4.475,1.86,6.653.574,1.385,1.9,2.47,2.008,3.969.107,1.479-1.018,2.747-1.331,4.2-.343,1.591.3,3.383-.461,4.818-.728,1.376-2.409,1.823-3.732,2.615-1.208.723-2.188,1.8-3.433,2.458a11.732,11.732,0,0,1-5.248.936l-12.632.288c-1.651.038-3.7.108-5.087-.961-.56-.43-.624-.954-1.33-1.3-.771-.375-1.743-.017-2.524-.492" transform="translate(-117.499 0)" fill="#87cbed"/>
          <path id="Trazado_719407" data-name="Trazado 719407" d="M214.583,42.175a1.8,1.8,0,0,0-.975,0c.289-9.959-5.157-17.822-14.2-17.3-9.834.572-13.382,8.366-12.346,18.3a1.835,1.835,0,0,0-1.446-.16c-1.313.455-1.755,2.62-.987,4.836s2.455,3.643,3.768,3.189a1.547,1.547,0,0,0,.374-.192c2.766,7.852,8.107,13.231,12.646,12.9,4.948-.362,8.962-6.04,10.936-13.387,1.371.265,2.949-1.2,3.584-3.367.659-2.251.053-4.409-1.352-4.82" transform="translate(-128.863 -17.382)" fill="#fcaa97"/>
          <path id="Trazado_719408" data-name="Trazado 719408" d="M237.567,103.774h-.017a.154.154,0,0,1-.136-.17,9.291,9.291,0,0,0,0-2.018.154.154,0,1,1,.3-.051,9.418,9.418,0,0,1,0,2.1.154.154,0,0,1-.152.137" transform="translate(-166.045 -70.922)" fill="#382118"/>
          <path id="Trazado_719409" data-name="Trazado 719409" d="M236.485,114.527a2.456,2.456,0,0,1-1.283-.359.154.154,0,1,1,.158-.263,2.489,2.489,0,0,0,2.581-.132.154.154,0,1,1,.176.252,3.094,3.094,0,0,1-1.632.5" transform="translate(-164.447 -79.553)" fill="#382118"/>
          <path id="Trazado_719410" data-name="Trazado 719410" d="M189.944,97.011a.152.152,0,0,1-.085-.026,2.421,2.421,0,0,1-.749-2.783.153.153,0,1,1,.293.09,2.088,2.088,0,0,0,.626,2.438.154.154,0,0,1-.086.281" transform="translate(-132.16 -65.808)" fill="#382118"/>
          <path id="Trazado_719411" data-name="Trazado 719411" d="M281.974,94.278a.154.154,0,0,1-.085-.282,2.223,2.223,0,0,0,.74-2.414.154.154,0,0,1,.3-.069,2.563,2.563,0,0,1-.87,2.739.15.15,0,0,1-.084.026" transform="translate(-197.103 -63.92)" fill="#382118"/>
          <path id="Trazado_719412" data-name="Trazado 719412" d="M259.346,91.94a1.981,1.981,0,0,1,.1-.644.459.459,0,0,0,.491.24.512.512,0,0,0,.065-.989.848.848,0,0,1,.432-.125c.607,0,1.1.67,1.108,1.5s-.482,1.514-1.09,1.518-1.1-.67-1.108-1.5" transform="translate(-181.384 -63.24)" fill="#382118"/>
          <path id="Trazado_719413" data-name="Trazado 719413" d="M212.279,92.952a1.98,1.98,0,0,1,.072-.648.459.459,0,0,0,.5.217.512.512,0,0,0,.02-.991.846.846,0,0,1,.426-.144c.606-.031,1.132.619,1.175,1.453s-.413,1.535-1.02,1.566-1.132-.619-1.175-1.453" transform="translate(-148.465 -63.914)" fill="#382118"/>
          <path id="Trazado_719414" data-name="Trazado 719414" d="M260.441,79.47c-.163.343-1.208.188-2.335-.347s-1.909-1.246-1.747-1.588,1.208-.187,2.335.347,1.909,1.246,1.747,1.588" transform="translate(-179.28 -54.1)" fill="#943c26"/>
          <path id="Trazado_719415" data-name="Trazado 719415" d="M206.088,82.212c.163.343,1.208.188,2.335-.347s1.909-1.246,1.747-1.588-1.208-.187-2.335.347-1.909,1.246-1.747,1.588" transform="translate(-144.121 -56.017)" fill="#943c26"/>
          <path id="Trazado_719416" data-name="Trazado 719416" d="M228.327,124.265a38.524,38.524,0,0,0,7.693-.412c-3.709,7.144-7.693.412-7.693.412" transform="translate(-159.69 -86.622)" fill="#fff"/>
          <path id="Trazado_719417" data-name="Trazado 719417" d="M262.292,105.438c0,.683-.953,1.236-2.13,1.236s-2.129-.553-2.129-1.236.953-1.236,2.129-1.236,2.13.553,2.13,1.236" transform="translate(-180.466 -72.878)" fill="#ff8382"/>
          <path id="Trazado_719418" data-name="Trazado 719418" d="M208.219,106.809c0,.683.953,1.236,2.13,1.236s2.129-.553,2.129-1.236-.953-1.236-2.129-1.236-2.13.553-2.13,1.236" transform="translate(-145.627 -73.837)" fill="#ff8382"/>
          <path id="Trazado_719419" data-name="Trazado 719419" d="M219.838,54.454a16.55,16.55,0,0,1-4.313-1.254c-.69-.3-1.361-.633-2.022-.993s-1.35-.69-2.041-1c-1.009-.452-2.031-.863-3.043-1.291a25.816,25.816,0,0,1,6.14,2.459c6.474,3.135,13.609,1,13.609,1-4.624-12.289-22.461-3.887-22.461-3.887a13.757,13.757,0,0,1,1.493.173l-.063.147c1.4.586,2.818,1.1,4.2,1.68.693.291,1.376.6,2.045.944s1.359.67,2.062.955a16.7,16.7,0,0,0,4.38,1.167,16.427,16.427,0,0,0,4.517-.15,16.38,16.38,0,0,1-4.5.047" transform="translate(-143.869 -32.653)" fill="#943c26"/>
          <path id="Trazado_719420" data-name="Trazado 719420" d="M190.961,38.676c1.017-4.631,5.014-8.724,13.188-8.792,11.2-.094,13.866,8.011,13.866,8.011.009-7.324.009-18.451-13.534-18.246-18.63.282-13.52,19.028-13.52,19.028" transform="translate(-133.108 -13.74)" fill="#87cbed"/>
          <path id="Trazado_719421" data-name="Trazado 719421" d="M191.806,61.981a9.59,9.59,0,0,1,2.712-6.369c2.415-2.517,6.164-3.841,11.141-3.935,5.844-.11,9.342,2.359,11.248,4.45a12.907,12.907,0,0,1,2.768,4.643l-1.033.3a12.073,12.073,0,0,0-2.562-4.251c-2.553-2.779-6.049-4.145-10.4-4.064-4.681.088-8.175,1.3-10.385,3.6a8.593,8.593,0,0,0-2.413,5.6Z" transform="translate(-134.147 -36.141)" fill="#4d99bf"/>
          <path id="Trazado_719422" data-name="Trazado 719422" d="M49.416,118.591a.153.153,0,0,1-.153-.139,3.25,3.25,0,0,1,1.058-2.71.154.154,0,1,1,.185.246,3,3,0,0,0-.936,2.436.154.154,0,0,1-.139.167h-.014" transform="translate(-34.448 -80.928)" fill="#ffe09c"/>
          <path id="Trazado_719423" data-name="Trazado 719423" d="M212.286,177.042l-.341-.5c-.368-.54-9.025-13.323-10.038-21.425l.915-.114c.874,6.994,7.909,18.022,9.546,20.511a52.406,52.406,0,0,0,10.478-20.688l.9.179a53.437,53.437,0,0,1-11.072,21.576Z" transform="translate(-141.212 -108.284)" fill="#4d99bf"/>
          <path id="Trazado_719424" data-name="Trazado 719424" d="M386.6,314.84a.461.461,0,0,1-.444-.34c-.021-.076-2.2-7.684-10.037-9.2a.461.461,0,1,1,.175-.905,13.619,13.619,0,0,1,8.57,5.543,14.843,14.843,0,0,1,2.182,4.316.461.461,0,0,1-.323.566.471.471,0,0,1-.121.016" transform="translate(-262.796 -212.888)" fill="#4d99bf"/>
          <path id="Trazado_719425" data-name="Trazado 719425" d="M5.251,252.28l-.472-.792c6.046-3.6,14.749-6.086,14.836-6.111l.251.887c-.086.025-8.675,2.481-14.616,6.016" transform="translate(-3.342 -171.615)" fill="#4d99bf"/>
        </g>
      </g>
    </g>
  </g>
</svg>
