<svg xmlns="http://www.w3.org/2000/svg" xmlns:xlink="http://www.w3.org/1999/xlink" width="140" height="140" viewBox="0 0 140 140">
  <defs>
    <clipPath id="clip-path">
      <rect id="Rect치ngulo_344549" data-name="Rect치ngulo 344549" width="115.932" height="115.932" fill="none"/>
    </clipPath>
  </defs>
  <g id="Grupo_983954" data-name="Grupo 983954" transform="translate(-8918 11012)">
    <circle id="Elipse_5875" data-name="Elipse 5875" cx="70" cy="70" r="70" transform="translate(8918 -11012)" fill="#06d1d1"/>
    <g id="Grupo_983816" data-name="Grupo 983816" transform="translate(8930.034 -10999.966)">
      <g id="Grupo_983815" data-name="Grupo 983815" transform="translate(0 0)" clip-path="url(#clip-path)">
        <path id="Trazado_719219" data-name="Trazado 719219" d="M20.6,67.791c3.671.554,5.594-.071,23.093-2.551,2.208-.312,4.423-.569,6.649-.7a65.762,65.762,0,0,1,6.781-.017c5.092.218,10.165.78,15.236,1.257-2.969-.431-5.939-.876-8.913-1.283A90.412,90.412,0,0,0,50.3,63.426c-4.457.045-8.9.565-13.331.987-11.39,1.086-15.085,1.854-18.48-.172a5.139,5.139,0,0,1-1.415-7.877,13.094,13.094,0,0,1,4.285-2.478l.385-.161a14.529,14.529,0,0,0,7.538,2.95.706.706,0,0,0-.017.261c.066.537.675.806,1.2.942,5.564,1.462,11.631-.084,17.125,1.625a7.36,7.36,0,0,0,4.82.1,1.653,1.653,0,0,0-.618-.773,4.68,4.68,0,0,0,1.714.227,2.037,2.037,0,0,0-.919-1.306c.657.2,1.008.33,1.788.543-.08-.816-.278-1.858-1.521-1.966.342-.038,1.231.494,1.421.034a5.677,5.677,0,0,0-3.569-.861l-7.759.221,20.281-4.2,13.46,4.17a6.339,6.339,0,0,0,1.871,1.72,17.481,17.481,0,0,1,2.156,1.1c.213-.315-.147-1.289-.249-1.654a14.906,14.906,0,0,0,2.911.789,6.129,6.129,0,0,0-.78-1.289,6.288,6.288,0,0,0,2.31.6,19.4,19.4,0,0,0-2.145-1.433,2.7,2.7,0,0,0,1.294-.913q-1.791-.3-3.582-.6a3.157,3.157,0,0,0-.889-.057c-11.952-7.466-11.689-12.918-1.8-16.324,4.077-1.4,11.1.164,11.895-6.685-.149-1.536-7.69-5.374-16.141-6.37-.018-.206-.037-.413-.057-.618a4.933,4.933,0,0,0-.353-1.683,1.683,1.683,0,0,0-1.3-1.019,1.622,1.622,0,0,0-1.492.985,3.748,3.748,0,0,0-1.64-1.05,1.933,1.933,0,0,0-.668-.089,1.743,1.743,0,0,0-1.489,1.495,2.966,2.966,0,0,0,.611,2.135,6.155,6.155,0,0,0,.648.752c-2.724,1.621-4.868,4.44-9.5,3.89C48.411,26.55,41.51,24.2,34.489,27.1c-8.508,4.236-13.165,4.918-14.4,23.349-2.047,1-4.127,1.943-5.6,3.761-3.933,4.868-1.26,12.727,6.1,13.581m29.311-9.446a7.016,7.016,0,0,1,.763.14,5.915,5.915,0,0,1-.763-.14" transform="translate(6.783 11.278)" fill="#3c3c3b"/>
        <path id="Trazado_719220" data-name="Trazado 719220" d="M57.967,115.933a57.967,57.967,0,1,1,57.967-57.967,58.033,58.033,0,0,1-57.967,57.967m0-102.183a44.217,44.217,0,1,0,44.217,44.217A44.268,44.268,0,0,0,57.967,13.75" transform="translate(0 0)" fill="#a93939"/>
        <rect id="Rect치ngulo_344548" data-name="Rect치ngulo 344548" width="13.75" height="104.998" transform="translate(18.474 24.107) rotate(-40.774)" fill="#a93939"/>
      </g>
    </g>
  </g>
</svg>
