<svg xmlns="http://www.w3.org/2000/svg" xmlns:xlink="http://www.w3.org/1999/xlink" width="140" height="140" viewBox="0 0 140 140">
  <defs>
    <clipPath id="clip-path">
      <rect id="Rectángulo_344547" data-name="Rectángulo 344547" width="125.024" height="83.697" fill="none"/>
    </clipPath>
    <clipPath id="clip-path-2">
      <rect id="Rectángulo_344546" data-name="Rectángulo 344546" width="125.024" height="83.697" transform="translate(0 0)" fill="none"/>
    </clipPath>
    <clipPath id="clip-path-3">
      <rect id="Rectángulo_344545" data-name="Rectángulo 344545" width="125.024" height="72.132" transform="translate(0 11.565)" fill="none"/>
    </clipPath>
  </defs>
  <g id="Grupo_983952" data-name="Grupo 983952" transform="translate(-1085 -706)">
    <circle id="Elipse_5872" data-name="Elipse 5872" cx="70" cy="70" r="70" transform="translate(1085 706)" fill="#ffc403"/>
    <g id="Grupo_983809" data-name="Grupo 983809" transform="translate(1092.488 734.151)">
      <g id="Grupo_983808" data-name="Grupo 983808" clip-path="url(#clip-path)">
        <g id="Grupo_983807" data-name="Grupo 983807">
          <g id="Grupo_983806" data-name="Grupo 983806" clip-path="url(#clip-path-2)">
            <g id="Grupo_983805" data-name="Grupo 983805" style="mix-blend-mode: multiply;isolation: isolate">
              <g id="Grupo_983804" data-name="Grupo 983804">
                <g id="Grupo_983803" data-name="Grupo 983803" clip-path="url(#clip-path-3)">
                  <path id="Trazado_719069" data-name="Trazado 719069" d="M86.19,82.7.971,33.5a1.944,1.944,0,0,1,0-3.366L31.415,12.559a7.42,7.42,0,0,1,7.419,0l85.219,49.2a1.944,1.944,0,0,1,0,3.366L93.608,82.7a7.418,7.418,0,0,1-7.418,0" fill="#c9c9c4"/>
                </g>
              </g>
            </g>
            <path id="Trazado_719070" data-name="Trazado 719070" d="M102.532,63.3h0c-1.739,1.174-1.508,4.111.317,5.287l.062.04a10.377,10.377,0,0,0,11.078.318,3.266,3.266,0,0,0,.317-5.264l-.06-.044a10.063,10.063,0,0,0-11.714-.337" fill="#b6a489"/>
            <path id="Trazado_719071" data-name="Trazado 719071" d="M98.182,57.495l3.4,9.5,13.653.483,3.454-9.43Z" fill="#b6a489"/>
            <path id="Trazado_719072" data-name="Trazado 719072" d="M99.438,51.317h0c-2.577,2.006-2.055,6.893.717,8.8l.093.064a14.452,14.452,0,0,0,16.43.472c2.771-1.746,3.293-6.6.717-8.748l-.09-.075a13.872,13.872,0,0,0-17.867-.513" fill="#ab9790"/>
            <path id="Trazado_719073" data-name="Trazado 719073" d="M84.808,53.438h0c-1.739,1.174-1.508,4.111.317,5.287l.062.04a10.377,10.377,0,0,0,11.078.318,3.266,3.266,0,0,0,.317-5.264l-.06-.044a10.063,10.063,0,0,0-11.714-.337" fill="#a38d86"/>
            <path id="Trazado_719074" data-name="Trazado 719074" d="M80.459,47.631l3.4,9.495,13.653.483,3.454-9.43Z" fill="#a38d86"/>
            <path id="Trazado_719075" data-name="Trazado 719075" d="M81.715,41.454h0c-2.577,2.006-2.055,6.893.717,8.8l.093.064a14.452,14.452,0,0,0,16.43.472c2.771-1.746,3.293-6.6.717-8.748l-.09-.075a13.872,13.872,0,0,0-17.867-.513" fill="#ab9790"/>
            <path id="Trazado_719076" data-name="Trazado 719076" d="M67.085,43.356h0c-1.739,1.174-1.508,4.112.317,5.287l.062.04A10.377,10.377,0,0,0,78.542,49a3.266,3.266,0,0,0,.317-5.264l-.06-.044a10.063,10.063,0,0,0-11.714-.337" fill="#a38d86"/>
            <path id="Trazado_719077" data-name="Trazado 719077" d="M62.736,37.549l3.4,9.5,13.653.483,3.454-9.43Z" fill="#a38d86"/>
            <path id="Trazado_719078" data-name="Trazado 719078" d="M63.992,31.372h0c-2.577,2.006-2.055,6.893.717,8.8l.093.064a14.452,14.452,0,0,0,16.43.472c2.771-1.746,3.293-6.6.717-8.748l-.09-.075a13.872,13.872,0,0,0-17.867-.513" fill="#ab9790"/>
            <path id="Trazado_719079" data-name="Trazado 719079" d="M49.362,33.492h0c-1.739,1.174-1.509,4.111.317,5.287l.062.04a10.377,10.377,0,0,0,11.078.318,3.267,3.267,0,0,0,.317-5.264l-.06-.044a10.063,10.063,0,0,0-11.714-.337" fill="#a38d86"/>
            <path id="Trazado_719080" data-name="Trazado 719080" d="M45.013,27.686l3.4,9.5,13.653.483,3.454-9.43Z" fill="#a38d86"/>
            <path id="Trazado_719081" data-name="Trazado 719081" d="M46.269,21.508h0c-2.577,2.006-2.055,6.893.717,8.8l.093.064a14.452,14.452,0,0,0,16.43.472c2.771-1.746,3.293-6.6.717-8.748l-.09-.075a13.872,13.872,0,0,0-17.867-.513" fill="#ab9790"/>
            <path id="Trazado_719082" data-name="Trazado 719082" d="M31.639,23.41h0c-1.739,1.174-1.508,4.111.317,5.287l.062.04a10.377,10.377,0,0,0,11.078.318,3.266,3.266,0,0,0,.317-5.264l-.06-.044a10.063,10.063,0,0,0-11.714-.337" fill="#a38d86"/>
            <path id="Trazado_719083" data-name="Trazado 719083" d="M27.289,17.6l3.4,9.5,13.653.482,3.454-9.43Z" fill="#a38d86"/>
            <path id="Trazado_719084" data-name="Trazado 719084" d="M28.545,11.426h0c-2.577,2.006-2.055,6.893.717,8.8l.093.064a14.452,14.452,0,0,0,16.43.472c2.771-1.746,3.293-6.6.717-8.748l-.09-.075a13.872,13.872,0,0,0-17.867-.513" fill="#ab9790"/>
            <path id="Trazado_719085" data-name="Trazado 719085" d="M83.106,73.6h0c-1.739,1.174-1.508,4.111.317,5.287l.062.04a10.377,10.377,0,0,0,11.078.318,3.266,3.266,0,0,0,.317-5.264l-.06-.044A10.063,10.063,0,0,0,83.106,73.6" fill="#b6a489"/>
            <path id="Trazado_719086" data-name="Trazado 719086" d="M78.757,67.794l3.4,9.5,13.653.482,3.453-9.43Z" fill="#b6a489"/>
            <path id="Trazado_719087" data-name="Trazado 719087" d="M80.013,61.617h0c-2.577,2.006-2.055,6.893.717,8.8l.094.064a14.453,14.453,0,0,0,16.429.472h0c2.77-1.746,3.292-6.6.716-8.748l-.09-.075a13.872,13.872,0,0,0-17.867-.513" fill="#ab9790"/>
            <path id="Trazado_719088" data-name="Trazado 719088" d="M65.383,63.738h0c-1.739,1.174-1.508,4.111.317,5.287l.062.04a10.377,10.377,0,0,0,11.078.318,3.267,3.267,0,0,0,.317-5.264l-.06-.044a10.063,10.063,0,0,0-11.714-.337" fill="#b6a489"/>
            <path id="Trazado_719089" data-name="Trazado 719089" d="M61.033,57.931l3.4,9.495,13.653.483,3.453-9.43Z" fill="#b6a489"/>
            <path id="Trazado_719090" data-name="Trazado 719090" d="M62.29,51.754h0c-2.578,2.006-2.055,6.893.717,8.8l.092.064a14.454,14.454,0,0,0,16.43.472c2.771-1.746,3.294-6.6.717-8.748l-.089-.075a13.872,13.872,0,0,0-17.867-.513" fill="#ab9790"/>
            <path id="Trazado_719091" data-name="Trazado 719091" d="M47.659,53.655h0c-1.739,1.174-1.508,4.111.317,5.287l.062.04a10.377,10.377,0,0,0,11.078.318,3.266,3.266,0,0,0,.317-5.264l-.06-.044a10.063,10.063,0,0,0-11.714-.337" fill="#b6a489"/>
            <path id="Trazado_719092" data-name="Trazado 719092" d="M43.31,47.849l3.4,9.5,13.653.482,3.454-9.43Z" fill="#b6a489"/>
            <path id="Trazado_719093" data-name="Trazado 719093" d="M44.566,41.671h0c-2.577,2.006-2.055,6.893.717,8.8l.093.064a14.454,14.454,0,0,0,16.43.472c2.771-1.746,3.293-6.6.717-8.748l-.09-.075a13.872,13.872,0,0,0-17.867-.513" fill="#ab9790"/>
            <path id="Trazado_719094" data-name="Trazado 719094" d="M29.936,43.792h0c-1.739,1.174-1.508,4.111.317,5.287l.062.04a10.377,10.377,0,0,0,11.078.318,3.267,3.267,0,0,0,.317-5.264l-.06-.044a10.063,10.063,0,0,0-11.714-.337" fill="#b6a489"/>
            <path id="Trazado_719095" data-name="Trazado 719095" d="M25.587,37.985l3.4,9.5,13.653.483,3.454-9.43Z" fill="#b6a489"/>
            <path id="Trazado_719096" data-name="Trazado 719096" d="M26.843,31.808h0c-2.577,2.006-2.055,6.893.717,8.8l.093.064a14.452,14.452,0,0,0,16.43.472c2.771-1.746,3.293-6.6.717-8.748l-.09-.075a13.872,13.872,0,0,0-17.867-.513" fill="#ab9790"/>
            <path id="Trazado_719097" data-name="Trazado 719097" d="M12.213,33.71h0C10.474,34.884,10.7,37.821,12.53,39l.062.04a10.377,10.377,0,0,0,11.078.318,3.266,3.266,0,0,0,.317-5.264l-.06-.044a10.061,10.061,0,0,0-11.714-.337" fill="#b6a489"/>
            <path id="Trazado_719098" data-name="Trazado 719098" d="M7.864,27.9l3.4,9.5,13.653.483,3.454-9.43Z" fill="#b6a489"/>
            <path id="Trazado_719099" data-name="Trazado 719099" d="M9.12,21.726h0c-2.577,2.006-2.055,6.893.717,8.8l.093.064a14.452,14.452,0,0,0,16.43.472c2.771-1.746,3.293-6.6.717-8.748l-.09-.075A13.872,13.872,0,0,0,9.12,21.726" fill="#ab9790"/>
            <path id="Trazado_719100" data-name="Trazado 719100" d="M25.049,43.248l.918-6.66,7.416-4.281L31.211,39.69Z" fill="#ac997c"/>
            <path id="Trazado_719101" data-name="Trazado 719101" d="M25.049,43.248l-6.2-3.58-2.171-8.444,9.29,5.364Z" fill="#a69274"/>
            <path id="Trazado_719102" data-name="Trazado 719102" d="M42.536,53.089l.918-6.66,7.416-4.281L48.7,49.531Z" fill="#ac997c"/>
            <path id="Trazado_719103" data-name="Trazado 719103" d="M42.536,53.089l-6.2-3.58-2.171-8.444,9.29,5.364Z" fill="#a69274"/>
            <path id="Trazado_719104" data-name="Trazado 719104" d="M60.023,62.931l.918-6.66,7.416-4.281-2.172,7.383Z" fill="#ac997c"/>
            <path id="Trazado_719105" data-name="Trazado 719105" d="M60.023,62.931l-6.2-3.58-2.171-8.444,9.29,5.364Z" fill="#a69274"/>
            <path id="Trazado_719106" data-name="Trazado 719106" d="M77.51,72.773l.918-6.66,7.416-4.282-2.172,7.384Z" fill="#ac997c"/>
            <path id="Trazado_719107" data-name="Trazado 719107" d="M77.51,72.773l-6.2-3.58-2.171-8.444,9.29,5.364Z" fill="#a69274"/>
            <path id="Trazado_719108" data-name="Trazado 719108" d="M48.759,43.248l.918-6.66,7.416-4.281L54.921,39.69Z" fill="#ab9790"/>
            <path id="Trazado_719109" data-name="Trazado 719109" d="M48.759,43.248l-6.2-3.58-2.171-8.444,9.29,5.364Z" fill="#dbcbc5"/>
            <path id="Trazado_719110" data-name="Trazado 719110" d="M66.246,53.089l.918-6.66,7.416-4.281-2.172,7.383Z" fill="#ab9889"/>
            <path id="Trazado_719111" data-name="Trazado 719111" d="M66.246,53.089l-6.2-3.58-2.171-8.444,9.29,5.364Z" fill="#c9b8aa"/>
            <path id="Trazado_719112" data-name="Trazado 719112" d="M83.733,62.931l.918-6.66,7.416-4.281L89.9,59.373Z" fill="#ac9883"/>
            <path id="Trazado_719113" data-name="Trazado 719113" d="M83.733,62.931l-6.2-3.58-2.171-8.444,9.29,5.364Z" fill="#b8a58f"/>
            <path id="Trazado_719114" data-name="Trazado 719114" d="M101.22,72.773l.918-6.66,7.416-4.282-2.172,7.384Z" fill="#ac997c"/>
            <path id="Trazado_719115" data-name="Trazado 719115" d="M101.22,72.773l-6.2-3.58-2.171-8.444,9.29,5.364Z" fill="#a69274"/>
            <path id="Trazado_719116" data-name="Trazado 719116" d="M86.19,75.618.971,26.417a1.944,1.944,0,0,1,0-3.366L31.415,5.474a7.42,7.42,0,0,1,7.419,0l85.219,49.2a1.944,1.944,0,0,1,0,3.366L93.608,75.618a7.418,7.418,0,0,1-7.418,0" fill="#ab9790"/>
            <path id="Trazado_719117" data-name="Trazado 719117" d="M86.19,74.476.971,25.275a1.944,1.944,0,0,1,0-3.366L31.415,4.332a7.42,7.42,0,0,1,7.419,0l85.219,49.2a1.944,1.944,0,0,1,0,3.366L93.608,74.476a7.418,7.418,0,0,1-7.418,0" fill="#ebd4be"/>
            <path id="Trazado_719118" data-name="Trazado 719118" d="M124.052,53.534,38.834,4.333a7.42,7.42,0,0,0-7.419,0L.971,21.91a1.944,1.944,0,0,0,0,3.366l85.219,49.2a7.418,7.418,0,0,0,7.418,0L124.052,56.9a1.943,1.943,0,0,0,0-3.366m-.877,3.053-29.9,17.262a7.282,7.282,0,0,1-7.285,0L2.3,25.529a1.908,1.908,0,0,1,0-3.306L32.195,4.96a7.289,7.289,0,0,1,7.286,0l83.694,48.321a1.909,1.909,0,0,1,0,3.306" fill="#f4e7db"/>
            <path id="Trazado_719119" data-name="Trazado 719119" d="M20.057,17.09H18.405l-2.858-1.618,2.735-2.363-.83,2.477Z" fill="#ccac94"/>
            <path id="Trazado_719120" data-name="Trazado 719120" d="M22.08,10.027l1.912,1.1L20.565,13.11l-1.912-1.1Z" fill="#e8ccb5"/>
            <path id="Trazado_719121" data-name="Trazado 719121" d="M20.565,13.109l-.507,3.981-2.6-1.5,1.2-3.581Z" fill="#c5b29c"/>
            <path id="Trazado_719122" data-name="Trazado 719122" d="M20.565,13.109l3.427-1.979,1.2,3L20.058,17.09Z" fill="#b59e86"/>
            <path id="Trazado_719123" data-name="Trazado 719123" d="M104.586,45.166h-1.652l-5.016-2.98,2.243-1.756-.71,1.771Z" fill="#ccac94"/>
            <path id="Trazado_719124" data-name="Trazado 719124" d="M102.563,38.1l-1.912,1.1,3.427,1.979,1.912-1.1Z" fill="#e8ccb5"/>
            <path id="Trazado_719125" data-name="Trazado 719125" d="M104.078,41.185l.507,3.981,2.605-1.5-1.2-3.581Z" fill="#c5b29c"/>
            <path id="Trazado_719126" data-name="Trazado 719126" d="M104.078,41.185l-3.427-1.979L99.45,42.2l5.135,2.965Z" fill="#b59e86"/>
            <path id="Trazado_719127" data-name="Trazado 719127" d="M87.366,35.3H85.714L80.7,32.317l2.243-1.756-.71,1.771Z" fill="#ccac94"/>
            <path id="Trazado_719128" data-name="Trazado 719128" d="M85.344,28.233l-1.912,1.1,3.427,1.979,1.912-1.1Z" fill="#e8ccb5"/>
            <path id="Trazado_719129" data-name="Trazado 719129" d="M86.859,31.316l.507,3.981,2.605-1.5-1.2-3.581Z" fill="#c5b29c"/>
            <path id="Trazado_719130" data-name="Trazado 719130" d="M86.859,31.316l-3.427-1.979-1.2,2.995L87.366,35.3Z" fill="#b59e86"/>
            <path id="Trazado_719131" data-name="Trazado 719131" d="M70.026,25.341H68.374l-5.016-2.98L65.6,20.6l-.71,1.771Z" fill="#ccac94"/>
            <path id="Trazado_719132" data-name="Trazado 719132" d="M68,18.277l-1.912,1.1,3.427,1.979,1.912-1.1Z" fill="#e8ccb5"/>
            <path id="Trazado_719133" data-name="Trazado 719133" d="M69.519,21.36l.507,3.981,2.605-1.5-1.2-3.581Z" fill="#c5b29c"/>
            <path id="Trazado_719134" data-name="Trazado 719134" d="M69.519,21.36l-3.427-1.979-1.2,2.995,5.135,2.965Z" fill="#b59e86"/>
            <path id="Trazado_719135" data-name="Trazado 719135" d="M50.8,8.414l-1.912,1.1L52.318,11.5l1.912-1.1Z" fill="#e8ccb5"/>
            <path id="Trazado_719136" data-name="Trazado 719136" d="M52.318,11.5l.507,3.981,2.6-1.5-1.2-3.581Z" fill="#c5b29c"/>
            <path id="Trazado_719137" data-name="Trazado 719137" d="M52.318,11.5,48.891,9.517l-1.2,3,5.135,2.965Z" fill="#b59e86"/>
            <path id="Trazado_719138" data-name="Trazado 719138" d="M52.826,15.477H51.174L46.158,12.5,48.4,10.741l-.71,1.771Z" fill="#ccac94"/>
            <path id="Trazado_719139" data-name="Trazado 719139" d="M23.008,29.137A15.259,15.259,0,0,1,9.2,29.112c-3.825-2.208-3.844-5.777-.043-7.971a15.259,15.259,0,0,1,13.806.025c3.824,2.208,3.844,5.777.043,7.971" fill="#ccac94"/>
            <path id="Trazado_719140" data-name="Trazado 719140" d="M40.6,38.94a15.259,15.259,0,0,1-13.806-.025c-3.825-2.208-3.844-5.777-.044-7.971a15.261,15.261,0,0,1,13.807.025c3.824,2.208,3.844,5.777.043,7.971" fill="#ccac94"/>
            <path id="Trazado_719141" data-name="Trazado 719141" d="M58.185,48.744a15.259,15.259,0,0,1-13.806-.025c-3.825-2.208-3.844-5.777-.043-7.971a15.259,15.259,0,0,1,13.806.025c3.824,2.208,3.844,5.777.043,7.971" fill="#ccac94"/>
            <path id="Trazado_719142" data-name="Trazado 719142" d="M75.773,58.547a15.259,15.259,0,0,1-13.806-.025c-3.825-2.208-3.844-5.777-.044-7.971a15.261,15.261,0,0,1,13.807.025c3.824,2.208,3.844,5.777.043,7.971" fill="#ccac94"/>
            <path id="Trazado_719143" data-name="Trazado 719143" d="M93.362,68.35a15.259,15.259,0,0,1-13.806-.025c-3.826-2.208-3.844-5.777-.044-7.971a15.259,15.259,0,0,1,13.806.025c3.825,2.208,3.844,5.777.044,7.971" fill="#ccac94"/>
            <path id="Trazado_719144" data-name="Trazado 719144" d="M42.529,19.274a15.259,15.259,0,0,1-13.806-.025c-3.825-2.208-3.844-5.777-.044-7.971a15.261,15.261,0,0,1,13.807.025c3.824,2.208,3.843,5.777.043,7.971" fill="#ccac94"/>
            <path id="Trazado_719145" data-name="Trazado 719145" d="M60.117,29.077a15.259,15.259,0,0,1-13.806-.025c-3.825-2.208-3.844-5.777-.044-7.971a15.261,15.261,0,0,1,13.807.025c3.824,2.208,3.844,5.777.043,7.971" fill="#ccac94"/>
            <path id="Trazado_719146" data-name="Trazado 719146" d="M77.706,38.88A15.259,15.259,0,0,1,63.9,38.855c-3.825-2.208-3.844-5.777-.044-7.971a15.261,15.261,0,0,1,13.807.025c3.824,2.208,3.843,5.777.043,7.971" fill="#ccac94"/>
            <path id="Trazado_719147" data-name="Trazado 719147" d="M95.294,48.684a15.259,15.259,0,0,1-13.806-.025c-3.825-2.208-3.844-5.777-.043-7.971a15.259,15.259,0,0,1,13.806.025c3.824,2.208,3.844,5.777.043,7.971" fill="#ccac94"/>
            <path id="Trazado_719148" data-name="Trazado 719148" d="M112.882,58.487a15.259,15.259,0,0,1-13.806-.025c-3.825-2.208-3.844-5.777-.044-7.971a15.261,15.261,0,0,1,13.807.025c3.824,2.208,3.844,5.777.043,7.971" fill="#ccac94"/>
            <path id="Trazado_719149" data-name="Trazado 719149" d="M44.718,19.274a15.259,15.259,0,0,1-13.806-.025c-3.825-2.208-3.844-5.777-.044-7.971a15.261,15.261,0,0,1,13.807.025c3.824,2.208,3.843,5.777.043,7.971" fill="#cca48d"/>
            <path id="Trazado_719150" data-name="Trazado 719150" d="M46.445,17.073a5.924,5.924,0,0,1-2.145,1.96,14.345,14.345,0,0,1-12.974-.023,5.458,5.458,0,0,1-2.475-2.58,3.151,3.151,0,0,1-.006-2.359,5.363,5.363,0,0,1,2.44-2.551,14.332,14.332,0,0,1,12.974.023,5.334,5.334,0,0,1,2.529,2.722,3.224,3.224,0,0,1-.343,2.808" fill="#937971"/>
            <path id="Trazado_719151" data-name="Trazado 719151" d="M46.791,14.168c0,.032,0,.066,0,.1a11.87,11.87,0,0,1-.342,2.807A5.926,5.926,0,0,1,44.3,19.032a14.1,14.1,0,0,1-8.7,1.381,12.073,12.073,0,0,1-4.276-1.4,5.445,5.445,0,0,1-2.477-2.58c-.035-.376-.052-.767-.052-1.17q0-.579.047-1.19C29.312,8.1,33.141.291,37.793.007a4.287,4.287,0,0,1,1.014.061h.007c4.488.8,7.977,8.459,7.977,14.1" fill="#ffd3b4"/>
            <path id="Trazado_719152" data-name="Trazado 719152" d="M32.481,7.777A15.248,15.248,0,0,0,35.6,20.413a12.08,12.08,0,0,1-4.275-1.4,5.461,5.461,0,0,1-2.478-2.58c-.034-.376-.051-.767-.051-1.17q0-.579.047-1.19C29.312,8.1,33.141.291,37.793.008a4.224,4.224,0,0,1,1.013.061c-.215-.015-4.774-.245-6.325,7.708" fill="#ffc095"/>
            <path id="Trazado_719153" data-name="Trazado 719153" d="M38.692.772h0a1.356,1.356,0,0,0-1.711,1.609l.008.035a5.771,5.771,0,0,0,3.953,4.2,1.357,1.357,0,0,0,1.711-1.61l-.009-.035a5.767,5.767,0,0,0-3.952-4.2" fill="#ffeada"/>
            <path id="Trazado_719154" data-name="Trazado 719154" d="M62.306,29.077A15.259,15.259,0,0,1,48.5,29.052c-3.825-2.208-3.844-5.777-.044-7.971a15.261,15.261,0,0,1,13.807.025c3.824,2.208,3.844,5.777.043,7.971" fill="#cca48d"/>
            <path id="Trazado_719155" data-name="Trazado 719155" d="M64.034,26.876a5.924,5.924,0,0,1-2.145,1.96,14.345,14.345,0,0,1-12.974-.023,5.458,5.458,0,0,1-2.475-2.58,3.143,3.143,0,0,1-.006-2.358,5.355,5.355,0,0,1,2.44-2.552,14.332,14.332,0,0,1,12.974.023,5.334,5.334,0,0,1,2.529,2.722,3.224,3.224,0,0,1-.343,2.808" fill="#937971"/>
            <path id="Trazado_719156" data-name="Trazado 719156" d="M64.379,23.971c0,.032,0,.066,0,.1a11.813,11.813,0,0,1-.341,2.807,5.926,5.926,0,0,1-2.146,1.959,14.1,14.1,0,0,1-8.7,1.381,12.061,12.061,0,0,1-4.275-1.4,5.453,5.453,0,0,1-2.478-2.58c-.034-.376-.051-.767-.051-1.17q0-.579.047-1.19c.466-5.968,4.294-13.789,8.947-14.063a4.235,4.235,0,0,1,1.014.061H56.4c4.488.8,7.977,8.459,7.977,14.1" fill="#ffd3b4"/>
            <path id="Trazado_719157" data-name="Trazado 719157" d="M50.069,17.58a15.248,15.248,0,0,0,3.122,12.636,12.08,12.08,0,0,1-4.275-1.4,5.461,5.461,0,0,1-2.478-2.58c-.034-.376-.051-.767-.051-1.17q0-.579.047-1.19c.466-5.969,4.294-13.79,8.947-14.063a4.184,4.184,0,0,1,1.014.061c-.215-.015-4.775-.245-6.326,7.708" fill="#ffc095"/>
            <path id="Trazado_719158" data-name="Trazado 719158" d="M56.28,10.575h0a1.356,1.356,0,0,0-1.711,1.609l.008.035a5.771,5.771,0,0,0,3.953,4.2,1.357,1.357,0,0,0,1.711-1.61l-.008-.035a5.77,5.77,0,0,0-3.953-4.2" fill="#ffeada"/>
            <path id="Trazado_719159" data-name="Trazado 719159" d="M79.895,38.88a15.259,15.259,0,0,1-13.806-.025c-3.825-2.208-3.844-5.777-.044-7.971a15.261,15.261,0,0,1,13.807.025c3.824,2.208,3.844,5.777.043,7.971" fill="#cca48d"/>
            <path id="Trazado_719160" data-name="Trazado 719160" d="M81.622,36.68a5.924,5.924,0,0,1-2.145,1.96A14.345,14.345,0,0,1,66.5,38.617a5.454,5.454,0,0,1-2.475-2.58,3.143,3.143,0,0,1-.006-2.358,5.355,5.355,0,0,1,2.44-2.552,14.332,14.332,0,0,1,12.974.023,5.334,5.334,0,0,1,2.529,2.722,3.224,3.224,0,0,1-.343,2.808" fill="#937971"/>
            <path id="Trazado_719161" data-name="Trazado 719161" d="M81.967,33.775c0,.032,0,.066,0,.1a11.817,11.817,0,0,1-.343,2.807,5.914,5.914,0,0,1-2.145,1.959,14.1,14.1,0,0,1-8.7,1.381,12.06,12.06,0,0,1-4.276-1.4,5.445,5.445,0,0,1-2.477-2.58c-.035-.376-.052-.767-.052-1.17q0-.579.047-1.19c.466-5.968,4.294-13.789,8.947-14.063a4.235,4.235,0,0,1,1.014.061h.007c4.488.8,7.977,8.459,7.977,14.1" fill="#ffd3b4"/>
            <path id="Trazado_719162" data-name="Trazado 719162" d="M67.658,27.383A15.248,15.248,0,0,0,70.78,40.019a12.08,12.08,0,0,1-4.275-1.4,5.461,5.461,0,0,1-2.478-2.58q-.051-.565-.051-1.17,0-.579.046-1.19c.467-5.969,4.295-13.79,8.947-14.063a4.189,4.189,0,0,1,1.015.061c-.216-.015-4.775-.245-6.326,7.708" fill="#ffc095"/>
            <path id="Trazado_719163" data-name="Trazado 719163" d="M73.868,20.379h0a1.356,1.356,0,0,0-1.711,1.609l.008.035a5.771,5.771,0,0,0,3.953,4.2,1.357,1.357,0,0,0,1.711-1.61l-.008-.035a5.77,5.77,0,0,0-3.953-4.2" fill="#ffeada"/>
            <path id="Trazado_719164" data-name="Trazado 719164" d="M97.483,48.684a15.259,15.259,0,0,1-13.806-.025c-3.825-2.208-3.844-5.777-.043-7.971a15.259,15.259,0,0,1,13.806.025c3.824,2.208,3.844,5.777.043,7.971" fill="#cca48d"/>
            <path id="Trazado_719165" data-name="Trazado 719165" d="M99.211,46.483a5.924,5.924,0,0,1-2.145,1.96,14.345,14.345,0,0,1-12.974-.023,5.454,5.454,0,0,1-2.475-2.58,3.143,3.143,0,0,1-.006-2.358,5.355,5.355,0,0,1,2.44-2.552,14.332,14.332,0,0,1,12.974.023,5.334,5.334,0,0,1,2.529,2.722,3.224,3.224,0,0,1-.343,2.808" fill="#937971"/>
            <path id="Trazado_719166" data-name="Trazado 719166" d="M99.556,43.578c0,.032,0,.066,0,.1a11.818,11.818,0,0,1-.342,2.807,5.926,5.926,0,0,1-2.146,1.959,14.1,14.1,0,0,1-8.7,1.381,12.066,12.066,0,0,1-4.276-1.4,5.445,5.445,0,0,1-2.477-2.58c-.035-.376-.052-.767-.052-1.17q0-.579.047-1.19c.466-5.968,4.294-13.789,8.947-14.063a4.235,4.235,0,0,1,1.014.061h.007c4.488.8,7.977,8.459,7.977,14.1" fill="#ffd3b4"/>
            <path id="Trazado_719167" data-name="Trazado 719167" d="M85.246,37.187a15.248,15.248,0,0,0,3.122,12.636,12.08,12.08,0,0,1-4.275-1.4,5.462,5.462,0,0,1-2.478-2.58c-.034-.376-.051-.767-.051-1.17q0-.579.047-1.19c.466-5.969,4.294-13.79,8.946-14.063a4.178,4.178,0,0,1,1.014.061c-.215-.015-4.774-.245-6.325,7.708" fill="#ffc095"/>
            <path id="Trazado_719168" data-name="Trazado 719168" d="M91.457,30.182h0a1.356,1.356,0,0,0-1.711,1.609l.008.035a5.771,5.771,0,0,0,3.953,4.2,1.357,1.357,0,0,0,1.711-1.61l-.008-.035a5.77,5.77,0,0,0-3.953-4.2" fill="#ffeada"/>
            <path id="Trazado_719169" data-name="Trazado 719169" d="M115.071,58.487a15.259,15.259,0,0,1-13.806-.025c-3.825-2.208-3.844-5.777-.043-7.971a15.259,15.259,0,0,1,13.806.025c3.824,2.208,3.844,5.777.043,7.971" fill="#cca48d"/>
            <path id="Trazado_719170" data-name="Trazado 719170" d="M116.8,56.286a5.924,5.924,0,0,1-2.145,1.96,14.345,14.345,0,0,1-12.974-.023,5.458,5.458,0,0,1-2.475-2.58,3.143,3.143,0,0,1-.006-2.358,5.355,5.355,0,0,1,2.44-2.552,14.332,14.332,0,0,1,12.974.023,5.334,5.334,0,0,1,2.529,2.722,3.224,3.224,0,0,1-.343,2.808" fill="#937971"/>
            <path id="Trazado_719171" data-name="Trazado 719171" d="M117.144,53.382c0,.032,0,.066,0,.1a11.818,11.818,0,0,1-.342,2.807,5.926,5.926,0,0,1-2.146,1.959,14.1,14.1,0,0,1-8.7,1.381,12.066,12.066,0,0,1-4.276-1.4,5.445,5.445,0,0,1-2.477-2.58c-.035-.376-.052-.767-.052-1.17q0-.579.047-1.19c.466-5.969,4.3-13.779,8.947-14.063a4.287,4.287,0,0,1,1.014.061h.007c4.488.8,7.977,8.459,7.977,14.1" fill="#ffd3b4"/>
            <path id="Trazado_719172" data-name="Trazado 719172" d="M102.834,46.99a15.248,15.248,0,0,0,3.122,12.636,12.08,12.08,0,0,1-4.275-1.4,5.461,5.461,0,0,1-2.478-2.58q-.051-.566-.051-1.17,0-.579.047-1.19c.466-5.969,4.3-13.78,8.946-14.063a4.24,4.24,0,0,1,1.015.061c-.216-.015-4.775-.245-6.326,7.708" fill="#ffc095"/>
            <path id="Trazado_719173" data-name="Trazado 719173" d="M109.045,39.985h0a1.356,1.356,0,0,0-1.711,1.609l.008.035a5.771,5.771,0,0,0,3.953,4.2,1.357,1.357,0,0,0,1.711-1.61L113,44.187a5.77,5.77,0,0,0-3.953-4.2" fill="#ffeada"/>
            <path id="Trazado_719174" data-name="Trazado 719174" d="M25.271,29.137a15.259,15.259,0,0,1-13.806-.025c-3.825-2.208-3.844-5.777-.044-7.971a15.261,15.261,0,0,1,13.807.025c3.824,2.208,3.844,5.777.043,7.971" fill="#cca48d"/>
            <path id="Trazado_719175" data-name="Trazado 719175" d="M27,26.936a5.924,5.924,0,0,1-2.145,1.96,14.345,14.345,0,0,1-12.974-.023A5.458,5.458,0,0,1,9.4,26.293,3.143,3.143,0,0,1,9.4,23.935a5.355,5.355,0,0,1,2.44-2.552,14.332,14.332,0,0,1,12.974.023,5.334,5.334,0,0,1,2.529,2.722A3.224,3.224,0,0,1,27,26.936" fill="#937971"/>
            <path id="Trazado_719176" data-name="Trazado 719176" d="M27.344,24.031c0,.032,0,.066,0,.1A11.813,11.813,0,0,1,27,26.936,5.926,5.926,0,0,1,24.854,28.9a14.1,14.1,0,0,1-8.7,1.381,12.061,12.061,0,0,1-4.275-1.4A5.453,5.453,0,0,1,9.4,26.293c-.034-.376-.051-.767-.051-1.17q0-.579.047-1.19c.466-5.968,4.3-13.779,8.947-14.063a4.287,4.287,0,0,1,1.014.061h.007c4.488.8,7.977,8.459,7.977,14.1" fill="#ffd3b4"/>
            <path id="Trazado_719177" data-name="Trazado 719177" d="M13.034,17.64a15.248,15.248,0,0,0,3.122,12.636,12.08,12.08,0,0,1-4.275-1.4A5.462,5.462,0,0,1,9.4,26.294q-.051-.566-.051-1.171c0-.386.015-.781.047-1.189.466-5.969,4.3-13.78,8.947-14.063a4.235,4.235,0,0,1,1.014.061c-.215-.015-4.775-.245-6.326,7.708" fill="#ffc095"/>
            <path id="Trazado_719178" data-name="Trazado 719178" d="M19.245,10.635h0a1.356,1.356,0,0,0-1.711,1.61l.008.034a5.77,5.77,0,0,0,3.953,4.2,1.357,1.357,0,0,0,1.711-1.61l-.008-.035a5.77,5.77,0,0,0-3.953-4.2" fill="#ffeada"/>
            <path id="Trazado_719179" data-name="Trazado 719179" d="M42.86,38.94a15.259,15.259,0,0,1-13.806-.025c-3.825-2.208-3.844-5.777-.044-7.971a15.261,15.261,0,0,1,13.807.025c3.824,2.208,3.844,5.777.043,7.971" fill="#cca48d"/>
            <path id="Trazado_719180" data-name="Trazado 719180" d="M44.587,36.739a5.924,5.924,0,0,1-2.145,1.96,14.345,14.345,0,0,1-12.974-.023,5.458,5.458,0,0,1-2.475-2.58,3.143,3.143,0,0,1-.006-2.358,5.355,5.355,0,0,1,2.44-2.552,14.332,14.332,0,0,1,12.974.023,5.334,5.334,0,0,1,2.529,2.722,3.224,3.224,0,0,1-.343,2.808" fill="#937971"/>
            <path id="Trazado_719181" data-name="Trazado 719181" d="M44.932,33.835c0,.032,0,.066,0,.1a11.864,11.864,0,0,1-.342,2.807A5.926,5.926,0,0,1,42.442,38.7a14.1,14.1,0,0,1-8.7,1.381,12.066,12.066,0,0,1-4.276-1.4,5.445,5.445,0,0,1-2.477-2.58c-.035-.376-.052-.767-.052-1.17q0-.579.047-1.19c.466-5.968,4.294-13.789,8.947-14.063a4.235,4.235,0,0,1,1.014.061h.007c4.488.8,7.977,8.459,7.977,14.1" fill="#ffd3b4"/>
            <path id="Trazado_719182" data-name="Trazado 719182" d="M30.623,27.443a15.248,15.248,0,0,0,3.122,12.636,12.08,12.08,0,0,1-4.275-1.4,5.461,5.461,0,0,1-2.478-2.58q-.051-.564-.051-1.171,0-.577.047-1.189c.466-5.969,4.294-13.79,8.946-14.063a4.178,4.178,0,0,1,1.014.061c-.215-.015-4.774-.245-6.325,7.708" fill="#ffc095"/>
            <path id="Trazado_719183" data-name="Trazado 719183" d="M36.833,20.439h0a1.356,1.356,0,0,0-1.711,1.609l.008.035a5.771,5.771,0,0,0,3.953,4.2,1.357,1.357,0,0,0,1.711-1.61l-.008-.035a5.77,5.77,0,0,0-3.953-4.2" fill="#ffeada"/>
            <path id="Trazado_719184" data-name="Trazado 719184" d="M60.448,48.744a15.259,15.259,0,0,1-13.806-.025c-3.825-2.208-3.844-5.777-.044-7.971a15.261,15.261,0,0,1,13.807.025c3.824,2.208,3.844,5.777.043,7.971" fill="#cca48d"/>
            <path id="Trazado_719185" data-name="Trazado 719185" d="M62.176,46.543a5.924,5.924,0,0,1-2.145,1.96,14.345,14.345,0,0,1-12.974-.023,5.458,5.458,0,0,1-2.475-2.58,3.146,3.146,0,0,1-.006-2.359,5.358,5.358,0,0,1,2.44-2.551,14.332,14.332,0,0,1,12.974.023,5.334,5.334,0,0,1,2.529,2.722,3.224,3.224,0,0,1-.343,2.808" fill="#937971"/>
            <path id="Trazado_719186" data-name="Trazado 719186" d="M62.521,43.638c0,.032,0,.066,0,.1a11.818,11.818,0,0,1-.342,2.807A5.926,5.926,0,0,1,60.031,48.5a14.1,14.1,0,0,1-8.7,1.381,12.066,12.066,0,0,1-4.276-1.4,5.445,5.445,0,0,1-2.477-2.58c-.035-.376-.052-.767-.052-1.17q0-.579.047-1.19c.466-5.968,4.294-13.789,8.947-14.063a4.235,4.235,0,0,1,1.014.061h.007c4.488.8,7.977,8.459,7.977,14.1" fill="#ffd3b4"/>
            <path id="Trazado_719187" data-name="Trazado 719187" d="M48.211,37.247a15.248,15.248,0,0,0,3.122,12.636,12.08,12.08,0,0,1-4.275-1.4A5.461,5.461,0,0,1,44.58,45.9c-.034-.376-.051-.767-.051-1.17q0-.579.047-1.19c.466-5.969,4.294-13.79,8.947-14.063a4.184,4.184,0,0,1,1.014.061c-.216-.015-4.775-.245-6.326,7.708" fill="#ffc095"/>
            <path id="Trazado_719188" data-name="Trazado 719188" d="M54.422,30.242h0a1.356,1.356,0,0,0-1.711,1.609l.008.035a5.771,5.771,0,0,0,3.953,4.2,1.357,1.357,0,0,0,1.711-1.61l-.008-.035a5.77,5.77,0,0,0-3.953-4.2" fill="#ffeada"/>
            <path id="Trazado_719189" data-name="Trazado 719189" d="M78.036,58.547a15.259,15.259,0,0,1-13.806-.025c-3.825-2.208-3.844-5.777-.044-7.971a15.261,15.261,0,0,1,13.807.025c3.824,2.208,3.843,5.777.043,7.971" fill="#cca48d"/>
            <path id="Trazado_719190" data-name="Trazado 719190" d="M79.764,56.346a5.924,5.924,0,0,1-2.145,1.96,14.345,14.345,0,0,1-12.974-.023,5.466,5.466,0,0,1-2.476-2.58,3.148,3.148,0,0,1,0-2.358,5.355,5.355,0,0,1,2.44-2.552,14.332,14.332,0,0,1,12.974.023,5.334,5.334,0,0,1,2.529,2.722,3.224,3.224,0,0,1-.343,2.808" fill="#937971"/>
            <path id="Trazado_719191" data-name="Trazado 719191" d="M80.109,53.441c0,.032,0,.066,0,.1a11.864,11.864,0,0,1-.342,2.807,5.926,5.926,0,0,1-2.146,1.959,14.1,14.1,0,0,1-8.7,1.381,12.073,12.073,0,0,1-4.276-1.4,5.445,5.445,0,0,1-2.477-2.58c-.035-.376-.052-.767-.052-1.17q0-.579.047-1.19c.466-5.968,4.294-13.789,8.947-14.063a4.235,4.235,0,0,1,1.014.061h.007c4.488.8,7.977,8.459,7.977,14.1" fill="#ffd3b4"/>
            <path id="Trazado_719192" data-name="Trazado 719192" d="M65.8,47.05a15.248,15.248,0,0,0,3.122,12.636,12.08,12.08,0,0,1-4.275-1.4,5.461,5.461,0,0,1-2.478-2.58c-.034-.376-.051-.767-.051-1.17q0-.579.046-1.19c.467-5.969,4.3-13.79,8.947-14.063a4.178,4.178,0,0,1,1.014.061c-.215-.015-4.774-.245-6.325,7.708" fill="#ffc095"/>
            <path id="Trazado_719193" data-name="Trazado 719193" d="M72.01,40.045h0A1.356,1.356,0,0,0,70.3,41.654l.008.035a5.768,5.768,0,0,0,3.953,4.2h0a1.357,1.357,0,0,0,1.711-1.61l-.008-.035a5.77,5.77,0,0,0-3.953-4.2" fill="#ffeada"/>
            <path id="Trazado_719194" data-name="Trazado 719194" d="M95.625,68.35a15.259,15.259,0,0,1-13.806-.025c-3.825-2.208-3.844-5.777-.043-7.971a15.259,15.259,0,0,1,13.806.025c3.824,2.208,3.844,5.777.043,7.971" fill="#cca48d"/>
            <path id="Trazado_719195" data-name="Trazado 719195" d="M97.352,66.149a5.924,5.924,0,0,1-2.145,1.96,14.345,14.345,0,0,1-12.974-.023,5.458,5.458,0,0,1-2.475-2.58,3.143,3.143,0,0,1-.006-2.358,5.355,5.355,0,0,1,2.44-2.552,14.332,14.332,0,0,1,12.974.023,5.334,5.334,0,0,1,2.529,2.722,3.224,3.224,0,0,1-.343,2.808" fill="#937971"/>
            <path id="Trazado_719196" data-name="Trazado 719196" d="M97.7,63.245c0,.032,0,.066,0,.1a11.871,11.871,0,0,1-.341,2.807,5.93,5.93,0,0,1-2.147,1.959,14.1,14.1,0,0,1-8.7,1.381,12.079,12.079,0,0,1-4.276-1.4,5.45,5.45,0,0,1-2.477-2.58c-.035-.376-.052-.767-.052-1.17,0-.386.015-.782.048-1.19.465-5.968,4.295-13.779,8.947-14.063a4.29,4.29,0,0,1,1.014.061h.006c4.488.8,7.978,8.459,7.978,14.1" fill="#ffd3b4"/>
            <path id="Trazado_719197" data-name="Trazado 719197" d="M83.388,56.853A15.248,15.248,0,0,0,86.51,69.489a12.08,12.08,0,0,1-4.275-1.4,5.461,5.461,0,0,1-2.478-2.58q-.051-.566-.051-1.17,0-.579.047-1.19c.466-5.969,4.295-13.78,8.947-14.063a4.223,4.223,0,0,1,1.013.061c-.215-.015-4.774-.245-6.325,7.708" fill="#ffc095"/>
            <path id="Trazado_719198" data-name="Trazado 719198" d="M89.6,49.849h0a1.357,1.357,0,0,0-1.712,1.609l.009.035a5.769,5.769,0,0,0,3.953,4.2,1.357,1.357,0,0,0,1.711-1.61l-.01-.035a5.766,5.766,0,0,0-3.951-4.2" fill="#ffeada"/>
            <path id="Trazado_719199" data-name="Trazado 719199" d="M72.647,64.995H70.995l-5.016-2.98,2.243-1.756-.71,1.771Z" fill="#ccac94"/>
            <path id="Trazado_719200" data-name="Trazado 719200" d="M70.624,57.931l-1.912,1.1,3.427,1.979,1.912-1.1Z" fill="#e8ccb5"/>
            <path id="Trazado_719201" data-name="Trazado 719201" d="M72.139,61.013l.507,3.981,2.605-1.5-1.2-3.581Z" fill="#c5b29c"/>
            <path id="Trazado_719202" data-name="Trazado 719202" d="M72.139,61.013l-3.427-1.979-1.2,2.995,5.135,2.965Z" fill="#b59e86"/>
            <path id="Trazado_719203" data-name="Trazado 719203" d="M55.427,55.126H53.775l-5.016-2.98L51,50.39l-.71,1.771Z" fill="#ccac94"/>
            <path id="Trazado_719204" data-name="Trazado 719204" d="M53.4,48.062l-1.912,1.1,3.427,1.979,1.912-1.1Z" fill="#e8ccb5"/>
            <path id="Trazado_719205" data-name="Trazado 719205" d="M54.919,51.145l.507,3.981,2.6-1.5-1.2-3.581Z" fill="#c5b29c"/>
            <path id="Trazado_719206" data-name="Trazado 719206" d="M54.919,51.145l-3.427-1.979-1.2,3,5.134,2.964Z" fill="#b59e86"/>
            <path id="Trazado_719207" data-name="Trazado 719207" d="M38.087,45.169H36.435l-5.016-2.98,2.243-1.755-.71,1.77Z" fill="#ccac94"/>
            <path id="Trazado_719208" data-name="Trazado 719208" d="M36.064,38.106l-1.912,1.1,3.427,1.979,1.912-1.1Z" fill="#e8ccb5"/>
            <path id="Trazado_719209" data-name="Trazado 719209" d="M37.58,41.188l.507,3.981,2.6-1.5-1.2-3.581Z" fill="#c5b29c"/>
            <path id="Trazado_719210" data-name="Trazado 719210" d="M37.58,41.188l-3.427-1.979-1.2,2.995,5.135,2.965Z" fill="#b59e86"/>
            <path id="Trazado_719211" data-name="Trazado 719211" d="M18.864,28.242l-1.912,1.1,3.427,1.979,1.912-1.1Z" fill="#e8ccb5"/>
            <path id="Trazado_719212" data-name="Trazado 719212" d="M20.379,31.325l.507,3.981,2.6-1.5-1.2-3.581Z" fill="#c5b29c"/>
            <path id="Trazado_719213" data-name="Trazado 719213" d="M20.379,31.325l-3.427-1.979-1.2,2.995,5.135,2.965Z" fill="#b59e86"/>
            <path id="Trazado_719214" data-name="Trazado 719214" d="M20.886,35.306H19.234l-5.016-2.98,2.243-1.756-.71,1.771Z" fill="#ccac94"/>
            <path id="Trazado_719215" data-name="Trazado 719215" d="M103.247,66.015H101.6L98.737,64.4l2.735-2.363-.83,2.477Z" fill="#ccac94"/>
            <path id="Trazado_719216" data-name="Trazado 719216" d="M105.27,58.952l1.912,1.1-3.427,1.979-1.912-1.1Z" fill="#e8ccb5"/>
            <path id="Trazado_719217" data-name="Trazado 719217" d="M103.755,62.034l-.507,3.981-2.605-1.5,1.2-3.581Z" fill="#c5b29c"/>
            <path id="Trazado_719218" data-name="Trazado 719218" d="M103.755,62.034l3.427-1.979,1.2,3-5.135,2.965Z" fill="#b59e86"/>
          </g>
        </g>
      </g>
    </g>
  </g>
</svg>
