<svg id="Grupo_983638" data-name="Grupo 983638" xmlns="http://www.w3.org/2000/svg" xmlns:xlink="http://www.w3.org/1999/xlink" width="117.838" height="104.038" viewBox="0 0 117.838 104.038">
  <defs>
    <clipPath id="clip-path">
      <rect id="Rectángulo_344468" data-name="Rectángulo 344468" width="117.838" height="104.038" fill="none"/>
    </clipPath>
  </defs>
  <g id="Grupo_983637" data-name="Grupo 983637" clip-path="url(#clip-path)">
    <path id="Trazado_718895" data-name="Trazado 718895" d="M222.461,68.937c-.549-2.012.183-4.024-.549-6.037A24.341,24.341,0,0,0,221,66.376v-6.4a18.669,18.669,0,0,0-.584,2.614c.012.166.025.33.035.5a2.737,2.737,0,0,1-.035-.5c-.191-2.742-.524-5.341-.7-8.1a16.306,16.306,0,0,1-.217,1.7c.007.287.017.574.034.861a2.908,2.908,0,0,1-.034-.861c-.063-2.823.282-5.646-.881-8.469,0,.915-.366,1.646-.366,2.561-.549-2.012,0-4.208-1.28-6.037a10.667,10.667,0,0,1-1.464,3.293,12.449,12.449,0,0,0-.732-5.122c-.914.732-.732,1.829-.732,2.927-.183-1.1.183-2.378-.183-3.476a32.194,32.194,0,0,1-1.646,3.659,22.362,22.362,0,0,0-.366-6.037c-.915.914-.915,2.378-1.281,3.476V39.3c-.732,1.83-1.464,3.476-2.012,5.305-1.1-1.464-.366-3.11-.549-4.573a4.3,4.3,0,0,0-.914,2.927v-2.2c-1.1.549-.915,3.11-2.378,2.378v-.915c-.409,1.093-1.431,1.88-1.77,2.969a4.406,4.406,0,0,0-.059,1.238,2.454,2.454,0,0,1,.059-1.238c.236-1.29.942-2.442,1.221-3.7a46.4,46.4,0,0,1-4.207,6.219c-.915-.732,0-1.646-.366-2.561-.168.109-.333.221-.5.335a56.644,56.644,0,0,1-20.906,17.775l41.525,32.562A72.726,72.726,0,0,0,223.376,76.8c.111-2.075.169-4.237.178-6.436-.188-.9-.375-1.807-.545-2.711-.549.366-.366.915-.549,1.281" transform="translate(-116.468 -25.688)" fill="#8c4d37"/>
    <path id="Trazado_718896" data-name="Trazado 718896" d="M256.238,10.687s-.183-9.146-5.122-7.134c0,0-2.561-8.232-4.208.366A58.587,58.587,0,0,1,238.545,19.8c.164-.114.329-.227.5-.335.366.915-.549,1.829.366,2.561a46.435,46.435,0,0,0,4.208-6.22c-.28,1.259-.985,2.411-1.221,3.7.339-1.09,1.36-1.877,1.77-2.969v.914c1.464.732,1.281-1.829,2.378-2.378v2.2a4.3,4.3,0,0,1,.915-2.927c.183,1.463-.549,3.11.549,4.573.549-1.829,1.281-3.476,2.012-5.3v3.659c.366-1.1.366-2.561,1.281-3.476a22.362,22.362,0,0,1,.366,6.037,32.111,32.111,0,0,0,1.646-3.659c.366,1.1,0,2.378.183,3.476,0-1.1-.183-2.2.732-2.927a12.455,12.455,0,0,1,.732,5.122,10.667,10.667,0,0,0,1.464-3.293c1.281,1.829.732,4.024,1.281,6.037,0-.914.366-1.646.366-2.561,1.162,2.823.817,5.646.881,8.469a16.39,16.39,0,0,0,.217-1.7c.173,2.76.506,5.36.7,8.1a18.682,18.682,0,0,1,.583-2.614v6.4a24.412,24.412,0,0,1,.915-3.476c.732,2.012,0,4.024.549,6.037.183-.366,0-.914.549-1.28.169.9.356,1.807.545,2.71.07-16.316-2.573-34.636-6.764-33.992" transform="translate(-155.915 0)" fill="#c96f4f"/>
    <path id="Trazado_718897" data-name="Trazado 718897" d="M116.52,15.821c-.364-.892-.991-1.813-.7-2.732a2.3,2.3,0,0,1,1.672-1.356c.722-.2,1.484-.224,2.2-.445,1.477-.456,2.563-1.678,3.811-2.59a10.389,10.389,0,0,1,10.178-1.07A5.045,5.045,0,0,1,136.3,9.913a2.558,2.558,0,0,1-.708,3.176,6.767,6.767,0,0,1-1.309.523,4.8,4.8,0,0,0-2.247,1.76,3.825,3.825,0,0,1-.853,1.067,2.9,2.9,0,0,1-1.7.319c-4.831-.029-8.589,1.674-12.931,3.415-.125-1.488.616-2.766-.032-4.352" transform="translate(-75.652 -4.422)" fill="#e34927"/>
    <path id="Trazado_718898" data-name="Trazado 718898" d="M102.532,69.27a13.456,13.456,0,0,1-2.337,6.689,2.568,2.568,0,0,1-1.519,1.1,3.269,3.269,0,0,1-2.842-1.485,5.338,5.338,0,0,1-1.027-3.3,4.367,4.367,0,0,1,.453-1.84c.56-1.094,1.581-1.744,2.306-2.69.552-.72.928-1.606,1.473-2.333.592-.789,2.121-2.765,3.185-1.444.869,1.078.423,4.321.309,5.312" transform="translate(-61.965 -41.514)" fill="#e34927"/>
    <path id="Trazado_718899" data-name="Trazado 718899" d="M87.573,58.306c0,.366.732-.915,1.464-1.281-.183,2.378-2.744,4.39-1.464,6.4.732.915,1.829-.915,2.744-1.646V67.27c2.012-.366,1.28-2.927,2.927-3.659a15.715,15.715,0,0,0,.915,5.854c1.829-1.1,1.646-3.476,2.927-4.939a9.418,9.418,0,0,0,2.378,5.3c1.281-1.281.732-2.927,1.829-4.208.915,1.1.915,2.744,2.012,3.659.732-1.463.549-3.11.732-4.756,1.28.366,1.28,1.829,2.2,2.744.732-1.1.183-2.378.366-3.659a3.34,3.34,0,0,1,1.464,2.378c1.281-.732.183-3.292,1.463-2.378.914.732,1.646,2.2,2.927,2.561-.183-1.829.914-3.476.732-5.305.915.183.915,1.1,1.463,1.463.549-.732-.183-2.2.366-2.378,1.1-.549,1.464,2.012,2.927,2.012,0-1.281-.366-2.927.183-3.841.549-.732,1.829,1.1,2.2.732,1.281-1.463-.549-2.744-1.464-4.39,1.281.549,2.927,1.28,3.842.914.914-.549-.915-1.463-.915-2.561.915,0,2.378.366,2.744-.183.914-1.281-1.464-2.2-2.378-3.293.549,0,1.281.183,1.464-.183.915-.915-.549-1.281-.914-2.378h1.631c-1.413-.908-2.824-1.833-4.215-2.767-3.189-2.142-4.67-6.06-4.692-9.9-.018-3.159-1.106-6.97-5.712-8.735-4.033-1.544-10.964,1.635-14.818,8.781l1.829,12.622s-5.122,5.671-9.512,8.6l-.051.029a6.061,6.061,0,0,0,.417,2.9" transform="translate(-56.947 -16.338)" fill="#8c4d37"/>
    <path id="Trazado_718900" data-name="Trazado 718900" d="M108.182,98.87c-5.122-2.856-13.131-7.461-20.969-12.538l-.773.6c.4,1.049,1.789,1.418.892,2.316-.183.366-.915.183-1.463.183.914,1.1,3.293,2.012,2.378,3.293-.366.549-1.829.183-2.744.183,0,1.1,1.829,2.012.914,2.561-.914.366-2.561-.366-3.841-.914.914,1.646,2.744,2.927,1.463,4.39-.366.366-1.646-1.464-2.2-.732-.549.914-.183,2.561-.183,3.841-1.464,0-1.829-2.561-2.927-2.012-.549.183.183,1.646-.366,2.378-.549-.366-.549-1.28-1.464-1.464.183,1.83-.914,3.476-.732,5.305-1.281-.366-2.012-1.829-2.927-2.561-1.28-.914-.183,1.646-1.464,2.378A3.341,3.341,0,0,0,70.32,103.7c-.183,1.281.366,2.561-.366,3.659-.914-.914-.914-2.378-2.2-2.744-.183,1.646,0,3.293-.732,4.756-1.1-.914-1.1-2.561-2.013-3.659-1.1,1.281-.549,2.927-1.829,4.208a9.418,9.418,0,0,1-2.378-5.3c-1.281,1.463-1.1,3.841-2.927,4.939a15.722,15.722,0,0,1-.914-5.854c-1.646.732-.915,3.293-2.927,3.659v-5.488c-.915.732-2.012,2.561-2.744,1.646-1.28-2.012,1.281-4.024,1.464-6.4-.732.366-1.464,1.646-1.464,1.281a6.056,6.056,0,0,1-.416-2.9c-1.4.813-31.182,18.375-13.852,30.7,0,0-7.134,32.2,31.647,28.354,0,0,11.708,3.659,17.378-.732,0,0,9.7,8.049,25.793,2.012,15.152-5.682,28.143-22.551,12.018-43.525A51.136,51.136,0,0,0,108.182,98.87" transform="translate(-20.67 -56.427)" fill="#c96f4f"/>
    <path id="Trazado_718901" data-name="Trazado 718901" d="M297.448,88.9c-.017-.287-.027-.574-.034-.861a2.9,2.9,0,0,0,.034.861" transform="translate(-194.382 -57.546)" fill="#c96f4f"/>
    <path id="Trazado_718902" data-name="Trazado 718902" d="M249.387,57.562a4.392,4.392,0,0,1,.059-1.238,2.448,2.448,0,0,0-.059,1.238" transform="translate(-162.967 -36.814)" fill="#c96f4f"/>
    <path id="Trazado_718903" data-name="Trazado 718903" d="M300.118,107.02c-.01-.167-.023-.331-.035-.5a2.7,2.7,0,0,0,.035.5" transform="translate(-196.137 -69.625)" fill="#c96f4f"/>
    <path id="Trazado_718904" data-name="Trazado 718904" d="M280.049,206.108s6.108-6.084-2.274-3.559a58.6,58.6,0,0,1-17.952-.051c.177.092.353.187.528.285-.641.748-1.875.361-2.1,1.511a46.451,46.451,0,0,0,7.461.847c-1.245.335-2.593.244-3.845.633,1.123-.2,2.293.336,3.451.193l-.811.424c.03,1.636,2.214.287,3.209,1.005l-1.945,1.017a4.3,4.3,0,0,1,3.017-.546c-1.212.84-3.01.955-3.8,2.605,1.875-.361,3.673-.476,5.633-.675l-3.242,1.7c1.142-.185,2.439-.863,3.673-.476a22.352,22.352,0,0,1-5.18,3.122,32.185,32.185,0,0,0,4-.237c-.8.833-2.107,1.1-3,1.773.973-.508,1.861-1.179,2.933-.708a12.451,12.451,0,0,1-4.2,3.022,10.658,10.658,0,0,0,3.6-.229c-1.028,1.982-3.227,2.513-4.756,3.932.811-.424,1.629-.439,2.439-.863-1.963,2.338-4.624,3.341-7.1,4.7a16.252,16.252,0,0,0,1.607-.6c-2.366,1.432-4.515,2.932-6.856,4.372a18.677,18.677,0,0,1,2.587-.694l-5.674,2.967a24.368,24.368,0,0,1,3.5-.8c-.868.949-2.377,1.353-3.458,1.893,1.064-.244,2.27-.495,3.433-.786a13.027,13.027,0,0,0,3.616-1.51c10.8-6.587,19.5-13.763,17.541-16.427,0,0,8.021-4.4,3.949-7.845" transform="translate(-164.36 -131.987)" fill="#8c4d37"/>
    <path id="Trazado_718905" data-name="Trazado 718905" d="M140,69.741c.149.227.3.454.475.67a6.7,6.7,0,0,0,.571.6,4.532,4.532,0,0,0,1.45.918,3.387,3.387,0,0,0,1.8.2,4.153,4.153,0,0,0,1.673-.675,7.251,7.251,0,0,0,2.217-2.557,9.621,9.621,0,0,0,1.092-3.087c-.588.917-1.166,1.8-1.793,2.633a9.666,9.666,0,0,1-2.111,2.123,3.267,3.267,0,0,1-2.632.565,8.265,8.265,0,0,1-2.739-1.4" transform="translate(-91.506 -43.019)" fill="#c96f4f"/>
    <path id="Trazado_718906" data-name="Trazado 718906" d="M120.528,42.915c1.593-2.149,6.109-4.653,8.742-5.29a3.588,3.588,0,0,1,3.616,1c.864.829,1.75,2.032,3.1,1.93-1.644.515-2.661,2.057-4.106,2.907a9.2,9.2,0,0,1-5.309,1.012,7.485,7.485,0,0,0,1.28,2.384Z" transform="translate(-78.778 -24.505)" fill="#e34927"/>
    <path id="Trazado_718907" data-name="Trazado 718907" d="M139.025,43.652c-.476.329-1.389-.585-1.389-.585-2.374-2.013-3.875.289-3.875.289a4.359,4.359,0,0,1-1.646,1.278,7.834,7.834,0,0,1,1.973,1.025,2.368,2.368,0,0,0,3.546-.765,4.437,4.437,0,0,1,1.39-1.242" transform="translate(-86.352 -27.61)" fill="#382118"/>
    <path id="Trazado_718908" data-name="Trazado 718908" d="M139.831,44.4a1.146,1.146,0,1,0,1.336,1.092,1.226,1.226,0,0,0-1.336-1.092" transform="translate(-90.572 -29.021)" fill="#f79854"/>
    <path id="Trazado_718909" data-name="Trazado 718909" d="M140.044,46.845a.487.487,0,1,0,.5.47.486.486,0,0,0-.5-.47" transform="translate(-91.226 -30.618)" fill="#382118"/>
    <path id="Trazado_718910" data-name="Trazado 718910" d="M115.337,67.352a17.1,17.1,0,0,1,4.177,7.127,3.934,3.934,0,0,1,.038,2.332,3.174,3.174,0,0,1-2.837,1.862,4.661,4.661,0,0,1-3.3-1.285,5.248,5.248,0,0,1-1.257-1.766c-.581-1.348-.538-2.854-.9-4.265-.279-1.075-.795-2.087-1.083-3.16-.313-1.164-1.07-4.129.621-4.285,1.381-.128,3.8,2.624,4.547,3.441" transform="translate(-71.718 -41.77)" fill="#e34927"/>
    <path id="Trazado_718911" data-name="Trazado 718911" d="M96.99,50.856c-4.15.124-7.05,5.186-7.05,5.186,5.167-.93,7.446-.134,7.446-.134.586-.4,3.118.957,3.118.957a12.5,12.5,0,0,0-2.514-4.087,3.1,3.1,0,0,1-1-1.921" transform="translate(-58.786 -33.24)" fill="#ecc362"/>
    <path id="Trazado_718912" data-name="Trazado 718912" d="M107.587,53.6c.029.162-.168.333-.439.382s-.516-.043-.545-.2.167-.333.439-.382.516.043.545.2" transform="translate(-69.675 -34.894)" fill="#382118"/>
    <path id="Trazado_718913" data-name="Trazado 718913" d="M128.647,240.966a22.458,22.458,0,0,1-2.155-4.508,26.431,26.431,0,0,1-1.49-9.88,22.4,22.4,0,0,1,.733-4.943c-.115,1.66-.17,3.306-.124,4.947a40.559,40.559,0,0,0,1.459,9.693c.44,1.582.978,3.139,1.578,4.69" transform="translate(-81.687 -144.863)" fill="#8c4d37"/>
    <path id="Trazado_718914" data-name="Trazado 718914" d="M138.841,169.247a1.745,1.745,0,0,0,.488.68,2.3,2.3,0,0,0,.705.4,2.706,2.706,0,0,0,1.565.07,5.306,5.306,0,0,0,1.49-.625c.118-.072.237-.143.354-.218s.24-.162.4-.245a1.185,1.185,0,0,1,.614-.144,1.077,1.077,0,0,1,.61.258c.144.118.243.238.332.316a2.15,2.15,0,0,0,.289.23,2.618,2.618,0,0,0,.677.329,2.851,2.851,0,0,0,1.519.07,2.61,2.61,0,0,0,1.334-.8,2.731,2.731,0,0,0,.7-1.5,2.5,2.5,0,0,1-.4,1.728,2.873,2.873,0,0,1-1.464,1.155,3.277,3.277,0,0,1-2.8-.344,2.858,2.858,0,0,1-.392-.3c-.127-.114-.216-.216-.3-.28a.315.315,0,0,0-.17-.088.459.459,0,0,0-.219.06c-.1.046-.212.119-.345.2s-.26.151-.394.221A5.129,5.129,0,0,1,141.7,171a3.155,3.155,0,0,1-.943-.016,2.9,2.9,0,0,1-.884-.311,2.4,2.4,0,0,1-.7-.6,1.6,1.6,0,0,1-.331-.826" transform="translate(-90.748 -109.853)" fill="#8c4d37"/>
    <path id="Trazado_718915" data-name="Trazado 718915" d="M152.276,197.281c.58-.015,1.138.044,1.681.082a12.531,12.531,0,0,0,1.588.041,5.772,5.772,0,0,0,1.507-.275,4.319,4.319,0,0,0,1.406-.768,2.489,2.489,0,0,1-1.149,1.324,3.821,3.821,0,0,1-1.725.5,5.339,5.339,0,0,1-1.737-.218,6.74,6.74,0,0,1-1.572-.683" transform="translate(-99.529 -128.343)" fill="#8c4d37"/>
    <path id="Trazado_718916" data-name="Trazado 718916" d="M85.118,199.84a4.2,4.2,0,0,0,.938,1.316,3.255,3.255,0,0,0,2.747.887,4.219,4.219,0,0,0,1.531-.518,2.49,2.49,0,0,1-1.385,1.113,2.91,2.91,0,0,1-3.358-1.086,2.494,2.494,0,0,1-.473-1.712" transform="translate(-55.623 -130.617)" fill="#8c4d37"/>
    <path id="Trazado_718917" data-name="Trazado 718917" d="M121.376,189.911a4.2,4.2,0,0,0,1.264,1.007,3.257,3.257,0,0,0,2.885.1,4.229,4.229,0,0,0,1.329-.919,2.489,2.489,0,0,1-1.025,1.451,2.91,2.91,0,0,1-3.527-.12,2.494,2.494,0,0,1-.926-1.516" transform="translate(-79.333 -124.128)" fill="#8c4d37"/>
    <path id="Trazado_718918" data-name="Trazado 718918" d="M75.913,167.214a1.508,1.508,0,0,0-.056.861,1.944,1.944,0,0,0,.365.752,2.372,2.372,0,0,0,.605.554,2.137,2.137,0,0,0,.361.174,2.769,2.769,0,0,0,.393.121,3.755,3.755,0,0,0,.829.094,7.643,7.643,0,0,0,.859-.034c.145-.012.291-.027.437-.044l.221-.026c.073-.01.155-.017.2-.026a.855.855,0,0,0,.287-.1c.032-.019.044-.038.038-.031a.08.08,0,0,0-.012.047l.686.186a.554.554,0,0,0-.112.294.923.923,0,0,0,.055.365,1.788,1.788,0,0,0,.887.96,2.892,2.892,0,0,0,.438.193,3.443,3.443,0,0,0,.961.159,3.48,3.48,0,0,0,.993-.117,4.672,4.672,0,0,0,.486-.149l.234-.1.117-.053.111-.064a3.562,3.562,0,0,0,.831-.618l.182-.192c.06-.065.107-.14.161-.211a3.923,3.923,0,0,0,.289-.457,3.084,3.084,0,0,1-.452,1.009,3.538,3.538,0,0,1-.789.811l-.114.087-.122.076c-.081.05-.163.1-.246.149a4.153,4.153,0,0,1-.527.236,4.085,4.085,0,0,1-1.139.241l-.3.009c-.1,0-.2-.014-.3-.021l-.149-.013-.147-.028c-.1-.02-.2-.037-.294-.063a3.626,3.626,0,0,1-.565-.216,2.381,2.381,0,0,1-.534-.328,2.436,2.436,0,0,1-.75-1.029,1.6,1.6,0,0,1-.1-.7,1.333,1.333,0,0,1,.28-.7l.544-.684.142.869a.7.7,0,0,1-.107.478.862.862,0,0,1-.293.269,1.579,1.579,0,0,1-.564.184c-.1.013-.168.017-.245.024l-.228.016c-.152.01-.306.019-.461.025a5.3,5.3,0,0,1-1.888-.221,3.177,3.177,0,0,1-.453-.187c-.073-.034-.145-.084-.217-.126s-.136-.1-.2-.147a2.519,2.519,0,0,1-.625-.748,2.035,2.035,0,0,1-.266-.918,1.449,1.449,0,0,1,.252-.885" transform="translate(-49.452 -109.293)" fill="#8c4d37"/>
    <path id="Trazado_718919" data-name="Trazado 718919" d="M46.927,156.765a.156.156,0,0,1-.156-.156c0-6.751,3.4-12.841,6.25-16.761a44.439,44.439,0,0,1,6.244-6.956.156.156,0,1,1,.2.237,44.142,44.142,0,0,0-6.2,6.908c-2.821,3.881-6.185,9.907-6.185,16.572a.156.156,0,0,1-.156.156" transform="translate(-30.57 -86.836)" fill="#382118"/>
    <path id="Trazado_718920" data-name="Trazado 718920" d="M218.468,240.012q-.843,0-1.762-.092a21,21,0,0,1-12.125-5.18,15.9,15.9,0,0,1-5.272-11.927.156.156,0,0,1,.156-.151h0a.156.156,0,0,1,.151.161,15.587,15.587,0,0,0,5.171,11.688,20.691,20.691,0,0,0,11.945,5.1c3.25.324,5.76-.227,7.461-1.638a.156.156,0,0,1,.2.24,9.029,9.029,0,0,1-5.928,1.8" transform="translate(-130.266 -145.534)" fill="#382118"/>
    <path id="Trazado_718921" data-name="Trazado 718921" d="M248.074,240.039a14.465,14.465,0,0,1-10.8-4.416.156.156,0,0,1,.233-.207c3.446,3.878,9.818,5.342,15.5,3.561a.156.156,0,1,1,.094.3,16.814,16.814,0,0,1-5.025.765" transform="translate(-155.061 -153.836)" fill="#382118"/>
    <path id="Trazado_718922" data-name="Trazado 718922" d="M263.344,26.111a.156.156,0,0,1-.142-.22c.364-.807.71-1.657,1.031-2.526A50.491,50.491,0,0,0,267.067,9.95a.154.154,0,0,1,.168-.143.156.156,0,0,1,.143.168,50.808,50.808,0,0,1-2.852,13.5c-.323.876-.673,1.733-1.039,2.547a.156.156,0,0,1-.142.092" transform="translate(-172.022 -6.41)" fill="#382118"/>
    <path id="Trazado_718923" data-name="Trazado 718923" d="M287.943,43.723l-.024,0a.156.156,0,0,1-.13-.178,66.248,66.248,0,0,0,.49-10.641c-.006-.781-.011-1.563-.011-2.345a.156.156,0,0,1,.312,0c0,.781.006,1.562.011,2.342a66.508,66.508,0,0,1-.494,10.692.156.156,0,0,1-.154.132" transform="translate(-188.1 -19.871)" fill="#382118"/>
    <path id="Trazado_718924" data-name="Trazado 718924" d="M83.178,270.881a3.994,3.994,0,0,1-.589,1.229,3.158,3.158,0,0,1-2.13.988,22.742,22.742,0,0,0-2.394.245c-.27.062-.6.273-.5.531.079.2.356.221.574.2l3.633-.283a1.837,1.837,0,0,0-1.058,1.047c-.047.123-.073.282.025.37a.344.344,0,0,0,.32.027c1.246-.34,2.228-1.557,3.519-1.508a4.273,4.273,0,0,1,.965.2,17.144,17.144,0,0,0,3.624.59c.174-.265-.21-.54-.514-.629l-1.453-.422a4.534,4.534,0,0,1-1.31-.534,3.493,3.493,0,0,1-1.23-3.075c.042-1.152.367-2.283.377-3.436a.864.864,0,0,0-.066-.4.716.716,0,0,0-1.017-.137c-.3.315-.007,1.022,0,1.417a10.639,10.639,0,0,1-.777,3.58" transform="translate(-50.687 -173.684)" fill="#f08f4a"/>
    <path id="Trazado_718925" data-name="Trazado 718925" d="M86.174,291.92l-.27.642.81-.214Z" transform="translate(-56.148 -190.802)" fill="#a6513c"/>
    <path id="Trazado_718926" data-name="Trazado 718926" d="M110.54,290.142a.76.76,0,0,1,.814.325H110.7Z" transform="translate(-72.25 -189.618)" fill="#a6513c"/>
    <path id="Trazado_718927" data-name="Trazado 718927" d="M76.753,288.154c-.488-.325-.976.325-.976.325h.976Z" transform="translate(-49.529 -188.281)" fill="#a6513c"/>
    <path id="Trazado_718928" data-name="Trazado 718928" d="M100.056,205.831c-1.646-7.683-6.129-10.07-9.513-8.781-3.841,1.464-4.39,4.39-4.39,4.39l.366,2.927a2.715,2.715,0,0,0,.915,1.281c-10.976,12.622-3.476,14.086-3.476,14.086,10.244,12.44,19.391,1.464,19.391,1.464,4.585-1.459,3.6-7.5,1.281-11.342a10.421,10.421,0,0,0-4.573-4.024" transform="translate(-53.241 -128.577)" fill="#f2cc5a"/>
    <path id="Trazado_718929" data-name="Trazado 718929" d="M104.761,210.564a1.23,1.23,0,1,0,.886-1.21,1.08,1.08,0,0,0-.886,1.21" transform="translate(-68.454 -136.796)" fill="#fff2d4"/>
    <path id="Trazado_718930" data-name="Trazado 718930" d="M107.147,210.729a.6.6,0,0,0-.133-.327c0,.153-.083.308-.244.3-.256-.007-.291-.407-.126-.55a1.012,1.012,0,0,0-.442-.04.883.883,0,0,0-.834.847.776.776,0,0,0,.946.614.882.882,0,0,0,.834-.847" transform="translate(-68.868 -137.327)" fill="#382118"/>
    <path id="Trazado_718931" data-name="Trazado 718931" d="M136.667,249.033a.159.159,0,0,1-.064-.014c-6.093-2.77-3.947-9.633-3.925-9.7a.156.156,0,0,1,.3.1,10.037,10.037,0,0,0-.335,3.674,6.6,6.6,0,0,0,4.093,5.649.156.156,0,0,1-.065.3" transform="translate(-86.468 -156.349)" fill="#382118"/>
    <path id="Trazado_718932" data-name="Trazado 718932" d="M88.279,247.569a.156.156,0,0,1-.152-.123c-.918-4.223,1.643-8.13,1.669-8.169a.156.156,0,0,1,.259.173c-.025.038-2.513,3.838-1.624,7.929a.156.156,0,0,1-.152.189" transform="translate(-57.471 -156.349)" fill="#382118"/>
    <path id="Trazado_718933" data-name="Trazado 718933" d="M129.312,224.45a.156.156,0,0,1-.062-.3,4.6,4.6,0,0,0,1.938-1.763.156.156,0,1,1,.271.154,4.834,4.834,0,0,1-2.086,1.9.16.16,0,0,1-.061.012" transform="translate(-84.418 -145.303)" fill="#382118"/>
    <path id="Trazado_718934" data-name="Trazado 718934" d="M100.714,224.429a4.094,4.094,0,0,1-2.671-1.326.156.156,0,0,1,.221-.22,3.836,3.836,0,0,0,2.451,1.235.156.156,0,0,1,0,.312" transform="translate(-64.052 -145.648)" fill="#382118"/>
    <path id="Trazado_718935" data-name="Trazado 718935" d="M90.6,210.634c-1.7-.02-3.237,2.457-3.237,2.457a22.266,22.266,0,0,1,4.332.562,8.841,8.841,0,0,0-.71-1.693,2.431,2.431,0,0,1-.384-1.327" transform="translate(-57.099 -137.672)" fill="#f08f4a"/>
    <path id="Trazado_718936" data-name="Trazado 718936" d="M94.66,212.579c.011.073-.07.147-.182.163s-.211-.028-.223-.1.071-.146.182-.163.212.029.223.1" transform="translate(-61.605 -138.875)" fill="#382118"/>
    <path id="Trazado_718937" data-name="Trazado 718937" d="M119.09,277.218a3.987,3.987,0,0,1-.589,1.229,3.159,3.159,0,0,1-2.13.988,22.761,22.761,0,0,0-2.394.245c-.27.062-.6.273-.5.531.08.2.356.221.574.2l3.633-.283a1.836,1.836,0,0,0-1.058,1.047c-.047.123-.073.282.025.37a.345.345,0,0,0,.32.027c1.246-.34,2.227-1.557,3.518-1.508a4.273,4.273,0,0,1,.965.2,17.145,17.145,0,0,0,3.624.59c.174-.265-.21-.54-.515-.629l-1.453-.421a4.538,4.538,0,0,1-1.311-.534,3.493,3.493,0,0,1-1.23-3.075c.043-1.152.367-2.283.377-3.436a.864.864,0,0,0-.066-.4.715.715,0,0,0-1.016-.137c-.3.315-.007,1.022,0,1.417a10.647,10.647,0,0,1-.777,3.58" transform="translate(-74.159 -177.826)" fill="#f08f4a"/>
    <path id="Trazado_718938" data-name="Trazado 718938" d="M122.086,298.257l-.27.642.81-.214Z" transform="translate(-79.62 -194.944)" fill="#a6513c"/>
    <path id="Trazado_718939" data-name="Trazado 718939" d="M146.451,296.479a.76.76,0,0,1,.814.325h-.651Z" transform="translate(-95.722 -193.76)" fill="#a6513c"/>
    <path id="Trazado_718940" data-name="Trazado 718940" d="M112.665,294.491c-.488-.326-.976.325-.976.325h.976Z" transform="translate(-73.001 -192.422)" fill="#a6513c"/>
    <path id="Trazado_718941" data-name="Trazado 718941" d="M53.6,285.655a19.55,19.55,0,0,0-2.057-.113c-.686-.052-1.456.168-2.188-.564-.276-.276-1.463-1.1-1.646-1.281-1.01-1.01-1.1-.915-1.445-1.685a14,14,0,0,1-1.3.77c.426.441.732.366,1.464,1.1.7.7,1.646.732.464,1.74a3.262,3.262,0,0,1-1.1.51l-1.226.419c-.257.088-.574.339-.414.558a14.664,14.664,0,0,0,3.075-.651,3.68,3.68,0,0,1,.817-.208c1.1-.094,1.99.907,3.07,1.148a.3.3,0,0,0,.273-.036c.08-.079.052-.214.007-.317a1.575,1.575,0,0,0-.947-.853l3.118.1c.187.006.423-.02.483-.2.075-.225-.215-.391-.448-.434" transform="translate(-28.833 -184.326)" fill="#f08f4a"/>
    <path id="Trazado_718942" data-name="Trazado 718942" d="M64.306,296.436l.257.538-.7-.15Z" transform="translate(-41.74 -193.754)" fill="#a6513c"/>
    <path id="Trazado_718943" data-name="Trazado 718943" d="M43.389,295.893a.651.651,0,0,0-.683.311l.557-.026Z" transform="translate(-27.913 -193.385)" fill="#a6513c"/>
    <path id="Trazado_718944" data-name="Trazado 718944" d="M71.915,292.867c.4-.3.848.239.848.239l-.835.04Z" transform="translate(-47.004 -191.362)" fill="#a6513c"/>
    <path id="Trazado_718945" data-name="Trazado 718945" d="M18.322,284.393a5.91,5.91,0,0,0-1.866-.764c-.76-.2-1.82-.316-2.2-1.281a11.148,11.148,0,0,1-1.19-2.96,14.14,14.14,0,0,1-1.5.182c.212.575.117.167.493,1.131.358.92.6,1.05,0,1.829a3.374,3.374,0,0,1-1.1.732,7.061,7.061,0,0,0-1.1.549c-.226.151-.473.407-.415.673,1,.323,1.667-.743,2.712-.64a3.645,3.645,0,0,1,.831.139c1.047.357,1.457,1.631,2.349,2.285a.3.3,0,0,0,.264.077c.105-.04.133-.175.133-.288a4.162,4.162,0,0,0-.935-1.881l2.378.549c.169.081.972.321,1.1.183.159-.175.233-.383.037-.516" transform="translate(-6.174 -182.611)" fill="#f08f4a"/>
    <path id="Trazado_718946" data-name="Trazado 718946" d="M26.879,298.495l.054.616-.419-.433Z" transform="translate(-17.329 -195.099)" fill="#a6513c"/>
    <path id="Trazado_718947" data-name="Trazado 718947" d="M9.5,293.176a.65.65,0,0,0-.4.635l.451-.327Z" transform="translate(-5.946 -191.623)" fill="#a6513c"/>
    <path id="Trazado_718948" data-name="Trazado 718948" d="M33.992,293.915c.49-.11.68.56.68.56l-.78-.3Z" transform="translate(-22.152 -192.098)" fill="#a6513c"/>
    <path id="Trazado_718949" data-name="Trazado 718949" d="M22.264,213.037a3.479,3.479,0,0,1-1.281,3.293c6.768,5.488,1.738,13.516-2.012,15.732C6.9,239.2,2.141,229.135,2.141,229.135c-3.841-.366-1.955-7.284,1.281-11.342a11.666,11.666,0,0,1,5.3-3.659c.366-4.025,2.783-6.861,4.573-7.5,7.683-2.744,8.964,3.659,8.964,3.659Z" transform="translate(0 -134.611)" fill="#f2cc5a"/>
    <path id="Trazado_718950" data-name="Trazado 718950" d="M48.282,219.291a1.23,1.23,0,1,0,1.236-.851,1.08,1.08,0,0,0-1.236.851" transform="translate(-31.557 -142.773)" fill="#fff2d4"/>
    <path id="Trazado_718951" data-name="Trazado 718951" d="M49.258,219.518a.6.6,0,0,1,.092-.34c.02.152.12.3.278.271.253-.038.24-.44.059-.562a1.015,1.015,0,0,1,.434-.094.882.882,0,0,1,.931.739.776.776,0,0,1-.864.724.882.882,0,0,1-.931-.739" transform="translate(-32.195 -143.006)" fill="#382118"/>
    <path id="Trazado_718952" data-name="Trazado 718952" d="M6.151,255.221a.156.156,0,0,1-.029-.309c4.591-.883,5.718-8.933,5.729-9.014a.156.156,0,0,1,.309.041c-.045.34-1.168,8.354-5.979,9.279l-.029,0" transform="translate(-3.918 -160.633)" fill="#382118"/>
    <path id="Trazado_718953" data-name="Trazado 718953" d="M53.906,236.439a1.832,1.832,0,0,1-.247-.014.156.156,0,0,1,.044-.309,2.874,2.874,0,0,0,2.246-.87.156.156,0,0,1,.22.22,3.206,3.206,0,0,1-2.263.973" transform="translate(-34.985 -153.729)" fill="#382118"/>
    <path id="Trazado_718954" data-name="Trazado 718954" d="M26.26,231a.153.153,0,0,1-.086-.026,2.652,2.652,0,0,1-1.167-1.959.156.156,0,1,1,.312,0,2.372,2.372,0,0,0,1.028,1.7.156.156,0,0,1-.087.285" transform="translate(-16.345 -149.587)" fill="#382118"/>
    <path id="Trazado_718955" data-name="Trazado 718955" d="M62.152,218.451c1.7-.111,3.379,2.2,3.379,2.2a22.793,22.793,0,0,0-4.284.776,8.309,8.309,0,0,1,.6-1.672,2.278,2.278,0,0,0,.3-1.3" transform="translate(-40.032 -142.779)" fill="#f08f4a"/>
    <path id="Trazado_718956" data-name="Trazado 718956" d="M65.266,220.248c-.007.071.079.138.192.148s.209-.039.215-.11-.079-.138-.192-.148-.209.039-.216.11" transform="translate(-42.658 -143.883)" fill="#382118"/>
    <path id="Trazado_718957" data-name="Trazado 718957" d="M157.076,280.407c-.134.389-.725.531-1.054.778a3.889,3.889,0,0,1-2.128.673,20.509,20.509,0,0,0-2.158.221c-.243.056-.54.246-.45.479.071.184.321.2.518.184l3.275-.255a1.657,1.657,0,0,0-.954.944c-.043.111-.066.254.023.333a.311.311,0,0,0,.288.024c1.124-.307,2.008-1.4,3.172-1.36a3.86,3.86,0,0,1,.87.177,15.463,15.463,0,0,0,3.267.532c.157-.239-.189-.487-.463-.567l-1.31-.38a4.083,4.083,0,0,1-1.181-.481c-.86-.584-.415-1.184-.377-2.223s.331-2.058.34-3.1a.778.778,0,0,0-.059-.362.645.645,0,0,0-.917-.124c-.266.284-.115.9-.109,1.257a9.572,9.572,0,0,1-.592,3.247" transform="translate(-98.872 -180.242)" fill="#f08f4a"/>
    <path id="Trazado_718958" data-name="Trazado 718958" d="M159.046,297.788l-.244.579.731-.193Z" transform="translate(-103.795 -194.637)" fill="#a6513c"/>
    <path id="Trazado_718959" data-name="Trazado 718959" d="M181.01,296.187a.685.685,0,0,1,.733.293h-.586Z" transform="translate(-118.31 -193.571)" fill="#a6513c"/>
    <path id="Trazado_718960" data-name="Trazado 718960" d="M150.553,294.394c-.44-.293-.88.293-.88.293h.88Z" transform="translate(-97.828 -192.365)" fill="#a6513c"/>
    <path id="Trazado_718961" data-name="Trazado 718961" d="M190.765,279.193c-.042.409-.585.682-.85,1A3.887,3.887,0,0,1,188,281.329a20.534,20.534,0,0,0-2.051.706c-.224.11-.47.362-.329.568.111.162.358.121.546.062l3.131-.993a1.656,1.656,0,0,0-.714,1.136c-.016.117-.007.262.1.319a.31.31,0,0,0,.286-.042c1.024-.554,1.636-1.823,2.779-2.046a3.854,3.854,0,0,1,.887-.025,15.422,15.422,0,0,0,3.3-.225c.1-.268-.295-.432-.581-.447l-1.362-.072a4.084,4.084,0,0,1-1.26-.2c-.97-.373-.674-1.059-.873-2.079s-.146-2.079-.374-3.094a.774.774,0,0,0-.14-.34.644.644,0,0,0-.92.088c-.194.337.094.9.18,1.249a9.588,9.588,0,0,1,.162,3.3" transform="translate(-121.294 -179.354)" fill="#f08f4a"/>
    <path id="Trazado_718962" data-name="Trazado 718962" d="M194.018,298.562l-.105.619.667-.354Z" transform="translate(-126.743 -195.143)" fill="#a6513c"/>
    <path id="Trazado_718963" data-name="Trazado 718963" d="M214.8,292.006a.685.685,0,0,1,.781.119l-.572.133Z" transform="translate(-140.399 -190.803)" fill="#a6513c"/>
    <path id="Trazado_718964" data-name="Trazado 718964" d="M184.888,297.006c-.5-.186-.79.486-.79.486l.857-.2Z" transform="translate(-120.328 -194.105)" fill="#a6513c"/>
    <path id="Trazado_718965" data-name="Trazado 718965" d="M162.544,204.209c.549-3.841-2.836-9.421-7.866-6.22-5.974,3.8-.549,9.33-.549,9.33a5.032,5.032,0,0,0-.416,5.265,11.015,11.015,0,0,1,1.239,5.054,17.515,17.515,0,0,1-.091,1.754,6.893,6.893,0,0,0,1.627,4.393,5.542,5.542,0,0,1,1.126,1.733,4.008,4.008,0,0,0,.722,1.192,2.708,2.708,0,0,0,2.744-1.463c.549-.915,2.2,0,2.2,0a19.051,19.051,0,0,0,5.4,1.006c.659-.034,1.464-.183,1.227-1.488l.328-1.53c.732-9.7-4.391-12.073-4.391-12.073-3.11-4.573-3.293-6.951-3.293-6.951" transform="translate(-99.265 -128.785)" fill="#f2cc5a"/>
    <path id="Trazado_718966" data-name="Trazado 718966" d="M158.628,210.564a1.23,1.23,0,1,0,.886-1.21,1.08,1.08,0,0,0-.886,1.21" transform="translate(-103.662 -136.796)" fill="#fff2d4"/>
    <path id="Trazado_718967" data-name="Trazado 718967" d="M161.014,210.729a.6.6,0,0,0-.133-.327c0,.153-.083.308-.244.3-.256-.007-.291-.407-.126-.55a1.012,1.012,0,0,0-.442-.04.883.883,0,0,0-.834.847.776.776,0,0,0,.946.614.882.882,0,0,0,.834-.847" transform="translate(-104.076 -137.327)" fill="#382118"/>
    <path id="Trazado_718968" data-name="Trazado 718968" d="M160.187,227.049l-.022,0a4.078,4.078,0,0,1-1.917-.776.156.156,0,0,1,.22-.22,3.86,3.86,0,0,0,1.741.688.156.156,0,0,1-.022.31" transform="translate(-103.402 -147.72)" fill="#382118"/>
    <path id="Trazado_718969" data-name="Trazado 718969" d="M146.488,213.647c-1.685.069-3.2,2.227-3.2,2.227a25.3,25.3,0,0,1,4.283.255,6.5,6.5,0,0,0-.7-1.387c-.36-.277-.379-1.1-.379-1.1" transform="translate(-93.653 -139.642)" fill="#f08f4a"/>
    <path id="Trazado_718970" data-name="Trazado 718970" d="M150.508,215.361c.011.061-.07.126-.18.147s-.209-.014-.22-.074.07-.126.18-.147.209.014.22.074" transform="translate(-98.111 -140.709)" fill="#382118"/>
    <path id="Trazado_718971" data-name="Trazado 718971" d="M182.081,181.627c-25.793,31.83,4.545,38.5,4.545,38.5Z" transform="translate(-112.217 -118.713)" fill="#c96f4f"/>
    <path id="Trazado_718972" data-name="Trazado 718972" d="M183.159,220.29a.159.159,0,0,1-.049-.008c-.088-.029-8.8-2.975-11.231-11.172-2.1-7.086.974-15.842,9.146-26.025a.156.156,0,1,1,.243.2c-8.1,10.1-11.162,18.757-9.091,25.739,2.385,8.04,10.945,10.94,11.031,10.968a.156.156,0,0,1-.049.3" transform="translate(-111.922 -119.628)" fill="#382118"/>
  </g>
</svg>
