<svg xmlns="http://www.w3.org/2000/svg" xmlns:xlink="http://www.w3.org/1999/xlink" width="829.011" height="543.539" viewBox="0 0 829.011 543.539">
  <defs>
    <clipPath id="clip-path">
      <rect id="Rectángulo_344494" data-name="Rectángulo 344494" width="307.18" height="429.443" fill="none"/>
    </clipPath>
    <clipPath id="clip-path-2">
      <path id="Trazado_718987" data-name="Trazado 718987" d="M159.085,0C78.383.329,11.6,129.522,1.018,236.852Q0,247.158,0,257.179v.457C.112,358.42,74.365,435.1,153.407,429.115c99.821-7.552,141.642-50.816,152.581-161.621S251.2,8.844,166.978.38Q163.316.014,159.69,0Z" fill="none"/>
    </clipPath>
    <radialGradient id="radial-gradient" cx="0.307" cy="0.402" r="0.586" gradientTransform="matrix(1.373, 0, 0, -1.009, 0, 1.983)" gradientUnits="objectBoundingBox">
      <stop offset="0" stop-color="#da6c31"/>
      <stop offset="0.112" stop-color="#da6c31"/>
      <stop offset="0.517" stop-color="#c56434"/>
      <stop offset="0.6" stop-color="#bf6032"/>
      <stop offset="0.71" stop-color="#ae552f"/>
      <stop offset="0.835" stop-color="#934329"/>
      <stop offset="0.97" stop-color="#6d2a21"/>
      <stop offset="1" stop-color="#64241f"/>
    </radialGradient>
    <clipPath id="clip-path-4">
      <rect id="Rectángulo_344492" data-name="Rectángulo 344492" width="238.978" height="319.379" fill="none"/>
    </clipPath>
    <clipPath id="clip-path-5">
      <path id="Trazado_718988" data-name="Trazado 718988" d="M246.463,220.02c-16.066,84.208-81.929,113.338-145.918,100.9S-1.353,259.195,14.719,175,94.387-7.071,158.376,5.364c64.005,12.444,104.157,130.457,88.086,214.656" transform="translate(-11.031 -4.289)" fill="none"/>
    </clipPath>
    <radialGradient id="radial-gradient-2" cx="0.313" cy="0.319" r="0.598" gradientTransform="matrix(1.29, 0, 0, -1.009, 0.002, 2.569)" gradientUnits="objectBoundingBox">
      <stop offset="0" stop-color="#fff"/>
      <stop offset="0.024" stop-color="#f0f0f0"/>
      <stop offset="0.134" stop-color="#b1b1b1"/>
      <stop offset="0.242" stop-color="#7b7b7b"/>
      <stop offset="0.347" stop-color="#4f4f4f"/>
      <stop offset="0.447" stop-color="#2c2c2c"/>
      <stop offset="0.541" stop-color="#141414"/>
      <stop offset="0.627" stop-color="#050505"/>
      <stop offset="0.699"/>
      <stop offset="1"/>
    </radialGradient>
    <clipPath id="clip-path-6">
      <rect id="Rectángulo_344515" data-name="Rectángulo 344515" width="335.757" height="465.168" fill="none"/>
    </clipPath>
    <clipPath id="clip-path-7">
      <path id="Trazado_718989" data-name="Trazado 718989" d="M1.114,256.554C-10.422,372.3,69.417,464.929,157.853,465.168h.694c3.03-.008,6.084-.125,9.129-.355,109.114-8.186,154.824-55.048,166.777-175.07.858-8.616,1.285-17.436,1.3-26.394v-1.195C335.523,146.555,267.665,8.893,182.509.413Q178.338,0,174.216,0C85.859.007,12.7,140.151,1.114,256.554" transform="translate(0 0)" fill="none"/>
    </clipPath>
    <radialGradient id="radial-gradient-3" cx="0.112" cy="-0.083" r="1.22" gradientTransform="matrix(1.344, 0, 0, -1, -0.01, 2)" gradientUnits="objectBoundingBox">
      <stop offset="0" stop-color="#da6c31"/>
      <stop offset="0.112" stop-color="#da6c31"/>
      <stop offset="0.588" stop-color="#c56434"/>
      <stop offset="1" stop-color="#95472e"/>
    </radialGradient>
    <clipPath id="clip-path-9">
      <rect id="Rectángulo_344496" data-name="Rectángulo 344496" width="298.326" height="360.327" fill="none"/>
    </clipPath>
    <clipPath id="clip-path-10">
      <rect id="Rectángulo_344498" data-name="Rectángulo 344498" width="50.278" height="364.115" fill="none"/>
    </clipPath>
    <clipPath id="clip-path-11">
      <path id="Trazado_718992" data-name="Trazado 718992" d="M148.481,279.861c-5.371-9.986-6.741-19.119-5.154-30.356,2.477-17.492-1.634-31.05-4.739-47.97-.278-1.513-.561-5.865-.833-10.9a2.312,2.312,0,0,1-.321-.651c-2.852-10.95-6.851-20.309-2.336-31.326,5.849-14.255-3.923-13.018-7.008-21.968-.632-1.85.166-4.895.974-6.513,3.693-7.454,3.533-10.355,1.315-17.855-3.777-12.76,7.182-25.407,1.533-37.944-2.74-6.079-9.752-9.7-8.679-17.282.9-6.35,4.162-11.938,6.639-17.747a38.635,38.635,0,0,0,2.914-9.213c.473-3.076-.024-6.312,1.792-9.042a16.11,16.11,0,0,1,9.115-6.191c-.682-.117-1.363-.248-2.053-.316a73.336,73.336,0,0,0-26.84,2.355c3.669,2.993,8.083,4.272,9.028,9.626,1.5,8.512-4.517,15.851-7.991,23.052-4.955,10.274,4.663,16.67,8.395,25.112,1.562,3.535,1.844,8.649-.043,12.128-5.28,9.713,1.109,17.013,1.118,26.261.01,4.782-4.569,7.669-6.4,11.562-3.917,8.328,6.881,10.492,6.819,17.29-.045,4.775-3.032,12.795-1.533,16.731,1.362,3.587,2.228,5.432,3.288,8.819,2.483,7.943-2.657,16.034.648,24.454,6.788,17.282-6.449,31.871,1.825,48.827a2.6,2.6,0,0,1-1.6,3.61c.622,2.39,1.348,4.818,2.258,7.553,2.029,6.079,3.51,12.7,1.256,18.989-2.224,6.211-5.027,10.712-2.911,17.784.57,1.907,1.577,4.383,1.612,6.457.154,8.574-10.878,23.024-1.509,28.182a2.521,2.521,0,0,1,0,4.3c-1.811,1.26-15.4,10.8-8.5,14.682a29.785,29.785,0,0,1,6.924,5.076c2.662,2.647,4.375,8.327,2.608,11.865-2.711,5.421-6.934,7.606-12.843,8.5-5.937.889-12.16-2.08-16.357,5.586-.15.271-.345,4.54-.544,4.928,4.287.113,10.175-.174,14.551-.218.043-.115-1.451-3.888-1.4-3.995,1.28-2.707,5.426-3.223,7.82-3.635,6.239-1.067,14.065.1,19.631-3.4,10.786-6.8,4.6-10.814-.8-16.937-3.738-4.243-4.823-10.019-.214-13.81,2.618-2.15,6.229-2.569,8.955-4.525,3.96-2.843-2.565-8.527-3.889-11.647-5.951-14.03,11.486-25.418,3.479-40.291" transform="translate(-100.346 -14.232)" fill="none"/>
    </clipPath>
    <radialGradient id="radial-gradient-4" cx="0.526" cy="0.718" r="0.683" gradientTransform="matrix(6.497, 0, 0, -1, 13.668, 2.445)" gradientUnits="objectBoundingBox">
      <stop offset="0" stop-color="#9fa898"/>
      <stop offset="0.334" stop-color="#dbded8"/>
      <stop offset="0.553" stop-color="#fff"/>
      <stop offset="0.602" stop-color="#f9fbfc"/>
      <stop offset="0.666" stop-color="#e8f0f6"/>
      <stop offset="0.738" stop-color="#cdddec"/>
      <stop offset="0.816" stop-color="#a8c4de"/>
      <stop offset="0.828" stop-color="#a2c0dc"/>
      <stop offset="1" stop-color="#a2c0dc"/>
    </radialGradient>
    <clipPath id="clip-path-12">
      <rect id="Rectángulo_344499" data-name="Rectángulo 344499" width="47.134" height="364.051" fill="none"/>
    </clipPath>
    <clipPath id="clip-path-13">
      <rect id="Rectángulo_344501" data-name="Rectángulo 344501" width="212.329" height="212.333" fill="none"/>
    </clipPath>
    <clipPath id="clip-path-14">
      <path id="Trazado_718995" data-name="Trazado 718995" d="M260.164,210.992A106.164,106.164,0,1,1,154,104.823,106.169,106.169,0,0,1,260.164,210.992" transform="translate(-47.836 -104.823)" fill="none"/>
    </clipPath>
    <radialGradient id="radial-gradient-5" cx="0.479" cy="0.293" r="0.735" gradientTransform="matrix(1, 0, 0, -1, 0, 3.008)" xlink:href="#radial-gradient-4"/>
    <clipPath id="clip-path-15">
      <path id="Trazado_718996" data-name="Trazado 718996" d="M53.381,208.513a98.451,98.451,0,1,0,98.45-98.449,98.448,98.448,0,0,0-98.45,98.449" transform="translate(-53.381 -110.064)" fill="#ffc403"/>
    </clipPath>
    <clipPath id="clip-path-17">
      <rect id="Rectángulo_344505" data-name="Rectángulo 344505" width="161.928" height="100.957" fill="none"/>
    </clipPath>
    <clipPath id="clip-path-18">
      <path id="Trazado_718997" data-name="Trazado 718997" d="M71.81,214.507c22.767-1.928,35.215-25.244,53.751-35.785a120.19,120.19,0,0,1,60.424-15.9c8.88.111,16.184,2.121,24.813,3.59,11.825,2.016,13.788-3.329,12.473-10.107A86.656,86.656,0,0,0,62.665,212.783a14.943,14.943,0,0,0,9.145,1.723" transform="translate(-61.697 -113.632)" fill="none"/>
    </clipPath>
    <linearGradient id="linear-gradient" x1="-0.396" y1="2.235" x2="-0.389" y2="2.235" gradientUnits="objectBoundingBox">
      <stop offset="0" stop-color="#fff"/>
      <stop offset="0.562" stop-color="#fff"/>
      <stop offset="1" stop-color="#141213"/>
    </linearGradient>
    <clipPath id="clip-path-19">
      <rect id="Rectángulo_344506" data-name="Rectángulo 344506" width="19.428" height="23.54" fill="#aa8200"/>
    </clipPath>
    <clipPath id="clip-path-20">
      <path id="Trazado_719000" data-name="Trazado 719000" d="M40.617,283.847c8.4,18.3,26.027,32.138,43.507,40.975,29.477,14.9,63.5,19.087,95.842,12.854,18.62-3.589,39.813-9.5,56.6-18.493,8.448-4.53,26.536-15.355,18.6-27.253-3.75-5.621-13.445-8.532-19.655-9.836-5.3-1.109-10.62-2.413-15.934-3.377a267.113,267.113,0,0,0-57.713-3.795q-7.662.29-15.245.953c-14.362,1.255-71.2.462-85.238-.677-1.808-.146-5.442-.552-9.225-.552-7.267,0-15.08,1.5-11.54,9.2" transform="translate(-39.738 -274.645)" fill="none"/>
    </clipPath>
    <radialGradient id="radial-gradient-6" cx="0.482" cy="-0.7" r="1.867" gradientTransform="matrix(0.308, 0, 0, -1, -0.161, 2.398)" gradientUnits="objectBoundingBox">
      <stop offset="0" stop-color="#9fa898"/>
      <stop offset="0.334" stop-color="#dbded8"/>
      <stop offset="0.553" stop-color="#fff"/>
      <stop offset="0.63" stop-color="#faf9fa"/>
      <stop offset="0.731" stop-color="#ede8ee"/>
      <stop offset="0.81" stop-color="#dfd7e2"/>
      <stop offset="0.999" stop-color="#b4a1b8"/>
      <stop offset="1" stop-color="#b4a1b8"/>
    </radialGradient>
    <clipPath id="clip-path-22">
      <rect id="Rectángulo_344511" data-name="Rectángulo 344511" width="174.588" height="19.416" fill="none"/>
    </clipPath>
    <clipPath id="clip-path-23">
      <path id="Trazado_719001" data-name="Trazado 719001" d="M77.162,287.305c20.43,6.745,43.436,12.575,65.091,11.022,27.623-1.985,60.238-16.589,88.941-11.251-.793-.2-1.562-.371-2.277-.522-5.3-1.11-10.62-2.413-15.934-3.377a267.191,267.191,0,0,0-57.712-3.795q-7.664.29-15.247.953c-13.836,1.212-66.994.516-83.418-.555,6.671,2.074,13.377,5.15,20.555,7.524" transform="translate(-56.607 -279.165)" fill="none"/>
    </clipPath>
    <linearGradient id="linear-gradient-2" x1="-0.445" y1="2.389" x2="-0.437" y2="2.389" xlink:href="#linear-gradient"/>
    <clipPath id="clip-path-24">
      <rect id="Rectángulo_344513" data-name="Rectángulo 344513" width="210.328" height="46.268" fill="none"/>
    </clipPath>
    <clipPath id="clip-path-25">
      <path id="Trazado_719002" data-name="Trazado 719002" d="M210.24,316.786a209.975,209.975,0,0,1-84.522,6.774c-21.427-2.754-45.263-7.265-62.748-20.917-5.14-4.014-12.541-8.5-18.192-13.942,9.373,13.213,23.375,23.548,37.375,30.625,29.477,14.9,63.5,19.087,95.842,12.854,18.62-3.589,39.815-9.5,56.6-18.493,7.173-3.845,21.234-12.235,20.478-21.96-11.8,12.313-29.964,20.7-44.836,25.059" transform="translate(-44.778 -288.701)" fill="none"/>
    </clipPath>
    <radialGradient id="radial-gradient-7" cx="0.471" cy="-4.651" r="5.853" gradientTransform="matrix(0.236, 0, 0, -1, -0.226, 2.558)" xlink:href="#radial-gradient-4"/>
  </defs>
  <g id="Grupo_983948" data-name="Grupo 983948" transform="translate(-376.967 -1017.5)">
    <g id="Grupo_983700" data-name="Grupo 983700" transform="translate(428.422 1205.015) rotate(-34)">
      <g id="Grupo_983699" data-name="Grupo 983699" clip-path="url(#clip-path)">
        <g id="Grupo_983691" data-name="Grupo 983691">
          <g id="Grupo_983690" data-name="Grupo 983690" clip-path="url(#clip-path-2)">
            <rect id="Rectángulo_344490" data-name="Rectángulo 344490" width="316.926" height="435.1" transform="translate(0)" fill="url(#radial-gradient)"/>
          </g>
        </g>
        <g id="Grupo_983698" data-name="Grupo 983698">
          <g id="Grupo_983697" data-name="Grupo 983697" clip-path="url(#clip-path)">
            <g id="Grupo_983696" data-name="Grupo 983696" transform="translate(14.25 5.54)" style="mix-blend-mode: screen;isolation: isolate">
              <g id="Grupo_983695" data-name="Grupo 983695">
                <g id="Grupo_983694" data-name="Grupo 983694" clip-path="url(#clip-path-4)">
                  <g id="Grupo_983693" data-name="Grupo 983693" transform="translate(0 0)">
                    <g id="Grupo_983692" data-name="Grupo 983692" clip-path="url(#clip-path-5)">
                      <rect id="Rectángulo_344491" data-name="Rectángulo 344491" width="263.887" height="340.429" transform="translate(-12.385 -11.36)" fill="url(#radial-gradient-2)"/>
                    </g>
                  </g>
                </g>
              </g>
            </g>
          </g>
        </g>
      </g>
    </g>
    <g id="Grupo_983751" data-name="Grupo 983751" transform="translate(633.584 1033.242)">
      <g id="Grupo_983750" data-name="Grupo 983750" clip-path="url(#clip-path-6)">
        <g id="Grupo_983702" data-name="Grupo 983702" transform="translate(0 0)">
          <g id="Grupo_983701" data-name="Grupo 983701" clip-path="url(#clip-path-7)">
            <rect id="Rectángulo_344495" data-name="Rectángulo 344495" width="346.178" height="465.168" transform="translate(-10.422 0)" fill="url(#radial-gradient-3)"/>
          </g>
        </g>
        <g id="Grupo_983720" data-name="Grupo 983720">
          <g id="Grupo_983719" data-name="Grupo 983719" clip-path="url(#clip-path-6)">
            <path id="Trazado_718990" data-name="Trazado 718990" d="M318.8,282.8c-11.078,113.755-53.447,158.163-154.569,165.916-85.49,6.56-165.452-83.626-154.36-197.362C20.939,137.592,92.68-.083,177.984,8.6,263.3,17.285,329.877,169.059,318.8,282.8" transform="translate(3.456 3.21)" fill="#d3d3d3"/>
            <g id="Grupo_983705" data-name="Grupo 983705" transform="translate(18.677 19.78)" opacity="0.5" style="mix-blend-mode: screen;isolation: isolate">
              <g id="Grupo_983704" data-name="Grupo 983704">
                <g id="Grupo_983703" data-name="Grupo 983703" clip-path="url(#clip-path-9)">
                  <path id="Trazado_718991" data-name="Trazado 718991" d="M310.594,277.409C299.98,386.443,257.9,371,156.383,374.326,74.245,377.017,3.864,356.281,14.493,247.27,25.1,138.229,93.867,6.273,175.626,14.594,257.4,22.922,321.217,168.4,310.594,277.409" transform="translate(-13.427 -14.22)" fill="#fff"/>
                </g>
              </g>
            </g>
            <g id="Grupo_983710" data-name="Grupo 983710" transform="translate(139.582 19.797)" opacity="0.9" style="mix-blend-mode: screen;isolation: isolate">
              <g id="Grupo_983709" data-name="Grupo 983709">
                <g id="Grupo_983708" data-name="Grupo 983708" clip-path="url(#clip-path-10)">
                  <g id="Grupo_983707" data-name="Grupo 983707" transform="translate(0 0)">
                    <g id="Grupo_983706" data-name="Grupo 983706" clip-path="url(#clip-path-11)">
                      <rect id="Rectángulo_344497" data-name="Rectángulo 344497" width="56.141" height="364.772" transform="translate(0 -0.571)" fill="url(#radial-gradient-4)"/>
                    </g>
                  </g>
                </g>
              </g>
            </g>
            <g id="Grupo_983713" data-name="Grupo 983713" transform="translate(142.726 19.855)" opacity="0.9" style="mix-blend-mode: multiply;isolation: isolate">
              <g id="Grupo_983712" data-name="Grupo 983712">
                <g id="Grupo_983711" data-name="Grupo 983711" clip-path="url(#clip-path-12)">
                  <path id="Trazado_718993" data-name="Trazado 718993" d="M147.6,279.844c-5.371-9.986-6.741-19.119-5.154-30.356,2.477-17.492-1.634-31.05-4.739-47.97-.278-1.512-.561-5.865-.833-10.9a2.275,2.275,0,0,1-.32-.651c-2.853-10.949-6.852-20.309-2.337-31.326,5.849-14.255-3.921-13.018-7.008-21.968-.632-1.85.166-4.895.974-6.511,3.693-7.456,3.533-10.356,1.315-17.855-3.777-12.761,7.182-25.408,1.533-37.945-2.74-6.079-9.752-9.7-8.677-17.282.9-6.35,4.161-11.938,6.638-17.747a38.634,38.634,0,0,0,2.914-9.213c.473-3.076-.024-6.311,1.792-9.042a16.11,16.11,0,0,1,9.115-6.191c-.682-.117-1.363-.248-2.053-.316a69.448,69.448,0,0,0-9.962-.218c-3.091,5.469-5.5,8.715-3.722,16.988.787,3.668-.021,5.709-1.077,9.124-1.42,4.595-5.469,8.012-6.541,12.829-1.874,8.449.9,10.307,4.867,15.49,3.212,4.184,6.19,9.772,4.4,15.315a12.638,12.638,0,0,1-1.237,2.423c-1.157,4.754-3.494,7.836-.861,13.7a9.373,9.373,0,0,1,.7,3.738c0,4.414-1.47,8.58-.3,13.252.545,2.189-.7,5.012-2.248,6.525-4.2,4.094-2.618,4.371-1.2,8.692a3.548,3.548,0,0,1-1.153,4.106,8.139,8.139,0,0,1,2.409,5.417c-.045,4.775-3.032,12.794-1.533,16.731,1.362,3.587,2.228,5.432,3.288,8.819,2.483,7.943-2.657,16.034.648,24.454,6.788,17.282-6.449,31.871,1.825,48.827a2.6,2.6,0,0,1-1.6,3.61c.623,2.39,1.348,4.818,2.258,7.553,2.029,6.079,3.51,12.7,1.256,18.99-2.224,6.209-5.027,10.711-2.911,17.783.57,1.907,1.577,4.383,1.612,6.457.154,8.574-10.878,23.024-1.509,28.182a2.521,2.521,0,0,1,0,4.3c-1.811,1.26-15.4,10.8-8.5,14.682a29.785,29.785,0,0,1,6.924,5.076,12.815,12.815,0,0,1,3.266,7.3c2.71-.113,5.61-.442,7.836.935,3.144,1.94,2.078,6.642-.458,8.549-4.322,3.251-10.722,3.446-15.915,4.084-4.924.608-12.916.277-16.006,4.924a27.639,27.639,0,0,0-2.715,5.111c3.753-.029,8.025-.206,11.408-.239.043-.115-1.451-3.888-1.4-3.995,1.28-2.706,5.426-3.222,7.82-3.635,6.24-1.067,14.065.1,19.631-3.4,10.786-6.8,4.606-10.814-.8-16.937-3.738-4.243-4.823-10.019-.214-13.81,2.618-2.15,6.229-2.569,8.955-4.525,3.962-2.843-2.565-8.527-3.889-11.647-5.951-14.03,11.486-25.418,3.479-40.291" transform="translate(-102.606 -14.274)" fill="#9fa898"/>
                </g>
              </g>
            </g>
            <path id="Trazado_718994" data-name="Trazado 718994" d="M318.8,282.8c-11.078,113.755-53.447,158.163-154.569,165.916-85.49,6.56-165.452-83.626-154.36-197.362C20.939,137.592,92.68-.083,177.984,8.6,263.3,17.285,329.877,169.059,318.8,282.8Z" transform="translate(3.456 3.21)" fill="none" stroke="#fff587" stroke-miterlimit="10" stroke-width="1.791"/>
            <g id="Grupo_983718" data-name="Grupo 983718" transform="translate(66.54 145.81)" opacity="0.8" style="mix-blend-mode: screen;isolation: isolate">
              <g id="Grupo_983717" data-name="Grupo 983717">
                <g id="Grupo_983716" data-name="Grupo 983716" clip-path="url(#clip-path-13)">
                  <g id="Grupo_983715" data-name="Grupo 983715" transform="translate(0.001)">
                    <g id="Grupo_983714" data-name="Grupo 983714" clip-path="url(#clip-path-14)">
                      <rect id="Rectángulo_344500" data-name="Rectángulo 344500" width="212.328" height="212.332" transform="translate(0)" fill="url(#radial-gradient-5)"/>
                    </g>
                  </g>
                </g>
              </g>
            </g>
          </g>
        </g>
        <g id="Grupo_983722" data-name="Grupo 983722" transform="translate(74.254 153.1)">
          <g id="Grupo_983721" data-name="Grupo 983721" clip-path="url(#clip-path-15)">
            <rect id="Rectángulo_344503" data-name="Rectángulo 344503" width="196.902" height="196.899" transform="translate(0 0)" fill="#ffc403"/>
          </g>
        </g>
        <g id="Grupo_983735" data-name="Grupo 983735">
          <g id="Grupo_983734" data-name="Grupo 983734" clip-path="url(#clip-path-6)">
            <g id="Grupo_983727" data-name="Grupo 983727" transform="translate(85.821 158.063)" opacity="0.6" style="mix-blend-mode: screen;isolation: isolate">
              <g id="Grupo_983726" data-name="Grupo 983726">
                <g id="Grupo_983725" data-name="Grupo 983725" clip-path="url(#clip-path-17)">
                  <g id="Grupo_983724" data-name="Grupo 983724" transform="translate(0)">
                    <g id="Grupo_983723" data-name="Grupo 983723" clip-path="url(#clip-path-18)">
                      <rect id="Rectángulo_344504" data-name="Rectángulo 344504" width="186.659" height="147.868" transform="matrix(0.948, -0.319, 0.319, 0.948, -30.589, 10.292)" fill="url(#linear-gradient)"/>
                    </g>
                  </g>
                </g>
              </g>
            </g>
            <g id="Grupo_983730" data-name="Grupo 983730" transform="translate(117.149 285.915)" opacity="0.4" style="mix-blend-mode: multiply;isolation: isolate">
              <g id="Grupo_983729" data-name="Grupo 983729">
                <g id="Grupo_983728" data-name="Grupo 983728" clip-path="url(#clip-path-19)">
                  <path id="Trazado_718998" data-name="Trazado 718998" d="M181.925,229.926c-4.244,6.077-10.348,9.149-13.626,6.862s-2.516-9.076,1.722-15.161,10.346-9.154,13.631-6.866,2.512,9.081-1.726,15.165" transform="translate(-166.259 -214.005)" fill="#aa8200"/>
                </g>
              </g>
            </g>
          </g>
        </g>
        <g id="Grupo_983737" data-name="Grupo 983737" transform="translate(55.275 382.034)">
          <g id="Grupo_983736" data-name="Grupo 983736" clip-path="url(#clip-path-20)">
            <rect id="Rectángulo_344509" data-name="Rectángulo 344509" width="226.028" height="69.723" transform="translate(-2.66 -0.459)" fill="url(#radial-gradient-6)"/>
          </g>
        </g>
        <g id="Grupo_983749" data-name="Grupo 983749">
          <g id="Grupo_983748" data-name="Grupo 983748" clip-path="url(#clip-path-6)">
            <g id="Grupo_983742" data-name="Grupo 983742" transform="translate(78.74 388.321)" style="mix-blend-mode: screen;isolation: isolate">
              <g id="Grupo_983741" data-name="Grupo 983741">
                <g id="Grupo_983740" data-name="Grupo 983740" clip-path="url(#clip-path-22)">
                  <g id="Grupo_983739" data-name="Grupo 983739" transform="translate(0.001 0)">
                    <g id="Grupo_983738" data-name="Grupo 983738" clip-path="url(#clip-path-23)">
                      <rect id="Rectángulo_344510" data-name="Rectángulo 344510" width="175.734" height="35.33" transform="matrix(0.997, -0.081, 0.081, 0.997, -1.717, -0.378)" fill="url(#linear-gradient-2)"/>
                    </g>
                  </g>
                </g>
              </g>
            </g>
            <g id="Grupo_983747" data-name="Grupo 983747" transform="translate(62.287 401.586)" style="mix-blend-mode: multiply;isolation: isolate">
              <g id="Grupo_983746" data-name="Grupo 983746">
                <g id="Grupo_983745" data-name="Grupo 983745" clip-path="url(#clip-path-24)">
                  <g id="Grupo_983744" data-name="Grupo 983744" transform="translate(0 0)">
                    <g id="Grupo_983743" data-name="Grupo 983743" clip-path="url(#clip-path-25)">
                      <rect id="Rectángulo_344512" data-name="Rectángulo 344512" width="211.054" height="49.712" transform="translate(0 0)" fill="url(#radial-gradient-7)"/>
                    </g>
                  </g>
                </g>
              </g>
            </g>
            <path id="Trazado_719003" data-name="Trazado 719003" d="M288.984,246.125c0,66.081-61.085,97.66-132.146,97.66S31.647,312.206,31.647,246.125,89.95,66.974,161.011,66.974,288.984,180.044,288.984,246.125Z" transform="translate(12.374 26.188)" fill="none" stroke="#d3d3d3" stroke-miterlimit="10" stroke-width="10"/>
          </g>
        </g>
      </g>
    </g>
    <circle id="Elipse_5848" data-name="Elipse 5848" cx="7" cy="7" r="7" transform="translate(853 1138)" fill="#06d1d1"/>
    <circle id="Elipse_5850" data-name="Elipse 5850" cx="7" cy="7" r="7" transform="translate(886 1138)" fill="#06d1d1"/>
    <circle id="Elipse_5854" data-name="Elipse 5854" cx="7" cy="7" r="7" transform="translate(858 1363)" fill="#06d1d1"/>
    <circle id="Elipse_5858" data-name="Elipse 5858" cx="7" cy="7" r="7" transform="translate(669 1399)" fill="#06d1d1"/>
    <circle id="Elipse_5859" data-name="Elipse 5859" cx="7" cy="7" r="7" transform="translate(669 1530)" fill="#06d1d1"/>
    <circle id="Elipse_5860" data-name="Elipse 5860" cx="7" cy="7" r="7" transform="translate(741 1325)" fill="#06d1d1"/>
    <circle id="Elipse_5864" data-name="Elipse 5864" cx="7" cy="7" r="7" transform="translate(786 1097)" fill="#06d1d1"/>
    <circle id="Elipse_5862" data-name="Elipse 5862" cx="7" cy="7" r="7" transform="translate(741 1276)" fill="#b20d0d"/>
    <circle id="Elipse_5866" data-name="Elipse 5866" cx="7" cy="7" r="7" transform="translate(741 1049)" fill="#b20d0d"/>
    <circle id="Elipse_5867" data-name="Elipse 5867" cx="7" cy="7" r="7" transform="translate(619 1049)" fill="#b20d0d"/>
    <circle id="Elipse_5861" data-name="Elipse 5861" cx="7" cy="7" r="7" transform="translate(509 1325)" fill="#06d1d1"/>
    <circle id="Elipse_5865" data-name="Elipse 5865" cx="7" cy="7" r="7" transform="translate(535 1097)" fill="#06d1d1"/>
    <circle id="Elipse_5863" data-name="Elipse 5863" cx="7" cy="7" r="7" transform="translate(485 1276)" fill="#b20d0d"/>
    <circle id="Elipse_5856" data-name="Elipse 5856" cx="7" cy="7" r="7" transform="translate(801 1447)" fill="#06d1d1"/>
    <circle id="Elipse_5857" data-name="Elipse 5857" cx="7" cy="7" r="7" transform="translate(957 1447)" fill="#06d1d1"/>
    <circle id="Elipse_5855" data-name="Elipse 5855" cx="7" cy="7" r="7" transform="translate(994 1363)" fill="#06d1d1"/>
    <circle id="Elipse_5852" data-name="Elipse 5852" cx="7" cy="7" r="7" transform="translate(912 1290)" fill="#b20d0d"/>
    <circle id="Elipse_5851" data-name="Elipse 5851" cx="7" cy="7" r="7" transform="translate(963 1138)" fill="#06d1d1"/>
    <circle id="Elipse_5853" data-name="Elipse 5853" cx="7" cy="7" r="7" transform="translate(994 1290)" fill="#b20d0d"/>
    <circle id="Elipse_5849" data-name="Elipse 5849" cx="7" cy="7" r="7" transform="translate(962 1022)" fill="#06d1d1"/>
    <path id="Trazado_719004" data-name="Trazado 719004" d="M2707-10580l108.609-117.911" transform="translate(-1849 11727)" fill="none" stroke="#06d1d1" stroke-width="3"/>
    <path id="Trazado_720628" data-name="Trazado 720628" d="M8.235-2.391H4.008L3.27,0h-3.3L4.667-12.8h2.9L12.3,0H8.982ZM4.746-4.772H7.5L6.117-9.211ZM16.216,0H13.245V-13.5h2.971ZM26.868-4.676A5.8,5.8,0,0,1,25.9-1.081,3.238,3.238,0,0,1,23.177.176,2.81,2.81,0,0,1,20.839-.976L20.716,0H18.062V-13.5h2.962v4.755a2.711,2.711,0,0,1,2.136-.94A3.239,3.239,0,0,1,25.9-8.411a5.826,5.826,0,0,1,.967,3.586ZM23.9-4.865a3.866,3.866,0,0,0-.365-1.952A1.229,1.229,0,0,0,22.412-7.4a1.418,1.418,0,0,0-1.389.763v3.773a1.426,1.426,0,0,0,1.406.755,1.258,1.258,0,0,0,1.327-1.018A7.309,7.309,0,0,0,23.9-4.865Zm9.94,3.836A3.054,3.054,0,0,1,31.3.176a3,3,0,0,1-2.369-.91,3.826,3.826,0,0,1-.8-2.615V-9.51h2.962v6.179a1.065,1.065,0,0,0,1.187,1.222,1.548,1.548,0,0,0,1.45-.729V-9.51H36.7V0H33.926ZM41.124-9.51l.1,1.116a3.27,3.27,0,0,1,2.716-1.292,2.407,2.407,0,0,1,2.435,1.433,3.165,3.165,0,0,1,2.795-1.433q2.892,0,2.971,3.5V0H49.166V-6a1.813,1.813,0,0,0-.246-1.063,1.048,1.048,0,0,0-.9-.334,1.4,1.4,0,0,0-1.31.782l.009.123V0H43.752V-5.985a1.906,1.906,0,0,0-.237-1.081,1.045,1.045,0,0,0-.905-.334,1.42,1.42,0,0,0-1.3.782V0H38.347V-9.51ZM58.43.176a4.889,4.889,0,0,1-3.542-1.305,4.507,4.507,0,0,1-1.354-3.4v-.246a5.84,5.84,0,0,1,.541-2.575,3.955,3.955,0,0,1,1.578-1.727,4.763,4.763,0,0,1,2.461-.611,4.117,4.117,0,0,1,3.164,1.244,4.887,4.887,0,0,1,1.16,3.467v1.151H56.549a2.135,2.135,0,0,0,.694,1.257,2.066,2.066,0,0,0,1.389.457,2.662,2.662,0,0,0,2.2-.984l1.354,1.6A3.784,3.784,0,0,1,60.614-.277,5.3,5.3,0,0,1,58.43.176ZM58.1-7.4q-1.3,0-1.547,1.723h2.988v-.229a1.467,1.467,0,0,0-.36-1.1A1.434,1.434,0,0,0,58.1-7.4ZM66.349-9.51l.1,1.116a3.225,3.225,0,0,1,2.716-1.292A2.713,2.713,0,0,1,71.38-8.8a4.226,4.226,0,0,1,.76,2.672V0H69.17V-6a1.6,1.6,0,0,0-.29-1.059A1.342,1.342,0,0,0,67.825-7.4a1.413,1.413,0,0,0-1.292.686V0H63.571V-9.51Zm11.54,4.685a5.809,5.809,0,0,1,.976-3.56,3.211,3.211,0,0,1,2.725-1.3,2.731,2.731,0,0,1,2.145,1V-13.5H86.7V0H84.041l-.149-1.02a2.8,2.8,0,0,1-2.32,1.2,3.205,3.205,0,0,1-2.689-1.3A5.993,5.993,0,0,1,77.889-4.825Zm2.962.185q0,2.531,1.477,2.531a1.458,1.458,0,0,0,1.406-.826V-6.557A1.419,1.419,0,0,0,82.345-7.4q-1.371,0-1.485,2.215ZM92.988.176a4.889,4.889,0,0,1-3.542-1.305,4.507,4.507,0,0,1-1.354-3.4v-.246a5.84,5.84,0,0,1,.541-2.575,3.955,3.955,0,0,1,1.578-1.727,4.763,4.763,0,0,1,2.461-.611,4.117,4.117,0,0,1,3.164,1.244A4.887,4.887,0,0,1,97-4.975v1.151H91.107A2.135,2.135,0,0,0,91.8-2.566a2.066,2.066,0,0,0,1.389.457,2.662,2.662,0,0,0,2.2-.984l1.354,1.6A3.784,3.784,0,0,1,95.172-.277,5.3,5.3,0,0,1,92.988.176ZM92.654-7.4q-1.3,0-1.547,1.723H94.1v-.229a1.467,1.467,0,0,0-.36-1.1A1.434,1.434,0,0,0,92.654-7.4Zm8.253-2.109.1,1.116a3.225,3.225,0,0,1,2.716-1.292,2.713,2.713,0,0,1,2.219.888,4.226,4.226,0,0,1,.76,2.672V0h-2.971V-6a1.6,1.6,0,0,0-.29-1.059,1.342,1.342,0,0,0-1.055-.338,1.413,1.413,0,0,0-1.292.686V0H98.13V-9.51Zm12.41,6.838a.684.684,0,0,0-.4-.606,6.016,6.016,0,0,0-1.5-.475,6.853,6.853,0,0,1-1.828-.646,3.062,3.062,0,0,1-1.1-.971,2.319,2.319,0,0,1-.378-1.31A2.628,2.628,0,0,1,109.2-8.837a4.453,4.453,0,0,1,2.83-.848,4.934,4.934,0,0,1,3.023.853,2.666,2.666,0,0,1,1.143,2.241h-2.971q0-1.143-1.2-1.143a1.194,1.194,0,0,0-.782.259.8.8,0,0,0-.316.646.737.737,0,0,0,.387.642,3.654,3.654,0,0,0,1.235.4,10.671,10.671,0,0,1,1.49.378,2.706,2.706,0,0,1,2.145,2.646,2.491,2.491,0,0,1-1.156,2.118,5.068,5.068,0,0,1-2.993.817,5.172,5.172,0,0,1-2.18-.439,3.645,3.645,0,0,1-1.494-1.2,2.707,2.707,0,0,1-.536-1.591h2.769a1.145,1.145,0,0,0,.439.962,1.808,1.808,0,0,0,1.081.3,1.422,1.422,0,0,0,.91-.246A.787.787,0,0,0,113.317-2.672Zm3.867-2.171a5.613,5.613,0,0,1,.554-2.536,3.96,3.96,0,0,1,1.591-1.709,4.791,4.791,0,0,1,2.435-.6,4.373,4.373,0,0,1,3.366,1.323,5.076,5.076,0,0,1,1.23,3.6v.105a4.925,4.925,0,0,1-1.235,3.529A4.384,4.384,0,0,1,121.781.176a4.434,4.434,0,0,1-3.261-1.217,4.761,4.761,0,0,1-1.327-3.3Zm2.962.185a3.538,3.538,0,0,0,.413,1.934,1.376,1.376,0,0,0,1.222.615q1.582,0,1.617-2.435v-.3q0-2.558-1.635-2.558-1.485,0-1.608,2.206Zm16.6,4.834a4.889,4.889,0,0,1-3.542-1.305,4.507,4.507,0,0,1-1.354-3.4v-.246a5.84,5.84,0,0,1,.541-2.575,3.955,3.955,0,0,1,1.578-1.727,4.763,4.763,0,0,1,2.461-.611A4.117,4.117,0,0,1,139.6-8.442a4.887,4.887,0,0,1,1.16,3.467v1.151h-5.889a2.135,2.135,0,0,0,.694,1.257,2.066,2.066,0,0,0,1.389.457,2.662,2.662,0,0,0,2.2-.984l1.354,1.6a3.784,3.784,0,0,1-1.569,1.217A5.3,5.3,0,0,1,136.749.176ZM136.415-7.4q-1.3,0-1.547,1.723h2.988v-.229a1.467,1.467,0,0,0-.36-1.1A1.434,1.434,0,0,0,136.415-7.4Zm9.387.51,1.38-2.619h3.076l-2.5,4.632L150.381,0h-3.094l-1.494-2.812L144.325,0h-3.111l2.637-4.878-2.5-4.632h3.111Zm8.859-4.983V-9.51h1.564v2.057h-1.564V-3.1a1.111,1.111,0,0,0,.193.747,1.037,1.037,0,0,0,.765.211,4.345,4.345,0,0,0,.738-.053V-.079a5.466,5.466,0,0,1-1.67.255,3.1,3.1,0,0,1-2.259-.721,2.954,2.954,0,0,1-.729-2.188v-4.72h-1.213V-9.51H151.7v-2.364Zm7.33,12.05a4.889,4.889,0,0,1-3.542-1.305,4.507,4.507,0,0,1-1.354-3.4v-.246a5.84,5.84,0,0,1,.541-2.575,3.955,3.955,0,0,1,1.578-1.727,4.763,4.763,0,0,1,2.461-.611,4.117,4.117,0,0,1,3.164,1.244A4.887,4.887,0,0,1,166-4.975v1.151H160.11a2.135,2.135,0,0,0,.694,1.257,2.066,2.066,0,0,0,1.389.457,2.662,2.662,0,0,0,2.2-.984l1.354,1.6a3.784,3.784,0,0,1-1.569,1.217A5.3,5.3,0,0,1,161.991.176ZM161.657-7.4q-1.3,0-1.547,1.723H163.1v-.229a1.467,1.467,0,0,0-.36-1.1A1.434,1.434,0,0,0,161.657-7.4Zm11.285.571-.976-.07a1.752,1.752,0,0,0-1.793.879V0h-2.962V-9.51h2.777l.1,1.222a2.294,2.294,0,0,1,2.083-1.4A2.888,2.888,0,0,1,173-9.58ZM176.73-9.51l.1,1.116a3.225,3.225,0,0,1,2.716-1.292,2.713,2.713,0,0,1,2.219.888,4.226,4.226,0,0,1,.76,2.672V0h-2.971V-6a1.6,1.6,0,0,0-.29-1.059,1.342,1.342,0,0,0-1.055-.338,1.413,1.413,0,0,0-1.292.686V0h-2.962V-9.51Zm7.058,4.667a5.613,5.613,0,0,1,.554-2.536,3.96,3.96,0,0,1,1.591-1.709,4.791,4.791,0,0,1,2.435-.6,4.373,4.373,0,0,1,3.366,1.323,5.076,5.076,0,0,1,1.23,3.6v.105a4.925,4.925,0,0,1-1.235,3.529A4.384,4.384,0,0,1,188.385.176a4.434,4.434,0,0,1-3.261-1.217,4.761,4.761,0,0,1-1.327-3.3Zm2.962.185a3.538,3.538,0,0,0,.413,1.934,1.376,1.376,0,0,0,1.222.615q1.582,0,1.617-2.435v-.3Q190-7.4,188.367-7.4q-1.485,0-1.608,2.206Z" transform="translate(993.641 1031)" fill="#12263f"/>
    <path id="Trazado_720627" data-name="Trazado 720627" d="M8.235-2.391H4.008L3.27,0h-3.3L4.667-12.8h2.9L12.3,0H8.982ZM4.746-4.772H7.5L6.117-9.211ZM16.216,0H13.245V-13.5h2.971ZM26.868-4.676A5.8,5.8,0,0,1,25.9-1.081,3.238,3.238,0,0,1,23.177.176,2.81,2.81,0,0,1,20.839-.976L20.716,0H18.062V-13.5h2.962v4.755a2.711,2.711,0,0,1,2.136-.94A3.239,3.239,0,0,1,25.9-8.411a5.826,5.826,0,0,1,.967,3.586ZM23.9-4.865a3.866,3.866,0,0,0-.365-1.952A1.229,1.229,0,0,0,22.412-7.4a1.418,1.418,0,0,0-1.389.763v3.773a1.426,1.426,0,0,0,1.406.755,1.258,1.258,0,0,0,1.327-1.018A7.309,7.309,0,0,0,23.9-4.865Zm9.94,3.836A3.054,3.054,0,0,1,31.3.176a3,3,0,0,1-2.369-.91,3.826,3.826,0,0,1-.8-2.615V-9.51h2.962v6.179a1.065,1.065,0,0,0,1.187,1.222,1.548,1.548,0,0,0,1.45-.729V-9.51H36.7V0H33.926ZM41.124-9.51l.1,1.116a3.27,3.27,0,0,1,2.716-1.292,2.407,2.407,0,0,1,2.435,1.433,3.165,3.165,0,0,1,2.795-1.433q2.892,0,2.971,3.5V0H49.166V-6a1.813,1.813,0,0,0-.246-1.063,1.048,1.048,0,0,0-.9-.334,1.4,1.4,0,0,0-1.31.782l.009.123V0H43.752V-5.985a1.906,1.906,0,0,0-.237-1.081,1.045,1.045,0,0,0-.905-.334,1.42,1.42,0,0,0-1.3.782V0H38.347V-9.51ZM58.43.176a4.889,4.889,0,0,1-3.542-1.305,4.507,4.507,0,0,1-1.354-3.4v-.246a5.84,5.84,0,0,1,.541-2.575,3.955,3.955,0,0,1,1.578-1.727,4.763,4.763,0,0,1,2.461-.611,4.117,4.117,0,0,1,3.164,1.244,4.887,4.887,0,0,1,1.16,3.467v1.151H56.549a2.135,2.135,0,0,0,.694,1.257,2.066,2.066,0,0,0,1.389.457,2.662,2.662,0,0,0,2.2-.984l1.354,1.6A3.784,3.784,0,0,1,60.614-.277,5.3,5.3,0,0,1,58.43.176ZM58.1-7.4q-1.3,0-1.547,1.723h2.988v-.229a1.467,1.467,0,0,0-.36-1.1A1.434,1.434,0,0,0,58.1-7.4ZM66.349-9.51l.1,1.116a3.225,3.225,0,0,1,2.716-1.292A2.713,2.713,0,0,1,71.38-8.8a4.226,4.226,0,0,1,.76,2.672V0H69.17V-6a1.6,1.6,0,0,0-.29-1.059A1.342,1.342,0,0,0,67.825-7.4a1.413,1.413,0,0,0-1.292.686V0H63.571V-9.51Zm18.536-1.828q-.756-.062-1.274-.062-1.723,0-1.723,1.345v.545h1.854v2.057H81.888V0H78.917V-7.453h-1.38V-9.51h1.38v-.615a3.284,3.284,0,0,1,1.1-2.632,4.716,4.716,0,0,1,3.133-.927q1.45,0,4.711.185V0H84.885Zm10.45,10.31a3.054,3.054,0,0,1-2.54,1.2,3,3,0,0,1-2.369-.91,3.826,3.826,0,0,1-.8-2.615V-9.51h2.962v6.179a1.065,1.065,0,0,0,1.187,1.222,1.548,1.548,0,0,0,1.45-.729V-9.51H98.2V0H95.423ZM102.946,0H99.976V-9.51h2.971ZM99.8-11.962A1.322,1.322,0,0,1,100.257-13a1.724,1.724,0,0,1,1.187-.4,1.724,1.724,0,0,1,1.187.4,1.322,1.322,0,0,1,.457,1.037,1.322,1.322,0,0,1-.457,1.037,1.724,1.724,0,0,1-1.187.4,1.724,1.724,0,0,1-1.187-.4A1.322,1.322,0,0,1,99.8-11.962Zm4.6,7.137a5.809,5.809,0,0,1,.976-3.56,3.211,3.211,0,0,1,2.725-1.3,2.731,2.731,0,0,1,2.145,1V-13.5h2.971V0h-2.663L110.4-1.02a2.8,2.8,0,0,1-2.32,1.2,3.205,3.205,0,0,1-2.689-1.3A5.993,5.993,0,0,1,104.4-4.825Zm2.962.185q0,2.531,1.477,2.531a1.458,1.458,0,0,0,1.406-.826V-6.557a1.419,1.419,0,0,0-1.389-.844q-1.371,0-1.485,2.215Zm7.163-.2a5.613,5.613,0,0,1,.554-2.536,3.96,3.96,0,0,1,1.591-1.709,4.791,4.791,0,0,1,2.435-.6,4.373,4.373,0,0,1,3.366,1.323,5.076,5.076,0,0,1,1.23,3.6v.105a4.925,4.925,0,0,1-1.235,3.529A4.384,4.384,0,0,1,119.118.176a4.434,4.434,0,0,1-3.261-1.217,4.761,4.761,0,0,1-1.327-3.3Zm2.962.185a3.538,3.538,0,0,0,.413,1.934,1.376,1.376,0,0,0,1.222.615q1.582,0,1.617-2.435v-.3q0-2.558-1.635-2.558-1.485,0-1.608,2.206Zm16.6,4.834a4.889,4.889,0,0,1-3.542-1.305,4.507,4.507,0,0,1-1.354-3.4v-.246a5.84,5.84,0,0,1,.541-2.575,3.955,3.955,0,0,1,1.578-1.727,4.763,4.763,0,0,1,2.461-.611,4.117,4.117,0,0,1,3.164,1.244,4.887,4.887,0,0,1,1.16,3.467v1.151h-5.889a2.135,2.135,0,0,0,.694,1.257,2.066,2.066,0,0,0,1.389.457,2.662,2.662,0,0,0,2.2-.984l1.354,1.6A3.784,3.784,0,0,1,136.27-.277,5.3,5.3,0,0,1,134.086.176ZM133.752-7.4q-1.3,0-1.547,1.723h2.988v-.229a1.467,1.467,0,0,0-.36-1.1A1.434,1.434,0,0,0,133.752-7.4Zm9.387.51,1.38-2.619h3.076l-2.5,4.632L147.718,0h-3.094L143.13-2.812,141.662,0h-3.111l2.637-4.878-2.5-4.632H141.8ZM152-11.874V-9.51h1.564v2.057H152V-3.1a1.111,1.111,0,0,0,.193.747,1.037,1.037,0,0,0,.765.211,4.345,4.345,0,0,0,.738-.053V-.079a5.466,5.466,0,0,1-1.67.255,3.1,3.1,0,0,1-2.259-.721,2.954,2.954,0,0,1-.729-2.188v-4.72h-1.213V-9.51h1.213v-2.364Zm7.33,12.05a4.889,4.889,0,0,1-3.542-1.305,4.507,4.507,0,0,1-1.354-3.4v-.246a5.84,5.84,0,0,1,.541-2.575,3.955,3.955,0,0,1,1.578-1.727,4.763,4.763,0,0,1,2.461-.611,4.117,4.117,0,0,1,3.164,1.244,4.887,4.887,0,0,1,1.16,3.467v1.151h-5.889a2.135,2.135,0,0,0,.694,1.257,2.066,2.066,0,0,0,1.389.457,2.662,2.662,0,0,0,2.2-.984l1.354,1.6a3.784,3.784,0,0,1-1.569,1.217A5.3,5.3,0,0,1,159.328.176ZM158.994-7.4q-1.3,0-1.547,1.723h2.988v-.229a1.467,1.467,0,0,0-.36-1.1A1.434,1.434,0,0,0,158.994-7.4Zm11.285.571L169.3-6.9a1.752,1.752,0,0,0-1.793.879V0h-2.962V-9.51h2.777l.1,1.222a2.294,2.294,0,0,1,2.083-1.4,2.888,2.888,0,0,1,.826.105Zm3.788-2.681.1,1.116a3.225,3.225,0,0,1,2.716-1.292A2.713,2.713,0,0,1,179.1-8.8a4.226,4.226,0,0,1,.76,2.672V0h-2.971V-6a1.6,1.6,0,0,0-.29-1.059,1.342,1.342,0,0,0-1.055-.338,1.413,1.413,0,0,0-1.292.686V0H171.29V-9.51Zm7.058,4.667a5.613,5.613,0,0,1,.554-2.536,3.96,3.96,0,0,1,1.591-1.709,4.791,4.791,0,0,1,2.435-.6,4.373,4.373,0,0,1,3.366,1.323,5.076,5.076,0,0,1,1.23,3.6v.105a4.925,4.925,0,0,1-1.235,3.529A4.384,4.384,0,0,1,185.722.176a4.434,4.434,0,0,1-3.261-1.217,4.761,4.761,0,0,1-1.327-3.3Zm2.962.185a3.538,3.538,0,0,0,.413,1.934,1.376,1.376,0,0,0,1.222.615q1.582,0,1.617-2.435v-.3q0-2.558-1.635-2.558-1.485,0-1.608,2.206Z" transform="translate(993.641 1153)" fill="#12263f"/>
    <path id="Trazado_720625" data-name="Trazado 720625" d="M5.019-12.8l2.856,8.9,2.848-8.9h4.061V0H11.689V-2.988l.3-6.117L8.895,0H6.855l-3.1-9.114.3,6.126V0H.967V-12.8ZM21.208.176a4.889,4.889,0,0,1-3.542-1.305,4.507,4.507,0,0,1-1.354-3.4v-.246a5.84,5.84,0,0,1,.541-2.575,3.955,3.955,0,0,1,1.578-1.727,4.763,4.763,0,0,1,2.461-.611,4.117,4.117,0,0,1,3.164,1.244,4.887,4.887,0,0,1,1.16,3.467v1.151H19.327a2.135,2.135,0,0,0,.694,1.257,2.066,2.066,0,0,0,1.389.457,2.662,2.662,0,0,0,2.2-.984l1.354,1.6A3.784,3.784,0,0,1,23.392-.277,5.3,5.3,0,0,1,21.208.176ZM20.874-7.4q-1.3,0-1.547,1.723h2.988v-.229a1.467,1.467,0,0,0-.36-1.1A1.434,1.434,0,0,0,20.874-7.4ZM29.206-9.51l.1,1.116a3.27,3.27,0,0,1,2.716-1.292,2.407,2.407,0,0,1,2.435,1.433,3.165,3.165,0,0,1,2.795-1.433q2.892,0,2.971,3.5V0H37.248V-6A1.813,1.813,0,0,0,37-7.066a1.048,1.048,0,0,0-.9-.334,1.4,1.4,0,0,0-1.31.782L34.8-6.5V0H31.834V-5.985A1.906,1.906,0,0,0,31.6-7.066a1.045,1.045,0,0,0-.905-.334,1.42,1.42,0,0,0-1.3.782V0H26.429V-9.51ZM50.739-4.676a5.8,5.8,0,0,1-.967,3.595A3.238,3.238,0,0,1,47.048.176,2.81,2.81,0,0,1,44.71-.976L44.587,0H41.933V-13.5h2.962v4.755a2.711,2.711,0,0,1,2.136-.94,3.239,3.239,0,0,1,2.742,1.274,5.826,5.826,0,0,1,.967,3.586Zm-2.971-.189A3.866,3.866,0,0,0,47.4-6.817,1.229,1.229,0,0,0,46.283-7.4a1.418,1.418,0,0,0-1.389.763v3.773a1.426,1.426,0,0,0,1.406.755,1.258,1.258,0,0,0,1.327-1.018A7.309,7.309,0,0,0,47.769-4.865ZM57.8-6.829l-.976-.07a1.752,1.752,0,0,0-1.793.879V0H52.066V-9.51h2.777l.1,1.222a2.294,2.294,0,0,1,2.083-1.4,2.888,2.888,0,0,1,.826.105ZM63.958,0a3.344,3.344,0,0,1-.281-.853A2.754,2.754,0,0,1,61.392.176a3.374,3.374,0,0,1-2.285-.813,2.588,2.588,0,0,1-.94-2.043,2.66,2.66,0,0,1,1.143-2.338,5.821,5.821,0,0,1,3.322-.791h.914v-.5q0-1.316-1.134-1.316a.927.927,0,0,0-1.055,1.042H58.395a2.655,2.655,0,0,1,1.173-2.239,4.931,4.931,0,0,1,2.993-.86,4.323,4.323,0,0,1,2.874.888,3.086,3.086,0,0,1,1.081,2.435v4.21a4.311,4.311,0,0,0,.4,2V0ZM62.1-1.934a1.652,1.652,0,0,0,.918-.237,1.487,1.487,0,0,0,.523-.536V-4.228h-.861q-1.547,0-1.547,1.389a.848.848,0,0,0,.272.655A.986.986,0,0,0,62.1-1.934ZM70.875-9.51l.1,1.116a3.225,3.225,0,0,1,2.716-1.292,2.713,2.713,0,0,1,2.219.888,4.226,4.226,0,0,1,.76,2.672V0H73.7V-6a1.6,1.6,0,0,0-.29-1.059A1.342,1.342,0,0,0,72.352-7.4a1.413,1.413,0,0,0-1.292.686V0H68.1V-9.51ZM83.663,0a3.344,3.344,0,0,1-.281-.853A2.754,2.754,0,0,1,81.1.176a3.374,3.374,0,0,1-2.285-.813,2.588,2.588,0,0,1-.94-2.043,2.66,2.66,0,0,1,1.143-2.338,5.821,5.821,0,0,1,3.322-.791h.914v-.5q0-1.316-1.134-1.316a.927.927,0,0,0-1.055,1.042H78.1a2.655,2.655,0,0,1,1.173-2.239,4.931,4.931,0,0,1,2.993-.86A4.323,4.323,0,0,1,85.14-8.8a3.086,3.086,0,0,1,1.081,2.435v4.21a4.311,4.311,0,0,0,.4,2V0ZM81.809-1.934a1.652,1.652,0,0,0,.918-.237,1.487,1.487,0,0,0,.523-.536V-4.228h-.861q-1.547,0-1.547,1.389a.848.848,0,0,0,.272.655A.986.986,0,0,0,81.809-1.934ZM96.135-3.524l1.5-5.985h3.12L97.655,0H94.632l-3.1-9.51h3.129ZM104.766,0h-2.971V-9.51h2.971Zm-3.146-11.962A1.322,1.322,0,0,1,102.076-13a1.724,1.724,0,0,1,1.187-.4,1.724,1.724,0,0,1,1.187.4,1.322,1.322,0,0,1,.457,1.037,1.322,1.322,0,0,1-.457,1.037,1.724,1.724,0,0,1-1.187.4,1.724,1.724,0,0,1-1.187-.4A1.322,1.322,0,0,1,101.619-11.962Zm8.42.088V-9.51H111.6v2.057h-1.564V-3.1a1.111,1.111,0,0,0,.193.747,1.037,1.037,0,0,0,.765.211,4.345,4.345,0,0,0,.738-.053V-.079a5.466,5.466,0,0,1-1.67.255,3.1,3.1,0,0,1-2.259-.721,2.954,2.954,0,0,1-.729-2.188v-4.72h-1.213V-9.51h1.213v-2.364Zm7.33,12.05a4.889,4.889,0,0,1-3.542-1.305,4.507,4.507,0,0,1-1.354-3.4v-.246a5.84,5.84,0,0,1,.541-2.575,3.955,3.955,0,0,1,1.578-1.727,4.763,4.763,0,0,1,2.461-.611,4.117,4.117,0,0,1,3.164,1.244,4.887,4.887,0,0,1,1.16,3.467v1.151h-5.889a2.135,2.135,0,0,0,.694,1.257,2.066,2.066,0,0,0,1.389.457,2.662,2.662,0,0,0,2.2-.984l1.354,1.6a3.784,3.784,0,0,1-1.569,1.217A5.3,5.3,0,0,1,117.369.176ZM117.035-7.4q-1.3,0-1.547,1.723h2.988v-.229a1.467,1.467,0,0,0-.36-1.1A1.434,1.434,0,0,0,117.035-7.4ZM125.692,0h-2.971V-13.5h2.971Zm4.948,0H127.67V-9.51h2.971Zm-3.146-11.962A1.322,1.322,0,0,1,127.951-13a1.724,1.724,0,0,1,1.187-.4,1.724,1.724,0,0,1,1.187.4,1.322,1.322,0,0,1,.457,1.037,1.322,1.322,0,0,1-.457,1.037,1.724,1.724,0,0,1-1.187.4,1.724,1.724,0,0,1-1.187-.4A1.322,1.322,0,0,1,127.494-11.962Zm7.69,2.452.1,1.116A3.225,3.225,0,0,1,138-9.686a2.713,2.713,0,0,1,2.219.888,4.226,4.226,0,0,1,.76,2.672V0h-2.971V-6a1.6,1.6,0,0,0-.29-1.059,1.342,1.342,0,0,0-1.055-.338,1.413,1.413,0,0,0-1.292.686V0h-2.962V-9.51ZM147.973,0a3.344,3.344,0,0,1-.281-.853A2.754,2.754,0,0,1,145.406.176a3.374,3.374,0,0,1-2.285-.813,2.588,2.588,0,0,1-.94-2.043,2.66,2.66,0,0,1,1.143-2.338,5.821,5.821,0,0,1,3.322-.791h.914v-.5q0-1.316-1.134-1.316a.927.927,0,0,0-1.055,1.042h-2.962a2.655,2.655,0,0,1,1.173-2.239,4.931,4.931,0,0,1,2.993-.86,4.323,4.323,0,0,1,2.874.888,3.086,3.086,0,0,1,1.081,2.435v4.21a4.311,4.311,0,0,0,.4,2V0Zm-1.854-1.934a1.652,1.652,0,0,0,.918-.237,1.487,1.487,0,0,0,.523-.536V-4.228H146.7q-1.547,0-1.547,1.389a.848.848,0,0,0,.272.655A.986.986,0,0,0,146.118-1.934Z" transform="translate(1019.641 1376)" fill="#12263f"/>
    <path id="Trazado_720624" data-name="Trazado 720624" d="M11.32-4.333a4.673,4.673,0,0,1-.721,2.36A4.35,4.35,0,0,1,8.75-.387a6.3,6.3,0,0,1-2.72.563A5.025,5.025,0,0,1,2.057-1.468,6.786,6.786,0,0,1,.606-6.108v-.633a7.746,7.746,0,0,1,.655-3.292,4.961,4.961,0,0,1,1.885-2.18,5.26,5.26,0,0,1,2.848-.769,5.516,5.516,0,0,1,3.744,1.226,4.844,4.844,0,0,1,1.608,3.379H8.271a2.292,2.292,0,0,0-.589-1.679,2.422,2.422,0,0,0-1.687-.51A1.843,1.843,0,0,0,4.307-9.7a5.536,5.536,0,0,0-.562,2.751v.905A6.125,6.125,0,0,0,4.258-3.12a1.882,1.882,0,0,0,1.771.879,2.369,2.369,0,0,0,1.626-.5,2.126,2.126,0,0,0,.6-1.591ZM18,0a3.344,3.344,0,0,1-.281-.853A2.754,2.754,0,0,1,15.434.176a3.374,3.374,0,0,1-2.285-.813,2.588,2.588,0,0,1-.94-2.043,2.66,2.66,0,0,1,1.143-2.338,5.821,5.821,0,0,1,3.322-.791h.914v-.5q0-1.316-1.134-1.316A.927.927,0,0,0,15.4-6.587H12.437A2.655,2.655,0,0,1,13.61-8.825a4.931,4.931,0,0,1,2.993-.86,4.323,4.323,0,0,1,2.874.888,3.086,3.086,0,0,1,1.081,2.435v4.21a4.311,4.311,0,0,0,.4,2V0ZM16.146-1.934a1.652,1.652,0,0,0,.918-.237,1.487,1.487,0,0,0,.523-.536V-4.228h-.861q-1.547,0-1.547,1.389a.848.848,0,0,0,.272.655A.986.986,0,0,0,16.146-1.934ZM16.884-13.5h3.129l-2.443,2.76-2.417,0ZM25-9.51l.1,1.116a3.27,3.27,0,0,1,2.716-1.292,2.407,2.407,0,0,1,2.435,1.433,3.165,3.165,0,0,1,2.795-1.433q2.892,0,2.971,3.5V0H33.038V-6a1.813,1.813,0,0,0-.246-1.063,1.048,1.048,0,0,0-.9-.334,1.4,1.4,0,0,0-1.31.782l.009.123V0H27.624V-5.985a1.906,1.906,0,0,0-.237-1.081,1.045,1.045,0,0,0-.905-.334,1.42,1.42,0,0,0-1.3.782V0H22.219V-9.51ZM43.058,0a3.344,3.344,0,0,1-.281-.853A2.754,2.754,0,0,1,40.491.176a3.374,3.374,0,0,1-2.285-.813,2.588,2.588,0,0,1-.94-2.043,2.66,2.66,0,0,1,1.143-2.338A5.821,5.821,0,0,1,41.73-5.81h.914v-.5q0-1.316-1.134-1.316a.927.927,0,0,0-1.055,1.042H37.494a2.655,2.655,0,0,1,1.173-2.239,4.931,4.931,0,0,1,2.993-.86,4.323,4.323,0,0,1,2.874.888,3.086,3.086,0,0,1,1.081,2.435v4.21a4.311,4.311,0,0,0,.4,2V0ZM41.2-1.934a1.652,1.652,0,0,0,.918-.237,1.487,1.487,0,0,0,.523-.536V-4.228h-.861q-1.547,0-1.547,1.389a.848.848,0,0,0,.272.655A.986.986,0,0,0,41.2-1.934Zm11.8-4.9-.976-.07a1.752,1.752,0,0,0-1.793.879V0H47.276V-9.51h2.777l.1,1.222a2.294,2.294,0,0,1,2.083-1.4,2.888,2.888,0,0,1,.826.105ZM59.168,0a3.344,3.344,0,0,1-.281-.853A2.754,2.754,0,0,1,56.6.176a3.374,3.374,0,0,1-2.285-.813,2.588,2.588,0,0,1-.94-2.043,2.66,2.66,0,0,1,1.143-2.338,5.821,5.821,0,0,1,3.322-.791h.914v-.5q0-1.316-1.134-1.316a.927.927,0,0,0-1.055,1.042H53.6a2.655,2.655,0,0,1,1.173-2.239,4.931,4.931,0,0,1,2.993-.86,4.323,4.323,0,0,1,2.874.888,3.086,3.086,0,0,1,1.081,2.435v4.21a4.311,4.311,0,0,0,.4,2V0ZM57.313-1.934a1.652,1.652,0,0,0,.918-.237,1.487,1.487,0,0,0,.523-.536V-4.228h-.861q-1.547,0-1.547,1.389a.848.848,0,0,0,.272.655A.986.986,0,0,0,57.313-1.934Zm10.16-2.892a5.809,5.809,0,0,1,.976-3.56,3.211,3.211,0,0,1,2.725-1.3,2.731,2.731,0,0,1,2.145,1V-13.5h2.971V0H73.626l-.149-1.02a2.8,2.8,0,0,1-2.32,1.2,3.205,3.205,0,0,1-2.689-1.3A5.993,5.993,0,0,1,67.474-4.825Zm2.962.185q0,2.531,1.477,2.531a1.458,1.458,0,0,0,1.406-.826V-6.557A1.419,1.419,0,0,0,71.93-7.4q-1.371,0-1.485,2.215ZM82.573.176a4.889,4.889,0,0,1-3.542-1.305,4.507,4.507,0,0,1-1.354-3.4v-.246a5.84,5.84,0,0,1,.541-2.575A3.955,3.955,0,0,1,79.8-9.075a4.763,4.763,0,0,1,2.461-.611,4.117,4.117,0,0,1,3.164,1.244,4.887,4.887,0,0,1,1.16,3.467v1.151H80.692a2.135,2.135,0,0,0,.694,1.257,2.066,2.066,0,0,0,1.389.457,2.662,2.662,0,0,0,2.2-.984l1.354,1.6A3.784,3.784,0,0,1,84.757-.277,5.3,5.3,0,0,1,82.573.176ZM82.239-7.4q-1.3,0-1.547,1.723h2.988v-.229a1.467,1.467,0,0,0-.36-1.1A1.434,1.434,0,0,0,82.239-7.4ZM97.611,0a3.344,3.344,0,0,1-.281-.853A2.754,2.754,0,0,1,95.045.176,3.374,3.374,0,0,1,92.76-.637a2.588,2.588,0,0,1-.94-2.043,2.66,2.66,0,0,1,1.143-2.338,5.821,5.821,0,0,1,3.322-.791H97.2v-.5q0-1.316-1.134-1.316A.927.927,0,0,0,95.01-6.587H92.048a2.655,2.655,0,0,1,1.173-2.239,4.931,4.931,0,0,1,2.993-.86,4.323,4.323,0,0,1,2.874.888,3.086,3.086,0,0,1,1.081,2.435v4.21a4.311,4.311,0,0,0,.4,2V0ZM95.757-1.934a1.652,1.652,0,0,0,.918-.237,1.487,1.487,0,0,0,.523-.536V-4.228h-.861q-1.547,0-1.547,1.389a.848.848,0,0,0,.272.655A.986.986,0,0,0,95.757-1.934ZM104.933,0h-2.971V-9.51h2.971Zm-3.146-11.962A1.322,1.322,0,0,1,102.243-13a1.724,1.724,0,0,1,1.187-.4,1.724,1.724,0,0,1,1.187.4,1.322,1.322,0,0,1,.457,1.037,1.322,1.322,0,0,1-.457,1.037,1.724,1.724,0,0,1-1.187.4,1.724,1.724,0,0,1-1.187-.4A1.322,1.322,0,0,1,101.786-11.962Zm10.723,5.133-.976-.07a1.752,1.752,0,0,0-1.793.879V0h-2.962V-9.51h2.777l.1,1.222a2.294,2.294,0,0,1,2.083-1.4,2.888,2.888,0,0,1,.826.105Zm5.5,7a4.889,4.889,0,0,1-3.542-1.305,4.507,4.507,0,0,1-1.354-3.4v-.246a5.84,5.84,0,0,1,.541-2.575,3.955,3.955,0,0,1,1.578-1.727,4.763,4.763,0,0,1,2.461-.611,4.117,4.117,0,0,1,3.164,1.244,4.887,4.887,0,0,1,1.16,3.467v1.151H116.13a2.135,2.135,0,0,0,.694,1.257,2.066,2.066,0,0,0,1.389.457,2.662,2.662,0,0,0,2.2-.984l1.354,1.6a3.784,3.784,0,0,1-1.569,1.217A5.3,5.3,0,0,1,118.011.176ZM117.677-7.4q-1.3,0-1.547,1.723h2.988v-.229a1.467,1.467,0,0,0-.36-1.1A1.434,1.434,0,0,0,117.677-7.4Z" transform="translate(984.641 1460)" fill="#12263f"/>
    <path id="Trazado_720623" data-name="Trazado 720623" d="M5.019-12.8l2.856,8.9,2.848-8.9h4.061V0H11.689V-2.988l.3-6.117L8.895,0H6.855l-3.1-9.114.3,6.126V0H.967V-12.8ZM21.208.176a4.889,4.889,0,0,1-3.542-1.305,4.507,4.507,0,0,1-1.354-3.4v-.246a5.84,5.84,0,0,1,.541-2.575,3.955,3.955,0,0,1,1.578-1.727,4.763,4.763,0,0,1,2.461-.611,4.117,4.117,0,0,1,3.164,1.244,4.887,4.887,0,0,1,1.16,3.467v1.151H19.327a2.135,2.135,0,0,0,.694,1.257,2.066,2.066,0,0,0,1.389.457,2.662,2.662,0,0,0,2.2-.984l1.354,1.6A3.784,3.784,0,0,1,23.392-.277,5.3,5.3,0,0,1,21.208.176ZM20.874-7.4q-1.3,0-1.547,1.723h2.988v-.229a1.467,1.467,0,0,0-.36-1.1A1.434,1.434,0,0,0,20.874-7.4ZM29.206-9.51l.1,1.116a3.27,3.27,0,0,1,2.716-1.292,2.407,2.407,0,0,1,2.435,1.433,3.165,3.165,0,0,1,2.795-1.433q2.892,0,2.971,3.5V0H37.248V-6A1.813,1.813,0,0,0,37-7.066a1.048,1.048,0,0,0-.9-.334,1.4,1.4,0,0,0-1.31.782L34.8-6.5V0H31.834V-5.985A1.906,1.906,0,0,0,31.6-7.066a1.045,1.045,0,0,0-.905-.334,1.42,1.42,0,0,0-1.3.782V0H26.429V-9.51ZM50.739-4.676a5.8,5.8,0,0,1-.967,3.595A3.238,3.238,0,0,1,47.048.176,2.81,2.81,0,0,1,44.71-.976L44.587,0H41.933V-13.5h2.962v4.755a2.711,2.711,0,0,1,2.136-.94,3.239,3.239,0,0,1,2.742,1.274,5.826,5.826,0,0,1,.967,3.586Zm-2.971-.189A3.866,3.866,0,0,0,47.4-6.817,1.229,1.229,0,0,0,46.283-7.4a1.418,1.418,0,0,0-1.389.763v3.773a1.426,1.426,0,0,0,1.406.755,1.258,1.258,0,0,0,1.327-1.018A7.309,7.309,0,0,0,47.769-4.865ZM57.8-6.829l-.976-.07a1.752,1.752,0,0,0-1.793.879V0H52.066V-9.51h2.777l.1,1.222a2.294,2.294,0,0,1,2.083-1.4,2.888,2.888,0,0,1,.826.105ZM63.958,0a3.344,3.344,0,0,1-.281-.853A2.754,2.754,0,0,1,61.392.176a3.374,3.374,0,0,1-2.285-.813,2.588,2.588,0,0,1-.94-2.043,2.66,2.66,0,0,1,1.143-2.338,5.821,5.821,0,0,1,3.322-.791h.914v-.5q0-1.316-1.134-1.316a.927.927,0,0,0-1.055,1.042H58.395a2.655,2.655,0,0,1,1.173-2.239,4.931,4.931,0,0,1,2.993-.86,4.323,4.323,0,0,1,2.874.888,3.086,3.086,0,0,1,1.081,2.435v4.21a4.311,4.311,0,0,0,.4,2V0ZM62.1-1.934a1.652,1.652,0,0,0,.918-.237,1.487,1.487,0,0,0,.523-.536V-4.228h-.861q-1.547,0-1.547,1.389a.848.848,0,0,0,.272.655A.986.986,0,0,0,62.1-1.934ZM70.875-9.51l.1,1.116a3.225,3.225,0,0,1,2.716-1.292,2.713,2.713,0,0,1,2.219.888,4.226,4.226,0,0,1,.76,2.672V0H73.7V-6a1.6,1.6,0,0,0-.29-1.059A1.342,1.342,0,0,0,72.352-7.4a1.413,1.413,0,0,0-1.292.686V0H68.1V-9.51ZM83.663,0a3.344,3.344,0,0,1-.281-.853A2.754,2.754,0,0,1,81.1.176a3.374,3.374,0,0,1-2.285-.813,2.588,2.588,0,0,1-.94-2.043,2.66,2.66,0,0,1,1.143-2.338,5.821,5.821,0,0,1,3.322-.791h.914v-.5q0-1.316-1.134-1.316a.927.927,0,0,0-1.055,1.042H78.1a2.655,2.655,0,0,1,1.173-2.239,4.931,4.931,0,0,1,2.993-.86A4.323,4.323,0,0,1,85.14-8.8a3.086,3.086,0,0,1,1.081,2.435v4.21a4.311,4.311,0,0,0,.4,2V0ZM81.809-1.934a1.652,1.652,0,0,0,.918-.237,1.487,1.487,0,0,0,.523-.536V-4.228h-.861q-1.547,0-1.547,1.389a.848.848,0,0,0,.272.655A.986.986,0,0,0,81.809-1.934Zm13.983-9.94V-9.51h1.564v2.057H95.792V-3.1a1.111,1.111,0,0,0,.193.747,1.037,1.037,0,0,0,.765.211,4.345,4.345,0,0,0,.738-.053V-.079a5.466,5.466,0,0,1-1.67.255A3.1,3.1,0,0,1,93.56-.545a2.954,2.954,0,0,1-.729-2.188v-4.72H91.617V-9.51H92.83v-2.364Zm7.33,12.05A4.889,4.889,0,0,1,99.58-1.129a4.507,4.507,0,0,1-1.354-3.4v-.246a5.84,5.84,0,0,1,.541-2.575,3.955,3.955,0,0,1,1.578-1.727,4.763,4.763,0,0,1,2.461-.611,4.117,4.117,0,0,1,3.164,1.244,4.887,4.887,0,0,1,1.16,3.467v1.151h-5.889a2.135,2.135,0,0,0,.694,1.257,2.066,2.066,0,0,0,1.389.457,2.662,2.662,0,0,0,2.2-.984l1.354,1.6a3.784,3.784,0,0,1-1.569,1.217A5.3,5.3,0,0,1,103.122.176ZM102.788-7.4q-1.3,0-1.547,1.723h2.988v-.229a1.467,1.467,0,0,0-.36-1.1A1.434,1.434,0,0,0,102.788-7.4ZM113.3-2.672a.684.684,0,0,0-.4-.606,6.016,6.016,0,0,0-1.5-.475,6.853,6.853,0,0,1-1.828-.646,3.062,3.062,0,0,1-1.1-.971,2.319,2.319,0,0,1-.378-1.31,2.628,2.628,0,0,1,1.081-2.158,4.453,4.453,0,0,1,2.83-.848,4.934,4.934,0,0,1,3.023.853,2.666,2.666,0,0,1,1.143,2.241H113.2q0-1.143-1.2-1.143a1.194,1.194,0,0,0-.782.259.8.8,0,0,0-.316.646.737.737,0,0,0,.387.642,3.654,3.654,0,0,0,1.235.4,10.671,10.671,0,0,1,1.49.378,2.706,2.706,0,0,1,2.145,2.646A2.491,2.491,0,0,1,115-.642a5.068,5.068,0,0,1-2.993.817,5.172,5.172,0,0,1-2.18-.439,3.645,3.645,0,0,1-1.494-1.2A2.707,2.707,0,0,1,107.8-3.05h2.769a1.145,1.145,0,0,0,.439.962,1.808,1.808,0,0,0,1.081.3A1.422,1.422,0,0,0,113-2.03.787.787,0,0,0,113.3-2.672Zm7.69-9.2V-9.51h1.564v2.057H120.99V-3.1a1.111,1.111,0,0,0,.193.747,1.037,1.037,0,0,0,.765.211,4.345,4.345,0,0,0,.738-.053V-.079a5.466,5.466,0,0,1-1.67.255,3.1,3.1,0,0,1-2.259-.721,2.954,2.954,0,0,1-.729-2.188v-4.72h-1.213V-9.51h1.213v-2.364ZM129.076,0a3.344,3.344,0,0,1-.281-.853A2.754,2.754,0,0,1,126.51.176a3.374,3.374,0,0,1-2.285-.813,2.588,2.588,0,0,1-.94-2.043,2.66,2.66,0,0,1,1.143-2.338,5.821,5.821,0,0,1,3.322-.791h.914v-.5q0-1.316-1.134-1.316a.927.927,0,0,0-1.055,1.042h-2.962a2.655,2.655,0,0,1,1.173-2.239,4.931,4.931,0,0,1,2.993-.86,4.323,4.323,0,0,1,2.874.888,3.086,3.086,0,0,1,1.081,2.435v4.21a4.311,4.311,0,0,0,.4,2V0Zm-1.854-1.934a1.652,1.652,0,0,0,.918-.237,1.487,1.487,0,0,0,.523-.536V-4.228H127.8q-1.547,0-1.547,1.389a.848.848,0,0,0,.272.655A.986.986,0,0,0,127.222-1.934ZM127.96-13.5h3.129l-2.443,2.76-2.417,0Zm9.334,11.391a1.317,1.317,0,0,0,.967-.338,1.241,1.241,0,0,0,.334-.945h2.777a3.288,3.288,0,0,1-1.121,2.566,4.168,4.168,0,0,1-2.887,1,4.22,4.22,0,0,1-3.27-1.3,5.125,5.125,0,0,1-1.2-3.6v-.123a5.792,5.792,0,0,1,.532-2.544,3.872,3.872,0,0,1,1.534-1.7,4.573,4.573,0,0,1,2.373-.593,4.116,4.116,0,0,1,2.944,1.028,3.647,3.647,0,0,1,1.09,2.786h-2.777A1.626,1.626,0,0,0,138.234-7a1.244,1.244,0,0,0-.967-.4q-1.151,0-1.345,1.468a10.357,10.357,0,0,0-.062,1.283,4.068,4.068,0,0,0,.343,1.986A1.187,1.187,0,0,0,137.294-2.109ZM147.226.176a4.889,4.889,0,0,1-3.542-1.305,4.507,4.507,0,0,1-1.354-3.4v-.246a5.84,5.84,0,0,1,.541-2.575,3.955,3.955,0,0,1,1.578-1.727,4.763,4.763,0,0,1,2.461-.611,4.117,4.117,0,0,1,3.164,1.244,4.887,4.887,0,0,1,1.16,3.467v1.151h-5.889a2.135,2.135,0,0,0,.694,1.257,2.066,2.066,0,0,0,1.389.457,2.662,2.662,0,0,0,2.2-.984l1.354,1.6A3.784,3.784,0,0,1,149.41-.277,5.3,5.3,0,0,1,147.226.176ZM146.892-7.4q-1.3,0-1.547,1.723h2.988v-.229a1.467,1.467,0,0,0-.36-1.1A1.434,1.434,0,0,0,146.892-7.4ZM157.781,0a3.344,3.344,0,0,1-.281-.853A2.754,2.754,0,0,1,155.215.176a3.374,3.374,0,0,1-2.285-.813,2.588,2.588,0,0,1-.94-2.043,2.66,2.66,0,0,1,1.143-2.338,5.821,5.821,0,0,1,3.322-.791h.914v-.5q0-1.316-1.134-1.316a.927.927,0,0,0-1.055,1.042h-2.962a2.655,2.655,0,0,1,1.173-2.239,4.931,4.931,0,0,1,2.993-.86,4.323,4.323,0,0,1,2.874.888,3.086,3.086,0,0,1,1.081,2.435v4.21a4.311,4.311,0,0,0,.4,2V0Zm-1.854-1.934a1.652,1.652,0,0,0,.918-.237,1.487,1.487,0,0,0,.523-.536V-4.228h-.861q-1.547,0-1.547,1.389a.848.848,0,0,0,.272.655A.986.986,0,0,0,155.927-1.934Zm11.03-.738a.684.684,0,0,0-.4-.606,6.016,6.016,0,0,0-1.5-.475A6.853,6.853,0,0,1,163.23-4.4a3.062,3.062,0,0,1-1.1-.971,2.319,2.319,0,0,1-.378-1.31,2.628,2.628,0,0,1,1.081-2.158,4.453,4.453,0,0,1,2.83-.848,4.934,4.934,0,0,1,3.023.853,2.666,2.666,0,0,1,1.143,2.241H166.86q0-1.143-1.2-1.143a1.194,1.194,0,0,0-.782.259.8.8,0,0,0-.316.646.737.737,0,0,0,.387.642,3.654,3.654,0,0,0,1.235.4,10.671,10.671,0,0,1,1.49.378,2.706,2.706,0,0,1,2.145,2.646,2.491,2.491,0,0,1-1.156,2.118,5.068,5.068,0,0,1-2.993.817,5.172,5.172,0,0,1-2.18-.439,3.645,3.645,0,0,1-1.494-1.2,2.707,2.707,0,0,1-.536-1.591h2.769a1.145,1.145,0,0,0,.439.962,1.808,1.808,0,0,0,1.081.3,1.422,1.422,0,0,0,.91-.246A.787.787,0,0,0,166.957-2.672Z" transform="translate(692 1543)" fill="#12263f"/>
    <path id="Trazado_720622" data-name="Trazado 720622" d="M.967,0V-12.8H5.089a6.064,6.064,0,0,1,3.05.769,5.406,5.406,0,0,1,2.114,2.171,6.554,6.554,0,0,1,.769,3.142v.589a6.592,6.592,0,0,1-.743,3.151A5.429,5.429,0,0,1,8.187-.8a5.93,5.93,0,0,1-3.01.8ZM4.052-10.415v8.042H5.124a2.4,2.4,0,0,0,2.039-.945,4.63,4.63,0,0,0,.712-2.808V-6.68a4.592,4.592,0,0,0-.712-2.795,2.442,2.442,0,0,0-2.074-.94ZM15.592,0H12.621V-9.51h2.971ZM12.445-11.962A1.322,1.322,0,0,1,12.9-13a1.724,1.724,0,0,1,1.187-.4,1.724,1.724,0,0,1,1.187.4,1.322,1.322,0,0,1,.457,1.037,1.322,1.322,0,0,1-.457,1.037,1.724,1.724,0,0,1-1.187.4,1.724,1.724,0,0,1-1.187-.4A1.322,1.322,0,0,1,12.445-11.962Zm9.949,9.29a.684.684,0,0,0-.4-.606,6.016,6.016,0,0,0-1.5-.475A6.853,6.853,0,0,1,18.668-4.4a3.062,3.062,0,0,1-1.1-.971,2.319,2.319,0,0,1-.378-1.31,2.628,2.628,0,0,1,1.081-2.158,4.453,4.453,0,0,1,2.83-.848,4.934,4.934,0,0,1,3.023.853,2.666,2.666,0,0,1,1.143,2.241H22.3q0-1.143-1.2-1.143a1.194,1.194,0,0,0-.782.259A.8.8,0,0,0,20-6.829a.737.737,0,0,0,.387.642,3.654,3.654,0,0,0,1.235.4,10.671,10.671,0,0,1,1.49.378A2.706,2.706,0,0,1,25.251-2.76,2.491,2.491,0,0,1,24.1-.642,5.068,5.068,0,0,1,21.1.176a5.172,5.172,0,0,1-2.18-.439,3.645,3.645,0,0,1-1.494-1.2,2.707,2.707,0,0,1-.536-1.591h2.769a1.145,1.145,0,0,0,.439.962,1.808,1.808,0,0,0,1.081.3,1.422,1.422,0,0,0,.91-.246A.787.787,0,0,0,22.395-2.672Zm8.262.563a1.317,1.317,0,0,0,.967-.338,1.241,1.241,0,0,0,.334-.945h2.777A3.288,3.288,0,0,1,33.614-.826a4.168,4.168,0,0,1-2.887,1,4.22,4.22,0,0,1-3.27-1.3,5.125,5.125,0,0,1-1.2-3.6v-.123A5.792,5.792,0,0,1,26.793-7.4a3.872,3.872,0,0,1,1.534-1.7A4.573,4.573,0,0,1,30.7-9.686a4.116,4.116,0,0,1,2.944,1.028,3.647,3.647,0,0,1,1.09,2.786H31.957A1.626,1.626,0,0,0,31.6-7a1.244,1.244,0,0,0-.967-.4q-1.151,0-1.345,1.468a10.357,10.357,0,0,0-.062,1.283,4.068,4.068,0,0,0,.343,1.986A1.187,1.187,0,0,0,30.656-2.109Zm4.957-2.733a5.613,5.613,0,0,1,.554-2.536,3.96,3.96,0,0,1,1.591-1.709,4.791,4.791,0,0,1,2.435-.6,4.373,4.373,0,0,1,3.366,1.323,5.076,5.076,0,0,1,1.23,3.6v.105a4.925,4.925,0,0,1-1.235,3.529A4.384,4.384,0,0,1,40.21.176a4.434,4.434,0,0,1-3.261-1.217,4.761,4.761,0,0,1-1.327-3.3Zm2.962.185a3.538,3.538,0,0,0,.413,1.934,1.376,1.376,0,0,0,1.222.615q1.582,0,1.617-2.435v-.3q0-2.558-1.635-2.558-1.485,0-1.608,2.206Zm11.654-.167A6.421,6.421,0,0,1,50.7-7.374a3.821,3.821,0,0,1,1.362-1.709,3.591,3.591,0,0,1,2.065-.6,2.855,2.855,0,0,1,2.32,1l.105-.826h2.689V-.36a4.009,4.009,0,0,1-.584,2.184,3.75,3.75,0,0,1-1.692,1.424,6.219,6.219,0,0,1-2.566.5,5.365,5.365,0,0,1-2.026-.4,3.657,3.657,0,0,1-1.5-1.028L52.119.58a2.716,2.716,0,0,0,2.18.976A1.764,1.764,0,0,0,56.268-.466v-.3a2.781,2.781,0,0,1-2.153.94A3.437,3.437,0,0,1,51.3-1.156,5.517,5.517,0,0,1,50.229-4.72Zm2.971.185a3.383,3.383,0,0,0,.439,1.85,1.386,1.386,0,0,0,1.23.681,1.573,1.573,0,0,0,1.4-.642v-4a1.534,1.534,0,0,0-1.38-.65,1.4,1.4,0,0,0-1.239.708A3.858,3.858,0,0,0,53.2-4.641ZM65.531.176a4.889,4.889,0,0,1-3.542-1.305,4.507,4.507,0,0,1-1.354-3.4v-.246a5.84,5.84,0,0,1,.541-2.575,3.955,3.955,0,0,1,1.578-1.727,4.763,4.763,0,0,1,2.461-.611,4.117,4.117,0,0,1,3.164,1.244,4.887,4.887,0,0,1,1.16,3.467v1.151H63.65a2.135,2.135,0,0,0,.694,1.257,2.066,2.066,0,0,0,1.389.457,2.662,2.662,0,0,0,2.2-.984l1.354,1.6A3.784,3.784,0,0,1,67.715-.277,5.3,5.3,0,0,1,65.531.176ZM65.2-7.4q-1.3,0-1.547,1.723h2.988v-.229a1.467,1.467,0,0,0-.36-1.1A1.434,1.434,0,0,0,65.2-7.4Zm11.285.571-.976-.07a1.752,1.752,0,0,0-1.793.879V0H70.752V-9.51h2.777l.1,1.222a2.294,2.294,0,0,1,2.083-1.4,2.888,2.888,0,0,1,.826.105ZM80.35-9.51l.1,1.116a3.27,3.27,0,0,1,2.716-1.292A2.407,2.407,0,0,1,85.6-8.253a3.165,3.165,0,0,1,2.795-1.433q2.892,0,2.971,3.5V0H88.392V-6a1.813,1.813,0,0,0-.246-1.063,1.048,1.048,0,0,0-.9-.334,1.4,1.4,0,0,0-1.31.782l.009.123V0H82.978V-5.985a1.906,1.906,0,0,0-.237-1.081,1.045,1.045,0,0,0-.905-.334,1.42,1.42,0,0,0-1.3.782V0H77.572V-9.51ZM96.179,0H93.208V-9.51h2.971ZM93.032-11.962A1.322,1.322,0,0,1,93.489-13a1.724,1.724,0,0,1,1.187-.4,1.724,1.724,0,0,1,1.187.4,1.322,1.322,0,0,1,.457,1.037,1.322,1.322,0,0,1-.457,1.037,1.724,1.724,0,0,1-1.187.4,1.724,1.724,0,0,1-1.187-.4A1.322,1.322,0,0,1,93.032-11.962Zm7.69,2.452.1,1.116a3.225,3.225,0,0,1,2.716-1.292,2.713,2.713,0,0,1,2.219.888,4.226,4.226,0,0,1,.76,2.672V0h-2.971V-6a1.6,1.6,0,0,0-.29-1.059A1.342,1.342,0,0,0,102.2-7.4a1.413,1.413,0,0,0-1.292.686V0H97.945V-9.51ZM113.511,0a3.344,3.344,0,0,1-.281-.853A2.754,2.754,0,0,1,110.944.176a3.374,3.374,0,0,1-2.285-.813,2.588,2.588,0,0,1-.94-2.043,2.66,2.66,0,0,1,1.143-2.338,5.821,5.821,0,0,1,3.322-.791h.914v-.5q0-1.316-1.134-1.316a.927.927,0,0,0-1.055,1.042h-2.962a2.655,2.655,0,0,1,1.173-2.239,4.931,4.931,0,0,1,2.993-.86,4.323,4.323,0,0,1,2.874.888,3.086,3.086,0,0,1,1.081,2.435v4.21a4.311,4.311,0,0,0,.4,2V0Zm-1.854-1.934a1.652,1.652,0,0,0,.918-.237,1.487,1.487,0,0,0,.523-.536V-4.228h-.861q-1.547,0-1.547,1.389a.848.848,0,0,0,.272.655A.986.986,0,0,0,111.656-1.934ZM120.832,0h-2.971V-13.5h2.971Z" transform="translate(376 1338)" fill="#12263f"/>
    <path id="Trazado_720621" data-name="Trazado 720621" d="M5.651-7.242,8.007-12.8h3.331L7.216-4.6V0H4.087V-4.6L-.026-12.8H3.287ZM16.163.176a4.889,4.889,0,0,1-3.542-1.305,4.507,4.507,0,0,1-1.354-3.4v-.246a5.84,5.84,0,0,1,.541-2.575,3.955,3.955,0,0,1,1.578-1.727,4.763,4.763,0,0,1,2.461-.611,4.117,4.117,0,0,1,3.164,1.244,4.887,4.887,0,0,1,1.16,3.467v1.151H14.282a2.135,2.135,0,0,0,.694,1.257,2.066,2.066,0,0,0,1.389.457,2.662,2.662,0,0,0,2.2-.984l1.354,1.6A3.784,3.784,0,0,1,18.347-.277,5.3,5.3,0,0,1,16.163.176ZM15.829-7.4q-1.3,0-1.547,1.723h2.988v-.229a1.467,1.467,0,0,0-.36-1.1A1.434,1.434,0,0,0,15.829-7.4ZM24.161-9.51l.1,1.116a3.27,3.27,0,0,1,2.716-1.292,2.407,2.407,0,0,1,2.435,1.433A3.165,3.165,0,0,1,32.2-9.686q2.892,0,2.971,3.5V0H32.2V-6a1.813,1.813,0,0,0-.246-1.063,1.048,1.048,0,0,0-.9-.334,1.4,1.4,0,0,0-1.31.782l.009.123V0H26.789V-5.985a1.906,1.906,0,0,0-.237-1.081,1.045,1.045,0,0,0-.905-.334,1.42,1.42,0,0,0-1.3.782V0H21.384V-9.51ZM42.223,0a3.344,3.344,0,0,1-.281-.853A2.754,2.754,0,0,1,39.656.176a3.374,3.374,0,0,1-2.285-.813,2.588,2.588,0,0,1-.94-2.043,2.66,2.66,0,0,1,1.143-2.338A5.821,5.821,0,0,1,40.9-5.81h.914v-.5q0-1.316-1.134-1.316a.927.927,0,0,0-1.055,1.042H36.659a2.655,2.655,0,0,1,1.173-2.239,4.931,4.931,0,0,1,2.993-.86A4.323,4.323,0,0,1,43.7-8.8,3.086,3.086,0,0,1,44.78-6.363v4.21a4.311,4.311,0,0,0,.4,2V0ZM40.368-1.934a1.652,1.652,0,0,0,.918-.237,1.487,1.487,0,0,0,.523-.536V-4.228h-.861q-1.547,0-1.547,1.389a.848.848,0,0,0,.272.655A.986.986,0,0,0,40.368-1.934Z" transform="translate(428 1289)" fill="#12263f"/>
    <path id="Trazado_720620" data-name="Trazado 720620" d="M11.32-4.333a4.673,4.673,0,0,1-.721,2.36A4.35,4.35,0,0,1,8.75-.387a6.3,6.3,0,0,1-2.72.563A5.025,5.025,0,0,1,2.057-1.468,6.786,6.786,0,0,1,.606-6.108v-.633a7.746,7.746,0,0,1,.655-3.292,4.961,4.961,0,0,1,1.885-2.18,5.26,5.26,0,0,1,2.848-.769,5.516,5.516,0,0,1,3.744,1.226,4.844,4.844,0,0,1,1.608,3.379H8.271a2.292,2.292,0,0,0-.589-1.679,2.422,2.422,0,0,0-1.687-.51A1.843,1.843,0,0,0,4.307-9.7a5.536,5.536,0,0,0-.562,2.751v.905A6.125,6.125,0,0,0,4.258-3.12a1.882,1.882,0,0,0,1.771.879,2.369,2.369,0,0,0,1.626-.5,2.126,2.126,0,0,0,.6-1.591ZM15.539-8.49a2.964,2.964,0,0,1,2.426-1.2,2.956,2.956,0,0,1,2.373.932A4.186,4.186,0,0,1,21.155-6V0H18.185V-5.933a1.674,1.674,0,0,0-.308-1.112A1.322,1.322,0,0,0,16.831-7.4a1.424,1.424,0,0,0-1.292.58V0H12.577V-13.5h2.962ZM28.16,0a3.344,3.344,0,0,1-.281-.853A2.754,2.754,0,0,1,25.594.176a3.374,3.374,0,0,1-2.285-.813,2.588,2.588,0,0,1-.94-2.043,2.66,2.66,0,0,1,1.143-2.338,5.821,5.821,0,0,1,3.322-.791h.914v-.5q0-1.316-1.134-1.316a.927.927,0,0,0-1.055,1.042H22.6A2.655,2.655,0,0,1,23.77-8.825a4.931,4.931,0,0,1,2.993-.86,4.323,4.323,0,0,1,2.874.888,3.086,3.086,0,0,1,1.081,2.435v4.21a4.311,4.311,0,0,0,.4,2V0ZM26.306-1.934a1.652,1.652,0,0,0,.918-.237,1.487,1.487,0,0,0,.523-.536V-4.228h-.861q-1.547,0-1.547,1.389a.848.848,0,0,0,.272.655A.986.986,0,0,0,26.306-1.934ZM35.481,0H32.511V-13.5h2.971Zm7.181,0a3.344,3.344,0,0,1-.281-.853A2.754,2.754,0,0,1,40.1.176a3.374,3.374,0,0,1-2.285-.813,2.588,2.588,0,0,1-.94-2.043,2.66,2.66,0,0,1,1.143-2.338,5.821,5.821,0,0,1,3.322-.791h.914v-.5q0-1.316-1.134-1.316a.927.927,0,0,0-1.055,1.042H37.1a2.655,2.655,0,0,1,1.173-2.239,4.931,4.931,0,0,1,2.993-.86,4.323,4.323,0,0,1,2.874.888A3.086,3.086,0,0,1,45.22-6.363v4.21a4.311,4.311,0,0,0,.4,2V0ZM40.808-1.934a1.652,1.652,0,0,0,.918-.237,1.487,1.487,0,0,0,.523-.536V-4.228h-.861q-1.547,0-1.547,1.389a.848.848,0,0,0,.272.655A.986.986,0,0,0,40.808-1.934Zm9.545-.352h4.333V0H46.608V-1.652l4.219-5.572H46.793V-9.51h7.8v1.6ZM61.479,0A3.344,3.344,0,0,1,61.2-.853,2.754,2.754,0,0,1,58.913.176a3.374,3.374,0,0,1-2.285-.813,2.588,2.588,0,0,1-.94-2.043A2.66,2.66,0,0,1,56.83-5.019a5.821,5.821,0,0,1,3.322-.791h.914v-.5q0-1.316-1.134-1.316a.927.927,0,0,0-1.055,1.042H55.916a2.655,2.655,0,0,1,1.173-2.239,4.931,4.931,0,0,1,2.993-.86,4.323,4.323,0,0,1,2.874.888,3.086,3.086,0,0,1,1.081,2.435v4.21a4.311,4.311,0,0,0,.4,2V0ZM59.625-1.934a1.652,1.652,0,0,0,.918-.237,1.487,1.487,0,0,0,.523-.536V-4.228h-.861q-1.547,0-1.547,1.389a.848.848,0,0,0,.272.655A.986.986,0,0,0,59.625-1.934Zm11.03-.738a.684.684,0,0,0-.4-.606,6.016,6.016,0,0,0-1.5-.475A6.853,6.853,0,0,1,66.929-4.4a3.062,3.062,0,0,1-1.1-.971,2.319,2.319,0,0,1-.378-1.31,2.628,2.628,0,0,1,1.081-2.158,4.453,4.453,0,0,1,2.83-.848,4.934,4.934,0,0,1,3.023.853,2.666,2.666,0,0,1,1.143,2.241H70.559q0-1.143-1.2-1.143a1.194,1.194,0,0,0-.782.259.8.8,0,0,0-.316.646.737.737,0,0,0,.387.642,3.654,3.654,0,0,0,1.235.4,10.671,10.671,0,0,1,1.49.378A2.706,2.706,0,0,1,73.512-2.76,2.491,2.491,0,0,1,72.356-.642a5.068,5.068,0,0,1-2.993.817,5.172,5.172,0,0,1-2.18-.439,3.645,3.645,0,0,1-1.494-1.2,2.707,2.707,0,0,1-.536-1.591h2.769a1.145,1.145,0,0,0,.439.962,1.808,1.808,0,0,0,1.081.3,1.422,1.422,0,0,0,.91-.246A.787.787,0,0,0,70.655-2.672Z" transform="translate(451 1110)" fill="#12263f"/>
    <path id="Trazado_720619" data-name="Trazado 720619" d="M11.32-4.333a4.673,4.673,0,0,1-.721,2.36A4.35,4.35,0,0,1,8.75-.387a6.3,6.3,0,0,1-2.72.563A5.025,5.025,0,0,1,2.057-1.468,6.786,6.786,0,0,1,.606-6.108v-.633a7.746,7.746,0,0,1,.655-3.292,4.961,4.961,0,0,1,1.885-2.18,5.26,5.26,0,0,1,2.848-.769,5.516,5.516,0,0,1,3.744,1.226,4.844,4.844,0,0,1,1.608,3.379H8.271a2.292,2.292,0,0,0-.589-1.679,2.422,2.422,0,0,0-1.687-.51A1.843,1.843,0,0,0,4.307-9.7a5.536,5.536,0,0,0-.562,2.751v.905A6.125,6.125,0,0,0,4.258-3.12a1.882,1.882,0,0,0,1.771.879,2.369,2.369,0,0,0,1.626-.5,2.126,2.126,0,0,0,.6-1.591ZM18,0a3.344,3.344,0,0,1-.281-.853A2.754,2.754,0,0,1,15.434.176a3.374,3.374,0,0,1-2.285-.813,2.588,2.588,0,0,1-.94-2.043,2.66,2.66,0,0,1,1.143-2.338,5.821,5.821,0,0,1,3.322-.791h.914v-.5q0-1.316-1.134-1.316A.927.927,0,0,0,15.4-6.587H12.437A2.655,2.655,0,0,1,13.61-8.825a4.931,4.931,0,0,1,2.993-.86,4.323,4.323,0,0,1,2.874.888,3.086,3.086,0,0,1,1.081,2.435v4.21a4.311,4.311,0,0,0,.4,2V0ZM16.146-1.934a1.652,1.652,0,0,0,.918-.237,1.487,1.487,0,0,0,.523-.536V-4.228h-.861q-1.547,0-1.547,1.389a.848.848,0,0,0,.272.655A.986.986,0,0,0,16.146-1.934ZM16.884-13.5h3.129l-2.443,2.76-2.417,0ZM27.176-2.672a.684.684,0,0,0-.4-.606,6.016,6.016,0,0,0-1.5-.475A6.853,6.853,0,0,1,23.449-4.4a3.062,3.062,0,0,1-1.1-.971,2.319,2.319,0,0,1-.378-1.31,2.628,2.628,0,0,1,1.081-2.158,4.453,4.453,0,0,1,2.83-.848,4.934,4.934,0,0,1,3.023.853A2.666,2.666,0,0,1,30.05-6.592H27.079q0-1.143-1.2-1.143a1.194,1.194,0,0,0-.782.259.8.8,0,0,0-.316.646.737.737,0,0,0,.387.642,3.654,3.654,0,0,0,1.235.4,10.671,10.671,0,0,1,1.49.378A2.706,2.706,0,0,1,30.032-2.76,2.491,2.491,0,0,1,28.876-.642a5.068,5.068,0,0,1-2.993.817A5.172,5.172,0,0,1,23.7-.264a3.645,3.645,0,0,1-1.494-1.2,2.707,2.707,0,0,1-.536-1.591h2.769a1.145,1.145,0,0,0,.439.962,1.808,1.808,0,0,0,1.081.3,1.422,1.422,0,0,0,.91-.246A.787.787,0,0,0,27.176-2.672Zm8.262.563a1.317,1.317,0,0,0,.967-.338,1.241,1.241,0,0,0,.334-.945h2.777A3.288,3.288,0,0,1,38.4-.826a4.168,4.168,0,0,1-2.887,1,4.22,4.22,0,0,1-3.27-1.3,5.125,5.125,0,0,1-1.2-3.6v-.123A5.792,5.792,0,0,1,31.575-7.4a3.872,3.872,0,0,1,1.534-1.7,4.573,4.573,0,0,1,2.373-.593,4.116,4.116,0,0,1,2.944,1.028,3.647,3.647,0,0,1,1.09,2.786H36.738A1.626,1.626,0,0,0,36.378-7a1.244,1.244,0,0,0-.967-.4q-1.151,0-1.345,1.468A10.357,10.357,0,0,0,34-4.649a4.068,4.068,0,0,0,.343,1.986A1.187,1.187,0,0,0,35.438-2.109ZM46.125,0a3.344,3.344,0,0,1-.281-.853A2.754,2.754,0,0,1,43.559.176a3.374,3.374,0,0,1-2.285-.813,2.588,2.588,0,0,1-.94-2.043,2.66,2.66,0,0,1,1.143-2.338A5.821,5.821,0,0,1,44.8-5.81h.914v-.5q0-1.316-1.134-1.316a.927.927,0,0,0-1.055,1.042H40.562a2.655,2.655,0,0,1,1.173-2.239,4.931,4.931,0,0,1,2.993-.86A4.323,4.323,0,0,1,47.6-8.8a3.086,3.086,0,0,1,1.081,2.435v4.21a4.311,4.311,0,0,0,.4,2V0ZM44.271-1.934a1.652,1.652,0,0,0,.918-.237,1.487,1.487,0,0,0,.523-.536V-4.228h-.861q-1.547,0-1.547,1.389a.848.848,0,0,0,.272.655A.986.986,0,0,0,44.271-1.934Zm11.8-4.9L55.1-6.9a1.752,1.752,0,0,0-1.793.879V0H50.344V-9.51h2.777l.1,1.222a2.294,2.294,0,0,1,2.083-1.4,2.888,2.888,0,0,1,.826.105ZM62.235,0a3.344,3.344,0,0,1-.281-.853A2.754,2.754,0,0,1,59.669.176a3.374,3.374,0,0,1-2.285-.813,2.588,2.588,0,0,1-.94-2.043,2.66,2.66,0,0,1,1.143-2.338,5.821,5.821,0,0,1,3.322-.791h.914v-.5q0-1.316-1.134-1.316a.927.927,0,0,0-1.055,1.042H56.672a2.655,2.655,0,0,1,1.173-2.239,4.931,4.931,0,0,1,2.993-.86,4.323,4.323,0,0,1,2.874.888,3.086,3.086,0,0,1,1.081,2.435v4.21a4.311,4.311,0,0,0,.4,2V0ZM60.381-1.934a1.652,1.652,0,0,0,.918-.237,1.487,1.487,0,0,0,.523-.536V-4.228h-.861q-1.547,0-1.547,1.389a.848.848,0,0,0,.272.655A.986.986,0,0,0,60.381-1.934Z" transform="translate(542 1062)" fill="#12263f"/>
    <path id="Trazado_720626" data-name="Trazado 720626" d="M8.235-2.391H4.008L3.27,0h-3.3L4.667-12.8h2.9L12.3,0H8.982ZM4.746-4.772H7.5L6.117-9.211ZM16.216,0H13.245V-13.5h2.971ZM26.868-4.676A5.8,5.8,0,0,1,25.9-1.081,3.238,3.238,0,0,1,23.177.176,2.81,2.81,0,0,1,20.839-.976L20.716,0H18.062V-13.5h2.962v4.755a2.711,2.711,0,0,1,2.136-.94A3.239,3.239,0,0,1,25.9-8.411a5.826,5.826,0,0,1,.967,3.586ZM23.9-4.865a3.866,3.866,0,0,0-.365-1.952A1.229,1.229,0,0,0,22.412-7.4a1.418,1.418,0,0,0-1.389.763v3.773a1.426,1.426,0,0,0,1.406.755,1.258,1.258,0,0,0,1.327-1.018A7.309,7.309,0,0,0,23.9-4.865Zm9.94,3.836A3.054,3.054,0,0,1,31.3.176a3,3,0,0,1-2.369-.91,3.826,3.826,0,0,1-.8-2.615V-9.51h2.962v6.179a1.065,1.065,0,0,0,1.187,1.222,1.548,1.548,0,0,0,1.45-.729V-9.51H36.7V0H33.926ZM41.124-9.51l.1,1.116a3.27,3.27,0,0,1,2.716-1.292,2.407,2.407,0,0,1,2.435,1.433,3.165,3.165,0,0,1,2.795-1.433q2.892,0,2.971,3.5V0H49.166V-6a1.813,1.813,0,0,0-.246-1.063,1.048,1.048,0,0,0-.9-.334,1.4,1.4,0,0,0-1.31.782l.009.123V0H43.752V-5.985a1.906,1.906,0,0,0-.237-1.081,1.045,1.045,0,0,0-.905-.334,1.42,1.42,0,0,0-1.3.782V0H38.347V-9.51ZM58.43.176a4.889,4.889,0,0,1-3.542-1.305,4.507,4.507,0,0,1-1.354-3.4v-.246a5.84,5.84,0,0,1,.541-2.575,3.955,3.955,0,0,1,1.578-1.727,4.763,4.763,0,0,1,2.461-.611,4.117,4.117,0,0,1,3.164,1.244,4.887,4.887,0,0,1,1.16,3.467v1.151H56.549a2.135,2.135,0,0,0,.694,1.257,2.066,2.066,0,0,0,1.389.457,2.662,2.662,0,0,0,2.2-.984l1.354,1.6A3.784,3.784,0,0,1,60.614-.277,5.3,5.3,0,0,1,58.43.176ZM58.1-7.4q-1.3,0-1.547,1.723h2.988v-.229a1.467,1.467,0,0,0-.36-1.1A1.434,1.434,0,0,0,58.1-7.4ZM66.349-9.51l.1,1.116a3.225,3.225,0,0,1,2.716-1.292A2.713,2.713,0,0,1,71.38-8.8a4.226,4.226,0,0,1,.76,2.672V0H69.17V-6a1.6,1.6,0,0,0-.29-1.059A1.342,1.342,0,0,0,67.825-7.4a1.413,1.413,0,0,0-1.292.686V0H63.571V-9.51Zm18.536-1.828q-.756-.062-1.274-.062-1.723,0-1.723,1.345v.545h1.854v2.057H81.888V0H78.917V-7.453h-1.38V-9.51h1.38v-.615a3.284,3.284,0,0,1,1.1-2.632,4.716,4.716,0,0,1,3.133-.927q1.45,0,4.711.185V0H84.885Zm10.45,10.31a3.054,3.054,0,0,1-2.54,1.2,3,3,0,0,1-2.369-.91,3.826,3.826,0,0,1-.8-2.615V-9.51h2.962v6.179a1.065,1.065,0,0,0,1.187,1.222,1.548,1.548,0,0,0,1.45-.729V-9.51H98.2V0H95.423ZM102.946,0H99.976V-9.51h2.971ZM99.8-11.962A1.322,1.322,0,0,1,100.257-13a1.724,1.724,0,0,1,1.187-.4,1.724,1.724,0,0,1,1.187.4,1.322,1.322,0,0,1,.457,1.037,1.322,1.322,0,0,1-.457,1.037,1.724,1.724,0,0,1-1.187.4,1.724,1.724,0,0,1-1.187-.4A1.322,1.322,0,0,1,99.8-11.962Zm4.6,7.137a5.809,5.809,0,0,1,.976-3.56,3.211,3.211,0,0,1,2.725-1.3,2.731,2.731,0,0,1,2.145,1V-13.5h2.971V0h-2.663L110.4-1.02a2.8,2.8,0,0,1-2.32,1.2,3.205,3.205,0,0,1-2.689-1.3A5.993,5.993,0,0,1,104.4-4.825Zm2.962.185q0,2.531,1.477,2.531a1.458,1.458,0,0,0,1.406-.826V-6.557a1.419,1.419,0,0,0-1.389-.844q-1.371,0-1.485,2.215Zm7.163-.2a5.613,5.613,0,0,1,.554-2.536,3.96,3.96,0,0,1,1.591-1.709,4.791,4.791,0,0,1,2.435-.6,4.373,4.373,0,0,1,3.366,1.323,5.076,5.076,0,0,1,1.23,3.6v.105a4.925,4.925,0,0,1-1.235,3.529A4.384,4.384,0,0,1,119.118.176a4.434,4.434,0,0,1-3.261-1.217,4.761,4.761,0,0,1-1.327-3.3Zm2.962.185a3.538,3.538,0,0,0,.413,1.934,1.376,1.376,0,0,0,1.222.615q1.582,0,1.617-2.435v-.3q0-2.558-1.635-2.558-1.485,0-1.608,2.206ZM132.609,0h-2.971V-9.51h2.971Zm-3.146-11.962A1.322,1.322,0,0,1,129.92-13a1.724,1.724,0,0,1,1.187-.4,1.724,1.724,0,0,1,1.187.4,1.322,1.322,0,0,1,.457,1.037,1.322,1.322,0,0,1-.457,1.037,1.724,1.724,0,0,1-1.187.4,1.724,1.724,0,0,1-1.187-.4A1.322,1.322,0,0,1,129.463-11.962Zm7.69,2.452.1,1.116a3.225,3.225,0,0,1,2.716-1.292,2.713,2.713,0,0,1,2.219.888,4.226,4.226,0,0,1,.76,2.672V0h-2.971V-6a1.6,1.6,0,0,0-.29-1.059A1.342,1.342,0,0,0,138.63-7.4a1.413,1.413,0,0,0-1.292.686V0h-2.962V-9.51Zm10.881-2.364V-9.51H149.6v2.057h-1.564V-3.1a1.111,1.111,0,0,0,.193.747,1.037,1.037,0,0,0,.765.211,4.345,4.345,0,0,0,.738-.053V-.079a5.466,5.466,0,0,1-1.67.255A3.1,3.1,0,0,1,145.8-.545a2.954,2.954,0,0,1-.729-2.188v-4.72h-1.213V-9.51h1.213v-2.364Zm7.33,12.05a4.889,4.889,0,0,1-3.542-1.305,4.507,4.507,0,0,1-1.354-3.4v-.246a5.84,5.84,0,0,1,.541-2.575,3.955,3.955,0,0,1,1.578-1.727,4.763,4.763,0,0,1,2.461-.611,4.117,4.117,0,0,1,3.164,1.244,4.887,4.887,0,0,1,1.16,3.467v1.151h-5.889a2.135,2.135,0,0,0,.694,1.257,2.066,2.066,0,0,0,1.389.457,2.662,2.662,0,0,0,2.2-.984l1.354,1.6a3.784,3.784,0,0,1-1.569,1.217A5.3,5.3,0,0,1,155.364.176ZM155.03-7.4q-1.3,0-1.547,1.723h2.988v-.229a1.467,1.467,0,0,0-.36-1.1A1.434,1.434,0,0,0,155.03-7.4Zm11.285.571-.976-.07a1.752,1.752,0,0,0-1.793.879V0h-2.962V-9.51h2.777l.1,1.222a2.294,2.294,0,0,1,2.083-1.4,2.888,2.888,0,0,1,.826.105ZM170.1-9.51l.1,1.116a3.225,3.225,0,0,1,2.716-1.292,2.713,2.713,0,0,1,2.219.888,4.226,4.226,0,0,1,.76,2.672V0h-2.971V-6a1.6,1.6,0,0,0-.29-1.059A1.342,1.342,0,0,0,171.58-7.4a1.413,1.413,0,0,0-1.292.686V0h-2.962V-9.51Zm7.058,4.667a5.613,5.613,0,0,1,.554-2.536,3.96,3.96,0,0,1,1.591-1.709,4.791,4.791,0,0,1,2.435-.6,4.373,4.373,0,0,1,3.366,1.323,5.076,5.076,0,0,1,1.23,3.6v.105A4.925,4.925,0,0,1,185.1-1.129,4.384,4.384,0,0,1,181.758.176,4.434,4.434,0,0,1,178.5-1.042a4.761,4.761,0,0,1-1.327-3.3Zm2.962.185a3.538,3.538,0,0,0,.413,1.934,1.376,1.376,0,0,0,1.222.615q1.582,0,1.617-2.435v-.3q0-2.558-1.635-2.558-1.485,0-1.608,2.206Z" transform="translate(1019.641 1303.141)" fill="#b20d0d"/>
    <line id="Línea_2956" data-name="Línea 2956" x2="76" transform="translate(893.5 1145.5)" fill="none" stroke="#06d1d1" stroke-width="3"/>
    <line id="Línea_2957" data-name="Línea 2957" x2="76" transform="translate(919 1297)" fill="none" stroke="#b20d0d" stroke-width="3"/>
    <line id="Línea_2958" data-name="Línea 2958" x2="136" transform="translate(865.5 1370.5)" fill="none" stroke="#06d1d1" stroke-width="3"/>
    <line id="Línea_2959" data-name="Línea 2959" x2="156" transform="translate(808.5 1454.5)" fill="none" stroke="#06d1d1" stroke-width="3"/>
    <line id="Línea_2960" data-name="Línea 2960" y2="131" transform="translate(675.5 1406.5)" fill="none" stroke="#06d1d1" stroke-width="3"/>
    <line id="Línea_2961" data-name="Línea 2961" x1="232" transform="translate(516.5 1332.5)" fill="none" stroke="#06d1d1" stroke-width="3"/>
    <line id="Línea_2963" data-name="Línea 2963" x1="250" transform="translate(541.5 1104)" fill="none" stroke="#06d1d1" stroke-width="3"/>
    <line id="Línea_2962" data-name="Línea 2962" x1="257" transform="translate(491.5 1283.5)" fill="none" stroke="#b20d0d" stroke-width="3"/>
    <line id="Línea_2964" data-name="Línea 2964" x1="118.5" transform="translate(626.5 1055.5)" fill="none" stroke="#b20d0d" stroke-width="3"/>
  </g>
</svg>
