<svg xmlns="http://www.w3.org/2000/svg" xmlns:xlink="http://www.w3.org/1999/xlink" width="149.117" height="140" viewBox="0 0 149.117 140">
  <defs>
    <clipPath id="clip-path">
      <rect id="Rect치ngulo_344376" data-name="Rect치ngulo 344376" width="149.117" height="99.826" fill="none"/>
    </clipPath>
    <clipPath id="clip-path-3">
      <rect id="Rect치ngulo_344374" data-name="Rect치ngulo 344374" width="149.117" height="86.032" fill="none"/>
    </clipPath>
  </defs>
  <g id="Grupo_983946" data-name="Grupo 983946" transform="translate(-856.442 11160)">
    <circle id="Elipse_5842" data-name="Elipse 5842" cx="70" cy="70" r="70" transform="translate(861 -11160)" fill="#06d1d1"/>
    <g id="Grupo_983602" data-name="Grupo 983602" transform="translate(856.442 -11136.447)">
      <g id="Grupo_983601" data-name="Grupo 983601" clip-path="url(#clip-path)">
        <g id="Grupo_983600" data-name="Grupo 983600" transform="translate(0 0)">
          <g id="Grupo_983599" data-name="Grupo 983599" clip-path="url(#clip-path)">
            <g id="Grupo_983598" data-name="Grupo 983598" transform="translate(0 13.794)" style="mix-blend-mode: multiply;isolation: isolate">
              <g id="Grupo_983597" data-name="Grupo 983597">
                <g id="Grupo_983596" data-name="Grupo 983596" clip-path="url(#clip-path-3)">
                  <path id="Trazado_718207" data-name="Trazado 718207" d="M102.8,96.412,1.158,37.729a2.318,2.318,0,0,1,0-4.015L37.469,12.751a8.85,8.85,0,0,1,8.849,0L147.959,71.433a2.318,2.318,0,0,1,0,4.015L111.647,96.412a8.848,8.848,0,0,1-8.847,0" transform="translate(0 -11.565)" fill="#c9c9c4"/>
                </g>
              </g>
            </g>
            <path id="Trazado_718208" data-name="Trazado 718208" d="M102.761,63.632h0c-2.074,1.4-1.8,4.9.378,6.306l.074.048a12.377,12.377,0,0,0,13.213.379,3.9,3.9,0,0,0,.378-6.278l-.072-.052a12,12,0,0,0-13.971-.4" transform="translate(19.53 11.867)" fill="#b6a489"/>
            <path id="Trazado_718209" data-name="Trazado 718209" d="M98.182,57.495l4.056,11.325,16.284.576,4.12-11.247Z" transform="translate(18.92 11.08)" fill="#b6a489"/>
            <path id="Trazado_718210" data-name="Trazado 718210" d="M99.761,51.9h0c-3.074,2.393-2.451,8.221.855,10.5l.111.076a17.238,17.238,0,0,0,19.6.563c3.3-2.082,3.928-7.867.855-10.434l-.107-.089c-6.435-5.374-14.88-5.618-21.31-.612" transform="translate(18.84 9.309)" fill="#ab9790"/>
            <path id="Trazado_718211" data-name="Trazado 718211" d="M85.037,53.769h0c-2.074,1.4-1.8,4.9.378,6.306l.074.048A12.377,12.377,0,0,0,98.7,60.5a3.9,3.9,0,0,0,.378-6.278l-.072-.052a12,12,0,0,0-13.971-.4" transform="translate(16.114 9.967)" fill="#a38d86"/>
            <path id="Trazado_718212" data-name="Trazado 718212" d="M80.459,47.631l4.056,11.325,16.284.576,4.12-11.247Z" transform="translate(15.505 9.179)" fill="#a38d86"/>
            <path id="Trazado_718213" data-name="Trazado 718213" d="M82.038,42.035h0c-3.074,2.393-2.451,8.221.855,10.5l.111.076a17.238,17.238,0,0,0,19.6.563c3.3-2.082,3.928-7.867.855-10.434l-.107-.089c-6.435-5.374-14.88-5.618-21.31-.612" transform="translate(15.424 7.408)" fill="#ab9790"/>
            <path id="Trazado_718214" data-name="Trazado 718214" d="M67.314,43.687h0c-2.074,1.4-1.8,4.9.378,6.306l.074.048a12.377,12.377,0,0,0,13.213.379,3.9,3.9,0,0,0,.378-6.278l-.072-.052a12,12,0,0,0-13.971-.4" transform="translate(12.699 8.024)" fill="#a38d86"/>
            <path id="Trazado_718215" data-name="Trazado 718215" d="M62.736,37.549l4.056,11.325,16.284.576L87.2,38.2Z" transform="translate(12.09 7.236)" fill="#a38d86"/>
            <path id="Trazado_718216" data-name="Trazado 718216" d="M64.315,31.953h0c-3.074,2.393-2.451,8.221.855,10.5l.111.076a17.238,17.238,0,0,0,19.6.563c3.3-2.082,3.928-7.867.855-10.434l-.107-.089c-6.435-5.374-14.88-5.618-21.31-.612" transform="translate(12.009 5.465)" fill="#ab9790"/>
            <path id="Trazado_718217" data-name="Trazado 718217" d="M49.591,33.823h0c-2.074,1.4-1.8,4.9.378,6.306l.074.048a12.377,12.377,0,0,0,13.213.379,3.9,3.9,0,0,0,.378-6.278l-.072-.052a12,12,0,0,0-13.971-.4" transform="translate(9.284 6.123)" fill="#a38d86"/>
            <path id="Trazado_718218" data-name="Trazado 718218" d="M45.012,27.686,49.069,39.01l16.284.576,4.12-11.247Z" transform="translate(8.674 5.335)" fill="#a38d86"/>
            <path id="Trazado_718219" data-name="Trazado 718219" d="M46.592,22.089h0c-3.074,2.393-2.451,8.221.855,10.5l.111.076a17.238,17.238,0,0,0,19.6.563c3.3-2.082,3.928-7.867.855-10.434L67.9,22.7c-6.435-5.374-14.88-5.618-21.31-.612" transform="translate(8.594 3.564)" fill="#ab9790"/>
            <path id="Trazado_718220" data-name="Trazado 718220" d="M31.868,23.741h0c-2.074,1.4-1.8,4.9.378,6.306l.074.048a12.377,12.377,0,0,0,13.213.379A3.9,3.9,0,0,0,45.91,24.2l-.072-.052a12,12,0,0,0-13.971-.4" transform="translate(5.868 4.18)" fill="#a38d86"/>
            <path id="Trazado_718221" data-name="Trazado 718221" d="M27.289,17.6l4.056,11.326L47.63,29.5l4.12-11.247Z" transform="translate(5.259 3.392)" fill="#a38d86"/>
            <path id="Trazado_718222" data-name="Trazado 718222" d="M28.868,12.007h0c-3.074,2.393-2.451,8.221.855,10.5l.111.076a17.238,17.238,0,0,0,19.6.563c3.3-2.082,3.928-7.867.855-10.434l-.107-.089C43.743,7.244,35.3,7,28.868,12.007" transform="translate(5.178 1.621)" fill="#ab9790"/>
            <path id="Trazado_718223" data-name="Trazado 718223" d="M83.335,73.932h0c-2.074,1.4-1.8,4.9.378,6.306l.074.048A12.377,12.377,0,0,0,97,80.665a3.9,3.9,0,0,0,.378-6.278l-.072-.052a12,12,0,0,0-13.971-.4" transform="translate(15.786 13.852)" fill="#b6a489"/>
            <path id="Trazado_718224" data-name="Trazado 718224" d="M78.757,67.794,82.813,79.12,99.1,79.7l4.118-11.247Z" transform="translate(15.177 13.064)" fill="#b6a489"/>
            <path id="Trazado_718225" data-name="Trazado 718225" d="M80.336,62.2h0c-3.074,2.393-2.451,8.221.855,10.5l.112.076a17.238,17.238,0,0,0,19.595.563h0c3.3-2.082,3.926-7.867.854-10.434l-.107-.089c-6.435-5.374-14.88-5.618-21.31-.612" transform="translate(15.096 11.293)" fill="#ab9790"/>
            <path id="Trazado_718226" data-name="Trazado 718226" d="M65.612,64.069h0c-2.074,1.4-1.8,4.9.378,6.306l.074.048a12.377,12.377,0,0,0,13.213.379,3.9,3.9,0,0,0,.378-6.278l-.072-.052a12,12,0,0,0-13.971-.4" transform="translate(12.371 11.952)" fill="#b6a489"/>
            <path id="Trazado_718227" data-name="Trazado 718227" d="M61.033,57.931,65.09,69.256l16.284.576,4.118-11.247Z" transform="translate(11.761 11.164)" fill="#b6a489"/>
            <path id="Trazado_718228" data-name="Trazado 718228" d="M62.613,52.335h0c-3.075,2.393-2.451,8.221.855,10.5l.11.076a17.24,17.24,0,0,0,19.6.563c3.3-2.082,3.929-7.867.855-10.434l-.106-.089c-6.436-5.374-14.881-5.618-21.31-.612" transform="translate(11.681 9.393)" fill="#ab9790"/>
            <path id="Trazado_718229" data-name="Trazado 718229" d="M47.888,53.986h0c-2.074,1.4-1.8,4.9.378,6.306l.074.048a12.377,12.377,0,0,0,13.213.379,3.9,3.9,0,0,0,.378-6.278l-.072-.052a12,12,0,0,0-13.971-.4" transform="translate(8.956 10.009)" fill="#b6a489"/>
            <path id="Trazado_718230" data-name="Trazado 718230" d="M43.31,47.849l4.056,11.326,16.284.575L67.77,48.5Z" transform="translate(8.346 9.221)" fill="#b6a489"/>
            <path id="Trazado_718231" data-name="Trazado 718231" d="M44.889,42.252h0c-3.074,2.393-2.451,8.221.855,10.5l.111.076a17.24,17.24,0,0,0,19.6.563c3.3-2.082,3.928-7.867.855-10.434l-.107-.089c-6.435-5.374-14.88-5.618-21.31-.612" transform="translate(8.266 7.45)" fill="#ab9790"/>
            <path id="Trazado_718232" data-name="Trazado 718232" d="M30.165,44.123h0c-2.074,1.4-1.8,4.9.378,6.306l.074.048a12.377,12.377,0,0,0,13.213.379,3.9,3.9,0,0,0,.378-6.278l-.072-.052a12,12,0,0,0-13.971-.4" transform="translate(5.54 8.108)" fill="#b6a489"/>
            <path id="Trazado_718233" data-name="Trazado 718233" d="M25.587,37.985,29.643,49.31l16.284.576,4.12-11.247Z" transform="translate(4.931 7.32)" fill="#b6a489"/>
            <path id="Trazado_718234" data-name="Trazado 718234" d="M27.166,32.389h0c-3.074,2.393-2.451,8.221.855,10.5l.111.076a17.238,17.238,0,0,0,19.6.563c3.3-2.082,3.928-7.867.855-10.434L48.476,33c-6.435-5.374-14.88-5.618-21.31-.612" transform="translate(4.85 5.549)" fill="#ab9790"/>
            <path id="Trazado_718235" data-name="Trazado 718235" d="M12.442,34.041h0c-2.074,1.4-1.8,4.9.378,6.306l.074.048a12.377,12.377,0,0,0,13.213.379,3.9,3.9,0,0,0,.378-6.278l-.072-.052a12,12,0,0,0-13.971-.4" transform="translate(2.125 6.165)" fill="#b6a489"/>
            <path id="Trazado_718236" data-name="Trazado 718236" d="M7.863,27.9,11.92,39.228,28.2,39.8l4.12-11.247Z" transform="translate(1.515 5.377)" fill="#b6a489"/>
            <path id="Trazado_718237" data-name="Trazado 718237" d="M9.443,22.307h0C6.369,24.7,6.992,30.528,10.3,32.8l.111.076a17.238,17.238,0,0,0,19.6.563c3.3-2.082,3.928-7.867.855-10.434l-.107-.089c-6.435-5.374-14.88-5.618-21.31-.612" transform="translate(1.435 3.606)" fill="#ab9790"/>
            <path id="Trazado_718238" data-name="Trazado 718238" d="M25.049,45.356l1.095-7.943,8.845-5.106L32.4,41.112Z" transform="translate(4.827 6.226)" fill="#ac997c"/>
            <path id="Trazado_718239" data-name="Trazado 718239" d="M26.662,45.565l-7.4-4.27L16.677,31.224l11.08,6.4Z" transform="translate(3.214 6.017)" fill="#a69274"/>
            <path id="Trazado_718240" data-name="Trazado 718240" d="M42.536,55.2l1.095-7.943,8.845-5.106-2.591,8.806Z" transform="translate(8.197 8.122)" fill="#ac997c"/>
            <path id="Trazado_718241" data-name="Trazado 718241" d="M44.149,55.406l-7.4-4.27L34.164,41.065l11.08,6.4Z" transform="translate(6.584 7.914)" fill="#a69274"/>
            <path id="Trazado_718242" data-name="Trazado 718242" d="M60.023,65.04,61.118,57.1l8.845-5.106L67.372,60.8Z" transform="translate(11.567 10.019)" fill="#ac997c"/>
            <path id="Trazado_718243" data-name="Trazado 718243" d="M61.636,65.248l-7.4-4.27L51.651,50.907l11.08,6.4Z" transform="translate(9.953 9.81)" fill="#a69274"/>
            <path id="Trazado_718244" data-name="Trazado 718244" d="M77.51,74.881,78.6,66.938l8.845-5.107-2.591,8.807Z" transform="translate(14.937 11.915)" fill="#ac997c"/>
            <path id="Trazado_718245" data-name="Trazado 718245" d="M79.123,75.09l-7.4-4.27L69.138,60.749l11.08,6.4Z" transform="translate(13.323 11.707)" fill="#a69274"/>
            <path id="Trazado_718246" data-name="Trazado 718246" d="M48.759,45.356l1.095-7.943L58.7,32.307l-2.591,8.806Z" transform="translate(9.396 6.226)" fill="#ab9790"/>
            <path id="Trazado_718247" data-name="Trazado 718247" d="M50.372,45.565l-7.4-4.27L40.387,31.224l11.08,6.4Z" transform="translate(7.783 6.017)" fill="#dbcbc5"/>
            <path id="Trazado_718248" data-name="Trazado 718248" d="M66.246,55.2l1.095-7.943,8.845-5.106L73.6,50.954Z" transform="translate(12.766 8.122)" fill="#ab9889"/>
            <path id="Trazado_718249" data-name="Trazado 718249" d="M67.86,55.406l-7.4-4.27L57.874,41.065l11.08,6.4Z" transform="translate(11.153 7.914)" fill="#c9b8aa"/>
            <path id="Trazado_718250" data-name="Trazado 718250" d="M83.733,65.04,84.828,57.1l8.845-5.106L91.083,60.8Z" transform="translate(16.136 10.019)" fill="#ac9883"/>
            <path id="Trazado_718251" data-name="Trazado 718251" d="M85.347,65.248l-7.4-4.27L75.361,50.907l11.08,6.4Z" transform="translate(14.523 9.81)" fill="#b8a58f"/>
            <path id="Trazado_718252" data-name="Trazado 718252" d="M101.22,74.881l1.095-7.943,8.845-5.107-2.591,8.807Z" transform="translate(19.506 11.915)" fill="#ac997c"/>
            <path id="Trazado_718253" data-name="Trazado 718253" d="M102.834,75.09l-7.4-4.27L92.848,60.749l11.08,6.4Z" transform="translate(17.892 11.707)" fill="#a69274"/>
            <path id="Trazado_718254" data-name="Trazado 718254" d="M102.8,89.327,1.158,30.644a2.318,2.318,0,0,1,0-4.015L37.469,5.666a8.85,8.85,0,0,1,8.849,0L147.959,64.348a2.318,2.318,0,0,1,0,4.015L111.647,89.327a8.848,8.848,0,0,1-8.847,0" transform="translate(0 0.863)" fill="#ab9790"/>
            <path id="Trazado_718255" data-name="Trazado 718255" d="M102.8,88.185,1.158,29.5a2.318,2.318,0,0,1,0-4.015L37.469,4.524a8.85,8.85,0,0,1,8.849,0L147.959,63.206a2.318,2.318,0,0,1,0,4.015L111.647,88.185a8.848,8.848,0,0,1-8.847,0" transform="translate(0 0.643)" fill="#ebd4be"/>
            <path id="Trazado_718256" data-name="Trazado 718256" d="M147.958,63.207,46.318,4.525a8.85,8.85,0,0,0-8.849,0L1.158,25.489a2.318,2.318,0,0,0,0,4.015L102.8,88.186a8.848,8.848,0,0,0,8.847,0l36.311-20.964a2.317,2.317,0,0,0,0-4.015m-1.046,3.641L111.25,87.437a8.685,8.685,0,0,1-8.689,0L2.739,29.805a2.276,2.276,0,0,1,0-3.943L38.4,5.272a8.693,8.693,0,0,1,8.69,0l99.822,57.633a2.277,2.277,0,0,1,0,3.943" transform="translate(0 0.643)" fill="#f4e7db"/>
            <path id="Trazado_718257" data-name="Trazado 718257" d="M20.927,17.857h-1.97l-3.409-1.93,3.262-2.818-.99,2.954Z" transform="translate(2.996 2.526)" fill="#ccac94"/>
            <path id="Trazado_718258" data-name="Trazado 718258" d="M22.74,10.027l2.28,1.317L20.933,13.7l-2.28-1.317Z" transform="translate(3.595 1.932)" fill="#e8ccb5"/>
            <path id="Trazado_718259" data-name="Trazado 718259" d="M21.165,13.322l-.6,4.748-3.107-1.794,1.431-4.271Z" transform="translate(3.363 2.313)" fill="#c5b29c"/>
            <path id="Trazado_718260" data-name="Trazado 718260" d="M20.663,13.491l4.087-2.36L26.182,14.7l-6.125,3.536Z" transform="translate(3.865 2.145)" fill="#b59e86"/>
            <path id="Trazado_718261" data-name="Trazado 718261" d="M105.871,46.078H103.9l-5.983-3.554,2.675-2.094-.847,2.112Z" transform="translate(18.869 7.791)" fill="#ccac94"/>
            <path id="Trazado_718262" data-name="Trazado 718262" d="M102.932,38.1l-2.28,1.317,4.087,2.36,2.28-1.317Z" transform="translate(19.396 7.343)" fill="#e8ccb5"/>
            <path id="Trazado_718263" data-name="Trazado 718263" d="M104.078,41.4l.6,4.748,3.107-1.794-1.431-4.271Z" transform="translate(20.057 7.724)" fill="#c5b29c"/>
            <path id="Trazado_718264" data-name="Trazado 718264" d="M104.97,41.566l-4.087-2.36L99.45,42.778l6.125,3.536Z" transform="translate(19.165 7.555)" fill="#b59e86"/>
            <path id="Trazado_718265" data-name="Trazado 718265" d="M88.651,36.21h-1.97L80.7,32.655l2.675-2.094-.847,2.112Z" transform="translate(15.551 5.889)" fill="#ccac94"/>
            <path id="Trazado_718266" data-name="Trazado 718266" d="M85.712,28.233l-2.28,1.317,4.087,2.36,2.28-1.317Z" transform="translate(16.078 5.441)" fill="#e8ccb5"/>
            <path id="Trazado_718267" data-name="Trazado 718267" d="M86.859,31.529l.6,4.748,3.107-1.794-1.431-4.271Z" transform="translate(16.738 5.822)" fill="#c5b29c"/>
            <path id="Trazado_718268" data-name="Trazado 718268" d="M87.75,31.7l-4.087-2.36-1.431,3.572,6.123,3.536Z" transform="translate(15.847 5.653)" fill="#b59e86"/>
            <path id="Trazado_718269" data-name="Trazado 718269" d="M71.311,26.253h-1.97L63.358,22.7,66.033,20.6l-.847,2.112Z" transform="translate(12.209 3.971)" fill="#ccac94"/>
            <path id="Trazado_718270" data-name="Trazado 718270" d="M68.372,18.277l-2.28,1.317,4.087,2.36,2.28-1.317Z" transform="translate(12.736 3.522)" fill="#e8ccb5"/>
            <path id="Trazado_718271" data-name="Trazado 718271" d="M69.519,21.572l.6,4.748,3.107-1.794L71.8,20.256Z" transform="translate(13.397 3.903)" fill="#c5b29c"/>
            <path id="Trazado_718272" data-name="Trazado 718272" d="M70.411,21.741l-4.087-2.36-1.432,3.572,6.125,3.536Z" transform="translate(12.505 3.735)" fill="#b59e86"/>
            <path id="Trazado_718273" data-name="Trazado 718273" d="M51.172,8.414,48.891,9.73l4.087,2.36,2.28-1.317Z" transform="translate(9.422 1.621)" fill="#e8ccb5"/>
            <path id="Trazado_718274" data-name="Trazado 718274" d="M52.318,11.709l.6,4.748,3.107-1.794L54.6,10.392Z" transform="translate(10.082 2.003)" fill="#c5b29c"/>
            <path id="Trazado_718275" data-name="Trazado 718275" d="M53.21,11.878l-4.087-2.36L47.69,13.089l6.125,3.536Z" transform="translate(9.19 1.834)" fill="#b59e86"/>
            <path id="Trazado_718276" data-name="Trazado 718276" d="M54.111,16.39H52.14l-5.983-3.554,2.675-2.094-.847,2.112Z" transform="translate(8.895 2.07)" fill="#ccac94"/>
            <path id="Trazado_718277" data-name="Trazado 718277" d="M26.224,30.994c-4.532,2.617-11.906,2.6-16.466-.03s-4.585-6.89-.051-9.507,11.9-2.6,16.466.03,4.585,6.89.051,9.507" transform="translate(1.218 3.758)" fill="#ccac94"/>
            <path id="Trazado_718278" data-name="Trazado 718278" d="M43.812,40.8c-4.533,2.617-11.906,2.6-16.466-.03s-4.585-6.89-.052-9.507,11.906-2.6,16.468.03,4.585,6.89.051,9.507" transform="translate(4.607 5.647)" fill="#ccac94"/>
            <path id="Trazado_718279" data-name="Trazado 718279" d="M61.4,50.6c-4.533,2.617-11.906,2.6-16.466-.03s-4.585-6.89-.051-9.507,11.9-2.6,16.466.03,4.585,6.89.051,9.507" transform="translate(7.997 7.537)" fill="#ccac94"/>
            <path id="Trazado_718280" data-name="Trazado 718280" d="M78.989,60.4c-4.533,2.617-11.906,2.6-16.467-.03s-4.585-6.89-.052-9.507,11.906-2.6,16.468.03,4.585,6.89.051,9.507" transform="translate(11.386 9.426)" fill="#ccac94"/>
            <path id="Trazado_718281" data-name="Trazado 718281" d="M96.578,70.207c-4.533,2.617-11.906,2.6-16.466-.03s-4.585-6.89-.052-9.507,11.9-2.6,16.466.03,4.585,6.89.052,9.507" transform="translate(14.776 11.315)" fill="#ccac94"/>
            <path id="Trazado_718282" data-name="Trazado 718282" d="M45.745,21.131c-4.533,2.617-11.906,2.6-16.466-.03s-4.585-6.89-.052-9.507,11.906-2.6,16.468.03,4.584,6.89.051,9.507" transform="translate(4.98 1.858)" fill="#ccac94"/>
            <path id="Trazado_718283" data-name="Trazado 718283" d="M63.333,30.934c-4.533,2.617-11.906,2.6-16.466-.03s-4.585-6.89-.052-9.507,11.906-2.6,16.468.03,4.585,6.89.051,9.507" transform="translate(8.369 3.747)" fill="#ccac94"/>
            <path id="Trazado_718284" data-name="Trazado 718284" d="M80.922,40.737c-4.533,2.617-11.906,2.6-16.466-.03s-4.585-6.89-.052-9.507,11.906-2.6,16.468.03,4.584,6.89.051,9.507" transform="translate(11.759 5.636)" fill="#ccac94"/>
            <path id="Trazado_718285" data-name="Trazado 718285" d="M98.51,50.541c-4.533,2.617-11.906,2.6-16.466-.03s-4.585-6.89-.051-9.507,11.9-2.6,16.466.03,4.585,6.89.051,9.507" transform="translate(15.148 7.525)" fill="#ccac94"/>
            <path id="Trazado_718286" data-name="Trazado 718286" d="M116.1,60.344c-4.533,2.617-11.906,2.6-16.466-.03s-4.585-6.89-.052-9.507,11.906-2.6,16.468.03,4.585,6.89.051,9.507" transform="translate(18.537 9.414)" fill="#ccac94"/>
            <path id="Trazado_718287" data-name="Trazado 718287" d="M47.934,21.131c-4.533,2.617-11.906,2.6-16.466-.03s-4.585-6.89-.052-9.507,11.906-2.6,16.468.03,4.584,6.89.051,9.507" transform="translate(5.402 1.858)" fill="#cca48d"/>
            <path id="Trazado_718288" data-name="Trazado 718288" d="M49.88,18.44a7.066,7.066,0,0,1-2.558,2.338c-4.26,2.458-11.189,2.446-15.474-.027A6.51,6.51,0,0,1,28.9,17.673a3.758,3.758,0,0,1-.007-2.814,6.4,6.4,0,0,1,2.91-3.043c4.26-2.461,11.189-2.449,15.474.027a6.361,6.361,0,0,1,3.016,3.247,3.845,3.845,0,0,1-.409,3.349" transform="translate(5.515 1.923)" fill="#937971"/>
            <path id="Trazado_718289" data-name="Trazado 718289" d="M50.258,16.9c0,.038,0,.079,0,.117a14.158,14.158,0,0,1-.408,3.348,7.068,7.068,0,0,1-2.56,2.337,16.817,16.817,0,0,1-10.373,1.647,14.4,14.4,0,0,1-5.1-1.673A6.5,6.5,0,0,1,28.861,19.6c-.042-.448-.062-.915-.062-1.4q0-.691.056-1.419C29.411,9.663,33.978.347,39.526.008a5.113,5.113,0,0,1,1.209.073h.008C46.1,1.032,50.258,10.17,50.258,16.9" transform="translate(5.55 0)" fill="#ffd3b4"/>
            <path id="Trazado_718290" data-name="Trazado 718290" d="M33.191,9.276a18.186,18.186,0,0,0,3.724,15.071,14.408,14.408,0,0,1-5.1-1.672A6.514,6.514,0,0,1,28.86,19.6c-.041-.448-.061-.915-.061-1.4q0-.691.056-1.419C29.411,9.663,33.978.347,39.526.009a5.037,5.037,0,0,1,1.208.073C40.478.064,35.04-.21,33.191,9.276" transform="translate(5.55 0)" fill="#ffc095"/>
            <path id="Trazado_718291" data-name="Trazado 718291" d="M39.029.783h0A1.617,1.617,0,0,0,36.988,2.7l.01.042a6.883,6.883,0,0,0,4.715,5.013,1.618,1.618,0,0,0,2.041-1.92L43.742,5.8A6.878,6.878,0,0,0,39.029.783" transform="translate(7.119 0.137)" fill="#ffeada"/>
            <path id="Trazado_718292" data-name="Trazado 718292" d="M65.522,30.934c-4.533,2.617-11.906,2.6-16.466-.03S44.471,24.014,49,21.4s11.906-2.6,16.468.03,4.585,6.89.051,9.507" transform="translate(8.791 3.747)" fill="#cca48d"/>
            <path id="Trazado_718293" data-name="Trazado 718293" d="M67.469,28.243a7.066,7.066,0,0,1-2.558,2.338c-4.26,2.458-11.189,2.446-15.474-.027a6.51,6.51,0,0,1-2.952-3.077,3.749,3.749,0,0,1-.007-2.812,6.387,6.387,0,0,1,2.91-3.044c4.26-2.461,11.189-2.449,15.474.027a6.361,6.361,0,0,1,3.016,3.247,3.845,3.845,0,0,1-.409,3.349" transform="translate(8.904 3.812)" fill="#937971"/>
            <path id="Trazado_718294" data-name="Trazado 718294" d="M67.846,26.7c0,.038,0,.079,0,.117a14.09,14.09,0,0,1-.407,3.348,7.068,7.068,0,0,1-2.56,2.337A16.819,16.819,0,0,1,54.5,34.15a14.385,14.385,0,0,1-5.1-1.673A6.5,6.5,0,0,1,46.448,29.4c-.041-.448-.061-.915-.061-1.4q0-.691.056-1.419C47,19.466,51.565,10.138,57.114,9.811a5.051,5.051,0,0,1,1.209.073h.008c5.353.951,9.514,10.089,9.514,16.817" transform="translate(8.939 1.889)" fill="#ffd3b4"/>
            <path id="Trazado_718295" data-name="Trazado 718295" d="M50.779,19.079A18.186,18.186,0,0,0,54.5,34.15a14.408,14.408,0,0,1-5.1-1.672A6.514,6.514,0,0,1,46.448,29.4c-.041-.448-.061-.915-.061-1.4q0-.691.056-1.419C47,19.466,51.565,10.138,57.114,9.813a4.99,4.99,0,0,1,1.209.073c-.256-.018-5.7-.292-7.545,9.193" transform="translate(8.939 1.889)" fill="#ffc095"/>
            <path id="Trazado_718296" data-name="Trazado 718296" d="M56.617,10.586h0a1.617,1.617,0,0,0-2.041,1.919l.01.042A6.883,6.883,0,0,0,59.3,17.56a1.619,1.619,0,0,0,2.041-1.92l-.01-.042a6.882,6.882,0,0,0-4.715-5.012" transform="translate(10.509 2.026)" fill="#ffeada"/>
            <path id="Trazado_718297" data-name="Trazado 718297" d="M83.111,40.737c-4.533,2.617-11.906,2.6-16.466-.03s-4.585-6.89-.052-9.507,11.906-2.6,16.468.03,4.585,6.89.051,9.507" transform="translate(12.18 5.636)" fill="#cca48d"/>
            <path id="Trazado_718298" data-name="Trazado 718298" d="M85.057,38.047A7.066,7.066,0,0,1,82.5,40.385c-4.26,2.458-11.189,2.446-15.474-.027a6.505,6.505,0,0,1-2.952-3.077,3.749,3.749,0,0,1-.007-2.812,6.387,6.387,0,0,1,2.91-3.044c4.26-2.461,11.189-2.449,15.474.027A6.361,6.361,0,0,1,85.466,34.7a3.845,3.845,0,0,1-.409,3.349" transform="translate(12.294 5.701)" fill="#937971"/>
            <path id="Trazado_718299" data-name="Trazado 718299" d="M85.434,36.505c0,.038,0,.079,0,.117a14.1,14.1,0,0,1-.409,3.348,7.053,7.053,0,0,1-2.558,2.337,16.817,16.817,0,0,1-10.373,1.647,14.383,14.383,0,0,1-5.1-1.673A6.5,6.5,0,0,1,64.037,39.2c-.042-.448-.062-.915-.062-1.4q0-.691.056-1.419c.556-7.118,5.121-16.446,10.671-16.773a5.051,5.051,0,0,1,1.209.073h.008c5.353.951,9.514,10.089,9.514,16.817" transform="translate(12.328 3.778)" fill="#ffd3b4"/>
            <path id="Trazado_718300" data-name="Trazado 718300" d="M68.368,28.882a18.186,18.186,0,0,0,3.724,15.071,14.408,14.408,0,0,1-5.1-1.672A6.514,6.514,0,0,1,64.037,39.2q-.061-.674-.061-1.4,0-.691.055-1.419c.557-7.119,5.123-16.447,10.671-16.773a5,5,0,0,1,1.211.073c-.258-.018-5.7-.292-7.545,9.193" transform="translate(12.329 3.778)" fill="#ffc095"/>
            <path id="Trazado_718301" data-name="Trazado 718301" d="M74.2,20.39h0a1.617,1.617,0,0,0-2.041,1.919l.01.042a6.883,6.883,0,0,0,4.715,5.013,1.618,1.618,0,0,0,2.041-1.92l-.01-.042A6.882,6.882,0,0,0,74.2,20.39" transform="translate(13.898 3.916)" fill="#ffeada"/>
            <path id="Trazado_718302" data-name="Trazado 718302" d="M100.7,50.541c-4.533,2.617-11.906,2.6-16.466-.03s-4.585-6.89-.051-9.507,11.9-2.6,16.466.03,4.585,6.89.051,9.507" transform="translate(15.57 7.525)" fill="#cca48d"/>
            <path id="Trazado_718303" data-name="Trazado 718303" d="M102.646,47.85a7.066,7.066,0,0,1-2.558,2.338c-4.26,2.458-11.189,2.446-15.474-.027a6.505,6.505,0,0,1-2.952-3.077,3.749,3.749,0,0,1-.007-2.812,6.387,6.387,0,0,1,2.91-3.044c4.26-2.461,11.189-2.449,15.474.027a6.361,6.361,0,0,1,3.016,3.247,3.845,3.845,0,0,1-.409,3.349" transform="translate(15.683 7.591)" fill="#937971"/>
            <path id="Trazado_718304" data-name="Trazado 718304" d="M103.023,46.308c0,.038,0,.079,0,.117a14.1,14.1,0,0,1-.408,3.348,7.068,7.068,0,0,1-2.56,2.337A16.817,16.817,0,0,1,89.68,53.757a14.391,14.391,0,0,1-5.1-1.673,6.5,6.5,0,0,1-2.954-3.077c-.042-.448-.062-.915-.062-1.4q0-.691.056-1.419c.556-7.118,5.121-16.446,10.671-16.773a5.051,5.051,0,0,1,1.209.073h.008c5.353.951,9.514,10.089,9.514,16.817" transform="translate(15.718 5.667)" fill="#ffd3b4"/>
            <path id="Trazado_718305" data-name="Trazado 718305" d="M85.956,38.686a18.186,18.186,0,0,0,3.724,15.071,14.408,14.408,0,0,1-5.1-1.672,6.514,6.514,0,0,1-2.956-3.077c-.041-.448-.061-.915-.061-1.4q0-.691.056-1.419c.556-7.119,5.121-16.447,10.67-16.773a4.983,4.983,0,0,1,1.209.073c-.256-.018-5.694-.292-7.544,9.193" transform="translate(15.718 5.667)" fill="#ffc095"/>
            <path id="Trazado_718306" data-name="Trazado 718306" d="M91.794,30.193h0a1.617,1.617,0,0,0-2.041,1.919l.01.042a6.883,6.883,0,0,0,4.715,5.013,1.619,1.619,0,0,0,2.041-1.92l-.01-.042a6.882,6.882,0,0,0-4.715-5.012" transform="translate(17.287 5.805)" fill="#ffeada"/>
            <path id="Trazado_718307" data-name="Trazado 718307" d="M118.287,60.344c-4.533,2.617-11.906,2.6-16.466-.03s-4.585-6.89-.051-9.507,11.9-2.6,16.466.03,4.585,6.89.051,9.507" transform="translate(18.959 9.414)" fill="#cca48d"/>
            <path id="Trazado_718308" data-name="Trazado 718308" d="M120.234,57.653a7.066,7.066,0,0,1-2.558,2.338c-4.26,2.458-11.189,2.446-15.474-.027a6.51,6.51,0,0,1-2.952-3.077,3.749,3.749,0,0,1-.007-2.812,6.387,6.387,0,0,1,2.91-3.044c4.26-2.461,11.189-2.449,15.474.027a6.361,6.361,0,0,1,3.016,3.247,3.845,3.845,0,0,1-.409,3.349" transform="translate(19.073 9.48)" fill="#937971"/>
            <path id="Trazado_718309" data-name="Trazado 718309" d="M120.611,56.112c0,.038,0,.079,0,.117a14.1,14.1,0,0,1-.408,3.348,7.068,7.068,0,0,1-2.56,2.337,16.817,16.817,0,0,1-10.373,1.647,14.391,14.391,0,0,1-5.1-1.673,6.5,6.5,0,0,1-2.954-3.077c-.042-.448-.062-.915-.062-1.4q0-.691.056-1.419c.556-7.119,5.123-16.434,10.671-16.773a5.113,5.113,0,0,1,1.209.073h.008c5.353.951,9.514,10.089,9.514,16.817" transform="translate(19.107 7.557)" fill="#ffd3b4"/>
            <path id="Trazado_718310" data-name="Trazado 718310" d="M103.544,48.489a18.186,18.186,0,0,0,3.724,15.071,14.408,14.408,0,0,1-5.1-1.672,6.514,6.514,0,0,1-2.956-3.077q-.061-.674-.061-1.4,0-.691.056-1.419c.556-7.119,5.123-16.435,10.67-16.773a5.057,5.057,0,0,1,1.211.073c-.258-.018-5.7-.292-7.545,9.193" transform="translate(19.107 7.557)" fill="#ffc095"/>
            <path id="Trazado_718311" data-name="Trazado 718311" d="M109.382,40h0a1.617,1.617,0,0,0-2.041,1.919l.01.042a6.883,6.883,0,0,0,4.715,5.013,1.618,1.618,0,0,0,2.041-1.92l-.01-.042A6.882,6.882,0,0,0,109.382,40" transform="translate(20.677 7.694)" fill="#ffeada"/>
            <path id="Trazado_718312" data-name="Trazado 718312" d="M28.487,30.994c-4.533,2.617-11.906,2.6-16.466-.03s-4.585-6.89-.052-9.507,11.906-2.6,16.468.03,4.585,6.89.051,9.507" transform="translate(1.654 3.758)" fill="#cca48d"/>
            <path id="Trazado_718313" data-name="Trazado 718313" d="M30.434,28.3a7.066,7.066,0,0,1-2.558,2.338c-4.26,2.458-11.189,2.446-15.474-.027A6.51,6.51,0,0,1,9.45,27.536a3.749,3.749,0,0,1-.007-2.812,6.387,6.387,0,0,1,2.91-3.044c4.26-2.461,11.189-2.449,15.474.027a6.361,6.361,0,0,1,3.016,3.247,3.845,3.845,0,0,1-.409,3.349" transform="translate(1.768 3.824)" fill="#937971"/>
            <path id="Trazado_718314" data-name="Trazado 718314" d="M30.811,26.761c0,.038,0,.079,0,.117a14.09,14.09,0,0,1-.407,3.348,7.068,7.068,0,0,1-2.56,2.337A16.819,16.819,0,0,1,17.467,34.21a14.385,14.385,0,0,1-5.1-1.673,6.5,6.5,0,0,1-2.956-3.077c-.041-.448-.061-.915-.061-1.4q0-.691.056-1.419c.556-7.118,5.123-16.434,10.671-16.773a5.113,5.113,0,0,1,1.209.073H21.3c5.353.951,9.514,10.089,9.514,16.817" transform="translate(1.802 1.901)" fill="#ffd3b4"/>
            <path id="Trazado_718315" data-name="Trazado 718315" d="M13.744,19.139A18.186,18.186,0,0,0,17.467,34.21a14.408,14.408,0,0,1-5.1-1.672A6.514,6.514,0,0,1,9.413,29.46q-.061-.674-.061-1.4c0-.46.018-.932.056-1.418.556-7.119,5.123-16.435,10.671-16.773a5.051,5.051,0,0,1,1.209.073c-.256-.018-5.7-.292-7.545,9.193" transform="translate(1.802 1.901)" fill="#ffc095"/>
            <path id="Trazado_718316" data-name="Trazado 718316" d="M19.582,10.646h0a1.618,1.618,0,0,0-2.041,1.92l.01.041a6.881,6.881,0,0,0,4.715,5.013,1.618,1.618,0,0,0,2.041-1.92l-.01-.042a6.882,6.882,0,0,0-4.715-5.012" transform="translate(3.372 2.038)" fill="#ffeada"/>
            <path id="Trazado_718317" data-name="Trazado 718317" d="M46.076,40.8c-4.533,2.617-11.906,2.6-16.466-.03s-4.585-6.89-.052-9.507,11.906-2.6,16.468.03,4.585,6.89.051,9.507" transform="translate(5.044 5.647)" fill="#cca48d"/>
            <path id="Trazado_718318" data-name="Trazado 718318" d="M48.022,38.106a7.066,7.066,0,0,1-2.558,2.338C41.2,42.9,34.275,42.89,29.99,40.416a6.51,6.51,0,0,1-2.952-3.077,3.749,3.749,0,0,1-.007-2.812,6.387,6.387,0,0,1,2.91-3.044c4.26-2.461,11.189-2.449,15.474.027a6.361,6.361,0,0,1,3.016,3.247,3.845,3.845,0,0,1-.409,3.349" transform="translate(5.157 5.713)" fill="#937971"/>
            <path id="Trazado_718319" data-name="Trazado 718319" d="M48.4,36.565c0,.038,0,.079,0,.117a14.15,14.15,0,0,1-.408,3.348,7.068,7.068,0,0,1-2.56,2.337,16.817,16.817,0,0,1-10.373,1.647,14.391,14.391,0,0,1-5.1-1.673A6.5,6.5,0,0,1,27,39.263c-.042-.448-.062-.915-.062-1.4q0-.691.056-1.419C27.552,29.33,32.118,20,37.667,19.675a5.051,5.051,0,0,1,1.209.073h.008C44.238,20.7,48.4,29.837,48.4,36.565" transform="translate(5.191 3.79)" fill="#ffd3b4"/>
            <path id="Trazado_718320" data-name="Trazado 718320" d="M31.333,28.942a18.186,18.186,0,0,0,3.724,15.071,14.408,14.408,0,0,1-5.1-1.672A6.514,6.514,0,0,1,27,39.263q-.061-.673-.061-1.4,0-.689.056-1.418c.556-7.119,5.121-16.447,10.67-16.773a4.983,4.983,0,0,1,1.209.073c-.256-.018-5.694-.292-7.544,9.193" transform="translate(5.192 3.79)" fill="#ffc095"/>
            <path id="Trazado_718321" data-name="Trazado 718321" d="M37.17,20.45h0a1.617,1.617,0,0,0-2.041,1.919l.01.042a6.883,6.883,0,0,0,4.715,5.013,1.618,1.618,0,0,0,2.041-1.92l-.01-.042A6.882,6.882,0,0,0,37.17,20.45" transform="translate(6.761 3.927)" fill="#ffeada"/>
            <path id="Trazado_718322" data-name="Trazado 718322" d="M63.664,50.6c-4.532,2.617-11.906,2.6-16.467-.03s-4.585-6.89-.052-9.507,11.906-2.6,16.468.03,4.585,6.89.051,9.507" transform="translate(8.433 7.537)" fill="#cca48d"/>
            <path id="Trazado_718323" data-name="Trazado 718323" d="M65.611,47.91a7.066,7.066,0,0,1-2.558,2.338c-4.26,2.458-11.189,2.446-15.474-.027a6.51,6.51,0,0,1-2.952-3.077,3.752,3.752,0,0,1-.007-2.814,6.391,6.391,0,0,1,2.91-3.043c4.26-2.461,11.189-2.449,15.474.027a6.361,6.361,0,0,1,3.016,3.247,3.845,3.845,0,0,1-.409,3.349" transform="translate(8.546 7.602)" fill="#937971"/>
            <path id="Trazado_718324" data-name="Trazado 718324" d="M65.988,46.368c0,.038,0,.079,0,.117a14.1,14.1,0,0,1-.408,3.348,7.068,7.068,0,0,1-2.56,2.337,16.817,16.817,0,0,1-10.373,1.647,14.391,14.391,0,0,1-5.1-1.673,6.5,6.5,0,0,1-2.954-3.077c-.042-.448-.062-.915-.062-1.4q0-.691.056-1.419c.556-7.118,5.121-16.446,10.671-16.773a5.051,5.051,0,0,1,1.209.073h.008c5.353.951,9.514,10.089,9.514,16.817" transform="translate(8.581 5.679)" fill="#ffd3b4"/>
            <path id="Trazado_718325" data-name="Trazado 718325" d="M48.921,38.746a18.186,18.186,0,0,0,3.724,15.071,14.408,14.408,0,0,1-5.1-1.672,6.514,6.514,0,0,1-2.956-3.077c-.041-.448-.061-.915-.061-1.4q0-.691.056-1.419c.556-7.119,5.121-16.447,10.671-16.773a4.99,4.99,0,0,1,1.209.073c-.258-.018-5.7-.292-7.545,9.193" transform="translate(8.581 5.679)" fill="#ffc095"/>
            <path id="Trazado_718326" data-name="Trazado 718326" d="M54.759,30.253h0a1.617,1.617,0,0,0-2.041,1.919l.01.042a6.883,6.883,0,0,0,4.715,5.013,1.618,1.618,0,0,0,2.041-1.92l-.01-.042a6.882,6.882,0,0,0-4.715-5.012" transform="translate(10.151 5.816)" fill="#ffeada"/>
            <path id="Trazado_718327" data-name="Trazado 718327" d="M81.252,60.4c-4.533,2.617-11.906,2.6-16.466-.03s-4.585-6.89-.052-9.507,11.906-2.6,16.468.03,4.584,6.89.051,9.507" transform="translate(11.822 9.426)" fill="#cca48d"/>
            <path id="Trazado_718328" data-name="Trazado 718328" d="M83.2,57.713a7.066,7.066,0,0,1-2.558,2.338c-4.26,2.458-11.189,2.446-15.474-.027a6.519,6.519,0,0,1-2.953-3.077,3.755,3.755,0,0,1-.006-2.812,6.387,6.387,0,0,1,2.91-3.044c4.26-2.461,11.189-2.449,15.474.027a6.361,6.361,0,0,1,3.016,3.247,3.845,3.845,0,0,1-.409,3.349" transform="translate(11.936 9.491)" fill="#937971"/>
            <path id="Trazado_718329" data-name="Trazado 718329" d="M83.576,56.171c0,.038,0,.079,0,.117a14.15,14.15,0,0,1-.408,3.348,7.068,7.068,0,0,1-2.56,2.337A16.817,16.817,0,0,1,70.233,63.62a14.4,14.4,0,0,1-5.1-1.673,6.5,6.5,0,0,1-2.954-3.077c-.042-.448-.062-.915-.062-1.4q0-.691.056-1.419c.556-7.118,5.121-16.446,10.671-16.773a5.051,5.051,0,0,1,1.209.073h.008c5.353.951,9.514,10.089,9.514,16.817" transform="translate(11.97 7.568)" fill="#ffd3b4"/>
            <path id="Trazado_718330" data-name="Trazado 718330" d="M66.509,48.549A18.186,18.186,0,0,0,70.232,63.62a14.408,14.408,0,0,1-5.1-1.672,6.514,6.514,0,0,1-2.956-3.077c-.041-.448-.061-.915-.061-1.4q0-.691.055-1.419c.557-7.119,5.123-16.447,10.671-16.773a4.983,4.983,0,0,1,1.209.073c-.256-.018-5.694-.292-7.544,9.193" transform="translate(11.97 7.568)" fill="#ffc095"/>
            <path id="Trazado_718331" data-name="Trazado 718331" d="M72.347,40.056h0a1.617,1.617,0,0,0-2.041,1.919l.01.042a6.88,6.88,0,0,0,4.715,5.012h0a1.619,1.619,0,0,0,2.041-1.92l-.01-.042a6.882,6.882,0,0,0-4.715-5.012" transform="translate(13.54 7.705)" fill="#ffeada"/>
            <path id="Trazado_718332" data-name="Trazado 718332" d="M98.841,70.207c-4.532,2.617-11.906,2.6-16.466-.03s-4.585-6.89-.051-9.507,11.9-2.6,16.466.03,4.585,6.89.051,9.507" transform="translate(15.212 11.315)" fill="#cca48d"/>
            <path id="Trazado_718333" data-name="Trazado 718333" d="M100.787,67.516a7.066,7.066,0,0,1-2.558,2.338c-4.26,2.458-11.189,2.446-15.474-.027A6.51,6.51,0,0,1,79.8,66.749a3.749,3.749,0,0,1-.007-2.812,6.387,6.387,0,0,1,2.91-3.044c4.26-2.461,11.189-2.449,15.474.027a6.361,6.361,0,0,1,3.016,3.247,3.845,3.845,0,0,1-.409,3.349" transform="translate(15.325 11.38)" fill="#937971"/>
            <path id="Trazado_718334" data-name="Trazado 718334" d="M101.165,65.975c0,.038,0,.079,0,.117a14.159,14.159,0,0,1-.407,3.348,7.072,7.072,0,0,1-2.561,2.337,16.817,16.817,0,0,1-10.373,1.647,14.407,14.407,0,0,1-5.1-1.673,6.5,6.5,0,0,1-2.954-3.077c-.042-.448-.062-.915-.062-1.4,0-.46.018-.933.057-1.419.555-7.118,5.123-16.434,10.671-16.773a5.117,5.117,0,0,1,1.209.073h.007c5.353.951,9.515,10.089,9.515,16.817" transform="translate(15.36 9.457)" fill="#ffd3b4"/>
            <path id="Trazado_718335" data-name="Trazado 718335" d="M84.1,58.352a18.186,18.186,0,0,0,3.724,15.071,14.408,14.408,0,0,1-5.1-1.672,6.514,6.514,0,0,1-2.956-3.077q-.061-.674-.061-1.4,0-.691.056-1.419c.556-7.119,5.123-16.435,10.671-16.773a5.037,5.037,0,0,1,1.208.073c-.256-.018-5.694-.292-7.544,9.193" transform="translate(15.36 9.457)" fill="#ffc095"/>
            <path id="Trazado_718336" data-name="Trazado 718336" d="M89.936,49.86h0a1.618,1.618,0,0,0-2.042,1.919l.011.042a6.881,6.881,0,0,0,4.715,5.013,1.619,1.619,0,0,0,2.041-1.92l-.012-.042a6.877,6.877,0,0,0-4.712-5.012" transform="translate(16.929 9.595)" fill="#ffeada"/>
            <path id="Trazado_718337" data-name="Trazado 718337" d="M73.932,65.907h-1.97l-5.983-3.554,2.675-2.094-.847,2.112Z" transform="translate(12.714 11.612)" fill="#ccac94"/>
            <path id="Trazado_718338" data-name="Trazado 718338" d="M70.993,57.931l-2.28,1.317,4.087,2.36,2.28-1.317Z" transform="translate(13.241 11.164)" fill="#e8ccb5"/>
            <path id="Trazado_718339" data-name="Trazado 718339" d="M72.139,61.226l.6,4.748,3.107-1.794L74.42,59.909Z" transform="translate(13.902 11.545)" fill="#c5b29c"/>
            <path id="Trazado_718340" data-name="Trazado 718340" d="M73.031,61.395l-4.087-2.36-1.432,3.572,6.125,3.536Z" transform="translate(13.01 11.376)" fill="#b59e86"/>
            <path id="Trazado_718341" data-name="Trazado 718341" d="M56.712,56.038h-1.97l-5.983-3.554,2.675-2.094L50.587,52.5Z" transform="translate(9.396 9.71)" fill="#ccac94"/>
            <path id="Trazado_718342" data-name="Trazado 718342" d="M53.773,48.062l-2.28,1.317,4.087,2.36,2.28-1.317Z" transform="translate(9.923 9.262)" fill="#e8ccb5"/>
            <path id="Trazado_718343" data-name="Trazado 718343" d="M54.919,51.357l.6,4.748,3.107-1.794L57.2,50.041Z" transform="translate(10.583 9.643)" fill="#c5b29c"/>
            <path id="Trazado_718344" data-name="Trazado 718344" d="M55.811,51.526l-4.087-2.36-1.431,3.573,6.123,3.535Z" transform="translate(9.692 9.474)" fill="#b59e86"/>
            <path id="Trazado_718345" data-name="Trazado 718345" d="M39.372,46.082H37.4l-5.983-3.554,2.675-2.093-.847,2.111Z" transform="translate(6.055 7.792)" fill="#ccac94"/>
            <path id="Trazado_718346" data-name="Trazado 718346" d="M36.433,38.106l-2.28,1.317,4.087,2.36,2.28-1.317Z" transform="translate(6.581 7.343)" fill="#e8ccb5"/>
            <path id="Trazado_718347" data-name="Trazado 718347" d="M37.58,41.4l.6,4.748,3.107-1.794L39.86,40.084Z" transform="translate(7.242 7.724)" fill="#c5b29c"/>
            <path id="Trazado_718348" data-name="Trazado 718348" d="M38.471,41.57l-4.087-2.36-1.432,3.572,6.125,3.536Z" transform="translate(6.35 7.556)" fill="#b59e86"/>
            <path id="Trazado_718349" data-name="Trazado 718349" d="M19.232,28.242l-2.28,1.317,4.087,2.36L23.32,30.6Z" transform="translate(3.267 5.442)" fill="#e8ccb5"/>
            <path id="Trazado_718350" data-name="Trazado 718350" d="M20.379,31.538l.6,4.748,3.107-1.794L22.66,30.221Z" transform="translate(3.927 5.824)" fill="#c5b29c"/>
            <path id="Trazado_718351" data-name="Trazado 718351" d="M21.271,31.706l-4.087-2.36-1.432,3.572,6.125,3.536Z" transform="translate(3.035 5.655)" fill="#b59e86"/>
            <path id="Trazado_718352" data-name="Trazado 718352" d="M22.171,36.219H20.2l-5.983-3.554,2.675-2.094-.847,2.112Z" transform="translate(2.74 5.891)" fill="#ccac94"/>
            <path id="Trazado_718353" data-name="Trazado 718353" d="M104.116,66.782h-1.97l-3.409-1.93L102,62.034l-.99,2.954Z" transform="translate(19.027 11.954)" fill="#ccac94"/>
            <path id="Trazado_718354" data-name="Trazado 718354" d="M105.93,58.952l2.28,1.317-4.087,2.36-2.28-1.317Z" transform="translate(19.626 11.36)" fill="#e8ccb5"/>
            <path id="Trazado_718355" data-name="Trazado 718355" d="M104.354,62.247,103.75,67,100.643,65.2l1.431-4.271Z" transform="translate(19.394 11.742)" fill="#c5b29c"/>
            <path id="Trazado_718356" data-name="Trazado 718356" d="M103.852,62.416l4.087-2.36,1.432,3.572-6.125,3.536Z" transform="translate(19.896 11.573)" fill="#b59e86"/>
          </g>
        </g>
      </g>
    </g>
  </g>
</svg>
