<svg xmlns="http://www.w3.org/2000/svg" xmlns:xlink="http://www.w3.org/1999/xlink" width="140" height="140" viewBox="0 0 140 140">
  <defs>
    <clipPath id="clip-path">
      <rect id="Rectángulo_344373" data-name="Rectángulo 344373" width="124.667" height="99.826" fill="none"/>
    </clipPath>
  </defs>
  <g id="Grupo_983941" data-name="Grupo 983941" transform="translate(-514 11160)">
    <circle id="Elipse_5841" data-name="Elipse 5841" cx="70" cy="70" r="70" transform="translate(514 -11160)" fill="#b20d0d"/>
    <g id="Grupo_983595" data-name="Grupo 983595" transform="translate(521.734 -11136.447)">
      <g id="Grupo_983594" data-name="Grupo 983594" clip-path="url(#clip-path)">
        <path id="Trazado_718150" data-name="Trazado 718150" d="M125.422,128.065l-5.309-44.085H118.5l-1.385,3.462-7.847.231-3.924-6.463-4.385.231-2.77,5.309h-8.54l-3.693-6.232-5.54.231-3,6H69.8l-3.462-5.771-5.309.231-2.93,5.3-10-.219-3.231-6.232-5.078.23L36.56,86.057l-7.617.231-3.231-5.54H20.4L16.71,87.211l-5.078.462L8.4,83.287c-1.154,9.232-6.633,44.678-6.633,44.678Z" transform="translate(-0.871 -39.433)" fill="#deb08e"/>
        <path id="Trazado_718151" data-name="Trazado 718151" d="M2.148,153.709c0,6.852,3.967,12.407,8.861,12.407s8.861-5.555,8.861-12.407S15.9,141.3,11.009,141.3s-8.861,5.555-8.861,12.407" transform="translate(-1.058 -69.601)" fill="#fff"/>
        <path id="Trazado_718152" data-name="Trazado 718152" d="M42.657,155.472c0,6.852,3.968,12.407,8.861,12.407s8.862-5.555,8.862-12.407-3.968-12.407-8.862-12.407-8.861,5.555-8.861,12.407" transform="translate(-21.012 -70.469)" fill="#fff"/>
        <path id="Trazado_718153" data-name="Trazado 718153" d="M84.531,155.912c0,6.852,3.968,12.407,8.861,12.407s8.862-5.555,8.862-12.407-3.968-12.407-8.862-12.407-8.861,5.555-8.861,12.407" transform="translate(-41.637 -70.686)" fill="#fff"/>
        <path id="Trazado_718154" data-name="Trazado 718154" d="M124.559,157.277c0,6.852,3.968,12.407,8.861,12.407s8.862-5.555,8.862-12.407-3.968-12.407-8.862-12.407-8.861,5.555-8.861,12.407" transform="translate(-61.354 -71.358)" fill="#fff"/>
        <path id="Trazado_718155" data-name="Trazado 718155" d="M167.316,155c0,6.852,3.968,12.407,8.861,12.407s8.862-5.555,8.862-12.407-3.968-12.407-8.862-12.407-8.861,5.555-8.861,12.407" transform="translate(-82.415 -70.238)" fill="#fff"/>
        <path id="Trazado_718156" data-name="Trazado 718156" d="M208.254,154.548c0,6.852,3.967,12.407,8.861,12.407s8.861-5.555,8.861-12.407-3.967-12.407-8.861-12.407-8.861,5.555-8.861,12.407" transform="translate(-102.579 -70.014)" fill="#fff"/>
        <path id="Trazado_718157" data-name="Trazado 718157" d="M124.918,174.447l-5.632,9.165a4.018,4.018,0,0,1-3.423,1.914h-2.414a4.018,4.018,0,0,1-3.436-1.935l-3.172-5.235a3.081,3.081,0,0,0-5.239-.05l-3.312,5.235a4.018,4.018,0,0,1-3.4,1.87H92.51a4.018,4.018,0,0,1-3.487-2.021l-3.052-5.328A3.081,3.081,0,0,0,80.663,178l-3.388,5.593a4.019,4.019,0,0,1-3.437,1.936h-2.4A4.018,4.018,0,0,1,68,183.59l-3.172-5.235a3.081,3.081,0,0,0-5.239-.05l-3.312,5.235a4.018,4.018,0,0,1-3.4,1.87H50.48a4.017,4.017,0,0,1-3.469-1.992l-2.972-5.088a3.081,3.081,0,0,0-5.328.012l-2.994,5.177a4.017,4.017,0,0,1-3.478,2.006H29.895a4.018,4.018,0,0,1-3.436-1.935l-3.172-5.235a3.081,3.081,0,0,0-5.239-.05l-3.312,5.235a4.018,4.018,0,0,1-3.4,1.87H9.156A4.316,4.316,0,0,1,5.391,183.2l-4.88-9.22Z" transform="translate(-0.252 -85.7)" fill="#deb08e"/>
        <path id="Trazado_718158" data-name="Trazado 718158" d="M125.422,88.037l-5.309-44.085H118.5l-1.385,3.462-7.847.231-3.924-6.463-4.385.231-2.77,5.309h-8.54l-3.693-6.232-5.54.231-3,6H69.8l-3.462-5.771-5.309.231-2.93,5.3-10-.219-3.231-6.232-5.078.231-3.231,5.77-7.617.231-3.231-5.54H20.4L16.71,47.183l-5.078.462L8.4,43.259C7.247,52.492,1.768,87.937,1.768,87.937Z" transform="translate(-0.871 -19.717)" fill="#deb08e"/>
        <path id="Trazado_718159" data-name="Trazado 718159" d="M2.148,113.682c0,6.852,3.967,12.407,8.861,12.407s8.861-5.555,8.861-12.407-3.967-12.407-8.861-12.407-8.861,5.555-8.861,12.407" transform="translate(-1.058 -49.885)" fill="#fff"/>
        <path id="Trazado_718160" data-name="Trazado 718160" d="M42.657,115.444c0,6.852,3.968,12.407,8.861,12.407s8.862-5.555,8.862-12.407-3.968-12.407-8.862-12.407-8.861,5.555-8.861,12.407" transform="translate(-21.012 -50.753)" fill="#fff"/>
        <path id="Trazado_718161" data-name="Trazado 718161" d="M84.531,115.884c0,6.852,3.968,12.407,8.861,12.407s8.862-5.555,8.862-12.407-3.968-12.407-8.862-12.407-8.861,5.555-8.861,12.407" transform="translate(-41.637 -50.97)" fill="#fff"/>
        <path id="Trazado_718162" data-name="Trazado 718162" d="M124.559,117.249c0,6.852,3.968,12.407,8.861,12.407s8.862-5.555,8.862-12.407-3.968-12.407-8.862-12.407-8.861,5.555-8.861,12.407" transform="translate(-61.354 -51.642)" fill="#fff"/>
        <path id="Trazado_718163" data-name="Trazado 718163" d="M167.316,114.975c0,6.852,3.968,12.407,8.861,12.407s8.862-5.555,8.862-12.407-3.968-12.407-8.862-12.407-8.861,5.555-8.861,12.407" transform="translate(-82.415 -50.522)" fill="#fff"/>
        <path id="Trazado_718164" data-name="Trazado 718164" d="M208.254,114.52c0,6.852,3.967,12.407,8.861,12.407s8.861-5.555,8.861-12.407-3.967-12.407-8.861-12.407-8.861,5.555-8.861,12.407" transform="translate(-102.579 -50.298)" fill="#fff"/>
        <path id="Trazado_718165" data-name="Trazado 718165" d="M124.918,134.419l-5.632,9.165a4.018,4.018,0,0,1-3.423,1.914h-2.414a4.018,4.018,0,0,1-3.436-1.935l-3.172-5.235a3.081,3.081,0,0,0-5.239-.05l-3.312,5.235a4.018,4.018,0,0,1-3.4,1.87H92.51a4.018,4.018,0,0,1-3.487-2.021l-3.052-5.328a3.081,3.081,0,0,0-5.309-.065l-3.388,5.593a4.019,4.019,0,0,1-3.437,1.936h-2.4A4.018,4.018,0,0,1,68,143.562l-3.172-5.235a3.081,3.081,0,0,0-5.239-.05l-3.312,5.235a4.018,4.018,0,0,1-3.4,1.87H50.48a4.017,4.017,0,0,1-3.469-1.992L44.038,138.3a3.081,3.081,0,0,0-5.328.012l-2.994,5.177a4.019,4.019,0,0,1-3.478,2.006H29.895a4.018,4.018,0,0,1-3.436-1.935l-3.172-5.235a3.081,3.081,0,0,0-5.239-.05l-3.312,5.235a4.018,4.018,0,0,1-3.4,1.87H9.156a4.316,4.316,0,0,1-3.765-2.206l-4.88-9.22Z" transform="translate(-0.252 -65.983)" fill="#deb08e"/>
        <path id="Trazado_718166" data-name="Trazado 718166" d="M125.422,48.009,120.114,3.923H118.5l-1.385,3.462-7.847.231-3.924-6.463-4.385.231-2.77,5.309h-8.54L85.954.461l-5.54.231-3,6H69.8L66.335.923l-5.309.231L58.1,6.45l-10-.219L44.869,0,39.791.23,36.56,6l-7.617.231L25.712.692H20.4L16.71,7.155l-5.078.462L8.4,3.231C7.247,12.464,1.768,47.909,1.768,47.909Z" transform="translate(-0.871)" fill="#deb08e"/>
        <path id="Trazado_718167" data-name="Trazado 718167" d="M122.534,19.668c-.769,0-1.511-.032-2.218-.1l-.115-.01-.069-.092a27.94,27.94,0,0,1-1.736-2.744,23.045,23.045,0,0,0-2.306-3.474,8.283,8.283,0,0,1-1.8-.1c-1.443-.184-2.348-.23-2.729.659l-.023.042a39.4,39.4,0,0,0-2.42,4.358l-.052.1-.112.031a13.2,13.2,0,0,1-4.118.253,14.2,14.2,0,0,0-4.173.235l-.062.008a2.136,2.136,0,0,1-1.4-.563l-.024-.028a16.063,16.063,0,0,1-1.416-2.419A9.16,9.16,0,0,0,95.4,12.506a42.968,42.968,0,0,0-5.348.225c-.942,1.884-1.919,3.828-3.118,5.746l-.036.046a1.143,1.143,0,0,1-.915.319l-.028,0a27.38,27.38,0,0,0-6.279,0l-.028,0a2.136,2.136,0,0,1-1.4-.563l-.03-.03-.018-.038a28.38,28.38,0,0,0-1.571-2.656A29.728,29.728,0,0,1,75.1,12.992c-.444,0-.876-.017-1.3-.031a14.406,14.406,0,0,0-4,.248,26.739,26.739,0,0,0-2.475,3.92c-.206.371-.41.738-.613,1.095l-.075.131h-.15c-.843,0-1.721.015-2.57.03a50.6,50.6,0,0,1-7.945-.277l-.107-.015-.064-.086a31.286,31.286,0,0,1-2.954-5.154c-.139-.282-.275-.561-.412-.835-.252,0-.509-.016-.779-.028a6.925,6.925,0,0,0-2.862.255l-.109.043-.1-.052c-1.115-.557-1.628.234-2.343,1.6a8.15,8.15,0,0,1-.733,1.23c-.243.484-.488.912-.726,1.328s-.484.847-.725,1.328l-.05.1-.107.032a11.964,11.964,0,0,1-3.93.337,13.807,13.807,0,0,0-3.161.156l-.05.005a2.136,2.136,0,0,1-1.4-.563,10.6,10.6,0,0,1-1.861-2.9,11.9,11.9,0,0,0-1.26-2.156,11.487,11.487,0,0,0-1.954-.029,8.637,8.637,0,0,1-2.819-.2.618.618,0,0,0-.492.149c-.262.419-.525.828-.785,1.232a33.029,33.029,0,0,0-2.593,4.558l-.02.044-.034.034a1.248,1.248,0,0,0-.141.177.941.941,0,0,1-.705.456.259.259,0,1,1-.082-.512.436.436,0,0,0,.363-.242,1.711,1.711,0,0,1,.164-.209,33.713,33.713,0,0,1,2.612-4.586c.264-.411.531-.827.8-1.253l.037-.046a1.141,1.141,0,0,1,.915-.32l.071.01a8.051,8.051,0,0,0,2.69.189,11.267,11.267,0,0,1,2.149.047l.1.014.064.077a11.925,11.925,0,0,1,1.389,2.335,10.219,10.219,0,0,0,1.763,2.765,1.6,1.6,0,0,0,1.011.411,14.353,14.353,0,0,1,3.251-.16,11.673,11.673,0,0,0,3.66-.285c.229-.453.462-.859.687-1.252.238-.416.484-.846.724-1.327l.029-.046a7.469,7.469,0,0,0,.7-1.167c.6-1.156,1.352-2.589,2.93-1.877a7.715,7.715,0,0,1,2.971-.25c.322.015.625.029.916.029h.16l.072.143q.241.483.484.982a31.346,31.346,0,0,0,2.839,4.985,51,51,0,0,0,7.756.256c.8-.014,1.627-.028,2.428-.03.178-.314.356-.634.536-.958a26.454,26.454,0,0,1,2.584-4.067l.054-.065.083-.02a14.56,14.56,0,0,1,4.229-.283c.466.015.947.031,1.439.031h.16l.072.144a28.3,28.3,0,0,0,1.571,2.656,28.945,28.945,0,0,1,1.578,2.665,1.614,1.614,0,0,0,.993.384,27.8,27.8,0,0,1,6.364,0,.643.643,0,0,0,.514-.149c1.2-1.93,2.188-3.9,3.139-5.8l.062-.124.138-.017a43.27,43.27,0,0,1,5.638-.246h.086l.069.052A9.509,9.509,0,0,1,98.22,15.6a15.878,15.878,0,0,0,1.357,2.328,1.61,1.61,0,0,0,.993.4,14.7,14.7,0,0,1,4.289-.243,12.963,12.963,0,0,0,3.847-.206,38.98,38.98,0,0,1,2.388-4.29c.569-1.288,2-1.107,3.261-.947a7.185,7.185,0,0,0,1.8.083l.139-.02.093.106a22.666,22.666,0,0,1,2.453,3.659,28.185,28.185,0,0,0,1.633,2.6,31.354,31.354,0,0,0,8.1-.494l.046,0a.921.921,0,0,0,.472-.715,2.738,2.738,0,0,1,.435-1.383,1.759,1.759,0,0,0,.3-.817.259.259,0,1,1,.519,0,2.2,2.2,0,0,1-.359,1.067,2.249,2.249,0,0,0-.372,1.134,1.325,1.325,0,0,1-.962,1.234,34.666,34.666,0,0,1-6.12.584" transform="translate(-11.026 -5.635)" fill="#382118"/>
        <path id="Trazado_718168" data-name="Trazado 718168" d="M9.549,36.444l-3.491-4.5a.259.259,0,1,1,.409-.318L9.786,35.9l5.078-.438,3.9-6.475h5.885l3.4,5.535,7.732-.222,3.4-5.768,5.652-.244,3.41,6.242,10.229.213,3.082-5.287,5.885-.243,3.651,5.776h7.726L81.977,29l6.137-.243,3.895,6.237h8.7l2.914-5.3,4.915-.246,4.136,6.466,7.955-.222,1.394-3.308a.26.26,0,0,1,.479.2L120.978,36.2l-8.582.24-4.132-6.46-4.326.216-2.922,5.316h-9.3l-3.887-6.226L82.3,29.5,79.132,35.51H70.808l-3.644-5.764-5.3.219L58.769,35.27l-10.834-.225-3.4-6.222-5.048.218-3.405,5.773-8.318.239-3.407-5.544h-5.3l-3.883,6.45Z" transform="translate(-2.957 -13.935)" fill="#382118"/>
        <path id="Trazado_718169" data-name="Trazado 718169" d="M163.429,49.672a.26.26,0,0,1-.093-.017,6.153,6.153,0,0,0-2.2-.272c-.311,0-.632,0-.948-.023a.26.26,0,1,1,.033-.518c.3.019.614.021.918.022a6.654,6.654,0,0,1,2.385.306.259.259,0,0,1-.093.5" transform="translate(-78.783 -24.058)" fill="#382118"/>
        <path id="Trazado_718170" data-name="Trazado 718170" d="M212.379,56.993a21.114,21.114,0,0,1-3.473-.27l-.082-.014-.059-.059a12.269,12.269,0,0,1-2.1-3.128,13.157,13.157,0,0,0-1.551-2.475c-1.52-1.25-3.524-.739-4.94-.088a.259.259,0,1,1-.217-.471c2.233-1.027,4.137-.967,5.506.174l.031.031a13.593,13.593,0,0,1,1.629,2.587,12.129,12.129,0,0,0,1.955,2.944,27.164,27.164,0,0,0,8.64-.222,5.791,5.791,0,0,1,.893-2.422c.12-.217.238-.432.346-.647a.259.259,0,1,1,.464.23c-.11.222-.232.443-.356.668a5.027,5.027,0,0,0-.835,2.393v.219l-.217.037a34.38,34.38,0,0,1-5.628.514" transform="translate(-98.416 -24.51)" fill="#382118"/>
        <path id="Trazado_718171" data-name="Trazado 718171" d="M3.513,31.351c0,6.852,3.967,12.407,8.861,12.407s8.861-5.555,8.861-12.407-3.967-12.407-8.861-12.407S3.513,24.5,3.513,31.351" transform="translate(-1.73 -9.331)" fill="#fff"/>
        <path id="Trazado_718172" data-name="Trazado 718172" d="M44.022,33.114c0,6.852,3.968,12.407,8.861,12.407s8.862-5.555,8.862-12.407-3.968-12.407-8.862-12.407-8.861,5.555-8.861,12.407" transform="translate(-21.684 -10.2)" fill="#fff"/>
        <path id="Trazado_718173" data-name="Trazado 718173" d="M85.9,33.554c0,6.852,3.968,12.407,8.861,12.407s8.862-5.555,8.862-12.407-3.968-12.407-8.862-12.407S85.9,26.7,85.9,33.554" transform="translate(-42.31 -10.416)" fill="#fff"/>
        <path id="Trazado_718174" data-name="Trazado 718174" d="M125.469,32.19c0,6.852,3.967,12.407,8.861,12.407s8.861-5.555,8.861-12.407-3.967-12.407-8.861-12.407-8.861,5.555-8.861,12.407" transform="translate(-61.802 -9.744)" fill="#fff"/>
        <path id="Trazado_718175" data-name="Trazado 718175" d="M2.148,50c0,6.852,3.967,12.407,8.861,12.407S19.871,56.854,19.871,50,15.9,37.594,11.009,37.594,2.148,43.149,2.148,50" transform="translate(-1.058 -18.518)" fill="#fff"/>
        <path id="Trazado_718176" data-name="Trazado 718176" d="M42.657,51.763c0,6.852,3.968,12.407,8.861,12.407s8.862-5.555,8.862-12.407-3.968-12.407-8.862-12.407-8.861,5.555-8.861,12.407" transform="translate(-21.012 -19.386)" fill="#fff"/>
        <path id="Trazado_718177" data-name="Trazado 718177" d="M84.531,52.2c0,6.852,3.968,12.407,8.861,12.407s8.862-5.554,8.862-12.407S98.286,39.8,93.392,39.8,84.531,45.352,84.531,52.2" transform="translate(-41.637 -19.603)" fill="#fff"/>
        <path id="Trazado_718178" data-name="Trazado 718178" d="M124.559,53.568c0,6.852,3.968,12.407,8.861,12.407s8.862-5.555,8.862-12.407-3.968-12.407-8.862-12.407-8.861,5.555-8.861,12.407" transform="translate(-61.354 -20.275)" fill="#fff"/>
        <path id="Trazado_718179" data-name="Trazado 718179" d="M167.316,51.294c0,6.852,3.968,12.407,8.861,12.407s8.862-5.555,8.862-12.407-3.968-12.407-8.862-12.407-8.861,5.555-8.861,12.407" transform="translate(-82.415 -19.155)" fill="#fff"/>
        <path id="Trazado_718180" data-name="Trazado 718180" d="M2.148,73.654c0,6.852,3.967,12.407,8.861,12.407s8.861-5.555,8.861-12.407S15.9,61.247,11.009,61.247,2.148,66.8,2.148,73.654" transform="translate(-1.058 -30.168)" fill="#fff"/>
        <path id="Trazado_718181" data-name="Trazado 718181" d="M19.7,67.129a.259.259,0,0,1-.249-.186c-1.008-3.419-4.978-6.533-8.783-5.582a8.46,8.46,0,0,0-5.733,5.362.259.259,0,1,1-.487-.178,8.974,8.974,0,0,1,6.09-5.686c4.085-1.022,8.336,2.292,9.41,5.936a.259.259,0,0,1-.175.322.269.269,0,0,1-.074.011" transform="translate(-2.183 -29.885)" fill="#382118"/>
        <path id="Trazado_718182" data-name="Trazado 718182" d="M19.946,45.605a.259.259,0,0,1-.252-.2c-.831-3.44-2.432-5.962-4.63-7.294a6.915,6.915,0,0,0-5.291-.8A8.815,8.815,0,0,0,4.106,43a.259.259,0,0,1-.487-.179,9.332,9.332,0,0,1,6.024-6.01,7.427,7.427,0,0,1,5.691.86c2.319,1.4,4,4.038,4.865,7.616a.259.259,0,0,1-.191.313.277.277,0,0,1-.061.007" transform="translate(-1.775 -18.02)" fill="#382118"/>
        <path id="Trazado_718183" data-name="Trazado 718183" d="M42.657,75.416c0,6.852,3.968,12.407,8.861,12.407s8.862-5.555,8.862-12.407-3.968-12.407-8.862-12.407-8.861,5.555-8.861,12.407" transform="translate(-21.012 -31.036)" fill="#fff"/>
        <path id="Trazado_718184" data-name="Trazado 718184" d="M84.531,75.856c0,6.852,3.968,12.407,8.861,12.407s8.862-5.555,8.862-12.407-3.968-12.407-8.862-12.407S84.531,69,84.531,75.856" transform="translate(-41.637 -31.253)" fill="#fff"/>
        <path id="Trazado_718185" data-name="Trazado 718185" d="M124.559,77.221c0,6.852,3.968,12.407,8.861,12.407s8.862-5.555,8.862-12.407-3.968-12.407-8.862-12.407-8.861,5.555-8.861,12.407" transform="translate(-61.354 -31.925)" fill="#fff"/>
        <path id="Trazado_718186" data-name="Trazado 718186" d="M167.316,74.947c0,6.852,3.968,12.407,8.861,12.407s8.862-5.555,8.862-12.407-3.968-12.407-8.862-12.407-8.861,5.555-8.861,12.407" transform="translate(-82.415 -30.805)" fill="#fff"/>
        <path id="Trazado_718187" data-name="Trazado 718187" d="M208.254,74.492c0,6.852,3.967,12.407,8.861,12.407s8.861-5.555,8.861-12.407-3.967-12.407-8.861-12.407-8.861,5.555-8.861,12.407" transform="translate(-102.579 -30.581)" fill="#fff"/>
        <path id="Trazado_718188" data-name="Trazado 718188" d="M124.918,94.391l-5.632,9.165a4.018,4.018,0,0,1-3.423,1.914h-2.414a4.018,4.018,0,0,1-3.436-1.935L106.84,98.3a3.081,3.081,0,0,0-5.239-.05l-3.312,5.235a4.018,4.018,0,0,1-3.4,1.87H92.51a4.018,4.018,0,0,1-3.487-2.021l-3.052-5.328a3.081,3.081,0,0,0-5.309-.065l-3.388,5.592a4.018,4.018,0,0,1-3.437,1.936h-2.4A4.018,4.018,0,0,1,68,103.534L64.832,98.3a3.081,3.081,0,0,0-5.239-.05l-3.312,5.235a4.018,4.018,0,0,1-3.4,1.87H50.48a4.017,4.017,0,0,1-3.469-1.992l-2.972-5.088a3.081,3.081,0,0,0-5.328.012l-2.994,5.177a4.018,4.018,0,0,1-3.478,2.006H29.895a4.018,4.018,0,0,1-3.436-1.935L23.286,98.3a3.081,3.081,0,0,0-5.239-.05l-3.312,5.235a4.018,4.018,0,0,1-3.4,1.87H9.156a4.316,4.316,0,0,1-3.765-2.206l-4.88-9.22Z" transform="translate(-0.252 -46.267)" fill="#deb08e"/>
        <path id="Trazado_718189" data-name="Trazado 718189" d="M3.956,100.92a.259.259,0,0,1-.229-.138L.03,93.8a.259.259,0,0,1,.458-.243l3.7,6.983a.259.259,0,0,1-.229.381" transform="translate(0 -46.015)" fill="#382118"/>
        <path id="Trazado_718190" data-name="Trazado 718190" d="M40.017,103.793a.259.259,0,0,1-.232-.144c-.057-.115-.117-.237-.178-.363-.79-1.614-1.98-4.051-3.935-3.793-2.137.285-3.544,3.125-3.924,3.989a.259.259,0,1,1-.474-.21c.522-1.187,1.991-3.982,4.331-4.294,2.322-.312,3.614,2.332,4.469,4.08.061.125.12.245.177.359a.259.259,0,0,1-.232.375" transform="translate(-15.393 -48.742)" fill="#382118"/>
        <path id="Trazado_718191" data-name="Trazado 718191" d="M81.1,104.569a.259.259,0,0,1-.227-.133c-.267-.482-.5-1.009-.727-1.519-.716-1.618-1.393-3.145-3.114-3.49-2.116-.352-3.681,1.109-4.917,4.6a.259.259,0,1,1-.489-.173c.483-1.368,1.954-5.529,5.5-4.939,1.993.4,2.757,2.123,3.5,3.789.221.5.45,1.015.706,1.477a.259.259,0,0,1-.226.385" transform="translate(-35.274 -48.695)" fill="#382118"/>
        <path id="Trazado_718192" data-name="Trazado 718192" d="M112.829,104.311a.259.259,0,0,1-.248-.337c.948-3.026,2.68-4.812,4.878-5.033,1.509-.218,2.347.972,3.084,2.02.18.255.366.52.556.757a9.847,9.847,0,0,1,.685,1.25,10.29,10.29,0,0,0,.481.917.259.259,0,1,1-.442.271,10.812,10.812,0,0,1-.506-.962,9.514,9.514,0,0,0-.636-1.171c-.187-.231-.377-.5-.561-.764-.715-1.016-1.39-1.975-2.6-1.8-2.679.268-3.935,3.043-4.445,4.673a.26.26,0,0,1-.248.182" transform="translate(-55.448 -48.723)" fill="#382118"/>
        <path id="Trazado_718193" data-name="Trazado 718193" d="M153.533,104.954a.265.265,0,0,1-.04,0,.26.26,0,0,1-.217-.3,6.391,6.391,0,0,1,1.235-2.463,12.238,12.238,0,0,0,.672-1.047,4.185,4.185,0,0,1,3.183-2.366c2.828-.22,3.972,2.673,4.808,4.789.062.158.123.313.184.461a.26.26,0,0,1-.482.194l-.185-.464c-.821-2.075-1.841-4.664-4.285-4.463a3.675,3.675,0,0,0-2.767,2.1,12.528,12.528,0,0,1-.7,1.095,6.045,6.045,0,0,0-1.149,2.247.26.26,0,0,1-.256.22" transform="translate(-75.498 -48.65)" fill="#382118"/>
        <path id="Trazado_718194" data-name="Trazado 718194" d="M204.837,103.8a.26.26,0,0,1-.238-.157c-.093-.216-.187-.448-.285-.688-.71-1.744-1.594-3.914-3.558-4.036-2.148-.128-3.646,2.884-4.136,3.875a.259.259,0,1,1-.465-.229c.915-1.854,2.4-4.3,4.633-4.163,2.289.141,3.282,2.578,4.006,4.358.1.236.189.465.281.678a.26.26,0,0,1-.136.34.263.263,0,0,1-.1.021" transform="translate(-96.607 -48.468)" fill="#382118"/>
        <path id="Trazado_718195" data-name="Trazado 718195" d="M40.017,143.654a.259.259,0,0,1-.232-.144c-.057-.116-.117-.237-.178-.363-.79-1.614-1.982-4.05-3.935-3.793-2.138.285-3.544,3.125-3.924,3.989a.259.259,0,1,1-.474-.21c.522-1.187,1.99-3.982,4.331-4.294,2.319-.314,3.614,2.332,4.469,4.08.061.125.12.245.177.359a.259.259,0,0,1-.232.375" transform="translate(-15.393 -68.376)" fill="#382118"/>
        <path id="Trazado_718196" data-name="Trazado 718196" d="M81.1,144.429a.259.259,0,0,1-.227-.133c-.267-.482-.5-1.009-.727-1.519-.716-1.618-1.393-3.145-3.114-3.49-2.116-.351-3.681,1.109-4.917,4.6a.259.259,0,1,1-.489-.173c.483-1.368,1.954-5.533,5.5-4.939,1.993.4,2.757,2.123,3.5,3.789.221.5.45,1.016.706,1.477a.26.26,0,0,1-.1.353.257.257,0,0,1-.126.032" transform="translate(-35.274 -68.329)" fill="#382118"/>
        <path id="Trazado_718197" data-name="Trazado 718197" d="M112.829,144.172a.277.277,0,0,1-.078-.012.26.26,0,0,1-.17-.325c.948-3.026,2.68-4.812,4.878-5.033,1.509-.218,2.347.972,3.084,2.02.18.255.366.52.556.757a9.852,9.852,0,0,1,.685,1.251,10.287,10.287,0,0,0,.481.917.259.259,0,1,1-.442.271,10.809,10.809,0,0,1-.506-.962,9.514,9.514,0,0,0-.636-1.171c-.187-.231-.377-.5-.561-.764-.715-1.016-1.39-1.977-2.6-1.8-2.679.268-3.935,3.043-4.445,4.673a.26.26,0,0,1-.248.182" transform="translate(-55.448 -68.357)" fill="#382118"/>
        <path id="Trazado_718198" data-name="Trazado 718198" d="M153.533,144.815a.265.265,0,0,1-.04,0,.26.26,0,0,1-.217-.3,6.391,6.391,0,0,1,1.235-2.463,12.241,12.241,0,0,0,.672-1.047,4.185,4.185,0,0,1,3.183-2.366c2.828-.221,3.972,2.674,4.808,4.789.062.158.123.313.184.461a.26.26,0,1,1-.482.194l-.185-.464c-.821-2.075-1.841-4.658-4.285-4.463a3.675,3.675,0,0,0-2.767,2.1,12.526,12.526,0,0,1-.7,1.095,6.045,6.045,0,0,0-1.149,2.247.26.26,0,0,1-.256.22" transform="translate(-75.498 -68.285)" fill="#382118"/>
        <path id="Trazado_718199" data-name="Trazado 718199" d="M204.837,143.663a.26.26,0,0,1-.238-.157c-.093-.216-.187-.448-.285-.688-.71-1.744-1.594-3.914-3.558-4.036-2.148-.127-3.646,2.884-4.136,3.875a.259.259,0,1,1-.465-.229c.915-1.853,2.4-4.3,4.633-4.163,2.289.141,3.282,2.578,4.006,4.358.1.236.189.465.281.678a.26.26,0,0,1-.136.341.272.272,0,0,1-.1.021" transform="translate(-96.607 -68.102)" fill="#382118"/>
        <path id="Trazado_718200" data-name="Trazado 718200" d="M60.522,69.05a.259.259,0,0,1-.249-.186c-1.008-3.419-4.977-6.533-8.782-5.582a8.459,8.459,0,0,0-5.734,5.362.259.259,0,1,1-.487-.179,8.973,8.973,0,0,1,6.09-5.685c4.085-1.021,8.336,2.292,9.41,5.936a.259.259,0,0,1-.175.322.269.269,0,0,1-.074.011" transform="translate(-22.291 -30.831)" fill="#382118"/>
        <path id="Trazado_718201" data-name="Trazado 718201" d="M60.767,47.3a.259.259,0,0,1-.252-.2c-.872-3.613-2.508-6.234-4.731-7.581a6.372,6.372,0,0,0-4.945-.758,9.581,9.581,0,0,0-5.912,5.93.259.259,0,1,1-.487-.179,10.119,10.119,0,0,1,6.268-6.253,6.889,6.889,0,0,1,5.345.816c2.344,1.419,4.061,4.152,4.966,7.9a.26.26,0,0,1-.191.314.277.277,0,0,1-.061.007" transform="translate(-21.882 -18.739)" fill="#382118"/>
        <path id="Trazado_718202" data-name="Trazado 718202" d="M101.824,69.05a.259.259,0,0,1-.249-.186c-1.008-3.419-4.978-6.533-8.782-5.582a8.459,8.459,0,0,0-5.734,5.362.259.259,0,1,1-.487-.179,8.974,8.974,0,0,1,6.09-5.685c4.083-1.02,8.336,2.292,9.41,5.936a.259.259,0,0,1-.175.322.266.266,0,0,1-.074.011" transform="translate(-42.635 -30.832)" fill="#382118"/>
        <path id="Trazado_718203" data-name="Trazado 718203" d="M103.03,47.523a.259.259,0,0,1-.252-.2c-.815-3.378-2.431-5.88-4.671-7.236a7.18,7.18,0,0,0-5.493-.859c-2.393.654-4.321,2.674-5.424,5.687a.259.259,0,1,1-.487-.179c1.162-3.175,3.215-5.31,5.78-6.01a7.693,7.693,0,0,1,5.893.916c1.647,1,3.835,3.118,4.906,7.558a.26.26,0,0,1-.191.314.276.276,0,0,1-.061.007" transform="translate(-42.699 -18.964)" fill="#382118"/>
        <path id="Trazado_718204" data-name="Trazado 718204" d="M142.165,70.972a.259.259,0,0,1-.249-.186c-1.009-3.419-4.977-6.532-8.782-5.582a8.458,8.458,0,0,0-5.734,5.362.259.259,0,0,1-.487-.178A8.972,8.972,0,0,1,133,64.7c4.084-1.02,8.336,2.293,9.41,5.936a.259.259,0,0,1-.175.322.269.269,0,0,1-.074.011" transform="translate(-62.506 -31.778)" fill="#382118"/>
        <path id="Trazado_718205" data-name="Trazado 718205" d="M169.069,68.916a.263.263,0,0,1-.089-.016.26.26,0,0,1-.154-.333,10.422,10.422,0,0,1,6.512-6.253c4.053-1.013,8.477,2.538,9.577,6.269a.26.26,0,0,1-.5.147c-1.014-3.439-5.233-6.843-8.949-5.915a9.877,9.877,0,0,0-6.156,5.93.26.26,0,0,1-.244.17" transform="translate(-83.15 -30.608)" fill="#382118"/>
        <path id="Trazado_718206" data-name="Trazado 718206" d="M142.411,49.445a.259.259,0,0,1-.252-.2c-.815-3.378-2.431-5.88-4.671-7.236a7.181,7.181,0,0,0-5.493-.859c-2.393.653-4.321,2.673-5.424,5.686a.259.259,0,1,1-.487-.178c1.162-3.176,3.215-5.31,5.78-6.01a7.7,7.7,0,0,1,5.893.916c1.647,1,3.835,3.118,4.906,7.559a.259.259,0,0,1-.191.313.25.25,0,0,1-.061.007" transform="translate(-62.097 -19.91)" fill="#382118"/>
      </g>
    </g>
  </g>
</svg>
