<svg xmlns="http://www.w3.org/2000/svg" xmlns:xlink="http://www.w3.org/1999/xlink" width="147.307" height="140" viewBox="0 0 147.307 140">
  <defs>
    <clipPath id="clip-path">
      <rect id="Rect치ngulo_344378" data-name="Rect치ngulo 344378" width="145.06" height="95.354" fill="none"/>
    </clipPath>
  </defs>
  <g id="Grupo_983942" data-name="Grupo 983942" transform="translate(-1208.693 11160)">
    <circle id="Elipse_5843" data-name="Elipse 5843" cx="70" cy="70" r="70" transform="translate(1216 -11160)" fill="#ffc403"/>
    <g id="Grupo_983604" data-name="Grupo 983604" transform="translate(1208.693 -11128.306)">
      <g id="Grupo_983603" data-name="Grupo 983603" clip-path="url(#clip-path)">
        <path id="Trazado_718357" data-name="Trazado 718357" d="M91.092,88.016a10.149,10.149,0,0,1-1.327-3.121,12.21,12.21,0,0,1,1.327,3.121" transform="translate(-47.549 -44.969)" fill="#f7ca68"/>
        <path id="Trazado_718358" data-name="Trazado 718358" d="M65.166,79.886a.235.235,0,0,1,.329-.148,106.986,106.986,0,0,1,9.852,6.139l1.213.817.149.054c-2.971-2.211-5.8-5.667-8.469-8.127L78.5,83.569a13.016,13.016,0,0,0-.446-2.683,8.345,8.345,0,0,0,4.86,3.709l.127-5.849,3.337,4.328a16.331,16.331,0,0,0,.351-5.228c2,.578,2.627,3.571,4.183,5.165,2.458,2.517,7.07-.261,6.759-4.072l3.039,4.045q.822-4.9,1.644-9.8a86.864,86.864,0,0,0,.909,8.962l.553-9.745a.265.265,0,0,1,.265-.272.284.284,0,0,1,.232.314l-.677,11.944q.133.732.277,1.46a19.024,19.024,0,0,0,4.689-7.887q.631,3.164,1.261,6.328a27.4,27.4,0,0,1,4.044-7.693q.688,3.818,1.376,7.635c.162-.255.319-.514.476-.773l2.958-11.813a.245.245,0,0,1,.309-.2.306.306,0,0,1,.169.365l-2.53,10.1a51.258,51.258,0,0,0,3.485-7.627,58.062,58.062,0,0,1,.7,10.36,18.816,18.816,0,0,0,10.223-6.676q.212,3.227.424,6.455a20.063,20.063,0,0,0,5.422-7.032,28.567,28.567,0,0,0,5.447,9.734l7.069-10.2a24.98,24.98,0,0,1,2.3,7.659,11.4,11.4,0,0,0,3.537-6.051l2.116,6.419a2.15,2.15,0,0,0,.83,1.322.87.87,0,0,0,.356.087,43.809,43.809,0,0,1,6-4.984.23.23,0,0,1,.344.1.324.324,0,0,1-.079.4,52.353,52.353,0,0,0-5.09,4.089l8.189-4.192a8.258,8.258,0,0,1-.341,3.846,62.912,62.912,0,0,1,6.427-5.549.228.228,0,0,1,.344.092.325.325,0,0,1-.076.4,58.563,58.563,0,0,0-4.705,3.921,12.521,12.521,0,0,1,5.906-2.058,9.725,9.725,0,0,1-5.134,7.182,20.823,20.823,0,0,1-7.67,1.939l-.557.614a.229.229,0,0,1-.166.079.235.235,0,0,1-.186-.093.332.332,0,0,1,.01-.415l.086-.095c-16.615,1.857-33.353,3.686-49.973,1.733-7.928-.932-15.763-2.732-23.679-3.779-1.445-.191-2.9-.247-4.33-.373.4.123.794.237,1.193.351-1.059-.061-2.094-.378-3.156-.391-1.129-.375-2.25-.76-3.356-1.156q.476.313.957.622c-.559-.15-1.118-.294-1.678-.426q-.744-.492-1.481-.988a89.876,89.876,0,0,0-9.741-3.045.3.3,0,0,1-.2-.345.252.252,0,0,1,.292-.23,77.037,77.037,0,0,1,7.732,2.33,99.845,99.845,0,0,0-9.157-5.673.317.317,0,0,1-.127-.388" transform="translate(-34.507 -37.838)" fill="#f7ca68"/>
        <path id="Trazado_718359" data-name="Trazado 718359" d="M236.4,45.316a62.009,62.009,0,0,0,4.256-25.306c0-.05-.007-.1-.009-.148q-.047-.758-.118-1.5c-.007-.072-.014-.145-.022-.217q-.071-.709-.165-1.4c-.011-.079-.021-.158-.032-.237q-.1-.686-.217-1.354c-.013-.073-.025-.147-.039-.22q-.128-.7-.282-1.369c-.01-.046-.02-.093-.031-.138a27.583,27.583,0,0,0-1.323-4.218c-.019-.045-.039-.087-.058-.132q-.233-.558-.488-1.089c-.052-.108-.108-.211-.161-.317-.143-.284-.29-.564-.443-.835-.072-.127-.147-.25-.222-.374-.144-.24-.291-.476-.443-.7-.087-.131-.176-.259-.266-.385q-.225-.317-.461-.618c-.1-.126-.2-.251-.3-.372-.16-.19-.325-.373-.492-.553-.107-.116-.214-.232-.325-.343-.175-.175-.357-.34-.54-.5-.112-.1-.221-.2-.336-.3-.2-.169-.416-.326-.629-.481-.1-.074-.2-.154-.3-.225a11.521,11.521,0,0,0-.994-.607c-.244-.132-.5-.25-.754-.359-.227-.1-.461-.188-.7-.272h0C220.353-2.9,202.065,7.263,193.288,23.5a46.612,46.612,0,0,0-4.275,10.71h0c-.158.626-.293,1.244-.413,1.858-.026.134-.049.267-.074.4q-.138.746-.24,1.48c-.017.123-.036.246-.052.368-.076.6-.136,1.187-.177,1.769,0,.045,0,.088-.006.133-.034.53-.051,1.054-.056,1.572,0,.135,0,.27,0,.4q0,.733.045,1.449c0,.072.006.146.011.218.037.548.093,1.089.165,1.623.013.1.031.2.045.3q.1.655.226,1.292c.025.121.049.242.075.363a22.066,22.066,0,0,0,.869,2.953c.042.112.087.223.13.335q.227.579.486,1.14c.042.092.082.184.126.275q.327.68.7,1.332c.033.057.069.112.1.169q.329.561.694,1.1.1.154.212.308c.255.363.52.718.8,1.065.034.043.066.087.1.13.317.388.652.764,1,1.131.075.079.153.156.23.234q.429.438.886.855c.09.081.178.164.269.245.386.34.782.672,1.2.989h0a23.88,23.88,0,0,0,3.16,2.037c12.764,6.9,29.835,1.626,36.88-16.423" transform="translate(-99.582 0)" fill="#fff"/>
        <path id="Trazado_718360" data-name="Trazado 718360" d="M241.214,12.616a.842.842,0,0,1-.553-1.478c.245-.213,6.086-5.218,12.366-4.488a.843.843,0,1,1-.195,1.674c-5.535-.645-11.012,4.039-11.067,4.086a.839.839,0,0,1-.552.206" transform="translate(-127.326 -3.484)" fill="#f0e1e1"/>
        <path id="Trazado_718361" data-name="Trazado 718361" d="M226.758,44.653a3.23,3.23,0,0,0-1.866.009l-.276-.17a8.25,8.25,0,0,1-.473,1.209,4.056,4.056,0,0,0,1.35.569,5.193,5.193,0,0,1,1.872.681c.357-.141.741-.315.778-.72.055-.586-.7-1.339-1.385-1.578" transform="translate(-118.73 -23.568)" fill="#a89999"/>
        <path id="Trazado_718362" data-name="Trazado 718362" d="M229.9,57.132a.741.741,0,0,0-.234-.142.98.98,0,0,0-.566,0l-.284-.175c-.19-.05-.222.2-.08.369a1.015,1.015,0,0,0,.546.294,2.638,2.638,0,0,1,.4.116,2.4,2.4,0,0,1,.22-.464" transform="translate(-121.117 -30.093)" fill="#a89999"/>
        <path id="Trazado_718363" data-name="Trazado 718363" d="M257.581,92.218a.757.757,0,0,0-.3-.212.98.98,0,0,0-.566,0l-.284-.175c-.19-.05-.222.2-.08.369a1.017,1.017,0,0,0,.547.294,1.8,1.8,0,0,1,.511.174,2.5,2.5,0,0,1,.176-.453" transform="translate(-135.742 -48.642)" fill="#a89999"/>
        <path id="Trazado_718364" data-name="Trazado 718364" d="M264.44,70.361a2.057,2.057,0,0,0-.819-.57,2.64,2.64,0,0,0-1.526.008l-.765-.472c-.512-.134-.6.542-.217.994a2.74,2.74,0,0,0,1.473.792,4.87,4.87,0,0,1,1.378.47,6.673,6.673,0,0,1,.475-1.221" transform="translate(-138.188 -36.713)" fill="#a89999"/>
        <path id="Trazado_718365" data-name="Trazado 718365" d="M284.291,31.962a1.91,1.91,0,0,0-.551-.318,2.609,2.609,0,0,0-1.508.008l-.757-.467c-.506-.133-.592.536-.214.983a2.707,2.707,0,0,0,1.456.783,6.393,6.393,0,0,1,1.113.328,6.743,6.743,0,0,1,.461-1.316" transform="translate(-148.862 -16.51)" fill="#a89999"/>
        <path id="Trazado_718366" data-name="Trazado 718366" d="M250.962,123.725l-.018-.008a1.7,1.7,0,0,0-.977.005l-.49-.3c-.328-.086-.383.347-.139.637a1.755,1.755,0,0,0,.943.507c.17.042.345.079.517.134a2.679,2.679,0,0,1,.164-.973" transform="translate(-131.996 -65.37)" fill="#a89999"/>
        <path id="Trazado_718367" data-name="Trazado 718367" d="M211.91,101.583a1.052,1.052,0,0,0-1.067-.268,1.255,1.255,0,0,0-.317.141,2.652,2.652,0,0,1,.2.952l.056-.021a2.727,2.727,0,0,1,1.01-.263c.112-.167.226-.356.121-.542" transform="translate(-111.518 -53.647)" fill="#a89999"/>
        <path id="Trazado_718368" data-name="Trazado 718368" d="M74.544,31.4a60.964,60.964,0,0,0-24.4-6.415l-.146,0q-.746-.022-1.48-.019l-.214,0q-.7.007-1.387.037l-.235.011q-.68.034-1.344.092l-.218.018q-.693.064-1.366.155l-.138.017a27.136,27.136,0,0,0-4.248.921c-.046.014-.089.031-.135.045-.378.119-.748.245-1.11.381-.11.041-.216.087-.325.13-.291.115-.578.234-.857.36-.131.059-.258.122-.386.184-.248.119-.492.242-.729.372-.136.073-.269.15-.4.226q-.331.191-.646.4c-.132.086-.263.172-.391.261-.2.14-.395.285-.586.433-.122.095-.246.189-.364.288-.187.156-.365.319-.541.484-.108.1-.219.2-.322.3-.184.184-.356.379-.526.574-.082.093-.169.182-.247.278a11.351,11.351,0,0,0-.683.919c-.15.227-.288.464-.419.707-.118.214-.225.435-.329.658h0C25.9,42.833,34.232,61.644,49.357,71.68a45.854,45.854,0,0,0,10.108,5.138h0c.6.21,1.193.4,1.783.57.129.038.257.072.385.108q.718.2,1.427.366c.119.028.238.057.356.084.577.127,1.15.239,1.717.33l.129.018c.516.08,1.028.143,1.535.194l.4.037q.718.061,1.424.084c.071,0,.143.008.214.009.54.012,1.075.006,1.6-.017.1,0,.2-.013.3-.018q.649-.036,1.285-.107c.12-.014.241-.026.361-.041a21.708,21.708,0,0,0,2.969-.589c.114-.031.226-.064.34-.1q.587-.171,1.159-.375c.094-.033.188-.064.28-.1.463-.173.919-.36,1.367-.566.059-.027.116-.058.174-.085q.578-.272,1.138-.582.161-.089.32-.18c.378-.218.749-.446,1.113-.688.045-.03.091-.057.136-.087.408-.277.806-.571,1.2-.878.084-.067.166-.136.249-.2q.468-.38.916-.791c.088-.08.177-.16.263-.242.367-.348.728-.706,1.075-1.084h0a23.5,23.5,0,0,0,2.276-2.913C95.237,57.087,91.591,39.9,74.544,31.4" transform="translate(-15.45 -13.224)" fill="#fff"/>
        <path id="Trazado_718369" data-name="Trazado 718369" d="M44.521,39.084A.843.843,0,0,1,44,37.576c.264-.206,6.568-5.014,14.68-3.54a.843.843,0,0,1-.3,1.658C51,34.35,45.1,38.86,45.038,38.906a.839.839,0,0,1-.516.177" transform="translate(-23.137 -17.88)" fill="#f0e1e1"/>
        <path id="Trazado_718370" data-name="Trazado 718370" d="M46.819,64.427a1.9,1.9,0,0,0-.813.043l-.148-.091a2.733,2.733,0,0,1-.048.753,2.454,2.454,0,0,0,.51.179l.285.07a2.1,2.1,0,0,1,.249-.273,2.789,2.789,0,0,1,.093-.458,2.255,2.255,0,0,1-.129-.224" transform="translate(-24.266 -34.103)" fill="#a89999"/>
        <path id="Trazado_718371" data-name="Trazado 718371" d="M60.3,91.786a1.9,1.9,0,0,0-.813.043l-.49-.3c-.328-.086-.384.347-.139.637a1.749,1.749,0,0,0,.943.507l.285.07a2.1,2.1,0,0,1,.249-.273,2.74,2.74,0,0,1,.093-.458,2.253,2.253,0,0,1-.129-.224" transform="translate(-31.098 -48.476)" fill="#a89999"/>
        <path id="Trazado_718372" data-name="Trazado 718372" d="M66.886,52.525a7.963,7.963,0,0,1-1.757-.41,6.048,6.048,0,0,1-1.084.626,6.373,6.373,0,0,0,0,1.936l-1.029,1.33c-.35.925.891,1.219,1.806.6a5.12,5.12,0,0,0,1.76-2.583c.145-.4.288-.814.455-1.22-.054-.091-.105-.183-.155-.277" transform="translate(-33.35 -27.606)" fill="#a89999"/>
        <path id="Trazado_718373" data-name="Trazado 718373" d="M93.4,43.6a6.414,6.414,0,0,1-1.3-.275,4.566,4.566,0,0,1-.8.42,3.9,3.9,0,0,0,0,1.3l-.76.891c-.259.62.658.817,1.335.4a3.441,3.441,0,0,0,1.3-1.731c.107-.27.213-.546.336-.818-.04-.061-.078-.123-.115-.186" transform="translate(-47.934 -22.948)" fill="#a89999"/>
        <path id="Trazado_718374" data-name="Trazado 718374" d="M96.655,60.89A2.844,2.844,0,0,1,97.7,61.909a6.5,6.5,0,0,0,.636-1.676c.055-.219.112-.441.17-.663a6.059,6.059,0,0,1-.232-.728,4.168,4.168,0,0,1-.928-.358,2.291,2.291,0,0,1-.618.356,7.273,7.273,0,0,0-.017,1.949Z" transform="translate(-51.197 -30.98)" fill="#a89999"/>
        <path id="Trazado_718375" data-name="Trazado 718375" d="M117.812,66.7a.982.982,0,0,1,.3-.005,2.908,2.908,0,0,0,.387-.706l.474-.3c.243-.255,0-.517-.328-.436a1.951,1.951,0,0,0-.864.61c-.063.069-.128.138-.193.207a2.478,2.478,0,0,1-.055.311,1.823,1.823,0,0,1,.278.317" transform="translate(-62.259 -34.559)" fill="#a89999"/>
        <path id="Trazado_718376" data-name="Trazado 718376" d="M75.68,97.213q-.134-.229-.264-.458a2.813,2.813,0,0,1,.264.458" transform="translate(-39.948 -51.252)" fill="#ffe09c"/>
        <path id="Trazado_718377" data-name="Trazado 718377" d="M18.264,98.955l-1.358-1.182a2.948,2.948,0,0,1,1.358,1.182" transform="translate(-8.955 -51.791)" fill="#ffe09c"/>
        <path id="Trazado_718378" data-name="Trazado 718378" d="M5.55,95.66c4.924,2.817,9.794,6.052,14.873,8.541,4.33,2.122,8.66,2.036,13.5,2.318q16.4.952,32.83,1.139,32.849.373,65.642-2.318a5.974,5.974,0,0,0,3.333-.964c1.081-.863,1.493-2.347,2.287-3.5,1.135-1.651,2.987-2.553,4.537-3.779s2.921-3.2,2.391-5.16L127.2,96.748l2.207-3.926-14.075,3.483.008-4.661c-3.7-.782-7.325,1.292-11.006,2.148a9.153,9.153,0,0,1-7.26-1.263L104.8,86.4l-.379-.461-7.811,6.192a4.44,4.44,0,0,1-1.364-2.748,27.341,27.341,0,0,1-10.623,5.33q-.215-2.906-.431-5.812l-9.224,5.432q-.1-3.059-.207-6.117a18.1,18.1,0,0,1-3.479,5.942c-1.621,1.609-4.1,2.5-6.142,1.551q-.023-3.216-.046-6.432c-4.009-.768-6.73,6.492-10.584,5.1-1.176-.424-2.227-1.654-3.422-1.289-.624.19-1.056.78-1.628,1.1-1.956,1.1-4.007-1.24-5.113-3.256.522,2.225-2.314,3.983-4.392,3.261-1.916-.666-3.165-2.515-4.229-4.341a3.922,3.922,0,0,1-3.18,5.234c-2.53.076-4.607-2.73-4.307-5.361l-.862,6.491a14.787,14.787,0,0,1-6.9-8.591,15.039,15.039,0,0,1-.712,7.543l-6.834-12.3q-.36,4.25-.72,8.5l-1.2-4.251q.561,2.779,1.121,5.557l-2.489-1.32-.339-.295q.052.083.1.168L5.207,89l-.287.522,4.818,2.555a3.121,3.121,0,0,1,0,1.523l-2.82-.4c.282.274.578.531.882.776L.152,92.025,0,92.6l9.19,2.342a12.1,12.1,0,0,0,2.2,1.042A14.2,14.2,0,0,0,5.55,95.66m6.739-2.231.055.273-.717-.624Z" transform="translate(0 -43.896)" fill="#ffe09c"/>
        <rect id="Rect치ngulo_344377" data-name="Rect치ngulo 344377" width="139.511" height="40.585" transform="translate(4.947 54.769)" fill="#d49f74"/>
        <path id="Trazado_718379" data-name="Trazado 718379" d="M12.694,176.478a.212.212,0,1,1,0-.424c3.72,0,7.575-.007,11.787-.019h0a.212.212,0,0,1,0,.424c-4.212.013-8.068.019-11.788.019" transform="translate(-6.612 -93.247)" fill="#382118"/>
        <path id="Trazado_718380" data-name="Trazado 718380" d="M65.247,176.128a.212.212,0,0,1,0-.424c14.192-.219,28.492-.2,42.322-.179,6.6.01,13.434.02,20.175,0h0a.212.212,0,0,1,0,.424c-6.742.016-13.572.007-20.177,0-13.828-.02-28.127-.041-42.315.179Z" transform="translate(-34.449 -92.971)" fill="#382118"/>
        <path id="Trazado_718381" data-name="Trazado 718381" d="M243.938,175.728a.212.212,0,0,1,0-.424c8.7-.076,17.541-.076,26.1-.076a.212.212,0,1,1,0,.424c-8.554,0-17.4,0-26.092.076Z" transform="translate(-129.103 -92.819)" fill="#382118"/>
        <path id="Trazado_718382" data-name="Trazado 718382" d="M14.4,144.923c-.851,0-1.707-.019-2.614-.058a.212.212,0,1,1,.018-.424c1.8.077,3.4.077,5.169,0a.212.212,0,1,1,.018.424c-.893.039-1.741.058-2.592.058" transform="translate(-6.135 -76.511)" fill="#382118"/>
        <path id="Trazado_718383" data-name="Trazado 718383" d="M51.971,145.4H49.485a.212.212,0,1,1,0-.424c15.664,0,31.86,0,47.68-.147h0a.212.212,0,0,1,0,.424c-14.986.14-30.311.147-45.2.147" transform="translate(-26.1 -76.715)" fill="#382118"/>
        <path id="Trazado_718384" data-name="Trazado 718384" d="M211.518,144.808q-1.246,0-2.491,0a.212.212,0,0,1,0-.424h0c6.326.02,12.681-.042,18.826-.1,8.185-.08,16.649-.164,25.048-.05a.213.213,0,0,1,.209.215.216.216,0,0,1-.215.209c-8.394-.114-16.856-.031-25.038.05-5.341.052-10.839.106-16.34.106" transform="translate(-110.611 -76.369)" fill="#382118"/>
      </g>
    </g>
  </g>
</svg>
