<svg xmlns="http://www.w3.org/2000/svg" xmlns:xlink="http://www.w3.org/1999/xlink" width="140" height="140" viewBox="0 0 140 140">
  <defs>
    <clipPath id="clip-path">
      <rect id="Rectángulo_344426" data-name="Rectángulo 344426" width="132.7" height="123.901" fill="none"/>
    </clipPath>
  </defs>
  <g id="Grupo_983945" data-name="Grupo 983945" transform="translate(-1216 10698)">
    <circle id="Elipse_5846" data-name="Elipse 5846" cx="70" cy="70" r="70" transform="translate(1216 -10698)" fill="#ffc403"/>
    <g id="Grupo_983618" data-name="Grupo 983618" transform="translate(1216 -10697.999)">
      <g id="Grupo_983617" data-name="Grupo 983617" transform="translate(0 -0.001)" clip-path="url(#clip-path)">
        <path id="Trazado_718502" data-name="Trazado 718502" d="M444.237,317.5c2.145,4.187,9.5,25.328,9.5,25.328l6.332-1.736c-.817-10.519-6.332-27.881-6.332-27.881Z" transform="translate(-349.767 -246.603)" fill="#fcaa97"/>
        <path id="Trazado_718503" data-name="Trazado 718503" d="M152.93,295.921c-2.145,6.945-13.175,28.494-13.175,28.494l5.107,3.37c8.477-8.681,17.77-26.758,17.77-26.758Z" transform="translate(-110.035 -232.991)" fill="#fcaa97"/>
        <path id="Trazado_718504" data-name="Trazado 718504" d="M293.029,122.308a16.442,16.442,0,0,1-.409,4.289,2.09,2.09,0,0,1-1.3,1.328l-6.771,2.451,12.905,18.268,11.606-18.472-3.419-1.641a1.687,1.687,0,0,1-1.085-1.518c-.105-2.4-.024-4.686-.024-4.686Z" transform="translate(-224.04 -96.298)" fill="#fcaa97"/>
        <path id="Trazado_718505" data-name="Trazado 718505" d="M338.44,131.945l-.278-.133a1.688,1.688,0,0,1-1.085-1.518c-.065-1.492-.059-2.937-.044-3.818l-11.18,1.667c2.665,7.629,10.955,4.5,12.586,3.8" transform="translate(-256.559 -99.579)" fill="#c77f6d"/>
        <path id="Trazado_718506" data-name="Trazado 718506" d="M314,20.2a2.1,2.1,0,0,0,.584-.7l1.629-2.684a5.443,5.443,0,0,0,.78-1.7A5.507,5.507,0,0,0,316.868,13l-.9-4.7a3.242,3.242,0,0,0-.551-1.489,6.831,6.831,0,0,0-1.568-1.046c-1.172-.809-1.645-2.382-2.795-3.221a6.019,6.019,0,0,0-1.74-.774L304.862.335a3.808,3.808,0,0,0-2.2-.252c-.417.122-.782.384-1.191.531-1.459.524-3.115-.5-4.6-.043-1.568.485-2.291,2.407-3.772,3.122a9.625,9.625,0,0,0-2.245.923c-1.26,1.072-.564,3.188-1.147,4.751-.371.994-1.28,1.794-1.32,2.856s.789,1.917,1.046,2.933c.283,1.117-.126,2.4.447,3.395.549.954,1.749,1.228,2.7,1.754.872.481,1.592,1.22,2.489,1.651a8.3,8.3,0,0,0,3.733.53l8.938-.115c1.168-.015,2.616-.017,3.572-.808.385-.318.417-.69.907-.95.536-.284,1.232-.056,1.772-.412" transform="translate(-227.062 0)" fill="#87cbed"/>
        <path id="Trazado_718507" data-name="Trazado 718507" d="M321.308,37.774c-.705-.235-.83.077-1.071.122.684-7.016-2.872-12.831-9.427-12.9-7.126-.076-10.059,5.252-9.785,12.314a1.355,1.355,0,0,0-1.036-.184c-.97.257-.832,1.651-.383,3.253s1.43,2.553,2.007,2.547a.6.6,0,0,0,.279-.117c1.622,5.677,4.634,9.635,7.926,9.622,3.589-.014,7.016-2.521,9.192-8.988.978.254,1.532,0,2.677-2.03.816-1.448.54-3.332-.379-3.638" transform="translate(-235.621 -19.679)" fill="#fcaa97"/>
        <path id="Trazado_718508" data-name="Trazado 718508" d="M344.711,111.255l-.021,0a.109.109,0,0,1-.085-.128,3.635,3.635,0,0,0,0-1.235.109.109,0,0,1,.215-.031,3.858,3.858,0,0,1,0,1.309.109.109,0,0,1-.107.087" transform="translate(-271.32 -86.423)" fill="#382118"/>
        <path id="Trazado_718509" data-name="Trazado 718509" d="M343.724,121.908a1.473,1.473,0,0,1-.85-.266.109.109,0,1,1,.123-.179,1.454,1.454,0,0,0,1.514.014.109.109,0,0,1,.114.185,1.872,1.872,0,0,1-.9.245" transform="translate(-269.922 -95.618)" fill="#382118"/>
        <path id="Trazado_718510" data-name="Trazado 718510" d="M396.853,95.275a.109.109,0,0,1-.06-.2,2.136,2.136,0,0,0,.73-2.215.109.109,0,0,1,.214-.038,2.346,2.346,0,0,1-.825,2.434.107.107,0,0,1-.06.018" transform="translate(-312.374 -73.012)" fill="#382118"/>
        <path id="Trazado_718511" data-name="Trazado 718511" d="M370.583,90.911c-.124.238-.859.1-1.642-.3s-1.318-.929-1.195-1.167.859-.1,1.642.3,1.318.929,1.195,1.167" transform="translate(-289.528 -70.327)" fill="#943c26"/>
        <path id="Trazado_718512" data-name="Trazado 718512" d="M316.238,86.285c.106.246.849.163,1.66-.187s1.381-.832,1.275-1.079-.849-.163-1.66.187-1.381.832-1.275,1.079" transform="translate(-248.978 -66.828)" fill="#943c26"/>
        <path id="Trazado_718513" data-name="Trazado 718513" d="M337.475,131.64a44,44,0,0,0,4.5.022c-2.491,2.816-4.5-.022-4.5-.022" transform="translate(-265.709 -103.646)" fill="#fff"/>
        <path id="Trazado_718514" data-name="Trazado 718514" d="M369.442,113.011c-.017.483-.705.85-1.537.82s-1.491-.445-1.474-.928.705-.85,1.537-.82,1.491.445,1.474.928" transform="translate(-288.506 -88.246)" fill="#ff8382"/>
        <path id="Trazado_718515" data-name="Trazado 718515" d="M318.048,110.525c-.031.482.617.916,1.447.97s1.528-.294,1.56-.776-.617-.916-1.447-.97-1.529.294-1.56.776" transform="translate(-250.412 -86.405)" fill="#ff8382"/>
        <path id="Trazado_718516" data-name="Trazado 718516" d="M333.826,56.984a11.694,11.694,0,0,1-2.9-1.291c-.455-.275-.893-.574-1.322-.889s-.88-.613-1.335-.9c-.664-.413-1.341-.8-2.01-1.2a18.262,18.262,0,0,1,4.069,2.31,14.787,14.787,0,0,0,9.443,2c-2.068-9.055-15.373-4.87-15.373-4.87a9.724,9.724,0,0,1,1.03.264l-.059.1c.924.544,1.871,1.038,2.786,1.579.458.27.907.554,1.343.857s.889.6,1.354.866a11.8,11.8,0,0,0,2.958,1.236,11.624,11.624,0,0,0,3.18.326,11.6,11.6,0,0,1-3.161-.4" transform="translate(-255.409 -40.304)" fill="#943c26"/>
        <path id="Trazado_718517" data-name="Trazado 718517" d="M306.468,33.034c.511-3.575,3.645-6.079,9.487-5.92,8,.219,9.713,6.226,9.713,6.226.191-5.178.465-13.254-9.217-13.454-13.319-.275-9.983,13.147-9.983,13.147" transform="translate(-241.003 -15.654)" fill="#87cbed"/>
        <path id="Trazado_718518" data-name="Trazado 718518" d="M307.968,59.3a4.571,4.571,0,0,1,.1-1.592,5.319,5.319,0,0,1,.606-1.505,5.787,5.787,0,0,1,1.045-1.266A6.9,6.9,0,0,1,311.069,54a10.014,10.014,0,0,1,3.1-1,15.243,15.243,0,0,1,1.608-.177c.537-.032,1.074-.041,1.612-.024a14.764,14.764,0,0,1,1.612.134,12.783,12.783,0,0,1,1.592.321,10.2,10.2,0,0,1,2.97,1.312,8.633,8.633,0,0,1,2.332,2.234,8.23,8.23,0,0,1,.8,1.394,6.391,6.391,0,0,1,.481,1.516,6.058,6.058,0,0,0-.294-.731c-.111-.237-.232-.469-.365-.694a9.037,9.037,0,0,0-2-2.354,9.56,9.56,0,0,0-1.258-.878,10.648,10.648,0,0,0-2.843-1.115,13.994,13.994,0,0,0-1.513-.271q-.765-.092-1.538-.112a19,19,0,0,0-3.085.169,10.58,10.58,0,0,0-2.932.826,6.328,6.328,0,0,0-1.291.786,5.365,5.365,0,0,0-1.774,2.436,5.226,5.226,0,0,0-.212.749,4.386,4.386,0,0,0-.1.78" transform="translate(-242.452 -41.562)" fill="#4d99bf"/>
        <path id="Trazado_718519" data-name="Trazado 718519" d="M366.54,103.332a6.442,6.442,0,0,1-1.983-.294.109.109,0,0,1,.069-.206,6.7,6.7,0,0,0,2.5.256.109.109,0,1,1,.024.216,5.9,5.9,0,0,1-.608.027" transform="translate(-286.974 -80.959)" fill="#382118"/>
        <path id="Trazado_718520" data-name="Trazado 718520" d="M368.327,104.354a4.053,4.053,0,0,1-.783-.113.681.681,0,0,0-.148.421.768.768,0,0,0,1.532,0,.671.671,0,0,0-.079-.314,4.288,4.288,0,0,1-.523.007" transform="translate(-289.267 -82.073)" fill="#382118"/>
        <path id="Trazado_718521" data-name="Trazado 718521" d="M322.357,100.45a6.439,6.439,0,0,1-1.982-.294.109.109,0,0,1,.069-.206,6.7,6.7,0,0,0,2.5.256.109.109,0,1,1,.024.216,5.925,5.925,0,0,1-.608.027" transform="translate(-252.186 -78.691)" fill="#382118"/>
        <path id="Trazado_718522" data-name="Trazado 718522" d="M324.143,101.474a4.054,4.054,0,0,1-.783-.113.68.68,0,0,0-.148.42.768.768,0,0,0,1.532,0,.671.671,0,0,0-.079-.314,4.286,4.286,0,0,1-.522.007" transform="translate(-254.479 -79.806)" fill="#382118"/>
        <path id="Trazado_718523" data-name="Trazado 718523" d="M304.333,91.67a.108.108,0,0,1-.081-.036,3.176,3.176,0,0,1-.536-2.645.109.109,0,1,1,.214.04,3.021,3.021,0,0,0,.485,2.461.109.109,0,0,1-.081.181" transform="translate(-239.072 -69.994)" fill="#382118"/>
        <path id="Trazado_718524" data-name="Trazado 718524" d="M218.1,146.081c2.043,8.477,5.924,11.949,5.924,11.949,4.8-3.575,7.864-11.03,7.864-11.03a130.811,130.811,0,0,1,13.335,6.324,8.787,8.787,0,0,1,4.143,4.817c4.457,12.6,7.85,23.992,7.85,23.992-5.107,3.779-12.562,5.719-12.562,5.719l-1.123-2.655c.817,10.928,1.021,34.316,1.021,34.316H199.823c0-5.311,1.838-18.588,1.838-18.588,1.021-5.413,1.941-16.341,1.941-16.341-4.29-.817-12.46-7.047-12.46-7.047,1.132-2.718,6.506-14.587,9.232-20.594a11.926,11.926,0,0,1,5.377-5.675,99.707,99.707,0,0,1,12.354-5.188" transform="translate(-150.494 -115.016)" fill="#73c0e6"/>
        <path id="Trazado_718525" data-name="Trazado 718525" d="M322.582,158.414l-.186-.226c-.236-.287-5.791-7.088-6-12.143l.651-.027c.177,4.332,4.685,10.28,5.664,11.523,4.248-3,7.669-10.644,7.7-10.722l.6.264c-.148.333-3.665,8.19-8.187,11.17Z" transform="translate(-249.114 -114.966)" fill="#4d99bf"/>
        <path id="Trazado_718526" data-name="Trazado 718526" d="M442.582,320.662l-.158-.633a42.083,42.083,0,0,0,12.453-5.669l.377.532a42.835,42.835,0,0,1-12.672,5.77" transform="translate(-348.339 -247.509)" fill="#4d99bf"/>
        <path id="Trazado_718527" data-name="Trazado 718527" d="M202.679,300.491a33.183,33.183,0,0,1-12.6-7.127l.452-.47a32.447,32.447,0,0,0,12.319,6.967Z" transform="translate(-149.657 -230.608)" fill="#4d99bf"/>
        <path id="Trazado_718528" data-name="Trazado 718528" d="M322.33,263.255h0a.108.108,0,0,1-.1-.113l2.352-59.608.06-.028a8.41,8.41,0,0,0,2.518-1.71.109.109,0,0,1,.162.145,8.4,8.4,0,0,1-2.529,1.734l-2.346,59.476a.109.109,0,0,1-.108.1" transform="translate(-253.699 -158.854)" fill="#382118"/>
        <path id="Trazado_718529" data-name="Trazado 718529" d="M248.85,280.365h-.009a.109.109,0,0,1-.1-.117c.007-.089.712-8.926.51-13.059a.109.109,0,0,1,.1-.114.11.11,0,0,1,.114.1c.2,4.146-.5,13-.511,13.087a.109.109,0,0,1-.108.1" transform="translate(-195.845 -210.28)" fill="#382118"/>
        <path id="Trazado_718530" data-name="Trazado 718530" d="M437.417,284.41a.109.109,0,0,1-.108-.105c0-.062-.206-6.311-.307-13.279a.109.109,0,0,1,.107-.11.108.108,0,0,1,.11.107c.1,6.965.3,13.213.306,13.275a.109.109,0,0,1-.105.112h0" transform="translate(-344.07 -213.303)" fill="#382118"/>
        <path id="Trazado_718531" data-name="Trazado 718531" d="M401.181,426.676a.109.109,0,0,1-.109-.108l-.091-17.162,8.426-.216h0a.109.109,0,0,1,0,.217l-8.213.21.09,16.949a.109.109,0,0,1-.108.109Z" transform="translate(-315.71 -322.173)" fill="#382118"/>
        <path id="Trazado_718532" data-name="Trazado 718532" d="M247.4,423.379h0a.108.108,0,0,1-.1-.113l.761-16.932-7.893-.524a.109.109,0,1,1,.014-.217l8.1.538-.77,17.145a.109.109,0,0,1-.108.1" transform="translate(-189.012 -319.339)" fill="#382118"/>
        <path id="Trazado_718533" data-name="Trazado 718533" d="M341.62,212.767a1.039,1.039,0,1,1-1.039-1.039,1.039,1.039,0,0,1,1.039,1.039" transform="translate(-267.336 -166.702)" fill="#4d99bf"/>
        <path id="Trazado_718534" data-name="Trazado 718534" d="M337.3,288.167a1.039,1.039,0,1,1-1.039-1.039,1.039,1.039,0,0,1,1.039,1.039" transform="translate(-263.932 -226.068)" fill="#4d99bf"/>
        <path id="Trazado_718535" data-name="Trazado 718535" d="M333.936,358.765a1.039,1.039,0,1,1-1.039-1.039,1.039,1.039,0,0,1,1.039,1.039" transform="translate(-261.286 -281.653)" fill="#4d99bf"/>
        <path id="Trazado_718536" data-name="Trazado 718536" d="M331.534,435.606a1.039,1.039,0,1,1-1.039-1.039,1.039,1.039,0,0,1,1.039,1.039" transform="translate(-259.395 -342.153)" fill="#4d99bf"/>
        <path id="Trazado_718537" data-name="Trazado 718537" d="M132.925,500H.391L9.64,477.938H123.675Z" transform="translate(-0.308 -376.301)" fill="#dbdbdb"/>
        <rect id="Rectángulo_344407" data-name="Rectángulo 344407" width="21.819" height="1.63" transform="matrix(0.365, -0.931, 0.931, 0.365, 3.956, 122.275)" fill="#bababa"/>
        <rect id="Rectángulo_344408" data-name="Rectángulo 344408" width="21.473" height="1.63" transform="translate(10.873 122.158) rotate(-70.769)" fill="#bababa"/>
        <rect id="Rectángulo_344409" data-name="Rectángulo 344409" width="21.16" height="1.63" transform="matrix(0.292, -0.956, 0.956, 0.292, 17.777, 122.042)" fill="#bababa"/>
        <rect id="Rectángulo_344410" data-name="Rectángulo 344410" width="21.077" height="1.63" transform="matrix(0.253, -0.968, 0.968, 0.253, 24.467, 122.709)" fill="#bababa"/>
        <rect id="Rectángulo_344411" data-name="Rectángulo 344411" width="20.869" height="1.63" transform="matrix(0.212, -0.977, 0.977, 0.212, 31.351, 122.742)" fill="#bababa"/>
        <rect id="Rectángulo_344412" data-name="Rectángulo 344412" width="20.673" height="1.63" transform="translate(38.252 122.677) rotate(-80.147)" fill="#bababa"/>
        <rect id="Rectángulo_344413" data-name="Rectángulo 344413" width="20.66" height="1.63" transform="matrix(0.129, -0.992, 0.992, 0.129, 45.072, 123.203)" fill="#bababa"/>
        <rect id="Rectángulo_344414" data-name="Rectángulo 344414" width="20.492" height="1.63" transform="translate(52.002 122.943) rotate(-85.084)" fill="#bababa"/>
        <rect id="Rectángulo_344415" data-name="Rectángulo 344415" width="20.458" height="1.63" transform="translate(58.893 123.077) rotate(-87.585)" fill="#bababa"/>
        <rect id="Rectángulo_344416" data-name="Rectángulo 344416" width="1.63" height="20.392" transform="translate(65.759 102.524) rotate(-0.094)" fill="#bababa"/>
        <rect id="Rectángulo_344417" data-name="Rectángulo 344417" width="1.63" height="20.437" transform="translate(71.762 102.634) rotate(-2.602)" fill="#bababa"/>
        <rect id="Rectángulo_344418" data-name="Rectángulo 344418" width="1.63" height="20.521" transform="translate(77.772 102.744) rotate(-5.101)" fill="#bababa"/>
        <rect id="Rectángulo_344419" data-name="Rectángulo 344419" width="1.63" height="20.62" transform="translate(83.781 102.779) rotate(-7.58)" fill="#bababa"/>
        <rect id="Rectángulo_344420" data-name="Rectángulo 344420" width="1.63" height="20.806" transform="translate(89.818 102.962) rotate(-10.031)" fill="#bababa"/>
        <rect id="Rectángulo_344421" data-name="Rectángulo 344421" width="1.63" height="20.908" transform="translate(95.787 102.772) rotate(-12.445)" fill="#bababa"/>
        <rect id="Rectángulo_344422" data-name="Rectángulo 344422" width="1.63" height="21.193" transform="matrix(0.967, -0.256, 0.256, 0.967, 101.856, 103.029)" fill="#bababa"/>
        <rect id="Rectángulo_344423" data-name="Rectángulo 344423" width="1.63" height="21.415" transform="translate(107.853 102.986) rotate(-17.136)" fill="#bababa"/>
        <rect id="Rectángulo_344424" data-name="Rectángulo 344424" width="1.63" height="21.645" transform="translate(113.819 102.868) rotate(-19.4)" fill="#bababa"/>
        <rect id="Rectángulo_344425" data-name="Rectángulo 344425" width="1.63" height="21.882" transform="translate(119.744 102.674) rotate(-21.601)" fill="#bababa"/>
        <path id="Trazado_718538" data-name="Trazado 718538" d="M50.631,501.243a5.186,5.186,0,0,1-4.393,3.418c-1.772,0-2.6-1.539-1.876-3.4A5.191,5.191,0,0,1,48.7,498c1.692,0,2.563,1.431,1.933,3.247" transform="translate(-34.72 -392.093)" fill="#fff"/>
        <path id="Trazado_718539" data-name="Trazado 718539" d="M69.334,537.572c-.626,2.079-2.664,3.81-4.538,3.815s-2.8-1.719-2.081-3.8a5.332,5.332,0,0,1,4.48-3.633c1.784,0,2.748,1.593,2.139,3.616" transform="translate(-49.187 -420.406)" fill="#fff"/>
        <path id="Trazado_718540" data-name="Trazado 718540" d="M143.389,490.317a4.252,4.252,0,0,1-3.861,3.3,2.419,2.419,0,0,1-2.3-3.288,4.26,4.26,0,0,1,3.827-3.155,2.4,2.4,0,0,1,2.335,3.14" transform="translate(-107.957 -383.575)" fill="#fff"/>
        <path id="Trazado_718541" data-name="Trazado 718541" d="M135.439,522.257a4.6,4.6,0,0,1-4.094,3.645c-1.831,0-2.889-1.641-2.376-3.628a4.6,4.6,0,0,1,4.054-3.475c1.745,0,2.831,1.524,2.416,3.458" transform="translate(-101.442 -408.473)" fill="#fff"/>
        <path id="Trazado_718542" data-name="Trazado 718542" d="M198.965,505.366c-.238,2.244-1.873,4.109-3.648,4.113s-2.948-1.855-2.629-4.1c.311-2.187,1.931-3.923,3.625-3.927s2.883,1.725,2.652,3.912" transform="translate(-151.67 -394.816)" fill="#fff"/>
        <path id="Trazado_718543" data-name="Trazado 718543" d="M231.879,492.23c-.145,2.168-1.68,3.971-3.423,3.975s-2.971-1.792-2.747-3.961c.219-2.114,1.743-3.794,3.409-3.8s2.9,1.669,2.762,3.783" transform="translate(-177.689 -384.575)" fill="#fff"/>
        <path id="Trazado_718544" data-name="Trazado 718544" d="M227.04,530.325c-.162,2.483-1.79,4.55-3.632,4.555s-3.128-2.055-2.877-4.539c.243-2.419,1.859-4.336,3.615-4.341s3.053,1.907,2.895,4.325" transform="translate(-173.609 -414.142)" fill="#fff"/>
        <path id="Trazado_718545" data-name="Trazado 718545" d="M289.685,496.738c.007,2.242-1.329,4.106-2.984,4.11s-2.939-1.854-2.87-4.1c.067-2.186,1.4-3.92,2.981-3.924s2.866,1.725,2.872,3.91" transform="translate(-223.47 -388.024)" fill="#fff"/>
        <path id="Trazado_718546" data-name="Trazado 718546" d="M319.934,532.956c.1,2.5-1.307,4.585-3.149,4.59s-3.346-2.071-3.359-4.574c-.013-2.437,1.4-4.37,3.154-4.374s3.255,1.922,3.353,4.358" transform="translate(-246.774 -416.188)" fill="#fff"/>
        <path id="Trazado_718547" data-name="Trazado 718547" d="M348.566,490.96c.171,2.257-1.1,4.134-2.851,4.138s-3.239-1.866-3.331-4.124c-.089-2.2,1.193-3.949,2.862-3.953s3.154,1.738,3.32,3.939" transform="translate(-269.571 -383.452)" fill="#fff"/>
        <path id="Trazado_718548" data-name="Trazado 718548" d="M381.865,534.335c.286,2.473-1,4.533-2.878,4.537s-3.563-2.047-3.758-4.521c-.189-2.407,1.111-4.316,2.9-4.32s3.458,1.9,3.736,4.3" transform="translate(-295.42 -417.317)" fill="#fff"/>
        <path id="Trazado_718549" data-name="Trazado 718549" d="M436.764,492.2c.407,2.137-.669,3.913-2.413,3.917s-3.429-1.766-3.757-3.9c-.32-2.084.777-3.739,2.443-3.742s3.33,1.644,3.726,3.728" transform="translate(-338.982 -384.597)" fill="#fff"/>
        <path id="Trazado_718550" data-name="Trazado 718550" d="M444.293,532.414c.468,2.461-.662,4.511-2.535,4.516s-3.706-2.037-4.082-4.5c-.367-2.4.789-4.3,2.573-4.3s3.59,1.888,4.045,4.283" transform="translate(-344.547 -415.82)" fill="#fff"/>
        <path id="Trazado_718551" data-name="Trazado 718551" d="M471.036,508.737c.528,2.319-.507,4.248-2.324,4.253s-3.658-1.918-4.1-4.237c-.431-2.259.633-4.051,2.365-4.055s3.544,1.781,4.059,4.04" transform="translate(-365.734 -397.369)" fill="#fff"/>
        <path id="Trazado_718552" data-name="Trazado 718552" d="M531.965,523.837c.707,2-.191,3.657-2.023,3.662a5.192,5.192,0,0,1-4.452-3.645c-.6-1.944.334-3.486,2.081-3.491a5.189,5.189,0,0,1,4.395,3.474" transform="translate(-413.597 -409.704)" fill="#fff"/>
        <path id="Trazado_718553" data-name="Trazado 718553" d="M570.5,539.224c.838,2.089.015,3.828-1.859,3.834s-4.016-1.727-4.763-3.816c-.727-2.033.144-3.646,1.929-3.65s3.877,1.6,4.693,3.633" transform="translate(-443.766 -421.694)" fill="#fff"/>
        <path id="Trazado_718554" data-name="Trazado 718554" d="M155.731,479.871H40.076l.81-1.933H154.921Z" transform="translate(-31.553 -376.301)" fill="#bababa"/>
        <path id="Trazado_718555" data-name="Trazado 718555" d="M132.7,573.232H0l1.065-2.54H131.636Z" transform="translate(0 -449.33)" fill="#bababa"/>
        <path id="Trazado_718556" data-name="Trazado 718556" d="M103.917,479.9c.48,2.251-.474,4.361-2.129,4.714s-3.386-1.186-3.865-3.437.474-4.361,2.129-4.714,3.386,1.186,3.865,3.437" transform="translate(-77.001 -375.099)" fill="#fff"/>
        <path id="Trazado_718557" data-name="Trazado 718557" d="M95.552,418.866c-.5,1.072-1.952,3.446-2.778,4.774a2.63,2.63,0,0,1-1.64,1.175,18.357,18.357,0,0,0-3.038.894,10.615,10.615,0,0,0-4.9,10.52c.613,1.532,1.532,0,1.532,0,1.328.511,1.532-1.43,1.532-1.43.1-2.758,4.289-5.311,4.289-5.311,2.758-.511,2.86,1.94,2.86,1.94a17.459,17.459,0,0,1-.715,2.349,3.5,3.5,0,0,0,.364,3.341c.415.591.862.335,1.372-.175a6.861,6.861,0,0,0,.306-1.838c1.021-4.289,7.456-11.643,7.456-11.643-1.123-1.736-6.639-4.6-6.639-4.6" transform="translate(-65.424 -329.791)" fill="#99d3f0"/>
        <path id="Trazado_718558" data-name="Trazado 718558" d="M89.743,472.687a.081.081,0,0,1-.079-.062c-1.021-4.082,2.234-7.5,2.267-7.532a.082.082,0,0,1,.117.114c-.032.033-3.224,3.386-2.226,7.379a.081.081,0,0,1-.059.1l-.02,0" transform="translate(-70.44 -366.168)" fill="#382118"/>
        <path id="Trazado_718559" data-name="Trazado 718559" d="M501.954,493.5c-.1-2.3,1.183-4.224,2.874-4.3s3.145,1.726,3.249,4.025-1.183,4.224-2.874,4.3-3.145-1.726-3.249-4.025" transform="translate(-395.206 -385.163)" fill="#fff"/>
        <path id="Trazado_718560" data-name="Trazado 718560" d="M483.618,437.786a20.194,20.194,0,0,1,7.66-1.634,24.716,24.716,0,0,0,.44,3.536,3.5,3.5,0,0,0,.835,1.938c1.486,1.725,2.365,2.612,2.793,3.017a2.731,2.731,0,0,1,.556.744c.875,1.72,1.545,3.242,1.843,3.941a2,2,0,0,1,.161.839c-.105,4.034-.3,4.266-.3,4.266-.306.919-1.021.715-1.021.715a1.1,1.1,0,0,1-1.634,0l-.1-1.021c-2.349,2.451-1.43-1.838-1.43-1.838-1.736-6.434-4.494-6.23-4.494-6.23.2,2.655.2,4.187.2,4.187a2.767,2.767,0,0,1-.917,2.139.754.754,0,0,1-1.249-.445,4.612,4.612,0,0,1,.021-1.387c-.306-2.962-.817-3.575-.817-3.575a7.953,7.953,0,0,1-.881-3.539,5.162,5.162,0,0,0-.6-2.321Z" transform="translate(-380.773 -343.4)" fill="#99d3f0"/>
        <path id="Trazado_718561" data-name="Trazado 718561" d="M533.5,495.5a.081.081,0,0,1-.075-.114c1.4-3.19-.689-6.631-.71-6.665a.081.081,0,0,1,.139-.086c.022.035,2.151,3.547.72,6.816a.082.082,0,0,1-.075.049" transform="translate(-419.419 -384.696)" fill="#382118"/>
        <path id="Trazado_718562" data-name="Trazado 718562" d="M541.662,494.635h-.011a.082.082,0,0,1-.07-.092c.123-.925.231-1.668.318-2.266.381-2.632.381-2.632-.295-4.2-.193-.445-.432-1-.733-1.77a.081.081,0,1,1,.152-.059c.3.768.539,1.321.731,1.765.695,1.607.695,1.607.307,4.284-.087.6-.194,1.34-.318,2.264a.081.081,0,0,1-.081.071" transform="translate(-425.847 -382.806)" fill="#382118"/>
      </g>
    </g>
  </g>
</svg>
