<svg xmlns="http://www.w3.org/2000/svg" width="964" height="105" viewBox="0 0 964 105">
  <g id="Grupo_983977" data-name="Grupo 983977" transform="translate(-311 -10726)">
    <rect id="Rect치ngulo_344732" data-name="Rect치ngulo 344732" width="439" height="105" rx="10" transform="translate(311 10726)" fill="#06d1d1"/>
    <rect id="Rect치ngulo_344733" data-name="Rect치ngulo 344733" width="439" height="105" rx="10" transform="translate(836 10726)" fill="#b20d0d"/>
    <path id="Feature_One" data-name="Feature One" d="M139.131,19.836h7.16V23H135.018V5.938h4.113ZM152.01,23h-3.961V10.32h3.961Zm-4.2-15.949a1.763,1.763,0,0,1,.609-1.383,2.591,2.591,0,0,1,3.164,0,1.763,1.763,0,0,1,.609,1.383,1.763,1.763,0,0,1-.609,1.383,2.591,2.591,0,0,1-3.164,0A1.763,1.763,0,0,1,147.814,7.051Zm10.359,3.27.129,1.488a4.36,4.36,0,0,1,3.621-1.723A3.21,3.21,0,0,1,165.17,12a4.22,4.22,0,0,1,3.727-1.91q3.855,0,3.961,4.664V23H168.9V15a2.417,2.417,0,0,0-.328-1.418,1.4,1.4,0,0,0-1.2-.445,1.871,1.871,0,0,0-1.746,1.043l.012.164V23h-3.961V15.02a2.541,2.541,0,0,0-.316-1.441,1.393,1.393,0,0,0-1.207-.445,1.894,1.894,0,0,0-1.734,1.043V23h-3.949V10.32Zm28.711,6.434a7.646,7.646,0,0,1-1.33,4.717,4.264,4.264,0,0,1-3.592,1.764,3.655,3.655,0,0,1-2.871-1.277v5.918h-3.949V10.32h3.691l.117,1.172a3.656,3.656,0,0,1,2.988-1.406,4.3,4.3,0,0,1,3.645,1.729,7.741,7.741,0,0,1,1.3,4.752Zm-3.949-.246q0-3.375-1.969-3.375a1.859,1.859,0,0,0-1.875,1.008v4.992a1.919,1.919,0,0,0,1.9,1.055q1.887,0,1.945-3.258ZM192.791,23H188.83V10.32h3.961ZM188.6,7.051a1.763,1.763,0,0,1,.609-1.383,2.591,2.591,0,0,1,3.164,0,1.763,1.763,0,0,1,.609,1.383,1.763,1.763,0,0,1-.609,1.383,2.591,2.591,0,0,1-3.164,0A1.763,1.763,0,0,1,188.6,7.051Zm12.762,16.184a6.518,6.518,0,0,1-4.723-1.74,6.009,6.009,0,0,1-1.8-4.529v-.328a7.787,7.787,0,0,1,.721-3.434,5.274,5.274,0,0,1,2.1-2.3,6.35,6.35,0,0,1,3.281-.814,5.489,5.489,0,0,1,4.219,1.658,6.516,6.516,0,0,1,1.547,4.623V17.9H198.85a2.846,2.846,0,0,0,.926,1.676,2.755,2.755,0,0,0,1.852.609,3.549,3.549,0,0,0,2.93-1.312l1.8,2.133a5.045,5.045,0,0,1-2.092,1.623A7.069,7.069,0,0,1,201.357,23.234Zm-.445-10.1q-1.734,0-2.062,2.3h3.984v-.3a1.956,1.956,0,0,0-.48-1.471A1.912,1.912,0,0,0,200.912,13.133Zm12.035,6.82h5.777V23h-10.77V20.8l5.625-7.43H208.2V10.32H218.6v2.133ZM227.783,23a4.459,4.459,0,0,1-.375-1.137,3.672,3.672,0,0,1-3.047,1.371,4.5,4.5,0,0,1-3.047-1.084,3.45,3.45,0,0,1-1.254-2.725,3.546,3.546,0,0,1,1.523-3.117,7.761,7.761,0,0,1,4.43-1.055h1.219v-.671q0-1.755-1.512-1.755a1.236,1.236,0,0,0-1.406,1.39h-3.949a3.54,3.54,0,0,1,1.564-2.985,6.575,6.575,0,0,1,3.99-1.147,5.764,5.764,0,0,1,3.832,1.184,4.115,4.115,0,0,1,1.441,3.246v5.613a5.748,5.748,0,0,0,.539,2.672V23Zm-2.473-2.578a2.2,2.2,0,0,0,1.225-.316,1.983,1.983,0,0,0,.7-.715V17.363h-1.148q-2.062,0-2.062,1.852a1.131,1.131,0,0,0,.363.873A1.315,1.315,0,0,0,225.311,20.422Z" transform="translate(348 10760)"/>
    <path id="Feature_Two" data-name="Feature Two" d="M139.271,23V5.938h5.5a8.085,8.085,0,0,1,4.066,1.025,7.208,7.208,0,0,1,2.818,2.895,8.739,8.739,0,0,1,1.025,4.189v.785a8.79,8.79,0,0,1-.99,4.2,7.239,7.239,0,0,1-2.789,2.906A7.907,7.907,0,0,1,144.885,23Zm4.113-13.887V19.836h1.43a3.2,3.2,0,0,0,2.719-1.26,6.173,6.173,0,0,0,.949-3.744v-.738a6.123,6.123,0,0,0-.949-3.727,3.256,3.256,0,0,0-2.766-1.254ZM160.74,23.234a6.518,6.518,0,0,1-4.723-1.74,6.009,6.009,0,0,1-1.8-4.529v-.328a7.787,7.787,0,0,1,.721-3.434,5.274,5.274,0,0,1,2.1-2.3,6.35,6.35,0,0,1,3.281-.814,5.489,5.489,0,0,1,4.219,1.658,6.516,6.516,0,0,1,1.547,4.623V17.9h-7.852a2.846,2.846,0,0,0,.926,1.676,2.755,2.755,0,0,0,1.852.609,3.549,3.549,0,0,0,2.93-1.312l1.8,2.133a5.045,5.045,0,0,1-2.092,1.623A7.069,7.069,0,0,1,160.74,23.234Zm-.445-10.1q-1.734,0-2.062,2.3h3.984v-.3a1.956,1.956,0,0,0-.48-1.471A1.912,1.912,0,0,0,160.295,13.133Zm14.016,6.3a.912.912,0,0,0-.527-.809,8.021,8.021,0,0,0-2-.633,9.138,9.138,0,0,1-2.437-.861,4.083,4.083,0,0,1-1.465-1.295,3.092,3.092,0,0,1-.5-1.746,3.5,3.5,0,0,1,1.441-2.877,5.938,5.938,0,0,1,3.773-1.131,6.579,6.579,0,0,1,4.031,1.137,3.555,3.555,0,0,1,1.523,2.988h-3.961q0-1.523-1.605-1.523a1.591,1.591,0,0,0-1.043.346,1.07,1.07,0,0,0-.422.861.982.982,0,0,0,.516.855,4.872,4.872,0,0,0,1.646.539,14.228,14.228,0,0,1,1.986.5q2.859.984,2.859,3.527a3.321,3.321,0,0,1-1.541,2.824,6.758,6.758,0,0,1-3.99,1.09,6.9,6.9,0,0,1-2.906-.586,4.86,4.86,0,0,1-1.992-1.594,3.609,3.609,0,0,1-.715-2.121h3.691a1.526,1.526,0,0,0,.586,1.283,2.41,2.41,0,0,0,1.441.4,1.9,1.9,0,0,0,1.213-.328A1.05,1.05,0,0,0,174.311,19.438ZM184.131,23H180.17V10.32h3.961Zm-4.2-15.949a1.763,1.763,0,0,1,.609-1.383,2.591,2.591,0,0,1,3.164,0,1.763,1.763,0,0,1,.609,1.383,1.763,1.763,0,0,1-.609,1.383,2.591,2.591,0,0,1-3.164,0A1.763,1.763,0,0,1,179.936,7.051Zm10.254,3.27.129,1.488a4.3,4.3,0,0,1,3.621-1.723A3.618,3.618,0,0,1,196.9,11.27a5.635,5.635,0,0,1,1.014,3.563V23h-3.961V15a2.14,2.14,0,0,0-.387-1.412,1.789,1.789,0,0,0-1.406-.451,1.883,1.883,0,0,0-1.723.914V23h-3.949V10.32ZM200.971,23V13.063h-1.84V10.32h1.84V9.313a4.381,4.381,0,0,1,1.277-3.363,5.047,5.047,0,0,1,3.586-1.2A7.853,7.853,0,0,1,207.686,5l.012,2.906a3.608,3.608,0,0,0-.973-.105q-1.793,0-1.793,1.547v.973H207.4v2.742h-2.473V23Zm13.676.234a6.518,6.518,0,0,1-4.723-1.74,6.009,6.009,0,0,1-1.8-4.529v-.328a7.787,7.787,0,0,1,.721-3.434,5.274,5.274,0,0,1,2.1-2.3,6.35,6.35,0,0,1,3.281-.814,5.489,5.489,0,0,1,4.219,1.658,6.516,6.516,0,0,1,1.547,4.623V17.9h-7.852a2.846,2.846,0,0,0,.926,1.676,2.755,2.755,0,0,0,1.852.609,3.549,3.549,0,0,0,2.93-1.312l1.8,2.133a5.045,5.045,0,0,1-2.092,1.623A7.069,7.069,0,0,1,214.646,23.234Zm-.445-10.1q-1.734,0-2.062,2.3h3.984v-.3a1.956,1.956,0,0,0-.48-1.471A1.912,1.912,0,0,0,214.2,13.133Zm12.738,7.055a1.756,1.756,0,0,0,1.289-.451,1.654,1.654,0,0,0,.445-1.26h3.7a4.384,4.384,0,0,1-1.494,3.422,5.558,5.558,0,0,1-3.85,1.336,5.627,5.627,0,0,1-4.359-1.734,6.834,6.834,0,0,1-1.594-4.8v-.164a7.723,7.723,0,0,1,.709-3.393,5.162,5.162,0,0,1,2.045-2.262A6.1,6.1,0,0,1,227,10.086a5.488,5.488,0,0,1,3.926,1.371,4.863,4.863,0,0,1,1.453,3.715h-3.7a2.168,2.168,0,0,0-.48-1.512,1.658,1.658,0,0,0-1.289-.527q-1.535,0-1.793,1.957a13.809,13.809,0,0,0-.082,1.711,5.424,5.424,0,0,0,.457,2.648A1.582,1.582,0,0,0,226.939,20.188Zm12.469,0a1.756,1.756,0,0,0,1.289-.451,1.654,1.654,0,0,0,.445-1.26h3.7a4.384,4.384,0,0,1-1.494,3.422,5.558,5.558,0,0,1-3.85,1.336,5.627,5.627,0,0,1-4.359-1.734,6.834,6.834,0,0,1-1.594-4.8v-.164a7.723,7.723,0,0,1,.709-3.393,5.162,5.162,0,0,1,2.045-2.262,6.1,6.1,0,0,1,3.164-.791,5.488,5.488,0,0,1,3.926,1.371,4.863,4.863,0,0,1,1.453,3.715h-3.7a2.168,2.168,0,0,0-.48-1.512,1.658,1.658,0,0,0-1.289-.527q-1.535,0-1.793,1.957A13.809,13.809,0,0,0,237.5,16.8a5.424,5.424,0,0,0,.457,2.648A1.582,1.582,0,0,0,239.408,20.188ZM250.682,23h-3.961V10.32h3.961Zm-4.2-15.949a1.763,1.763,0,0,1,.609-1.383,2.591,2.591,0,0,1,3.164,0,1.763,1.763,0,0,1,.609,1.383,1.763,1.763,0,0,1-.609,1.383,2.591,2.591,0,0,1-3.164,0A1.763,1.763,0,0,1,246.486,7.051Zm6.129,9.492a7.484,7.484,0,0,1,.738-3.381,5.28,5.28,0,0,1,2.121-2.279,6.388,6.388,0,0,1,3.246-.8,5.83,5.83,0,0,1,4.488,1.764,6.768,6.768,0,0,1,1.641,4.8v.141a6.566,6.566,0,0,1-1.646,4.705,5.846,5.846,0,0,1-4.459,1.74,5.912,5.912,0,0,1-4.348-1.623,6.348,6.348,0,0,1-1.77-4.4Zm3.949.246a4.718,4.718,0,0,0,.551,2.578,1.835,1.835,0,0,0,1.629.82q2.109,0,2.156-3.246v-.4q0-3.41-2.18-3.41-1.98,0-2.145,2.941ZM259.26,5h4.172l-3.258,3.68-3.223-.006Zm10.957,5.32.129,1.488a4.3,4.3,0,0,1,3.621-1.723,3.618,3.618,0,0,1,2.959,1.184,5.635,5.635,0,0,1,1.014,3.563V23h-3.961V15a2.14,2.14,0,0,0-.387-1.412,1.789,1.789,0,0,0-1.406-.451,1.883,1.883,0,0,0-1.723.914V23h-3.949V10.32Z" transform="translate(847 10760)" fill="#fff"/>
  </g>
</svg>
