<svg xmlns="http://www.w3.org/2000/svg" xmlns:xlink="http://www.w3.org/1999/xlink" width="152" height="152" viewBox="0 0 152 152">
  <defs>
    <clipPath id="clip-path">
      <rect id="Rectángulo_344731" data-name="Rectángulo 344731" width="128.172" height="138.342" fill="none"/>
    </clipPath>
    <clipPath id="clip-path-3">
      <rect id="Rectángulo_344728" data-name="Rectángulo 344728" width="33.575" height="31.91" fill="none"/>
    </clipPath>
    <clipPath id="clip-path-4">
      <rect id="Rectángulo_344729" data-name="Rectángulo 344729" width="13.541" height="49.073" fill="none"/>
    </clipPath>
  </defs>
  <g id="Grupo_983976" data-name="Grupo 983976" transform="translate(3845 3636)">
    <circle id="Elipse_5884" data-name="Elipse 5884" cx="76" cy="76" r="76" transform="translate(-3845 -3636)" fill="#b20d0d"/>
    <g id="Grupo_983969" data-name="Grupo 983969" transform="translate(-3823 -3622.342)">
      <g id="Grupo_983968" data-name="Grupo 983968" clip-path="url(#clip-path)">
        <g id="Grupo_983967" data-name="Grupo 983967">
          <g id="Grupo_983966" data-name="Grupo 983966" clip-path="url(#clip-path)">
            <path id="Trazado_720666" data-name="Trazado 720666" d="M125.716,36.077a59.419,59.419,0,0,1-25.975-1.3l-.131-.033c-1.531-5.448-5.893-9.846-10.479-13.3C84.058,17.612,78.394,14.4,74.31,9.538c-2.4-2.861-4.261-6.3-7.355-8.388-2.022-1.368-5.263-1.8-6.523.3A4.923,4.923,0,0,0,60.3,5.3c2.026,7.156,5.707,11.446,7.964,17.887-4.18.508-7.81.05-20.947-2.962L16.655,8.336c-1.532-.594-3.488-1.108-4.636.067a2.888,2.888,0,0,0-.131,3.436,8.106,8.106,0,0,0,2.76,2.419c5.7,3.594,11.671,6.746,17.633,9.895a84.757,84.757,0,0,0,8.185,4.041c-18.8-3.725-30.8-10.822-36.093-12.928C2.242,14.419.062,15.251.083,17.9c.014,1.726,1.811,3.658,3.3,4.537Q9.6,26.12,16.125,29.261c6.227,3,12.778,6.034,19.3,8.4l-.089.207a108.687,108.687,0,0,1-10.528-3.522C18.314,31.966,12.4,28.975,5.418,26.487c-2-.713-4.256-1.234-5.169.683-.935,1.963.956,3.986,2.559,5.454,6.661,6.1,25.946,14.717,29.733,16.665-.014.212-.029.425-.038.636C24.7,46.425,9.849,40.3,7.371,39.8a3.081,3.081,0,0,0-2.183.126c-1.519.9-.663,3.262.508,4.582,2.416,2.722,5.8,4.327,8.608,6.646C35.848,68.968,61.794,69.292,80.9,67.8c1.093.2,13.533-.1,18.736.408a157.5,157.5,0,0,0,17.458.742c2-.026,4.148-.137,5.761-1.326a8.371,8.371,0,0,0,2.339-3.086c4.375-8.69,3.376-19.165.519-28.466" transform="translate(0 0)" fill="#f2b98f"/>
            <path id="Trazado_720667" data-name="Trazado 720667" d="M44.787,22.558C40.06,26.122,37.1,31.583,35.2,37.188,30.907,49.825,31.371,63.5,31.211,76.84s-1.158,27.255-7.889,38.779c17.511,9.642,37.987,15.172,57.648,11.564,9.8-1.8,19.04-5.771,28.485-8.943s19.47-5.573,29.319-4.071c-5.522-9.985-11.061-20-15.237-30.624-4.2-10.668-7.192-22.236-14.808-30.8-7.657-8.613-19-13.031-27.489-20.825a88.665,88.665,0,0,0-6.937-6.36c-4.076-3.011-9.2-4.093-13.941-5.64a16.9,16.9,0,0,0-15.574,2.64" transform="translate(-18.234 -14.908)" fill="#ffeee3"/>
            <path id="Trazado_720668" data-name="Trazado 720668" d="M144.237,147.459l-.065-.118c2.947-4.831,3.2-11.02,2.608-16.734-.652-6.32-2.16-12.652-1.378-18.957.46-3.707,1.709-7.407,1.135-11.1-.375-2.412-2.269-5.077-4.659-4.576a4.926,4.926,0,0,0-2.91,2.53c-3.861,6.357-4.5,11.973-7.677,18.012-.96-1.539-6.623-9.262-12.094-17.357L107.023,68.608c-.608-1.526-1.564-3.309-3.206-3.349a2.887,2.887,0,0,0-2.606,2.243,8.1,8.1,0,0,0,.107,3.668c1.252,6.624,3.007,13.142,4.76,19.651a84.584,84.584,0,0,0,2.617,8.755C98.62,83.27,95.65,69.647,93.584,64.332c-.83-2.137-2.924-3.167-4.851-1.346-1.254,1.186-1.445,3.817-1.078,5.5q1.538,7.06,3.682,13.978c2.045,6.6,4.282,13.467,6.986,19.856l-.212.076a108.75,108.75,0,0,1-4.589-10.109c-2.674-6.378-4.512-12.747-7.444-19.553-.84-1.95-1.995-3.957-4.02-3.321-2.074.652-2.268,3.414-2.251,5.588.069,9.031,6.889,29.023,8.041,33.123-.165.134-.33.268-.492.405-2.748-8.1-8.379-23.142-9.7-25.3a3.081,3.081,0,0,0-1.579-1.513c-1.693-.5-2.84,1.736-3.009,3.492a29.383,29.383,0,0,0,.995,10.83c10.875,38.1,39.028,69.254,42.2,73.412,3.532,4.635,13.758,17.478,17.2,17.4a47.59,47.59,0,0,0,6.31-.482c12.951-3.16,20.339-12.1,20.339-19.661-7.186-5.363-11.593-11.373-15.874-19.252" transform="translate(-57.03 -48.511)" fill="#fbcfa5"/>
            <path id="Trazado_720669" data-name="Trazado 720669" d="M382.211,231.967a4.873,4.873,0,0,0,.666,2.6,2.54,2.54,0,0,0,2.278,1.221,2.71,2.71,0,0,0,2.119-1.9,7.542,7.542,0,0,0,.213-2.979c-.368-5.464-5.341-3.475-5.276,1.062" transform="translate(-298.833 -177.95)" fill="#f9e3d2"/>
            <path id="Trazado_720670" data-name="Trazado 720670" d="M204.225,83.238a6.84,6.84,0,0,0,1.171,3.076,1.4,1.4,0,0,0,.5.49,1.01,1.01,0,0,0,1.091-.226,2.179,2.179,0,0,0,.551-1.032,7.2,7.2,0,0,0,.22-2.213,3.352,3.352,0,0,0-.471-1.8c-1.378-1.993-3.275-.074-3.061,1.7" transform="translate(-159.661 -63.086)" fill="#f9e3d2"/>
            <path id="Trazado_720671" data-name="Trazado 720671" d="M141.856,68.9a3.384,3.384,0,0,0-.138,1.322,9.9,9.9,0,0,0,.425,2.4c.219.712.664,1.507,1.407,1.551a1.34,1.34,0,0,0,1.089-.556,3.244,3.244,0,0,0,.515-1.153,11.94,11.94,0,0,0,.436-3.28,2.222,2.222,0,0,0-.177-1c-.755-1.482-3.119-.5-3.557.712" transform="translate(-110.796 -52.724)" fill="#f9e3d2"/>
            <path id="Trazado_720672" data-name="Trazado 720672" d="M107.684,100.963a3.077,3.077,0,0,0-.532,2.147,7.951,7.951,0,0,0,.577,3.357,1.909,1.909,0,0,0,.62.79.912.912,0,0,0,.96.065,1.244,1.244,0,0,0,.4-.482,9.217,9.217,0,0,0,.785-4.858,1.867,1.867,0,0,0-.633-1.608,1.784,1.784,0,0,0-2.18.589" transform="translate(-83.776 -78.331)" fill="#f9e3d2"/>
            <path id="Trazado_720673" data-name="Trazado 720673" d="M75.143,159.7a9.98,9.98,0,0,0-.051,2.615,2.913,2.913,0,0,0,.181.977.988.988,0,0,0,.729.616.974.974,0,0,0,.855-.41,2.549,2.549,0,0,0,.392-.9,15.284,15.284,0,0,0,.544-3.843,1.822,1.822,0,0,0-.114-.79c-.847-1.846-2.378.944-2.536,1.739" transform="translate(-58.664 -123.022)" fill="#f9e3d2"/>
            <path id="Trazado_720674" data-name="Trazado 720674" d="M131.7,313.586a3.326,3.326,0,0,0-.964-1.011,1.135,1.135,0,0,0-1.313.054l-.264.284a4.516,4.516,0,0,0,2.9,4.722.625.625,0,0,0,.532.008.571.571,0,0,0,.2-.268c.549-1.264-.289-2.668-1.09-3.79" transform="translate(-100.957 -244.247)" fill="#f2b98f"/>
            <path id="Trazado_720675" data-name="Trazado 720675" d="M164.286,285.907a3.325,3.325,0,0,0-.964-1.011,1.135,1.135,0,0,0-1.313.054l-.264.284a4.517,4.517,0,0,0,2.9,4.722.626.626,0,0,0,.532.008.572.572,0,0,0,.2-.268c.549-1.264-.289-2.668-1.09-3.79" transform="translate(-126.433 -222.605)" fill="#f2b98f"/>
            <path id="Trazado_720676" data-name="Trazado 720676" d="M207.031,263.484a3.319,3.319,0,0,0-.964-1.01,1.135,1.135,0,0,0-1.313.054l-.264.284a4.516,4.516,0,0,0,2.9,4.722.626.626,0,0,0,.532.008.572.572,0,0,0,.2-.268c.549-1.265-.289-2.668-1.09-3.79" transform="translate(-159.854 -205.074)" fill="#f2b98f"/>
            <path id="Trazado_720677" data-name="Trazado 720677" d="M243.024,247.579a3.32,3.32,0,0,0-.964-1.01,1.135,1.135,0,0,0-1.313.054l-.264.284a4.516,4.516,0,0,0,2.9,4.722.626.626,0,0,0,.532.008.572.572,0,0,0,.2-.268c.549-1.265-.289-2.668-1.09-3.79" transform="translate(-187.994 -192.638)" fill="#f2b98f"/>
            <g id="Grupo_983962" data-name="Grupo 983962" transform="translate(52.696 13.86)" opacity="0.41">
              <g id="Grupo_983961" data-name="Grupo 983961">
                <g id="Grupo_983960" data-name="Grupo 983960" clip-path="url(#clip-path-3)">
                  <path id="Trazado_720678" data-name="Trazado 720678" d="M243.862,70.569a51.9,51.9,0,0,1,6.86,14.807,29.591,29.591,0,0,0,2.055,6.052,7.249,7.249,0,0,0,4.788,3.925,10.374,10.374,0,0,0,3.513-.168l11.047-1.8a5.03,5.03,0,0,0,1.571-.436,3.3,3.3,0,0,0,1.169-4.107,6.952,6.952,0,0,0-3.286-3.208c-2.627-1.434-5.6-2.128-8.267-3.487-5.526-2.816-9.106-8.07-13.073-12.627-1.371-1.575-4.337-5.814-6.6-5.971-4.241-.295-.866,5.409.219,7.022" transform="translate(-241.562 -63.535)" fill="#fff"/>
                </g>
              </g>
            </g>
            <g id="Grupo_983965" data-name="Grupo 983965" transform="translate(11.263 54.497)" opacity="0.41">
              <g id="Grupo_983964" data-name="Grupo 983964">
                <g id="Grupo_983963" data-name="Grupo 983963" clip-path="url(#clip-path-4)">
                  <path id="Trazado_720679" data-name="Trazado 720679" d="M52.608,288.631a9.081,9.081,0,0,0-.969,2.991c-.161,2.594,2.187,4.614,4.461,5.87,2.56,1.414,6.193,2.26,8.072.019,1.289-1.537,1.069-3.794.772-5.778q-2.969-19.8-6.771-39.46c-.165-.854-.962-2.757-2.144-2.414-.827.24-.587,3.993-.611,4.691-.129,3.879.043,7.76.13,11.638.171,7.562.135,15.384-2.942,22.445" transform="translate(-51.631 -249.817)" fill="#fff"/>
                </g>
              </g>
            </g>
          </g>
        </g>
      </g>
    </g>
  </g>
</svg>
