<svg xmlns="http://www.w3.org/2000/svg" xmlns:xlink="http://www.w3.org/1999/xlink" width="152" height="152" viewBox="0 0 152 152">
  <defs>
    <clipPath id="clip-path">
      <rect id="Rectángulo_344014" data-name="Rectángulo 344014" width="104" height="103.983" fill="#027575"/>
    </clipPath>
  </defs>
  <g id="Grupo_983940" data-name="Grupo 983940" transform="translate(-377 -2921)">
    <circle id="Elipse_5811" data-name="Elipse 5811" cx="76" cy="76" r="76" transform="translate(377 2921)" fill="#06d1d1"/>
    <g id="Grupo_983000" data-name="Grupo 983000" transform="translate(403.667 2950.491)">
      <g id="Grupo_982999" data-name="Grupo 982999" clip-path="url(#clip-path)">
        <path id="Trazado_717545" data-name="Trazado 717545" d="M75.01,38.495a17.7,17.7,0,0,0,6.275,5.329c.312.153.634.288.945.443a2.038,2.038,0,1,1-1.636,3.719,20.257,20.257,0,0,1-6.1-3.967c-.282-.263-.562-.528-.927-.871a8.147,8.147,0,0,0-.138,2.537c-.041,1.841-.7,2.522-2.522,2.543-1.633.019-1.545-.274-1.545,1.567q-.006,23.536,0,47.071c.005,3.715-1.428,6.52-4.825,8.182a7.786,7.786,0,0,1-4.073.734c-1.116-.089-1.366.335-1.311,1.358a8.15,8.15,0,0,1-1.376,5.183,8.067,8.067,0,0,1-6.894,3.646c-1.665.024-3.333.044-5-.009-.828-.026-1.064.276-1.038,1.071.051,1.587.03,3.177.009,4.765-.021,1.564-.719,2.307-2.264,2.328q-3.835.052-7.671,0c-1.536-.022-2.225-.772-2.244-2.346-.02-1.627-.035-3.255.007-4.881.019-.718-.24-.946-.939-.931-1.7.036-3.411.052-5.113-.007-.812-.028-1.084.178-1.208,1.044a8.072,8.072,0,0,1-7.569,7.1,7.8,7.8,0,0,1-8.146-5.59c-.486-1.893-1.1-2.6-3.155-2.8C3.2,115.4.588,112.344.152,108.971a17.282,17.282,0,0,1-.127-2.2C.018,89.84.048,72.91,0,55.98c-.012-4.249,1.558-7.35,5.654-8.9.488-.185.519-.491.518-.894,0-5-.01-10,.01-14.993,0-.645-.191-.9-.86-.872-1.044.044-2.092.03-3.138,0A2.028,2.028,0,0,1,.041,28.347a1.989,1.989,0,0,1,2.076-2.036q6.044-.045,12.087,0a1.966,1.966,0,0,1,2.117,1.984,2.007,2.007,0,0,1-2.188,2.033c-1.046.022-2.093.034-3.138,0-.619-.022-.8.22-.794.813q.025,7.38,0,14.761c0,.539.171.769.731.762,1.588-.021,3.177-.017,4.765,0,.5,0,.633-.231.714-.691.877-4.984,3.839-7.463,8.885-7.466q5.4,0,10.809,0c4.981.006,8.167,2.824,8.727,7.75a.937.937,0,0,0,.713.888,8.133,8.133,0,0,1,5.469,8.206q.013,17.492-.008,34.984c0,.74.063,1.16.98,1.295a8.089,8.089,0,0,1,7.188,8.32c.029,1.763.029,1.763,1.8,1.745a4.041,4.041,0,0,0,4.291-4.3q.013-24.059.027-48.118c0-.928-.319-1.068-1.133-1.058-2.454.029-2.969-.525-2.969-3.015q0-8.02,0-16.039c0-2.3.58-2.864,2.9-2.864q11.39,0,22.78,0c2.3,0,2.84.559,2.842,2.9q0,3.2,0,6.392c0,2.34-.544,2.891-2.841,2.894l-10.46.016H75.01M25.481,99.653c6.7,0,13.4-.018,20.1.019.993.006,1.376-.164,1.371-1.3q-.073-17.075,0-34.151c0-1.045-.289-1.272-1.289-1.269q-20.153.05-40.307,0c-.922,0-1.253.174-1.25,1.187q.057,17.191,0,34.383c0,.935.279,1.149,1.168,1.144,6.737-.034,13.474-.019,20.212-.019m.038-40.758c6.779,0,13.559-.018,20.338.022.883.005,1.143-.235,1.079-1.1-.077-1.04.008-2.092-.03-3.136a3.972,3.972,0,0,0-3.953-3.918q-17.432-.036-34.865,0a3.969,3.969,0,0,0-3.955,3.915c-.035,1.006.057,2.02-.03,3.02-.083.959.209,1.228,1.194,1.222,6.74-.047,13.481-.025,20.221-.025m10.048,53c3.486,0,6.973-.02,10.459.017.721.007.925-.2.909-.912-.046-1.975-.07-3.953.007-5.926.04-1.021-.2-1.355-1.3-1.351-12.59.044-25.18.02-37.771.04-1.221,0-2.9-.555-3.542.246-.613.76-.168,2.366-.2,3.6a4.077,4.077,0,0,0,1.247,3.14,4.977,4.977,0,0,0,3.88,1.166,1.781,1.781,0,0,0,1.623-.792,8.051,8.051,0,0,1,13.046.065,1.544,1.544,0,0,0,1.423.721c3.409-.027,6.818-.013,10.227-.013M65.273,37.279v3.946c0,3.015,0,2.977,3.019,2.989.907,0,1.106-.312,1.086-1.142-.05-2.049-.03-4.1-.011-6.15.017-1.782.693-2.458,2.454-2.475,1.586-.015,3.173-.029,4.758.008.676.016,1.006-.157.957-.9a18.152,18.152,0,0,1,0-2.32c.045-.715-.228-.926-.932-.92q-5.222.045-10.444,0c-.731-.007-.914.239-.9.93.04,2.011.014,4.023.014,6.034M30.515,46.651c3.1,0,6.191-.035,9.286.02.99.017,1.095-.328.845-1.154a4.015,4.015,0,0,0-3.781-2.9q-6.268-.042-12.536,0a3.987,3.987,0,0,0-3.717,2.827c-.286.851-.229,1.251.85,1.229,3.017-.06,6.035-.021,9.054-.021m20.5,57.117c0,2.4.031,4.791-.016,7.185-.018.908.29,1.039,1.089.792a4,4,0,0,0,2.954-3.732q.065-4.287,0-8.576a3.984,3.984,0,0,0-2.871-3.674c-.812-.264-1.2-.189-1.172.82.057,2.394.018,4.79.018,7.185m-29.6,12.175a4.055,4.055,0,0,0-4.06-4.042,4.069,4.069,0,1,0,.063,8.136,4.034,4.034,0,0,0,4-4.095m62.13-81.5c2.132,0,2.132,0,2.132-2.133,0-1.981,0-1.981-1.932-1.981-2.182,0-2.182,0-2.182,2.187,0,1.927,0,1.927,1.981,1.927M38.76,120.04c2.069,0,2.069,0,2.069-1.946,0-2.117,0-2.117-2.164-2.116-1.952,0-1.952,0-1.952,1.979,0,2.084,0,2.084,2.047,2.084" transform="translate(0 -20.169)" fill="#027575"/>
        <path id="Trazado_717546" data-name="Trazado 717546" d="M408.295,41.691c.929,0,1.858-.025,2.786.006a2.086,2.086,0,0,1,2.245,2.016,2.048,2.048,0,0,1-2.182,2.074q-2.9.061-5.8,0a2.016,2.016,0,0,1-2.167-2.07,2.037,2.037,0,0,1,2.22-2.021c.966-.031,1.935-.006,2.9-.007" transform="translate(-309.326 -31.979)" fill="#027575"/>
        <path id="Trazado_717547" data-name="Trazado 717547" d="M405.807,5.676c-1.266-.117-2-.608-2.226-1.655a1.742,1.742,0,0,1,1.084-2.192c2.207-.7,4.453-1.31,6.718-1.791a1.742,1.742,0,0,1,2.006,1.407,1.763,1.763,0,0,1-1,2.336c-2.229.753-4.523,1.314-6.584,1.9" transform="translate(-309.594 0)" fill="#027575"/>
        <path id="Trazado_717548" data-name="Trazado 717548" d="M405.669,76.77a63.39,63.39,0,0,1,6.8,1.915,2,2,0,0,1-1.325,3.7c-2.109-.483-4.2-1.054-6.273-1.677a1.891,1.891,0,0,1-1.318-2.285,2.084,2.084,0,0,1,2.116-1.651" transform="translate(-309.576 -58.9)" fill="#027575"/>
        <path id="Trazado_717549" data-name="Trazado 717549" d="M76.92,215.693a14.248,14.248,0,1,1-14.2-14.329,14.3,14.3,0,0,1,14.2,14.329M62.629,205.475A10.166,10.166,0,1,0,72.876,215.6a10.2,10.2,0,0,0-10.248-10.121" transform="translate(-37.153 -154.493)" fill="#027575"/>
        <path id="Trazado_717550" data-name="Trazado 717550" d="M89.508,248.658a1.971,1.971,0,0,1-1.751-1.216,3.424,3.424,0,0,1-.216-1.126c-.078-1.686-.067-1.686-1.815-1.752-1.388-.052-2.206-.787-2.219-2s.791-1.98,2.166-2.046c.077,0,.155,0,.232,0,1.6-.037,1.6-.037,1.628-1.585.027-1.525.779-2.468,2-2.506,1.261-.039,2.084.938,2.113,2.51.029,1.556.029,1.556,1.517,1.58,1.66.027,2.527.739,2.508,2.059-.019,1.28-.866,1.965-2.46,1.991-1.525.025-1.525.025-1.565,1.644-.037,1.5-.835,2.451-2.137,2.447" transform="translate(-64.068 -181.392)" fill="#027575"/>
      </g>
    </g>
  </g>
</svg>
