<svg xmlns="http://www.w3.org/2000/svg" xmlns:xlink="http://www.w3.org/1999/xlink" width="152" height="152" viewBox="0 0 152 152">
  <defs>
    <clipPath id="clip-path">
      <rect id="Rectángulo_344013" data-name="Rectángulo 344013" width="99" height="81.096" fill="#027575"/>
    </clipPath>
  </defs>
  <g id="Grupo_983941" data-name="Grupo 983941" transform="translate(-724 -2921)">
    <circle id="Elipse_5812" data-name="Elipse 5812" cx="76" cy="76" r="76" transform="translate(724 2921)" fill="#06d1d1"/>
    <g id="Grupo_982998" data-name="Grupo 982998" transform="translate(750.5 2956.452)">
      <g id="Grupo_982997" data-name="Grupo 982997" clip-path="url(#clip-path)">
        <path id="Trazado_717544" data-name="Trazado 717544" d="M49.166,81.1H2.123c-2.1,0-2.1,0-2.1-2.15q0-22.87-.02-45.74a3.341,3.341,0,0,1,1.074-2.6Q15.895,15.854,30.65,1.031A3.135,3.135,0,0,1,33.268.008c5.444.332,10.9.053,16.345.258,4.225.159,8.449.162,12.673.164a3.673,3.673,0,0,1,2.651,1.006Q74.394,9.966,83.9,18.446c4.7,4.217,9.4,8.448,14.123,12.644A2.691,2.691,0,0,1,99,33.348c-.124,7.976-.116,15.956-.329,23.929-.154,5.766-.06,11.531-.191,17.3-.042,1.815-.137,3.63-.153,5.445-.007.761-.31,1.091-1.051,1.073-.394-.01-.79,0-1.185,0H49.166M81.615,22.784a2.676,2.676,0,0,0-.121.475q-.006,25.994-.019,51.988c0,.885.4,1.047,1.159,1.042,3.276-.023,6.553-.037,9.829.008.943.013,1.222-.327,1.219-1.24-.013-3.553.026-7.105.071-10.658q.187-14.738.4-29.476a1.766,1.766,0,0,0-.6-1.466c-3.948-3.515-7.883-7.043-11.943-10.674m-34.191.636L47.05,23.2q-5.56,5.653-11.124,11.3a1.84,1.84,0,0,0-.418,1.427c-.074,13.028.074,26.058-.259,39.084-.025.991.313,1.3,1.286,1.283,3.039-.048,6.08-.017,9.121-.018,1.767,0,1.769,0,1.769-1.715q0-24.993,0-49.987V23.42M19.355,56.191c0,6.2.022,12.4-.02,18.6-.007,1.082.225,1.554,1.428,1.52,2.88-.08,5.764-.046,8.645-.014.83.009,1.2-.2,1.2-1.124,0-12.554-.018-25.107.235-37.659.019-.933-.311-1.252-1.23-1.24-2.921.037-5.845.066-8.764-.013-1.231-.033-1.53.41-1.521,1.576.05,6.119.023,12.239.023,18.359m-14.663.143c0,6.238.014,12.477-.016,18.715,0,.906.249,1.268,1.2,1.249q3.73-.078,7.462,0c.966.02,1.2-.38,1.2-1.267q-.027-18.715.005-37.43c0-1.072-.416-1.355-1.407-1.334-2.329.049-4.66.064-6.987-.006-1.13-.034-1.5.326-1.489,1.477.049,6.2.023,12.4.024,18.6m62.2-46.719a4.1,4.1,0,0,0-.14.6q-.008,16.053-.019,32.106c0,.883.445,1.043,1.189,1.037,2.567-.021,5.134-.038,7.7.008.938.017,1.22-.322,1.217-1.242Q76.793,30.812,76.83,19.5a2,2,0,0,0-.726-1.653c-1.073-.931-2.109-1.906-3.17-2.853-1.966-1.755-3.938-3.5-6.046-5.377M61.914,9a3.057,3.057,0,0,0-.5.276Q57,13.646,52.586,18.021a1.919,1.919,0,0,0-.5,1.514c.005,7.536.017,15.072-.013,22.607,0,.937.312,1.243,1.231,1.225,2.327-.046,4.655-.013,6.983-.015,1.62,0,1.624,0,1.624-1.64q0-15.683,0-31.366Zm-40.368,22.4a2.81,2.81,0,0,0,.449.074c3.159,0,6.318-.011,9.477.015a2.045,2.045,0,0,0,1.521-.769Q45.36,18.454,57.729,6.2c.231-.229.613-.392.549-.879-3.072-.281-6.145-.229-9.215-.274a2.537,2.537,0,0,0-1.983.811q-12.4,12.309-24.834,24.587c-.264.262-.655.448-.7.953M41.037,5.517,40.76,5.09a52.981,52.981,0,0,0-5.745-.279,2.949,2.949,0,0,0-2.39.979Q20.391,18.09,8.111,30.342a2.04,2.04,0,0,0-.822,1.133c2,0,3.958-.033,5.913.016a2.635,2.635,0,0,0,2.09-.843Q27.517,18.509,39.791,6.42a9.931,9.931,0,0,1,1.246-.9" transform="translate(0 0.001)" fill="#027575"/>
      </g>
    </g>
  </g>
</svg>
