<svg xmlns="http://www.w3.org/2000/svg" xmlns:xlink="http://www.w3.org/1999/xlink" width="152" height="152" viewBox="0 0 152 152">
  <defs>
    <clipPath id="clip-path">
      <rect id="Rectángulo_344015" data-name="Rectángulo 344015" width="135" height="107.961" fill="#027575" stroke="#027575" stroke-width="1"/>
    </clipPath>
  </defs>
  <g id="Grupo_983942" data-name="Grupo 983942" transform="translate(-1079 -2921)">
    <circle id="Elipse_5813" data-name="Elipse 5813" cx="76" cy="76" r="76" transform="translate(1079 2921)" fill="#06d1d1"/>
    <g id="Grupo_983002" data-name="Grupo 983002" transform="translate(1086.593 2943.02)">
      <g id="Grupo_983001" data-name="Grupo 983001" clip-path="url(#clip-path)">
        <path id="Trazado_717551" data-name="Trazado 717551" d="M131.909,25.392c.511-.833.9-1.678,1.989-1.3.978.339,1.114,1.134,1.1,2.042-.083,5.742.224,11.492-.526,17.22a35.836,35.836,0,0,1-6.066,15.611,3.19,3.19,0,0,0-.5,2.786c2.136,9.11.927,17.949-2.68,26.443-4.2,9.9-11.945,16-22.026,19.183-4.619,1.461-8.84.045-12.652-2.767a48.013,48.013,0,0,1-11.7-12.76c-.725-1.117-1.178-1.209-2.238-.376-2.07,1.627-4.266,3.1-6.451,4.575a28.583,28.583,0,0,1-4.884,2.591c-7.468,3.162-12.243,2.167-17.778-3.765-2.051-2.2-4.074-4.427-6.042-6.7a1.23,1.23,0,0,0-1.864-.329c-2.339,1.431-4.708,2.812-7.065,4.213a26.518,26.518,0,0,1-10.321,3.747,11.089,11.089,0,0,1-9.6-3.433,43.657,43.657,0,0,1-6.649-8.819c-1.942-3.2-3.587-6.563-5.35-9.862A4.5,4.5,0,0,1,.393,69.6,7.311,7.311,0,0,1,7.1,64.651c1.1-.05,1.136-.466,1.128-1.308a32.778,32.778,0,0,1,3.462-15.575,19.167,19.167,0,0,1,7.817-8.474c1.106-.6.876-1.6,1-2.467a30.05,30.05,0,0,1,4.479-12.379,17.821,17.821,0,0,1,7.035-6.442,2.234,2.234,0,0,0,1.251-1.656A25,25,0,0,1,40.051,4.229c5.833-5.543,13.54-5.651,19.508-.248A24.938,24.938,0,0,1,66.5,15.834c.149.5.278,1.014.424,1.553.626-.3.641-.94.871-1.424a21.939,21.939,0,0,1,6.881-8.724,13.274,13.274,0,0,1,16.456.207C96,11.16,98.381,16.364,99.774,22.132c.057.237.1.477.226,1.051.443-.864.747-1.447,1.043-2.036a20.167,20.167,0,0,1,7.758-8.753,13.316,13.316,0,0,1,15.636,1.4c3.689,3,5.868,6.981,7.472,11.594M76.836,65.844a36.444,36.444,0,0,0-.512-5.665c-1.051-5.28-2.99-10.124-7.161-13.761-4.584-4-10.229-3.9-14.756.148a16.957,16.957,0,0,0-3.254,3.857c-4.286,7.088-5.177,14.717-3.407,22.691,1.132,5.1,3.3,9.657,7.6,12.954a3.2,3.2,0,0,0,2.784.649c4.845-.939,8.763-3.728,12.922-6.12A9.923,9.923,0,0,0,76,73.372a39.773,39.773,0,0,0,.837-7.528M115.666,74.3c-.074-.835-.135-2.26-.333-3.665-.791-5.6-2.668-10.741-6.846-14.761-2.679-2.576-5.856-3.941-9.658-3.208A12.892,12.892,0,0,0,90.195,59.1c-5.54,9.072-5.811,18.577-1.918,28.325a2.277,2.277,0,0,0,.7,1.028,71.616,71.616,0,0,0,6.042,4.592,8.453,8.453,0,0,0,6.045,1.237,38.36,38.36,0,0,0,8.445-2.566,5.046,5.046,0,0,0,2.586-2.4A31.312,31.312,0,0,0,115.666,74.3M41.023,63.248C40.941,56.82,39.569,51,35.743,45.963c-2.062-2.711-4.614-4.811-8.129-5.323-4.7-.685-8.166,1.523-10.967,4.987a25.814,25.814,0,0,0-5.418,14.6,29.087,29.087,0,0,0,4.835,19.386A2.57,2.57,0,0,0,19,80.8a21.666,21.666,0,0,0,7.187-2.792c2.3-1.392,4.517-2.925,6.841-4.276C34.853,72.673,36.767,71.7,39,72.086c.86.15.792-.471.925-.937a31.03,31.03,0,0,0,1.1-7.9M20.5,92.9a20.7,20.7,0,0,0,10.329-3.334c2.72-1.615,5.4-3.3,8.168-4.829,2.172-1.2,2.4-1.1,4.03.717,1.412,1.568,2.775,3.181,4.185,4.75a35.518,35.518,0,0,0,6,5.6,8.312,8.312,0,0,0,6.917,1.308,27.156,27.156,0,0,0,7.97-3.384,104.877,104.877,0,0,0,8.7-6.055c1.472-1.095,2.082-.966,3.079.536.816,1.23,1.6,2.484,2.486,3.664,3.464,4.626,7.195,8.983,12.417,11.762a9.419,9.419,0,0,0,6.88,1.007c8.222-2.022,14.2-7.135,19.034-13.806.316-.435,1.022-1,.055-1.524-.759-.413-1.446-1.078-2.368-.132-3.922,4.027-8.916,6.048-14.21,7.544a13.179,13.179,0,0,1-12.849-2.716c-4.456-3.713-9.118-7.18-13.677-10.77-2.436-1.919-2.419-1.929-4.93-.188-4.088,2.835-8.293,5.395-13.25,6.519-3.443.781-6.367.169-8.792-2.466-1.071-1.165-2.147-2.327-3.244-3.467-2.375-2.467-4.465-5.2-7.183-7.349a3.728,3.728,0,0,0-4.609-.505q-2.555,1.435-5.007,3.023a32.166,32.166,0,0,1-9.957,4.709c-4.417,1.05-6.66.243-9.215-3.519A26.026,26.026,0,0,1,9.487,76.4a62.274,62.274,0,0,1-2.632-7.439c-.125-.389,0-1.1-.928-.923-1.858.362-3.3,2.823-2.478,4.488A112.87,112.87,0,0,0,9.675,83.891a29.29,29.29,0,0,0,5.755,6.9c1.529,1.267,3.17,2.3,5.066,2.109M44.019,62.051l.221-.019c.035-.309.062-.619.106-.927.782-5.582,2.394-10.941,6.431-14.979,2.073-2.073,2.3-4.144,2.1-6.632-.064-.787-.158-1.574-.286-2.353-.929-5.642-2.9-10.785-7.3-14.691C41.509,19.1,36.753,18.5,32.724,21.021c-5.822,3.649-8.1,9.457-9.275,15.861-.11.6.057.823.762.732,5.777-.743,10.117,1.82,13.61,6.115a27.3,27.3,0,0,1,5.56,13.081c.287,1.735.43,3.494.638,5.242m74.4,9.794a9.067,9.067,0,0,0,2.006-2.652,31.567,31.567,0,0,0,3.607-21.077c-.951-5.308-3.01-10.1-7.184-13.74-4.337-3.778-9.758-3.914-14.143-.243-5.082,4.255-7.034,10.041-7.806,16.341a1.045,1.045,0,0,0,1.029-.1,12.984,12.984,0,0,1,12.879,1.844,22.171,22.171,0,0,1,7.507,10.355,38.407,38.407,0,0,1,2.106,9.27M88.647,50.564c2.071-1.552,3.738-2.818,4.23-5.244a23.2,23.2,0,0,1,3.471-8.415,7.352,7.352,0,0,0,1.214-3.674,33.3,33.3,0,0,0-.3-8.661c-1-5.459-2.993-10.424-7.292-14.178C86.4,7.277,81.991,6.59,78.088,8.71c-5.458,2.963-7.858,8.063-9.453,13.945,5.974-.779,10.329,1.732,13.875,5.979A24.83,24.83,0,0,1,86.8,36.492a37.4,37.4,0,0,1,1.844,14.072M56.484,41.45c8.217-2.153,14.111.2,18.538,7.174a29.075,29.075,0,0,1,4.166,11.16c.3,1.882.449,3.788.681,5.805a6.208,6.208,0,0,0,1.588-1.944C85.794,56.59,86.7,48.977,85,41c-1.029-4.835-3.051-9.2-6.852-12.53-3.857-3.382-8.5-3.966-12.563-1.479-5.318,3.257-7.623,8.462-9.1,14.464m70.73,8a3.5,3.5,0,0,0,1.031-1.675,30.732,30.732,0,0,0,1.78-17.516c-.965-5.251-2.92-10.028-6.993-13.666-3.434-3.068-7.362-4.043-11.712-2.112-5.969,2.649-9.948,11.159-10.16,16.913.534-.324,1.019-.621,1.508-.915a12.883,12.883,0,0,1,8-1.949c5.324.5,9.007,3.563,11.88,7.782a30.16,30.16,0,0,1,4.663,13.138M55.245,35.214c.473-.959.789-1.616,1.117-2.266a18.482,18.482,0,0,1,6.691-7.837,2.986,2.986,0,0,0,1.625-3.53C63.8,15.707,61.955,10.3,57.454,6.171,53.492,2.532,48.568,2,44.368,4.691c-4.064,2.6-6.3,6.544-7.839,10.969-.244.7-.044.921.709.882,5.4-.282,9.378,2.32,12.617,6.324,2.846,3.519,4.371,7.647,5.39,12.347m70.388,30.269c-1.436,3.555-2.955,6.576-5.421,8.916a5.609,5.609,0,0,0-1.929,4.22,40.243,40.243,0,0,1-1.471,7.779c2.191-1.729,3.876-.28,5.7.325,2.549-6.694,4.506-13.47,3.118-21.24m-41.818.369a38.542,38.542,0,0,1-4.089,4.277,1.924,1.924,0,0,0-.427,1.149,32.1,32.1,0,0,1-1.749,6.861c-.164.452-.388.851.129,1.258,2.041,1.608,4.062,3.241,6.356,5.077a40.1,40.1,0,0,1-.219-18.622M43.9,65.443a39.583,39.583,0,0,1-1.4,7.545c-.111.374-.391.815-.007,1.185.973.937,1.969,1.852,2.955,2.776A54.435,54.435,0,0,1,43.9,65.443m43.808-8.077a47.239,47.239,0,0,1,4.1-5.021c-1.9,1.2-4.566,1.757-4.1,5.021" transform="translate(0 0)" fill="#027575" stroke="#027575" stroke-width="1"/>
      </g>
    </g>
  </g>
</svg>
