<svg xmlns="http://www.w3.org/2000/svg" xmlns:xlink="http://www.w3.org/1999/xlink" width="1160" height="892" viewBox="0 0 1160 892">
  <defs>
    <clipPath id="clip-path">
      <rect id="Rectángulo_344254" data-name="Rectángulo 344254" width="467.332" height="812.374" fill="none"/>
    </clipPath>
  </defs>
  <g id="Grupo_983939" data-name="Grupo 983939" transform="translate(-220 -10970)">
    <g id="Grupo_20667" data-name="Grupo 20667" transform="translate(308 11033)">
      <text id="Usar_cofia" data-name="Usar cofia" fill="#12263f" font-size="16" font-family="Roboto-Regular, Roboto"><tspan x="0" y="15">Usar cofia</tspan></text>
    </g>
    <g id="Grupo_983474" data-name="Grupo 983474" transform="translate(1186 11033)">
      <text id="No_usar_pasadores_ni_aretes" data-name="No usar pasadores ni aretes" transform="translate(0 -11)" fill="#12263f" font-size="16" font-family="Roboto-Regular, Roboto"><tspan x="0" y="15">No usar pasadores ni </tspan><tspan x="0" y="37">aretes</tspan></text>
    </g>
    <g id="Grupo_983468" data-name="Grupo 983468" transform="translate(308 11157)">
      <text id="Usar_cubrebocas" data-name="Usar cubrebocas" fill="#12263f" font-size="16" font-family="Roboto-Regular, Roboto"><tspan x="0" y="15">Usar cubrebocas</tspan></text>
    </g>
    <g id="Grupo_983475" data-name="Grupo 983475" transform="translate(1186 11157)">
      <text id="No_estornudar_ni_toser" data-name="No estornudar ni toser" fill="#12263f" font-size="16" font-family="Roboto-Regular, Roboto"><tspan x="0" y="15">No estornudar ni toser</tspan></text>
    </g>
    <g id="Grupo_983469" data-name="Grupo 983469" transform="translate(308 11285)">
      <text id="Ropa_limpia_y_apropiada_" data-name="Ropa limpia y apropiada
" fill="#12263f" font-size="16" font-family="Roboto-Regular, Roboto"><tspan x="0" y="15">Ropa limpia y apropiada</tspan><tspan x="0" y="37"></tspan></text>
    </g>
    <g id="Grupo_983476" data-name="Grupo 983476" transform="translate(1186 11285)">
      <text id="No_fumar_ni_comer" data-name="No fumar ni comer" fill="#12263f" font-size="16" font-family="Roboto-Regular, Roboto"><tspan x="0" y="15">No fumar ni comer</tspan></text>
    </g>
    <g id="Grupo_983470" data-name="Grupo 983470" transform="translate(308 11395)">
      <text id="Manos_limpias_y_desinfectadas" data-name="Manos limpias y desinfectadas" fill="#12263f" font-size="16" font-family="Roboto-Regular, Roboto"><tspan x="0" y="15">Manos limpias y </tspan><tspan x="0" y="37">desinfectadas</tspan></text>
    </g>
    <g id="Grupo_983477" data-name="Grupo 983477" transform="translate(1186 11395)">
      <text id="No_usar_bolígrafos" data-name="No usar bolígrafos" transform="translate(0 10)" fill="#12263f" font-size="16" font-family="Roboto-Regular, Roboto"><tspan x="0" y="15">No usar bolígrafos</tspan></text>
    </g>
    <g id="Grupo_983471" data-name="Grupo 983471" transform="translate(308 11519)">
      <text id="Usar_guantes" data-name="Usar guantes" transform="translate(0 11)" fill="#12263f" font-size="16" font-family="Roboto-Regular, Roboto"><tspan x="0" y="15">Usar guantes</tspan></text>
    </g>
    <g id="Grupo_983478" data-name="Grupo 983478" transform="translate(1186 11519)">
      <text id="No_usar_perfume" data-name="No usar perfume" transform="translate(0 11)" fill="#12263f" font-size="16" font-family="Roboto-Regular, Roboto"><tspan x="0" y="15">No usar perfume</tspan></text>
    </g>
    <g id="Grupo_983472" data-name="Grupo 983472" transform="translate(308 11643)">
      <text id="Reportar_heridas_o_cortadas_al_supervisor_" data-name="Reportar heridas o cortadas al supervisor
" fill="#12263f" font-size="16" font-family="Roboto-Regular, Roboto"><tspan x="0" y="15">Reportar heridas o </tspan><tspan x="0" y="37">cortadas al supervisor</tspan><tspan x="0" y="59"></tspan></text>
    </g>
    <g id="Grupo_983479" data-name="Grupo 983479" transform="translate(1186 11643)">
      <text id="No_usar_anillos_ni_reloj" data-name="No usar anillos ni reloj" transform="translate(0 10)" fill="#12263f" font-size="16" font-family="Roboto-Regular, Roboto"><tspan x="0" y="15">No usar anillos ni reloj</tspan></text>
    </g>
    <g id="Grupo_983473" data-name="Grupo 983473" transform="translate(308 11767)">
      <text id="Calzado_limpio_y_apropiado" data-name="Calzado limpio y apropiado" transform="translate(0 13)" fill="#12263f" font-size="16" font-family="Roboto-Regular, Roboto"><tspan x="0" y="15">Calzado limpio y apropiado</tspan></text>
    </g>
    <g id="Grupo_983480" data-name="Grupo 983480" transform="translate(1186 11767)">
      <text id="No_uñas_largas_ni_esmalte" data-name="No uñas largas ni esmalte" transform="translate(0 13)" fill="#12263f" font-size="16" font-family="Roboto-Regular, Roboto"><tspan x="0" y="15">No uñas largas ni esmalte</tspan></text>
    </g>
    <circle id="Elipse_1195" data-name="Elipse 1195" cx="30" cy="30" r="30" transform="translate(220 11012)" fill="#06d1d1"/>
    <circle id="Elipse_5829" data-name="Elipse 5829" cx="30" cy="30" r="30" transform="translate(1098 11012)" fill="#06d1d1"/>
    <circle id="Elipse_5823" data-name="Elipse 5823" cx="30" cy="30" r="30" transform="translate(220 11136)" fill="#06d1d1"/>
    <circle id="Elipse_5830" data-name="Elipse 5830" cx="30" cy="30" r="30" transform="translate(1098 11136)" fill="#06d1d1"/>
    <circle id="Elipse_5824" data-name="Elipse 5824" cx="30" cy="30" r="30" transform="translate(220 11260)" fill="#06d1d1"/>
    <circle id="Elipse_5831" data-name="Elipse 5831" cx="30" cy="30" r="30" transform="translate(1098 11260)" fill="#06d1d1"/>
    <circle id="Elipse_5825" data-name="Elipse 5825" cx="30" cy="30" r="30" transform="translate(220 11384)" fill="#06d1d1"/>
    <circle id="Elipse_5832" data-name="Elipse 5832" cx="30" cy="30" r="30" transform="translate(1098 11384)" fill="#06d1d1"/>
    <circle id="Elipse_5826" data-name="Elipse 5826" cx="30" cy="30" r="30" transform="translate(220 11508)" fill="#06d1d1"/>
    <circle id="Elipse_5833" data-name="Elipse 5833" cx="30" cy="30" r="30" transform="translate(1098 11508)" fill="#06d1d1"/>
    <circle id="Elipse_5827" data-name="Elipse 5827" cx="30" cy="30" r="30" transform="translate(220 11632)" fill="#06d1d1"/>
    <circle id="Elipse_5834" data-name="Elipse 5834" cx="30" cy="30" r="30" transform="translate(1098 11632)" fill="#06d1d1"/>
    <circle id="Elipse_5828" data-name="Elipse 5828" cx="30" cy="30" r="30" transform="translate(220 11756)" fill="#06d1d1"/>
    <circle id="Elipse_5835" data-name="Elipse 5835" cx="30" cy="30" r="30" transform="translate(1098 11756)" fill="#06d1d1"/>
    <path id="Trazado_720628" data-name="Trazado 720628" d="M12.246,29H7.295V13.238L2.432,14.659v-3.75l9.36-3.237h.454Z" transform="translate(241 11022)" fill="#fff"/>
    <path id="Trazado_720621" data-name="Trazado 720621" d="M15.688,13.37a4.924,4.924,0,0,1-.769,2.739,5.6,5.6,0,0,1-2.117,1.9,6.164,6.164,0,0,1,2.417,2.043,5.273,5.273,0,0,1,.894,3.069,5.582,5.582,0,0,1-1.97,4.512,8.182,8.182,0,0,1-5.427,1.655A8.331,8.331,0,0,1,3.237,27.63a5.542,5.542,0,0,1-2.007-4.5,5.339,5.339,0,0,1,.879-3.032,5.977,5.977,0,0,1,2.49-2.08,5.633,5.633,0,0,1-2.139-1.9,4.889,4.889,0,0,1-.776-2.739,5.473,5.473,0,0,1,1.89-4.395,7.6,7.6,0,0,1,5.1-1.611A7.643,7.643,0,0,1,13.8,8.976,5.473,5.473,0,0,1,15.688,13.37Zm-4.526,9.36a2.816,2.816,0,0,0-.681-2.029,2.372,2.372,0,0,0-1.794-.71,2.4,2.4,0,0,0-1.8.71A2.8,2.8,0,0,0,6.2,22.73a2.821,2.821,0,0,0,.7,2.014,2.388,2.388,0,0,0,1.824.74,2.3,2.3,0,0,0,1.772-.732A2.872,2.872,0,0,0,11.162,22.73ZM8.672,11.173a1.824,1.824,0,0,0-1.516.652,2.829,2.829,0,0,0-.52,1.809,3,3,0,0,0,.527,1.846,1.819,1.819,0,0,0,1.553.7,1.745,1.745,0,0,0,1.516-.7,3.093,3.093,0,0,0,.505-1.846,2.835,2.835,0,0,0-.52-1.8A1.849,1.849,0,0,0,8.672,11.173Z" transform="translate(1119 11022)" fill="#fff"/>
    <path id="Trazado_720627" data-name="Trazado 720627" d="M16.187,29H1.3V25.777L8.159,18.57q2.534-2.886,2.534-4.585a3.189,3.189,0,0,0-.6-2.095,2.144,2.144,0,0,0-1.743-.718,2.171,2.171,0,0,0-1.831.959,3.943,3.943,0,0,0-.7,2.4H.864A7,7,0,0,1,1.846,10.9,6.882,6.882,0,0,1,4.57,8.3a8.094,8.094,0,0,1,3.9-.937,7.962,7.962,0,0,1,5.325,1.6,5.7,5.7,0,0,1,1.868,4.585A6.658,6.658,0,0,1,15.19,16a10.76,10.76,0,0,1-1.458,2.5,36.715,36.715,0,0,1-3.186,3.508L7.793,25.191h8.394Z" transform="translate(241 11146)" fill="#fff"/>
    <path id="Trazado_720620" data-name="Trazado 720620" d="M11.03,20.753a5.214,5.214,0,0,1-3.574,1.436,5.771,5.771,0,0,1-4.6-1.963,7.733,7.733,0,0,1-1.7-5.244,7.87,7.87,0,0,1,.952-3.809A7.144,7.144,0,0,1,4.783,8.39a7.288,7.288,0,0,1,3.8-1.025A7.075,7.075,0,0,1,12.4,8.426a7.15,7.15,0,0,1,2.659,3A10.315,10.315,0,0,1,16.04,15.9v1.89a12.821,12.821,0,0,1-1.384,6.123A9.556,9.556,0,0,1,10.708,27.9a12.336,12.336,0,0,1-5.977,1.392H4.424V25.338l.938-.015Q10.459,25.074,11.03,20.753ZM8.789,18.629A2.4,2.4,0,0,0,11.1,17.237V15.187a5.332,5.332,0,0,0-.688-3.032,2.159,2.159,0,0,0-1.86-.981,2.041,2.041,0,0,0-1.743,1.113,4.946,4.946,0,0,0-.7,2.7,4.435,4.435,0,0,0,.718,2.659A2.3,2.3,0,0,0,8.789,18.629Z" transform="translate(1119 11146)" fill="#fff"/>
    <path id="Trazado_720626" data-name="Trazado 720626" d="M5.815,16.271H8.145q2.769,0,2.769-2.71a2.343,2.343,0,0,0-.659-1.721,2.5,2.5,0,0,0-1.86-.667,2.676,2.676,0,0,0-1.707.571,1.743,1.743,0,0,0-.725,1.421H1.025a5.053,5.053,0,0,1,.938-3A6.191,6.191,0,0,1,4.563,8.1a8.89,8.89,0,0,1,3.655-.74,8.735,8.735,0,0,1,5.6,1.626,5.405,5.405,0,0,1,2.036,4.468,4.505,4.505,0,0,1-.842,2.6,6,6,0,0,1-2.454,1.985,5.734,5.734,0,0,1,2.666,1.868,4.919,4.919,0,0,1,.967,3.1,5.5,5.5,0,0,1-2.2,4.57,9.12,9.12,0,0,1-5.771,1.714,9.458,9.458,0,0,1-3.889-.8,6.093,6.093,0,0,1-2.717-2.212,5.751,5.751,0,0,1-.923-3.215H5.654a2.223,2.223,0,0,0,.791,1.7,2.793,2.793,0,0,0,1.948.718,2.925,2.925,0,0,0,2.08-.725,2.424,2.424,0,0,0,.776-1.853,2.833,2.833,0,0,0-.806-2.285,3.368,3.368,0,0,0-2.227-.674h-2.4Z" transform="translate(241 11270)" fill="#fff"/>
    <path id="Trazado_720619" data-name="Trazado 720619" d="M12.246,29H7.295V13.238L2.432,14.659v-3.75l9.36-3.237h.454Zm21.24-8.716a10.184,10.184,0,0,1-1.941,6.665,6.707,6.707,0,0,1-5.471,2.344,6.743,6.743,0,0,1-5.508-2.358,10.168,10.168,0,0,1-1.948-6.65v-3.9a10.184,10.184,0,0,1,1.941-6.665,6.724,6.724,0,0,1,5.486-2.344,6.726,6.726,0,0,1,5.493,2.358A10.193,10.193,0,0,1,33.486,16.4ZM28.55,15.758a7.607,7.607,0,0,0-.6-3.435,2.008,2.008,0,0,0-1.9-1.135,1.96,1.96,0,0,0-1.853,1.055,7.166,7.166,0,0,0-.623,3.193v5.449a7.664,7.664,0,0,0,.6,3.494,2.015,2.015,0,0,0,1.9,1.106,1.988,1.988,0,0,0,1.86-1.077,7.317,7.317,0,0,0,.615-3.376Z" transform="translate(1110 11270)" fill="#fff"/>
    <path id="Trazado_720618" data-name="Trazado 720618" d="M12.246,29H7.295V13.238L2.432,14.659v-3.75l9.36-3.237h.454Zm17.373,0H24.668V13.238L19.8,14.659v-3.75l9.36-3.237h.454Z" transform="translate(1110 11395)" fill="#fff"/>
    <path id="Trazado_720617" data-name="Trazado 720617" d="M12.246,29H7.295V13.238L2.432,14.659v-3.75l9.36-3.237h.454ZM33.56,29H18.677V25.777l6.855-7.207q2.534-2.886,2.534-4.585a3.189,3.189,0,0,0-.6-2.095,2.144,2.144,0,0,0-1.743-.718,2.171,2.171,0,0,0-1.831.959,3.943,3.943,0,0,0-.7,2.4H18.237a7,7,0,0,1,.981-3.625,6.882,6.882,0,0,1,2.725-2.6,8.094,8.094,0,0,1,3.9-.937,7.962,7.962,0,0,1,5.325,1.6,5.7,5.7,0,0,1,1.868,4.585A6.658,6.658,0,0,1,32.563,16a10.76,10.76,0,0,1-1.458,2.5,36.715,36.715,0,0,1-3.186,3.508l-2.754,3.179H33.56Z" transform="translate(1110 11520)" fill="#fff"/>
    <path id="Trazado_720616" data-name="Trazado 720616" d="M12.246,29H7.295V13.238L2.432,14.659v-3.75l9.36-3.237h.454ZM23.188,16.271h2.329q2.769,0,2.769-2.71a2.343,2.343,0,0,0-.659-1.721,2.5,2.5,0,0,0-1.86-.667,2.676,2.676,0,0,0-1.707.571,1.743,1.743,0,0,0-.725,1.421H18.4a5.053,5.053,0,0,1,.938-3,6.191,6.191,0,0,1,2.6-2.058,8.89,8.89,0,0,1,3.655-.74,8.735,8.735,0,0,1,5.6,1.626,5.405,5.405,0,0,1,2.036,4.468,4.505,4.505,0,0,1-.842,2.6,6,6,0,0,1-2.454,1.985,5.734,5.734,0,0,1,2.666,1.868,4.919,4.919,0,0,1,.967,3.1,5.5,5.5,0,0,1-2.2,4.57,9.12,9.12,0,0,1-5.771,1.714,9.458,9.458,0,0,1-3.889-.8,6.093,6.093,0,0,1-2.717-2.212,5.751,5.751,0,0,1-.923-3.215h4.966a2.223,2.223,0,0,0,.791,1.7,2.793,2.793,0,0,0,1.948.718,2.925,2.925,0,0,0,2.08-.725,2.424,2.424,0,0,0,.776-1.853,2.833,2.833,0,0,0-.806-2.285,3.368,3.368,0,0,0-2.227-.674h-2.4Z" transform="translate(1110 11644)" fill="#fff"/>
    <path id="Trazado_720615" data-name="Trazado 720615" d="M12.246,29H7.295V13.238L2.432,14.659v-3.75l9.36-3.237h.454Zm19.468-8.335h2.168v3.809H31.714V29H26.777V24.474H18.53l-.293-3.018,8.54-13.74V7.672h4.937Zm-8.774,0h3.838V14.1l-.308.5Z" transform="translate(1110 11768)" fill="#fff"/>
    <path id="Trazado_720625" data-name="Trazado 720625" d="M14.341,20.665h2.168v3.809H14.341V29H9.4V24.474H1.157L.864,21.456,9.4,7.716V7.672h4.937Zm-8.774,0H9.4V14.1l-.308.5Z" transform="translate(241 11394)" fill="#fff"/>
    <path id="Trazado_720624" data-name="Trazado 720624" d="M1.6,18.582,2.9,7.672H15.366V11.51H6.914l-.483,4.237A5.822,5.822,0,0,1,7.815,15.2a6.316,6.316,0,0,1,1.677-.235,6.257,6.257,0,0,1,4.885,1.882,7.582,7.582,0,0,1,1.707,5.281,7.569,7.569,0,0,1-.916,3.713A6.293,6.293,0,0,1,12.6,28.4a8.116,8.116,0,0,1-3.911.894,8.733,8.733,0,0,1-3.765-.827A6.754,6.754,0,0,1,2.168,26.2a5.513,5.513,0,0,1-.981-3.257H6.138A2.8,2.8,0,0,0,6.885,24.8a2.371,2.371,0,0,0,1.772.687q2.49,0,2.49-3.684,0-3.406-3.047-3.406a3.04,3.04,0,0,0-2.578,1.111Z" transform="translate(241 11518)" fill="#fff"/>
    <path id="Trazado_720623" data-name="Trazado 720623" d="M13.228,7.364v3.882h-.22a7.411,7.411,0,0,0-4.548,1.326,5.6,5.6,0,0,0-2.19,3.684,5.773,5.773,0,0,1,4.219-1.641A5.385,5.385,0,0,1,14.9,16.637a8.153,8.153,0,0,1,1.641,5.3,7.466,7.466,0,0,1-.959,3.735A6.846,6.846,0,0,1,12.9,28.333a7.7,7.7,0,0,1-3.816.959A7.961,7.961,0,0,1,5.024,28.26a7.1,7.1,0,0,1-2.783-2.952,9.719,9.719,0,0,1-1.025-4.424V18.907a12.312,12.312,0,0,1,1.414-5.925A10.248,10.248,0,0,1,6.665,8.858,11.538,11.538,0,0,1,12.48,7.364ZM8.774,18.395a2.824,2.824,0,0,0-1.641.454,2.883,2.883,0,0,0-.981,1.113v1.479q0,4.043,2.8,4.043a2.27,2.27,0,0,0,1.882-1.011,4.119,4.119,0,0,0,.754-2.534,4.043,4.043,0,0,0-.769-2.556A2.46,2.46,0,0,0,8.774,18.395Z" transform="translate(241 11642)" fill="#fff"/>
    <path id="Trazado_720622" data-name="Trazado 720622" d="M16.128,10.309,8.159,29H2.944l7.983-17.52H.762V7.672H16.128Z" transform="translate(241 11766)" fill="#fff"/>
    <line id="Línea_110" data-name="Línea 110" x2="241.167" transform="translate(250.5 10983.5)" fill="none" stroke="#afafaf" stroke-width="2"/>
    <line id="Línea_2943" data-name="Línea 2943" x2="241.167" transform="translate(1128.5 10983.5)" fill="none" stroke="#afafaf" stroke-width="2"/>
    <line id="Línea_2937" data-name="Línea 2937" x2="241.167" transform="translate(250.5 11107.5)" fill="none" stroke="#afafaf" stroke-width="2"/>
    <line id="Línea_2944" data-name="Línea 2944" x2="241.167" transform="translate(1128.5 11107.5)" fill="none" stroke="#afafaf" stroke-width="2"/>
    <line id="Línea_2936" data-name="Línea 2936" x2="241.167" transform="translate(250.5 11231.5)" fill="none" stroke="#afafaf" stroke-width="2"/>
    <line id="Línea_2945" data-name="Línea 2945" x2="241.167" transform="translate(1128.5 11231.5)" fill="none" stroke="#afafaf" stroke-width="2"/>
    <line id="Línea_2938" data-name="Línea 2938" x2="241.167" transform="translate(250.5 11355.5)" fill="none" stroke="#afafaf" stroke-width="2"/>
    <line id="Línea_2946" data-name="Línea 2946" x2="241.167" transform="translate(1128.5 11355.5)" fill="none" stroke="#afafaf" stroke-width="2"/>
    <line id="Línea_2939" data-name="Línea 2939" x2="241.167" transform="translate(250.5 11479.5)" fill="none" stroke="#afafaf" stroke-width="2"/>
    <line id="Línea_2947" data-name="Línea 2947" x2="241.167" transform="translate(1128.5 11479.5)" fill="none" stroke="#afafaf" stroke-width="2"/>
    <line id="Línea_2940" data-name="Línea 2940" x2="241.167" transform="translate(250.5 11603.5)" fill="none" stroke="#afafaf" stroke-width="2"/>
    <line id="Línea_2948" data-name="Línea 2948" x2="241.167" transform="translate(1128.5 11603.5)" fill="none" stroke="#afafaf" stroke-width="2"/>
    <line id="Línea_2941" data-name="Línea 2941" x2="241.167" transform="translate(250.5 11727.5)" fill="none" stroke="#afafaf" stroke-width="2"/>
    <line id="Línea_2949" data-name="Línea 2949" x2="241.167" transform="translate(1128.5 11727.5)" fill="none" stroke="#afafaf" stroke-width="2"/>
    <line id="Línea_2942" data-name="Línea 2942" x2="241.167" transform="translate(250.5 11851.5)" fill="none" stroke="#afafaf" stroke-width="2"/>
    <line id="Línea_2950" data-name="Línea 2950" x2="241.167" transform="translate(1128.5 11851.5)" fill="none" stroke="#afafaf" stroke-width="2"/>
    <ellipse id="Elipse_5836" data-name="Elipse 5836" cx="277" cy="446" rx="277" ry="446" transform="translate(515 10970)" fill="#ffe8ce" opacity="0.6"/>
    <g id="Grupo_983482" data-name="Grupo 983482" transform="translate(582 11006.313)">
      <g id="Grupo_983481" data-name="Grupo 983481" clip-path="url(#clip-path)">
        <path id="Trazado_717976" data-name="Trazado 717976" d="M78.8,226.063l10.482,106.02-3.418,32.674A10.492,10.492,0,0,0,96.3,376.343H200.986c10.383,0,14.46-13.467,5.822-19.228l-55.767-30.181,1.028-100.871Z" transform="translate(151.988 436.031)" fill="#3b47bd"/>
        <path id="Trazado_717977" data-name="Trazado 717977" d="M81.249,274.494a10.494,10.494,0,0,0,10.438,11.586H196.372a10.5,10.5,0,0,0,10.151-13.221H81.422Z" transform="translate(156.602 526.293)" fill="#fffff8"/>
        <path id="Trazado_717978" data-name="Trazado 717978" d="M104.764,230.171,73.291,336.191l15.9,28.676a10.5,10.5,0,0,1-9.179,15.584H11.49a10.5,10.5,0,0,1-9.747-14.386l9.788-35.023L32.724,223.933Z" transform="translate(1.9 431.923)" fill="#3b47bd"/>
        <path id="Trazado_717979" data-name="Trazado 717979" d="M11.486,286.081H80.008A10.494,10.494,0,0,0,90.136,272.86H1.358a10.491,10.491,0,0,0,10.128,13.221" transform="translate(1.907 526.293)" fill="#fffff8"/>
        <path id="Trazado_717980" data-name="Trazado 717980" d="M6.7,272.256s25.425-24.3,55.565-5.152" transform="translate(12.925 501.01)" fill="none" stroke="#7e89fd" stroke-linecap="round" stroke-linejoin="round" stroke-width="0.717"/>
        <path id="Trazado_717981" data-name="Trazado 717981" d="M382.912,280.033l-21.881-24.289L314.521,172.16a35.2,35.2,0,0,0-10.84-11.906L256.976,128.2s6.824-63.491,7.873-74.509S268,5.941,232.315.693a58.517,58.517,0,0,0-31.209,3.588,43.278,43.278,0,0,0-26.02,32.732L164.1,115.083l-62.237,26.011a35.19,35.19,0,0,0-13.631,10.142L14.386,263.491c-15.406,18.768-19.014,45-8.019,66.645,4.261,8.391,10.447,15.379,19.427,18.106,12.444,3.775,29.768,3.178,47.684,4.543,0,0-48,220.474-53.12,294.922a35.494,35.494,0,0,0,9.709,26.9c8.836,9.276,23.149,20.683,41.648,23.094,32.217,4.2,64.4-11.194,69.3-33.582S183.691,538.19,183.691,538.19l21.8,112.9a33.937,33.937,0,0,0,12.553,23.231c12.869,10.268,35.2,24.084,58.693,20.241,36.382-5.951,48.893-44.925,47.576-59.824-1.716-19.365-18.531-315.394-18.531-315.394,13.267,11.812,25.841,21.714,35.506,26.8,36.566,19.242,60.7-23.275,60.7-23.275l9.2-13.739Z" transform="translate(0 -0.002)" fill="#fffff8"/>
        <path id="Trazado_717982" data-name="Trazado 717982" d="M142.591,87.1s-37.058,12.673-28.137,60.948" transform="translate(218.085 168.003)" fill="none" stroke="#7e89fd" stroke-linecap="round" stroke-linejoin="round" stroke-width="0.717"/>
        <path id="Trazado_717983" data-name="Trazado 717983" d="M7.145,107.558S21.76,88.708,37.5,92.905C54.448,97.425,80,105.5,80,105.5" transform="translate(13.781 178.021)" fill="none" stroke="#7e89fd" stroke-linecap="round" stroke-linejoin="round" stroke-width="0.717"/>
        <path id="Trazado_717984" data-name="Trazado 717984" d="M62.719,463.036S104,92.042,97.7,38.963" transform="translate(120.973 75.152)" fill="none" stroke="#7e89fd" stroke-linecap="round" stroke-linejoin="round" stroke-width="1.433"/>
        <line id="Línea_2951" data-name="Línea 2951" x1="12.251" y1="79.778" transform="translate(293.73 240.829)" fill="none" stroke="#7e89fd" stroke-linecap="round" stroke-linejoin="round" stroke-width="0.717"/>
        <path id="Trazado_717985" data-name="Trazado 717985" d="M55.508,38.612s4.478,18.121,21.12,27.566" transform="translate(107.064 74.475)" fill="none" stroke="#7e89fd" stroke-linecap="round" stroke-linejoin="round" stroke-width="0.717"/>
        <path id="Trazado_717986" data-name="Trazado 717986" d="M99.084,43.056S89.354,57.082,82.949,59.7" transform="translate(159.992 83.047)" fill="none" stroke="#7e89fd" stroke-linecap="round" stroke-linejoin="round" stroke-width="0.717"/>
        <path id="Trazado_717987" data-name="Trazado 717987" d="M75.2,25.974s-15.367,38.654-4.61,61.218,49.324,9.513,54.505-23.612c3.834-24.505,7.234-36.818-4.308-49.148S79.384,8.809,75.2,25.974" transform="translate(128.781 15.647)" fill="#ffd1cd"/>
        <path id="Trazado_717988" data-name="Trazado 717988" d="M123.021,44.541a13.688,13.688,0,0,1-5.6-3.582c-1.962-2.214-2.308-5.166-3.356-7.829-2.826-7.184-8.2-12.163-16.439-10.667-6.107,1.113-10.538,5.831-16.357,7.656a18.093,18.093,0,0,1-9.36.565,16.947,16.947,0,0,1-4.387-1.6C66.17,39.656,66.328,51.1,70.584,60.028c9.826,20.61,42.845,11.493,52.437-15.488" transform="translate(128.783 42.814)" fill="#3b47bd"/>
        <path id="Trazado_717989" data-name="Trazado 717989" d="M80.834,37.015c.384,3.752-1.722,7.035-4.7,7.34s-5.705-2.487-6.089-6.235,1.722-7.032,4.7-7.337,5.7,2.487,6.086,6.232" transform="translate(135.016 59.33)" fill="#7e89fd"/>
        <path id="Trazado_717990" data-name="Trazado 717990" d="M86.474,41.6C84.1,44.517,80.8,45.773,79.116,44.4s-1.122-4.853,1.256-7.776,5.673-4.176,7.36-2.8,1.119,4.853-1.259,7.773" transform="translate(150.727 64.165)" fill="#7e89fd"/>
        <path id="Trazado_717991" data-name="Trazado 717991" d="M78.053,13.179a8.258,8.258,0,0,0-9.68,6.531L65.9,32.468l.038.006a15.449,15.449,0,0,0,27.85,11.209,9.837,9.837,0,0,1,17.517,3.4,15.449,15.449,0,0,0,30.017.026l.041.006,2.475-12.758a8.253,8.253,0,0,0-6.531-9.677Z" transform="translate(126.881 25.124)" fill="none" stroke="#fffff8" stroke-miterlimit="10" stroke-width="0.717"/>
        <rect id="Rectángulo_344253" data-name="Rectángulo 344253" width="155.669" height="109.843" transform="translate(182.798 370.053) rotate(-85.13)" fill="#f8cc76"/>
        <path id="Trazado_717992" data-name="Trazado 717992" d="M186.6,121.161a15.361,15.361,0,0,0-9.621-5.073c3.5-1.051,3.758-5.392,3.251-7.126-1.069-3.667-23.829-4.49-34.832-4.671l-.454-.053.762-9.814s-20.522-.067-27.581,6.52-74.649-4.39-74.649-4.39-31.482,27.789-15.362,74.108c0,0,42.178-2.85,83.737-13.569l.794-.056c9.77,1,24.435.583,33.866-1.828,14.117-3.608,14.193-11.774,14.193-11.774l8.233-1.233c13.645-5.108,6.294-12.819,6.294-12.819l.258,1.353c.006,0,15.581-4.633,11.112-9.574" transform="translate(45.364 182.125)" fill="#3b47bd"/>
        <line id="Línea_2952" data-name="Línea 2952" x1="33.239" y1="1.048" transform="translate(191.212 297.231)" fill="none" stroke="#7e89fd" stroke-linecap="round" stroke-linejoin="round" stroke-width="0.717"/>
        <line id="Línea_2953" data-name="Línea 2953" x1="32.756" y1="1.646" transform="translate(189.59 311.097)" fill="none" stroke="#7e89fd" stroke-linecap="round" stroke-linejoin="round" stroke-width="0.717"/>
        <line id="Línea_2954" data-name="Línea 2954" x1="21.161" y1="1.037" transform="translate(186.671 324.61)" fill="none" stroke="#7e89fd" stroke-linecap="round" stroke-linejoin="round" stroke-width="0.717"/>
        <path id="Trazado_717993" data-name="Trazado 717993" d="M205.227,94.941l2.566-5.948a4.56,4.56,0,0,0-.19-4l-3.661-6.645s10.573-20.033,4.642-24.494c-6.411-4.821-12.948,4.563-14.662,6.862L174.938,86.189a20.75,20.75,0,0,0-4.507-13.3,9.059,9.059,0,0,0-5.6-3.1c-3.936-.785-2.888,2.088-3.046,5.163a16.856,16.856,0,0,1-2.651,8,48.667,48.667,0,0,0-4.935,12.4c-1.09,4.332-.349,17.113-.047,18.422,1.382,6.016-15.859,29.85-28.474,46.252a29.972,29.972,0,0,0,.606,37.451c8.494,10.169,27.062,23.668,45.537,29.209,0,0,22.25-25.653,27.765-79.333l11.92-27.891a12.189,12.189,0,0,0,.029-9.519Z" transform="translate(230.315 101.245)" fill="#3b47bd"/>
        <path id="Trazado_717994" data-name="Trazado 717994" d="M159.435,61.318s-18.115,14.2-16.89,19.626,12.664,3.529,19.327-3.585" transform="translate(274.825 118.27)" fill="none" stroke="#7e89fd" stroke-linecap="round" stroke-linejoin="round" stroke-width="0.717"/>
        <path id="Trazado_717995" data-name="Trazado 717995" d="M152.152,68.733s-10.213,5.474-9.032,11.639,21.568-4.847,21.568-4.847" transform="translate(275.866 132.572)" fill="none" stroke="#7e89fd" stroke-linecap="round" stroke-linejoin="round" stroke-width="0.717"/>
        <path id="Trazado_717996" data-name="Trazado 717996" d="M149.656,73.042s-9.129,5.357-4.607,11.22c3.544,4.592,15.742-2.361,15.742-2.361" transform="translate(277.346 140.884)" fill="none" stroke="#7e89fd" stroke-linecap="round" stroke-linejoin="round" stroke-width="0.717"/>
        <path id="Trazado_717997" data-name="Trazado 717997" d="M131.4,66.2l12.755.946a14.345,14.345,0,0,0,1.025-4.645c.047-.917-.006-1.8-.009-2.592l-13.232-.981A3.646,3.646,0,1,0,131.4,66.2" transform="translate(246.925 113.636)" fill="#f8cc76"/>
        <path id="Trazado_717998" data-name="Trazado 717998" d="M202.615,67.366l-11.132-3.84L136.86,59.476a18.892,18.892,0,0,1,3.725,7.589L190.943,70.8l11.437-1.3a1.1,1.1,0,0,0,.234-2.135" transform="translate(263.976 114.718)" fill="#f8cc76"/>
        <path id="Trazado_717999" data-name="Trazado 717999" d="M146,105.119s3.936-19.939-8.133-29.909c0,0,2.44-8.391,1.482-11.214" transform="translate(265.909 123.436)" fill="none" stroke="#7e89fd" stroke-linecap="round" stroke-linejoin="round" stroke-width="0.717"/>
        <path id="Trazado_718000" data-name="Trazado 718000" d="M42.047,174.932s50.372,49.675,127.333,12.594" transform="translate(81.1 337.41)" fill="none" stroke="#7e89fd" stroke-linecap="round" stroke-linejoin="round" stroke-width="0.717"/>
        <path id="Trazado_718001" data-name="Trazado 718001" d="M73.05,21.765a2.492,2.492,0,1,1,2.492,2.492,2.492,2.492,0,0,1-2.492-2.492" transform="translate(140.899 37.174)" fill="#29141d"/>
        <path id="Trazado_718002" data-name="Trazado 718002" d="M82.949,23.838a2.492,2.492,0,1,1,2.492,2.492,2.492,2.492,0,0,1-2.492-2.492" transform="translate(159.992 41.172)" fill="#29141d"/>
        <path id="Trazado_718003" data-name="Trazado 718003" d="M72.244,17.885s7.389-3.936,12.09,3.148" transform="translate(139.344 32.394)" fill="none" stroke="#29141d" stroke-linecap="round" stroke-linejoin="round" stroke-width="0.717"/>
        <path id="Trazado_718004" data-name="Trazado 718004" d="M82.1,19.906s7.179-4.3,12.234,2.533" transform="translate(158.361 35.817)" fill="none" stroke="#29141d" stroke-linecap="round" stroke-linejoin="round" stroke-width="0.717"/>
        <line id="Línea_2955" data-name="Línea 2955" y1="55.747" x2="12.84" transform="translate(83.594 224.608)" fill="none" stroke="#7e89fd" stroke-linecap="round" stroke-linejoin="round" stroke-width="0.717"/>
      </g>
    </g>
  </g>
</svg>
