<svg id="Grupo_983033" data-name="Grupo 983033" xmlns="http://www.w3.org/2000/svg" xmlns:xlink="http://www.w3.org/1999/xlink" width="483.578" height="419" viewBox="0 0 483.578 419">
  <defs>
    <clipPath id="clip-path">
      <rect id="Rectángulo_344036" data-name="Rectángulo 344036" width="483.578" height="419" fill="none"/>
    </clipPath>
  </defs>
  <g id="Grupo_983032" data-name="Grupo 983032" clip-path="url(#clip-path)">
    <path id="Trazado_717640" data-name="Trazado 717640" d="M52.333,52.223C30.144,64.08,10.611,83.545,3.473,108.63c-5.328,18.726-3.431,38.852-1.486,58.377L15.018,297.8c2.162,21.706,4.635,44.356,16.073,62.687,18.729,30.014,55.788,40.1,89.591,44.3,80.408,9.974,162.613.258,238.93-26.872,27.416-9.746,54.673-22.091,75.893-42.658s35.7-50.679,32.248-81c-1.818-15.953-8.361-30.963-11.161-46.771-6.962-39.3,9.6-80.246.524-119.1C448.43,51.23,417.04,23.173,382.577,10.645S310.777-1.209,274.6,1.933C204,8.063,116.123,18.136,52.333,52.223" transform="translate(0 0)" fill="#fff3d9"/>
    <path id="Trazado_717641" data-name="Trazado 717641" d="M456.648,333.891c-61.453,43.27-154.916,54.96-275.563,54.96S36.4,356.969,36.4,330.318,87.667,276.059,207.261,291c110.892,13.851,296.98,9.383,249.387,42.894" transform="translate(-6.233 -49.103)" fill="#f2e1bd"/>
    <path id="Trazado_717642" data-name="Trazado 717642" d="M482.581,300.063c-1.866,13.494-4.77,20.376-4.77,20.376,8.261,9.373,5.348,8.173,5.676,8.484s-5.543-3.687-5.543-3.687c-.48,5.775-6.263,4.975-6.263,4.975-4.486-.2-5.055,2.38-5.055,2.38-1.03-2.532,2.754-4.557,2.754-4.557-21.205-2.932-19.5.861-19.5.861-2.718-5.685,17.492-4.005,17.492-4.005a18.917,18.917,0,0,0-10.928-1.618c3.732-3.944,15.689.206,15.689.206,2.959-8.724,4.689-23.255,4.689-23.255Z" transform="translate(-76.985 -51.376)" fill="#ecc362"/>
    <path id="Trazado_717643" data-name="Trazado 717643" d="M490.151,334.413a15.461,15.461,0,0,1-1.6-1.027,2.316,2.316,0,0,1,.929-1.262c1.7,2.553.453,2.079.675,2.289" transform="translate(-83.648 -56.866)" fill="#a6513c"/>
    <path id="Trazado_717644" data-name="Trazado 717644" d="M470.1,338.935a2.349,2.349,0,0,1,.016-1.827,5.318,5.318,0,0,1,1.285.222,2.849,2.849,0,0,0-1.3,1.6" transform="translate(-80.459 -57.719)" fill="#a6513c"/>
    <path id="Trazado_717645" data-name="Trazado 717645" d="M449.932,334.849v0" transform="translate(-77.036 -57.332)" fill="#a6513c"/>
    <path id="Trazado_717646" data-name="Trazado 717646" d="M449.881,334.486a1.841,1.841,0,0,1-.05-1.757,2.752,2.752,0,0,1,1.14.46c-1.364.551-1.11,1.247-1.09,1.3" transform="translate(-76.985 -56.969)" fill="#a6513c"/>
    <path id="Trazado_717647" data-name="Trazado 717647" d="M460.019,327.622c0,.006,0,.012,0,.017a11.907,11.907,0,0,0-2.161.213,4.583,4.583,0,0,1,1.56-1.043.991.991,0,0,1,.6.812" transform="translate(-78.393 -55.956)" fill="#a6513c"/>
    <path id="Trazado_717648" data-name="Trazado 717648" d="M508.26,300.506c-.094,14.9,3.679,21.479,3.679,21.479,8.261,9.373,5.348,8.173,5.676,8.484s-5.543-3.687-5.543-3.687c-.48,5.774-6.263,4.974-6.263,4.974-4.486-.2-5.055,2.381-5.055,2.381-1.03-2.532,2.754-4.557,2.754-4.557-21.205-2.932-19.5.861-19.5.861-2.718-5.686,17.492-4.006,17.492-4.006a18.92,18.92,0,0,0-10.927-1.617c3.732-3.944,15.689.2,15.689.2-.668-9.985-4.708-23.209-4.708-23.209Z" transform="translate(-82.828 -51.452)" fill="#ecc362"/>
    <path id="Trazado_717649" data-name="Trazado 717649" d="M524.279,336.186a15.907,15.907,0,0,1-1.6-1.027,2.313,2.313,0,0,1,.93-1.262c1.7,2.553.452,2.079.675,2.289" transform="translate(-89.491 -57.169)" fill="#a6513c"/>
    <path id="Trazado_717650" data-name="Trazado 717650" d="M504.229,340.708a2.346,2.346,0,0,1,.015-1.827,5.281,5.281,0,0,1,1.285.222,2.846,2.846,0,0,0-1.3,1.6" transform="translate(-86.303 -58.022)" fill="#a6513c"/>
    <path id="Trazado_717651" data-name="Trazado 717651" d="M484.059,336.621v0" transform="translate(-82.88 -57.636)" fill="#a6513c"/>
    <path id="Trazado_717652" data-name="Trazado 717652" d="M484.008,336.259a1.841,1.841,0,0,1-.05-1.757,2.752,2.752,0,0,1,1.14.46c-1.364.551-1.111,1.247-1.09,1.3" transform="translate(-82.828 -57.273)" fill="#a6513c"/>
    <path id="Trazado_717653" data-name="Trazado 717653" d="M494.147,329.4a.129.129,0,0,1,0,.017,11.907,11.907,0,0,0-2.161.213,4.578,4.578,0,0,1,1.561-1.043.993.993,0,0,1,.6.812" transform="translate(-84.236 -56.259)" fill="#a6513c"/>
    <path id="Trazado_717654" data-name="Trazado 717654" d="M378.374,260.134a14.031,14.031,0,0,0-1.717-2.6,5.7,5.7,0,0,0-5.8-1.043c-2.1,2.158-2.124,5.189-2.015,7.96a5.112,5.112,0,0,1-.249,2.258c-.76,1.769-3.48,3.221-2.606,4.954.5,1,1.963,1.352,2.934,2.073a4.362,4.362,0,0,1,1.536,3.934c-.1,1.424-.556,2.822-.579,4.248a2.31,2.31,0,0,0,.331,1.4,3.476,3.476,0,0,0,1.387.993,26.418,26.418,0,0,0,8.817,2.441c2.19-3.294,1.6-7.309,1.325-11.063-.242-3.266.473-6.67.133-9.888-.307-2.9-1.823-3.07-3.492-5.671" transform="translate(-62.634 -43.853)" fill="#e34927"/>
    <path id="Trazado_717655" data-name="Trazado 717655" d="M387.872,294.1c4.8-1.416,7.509,1.2,7.509,1.2,7.078,9.577,11.475,4.857,11.257.972a10.409,10.409,0,0,0-3.963-7.711c-6.853-3.63-14.348,3.139-14.348,3.139Z" transform="translate(-66.411 -49.224)" fill="#e34927"/>
    <path id="Trazado_717656" data-name="Trazado 717656" d="M383.239,257.89c-9.8-8.949-9.376-20.456-3.836-23.866a54.08,54.08,0,0,0,8.94-7.494,31.921,31.921,0,0,1,6.716-5.112c13.316-7.669,22.274-20.21,22.274-20.21,2.876-8.338,29.229-27.155,46.067-38.514,11.357-7.66,17.2-20.744,27.44-29.844,19.952-17.729,23.66-51.4,23.66-51.4,5.242-15.768,9.078,1.279,9.078,1.279,9.375-5.114,8.523,12.359,8.523,12.359,3.387,1.129,7.9,1.692,6.392,9.8-3.024,16.211,5.413,35.8,5.413,35.8,8.1,21.309,1.279,37.929,1.279,37.929-3.836,7.245-1.7,19.178-1.7,19.178,2.557,27.7-26.849,38.355-26.849,38.355-15.768,7.671-17.472,17.473-17.472,17.473-8.1,20.882-44.322,4.262-44.322,4.262-21.309,2.984-46.452-6.392-46.452-6.392-12.786-5.54-23.014,7.245-23.014,7.245Z" transform="translate(-64.292 -12.801)" fill="#f08f4a"/>
    <path id="Trazado_717657" data-name="Trazado 717657" d="M386.27,292.842c-2.683-2.269-5.58-8.4-6.192-11.9a4.71,4.71,0,0,1,1.614-4.654c1.159-1.062,2.811-2.121,2.79-3.894.535,2.2,2.469,3.66,3.461,5.627a12.077,12.077,0,0,1,.877,7.041,9.822,9.822,0,0,0,3.232-1.475Z" transform="translate(-65.06 -46.639)" fill="#e34927"/>
    <path id="Trazado_717658" data-name="Trazado 717658" d="M383.876,294.306c-.748,4.8,4.33,9.235,4.33,9.235.059-6.143,1.442-8.589,1.442-8.589-.328-.762,1.745-3.375,1.745-3.375a14.17,14.17,0,0,0-5.14,2,3.5,3.5,0,0,1-2.377.73" transform="translate(-65.714 -49.923)" fill="#ecc362"/>
    <path id="Trazado_717659" data-name="Trazado 717659" d="M385.232,295.564c.188,0,.339.265.336.588s-.158.583-.347.582-.338-.265-.336-.588.158-.583.347-.582" transform="translate(-65.899 -50.606)" fill="#382118"/>
    <path id="Trazado_717660" data-name="Trazado 717660" d="M384.5,279.556c.39.651-.885,1.769-.885,1.769-2.838,2.941.051,5.1.051,5.1a5.73,5.73,0,0,1,1.536,2.264,10.289,10.289,0,0,1,1.509-2.5,3.109,3.109,0,0,0-.7-4.711,5.822,5.822,0,0,1-1.509-1.926" transform="translate(-65.468 -47.865)" fill="#382118"/>
    <path id="Trazado_717661" data-name="Trazado 717661" d="M383.547,284.542a1.505,1.505,0,1,0,1.543-1.658,1.608,1.608,0,0,0-1.543,1.658" transform="translate(-65.67 -48.435)" fill="#f79854"/>
    <path id="Trazado_717662" data-name="Trazado 717662" d="M384.839,285.543a.639.639,0,1,0,.659-.619.64.64,0,0,0-.659.619" transform="translate(-65.891 -48.784)" fill="#382118"/>
    <path id="Trazado_717663" data-name="Trazado 717663" d="M548.159,123.219a.425.425,0,0,1-.409-.534c.662-2.461,1.278-4.931,1.829-7.343,2.3-10.047,4.257-20.755,3.067-31a.424.424,0,0,1,.842-.1c1.2,10.374-.771,21.169-3.084,31.289-.554,2.422-1.171,4.9-1.837,7.374a.423.423,0,0,1-.409.314" transform="translate(-93.782 -14.36)" fill="#382118"/>
    <path id="Trazado_717664" data-name="Trazado 717664" d="M555.625,143.95a.424.424,0,0,1-.4-.566c.089-.25,8.9-25.279,7.222-44.143a.424.424,0,0,1,.844-.075c1.693,19.05-7.178,44.249-7.268,44.5a.423.423,0,0,1-.4.282" transform="translate(-95.06 -16.913)" fill="#382118"/>
    <path id="Trazado_717665" data-name="Trazado 717665" d="M456.737,251.168a.424.424,0,0,1-.039-.845,104.2,104.2,0,0,0,46.753-16.26,25.882,25.882,0,0,0,5.933-4.848,30.332,30.332,0,0,0,3.434-5.506c6.094-11.531,13-24.6,12.667-38.612a.424.424,0,1,1,.847-.02c.34,14.233-6.623,27.405-12.766,39.027a30.919,30.919,0,0,1-3.536,5.658,26.638,26.638,0,0,1-6.118,5.012,105.053,105.053,0,0,1-47.136,16.393l-.04,0" transform="translate(-78.129 -31.617)" fill="#382118"/>
    <path id="Trazado_717666" data-name="Trazado 717666" d="M492.965,221.39a.424.424,0,0,1-.18-.807,53.351,53.351,0,0,0,29.748-39.506.424.424,0,1,1,.837.133,54.21,54.21,0,0,1-30.226,40.14.429.429,0,0,1-.179.04" transform="translate(-84.332 -30.942)" fill="#382118"/>
    <path id="Trazado_717667" data-name="Trazado 717667" d="M474.8,207.488a.424.424,0,0,1-.231-.779c6.029-3.918,12.312-7.6,18.675-10.942l1.082-.567a56.686,56.686,0,0,0,8.707-5.231c2.333-1.818,5.354-4.837,6.5-8.892a.424.424,0,0,1,.816.23,18.615,18.615,0,0,1-6.8,9.33,57.4,57.4,0,0,1-8.836,5.314l-1.081.566c-6.339,3.33-12.6,7-18.607,10.9a.422.422,0,0,1-.23.069" transform="translate(-81.221 -30.951)" fill="#382118"/>
    <path id="Trazado_717668" data-name="Trazado 717668" d="M565.909,142.534a.424.424,0,0,1-.4-.569,77.49,77.49,0,0,0,3.81-21.179.424.424,0,1,1,.847.031,78.348,78.348,0,0,1-3.861,21.438.423.423,0,0,1-.4.278" transform="translate(-96.821 -20.611)" fill="#382118"/>
    <path id="Trazado_717669" data-name="Trazado 717669" d="M466.454,289.049a1.206,1.206,0,0,0,.743-.767,4.165,4.165,0,0,0,.239-1.071,10.394,10.394,0,0,0,.115-2.21,2.646,2.646,0,0,0-.236-.892,1.966,1.966,0,0,0-.5-.656,1.05,1.05,0,0,0-.591-.259,3.473,3.473,0,0,1-.734-.1,1.387,1.387,0,0,1-.635-.38,1.287,1.287,0,0,1-.341-.783,1.99,1.99,0,0,1,.23-.971,3.309,3.309,0,0,0,.159-.424,3.05,3.05,0,0,0,.117-.912,4.517,4.517,0,0,0-.484-1.919,10.825,10.825,0,0,0-3.047-3.3,8.4,8.4,0,0,1,2.272.9,6.2,6.2,0,0,1,1.916,1.7,5.173,5.173,0,0,1,.958,2.532,4.444,4.444,0,0,1-.1,1.432,4.96,4.96,0,0,1-.24.687c-.084.164-.087.29-.079.158a.423.423,0,0,0-.114-.251.3.3,0,0,0-.129-.089,3.865,3.865,0,0,0,.436.052,2.635,2.635,0,0,1,1.5.746,3.274,3.274,0,0,1,.8,1.293,3.675,3.675,0,0,1,.177,1.421,7.853,7.853,0,0,1-.647,2.441,4.087,4.087,0,0,1-.648,1.111,1.807,1.807,0,0,1-.516.413,1.049,1.049,0,0,1-.622.1" transform="translate(-79.015 -46.983)" fill="#c96f4f"/>
    <path id="Trazado_717670" data-name="Trazado 717670" d="M440.483,282.024a1.411,1.411,0,0,0,.956-.547,1.978,1.978,0,0,0,.409-.976,4.813,4.813,0,0,0,.023-1.106c-.032-.385-.048-.782-.094-1.152a3.311,3.311,0,0,0-.67-1.848c-.09-.1-.23-.219-.39-.375a2.187,2.187,0,0,1-.5-.678,1.577,1.577,0,0,1-.072-1.038c.073-.29.177-.492.225-.649a6.055,6.055,0,0,0-2.635-7.13l-.848-.462.564-.724a4.679,4.679,0,0,0,.9-2.114,4.76,4.76,0,0,0-.2-2.362,5.062,5.062,0,0,0-1.384-2.046,5.58,5.58,0,0,0-2.308-1.249,4.89,4.89,0,0,1,2.69.729,5.355,5.355,0,0,1,2,2.126,5.678,5.678,0,0,1,.593,2.955,5.747,5.747,0,0,1-1.01,2.908l-.283-1.186a7.162,7.162,0,0,1,3.3,9.141c-.092.212-.176.36-.2.453s-.031.073-.031.12a.779.779,0,0,0,.176.283c.109.133.261.286.411.5a3.31,3.31,0,0,1,.565,1.316,5.957,5.957,0,0,1,.083,1.3c-.017.418-.043.81-.092,1.213a5.451,5.451,0,0,1-.266,1.237,2.308,2.308,0,0,1-.748,1.052,1.462,1.462,0,0,1-1.174.319" transform="translate(-74.388 -44.099)" fill="#c96f4f"/>
    <path id="Trazado_717671" data-name="Trazado 717671" d="M415.78,249.069a3.212,3.212,0,0,1,2.108.73,4.563,4.563,0,0,1,1.7,4.073,3.2,3.2,0,0,1-.97,2.011,15.7,15.7,0,0,0-.37-1.952,12.714,12.714,0,0,0-.559-1.66,12.392,12.392,0,0,0-.782-1.567,15.417,15.417,0,0,0-1.126-1.635" transform="translate(-71.189 -42.644)" fill="#c96f4f"/>
    <path id="Trazado_717672" data-name="Trazado 717672" d="M123.331,300.888c1.866,13.494,4.77,20.376,4.77,20.376-8.261,9.373-5.348,8.173-5.676,8.484s5.543-3.687,5.543-3.687c.48,5.775,6.263,4.975,6.263,4.975,4.486-.2,5.055,2.38,5.055,2.38,1.03-2.532-2.754-4.557-2.754-4.557,21.205-2.932,19.5.861,19.5.861,2.718-5.685-17.492-4.005-17.492-4.005a18.914,18.914,0,0,1,10.927-1.618c-3.731-3.944-15.688.206-15.688.206-2.959-8.724-4.689-23.255-4.689-23.255Z" transform="translate(-20.92 -51.517)" fill="#ecc362"/>
    <path id="Trazado_717673" data-name="Trazado 717673" d="M122.425,335.238a15.682,15.682,0,0,0,1.6-1.027,2.313,2.313,0,0,0-.93-1.262c-1.7,2.553-.453,2.079-.675,2.289" transform="translate(-20.921 -57.007)" fill="#a6513c"/>
    <path id="Trazado_717674" data-name="Trazado 717674" d="M142.55,339.76a2.349,2.349,0,0,0-.016-1.827,5.326,5.326,0,0,0-1.285.222,2.85,2.85,0,0,1,1.3,1.6" transform="translate(-24.184 -57.86)" fill="#a6513c"/>
    <path id="Trazado_717675" data-name="Trazado 717675" d="M163.025,335.673v0" transform="translate(-27.913 -57.473)" fill="#a6513c"/>
    <path id="Trazado_717676" data-name="Trazado 717676" d="M162.8,335.31a1.842,1.842,0,0,0,.05-1.758,2.764,2.764,0,0,0-1.14.461c1.364.551,1.11,1.247,1.09,1.3" transform="translate(-27.688 -57.11)" fill="#a6513c"/>
    <path id="Trazado_717677" data-name="Trazado 717677" d="M152.491,328.446c0,.006,0,.012,0,.017a11.907,11.907,0,0,1,2.161.213,4.584,4.584,0,0,0-1.56-1.043.991.991,0,0,0-.6.812" transform="translate(-26.109 -56.097)" fill="#a6513c"/>
    <path id="Trazado_717678" data-name="Trazado 717678" d="M97.653,301.331c.094,14.9-3.679,21.479-3.679,21.479-8.261,9.373-5.348,8.173-5.676,8.484s5.543-3.687,5.543-3.687c.48,5.774,6.263,4.974,6.263,4.974,4.486-.2,5.055,2.381,5.055,2.381,1.03-2.532-2.754-4.557-2.754-4.557,21.205-2.932,19.5.861,19.5.861,2.718-5.686-17.491-4.006-17.491-4.006a18.915,18.915,0,0,1,10.926-1.617c-3.731-3.944-15.688.2-15.688.2.668-9.985,4.708-23.209,4.708-23.209Z" transform="translate(-15.077 -51.593)" fill="#ecc362"/>
    <path id="Trazado_717679" data-name="Trazado 717679" d="M88.3,337.011a15.9,15.9,0,0,0,1.6-1.027,2.313,2.313,0,0,0-.93-1.262c-1.7,2.553-.453,2.079-.675,2.289" transform="translate(-15.078 -57.31)" fill="#a6513c"/>
    <path id="Trazado_717680" data-name="Trazado 717680" d="M108.422,341.533a2.349,2.349,0,0,0-.016-1.827,5.281,5.281,0,0,0-1.285.222,2.85,2.85,0,0,1,1.3,1.6" transform="translate(-18.341 -58.164)" fill="#a6513c"/>
    <path id="Trazado_717681" data-name="Trazado 717681" d="M128.9,337.446l0,0,0,0" transform="translate(-22.069 -57.777)" fill="#a6513c"/>
    <path id="Trazado_717682" data-name="Trazado 717682" d="M128.672,337.083a1.841,1.841,0,0,0,.05-1.757,2.752,2.752,0,0,0-1.14.46c1.364.551,1.11,1.247,1.09,1.3" transform="translate(-21.844 -57.414)" fill="#a6513c"/>
    <path id="Trazado_717683" data-name="Trazado 717683" d="M118.363,330.219c0,.006,0,.012,0,.017a11.907,11.907,0,0,1,2.161.213,4.583,4.583,0,0,0-1.56-1.043.991.991,0,0,0-.6.812" transform="translate(-20.266 -56.4)" fill="#a6513c"/>
    <path id="Trazado_717684" data-name="Trazado 717684" d="M231.235,260.959a14.036,14.036,0,0,1,1.717-2.6,5.7,5.7,0,0,1,5.8-1.043c2.1,2.158,2.124,5.189,2.015,7.96a5.112,5.112,0,0,0,.249,2.258c.76,1.769,3.48,3.221,2.607,4.954-.5,1-1.963,1.352-2.934,2.073a4.363,4.363,0,0,0-1.536,3.934c.1,1.424.556,2.822.579,4.248a2.31,2.31,0,0,1-.332,1.4,3.477,3.477,0,0,1-1.387.993,26.422,26.422,0,0,1-8.817,2.441c-2.19-3.294-1.6-7.309-1.325-11.063.242-3.266-.474-6.67-.133-9.888.307-2.9,1.823-3.07,3.493-5.671" transform="translate(-38.967 -43.994)" fill="#e34927"/>
    <path id="Trazado_717685" data-name="Trazado 717685" d="M221.207,294.923c-4.8-1.416-7.509,1.2-7.509,1.2-7.078,9.577-11.475,4.857-11.257.972a10.409,10.409,0,0,1,3.963-7.711c6.853-3.63,14.348,3.139,14.348,3.139Z" transform="translate(-34.66 -49.365)" fill="#e34927"/>
    <path id="Trazado_717686" data-name="Trazado 717686" d="M194.107,258.462c9.8-8.95,9.376-20.456,3.836-23.866A54.082,54.082,0,0,1,189,227.1a31.92,31.92,0,0,0-6.716-5.112c-13.316-7.669-22.274-20.21-22.274-20.21-2.876-8.338-29.229-27.155-46.067-38.514a87.318,87.318,0,0,1-27.44-29.844c-13.2-23.668-23.66-51.4-23.66-51.4-9.8-18.752-11.507,1.7-11.507,1.7C41.963,78.617,39.833,99.5,39.833,99.5c-11.507,3.836-6.392,41.765-6.392,41.765-8.1,21.308-1.279,37.929-1.279,37.929,3.836,7.245,1.7,19.178,1.7,19.178-2.557,27.7,26.849,38.355,26.849,38.355C76.484,244.4,78.188,254.2,78.188,254.2c8.1,20.882,44.322,4.262,44.322,4.262,21.309,2.984,46.452-6.392,46.452-6.392,12.786-5.54,23.014,7.244,23.014,7.244Z" transform="translate(-5.047 -12.689)" fill="#fff"/>
    <path id="Trazado_717687" data-name="Trazado 717687" d="M224.193,293.666c2.682-2.269,5.58-8.4,6.192-11.9a4.712,4.712,0,0,0-1.614-4.654c-1.159-1.062-2.811-2.121-2.79-3.894-.535,2.2-2.47,3.66-3.461,5.627a12.075,12.075,0,0,0-.878,7.041,9.817,9.817,0,0,1-3.232-1.474Z" transform="translate(-37.396 -46.78)" fill="#e34927"/>
    <path id="Trazado_717688" data-name="Trazado 717688" d="M227.511,295.131c.748,4.8-4.33,9.235-4.33,9.235-.059-6.143-1.442-8.589-1.442-8.589.329-.763-1.745-3.375-1.745-3.375a14.162,14.162,0,0,1,5.14,2,3.5,3.5,0,0,0,2.377.73" transform="translate(-37.667 -50.065)" fill="#ecc362"/>
    <path id="Trazado_717689" data-name="Trazado 717689" d="M227.584,296.388c-.188,0-.339.265-.336.588s.158.583.347.582.338-.265.336-.588-.158-.583-.347-.582" transform="translate(-38.909 -50.747)" fill="#382118"/>
    <path id="Trazado_717690" data-name="Trazado 717690" d="M227.391,280.381c-.39.651.885,1.769.885,1.769,2.838,2.941-.051,5.1-.051,5.1a5.724,5.724,0,0,0-1.536,2.264,10.288,10.288,0,0,0-1.509-2.5,3.109,3.109,0,0,1,.7-4.711,5.821,5.821,0,0,0,1.509-1.926" transform="translate(-38.417 -48.006)" fill="#382118"/>
    <path id="Trazado_717691" data-name="Trazado 717691" d="M228.794,285.367a1.505,1.505,0,1,1-1.543-1.658,1.609,1.609,0,0,1,1.543,1.658" transform="translate(-38.663 -48.576)" fill="#f79854"/>
    <path id="Trazado_717692" data-name="Trazado 717692" d="M227.854,286.368a.639.639,0,1,1-.659-.619.64.64,0,0,1,.659.619" transform="translate(-38.794 -48.925)" fill="#382118"/>
    <path id="Trazado_717693" data-name="Trazado 717693" d="M65.519,132.507a.424.424,0,0,1-.39-.259c-.119-.282-11.952-28.441-9.833-46.667a.423.423,0,0,1,.841.1c-2.094,18.006,9.653,45.958,9.771,46.239a.423.423,0,0,1-.225.555.414.414,0,0,1-.165.034" transform="translate(-9.424 -14.589)" fill="#382118"/>
    <path id="Trazado_717694" data-name="Trazado 717694" d="M52.933,145.141a.423.423,0,0,1-.361-.2c-.128-.211-12.839-21.223-11.141-40.319a.423.423,0,1,1,.844.075c-1.672,18.814,10.893,39.594,11.02,39.8a.424.424,0,0,1-.141.583.42.42,0,0,1-.22.062" transform="translate(-7.067 -17.847)" fill="#382118"/>
    <path id="Trazado_717695" data-name="Trazado 717695" d="M141.752,251.993l-.04,0A105.049,105.049,0,0,1,94.576,235.6a26.651,26.651,0,0,1-6.118-5.012,30.892,30.892,0,0,1-3.536-5.658c-6.143-11.622-13.106-24.8-12.766-39.028a.424.424,0,0,1,.847.021C72.668,199.933,79.576,213,85.67,224.533A30.257,30.257,0,0,0,89.1,230.04a25.915,25.915,0,0,0,5.933,4.848,104.2,104.2,0,0,0,46.754,16.26.424.424,0,0,1-.04.845" transform="translate(-12.352 -31.759)" fill="#382118"/>
    <path id="Trazado_717696" data-name="Trazado 717696" d="M113.621,222.215a.424.424,0,0,1-.179-.04,54.214,54.214,0,0,1-30.227-40.14.424.424,0,1,1,.837-.133A53.354,53.354,0,0,0,113.8,221.408a.423.423,0,0,1-.179.807" transform="translate(-14.247 -31.084)" fill="#382118"/>
    <path id="Trazado_717697" data-name="Trazado 717697" d="M130.724,208.313a.423.423,0,0,1-.231-.069c-6-3.9-12.265-7.571-18.607-10.9l-1.083-.567a57.208,57.208,0,0,1-8.832-5.312,18.613,18.613,0,0,1-6.8-9.33.424.424,0,0,1,.816-.23c1.148,4.056,4.169,7.074,6.5,8.892a56.574,56.574,0,0,0,8.7,5.23l1.086.569c6.364,3.343,12.647,7.025,18.674,10.942a.424.424,0,0,1-.23.779" transform="translate(-16.293 -31.092)" fill="#382118"/>
    <path id="Trazado_717698" data-name="Trazado 717698" d="M144.253,294.1a.424.424,0,0,1-.052-.844,76.063,76.063,0,0,0,18.871-4.892.423.423,0,1,1,.316.786,76.908,76.908,0,0,1-19.08,4.947.4.4,0,0,1-.054,0" transform="translate(-24.626 -49.368)" fill="#382118"/>
    <rect id="Rectángulo_344034" data-name="Rectángulo 344034" width="47.731" height="75.858" transform="translate(225.285 180.568)" fill="#bababa"/>
    <path id="Trazado_717699" data-name="Trazado 717699" d="M328.208,171.6H254.3a7.153,7.153,0,0,1-7.153-7.153v-.609a7.154,7.154,0,0,1,7.153-7.154h73.911a7.154,7.154,0,0,1,7.153,7.154v.609a7.153,7.153,0,0,1-7.153,7.153" transform="translate(-42.315 -26.826)" fill="#d8d8da"/>
    <path id="Trazado_717700" data-name="Trazado 717700" d="M308.914,153.2h-19.6v-14.89a9.4,9.4,0,0,1,9.4-9.4h.8a9.4,9.4,0,0,1,9.4,9.4Z" transform="translate(-49.535 -22.072)" fill="#bababa"/>
    <path id="Trazado_717701" data-name="Trazado 717701" d="M391.752,250.229a31.9,31.9,0,0,0-23.614-23.569c-9.836-2.362-24.41-5.234-45.407-8.105l-7.288.583q-1.246-.511-2.514-1.009l-6.392.426a234.071,234.071,0,0,1,21.485,12.676,31.73,31.73,0,0,1,13.8,22.744,261.056,261.056,0,0,1,1.367,39.586h10.229s1.29-22.191-1.751-41.876A31.68,31.68,0,0,0,335.485,228.7c-4.5-2.449-10-5.234-16.1-7.9,9.464,1.915,26.4,5.7,40.353,10.753a32.033,32.033,0,0,1,21.047,27.6,235.751,235.751,0,0,1,.329,32.274L394.753,291s2.818-16.341-3-40.775" transform="translate(-52.484 -37.348)" fill="#4d99bf"/>
    <path id="Trazado_717702" data-name="Trazado 717702" d="M268.258,219.4l-7.287-.583c-21,2.871-35.57,5.743-45.407,8.1a31.9,31.9,0,0,0-23.614,23.569c-5.819,24.435-3,40.775-3,40.775l13.638.426a235.477,235.477,0,0,1,.329-32.274,32.032,32.032,0,0,1,21.046-27.6c13.955-5.051,30.889-8.837,40.353-10.753-6.1,2.664-11.595,5.449-16.1,7.9a31.684,31.684,0,0,0-16.179,22.981c-3.042,19.686-1.751,41.876-1.751,41.876h10.228a261.06,261.06,0,0,1,1.367-39.586,31.727,31.727,0,0,1,13.8-22.743,233.856,233.856,0,0,1,21.485-12.676l-6.392-.427q-1.271.5-2.515,1.009" transform="translate(-32.234 -37.392)" fill="#4d99bf"/>
    <rect id="Rectángulo_344035" data-name="Rectángulo 344035" width="8.523" height="72.876" transform="translate(245.315 180.994)" fill="#4d99bf"/>
    <path id="Trazado_717703" data-name="Trazado 717703" d="M377.466,324.114H184.409V307.323a4.092,4.092,0,0,1,4.092-4.092H373.374a4.092,4.092,0,0,1,4.092,4.092Z" transform="translate(-31.574 -51.919)" fill="#4d99bf"/>
    <path id="Trazado_717704" data-name="Trazado 717704" d="M316.11,201.463l-1.758-45.812a5.829,5.829,0,0,0-5.777-5.656H282.66a5.83,5.83,0,0,0-5.778,5.7l-1.414,45.719h-.135a5.356,5.356,0,0,0-5.307,5.4v1.106a159.162,159.162,0,0,0,25.144,1.735,183.483,183.483,0,0,0,25.57-1.735v-1.106a5.369,5.369,0,0,0-4.631-5.355" transform="translate(-46.233 -25.682)" fill="#73c0e6"/>
    <path id="Trazado_717705" data-name="Trazado 717705" d="M296.4,213.83c-13.947,0-20.058-1.275-20.119-1.288a.423.423,0,1,1,.177-.828c.06.012,6.1,1.269,19.941,1.269a141.875,141.875,0,0,0,20.813-1.273.424.424,0,0,1,.139.836A142.762,142.762,0,0,1,296.4,213.83" transform="translate(-47.246 -36.247)" fill="#382118"/>
    <path id="Trazado_717706" data-name="Trazado 717706" d="M375.688,303.568H186.894a.423.423,0,1,1,0-.847H375.688a.423.423,0,0,1,0,.847" transform="translate(-31.927 -51.831)" fill="#382118"/>
    <path id="Trazado_717707" data-name="Trazado 717707" d="M340.006,171.6H323.2a7.154,7.154,0,0,1-7.154-7.153v-.609a7.154,7.154,0,0,1,7.154-7.154h16.8a7.154,7.154,0,0,1,7.153,7.154v.609a7.153,7.153,0,0,1-7.153,7.153" transform="translate(-54.113 -26.826)" fill="#d8d8da"/>
    <path id="Trazado_717708" data-name="Trazado 717708" d="M346.272,171.932c-3.053,0-5.538-3.536-5.538-7.882s2.485-7.882,5.538-7.882a.424.424,0,1,1,0,.847c-2.587,0-4.69,3.156-4.69,7.035s2.1,7.035,4.69,7.035a.423.423,0,1,1,0,.847" transform="translate(-58.34 -26.739)" fill="#382118"/>
    <path id="Trazado_717709" data-name="Trazado 717709" d="M374.164,334.028H186.23a4.905,4.905,0,0,1-4.9-4.906V328.7a4.905,4.905,0,0,1,4.9-4.9H374.164a4.905,4.905,0,0,1,4.906,4.9v.418a4.906,4.906,0,0,1-4.906,4.906" transform="translate(-31.046 -55.44)" fill="#bababa"/>
    <path id="Trazado_717710" data-name="Trazado 717710" d="M399.162,342.65c0,.471-.763.852-1.7.852s-1.7-.381-1.7-.852.763-.852,1.7-.852,1.7.381,1.7.852" transform="translate(-67.76 -58.522)" fill="#c96f4f"/>
    <path id="Trazado_717711" data-name="Trazado 717711" d="M389.142,346.8c0,1.059-.477,1.918-1.065,1.918s-1.066-.859-1.066-1.918.477-1.918,1.066-1.918,1.065.859,1.065,1.918" transform="translate(-66.263 -59.05)" fill="#c96f4f"/>
    <path id="Trazado_717712" data-name="Trazado 717712" d="M375.684,344.832a1.294,1.294,0,1,1-1.279-1.492,1.4,1.4,0,0,1,1.279,1.492" transform="translate(-63.886 -58.786)" fill="#c96f4f"/>
    <path id="Trazado_717713" data-name="Trazado 717713" d="M190.874,464.432a108.4,108.4,0,0,0,3.287,21.589c-1.379.851-6.872,5.81-5.674,7.295s4-2.549,5.4-2.567a5.928,5.928,0,0,0,5.648,5.131c2.776.23,3.77.495,5.316,2.595.127-2.165-.893-3.377-2.586-4.59,4.228-.167,17.288-1.449,19.536,2.1-2.349-6.2-11.939-4.907-17.408-5.005a25.349,25.349,0,0,1,11.007-.732c-5.157-2.689-10.155-2.266-15.683-1a213.928,213.928,0,0,1-3.255-25.073c-1.863.1-3.729.208-5.593.256" transform="translate(-32.243 -79.475)" fill="#ecc362"/>
    <path id="Trazado_717714" data-name="Trazado 717714" d="M207.39,503.018c-.346.161-.706.293-1.067.437a6.74,6.74,0,0,1,1.615,1.667,4.552,4.552,0,0,0-.333-2.122c-.072,0-.143.012-.215.017" transform="translate(-35.326 -86.123)" fill="#a6513c"/>
    <path id="Trazado_717715" data-name="Trazado 717715" d="M216.906,495.077a19.618,19.618,0,0,1,3.394.324,17.575,17.575,0,0,0-2.693-1.131,2.688,2.688,0,0,0-.7.807" transform="translate(-37.138 -84.628)" fill="#a6513c"/>
    <path id="Trazado_717716" data-name="Trazado 717716" d="M225.993,499.139a3.443,3.443,0,0,0-.851,1.1,4.933,4.933,0,0,1,2.969,1.735,6.3,6.3,0,0,0-2.118-2.833" transform="translate(-38.548 -85.461)" fill="#a6513c"/>
    <path id="Trazado_717717" data-name="Trazado 717717" d="M187.813,499.87l.022-.007a2.691,2.691,0,0,1,1.336-.365l.07-.036c-.112-.9-.489-1.45-.922-1.557a6.62,6.62,0,0,1-.458,1.014c-.037.077-.066.157-.1.236-.153.52-.159.7.051.714" transform="translate(-32.129 -85.25)" fill="#a6513c"/>
    <path id="Trazado_717718" data-name="Trazado 717718" d="M161.447,465.411c-.011,5.486-2.908,15.925-5.183,19.6s-6.946,5.6-6.335,8.2,4.125-2.858,5.274-2.239a5.741,5.741,0,0,0,5.678,4.8c2.745.118,3.774.37,5.3,2.462.123-2.182-.87-3.366-2.639-4.508,4.325-.419,17.244-2.362,19.668,1.413-2.39-6.423-11.87-4.741-17.419-4.416,3.765-1.2,7.216-2,11.171-1.383-5.39-2.718-10.286-1.641-15.88-.089,1.877-7.8,4.438-15.32,6.855-22.966-2.185-.27-4.208-.975-6.493-.879" transform="translate(-25.661 -79.685)" fill="#ecc362"/>
    <path id="Trazado_717719" data-name="Trazado 717719" d="M149.573,499.961a.168.168,0,0,1,.022-.01,2.691,2.691,0,0,1,1.265-.563c.022-.016.039-.029.064-.046-.247-.87-.7-1.359-1.149-1.4a6.527,6.527,0,0,1-.3,1.072c-.025.082-.041.166-.061.249-.073.537-.051.718.158.7" transform="translate(-25.576 -85.257)" fill="#a6513c"/>
    <path id="Trazado_717720" data-name="Trazado 717720" d="M167.951,503.169a7.238,7.238,0,0,1,1.328,1.452,4.652,4.652,0,0,0-.258-1.932c-.023,0-.046-.008-.069-.008a1.311,1.311,0,0,0-1,.488" transform="translate(-28.756 -86.068)" fill="#a6513c"/>
    <path id="Trazado_717721" data-name="Trazado 717721" d="M179.484,493.89h0a17.635,17.635,0,0,1,2.551.211,15.867,15.867,0,0,0-2.234-.92,1.01,1.01,0,0,0-.317.709" transform="translate(-30.731 -84.441)" fill="#a6513c"/>
    <path id="Trazado_717722" data-name="Trazado 717722" d="M188.148,499.558a3.675,3.675,0,0,1,1.617,1.279,6.443,6.443,0,0,0-1.345-2.19,2.276,2.276,0,0,0-.272.912" transform="translate(-32.214 -85.377)" fill="#a6513c"/>
    <path id="Trazado_717723" data-name="Trazado 717723" d="M293.291,449.047c.537-.593,1.078-1.648,1.954-2.069,3.914-1.878,5,.037,5.665,4.212.361,2.289,2.141,8.715.535,10.685-1.093,1.34-2.158.754-3.028,1.771-1.448,1.694-.772,3.578-1.434,5.469-1,2.856-3.134,3.161-5.913,4.212-.539.2-5.552,1.455-5.737.7-1-4.083,1.291-8.2,2.176-11.79.769-3.121.761-5.947,1.69-8.647.838-2.435,2.495-2.776,4.093-4.544" transform="translate(-48.811 -76.407)" fill="#e34927"/>
    <path id="Trazado_717724" data-name="Trazado 717724" d="M275.633,480.028c-3.091-.208-6.043-2.551-9.129-.9s-11.281.438-10.772-3.091c.68-4.714.7-4.605,4.909-4.814s10.717,4.441,14.47,6.814c.282.7.311,1.367.522,1.988" transform="translate(-43.782 -80.681)" fill="#e34927"/>
    <path id="Trazado_717725" data-name="Trazado 717725" d="M250.548,458.362c3.581-.275,4.175-4.024,7.979-3.263.959-3.14,3.174-5.279,5.692-7.014,3.093-2.132,5.5-3.512,9.087-4.2.3.464.241.329.57.785,2.773,3.842,4.317,3.864,8.057,8.041,6.582,7.35-1.022,19.638-8.678,24.235a19.575,19.575,0,0,1-2.585,1.034,50.619,50.619,0,0,0-17.817-13.044c-6.513-.964-12.662-.651-19.217-.544,5.08-7.957,9.024-5.423,16.913-6.029" transform="translate(-40.002 -76.001)" fill="#f08f4a"/>
    <path id="Trazado_717726" data-name="Trazado 717726" d="M114.113,322.94c3.882-11.754,5.371-23.779,1.683-36.012a14.078,14.078,0,0,1,6.745-16.421c-1.12-7.386-2.635-13.57,6.911-13.579,1.528-9.508,2.863-11.207,9.118-2.321,6.456,25.082,11.15,38.352,30.123,56.185,9.738,9.152,15.614,19.942,25.5,26.993,14.653,10.454,36.181,23.547,40.835,41.534,3.733,9.215,7.749,18.159,13.7,26.486.942,1.316,2.76,3.265,3.811,4.684-3.576.673-5.99,2.059-9.081,4.19-2.516,1.735-4.735,3.874-5.692,7.014-3.8-.761-4.4,2.989-7.979,3.263-7.89.6-11.832-1.925-16.914,6.028a187.55,187.55,0,0,1-22.315-2.287c-13.375,5.407-35.024,9.776-41.437-7.477-1.424-7.985-6.834-11.766-13.471-15.7-15.771-6.348-23.615-18.409-21.131-35.488a33.1,33.1,0,0,0,.453-17.753c-2.863-10.478-3.66-18.9-.858-29.342" transform="translate(-19.24 -42.597)" fill="#c96f4f"/>
    <path id="Trazado_717727" data-name="Trazado 717727" d="M277.092,480.684a29.626,29.626,0,0,0,9.689-12.995c.963-2.736.086-3.39-.97-5.375-.864-1.627-2.3-2.035-2.422-3.972-1.136,2.425-2.986,4.233-4.119,6.654a43.668,43.668,0,0,0-3.244,8.11,9.394,9.394,0,0,1-3.784-1.1c1.589,2.906,3.259,5.788,4.849,8.68" transform="translate(-46.613 -78.476)" fill="#e34927"/>
    <path id="Trazado_717728" data-name="Trazado 717728" d="M281.141,482.612a16.736,16.736,0,0,1-6.421,8.483,18.8,18.8,0,0,0-.516-7.9c.051-1.2-.945-2.154-1.643-3a13.24,13.24,0,0,1,5.8,1.517,6.073,6.073,0,0,0,2.781.9" transform="translate(-46.667 -82.218)" fill="#ecc362"/>
    <path id="Trazado_717729" data-name="Trazado 717729" d="M280.948,483.792c-.293-.017-.462.316-.532.552s-.071.555.221.582.468-.33.537-.565.066-.552-.226-.569" transform="translate(-48.006 -82.834)" fill="#382118"/>
    <path id="Trazado_717730" data-name="Trazado 717730" d="M284.689,465.26c.176,1.514-.283,1.343.822,2.826s.386,4.331-1.022,5.335c-1.59,1.134-1.62,1.723-2.851,2.843a5.387,5.387,0,0,0-.89-2.345c-1.253-2.254.642-4.2,1.855-5.515a10.774,10.774,0,0,0,2.086-3.144" transform="translate(-47.999 -79.661)" fill="#382118"/>
    <path id="Trazado_717731" data-name="Trazado 717731" d="M285.308,471.7a2.556,2.556,0,0,1-1.937,2.084c-1.019.12-1.5-.63-1.253-1.591a2.792,2.792,0,0,1,1.991-2.226c1.074-.152,1.4.8,1.2,1.733" transform="translate(-48.292 -80.464)" fill="#f79854"/>
    <path id="Trazado_717732" data-name="Trazado 717732" d="M284.113,473.019a1.027,1.027,0,0,1-.8.8c-.385.06-.661-.172-.573-.564a1.089,1.089,0,0,1,.825-.831c.4-.063.616.2.551.591" transform="translate(-48.407 -80.887)" fill="#382118"/>
    <path id="Trazado_717733" data-name="Trazado 717733" d="M143.162,299.289a.423.423,0,0,1-.4-.281c-.479-1.335-.919-2.658-1.343-3.937-.4-1.2-.813-2.443-1.259-3.7-3.367-9.47-6.915-20.776-7.692-32.822a.424.424,0,0,1,.845-.055c.771,11.943,4.3,23.178,7.646,32.594.448,1.262.863,2.509,1.264,3.714.424,1.275.861,2.592,1.337,3.918a.424.424,0,0,1-.255.542.438.438,0,0,1-.143.025" transform="translate(-22.681 -44.191)" fill="#382118"/>
    <path id="Trazado_717734" data-name="Trazado 717734" d="M137.4,320.183a.425.425,0,0,1-.4-.275l-.955-2.544c-5.307-14.122-10.319-27.462-11.9-42.485a.424.424,0,1,1,.843-.089c1.573,14.916,6.566,28.206,11.854,42.275l.956,2.545a.423.423,0,0,1-.249.545.4.4,0,0,1-.148.027" transform="translate(-21.256 -46.984)" fill="#382118"/>
    <path id="Trazado_717735" data-name="Trazado 717735" d="M213.206,423.3a.415.415,0,0,1-.133-.022c-3.287-1.091-6.466-2.07-9.541-3.017-11.628-3.581-21.67-6.674-32.629-13.992a19.986,19.986,0,0,1-5.116-4.616,17.7,17.7,0,0,1-2.39-4.51l-.278-.676c-4.184-10.04-8.459-22.122-8.437-35.605a.424.424,0,0,1,.848,0c-.022,13.334,4.219,25.317,8.371,35.279l.281.68a17.058,17.058,0,0,0,2.273,4.309,18.994,18.994,0,0,0,4.92,4.435c10.856,7.249,20.844,10.325,32.409,13.887,3.079.948,6.262,1.929,9.558,3.023a.424.424,0,0,1-.133.826" transform="translate(-26.484 -61.713)" fill="#382118"/>
    <path id="Trazado_717736" data-name="Trazado 717736" d="M190.279,393.982a.419.419,0,0,1-.206-.054c-13.539-7.538-22.223-20.121-25.114-36.39a.423.423,0,1,1,.834-.148c2.845,16.01,11.383,28.389,24.692,35.8a.424.424,0,0,1-.206.794" transform="translate(-28.243 -61.132)" fill="#382118"/>
    <path id="Trazado_717737" data-name="Trazado 717737" d="M208.338,381.384a.415.415,0,0,1-.233-.07c-5.225-3.454-10.719-6.729-16.8-10.013q-.849-.459-1.7-.9a48.551,48.551,0,0,1-7.275-4.416,19,19,0,0,1-6.009-8.279.423.423,0,1,1,.785-.317,18.187,18.187,0,0,0,5.744,7.927,47.127,47.127,0,0,0,7.151,4.335c.568.3,1.136.6,1.7.908,6.1,3.3,11.615,6.584,16.861,10.052a.423.423,0,0,1-.235.777" transform="translate(-30.185 -61.145)" fill="#382118"/>
    <path id="Trazado_717738" data-name="Trazado 717738" d="M205.683,458.747a1.267,1.267,0,0,1-.565-.782,3.915,3.915,0,0,1-.1-1.062,11.921,11.921,0,0,1,.24-2.209,2.758,2.758,0,0,1,.37-.9,2.244,2.244,0,0,1,.6-.634,1.032,1.032,0,0,1,.612-.223,5.19,5.19,0,0,0,.724-.046,1.883,1.883,0,0,0,.622-.311,1.826,1.826,0,0,0,.431-.7,2.635,2.635,0,0,0-.036-.966,4.171,4.171,0,0,1-.083-.479,2.963,2.963,0,0,1,.043-.93,5.141,5.141,0,0,1,.765-1.861,14.683,14.683,0,0,1,3.381-3.111,9.96,9.96,0,0,0-2.307.784,6.989,6.989,0,0,0-2.037,1.564,6.4,6.4,0,0,0-1.266,2.4,5.18,5.18,0,0,0-.138,1.409,4.815,4.815,0,0,0,.1.662c.018.129.043.253.054.212s.114-.186.127-.22.2-.1.1-.078-.2-.011-.406.012a2.945,2.945,0,0,0-1.479.642,4.466,4.466,0,0,0-1.007,1.244,3.916,3.916,0,0,0-.4,1.425,8.85,8.85,0,0,0,.2,2.5,3.259,3.259,0,0,0,.481,1.12,1.318,1.318,0,0,0,.443.416.916.916,0,0,0,.534.128" transform="translate(-34.929 -76.111)" fill="#f08f4a"/>
    <path id="Trazado_717739" data-name="Trazado 717739" d="M229.27,454.451a1.572,1.572,0,0,1-.356-.972,2.479,2.479,0,0,1,.241-1.043,5.477,5.477,0,0,1,.58-.943c.211-.293.452-.632.674-.883a3.4,3.4,0,0,1,1.449-1.087,3.977,3.977,0,0,1,.482-.075,2.29,2.29,0,0,0,.7-.249,1.932,1.932,0,0,0,.589-.75c.094-.229.134-.506.208-.665,1.242-2.65,2.757-4.126,5.757-4.116.267,0,.549.149.817.164.021-.269,0-.684.025-.932a5.928,5.928,0,0,1,.543-2.282,4.424,4.424,0,0,1,1.508-1.684,3.8,3.8,0,0,1,2.046-.649,4.088,4.088,0,0,1,2.208.574,4.013,4.013,0,0,0-2.2-1.244,3.7,3.7,0,0,0-2.493.283,5.385,5.385,0,0,0-2.071,1.917,7.483,7.483,0,0,0-.936,2.97c.284-.251.568-.51.845-.779a5.726,5.726,0,0,0-4.507,1.069,8.485,8.485,0,0,0-2.8,4.277c-.073.212-.054.354-.11.487s.012.067-.068.153-.142.078-.288.127-.35.072-.54.153a3.226,3.226,0,0,0-1.053.707,5.992,5.992,0,0,0-.756,1.024c-.22.359-.411.7-.6,1.079a6.449,6.449,0,0,0-.486,1.185,2.675,2.675,0,0,0-.046,1.274,1.43,1.43,0,0,0,.633.908" transform="translate(-39.137 -74.912)" fill="#f08f4a"/>
    <path id="Trazado_717740" data-name="Trazado 717740" d="M263.493,439.433a2.561,2.561,0,0,0-1.83-.259,3.765,3.765,0,0,0-1.779,1.006,4.879,4.879,0,0,0-1.082,1.97,5.052,5.052,0,0,0-.135,2.367c.326-.524.7-1.119,1.067-1.595a12.631,12.631,0,0,1,1.13-1.265c.409-.406.744-.8,1.186-1.182a16.605,16.605,0,0,1,1.442-1.043" transform="translate(-44.275 -75.181)" fill="#f08f4a"/>
    <path id="Trazado_717741" data-name="Trazado 717741" d="M275.967,499.281c0,.471-.763.852-1.7.852s-1.7-.381-1.7-.852.763-.852,1.7-.852,1.7.381,1.7.852" transform="translate(-46.667 -85.34)" fill="#c96f4f"/>
  </g>
</svg>
