<svg id="Grupo_976184" data-name="Grupo 976184" xmlns="http://www.w3.org/2000/svg" xmlns:xlink="http://www.w3.org/1999/xlink" width="93.388" height="97.831" viewBox="0 0 93.388 97.831">
  <defs>
    <clipPath id="clip-path">
      <rect id="Rectángulo_341156" data-name="Rectángulo 341156" width="93.388" height="97.831" fill="none"/>
    </clipPath>
    <clipPath id="clip-path-2">
      <path id="Trazado_709815" data-name="Trazado 709815" d="M355.417,73.588v83.8a3.055,3.055,0,0,0,3.151,3.192l58.418-3.41a3.18,3.18,0,0,0,2.742-3.3V75.957a3.112,3.112,0,0,0-2.742-3.25l-58.418-2.367-.12,0a3.129,3.129,0,0,0-3.031,3.251" transform="translate(-355.417 -70.337)" fill="none"/>
    </clipPath>
    <linearGradient id="linear-gradient" x1="0.078" y1="0.954" x2="0.079" y2="0.954" gradientUnits="objectBoundingBox">
      <stop offset="0" stop-color="#26264f"/>
      <stop offset="0.004" stop-color="#26264f"/>
      <stop offset="1" stop-color="#444b8c"/>
    </linearGradient>
    <clipPath id="clip-path-3">
      <path id="Trazado_709816" data-name="Trazado 709816" d="M400.511,73.588v83.8a3.055,3.055,0,0,0,3.151,3.192l58.418-3.41a3.18,3.18,0,0,0,2.742-3.3V75.957a3.112,3.112,0,0,0-2.742-3.25l-58.418-2.367-.12,0a3.129,3.129,0,0,0-3.031,3.251" transform="translate(-400.511 -70.337)" fill="none"/>
    </clipPath>
    <linearGradient id="linear-gradient-2" x1="-0.209" y1="1.043" x2="-0.209" y2="1.043" gradientUnits="objectBoundingBox">
      <stop offset="0" stop-color="#444b8c"/>
      <stop offset="0.996" stop-color="#26264f"/>
      <stop offset="1" stop-color="#26264f"/>
    </linearGradient>
    <clipPath id="clip-path-4">
      <path id="Trazado_709817" data-name="Trazado 709817" d="M439.151,113.288v83.666a1.631,1.631,0,0,0,1.682,1.706l46.2-2.617,12.216-.692a1.7,1.7,0,0,0,1.468-1.764V115.556a1.661,1.661,0,0,0-1.468-1.737l-12.657-.491-45.761-1.776h-.062a1.67,1.67,0,0,0-1.62,1.738" transform="translate(-439.151 -111.55)" fill="none"/>
    </clipPath>
    <linearGradient id="linear-gradient-3" x1="0.054" y1="0.986" x2="0.054" y2="0.986" xlink:href="#linear-gradient-2"/>
    <clipPath id="clip-path-6">
      <path id="Trazado_709819" data-name="Trazado 709819" d="M1102.249,2254.487l-11.88.625a1.176,1.176,0,0,0-1.151,1.107v.043a1.033,1.033,0,0,0,1.151.984l11.88-.653a1.151,1.151,0,0,0,1.117-1.092v-.042a1,1,0,0,0-1.053-.973l-.065,0" transform="translate(-1089.218 -2254.485)" fill="none"/>
    </clipPath>
    <linearGradient id="linear-gradient-4" x1="-10.011" y1="1.242" x2="-10.003" y2="1.242" xlink:href="#linear-gradient-2"/>
    <clipPath id="clip-path-7">
      <path id="Trazado_709820" data-name="Trazado 709820" d="M1260.686,128.236a.613.613,0,0,0,.609.581.558.558,0,0,0,.608-.534.613.613,0,0,0-.608-.581h-.027a.555.555,0,0,0-.582.534" transform="translate(-1260.686 -127.702)" fill="none"/>
    </clipPath>
    <linearGradient id="linear-gradient-5" x1="-28.766" y1="56.398" x2="-28.743" y2="56.398" gradientUnits="objectBoundingBox">
      <stop offset="0" stop-color="#ff9085"/>
      <stop offset="1" stop-color="#fb6fbb"/>
    </linearGradient>
    <clipPath id="clip-path-9">
      <rect id="Rectángulo_341123" data-name="Rectángulo 341123" width="56.378" height="90.249" fill="none"/>
    </clipPath>
    <clipPath id="clip-path-10">
      <path id="Trazado_709822" data-name="Trazado 709822" d="M544.6,195.224l52.569-3.877V117.059l-52.287-1.249Z" transform="translate(-544.603 -115.81)" fill="#05afaf"/>
    </clipPath>
    <clipPath id="clip-path-12">
      <rect id="Rectángulo_341126" data-name="Rectángulo 341126" width="38.18" height="79.414" fill="#06d1d1"/>
    </clipPath>
    <clipPath id="clip-path-13">
      <path id="Trazado_709831" data-name="Trazado 709831" d="M593.457.005l-.268,79.414,31.551-2.327,20.989-1.549V1.254L612.946.471Z" transform="translate(-593.189 -0.005)" fill="#06d1d1"/>
    </clipPath>
    <clipPath id="clip-path-15">
      <rect id="Rectángulo_341129" data-name="Rectángulo 341129" width="38.18" height="79.414" fill="none"/>
    </clipPath>
    <clipPath id="clip-path-16">
      <rect id="Rectángulo_341131" data-name="Rectángulo 341131" width="23.815" height="6.864" fill="none"/>
    </clipPath>
    <clipPath id="clip-path-17">
      <path id="Trazado_709833" data-name="Trazado 709833" d="M710.384,119.218l-23.8-.247.021-6.617,23.794.441Z" transform="translate(-686.579 -112.354)" fill="none"/>
    </clipPath>
    <linearGradient id="linear-gradient-6" x1="-1.097" y1="13.63" x2="-1.095" y2="13.63" xlink:href="#linear-gradient-5"/>
    <clipPath id="clip-path-18">
      <rect id="Rectángulo_341133" data-name="Rectángulo 341133" width="7.658" height="8.346" fill="none"/>
    </clipPath>
    <clipPath id="clip-path-19">
      <path id="Trazado_709834" data-name="Trazado 709834" d="M870.1,538.929l-7.64.082.023-8.346h7.636Z" transform="translate(-862.462 -530.665)" fill="none"/>
    </clipPath>
    <linearGradient id="linear-gradient-7" x1="-4.283" y1="9.304" x2="-4.278" y2="9.304" xlink:href="#linear-gradient-5"/>
    <clipPath id="clip-path-20">
      <rect id="Rectángulo_341134" data-name="Rectángulo 341134" width="26.869" height="4.143" fill="none"/>
    </clipPath>
    <clipPath id="clip-path-21">
      <rect id="Rectángulo_341136" data-name="Rectángulo 341136" width="7.667" height="8.531" fill="none"/>
    </clipPath>
    <clipPath id="clip-path-22">
      <path id="Trazado_709836" data-name="Trazado 709836" d="M868.9,976.981l-7.649.25.023-8.364,7.644-.167Z" transform="translate(-861.255 -968.7)" fill="none"/>
    </clipPath>
    <linearGradient id="linear-gradient-8" x1="-4.273" y1="7.149" x2="-4.268" y2="7.149" xlink:href="#linear-gradient-5"/>
    <clipPath id="clip-path-23">
      <rect id="Rectángulo_341137" data-name="Rectángulo 341137" width="26.898" height="4.718" fill="none"/>
    </clipPath>
    <clipPath id="clip-path-24">
      <rect id="Rectángulo_341139" data-name="Rectángulo 341139" width="7.676" height="8.717" fill="none"/>
    </clipPath>
    <clipPath id="clip-path-25">
      <path id="Trazado_709838" data-name="Trazado 709838" d="M867.7,1415.951l-7.657.418.023-8.382,7.653-.335Z" transform="translate(-860.045 -1407.652)" fill="none"/>
    </clipPath>
    <linearGradient id="linear-gradient-9" x1="-4.262" y1="5.081" x2="-4.257" y2="5.081" xlink:href="#linear-gradient-5"/>
    <clipPath id="clip-path-26">
      <rect id="Rectángulo_341140" data-name="Rectángulo 341140" width="26.927" height="5.294" fill="none"/>
    </clipPath>
    <clipPath id="clip-path-27">
      <path id="Trazado_709840" data-name="Trazado 709840" d="M100.21,1625.641l.05.055c-.041-.026-.061-.045-.05-.055m6.216-1.664c-4.718-2.4-6.44-8.478-3.846-13.587s8.521-7.308,13.239-4.912,6.44,8.478,3.846,13.587a10.464,10.464,0,0,1-9.174,5.881,8.937,8.937,0,0,1-4.064-.969m1.706-24.257c0,.081.008.16.016.239a15.106,15.106,0,0,0-2.185.811c-.034-.069-.069-.138-.109-.2a2.532,2.532,0,0,0-3.687-.7,2.989,2.989,0,0,0-.906,3.917c.039.065.082.126.126.187a16.473,16.473,0,0,0-1.574,1.826c-.063-.039-.127-.078-.194-.112a2.866,2.866,0,0,0-2.587,5.095c.067.034.136.063.2.09a16.471,16.471,0,0,0-.545,2.348c-.075,0-.149,0-.225.008a2.99,2.99,0,0,0-2.628,3.043,2.532,2.532,0,0,0,2.741,2.564c.077-.007.154-.019.229-.033a15.11,15.11,0,0,0,.635,2.242c-.068.04-.136.081-.2.128a2.99,2.99,0,0,0-.906,3.917,3.768,3.768,0,0,0,4.391,1.095,13.464,13.464,0,0,0,1.128,1c-.042.069-.083.138-.12.211a2.647,2.647,0,1,0,4.706,2.389c.037-.073.069-.147.1-.221a13.4,13.4,0,0,0,2.21.422c0,.078-.008.156-.007.236a2.532,2.532,0,0,0,2.741,2.564,2.99,2.99,0,0,0,2.628-3.043c0-.081-.008-.16-.016-.239a15.1,15.1,0,0,0,2.185-.811c.034.069.069.138.109.2a2.532,2.532,0,0,0,3.687.7,2.99,2.99,0,0,0,.906-3.917c-.039-.065-.082-.126-.126-.187a16.5,16.5,0,0,0,1.574-1.826c.063.039.127.078.194.112a2.866,2.866,0,0,0,2.587-5.1c-.067-.034-.136-.063-.2-.09a16.485,16.485,0,0,0,.546-2.348c.074,0,.149,0,.225-.008a2.99,2.99,0,0,0,2.628-3.043,2.532,2.532,0,0,0-2.741-2.564c-.078.007-.154.019-.229.033a15.1,15.1,0,0,0-.635-2.242c.068-.04.136-.081.2-.128a2.989,2.989,0,0,0,.906-3.917,2.532,2.532,0,0,0-3.687-.7c-.065.046-.126.095-.187.145a13.4,13.4,0,0,0-1.645-1.535c.042-.068.083-.138.12-.211.714-1.407,1.648-2.944.338-3.583-3.029-1.479-4.329-.213-5.044,1.194-.037.073-.069.147-.1.221a13.4,13.4,0,0,0-2.21-.422c0-.078.008-.156.007-.236-.031-1.548.428-2.386-1.06-2.415l-.208,0c-3.084,0-4.131,1.381-4.1,2.9" transform="translate(-93.839 -1596.824)" fill="none"/>
    </clipPath>
    <linearGradient id="linear-gradient-10" x1="-0.02" y1="0.991" x2="-0.019" y2="0.991" xlink:href="#linear-gradient-2"/>
    <clipPath id="clip-path-28">
      <path id="Trazado_709841" data-name="Trazado 709841" d="M466.848,1679.971c3.764,2.758,4.962,8.193,2.609,12.827a10.388,10.388,0,0,1-9.826,5.855c-.173.448-.342.9-.527,1.341-.5,1.2-1.071,2.381-1.642,3.558q.538.1,1.081.159c0,.078-.008.157-.007.236.031,1.548.971,2.864,3.658,2.721,1.486-.079,1.742-1.651,1.711-3.2,0-.081-.008-.16-.016-.239a15.092,15.092,0,0,0,2.185-.811c.034.069.069.138.109.2a3.865,3.865,0,0,0,4.7.928c1.268-.889.66-2.871-.108-4.146-.039-.065-.082-.126-.126-.187a16.5,16.5,0,0,0,1.574-1.826c.063.039.127.078.194.112a2.866,2.866,0,0,0,2.587-5.1c-.067-.034-.136-.063-.2-.09a16.487,16.487,0,0,0,.545-2.348c.075,0,.149,0,.225-.008a2.99,2.99,0,0,0,2.628-3.043,2.532,2.532,0,0,0-2.74-2.564c-.078.007-.154.019-.229.033a15.111,15.111,0,0,0-.635-2.242c.068-.04.136-.081.2-.128,1.268-.889,2.837-3.036,1.943-4.225-1.7-2.257-3.456-1.28-4.724-.392-.065.046-.126.095-.187.145a13.394,13.394,0,0,0-1.645-1.535c.042-.068.083-.138.12-.211a2.951,2.951,0,0,0,.166-2.328q-1.838,3.235-3.621,6.5" transform="translate(-457.463 -1673.472)" fill="none"/>
    </clipPath>
    <linearGradient id="linear-gradient-11" x1="-0.279" y1="1.208" x2="-0.278" y2="1.208" xlink:href="#linear-gradient-2"/>
    <clipPath id="clip-path-29">
      <path id="Trazado_709842" data-name="Trazado 709842" d="M143.17,1624.175c-4.718-2.4-6.44-8.478-3.846-13.587s8.521-7.308,13.239-4.913,6.44,8.478,3.846,13.587a10.463,10.463,0,0,1-9.174,5.881,8.936,8.936,0,0,1-4.064-.969m4.334-27.3a2.99,2.99,0,0,0-2.628,3.043c0,.081.008.16.016.239a15.093,15.093,0,0,0-2.185.811c-.034-.069-.069-.138-.109-.2a2.532,2.532,0,0,0-3.687-.7,2.989,2.989,0,0,0-.906,3.917c.039.065.082.126.126.187a16.458,16.458,0,0,0-1.574,1.826c-.063-.04-.127-.078-.194-.112a2.866,2.866,0,0,0-2.587,5.1c.067.034.136.063.205.09a16.477,16.477,0,0,0-.546,2.348c-.074,0-.149,0-.225.008a2.99,2.99,0,0,0-2.628,3.043,2.532,2.532,0,0,0,2.74,2.564c.077-.007.154-.019.229-.033a15.113,15.113,0,0,0,.635,2.242c-.068.04-.136.081-.2.128a2.989,2.989,0,0,0-.906,3.917,2.532,2.532,0,0,0,3.687.7c.065-.046.126-.095.187-.145a13.4,13.4,0,0,0,1.645,1.535c-.042.068-.083.138-.12.211a2.647,2.647,0,1,0,4.706,2.389c.037-.073.069-.147.1-.221a13.4,13.4,0,0,0,2.21.422c0,.078-.008.157-.007.236a2.532,2.532,0,0,0,2.74,2.564,2.989,2.989,0,0,0,2.628-3.043c0-.081-.008-.16-.016-.239a15.1,15.1,0,0,0,2.185-.811c.034.069.069.138.109.2a2.532,2.532,0,0,0,3.687.7,2.99,2.99,0,0,0,.906-3.917c-.039-.065-.083-.126-.126-.187a16.487,16.487,0,0,0,1.574-1.826c.063.039.127.078.194.112a2.866,2.866,0,0,0,2.587-5.1c-.067-.034-.136-.063-.2-.09a16.479,16.479,0,0,0,.545-2.348c.074,0,.149,0,.225-.008a2.989,2.989,0,0,0,2.628-3.043,2.532,2.532,0,0,0-2.74-2.564c-.078.007-.154.019-.229.033a15.109,15.109,0,0,0-.635-2.242c.068-.04.136-.081.2-.128a2.99,2.99,0,0,0,.906-3.917,2.532,2.532,0,0,0-3.687-.7c-.065.045-.126.094-.187.145a13.386,13.386,0,0,0-1.645-1.535c.042-.069.083-.138.12-.211a2.647,2.647,0,1,0-4.706-2.389c-.037.073-.069.147-.1.221a13.4,13.4,0,0,0-2.21-.422c0-.078.008-.156.007-.236a2.538,2.538,0,0,0-2.509-2.575q-.115,0-.232.01" transform="translate(-130.583 -1596.865)" fill="none"/>
    </clipPath>
    <clipPath id="clip-path-30">
      <path id="Trazado_709843" data-name="Trazado 709843" d="M3.993,991.946l.031.034c-.025-.016-.038-.028-.031-.034m3.9-1.043a6.268,6.268,0,0,1-2.411-8.516,6.268,6.268,0,0,1,8.3-3.079,6.268,6.268,0,0,1,2.411,8.516,6.558,6.558,0,0,1-5.75,3.686,5.6,5.6,0,0,1-2.547-.607m1.069-15.2c0,.051.005.1.01.15a9.467,9.467,0,0,0-1.369.508c-.021-.043-.043-.086-.068-.128a1.587,1.587,0,0,0-2.311-.438,1.874,1.874,0,0,0-.568,2.455c.025.041.052.079.079.117a10.32,10.32,0,0,0-.986,1.145c-.039-.025-.079-.049-.122-.07a1.726,1.726,0,0,0-2.285.848A1.726,1.726,0,0,0,2,982.63c.042.021.085.039.128.057a10.326,10.326,0,0,0-.342,1.472c-.047,0-.094,0-.141.005A1.874,1.874,0,0,0,0,986.071a1.587,1.587,0,0,0,1.718,1.607c.049,0,.1-.012.144-.02a9.472,9.472,0,0,0,.4,1.405c-.043.025-.085.051-.127.08a1.874,1.874,0,0,0-.568,2.455,2.361,2.361,0,0,0,2.752.686,8.46,8.46,0,0,0,.707.624c-.026.043-.052.086-.075.132a1.726,1.726,0,0,0,.664,2.345,1.726,1.726,0,0,0,2.285-.848c.023-.046.043-.092.062-.139a8.4,8.4,0,0,0,1.385.264c0,.049-.005.1,0,.148a1.587,1.587,0,0,0,1.718,1.607,1.874,1.874,0,0,0,1.647-1.907c0-.051-.005-.1-.01-.15a9.45,9.45,0,0,0,1.369-.508c.021.043.043.086.068.128a1.587,1.587,0,0,0,2.311.438,1.874,1.874,0,0,0,.568-2.455c-.025-.041-.052-.079-.079-.117a10.324,10.324,0,0,0,.986-1.145c.039.025.079.049.122.07a1.8,1.8,0,0,0,1.621-3.193c-.042-.021-.085-.039-.128-.057a10.32,10.32,0,0,0,.342-1.472c.047,0,.094,0,.141-.005a1.874,1.874,0,0,0,1.647-1.907,1.587,1.587,0,0,0-1.718-1.607c-.049,0-.1.012-.144.021a9.468,9.468,0,0,0-.4-1.405c.043-.025.085-.051.127-.08a1.874,1.874,0,0,0,.568-2.455,1.587,1.587,0,0,0-2.311-.438c-.041.029-.079.059-.117.091a8.4,8.4,0,0,0-1.031-.962c.026-.043.052-.086.075-.132.448-.882,1.033-1.845.212-2.246-1.9-.927-2.714-.133-3.161.748-.023.046-.043.092-.062.139a8.385,8.385,0,0,0-1.385-.264c0-.049.005-.1,0-.148-.02-.97.268-1.5-.664-1.514h-.13c-1.933,0-2.59.866-2.57,1.815" transform="translate(0 -973.884)" fill="none"/>
    </clipPath>
    <linearGradient id="linear-gradient-12" x1="0.069" y1="2.533" x2="0.071" y2="2.533" xlink:href="#linear-gradient-2"/>
    <clipPath id="clip-path-31">
      <path id="Trazado_709844" data-name="Trazado 709844" d="M233.789,1026a6.364,6.364,0,0,1,1.635,8.039,6.511,6.511,0,0,1-6.159,3.67c-.108.281-.214.563-.33.841-.314.754-.672,1.493-1.029,2.23q.337.064.677.1c0,.049-.005.1,0,.148.019.97.609,1.8,2.293,1.706.932-.049,1.092-1.035,1.072-2.006,0-.051-.005-.1-.01-.15a9.463,9.463,0,0,0,1.369-.508c.021.043.043.086.068.128a2.422,2.422,0,0,0,2.947.582c.8-.557.414-1.8-.068-2.6-.025-.041-.052-.079-.079-.117a10.333,10.333,0,0,0,.986-1.144c.039.025.079.049.122.07a1.8,1.8,0,0,0,1.621-3.193c-.042-.021-.085-.039-.128-.057a10.32,10.32,0,0,0,.342-1.472c.047,0,.094,0,.141-.005a1.874,1.874,0,0,0,1.647-1.907,1.587,1.587,0,0,0-1.718-1.607c-.049,0-.1.012-.144.021a9.473,9.473,0,0,0-.4-1.405c.043-.025.085-.051.127-.08.795-.557,1.778-1.9,1.218-2.648-1.064-1.415-2.166-.8-2.961-.245-.041.029-.079.059-.117.091a8.4,8.4,0,0,0-1.031-.962c.026-.043.052-.087.075-.132a1.85,1.85,0,0,0,.1-1.459q-1.152,2.027-2.269,4.073" transform="translate(-227.907 -1021.924)" fill="none"/>
    </clipPath>
    <linearGradient id="linear-gradient-13" x1="-0.179" y1="3.629" x2="-0.177" y2="3.629" xlink:href="#linear-gradient-2"/>
    <clipPath id="clip-path-32">
      <path id="Trazado_709845" data-name="Trazado 709845" d="M30.919,991.026a6.522,6.522,0,1,1,8.3-3.079,6.558,6.558,0,0,1-5.75,3.686,5.6,5.6,0,0,1-2.547-.607m2.717-17.111a1.874,1.874,0,0,0-1.647,1.907c0,.051.005.1.01.15a9.465,9.465,0,0,0-1.369.508c-.021-.043-.043-.086-.068-.128a1.587,1.587,0,0,0-2.311-.438,1.874,1.874,0,0,0-.568,2.455c.025.041.052.079.079.117a10.319,10.319,0,0,0-.986,1.144c-.039-.025-.079-.049-.122-.07a1.8,1.8,0,0,0-1.621,3.193c.042.021.085.039.128.057a10.324,10.324,0,0,0-.342,1.472c-.047,0-.094,0-.141.005a1.874,1.874,0,0,0-1.647,1.907,1.587,1.587,0,0,0,1.718,1.607c.049,0,.1-.012.144-.021a9.47,9.47,0,0,0,.4,1.406c-.043.025-.085.051-.127.08a1.874,1.874,0,0,0-.568,2.455,1.587,1.587,0,0,0,2.311.438c.041-.029.079-.059.117-.091a8.4,8.4,0,0,0,1.031.962c-.026.043-.052.086-.075.132a1.659,1.659,0,1,0,2.949,1.5c.023-.046.043-.092.062-.139a8.374,8.374,0,0,0,1.385.264c0,.049-.005.1,0,.148a1.587,1.587,0,0,0,1.718,1.607,1.874,1.874,0,0,0,1.647-1.907c0-.051-.005-.1-.01-.15a9.464,9.464,0,0,0,1.369-.508c.021.043.043.086.068.128a1.587,1.587,0,0,0,2.311.438,1.874,1.874,0,0,0,.568-2.455c-.025-.041-.052-.079-.079-.117a10.33,10.33,0,0,0,.986-1.144c.039.025.079.049.122.07a1.8,1.8,0,0,0,1.621-3.193c-.042-.021-.085-.039-.128-.057a10.333,10.333,0,0,0,.342-1.472c.047,0,.094,0,.141-.005a1.874,1.874,0,0,0,1.647-1.907,1.587,1.587,0,0,0-1.718-1.607c-.049,0-.1.012-.144.02a9.473,9.473,0,0,0-.4-1.405c.043-.025.085-.051.127-.08a1.874,1.874,0,0,0,.568-2.455,1.587,1.587,0,0,0-2.311-.438c-.041.029-.079.059-.117.091a8.388,8.388,0,0,0-1.031-.962c.026-.043.052-.087.075-.132a1.659,1.659,0,1,0-2.949-1.5c-.023.046-.043.092-.062.138a8.41,8.41,0,0,0-1.385-.264c0-.049.005-.1,0-.148a1.591,1.591,0,0,0-1.573-1.614q-.072,0-.145.006" transform="translate(-23.03 -973.909)" fill="#ffe8ce"/>
    </clipPath>
    <clipPath id="clip-path-33">
      <path id="Trazado_709846" data-name="Trazado 709846" d="M1592.5,1427.2l29.439-1.906a1.171,1.171,0,0,0,1.187-1.07v-37.368a1.18,1.18,0,0,0-1.24-1.072l-29.386-.453Z" transform="translate(-1592.499 -1385.326)" fill="#ffc403"/>
    </clipPath>
    <clipPath id="clip-path-35">
      <rect id="Rectángulo_341149" data-name="Rectángulo 341149" width="30.69" height="39.393" fill="none"/>
    </clipPath>
    <clipPath id="clip-path-36">
      <path id="Trazado_709848" data-name="Trazado 709848" d="M2366.694,1457.564v7.924h3.249a.119.119,0,0,0,.119-.119v-7.685a.119.119,0,0,0-.119-.119Z" transform="translate(-2366.694 -1457.564)" fill="#ffc403"/>
    </clipPath>
    <clipPath id="clip-path-37">
      <path id="Trazado_709849" data-name="Trazado 709849" d="M1569.473,1366.467l-23.732.677a1.351,1.351,0,0,0-1.412,1.228V1408a1.317,1.317,0,0,0,1.237,1.214l23.779,3.1a1.483,1.483,0,0,0,.16.009h0a1.161,1.161,0,0,0,1.242-1.048v-43.76a1.161,1.161,0,0,0-1.246-1.048h-.033" transform="translate(-1544.329 -1366.467)" fill="#ffc403"/>
    </clipPath>
    <clipPath id="clip-path-39">
      <rect id="Rectángulo_341154" data-name="Rectángulo 341154" width="19.557" height="44.645" fill="none"/>
    </clipPath>
    <clipPath id="clip-path-40">
      <path id="Trazado_709851" data-name="Trazado 709851" d="M1555.379,1412.507c-.343-4.628,3.066-5.732,2.491-11.132-.832-7.819-8.5-10.429-7.867-16.864a9.833,9.833,0,0,1,2.274-5.146l-6.537.187a1.351,1.351,0,0,0-1.412,1.228v39.629a1.317,1.317,0,0,0,1.237,1.214l18.32,2.388c-6.392-4.44-8.276-8.38-8.507-11.5" transform="translate(-1544.329 -1379.366)" fill="none"/>
    </clipPath>
    <linearGradient id="linear-gradient-14" x1="-1.013" y1="1.006" x2="-1.012" y2="1.006" xlink:href="#linear-gradient-5"/>
  </defs>
  <g id="Grupo_976183" data-name="Grupo 976183" clip-path="url(#clip-path)">
    <g id="Grupo_976094" data-name="Grupo 976094" transform="translate(13.519 2.675)">
      <g id="Grupo_976093" data-name="Grupo 976093" clip-path="url(#clip-path-2)">
        <rect id="Rectángulo_341117" data-name="Rectángulo 341117" width="108.339" height="110.123" transform="matrix(0.741, -0.672, 0.672, 0.741, -44.961, 40.801)" fill="url(#linear-gradient)"/>
      </g>
    </g>
    <g id="Grupo_976096" data-name="Grupo 976096" transform="translate(15.234 2.675)">
      <g id="Grupo_976095" data-name="Grupo 976095" clip-path="url(#clip-path-3)">
        <rect id="Rectángulo_341118" data-name="Rectángulo 341118" width="66.803" height="92.102" transform="matrix(1, -0.028, 0.028, 1, -2.515, 0.07)" fill="url(#linear-gradient-2)"/>
      </g>
    </g>
    <g id="Grupo_976098" data-name="Grupo 976098" transform="translate(16.703 4.243)">
      <g id="Grupo_976097" data-name="Grupo 976097" clip-path="url(#clip-path-4)">
        <rect id="Rectángulo_341119" data-name="Rectángulo 341119" width="106.447" height="102.846" transform="translate(-42.718 52.211) rotate(-50.711)" fill="url(#linear-gradient-3)"/>
      </g>
    </g>
    <g id="Grupo_976100" data-name="Grupo 976100" transform="translate(0 0)">
      <g id="Grupo_976099" data-name="Grupo 976099" clip-path="url(#clip-path)">
        <path id="Trazado_709818" data-name="Trazado 709818" d="M523.4,217.682a.662.662,0,0,1-.617.658l-58.507,2.992a.649.649,0,0,1-.705-.634v-79.7a.659.659,0,0,1,.705-.643l58.507,2.2a.651.651,0,0,1,.617.649Z" transform="translate(-445.942 -135.01)" fill="#d8dee8"/>
      </g>
    </g>
    <g id="Grupo_976102" data-name="Grupo 976102" transform="translate(41.429 85.751)">
      <g id="Grupo_976101" data-name="Grupo 976101" clip-path="url(#clip-path-6)">
        <rect id="Rectángulo_341121" data-name="Rectángulo 341121" width="4.614" height="14.392" transform="matrix(0.13, -0.991, 0.991, 0.13, -0.361, 2.749)" fill="url(#linear-gradient-4)"/>
      </g>
    </g>
    <g id="Grupo_976104" data-name="Grupo 976104" transform="translate(47.951 4.857)">
      <g id="Grupo_976103" data-name="Grupo 976103" clip-path="url(#clip-path-7)">
        <rect id="Rectángulo_341122" data-name="Rectángulo 341122" width="1.659" height="1.653" transform="matrix(0.741, -0.672, 0.672, 0.741, -0.561, 0.509)" fill="url(#linear-gradient-5)"/>
      </g>
    </g>
    <g id="Grupo_976109" data-name="Grupo 976109" transform="translate(0 0)">
      <g id="Grupo_976108" data-name="Grupo 976108" clip-path="url(#clip-path)">
        <g id="Grupo_976107" data-name="Grupo 976107" transform="translate(15.234 2.675)" opacity="0.3" style="mix-blend-mode: screen;isolation: isolate">
          <g id="Grupo_976106" data-name="Grupo 976106">
            <g id="Grupo_976105" data-name="Grupo 976105" clip-path="url(#clip-path-9)">
              <path id="Trazado_709821" data-name="Trazado 709821" d="M449.36,148.389c-.238-5.106,5.439-8.1,4.894-15.3a15.28,15.28,0,0,0-5.043-10c-4.029-3.393-7.415-2.116-14.872-4.823-5.226-1.9-11.1-4.029-13.478-8.308-4.719-8.5,8.766-16.983,6.006-27.982-.791-3.152-3.024-7.015-8.921-11.05l-14.284-.579a3.12,3.12,0,0,0-3.151,3.249v83.8a3.055,3.055,0,0,0,3.151,3.192l53.227-3.107c-5.669-3.277-7.4-6.426-7.529-9.087" transform="translate(-400.511 -70.338)" fill="#fff"/>
            </g>
          </g>
        </g>
      </g>
    </g>
    <g id="Grupo_976111" data-name="Grupo 976111" transform="translate(20.714 4.405)">
      <g id="Grupo_976110" data-name="Grupo 976110" clip-path="url(#clip-path-10)">
        <rect id="Rectángulo_341125" data-name="Rectángulo 341125" width="86.629" height="64.29" transform="translate(-12.211 77.49) rotate(-81.045)" fill="#05afaf"/>
      </g>
    </g>
    <g id="Grupo_976116" data-name="Grupo 976116" transform="translate(0 0)">
      <g id="Grupo_976115" data-name="Grupo 976115" clip-path="url(#clip-path)">
        <path id="Trazado_709823" data-name="Trazado 709823" d="M661.05,235.025l-23.8-.247.021-6.617,23.794.441Z" transform="translate(-613.007 -219.483)" fill="#fff"/>
        <path id="Trazado_709824" data-name="Trazado 709824" d="M806.673,640.261l-7.64.082.023-8.346h7.636Z" transform="translate(-768.642 -607.959)" fill="#fff"/>
        <path id="Trazado_709825" data-name="Trazado 709825" d="M1091.141,635.086l-26.867.163.009-4.12,26.86-.023Z" transform="translate(-1023.793 -607.102)" fill="#fff"/>
        <path id="Trazado_709826" data-name="Trazado 709826" d="M805.474,1078.313l-7.649.25.023-8.364,7.644-.166Z" transform="translate(-767.48 -1029.333)" fill="#fff"/>
        <path id="Trazado_709827" data-name="Trazado 709827" d="M1090.261,1057.1l-26.9.73.009-4.129,26.889-.589Z" transform="translate(-1022.919 -1013.059)" fill="#fff"/>
        <path id="Trazado_709828" data-name="Trazado 709828" d="M804.274,1517.282l-7.657.418.023-8.382,7.653-.335Z" transform="translate(-766.316 -1451.589)" fill="#fff"/>
        <path id="Trazado_709829" data-name="Trazado 709829" d="M1089.381,1479.994l-26.926,1.3.009-4.137,26.918-1.157Z" transform="translate(-1022.044 -1419.857)" fill="#fff"/>
        <g id="Grupo_976114" data-name="Grupo 976114" transform="translate(20.743 4.27)" opacity="0.3" style="mix-blend-mode: soft-light;isolation: isolate">
          <g id="Grupo_976113" data-name="Grupo 976113">
            <g id="Grupo_976112" data-name="Grupo 976112" clip-path="url(#clip-path-12)">
              <path id="Trazado_709830" data-name="Trazado 709830" d="M576.916,189.357l-31.551,2.327.268-79.414,19.49.466c-3.811,6.555-8.461,19.648,4.837,31.919,13.515,12.471,18.933,31.537,6.956,44.7" transform="translate(-545.365 -112.27)" fill="#06d1d1"/>
            </g>
          </g>
        </g>
      </g>
    </g>
    <g id="Grupo_976118" data-name="Grupo 976118" transform="translate(22.562 0)">
      <g id="Grupo_976117" data-name="Grupo 976117" clip-path="url(#clip-path-13)">
        <rect id="Rectángulo_341128" data-name="Rectángulo 341128" width="94.234" height="81.381" transform="translate(-30.624 64.982) rotate(-64.767)" fill="#06d1d1"/>
      </g>
    </g>
    <g id="Grupo_976152" data-name="Grupo 976152" transform="translate(0 0)">
      <g id="Grupo_976151" data-name="Grupo 976151" clip-path="url(#clip-path)">
        <g id="Grupo_976121" data-name="Grupo 976121" transform="translate(22.562 0)" opacity="0.5" style="mix-blend-mode: soft-light;isolation: isolate">
          <g id="Grupo_976120" data-name="Grupo 976120">
            <g id="Grupo_976119" data-name="Grupo 976119" clip-path="url(#clip-path-15)">
              <path id="Trazado_709832" data-name="Trazado 709832" d="M624.74,77.093,593.189,79.42,593.457.006l19.49.466c-3.811,6.555-8.461,19.648,4.837,31.919,13.515,12.471,18.933,31.537,6.956,44.7" transform="translate(-593.189 -0.006)" fill="#fff"/>
            </g>
          </g>
        </g>
        <g id="Grupo_976126" data-name="Grupo 976126" transform="translate(26.115 4.273)" opacity="0.6" style="mix-blend-mode: multiply;isolation: isolate">
          <g id="Grupo_976125" data-name="Grupo 976125">
            <g id="Grupo_976124" data-name="Grupo 976124" clip-path="url(#clip-path-16)">
              <g id="Grupo_976123" data-name="Grupo 976123" transform="translate(0 0)">
                <g id="Grupo_976122" data-name="Grupo 976122" clip-path="url(#clip-path-17)">
                  <rect id="Rectángulo_341130" data-name="Rectángulo 341130" width="23.815" height="6.864" fill="url(#linear-gradient-6)"/>
                </g>
              </g>
            </g>
          </g>
        </g>
        <g id="Grupo_976131" data-name="Grupo 976131" transform="translate(32.804 20.184)" opacity="0.6" style="mix-blend-mode: multiply;isolation: isolate">
          <g id="Grupo_976130" data-name="Grupo 976130">
            <g id="Grupo_976129" data-name="Grupo 976129" clip-path="url(#clip-path-18)">
              <g id="Grupo_976128" data-name="Grupo 976128" transform="translate(0 0)">
                <g id="Grupo_976127" data-name="Grupo 976127" clip-path="url(#clip-path-19)">
                  <rect id="Rectángulo_341132" data-name="Rectángulo 341132" width="7.658" height="8.346" transform="translate(0)" fill="url(#linear-gradient-7)"/>
                </g>
              </g>
            </g>
          </g>
        </g>
        <g id="Grupo_976134" data-name="Grupo 976134" transform="translate(42.893 20.15)" opacity="0.5">
          <g id="Grupo_976133" data-name="Grupo 976133">
            <g id="Grupo_976132" data-name="Grupo 976132" clip-path="url(#clip-path-20)">
              <path id="Trazado_709835" data-name="Trazado 709835" d="M1154.57,533.754l-26.867.163.009-4.12,26.86-.023Z" transform="translate(-1127.702 -529.775)" fill="#fff"/>
            </g>
          </g>
        </g>
        <g id="Grupo_976139" data-name="Grupo 976139" transform="translate(32.758 36.845)" opacity="0.6" style="mix-blend-mode: multiply;isolation: isolate">
          <g id="Grupo_976138" data-name="Grupo 976138">
            <g id="Grupo_976137" data-name="Grupo 976137" clip-path="url(#clip-path-21)">
              <g id="Grupo_976136" data-name="Grupo 976136">
                <g id="Grupo_976135" data-name="Grupo 976135" clip-path="url(#clip-path-22)">
                  <rect id="Rectángulo_341135" data-name="Rectángulo 341135" width="7.667" height="8.531" fill="url(#linear-gradient-8)"/>
                </g>
              </g>
            </g>
          </g>
        </g>
        <g id="Grupo_976142" data-name="Grupo 976142" transform="translate(42.858 36.201)" opacity="0.5">
          <g id="Grupo_976141" data-name="Grupo 976141">
            <g id="Grupo_976140" data-name="Grupo 976140" clip-path="url(#clip-path-23)">
              <path id="Trazado_709837" data-name="Trazado 709837" d="M1153.69,955.771l-26.9.73.009-4.129,26.889-.589Z" transform="translate(-1126.794 -951.783)" fill="#fff"/>
            </g>
          </g>
        </g>
        <g id="Grupo_976147" data-name="Grupo 976147" transform="translate(32.712 53.541)" opacity="0.6" style="mix-blend-mode: multiply;isolation: isolate">
          <g id="Grupo_976146" data-name="Grupo 976146">
            <g id="Grupo_976145" data-name="Grupo 976145" clip-path="url(#clip-path-24)">
              <g id="Grupo_976144" data-name="Grupo 976144" transform="translate(0 0)">
                <g id="Grupo_976143" data-name="Grupo 976143" clip-path="url(#clip-path-25)">
                  <rect id="Rectángulo_341138" data-name="Rectángulo 341138" width="7.676" height="8.717" transform="translate(0 0)" fill="url(#linear-gradient-9)"/>
                </g>
              </g>
            </g>
          </g>
        </g>
        <g id="Grupo_976150" data-name="Grupo 976150" transform="translate(42.824 52.286)" opacity="0.5">
          <g id="Grupo_976149" data-name="Grupo 976149">
            <g id="Grupo_976148" data-name="Grupo 976148" clip-path="url(#clip-path-26)">
              <path id="Trazado_709839" data-name="Trazado 709839" d="M1152.81,1378.662l-26.926,1.3.009-4.137,26.918-1.157Z" transform="translate(-1125.884 -1374.666)" fill="#fff"/>
            </g>
          </g>
        </g>
      </g>
    </g>
    <g id="Grupo_976154" data-name="Grupo 976154" transform="translate(3.569 60.736)">
      <g id="Grupo_976153" data-name="Grupo 976153" clip-path="url(#clip-path-27)">
        <rect id="Rectángulo_341142" data-name="Rectángulo 341142" width="40.102" height="38.836" transform="translate(-4.472 35.531) rotate(-82.875)" fill="url(#linear-gradient-10)"/>
      </g>
    </g>
    <g id="Grupo_976156" data-name="Grupo 976156" transform="translate(17.4 63.652)">
      <g id="Grupo_976155" data-name="Grupo 976155" clip-path="url(#clip-path-28)">
        <rect id="Rectángulo_341143" data-name="Rectángulo 341143" width="35.656" height="24.741" transform="translate(-4.103 32.825) rotate(-82.875)" fill="url(#linear-gradient-11)"/>
      </g>
    </g>
    <g id="Grupo_976158" data-name="Grupo 976158" transform="translate(4.967 60.738)">
      <g id="Grupo_976157" data-name="Grupo 976157" clip-path="url(#clip-path-29)">
        <rect id="Rectángulo_341144" data-name="Rectángulo 341144" width="49.636" height="49.903" transform="translate(-17.657 13.916) rotate(-38.29)" fill="#ffe8ce"/>
      </g>
    </g>
    <g id="Grupo_976160" data-name="Grupo 976160" transform="translate(0 37.042)">
      <g id="Grupo_976159" data-name="Grupo 976159" clip-path="url(#clip-path-30)">
        <rect id="Rectángulo_341145" data-name="Rectángulo 341145" width="25.135" height="24.341" transform="translate(-2.803 22.269) rotate(-82.875)" fill="url(#linear-gradient-12)"/>
      </g>
    </g>
    <g id="Grupo_976162" data-name="Grupo 976162" transform="translate(8.669 38.87)">
      <g id="Grupo_976161" data-name="Grupo 976161" clip-path="url(#clip-path-31)">
        <rect id="Rectángulo_341146" data-name="Rectángulo 341146" width="22.348" height="15.507" transform="translate(-2.572 20.574) rotate(-82.875)" fill="url(#linear-gradient-13)"/>
      </g>
    </g>
    <g id="Grupo_976164" data-name="Grupo 976164" transform="translate(0.876 37.043)">
      <g id="Grupo_976163" data-name="Grupo 976163" clip-path="url(#clip-path-32)">
        <rect id="Rectángulo_341147" data-name="Rectángulo 341147" width="31.11" height="31.278" transform="translate(-11.067 8.722) rotate(-38.29)" fill="#ffe8ce"/>
      </g>
    </g>
    <g id="Grupo_976166" data-name="Grupo 976166" transform="translate(60.572 52.692)">
      <g id="Grupo_976165" data-name="Grupo 976165" clip-path="url(#clip-path-33)">
        <rect id="Rectángulo_341148" data-name="Rectángulo 341148" width="50.929" height="51.523" transform="matrix(0.733, -0.68, 0.68, 0.733, -20.876, 19.373)" fill="#ffc403"/>
      </g>
    </g>
    <g id="Grupo_976171" data-name="Grupo 976171" transform="translate(0 0)">
      <g id="Grupo_976170" data-name="Grupo 976170" clip-path="url(#clip-path)">
        <g id="Grupo_976169" data-name="Grupo 976169" transform="translate(59.076 53.93)" opacity="0.67">
          <g id="Grupo_976168" data-name="Grupo 976168">
            <g id="Grupo_976167" data-name="Grupo 976167" clip-path="url(#clip-path-35)">
              <path id="Trazado_709847" data-name="Trazado 709847" d="M1553.185,1417.877v39.393l29.573-1.807a1.1,1.1,0,0,0,1.117-1.007V1419.3a1.111,1.111,0,0,0-1.167-1.009Z" transform="translate(-1553.185 -1417.877)" fill="#f4f7fa"/>
            </g>
          </g>
        </g>
      </g>
    </g>
    <g id="Grupo_976173" data-name="Grupo 976173" transform="translate(90.019 55.44)">
      <g id="Grupo_976172" data-name="Grupo 976172" clip-path="url(#clip-path-36)">
        <rect id="Rectángulo_341151" data-name="Rectángulo 341151" width="7.859" height="8.1" transform="translate(-3.951 3.666) rotate(-42.861)" fill="#ffc403"/>
      </g>
    </g>
    <g id="Grupo_976175" data-name="Grupo 976175" transform="translate(58.74 51.975)">
      <g id="Grupo_976174" data-name="Grupo 976174" clip-path="url(#clip-path-37)">
        <rect id="Rectángulo_341152" data-name="Rectángulo 341152" width="51.022" height="51.195" transform="matrix(0.712, -0.703, 0.703, 0.712, -22.926, 22.64)" fill="#ffc403"/>
      </g>
    </g>
    <g id="Grupo_976182" data-name="Grupo 976182" transform="translate(0 0)">
      <g id="Grupo_976181" data-name="Grupo 976181" clip-path="url(#clip-path)">
        <path id="Trazado_709850" data-name="Trazado 709850" d="M1727.727,1575.122l9.19.329v17l2.194.219v.674l-11.24-1.153v-.645l2.009.2v-15.9l-2.154-.083Zm5.587-2.327a3.625,3.625,0,0,1-2.824-1.052,3.673,3.673,0,0,1-.83-2.437,3.283,3.283,0,0,1,.9-2.38,3.713,3.713,0,0,1,2.788-.942,4.315,4.315,0,0,1,2.906.87,3.129,3.129,0,0,1,1.009,2.494,3.414,3.414,0,0,1-.97,2.562,3.983,3.983,0,0,1-2.983.885" transform="translate(-1662.012 -1506.421)" fill="#fff"/>
        <g id="Grupo_976180" data-name="Grupo 976180" transform="translate(58.74 52.465)" opacity="0.3" style="mix-blend-mode: multiply;isolation: isolate">
          <g id="Grupo_976179" data-name="Grupo 976179">
            <g id="Grupo_976178" data-name="Grupo 976178" clip-path="url(#clip-path-39)">
              <g id="Grupo_976177" data-name="Grupo 976177" transform="translate(0 0)">
                <g id="Grupo_976176" data-name="Grupo 976176" clip-path="url(#clip-path-40)">
                  <rect id="Rectángulo_341153" data-name="Rectángulo 341153" width="45.286" height="45.509" transform="translate(-22.321 22.042) rotate(-44.64)" fill="url(#linear-gradient-14)"/>
                </g>
              </g>
            </g>
          </g>
        </g>
      </g>
    </g>
  </g>
</svg>
