<svg xmlns="http://www.w3.org/2000/svg" xmlns:xlink="http://www.w3.org/1999/xlink" width="152" height="158.081" viewBox="0 0 152 158.081">
  <defs>
    <clipPath id="clip-path">
      <rect id="Rectángulo_344725" data-name="Rectángulo 344725" width="126.311" height="158.081" fill="none"/>
    </clipPath>
    <clipPath id="clip-path-3">
      <rect id="Rectángulo_344722" data-name="Rectángulo 344722" width="12.28" height="2.995" fill="none"/>
    </clipPath>
    <clipPath id="clip-path-4">
      <rect id="Rectángulo_344723" data-name="Rectángulo 344723" width="17.382" height="9.608" fill="none"/>
    </clipPath>
  </defs>
  <g id="Grupo_983972" data-name="Grupo 983972" transform="translate(-377 -8082)">
    <circle id="Elipse_5880" data-name="Elipse 5880" cx="76" cy="76" r="76" transform="translate(377 8082)" fill="#ffc403"/>
    <g id="Grupo_983954" data-name="Grupo 983954" transform="translate(389.424 8082)">
      <g id="Grupo_983953" data-name="Grupo 983953" clip-path="url(#clip-path)">
        <g id="Grupo_983952" data-name="Grupo 983952">
          <g id="Grupo_983951" data-name="Grupo 983951" clip-path="url(#clip-path)">
            <path id="Trazado_720591" data-name="Trazado 720591" d="M150.957,316.878c-7.715,3.318-17.336,5.8-26.608,3.35-1.61-3.268-3.5-7.787-7.308-11.479-4.12-4-8.84-7.51-11.958-12.332-1.833-2.835-3.116-6.122-5.656-8.346-1.9-1.659-5.353-2.4-6.366.427a3.892,3.892,0,0,0-.168,1.812c.938,7.281,4.57,13.386,5.857,19.939-11.925-.461-29.124-11.33-39.354-15.537-1.493-.614-3.426-1.155-4.5.146a2.393,2.393,0,0,0-.4,2.2,6.107,6.107,0,0,0,2.9,3.161c5.273,3.474,10.268,6.954,15.79,10.016,2.179,1.208,6.738,3.84,6.625,3.945-10.116-3.266-18.552-9.932-28.345-14.14-1.71-.735-3.4-2.119-5.26-1.857s-4.133,1.613-3.437,3.331c1.282,3.164,10.495,8.565,14.2,11.156,5.626,3.938,14.069,7.615,16.917,9.6-4.522-.268-7.331-2.031-10.515-3.524C57.51,316,52.2,312.415,46.108,310.2c-1.869-.68-4.379-1.66-5.386.055-1.031,1.756.782,3.714,2.246,5.13,3.158,3.055,21.791,13.026,27.449,15.673-.058.341-7.718-1.242-13.565-4.454-2.345-1.288-8.941-5.822-11.9-5.217-1.847.377-1.1,3.508-.066,4.9,2.034,2.736,5.4,5.084,8.157,7.092,8.219,5.988,40.334,20.434,60.919,18.893,16.917-1.266,28.3-1.45,37.537-4.227,1.8-.541,3.757-.994,4.982-2.418a7.846,7.846,0,0,0,1.488-3.307c2.173-8.85-3.109-22.9-7.007-25.445" transform="translate(-32.161 -228.043)" fill="#f2b98f"/>
            <path id="Trazado_720592" data-name="Trazado 720592" d="M183.919,204.639a43.212,43.212,0,0,0,.212,6.96c.361,2.6,1.2,5.176.947,7.788-.169,1.757-.827,3.45-.875,5.214-.069,2.55,1.138,4.974,1.3,7.52.181,2.905-1.012,5.794-.655,8.683.285,2.3,1.533,4.388,1.978,6.667.327,1.674.211,3.4.416,5.1.53,4.392,3.195,8.287,6.458,11.275,1.175,1.076,2.608,2.115,4.2,1.985a4.314,4.314,0,0,0,3.523-3.528,10.8,10.8,0,0,0-.528-5.259,19.21,19.21,0,0,1-1.107-5.207c-.018-3.475,2.2-6.7,2.021-10.173a16.577,16.577,0,0,0-1.537-5.237,19.827,19.827,0,0,1-1.734-6.77c-.081-2.809.882-5.6.535-8.393s-1.972-5.276-2.481-8.041a30.908,30.908,0,0,1-.059-6.391,10.628,10.628,0,0,0-.311-3.257c-.37-1.266-1.126-2.4-1.429-3.685A15.614,15.614,0,0,1,194.9,195c.229-2.71-.581-5.166-3.488-5.767a5.819,5.819,0,0,0-5.181,1.205c-3.337,3.167-2.216,10.147-2.311,14.2" transform="translate(-146.256 -150.453)" fill="#a3d7dc"/>
            <path id="Trazado_720593" data-name="Trazado 720593" d="M195.027,193.788a18.963,18.963,0,0,0-1.749,7.232,20.532,20.532,0,0,0,1.731,6.461,18.169,18.169,0,0,1,.9,3.124,9.4,9.4,0,0,1-.083,3.407c-.442,2.28-1.36,4.518-1.2,6.879.155,2.24,1.148,4.272,1.837,6.376a10.615,10.615,0,0,1,.616,3.18,11.968,11.968,0,0,1-.563,3.329c-.609,2.181-1.3,4.354-.714,6.622.546,2.124,1.9,3.968,2.279,6.142.433,2.453-.653,4.855-1,7.248a7.524,7.524,0,0,0,.963,5.505,4.86,4.86,0,0,0,1,1,.514.514,0,0,0,.7-.183.523.523,0,0,0-.183-.7c-1.453-1.1-1.686-3.148-1.548-4.837.193-2.359,1.2-4.585,1.177-6.976-.023-2.285-1.2-4.188-2.005-6.254a7.67,7.67,0,0,1-.6-3.128,14.1,14.1,0,0,1,.651-3.246,23.3,23.3,0,0,0,.772-3.237,9.294,9.294,0,0,0-.155-3.283c-.472-2.129-1.513-4.082-2-6.207a8.736,8.736,0,0,1-.126-3.264c.173-1.15.5-2.268.782-3.394a14.938,14.938,0,0,0,.538-3.441,11.233,11.233,0,0,0-.493-3.229c-.6-2.082-1.593-4.04-2.051-6.166a12.618,12.618,0,0,1,.845-6.961c.208-.58.431-1.155.654-1.73a.514.514,0,0,0-.357-.628.523.523,0,0,0-.628.357" transform="translate(-153.785 -153.894)" fill="#fff"/>
            <path id="Trazado_720594" data-name="Trazado 720594" d="M221.235,258.658a16.844,16.844,0,0,1-1.773-6.447,17.014,17.014,0,0,1,.1-3.347,27.475,27.475,0,0,1,.729-3.35c.575-2.21,1.175-4.571.512-6.833a22.276,22.276,0,0,0-1.33-3,6.757,6.757,0,0,1-.651-2.988c.035-2.112.8-4.136,1.07-6.219a8.728,8.728,0,0,0-.1-3.1,22.831,22.831,0,0,0-1.215-3.174,14.2,14.2,0,0,1-.518-6.589,16.4,16.4,0,0,0-.33-6.59c-.348-1.058-.846-2.059-1.193-3.117a5.739,5.739,0,0,1-.188-3.218c.277-1.162.691-2.277.9-3.458a17.09,17.09,0,0,0,.249-3.676c-.026-.6-.088-1.188-.172-1.778a.514.514,0,0,0-.628-.357.525.525,0,0,0-.357.628,16.578,16.578,0,0,1-.637,7.175,8.26,8.26,0,0,0-.5,3.4,12.268,12.268,0,0,0,.969,3.167,12.688,12.688,0,0,1,.959,3.169,16.638,16.638,0,0,1,.02,3.309,23.826,23.826,0,0,0-.024,6.693,18.323,18.323,0,0,0,1.171,3.169,7.717,7.717,0,0,1,.668,3.164c-.043,2.115-.806,4.139-1.074,6.226a8.515,8.515,0,0,0,.106,3.071,15.746,15.746,0,0,0,1.3,3.058,7.29,7.29,0,0,1,.777,3.161,14.122,14.122,0,0,1-.509,3.425c-.278,1.131-.605,2.251-.829,3.395a17.841,17.841,0,0,0,.914,9.982q.318.8.706,1.569c.3.587,1.179.07.882-.516" transform="translate(-171.202 -152.294)" fill="#fff"/>
            <path id="Trazado_720595" data-name="Trazado 720595" d="M136.394,377.786c-8.369-.7-18.027-3.032-25.059-9.552.115-3.642.568-8.52-1.053-13.567-1.756-5.467-4.272-10.784-4.757-16.506-.285-3.364.128-6.868-1.068-10.025-.893-2.356-3.6-4.632-5.819-2.616a3.9,3.9,0,0,0-1,1.521c-2.6,6.867-2.259,13.963-4.2,20.352C83.125,341.379,73.055,323.7,66,315.178c-1.029-1.244-2.48-2.63-4.039-1.987a2.393,2.393,0,0,0-1.384,1.757,6.106,6.106,0,0,0,1.075,4.154c3.02,5.545,5.793,10.965,9.228,16.264,1.355,2.091,4.142,6.557,3.992,6.6-7.393-7.639-11.7-17.487-18.369-25.805-1.163-1.452-2.006-3.47-3.77-4.112s-4.407-.519-4.6,1.325c-.356,3.4,5.236,12.494,7.284,16.52,3.114,6.121,8.838,13.335,10.416,16.429-3.866-2.362-5.515-5.239-7.624-8.053-3.884-5.184-6.888-10.848-11.22-15.663-1.33-1.478-3.085-3.524-4.779-2.484-1.735,1.065-1.056,3.646-.429,5.584,1.351,4.181,13.109,21.741,16.859,26.738-.212.274-6.228-4.725-9.879-10.309-1.464-2.239-5.154-9.342-8.053-10.2-1.808-.536-2.622,2.578-2.362,4.3.509,3.371,2.378,7.027,3.866,10.094,4.439,9.149,25.993,37,44.885,45.314,15.526,6.836,25.664,12.027,35.118,13.916,1.841.368,3.784.889,5.533.208a7.843,7.843,0,0,0,2.868-2.219c6.078-6.789,8.023-21.676,5.778-25.752" transform="translate(-30.475 -248.008)" fill="#fbcfa5"/>
            <path id="Trazado_720596" data-name="Trazado 720596" d="M340.828,381.475a1.044,1.044,0,0,0-.566.709,2.669,2.669,0,0,0-.036.934,13.049,13.049,0,0,0,.536,2.694,3.132,3.132,0,0,0,.644,1.259,3.1,3.1,0,0,0,2.364.71.755.755,0,0,0,.462-.116.734.734,0,0,0,.214-.425,6.088,6.088,0,0,0-.378-3.863c-.463-1.024-1.977-2.422-3.239-1.9" transform="translate(-270.692 -303.442)" fill="#f9e3d2"/>
            <path id="Trazado_720597" data-name="Trazado 720597" d="M149,325.771a6.763,6.763,0,0,0,1.142,2.052,3.656,3.656,0,0,0,1.071,1.072,1.207,1.207,0,0,0,1.911-1.157,4.015,4.015,0,0,0-.335-1.247l-.45-1.159a4.059,4.059,0,0,0-1.084-1.786,1.566,1.566,0,0,0-1.914-.044,2.285,2.285,0,0,0-.341,2.27" transform="translate(-118.44 -257.159)" fill="#f9e3d2"/>
            <path id="Trazado_720598" data-name="Trazado 720598" d="M90.032,318.563a7.21,7.21,0,0,0,.917,1.616,2.424,2.424,0,0,0,1.561.929,1.185,1.185,0,0,0,1.055-.371,1.541,1.541,0,0,0,.253-.93,6.853,6.853,0,0,0-1.27-4.147c-.642-.9-2.078-1.74-3.078-.8-1.046.978.115,2.732.562,3.707" transform="translate(-70.852 -250.199)" fill="#f9e3d2"/>
            <path id="Trazado_720599" data-name="Trazado 720599" d="M54.439,358.975a5.15,5.15,0,0,0,.7,1.869c.286.5.613.98.939,1.457a2.51,2.51,0,0,0,.662.737,1.249,1.249,0,0,0,1.925-1.1,2.512,2.512,0,0,0-.279-.911l-1.126-2.487a3.706,3.706,0,0,0-.883-1.368c-1.369-1.153-2.081.646-1.933,1.805" transform="translate(-43.301 -283.898)" fill="#f9e3d2"/>
            <path id="Trazado_720600" data-name="Trazado 720600" d="M41.093,423.993a2.781,2.781,0,0,0,1.664,1.566.881.881,0,0,0,.769-.128.953.953,0,0,0,.276-.59,4.949,4.949,0,0,0-.409-2.361l-.5-1.43a2.344,2.344,0,0,0-.281-.611,1.189,1.189,0,0,0-2.013.12,4.415,4.415,0,0,0,.493,3.434" transform="translate(-32.161 -334.14)" fill="#f9e3d2"/>
            <path id="Trazado_720601" data-name="Trazado 720601" d="M140.166,556.112a4.23,4.23,0,0,0,3.5,3.832.585.585,0,0,0,.49-.086.535.535,0,0,0,.134-.281c.282-1.26-.736-2.4-1.671-3.294a3.11,3.11,0,0,0-1.065-.759,1.063,1.063,0,0,0-1.2.281Z" transform="translate(-111.527 -441.963)" fill="#f2b98f"/>
            <path id="Trazado_720602" data-name="Trazado 720602" d="M163.368,521.3a4.231,4.231,0,0,0,3.5,3.832.585.585,0,0,0,.49-.086.533.533,0,0,0,.135-.281c.282-1.26-.736-2.4-1.671-3.294a3.112,3.112,0,0,0-1.065-.759,1.063,1.063,0,0,0-1.2.281Z" transform="translate(-129.989 -414.26)" fill="#f2b98f"/>
            <path id="Trazado_720603" data-name="Trazado 720603" d="M196.514,488.814a4.23,4.23,0,0,0,3.5,3.832.585.585,0,0,0,.49-.086.533.533,0,0,0,.134-.281c.282-1.26-.736-2.4-1.671-3.294a3.11,3.11,0,0,0-1.065-.76,1.063,1.063,0,0,0-1.2.281Z" transform="translate(-156.362 -388.415)" fill="#f2b98f"/>
            <path id="Trazado_720604" data-name="Trazado 720604" d="M226.345,460.308a4.23,4.23,0,0,0,3.5,3.832.586.586,0,0,0,.49-.086.533.533,0,0,0,.134-.281c.282-1.26-.736-2.4-1.671-3.294a3.113,3.113,0,0,0-1.065-.759,1.063,1.063,0,0,0-1.2.281Z" transform="translate(-180.098 -365.733)" fill="#f2b98f"/>
            <path id="Trazado_720605" data-name="Trazado 720605" d="M49.953,11.3A11.3,11.3,0,0,0,38.65,0c-.264,0-.526.012-.785.03V0H0V12.088H32.865a5,5,0,0,1,5,5V40.727H49.953V12.088h-.03c.018-.26.03-.521.03-.785" fill="#aeafa0"/>
            <path id="Trazado_720606" data-name="Trazado 720606" d="M184.85,160.2H174.808a3.529,3.529,0,0,1-3.529-3.528v-4.1a3.529,3.529,0,0,1,3.529-3.528H184.85a3.528,3.528,0,0,1,3.529,3.528v4.1a3.528,3.528,0,0,1-3.529,3.528" transform="translate(-136.283 -118.594)" fill="#aeafa0"/>
            <g id="Grupo_983947" data-name="Grupo 983947" transform="translate(35.99 32.049)" opacity="0.41">
              <g id="Grupo_983946" data-name="Grupo 983946">
                <g id="Grupo_983945" data-name="Grupo 983945" clip-path="url(#clip-path-3)">
                  <path id="Trazado_720607" data-name="Trazado 720607" d="M177.842,156.918A2.074,2.074,0,0,0,176.27,158a1.327,1.327,0,0,0,.52,1.714,1.947,1.947,0,0,0,.855.14,32.615,32.615,0,0,0,3.363-.327,35.6,35.6,0,0,1,5.2-.1,3.471,3.471,0,0,0,1.428-.138,1.153,1.153,0,0,0,.784-1.095,1.141,1.141,0,0,0-.764-.883,3.363,3.363,0,0,0-1.213-.151l-4.789-.006c-1.21,0-2.641-.451-3.815-.231" transform="translate(-176.147 -156.858)" fill="#fff"/>
                </g>
              </g>
            </g>
            <g id="Grupo_983950" data-name="Grupo 983950" transform="translate(29.126 1.004)" opacity="0.41">
              <g id="Grupo_983949" data-name="Grupo 983949">
                <g id="Grupo_983948" data-name="Grupo 983948" clip-path="url(#clip-path-4)">
                  <path id="Trazado_720608" data-name="Trazado 720608" d="M143.1,6.86a2.5,2.5,0,0,0,1.489.278,38.972,38.972,0,0,1,6.165.394A10.585,10.585,0,0,1,154.438,8.6a4.355,4.355,0,0,1,2.276,2.945c.167,1.008-.025,2.288.848,2.819a1.515,1.515,0,0,0,1.908-.516,3.116,3.116,0,0,0,.449-2.078,7.081,7.081,0,0,0-4.345-5.923,12.9,12.9,0,0,0-3.637-.71,37.719,37.719,0,0,0-5.945-.157c-.534.037-4.97.439-2.887,1.884" transform="translate(-142.552 -4.916)" fill="#fff"/>
                </g>
              </g>
            </g>
          </g>
        </g>
      </g>
    </g>
  </g>
</svg>
