<svg xmlns="http://www.w3.org/2000/svg" xmlns:xlink="http://www.w3.org/1999/xlink" width="152" height="163" viewBox="0 0 152 163">
  <defs>
    <clipPath id="clip-path">
      <rect id="Rectángulo_344727" data-name="Rectángulo 344727" width="110.484" height="148.809" fill="none"/>
    </clipPath>
  </defs>
  <g id="Grupo_983974" data-name="Grupo 983974" transform="translate(-1079 -8071)">
    <circle id="Elipse_5882" data-name="Elipse 5882" cx="76" cy="76" r="76" transform="translate(1079 8082)" fill="#06d1d1"/>
    <g id="Grupo_983958" data-name="Grupo 983958" transform="translate(1098.851 8071)">
      <g id="Grupo_983957" data-name="Grupo 983957" clip-path="url(#clip-path)">
        <path id="Trazado_720630" data-name="Trazado 720630" d="M165.65,439.384c-13.944,4.232-27.244,6.907-42.944,3.95-4.954-.933-11.974-6.958-16.111-10.089s-7.05-8.146-6.057-12.356c.727-3.079,3.315-5.218,5.9-7.081a107.433,107.433,0,0,1,34.274-16.2,20.673,20.673,0,0,1,8.515-.971c4.483.641,8.621,3.619,11.892,6.914,4.865,4.9,5.247,13.37,7.1,19.431.944,3.1,8.665,4.8,8.684,7.864.026,4.2-7.432,7.379-11.251,8.538" transform="translate(-76.789 -303.429)" fill="#fbcfa5"/>
        <path id="Trazado_720631" data-name="Trazado 720631" d="M13.746,482.839c-2.151.162-4.459.248-6.3-.873a9.009,9.009,0,0,1-2.8-3.085c-5.516-8.9-5.442-20.221-3.264-30.461,9.607.886,19.571,1.732,28.667-1.483,6.874-2.43,13.19-7.148,20.481-7.219a17.117,17.117,0,0,1,15.862,11.071c2.221,6.232-.087,16.98-5.744,21.124-3.323,2.434-7.988,3.39-11.859,4.527q-8.1,2.377-16.4,3.944a169.528,169.528,0,0,1-18.641,2.456" transform="translate(0 -336.5)" fill="#fbcfa5"/>
        <path id="Trazado_720632" data-name="Trazado 720632" d="M163.892,56.483h0c0-.005,0-.011,0-.016q-.144-2.774-.4-5.574A7.449,7.449,0,0,0,163,48.877a126.485,126.485,0,0,0-6.057-26.855,39.022,39.022,0,0,0-5.227-10.471c-1.15-1.511-3.466-2.906-4.732-1.489a3.315,3.315,0,0,0-.587,2.278c.021,2.722,3.395,19.675,5.469,28.639-.226-.034-.453-.063-.68-.092-1.27-4.4-6.359-26.555-11.413-34.855-1.217-2-2.96-4.415-5.226-3.836-2.213.565-2.132,3.056-1.8,5.316,1.175,7.887,3.1,14.754,4.271,22.1a116.994,116.994,0,0,1,1.53,11.848l-.237.051c-1.147-7.377-2.992-14.925-4.861-22.122q-1.957-7.534-4.553-14.873c-.62-1.752-2.285-4.051-4.1-4.425-2.795-.574-4.126,1.555-3.675,3.98,1.122,6.031,6.121,20.173,6.145,40.794a91.141,91.141,0,0,0-2.565-9.482c-2.085-6.948-4.173-13.9-6.781-20.673a8.725,8.725,0,0,0-1.98-3.417,3.107,3.107,0,0,0-3.655-.576c-1.48.968-1.344,3.14-1.035,4.881l6.177,34.845c-.418,10.505-.9,13.674-1.054,16.649-.032.608-.058,1.206-.081,1.8a13.021,13.021,0,0,0-3.208-.6c-9.352-.5-14.93-4.533-24.2-5.454a5.3,5.3,0,0,0-4.058.865c-1.976,1.731-.91,5.083.922,6.966,2.8,2.881,6.792,4.2,10.278,6.2,5.928,3.406,10.4,8.8,15.411,13.447a75.689,75.689,0,0,0,10.54,8.05c1.93,6.005-.582,34.793-4.115,43.771,1.018,6.414,20.077,8.183,30.161,5.37a9,9,0,0,0,3.744-1.827c1.591-1.456,2.153-3.7,2.6-5.807,1.292-6.136,2.242-17.978,2.846-24.22q.813-8.4.792-16.85c0-1.12.024-2.3.035-3.493,5.222-13.194,6.518-25.814,5.846-38.837" transform="translate(-64.11 0)" fill="#f2b98f"/>
        <path id="Trazado_720633" data-name="Trazado 720633" d="M274.222,244.393c4.833-.477,9.918-.918,14.362,1.041,1.5.661,2.993,1.6,4.626,1.473-.635-1.145.165-2.792-.684-3.79a2.849,2.849,0,0,0-2.073-.715,81.734,81.734,0,0,0-13.793.336c-4.325.472-9.571.927-13.563,2.708,3.65.056,7.485-.694,11.125-1.054" transform="translate(-201.339 -185.389)" fill="#e2ac88"/>
        <path id="Trazado_720634" data-name="Trazado 720634" d="M245.092,397.635c.118.069.233.136.343.2a16.753,16.753,0,0,1,.585,3.842,32.438,32.438,0,0,0,5.819-3.214,33.206,33.206,0,0,0,4.359-3.391c1.283-1.183,2.361-3.067,3.73-4.071a38.812,38.812,0,0,1-11.154,5.7c-.656.208-2.21.475-3.682.941" transform="translate(-187.561 -299.218)" fill="#e2ac88"/>
        <path id="Trazado_720635" data-name="Trazado 720635" d="M347.576,377.15a1.873,1.873,0,0,0,.656-.147,84.709,84.709,0,0,0,2.8-8.427,16.854,16.854,0,0,1-6.144,4.8,20.552,20.552,0,0,1-7.154,1.864c-1.724.166-4.1-.351-5.623.538,3.194.677,6.641.772,9.9,1.127a28.886,28.886,0,0,0,5.571.247" transform="translate(-254.15 -282.058)" fill="#e2ac88"/>
        <path id="Trazado_720636" data-name="Trazado 720636" d="M222.487,280.22c-.048.6-.088,1.152-.116,1.7-.027.5-.048,1-.069,1.5l11.778,4.07a91.3,91.3,0,0,1-10.442-6.469c-.376-.269-.757-.545-1.151-.794" transform="translate(-170.12 -214.443)" fill="#e2ac88"/>
        <path id="Trazado_720637" data-name="Trazado 720637" d="M216.875,130.645a.151.151,0,0,0-.1.225,14.959,14.959,0,0,0,.962,2.468c-.45-.908,4.762-4.667,4.762-4.667s-2.549.791-3.1.982q-1.28.441-2.518.992" transform="translate(-165.876 -98.468)" fill="#e2ac88"/>
        <path id="Trazado_720638" data-name="Trazado 720638" d="M268.379,104.07a.2.2,0,0,0-.106.08.2.2,0,0,0,0,.144,14.959,14.959,0,0,0,.961,2.468c-.45-.908,4.762-4.667,4.762-4.667s-2.549.791-3.1.982q-1.28.441-2.518.992" transform="translate(-205.291 -78.131)" fill="#e2ac88"/>
        <path id="Trazado_720639" data-name="Trazado 720639" d="M312.891,95.631a.151.151,0,0,0-.145.2,14.963,14.963,0,0,0,.442,2.612c-.257-.98,5.608-3.606,5.608-3.606s-2.657.258-3.239.333q-1.342.173-2.666.462" transform="translate(-239.332 -72.575)" fill="#e2ac88"/>
        <path id="Trazado_720640" data-name="Trazado 720640" d="M365.744,103.312a.151.151,0,0,0-.145.2,14.94,14.94,0,0,0,.442,2.612c-.257-.98,5.608-3.606,5.608-3.606s-2.657.258-3.239.333q-1.342.173-2.666.462" transform="translate(-279.779 -78.453)" fill="#e2ac88"/>
        <path id="Trazado_720641" data-name="Trazado 720641" d="M106.948,390.262c-5.194,0-8.987-5.994-4.838-11.441,5.448-4.149,11.443-.356,11.443,4.837a6.6,6.6,0,0,1-6.6,6.6" transform="translate(-76.79 -288.547)" fill="#ffeee3"/>
        <path id="Trazado_720642" data-name="Trazado 720642" d="M109.485,383.43a5.815,5.815,0,0,0-1.553,1.585,4.06,4.06,0,0,0-.849,2.233,1.936,1.936,0,0,0,1.243,1.888.979.979,0,0,0,.673-.019,1.093,1.093,0,0,0,.55-.816c.066-.335.05-.681.108-1.017a2.355,2.355,0,0,1,1.181-1.645c.867-.469,2.1-.446,2.423-1.518.109-1.882-2.972-1.217-3.775-.692" transform="translate(-81.947 -293)" fill="#fff"/>
        <path id="Trazado_720643" data-name="Trazado 720643" d="M179.461,245.088c-3.415,0-5.91-3.942-3.181-7.523,3.582-2.728,7.524-.234,7.524,3.181a4.343,4.343,0,0,1-4.343,4.342" transform="translate(-134.012 -180.911)" fill="#ffeee3"/>
        <path id="Trazado_720644" data-name="Trazado 720644" d="M181.129,240.6a3.834,3.834,0,0,0-1.021,1.042,2.671,2.671,0,0,0-.558,1.469,1.273,1.273,0,0,0,.818,1.242.646.646,0,0,0,.442-.012.72.72,0,0,0,.361-.537c.043-.22.032-.448.071-.668a1.548,1.548,0,0,1,.777-1.082c.57-.308,1.38-.293,1.593-1,.072-1.238-1.954-.8-2.482-.455" transform="translate(-137.403 -183.84)" fill="#fff"/>
        <path id="Trazado_720645" data-name="Trazado 720645" d="M432.185,350.573c-3.415,0-5.91-3.942-3.181-7.523,3.582-2.728,7.524-.234,7.524,3.181a4.343,4.343,0,0,1-4.343,4.342" transform="translate(-327.413 -261.636)" fill="#ffeee3"/>
        <path id="Trazado_720646" data-name="Trazado 720646" d="M433.854,346.08a3.833,3.833,0,0,0-1.021,1.042,2.667,2.667,0,0,0-.558,1.469,1.273,1.273,0,0,0,.817,1.242.644.644,0,0,0,.442-.012.719.719,0,0,0,.361-.537c.043-.22.032-.448.071-.669a1.548,1.548,0,0,1,.777-1.082c.57-.309,1.38-.293,1.593-1,.072-1.238-1.954-.8-2.482-.455" transform="translate(-330.805 -264.563)" fill="#fff"/>
        <path id="Trazado_720647" data-name="Trazado 720647" d="M112.834,218.875a2.9,2.9,0,1,1,2.856-2.855,2.855,2.855,0,0,1-2.856,2.855" transform="translate(-84.162 -163.127)" fill="#ffeee3"/>
        <path id="Trazado_720648" data-name="Trazado 720648" d="M113.931,215.921a2.516,2.516,0,0,0-.671.686,1.754,1.754,0,0,0-.367.966.837.837,0,0,0,.537.817.426.426,0,0,0,.291-.008.473.473,0,0,0,.238-.353c.028-.145.021-.294.046-.439a1.019,1.019,0,0,1,.511-.711c.375-.2.907-.193,1.048-.657.047-.814-1.285-.526-1.632-.3" transform="translate(-86.393 -165.053)" fill="#fff"/>
        <path id="Trazado_720649" data-name="Trazado 720649" d="M449.2,419.449a2.9,2.9,0,1,1,2.856-2.855,2.856,2.856,0,0,1-2.856,2.855" transform="translate(-341.571 -316.62)" fill="#ffeee3"/>
        <path id="Trazado_720650" data-name="Trazado 720650" d="M450.3,416.494a2.518,2.518,0,0,0-.671.685,1.757,1.757,0,0,0-.367.966.838.838,0,0,0,.538.817.427.427,0,0,0,.291-.008.473.473,0,0,0,.237-.353c.029-.145.022-.294.047-.44a1.018,1.018,0,0,1,.511-.711c.375-.2.907-.193,1.047-.657.047-.814-1.285-.526-1.632-.3" transform="translate(-343.801 -318.545)" fill="#fff"/>
        <path id="Trazado_720651" data-name="Trazado 720651" d="M341.932,406.13A32.185,32.185,0,0,0,333,410.194a9.528,9.528,0,0,0-3.624,3.365,2.974,2.974,0,0,0-.076,3.124,3.408,3.408,0,0,0,1.705,1.073,11.3,11.3,0,0,0,6.582.333,33.962,33.962,0,0,0,7.191-2.453,15.324,15.324,0,0,0,3.592-2.025c2.13-1.746,3.04-4.895,1.034-7.144-1.647-1.846-5.455-.863-7.472-.337" transform="translate(-251.687 -310.233)" fill="#fbcfa5"/>
        <path id="Trazado_720652" data-name="Trazado 720652" d="M345.356,448.118c-3.1.738-12.617,4.4-13.947,6.274a2.537,2.537,0,0,0-.432,3.028,3.248,3.248,0,0,0,2.9,1.43,19.794,19.794,0,0,0,7.43-.684c2.215-.8,4.645-.922,6.724-1.784a13.506,13.506,0,0,0,3.212-1.711c1.9-1.487,2.681-4.2.847-6.175-1.506-1.618-4.924-.812-6.735-.38" transform="translate(-253.021 -342.48)" fill="#fbcfa5"/>
        <path id="Trazado_720653" data-name="Trazado 720653" d="M353.574,484.111a35.6,35.6,0,0,0-9.227,3.648c-1.34.763-3.114,1.438-3.857,2.759a3.077,3.077,0,0,0,.4,3.07,2.842,2.842,0,0,0,1.619,1c2.419.547,11.067-1,13.847-1.777A9.781,9.781,0,0,0,359.724,491c1.99-1.569,2.815-4.43.9-6.5-1.572-1.7-5.152-.844-7.048-.386" transform="translate(-260.371 -369.995)" fill="#fbcfa5"/>
        <path id="Trazado_720654" data-name="Trazado 720654" d="M358.326,524.026a31.836,31.836,0,0,0-8.531,2.556,7.785,7.785,0,0,0-3.3,2.415,2.407,2.407,0,0,0-.284,2.56,2.93,2.93,0,0,0,1.353,1.025,12.638,12.638,0,0,0,6.278.905,28.63,28.63,0,0,0,6.2-1.412,12.744,12.744,0,0,0,3.153-1.362c1.908-1.256,2.893-3.767,1.371-5.783-1.25-1.655-4.51-1.167-6.238-.9" transform="translate(-264.745 -400.808)" fill="#fbcfa5"/>
        <path id="Trazado_720655" data-name="Trazado 720655" d="M337.1,431.934a12,12,0,0,0-2.175.789,3.237,3.237,0,0,0-1.838,1.709,2.781,2.781,0,0,0,1.224,2.882,2.264,2.264,0,0,0,.774.415,2.472,2.472,0,0,0,1.4-.144,8.059,8.059,0,0,0,2.938-1.767,3.055,3.055,0,0,0,.981-1.516c.444-2.1-1.7-2.779-3.308-2.367" transform="translate(-254.831 -330.457)" fill="#f9e3d2"/>
        <path id="Trazado_720656" data-name="Trazado 720656" d="M336.141,477.9a2.206,2.206,0,0,0,1.522,1.044,4.7,4.7,0,0,0,1.981-.271,5.753,5.753,0,0,0,2.291-.971,1.76,1.76,0,0,0,.486-2.233,2.305,2.305,0,0,0-2.017-.69c-1.69.051-5.821.47-4.262,3.122" transform="translate(-256.973 -363.329)" fill="#f9e3d2"/>
        <path id="Trazado_720657" data-name="Trazado 720657" d="M344.832,510.856a1.985,1.985,0,0,0,.417.609,2.067,2.067,0,0,0,1.874.2,12.284,12.284,0,0,0,2.588-.953,3.041,3.041,0,0,0,.872-.592,1.783,1.783,0,0,0,.142-2.2,2.239,2.239,0,0,0-1.719-.839,4.954,4.954,0,0,0-1.928.379,7.683,7.683,0,0,0-2.353,1.1c-.6.569-.21,1.653.106,2.287" transform="translate(-263.568 -388.055)" fill="#f9e3d2"/>
        <path id="Trazado_720658" data-name="Trazado 720658" d="M351.3,544.734a1.9,1.9,0,0,0,1.4.278,5.648,5.648,0,0,0,1.382-.462c.363-.158.726-.315,1.079-.494a2.737,2.737,0,0,0,.99-.741,1.643,1.643,0,0,0-.343-2.232,3.226,3.226,0,0,0-2.7-.081c-.75.2-2.092.327-2.463,1.11a2.46,2.46,0,0,0,.66,2.623" transform="translate(-268.223 -413.813)" fill="#f9e3d2"/>
        <path id="Trazado_720659" data-name="Trazado 720659" d="M197.054,358.957a5.63,5.63,0,0,1,1.5-4.694,6.561,6.561,0,0,1,5.209-2.15,6.542,6.542,0,0,1,1.232-4.451,10.158,10.158,0,0,1,3.3-2.8,7.293,7.293,0,0,1,5.369-1.161,4.754,4.754,0,0,1,3.488,4.608c1.265-1.021,3.278-.488,4.364.961a5.769,5.769,0,0,1,.681,5.215,6.348,6.348,0,0,1-3.309,3.54c2.878.507,5.341,3.583,5.728,6.868a8.312,8.312,0,0,1-3.653,8,7.688,7.688,0,0,1,4.607,6.875c.064,2.988-1.8,5.721-4.323,6.33a4.029,4.029,0,0,1,.151,4.253,6.519,6.519,0,0,1-3.089,2.541,6.186,6.186,0,0,1-4.131.686,5.8,5.8,0,0,0-1.326-.308,3.684,3.684,0,0,0-1.584.535,9.679,9.679,0,0,1-5.137.909,5.811,5.811,0,0,1-4.437-2.4c-1.018-1.562-.814-4.119.69-4.747a9.278,9.278,0,0,1-.512-8.843,11.927,11.927,0,0,1,6.011-5.592c-2.547-1.4-5.253-2.969-6.741-5.73-.83-1.539-.535-3.464-1.274-4.867-.783-1.487-2.437-1.515-2.809-3.574" transform="translate(-150.741 -262.903)" fill="#ffeee3"/>
        <path id="Trazado_720660" data-name="Trazado 720660" d="M138.17,389.2c7.623-5.166,13.167-5.593,21.987-2.948,2.182.655,8.186,1.966,8.823,4.153.7,2.385-3.261,5-6.735,4.671-2.474-.235-9.223-.315-10.379.17-1.183.5-4.093,5.3-5.076,7.88s-1.544,5.317-2.677,7.835a16.38,16.38,0,0,1-8.389,8.445,13.018,13.018,0,0,1-11.71-.748c-6.447-4.015-10.175-10.773-5.493-13.644,8.041-4.93,14.253-12.159,19.648-15.815" transform="translate(-89.095 -294.365)" fill="#fbcfa5"/>
        <path id="Trazado_720661" data-name="Trazado 720661" d="M307.694,396.086a1.143,1.143,0,0,0-.012,1.1,2.679,2.679,0,0,0,.755.861,10.387,10.387,0,0,0,4.337,2.014,2.791,2.791,0,0,0,1.081.079,1.1,1.1,0,0,0,.847-.613,1.12,1.12,0,0,0-.248-1.111,3.1,3.1,0,0,0-.974-.683,31.339,31.339,0,0,0-3.157-1.42c-.632-.242-2.1-1.045-2.628-.231" transform="translate(-235.354 -302.838)" fill="#f9e3d2"/>
        <path id="Trazado_720662" data-name="Trazado 720662" d="M237.176,356.713c.646-.972.551-2.378,1.417-3.16.327-.3.754-.459,1.093-.741a.993.993,0,0,0,.372-1.161,1.036,1.036,0,0,0-.547-.42,3.415,3.415,0,0,0-2.383.03c-1.644.581-4.319,2.5-4.119,4.529.2,2.047,3.071,2.574,4.168.922" transform="translate(-178.305 -268.632)" fill="#fff"/>
        <path id="Trazado_720663" data-name="Trazado 720663" d="M273.647,437.242a4.016,4.016,0,0,1,3.007,1.141,2.089,2.089,0,0,1-.1,2.946,1,1,0,0,1-1.1.123,2.01,2.01,0,0,1-.437-.5c-.939-1.221-2.711-.585-3.592-1.536-1.268-1.368,1.177-2.188,2.224-2.174" transform="translate(-207.439 -334.607)" fill="#fff"/>
        <path id="Trazado_720664" data-name="Trazado 720664" d="M249.07,476.41a5.268,5.268,0,0,1,4.23-2.427c.831-.025,1.812.277,2.054,1.073a1.774,1.774,0,0,1-.537,1.651c-.415.442-.942.765-1.373,1.191a1.912,1.912,0,0,0-.669,1.615c.061.335.257.634.319.969.339,1.832-2.586,2.485-3.734,1.6-1.6-1.23-1.22-4.186-.289-5.674" transform="translate(-189.989 -362.722)" fill="#fff"/>
        <path id="Trazado_720665" data-name="Trazado 720665" d="M268.142,520.462c.748.41,1.669.575,2.224,1.223.458.534.636,1.362,1.289,1.622a1.232,1.232,0,0,0,1.288-.33,2.183,2.183,0,0,0,.55-1.27,3.669,3.669,0,0,0-1.19-3.156,3.6,3.6,0,0,0-3.763-.64c-.834.474-1.47,1.963-.4,2.551" transform="translate(-204.768 -396.112)" fill="#fff"/>
      </g>
    </g>
  </g>
</svg>
