<svg xmlns="http://www.w3.org/2000/svg" xmlns:xlink="http://www.w3.org/1999/xlink" width="152" height="176.255" viewBox="0 0 152 176.255">
  <defs>
    <clipPath id="clip-path">
      <rect id="Rectángulo_344726" data-name="Rectángulo 344726" width="132.58" height="176.255" fill="none"/>
    </clipPath>
  </defs>
  <g id="Grupo_983973" data-name="Grupo 983973" transform="translate(-724 -8071)">
    <circle id="Elipse_5881" data-name="Elipse 5881" cx="76" cy="76" r="76" transform="translate(724 8082)" fill="#b20d0d"/>
    <g id="Grupo_983956" data-name="Grupo 983956" transform="translate(733.71 8071)">
      <g id="Grupo_983955" data-name="Grupo 983955" clip-path="url(#clip-path)">
        <path id="Trazado_720609" data-name="Trazado 720609" d="M130.04,184.249a61.467,61.467,0,0,1-26.869-1.346l-.135-.035c-1.584-5.636-6.1-10.184-10.839-13.762-5.247-3.958-11.106-7.275-15.332-12.309-2.485-2.96-4.407-6.511-7.608-8.677-2.092-1.415-5.444-1.857-6.748.306a5.093,5.093,0,0,0-.133,3.986c2.1,7.4,5.9,11.839,8.238,18.5-4.324.526-8.079.052-21.668-3.064l-31.718-12.3c-1.585-.614-3.608-1.146-4.8.07a2.987,2.987,0,0,0-.136,3.554,8.384,8.384,0,0,0,2.854,2.5c5.9,3.717,12.073,6.978,18.239,10.235a87.645,87.645,0,0,0,8.467,4.181C22.413,172.243,10,164.9,4.523,162.723c-2.2-.876-4.459-.016-4.437,2.727.015,1.786,1.874,3.784,3.411,4.694q6.431,3.807,13.182,7.056c6.441,3.1,13.218,6.242,19.962,8.694l-.092.214a112.488,112.488,0,0,1-10.89-3.644C18.944,180,12.825,176.9,5.6,174.33c-2.069-.737-4.4-1.276-5.347.706-.967,2.03.989,4.123,2.648,5.642C9.8,186.987,29.743,195.9,33.66,197.917c-.015.22-.03.439-.04.658-8.069-3.621-23.432-9.953-26-10.478a3.187,3.187,0,0,0-2.258.13c-1.571.93-.686,3.373.526,4.739,2.5,2.816,6,4.476,8.9,6.875,22.284,18.43,49.121,18.765,68.889,17.226,1.13.212,14-.106,19.38.423a162.915,162.915,0,0,0,18.058.767c2.073-.027,4.29-.141,5.959-1.372a8.661,8.661,0,0,0,2.419-3.192c4.526-8.989,3.492-19.825.537-29.445" transform="translate(0 -113.777)" fill="#f2b98f"/>
        <path id="Trazado_720610" data-name="Trazado 720610" d="M140.836,170.666a19.684,19.684,0,0,1,18.084-13.187c7.682-.115,15.06,4.181,20.344,10.336s8.67,14.023,11.031,22.092c3.338,11.408,4.545,24.738-1.522,34.682a22.633,22.633,0,0,1-15.936,10.782,21.458,21.458,0,0,1-17.82-6.224c-7.007-6.987-10.63-18.849-12.34-28.833-1.58-9.225-4.871-20.536-1.841-29.647" transform="translate(-108.098 -121.943)" fill="#ffeee3"/>
        <path id="Trazado_720611" data-name="Trazado 720611" d="M195.985,175.123a14.663,14.663,0,0,0,2.778-.291,13.326,13.326,0,0,1,10.5,3.23c1.527,1.366,2.715,3.07,4.185,4.5a3.062,3.062,0,0,0,2.009,1.069,2.21,2.21,0,0,0,1.962-1.749,5.038,5.038,0,0,0-.275-2.778,15.239,15.239,0,0,0-8.893-9.322,15.52,15.52,0,0,0-11.2.2c-.976.379-3.1,1.023-3.549,2.106-.692,1.686.984,2.953,2.489,3.041" transform="translate(-149.71 -130.731)" fill="#fff"/>
        <path id="Trazado_720612" data-name="Trazado 720612" d="M305.077,238.911a4.373,4.373,0,0,0-.1,2.463,21.217,21.217,0,0,0,2.042,6.108c.529,1.028,1.462,2.16,2.588,1.9s1.461-1.706,1.448-2.866a16.982,16.982,0,0,0-1.335-6.411c-.716-1.694-3.486-3.868-4.641-1.19" transform="translate(-236.06 -184.027)" fill="#fff"/>
        <path id="Trazado_720613" data-name="Trazado 720613" d="M174.352,241.913c-3.158-5.019-7.432-9.773-13.138-11.388a26.012,26.012,0,0,0-7.915-.687,16.447,16.447,0,0,0-7.524,1.564,12.45,12.45,0,0,0-4.066,3.9c.421,6.187,2.011,12.565,2.971,18.173,1.71,9.984,5.332,21.846,12.34,28.833a22.22,22.22,0,0,0,3.853,3.07,20.652,20.652,0,0,0,5.919,1.2c5.768.277,11.855-2.468,14.568-7.565,1.938-3.643,2.008-7.986,1.593-12.091a58.158,58.158,0,0,0-8.6-25.005" transform="translate(-109.733 -177.952)" fill="#ffe2d9"/>
        <path id="Trazado_720614" data-name="Trazado 720614" d="M146.69,297.327l-.067-.123c3.049-5,3.307-11.4,2.7-17.309-.675-6.538-2.235-13.087-1.426-19.61.476-3.835,1.767-7.662,1.174-11.48-.388-2.5-2.347-5.251-4.819-4.734a5.094,5.094,0,0,0-3.009,2.617c-3.994,6.575-4.651,12.385-7.941,18.632-.994-1.593-6.851-9.581-12.511-17.954l-12.592-31.6c-.629-1.579-1.618-3.423-3.317-3.465a2.987,2.987,0,0,0-2.7,2.321,8.389,8.389,0,0,0,.111,3.795c1.3,6.852,3.111,13.593,4.924,20.327a87.454,87.454,0,0,0,2.708,9.056C99.5,230.93,96.432,216.839,94.3,211.342c-.859-2.21-3.025-3.277-5.018-1.392-1.3,1.227-1.495,3.948-1.115,5.694q1.59,7.3,3.808,14.459c2.116,6.828,4.429,13.93,7.226,20.539l-.22.079a112.5,112.5,0,0,1-4.747-10.457c-2.766-6.6-4.668-13.185-7.7-20.225-.869-2.017-2.063-4.093-4.158-3.435-2.145.674-2.346,3.532-2.329,5.78.071,9.342,7.126,30.021,8.318,34.262-.171.139-.341.277-.509.419-2.842-8.375-8.667-23.938-10.028-26.172a3.187,3.187,0,0,0-1.633-1.565c-1.751-.517-2.937,1.8-3.112,3.612a30.393,30.393,0,0,0,1.029,11.2c11.249,39.411,40.371,71.636,43.648,75.937,3.653,4.795,14.231,18.079,17.788,18a49.194,49.194,0,0,0,6.527-.5c13.4-3.269,21.039-12.519,21.039-20.337-7.432-5.548-11.991-11.765-16.42-19.914" transform="translate(-56.483 -161.822)" fill="#fbcfa5"/>
        <path id="Trazado_720615" data-name="Trazado 720615" d="M382.212,379.048a5.036,5.036,0,0,0,.689,2.688A2.627,2.627,0,0,0,385.256,383a2.8,2.8,0,0,0,2.192-1.968,7.8,7.8,0,0,0,.221-3.082c-.38-5.652-5.525-3.594-5.458,1.1" transform="translate(-295.966 -290.019)" fill="#f9e3d2"/>
        <path id="Trazado_720616" data-name="Trazado 720616" d="M204.225,230.256a7.078,7.078,0,0,0,1.212,3.181,1.447,1.447,0,0,0,.516.506,1.044,1.044,0,0,0,1.128-.234,2.252,2.252,0,0,0,.57-1.067,7.437,7.437,0,0,0,.228-2.289,3.467,3.467,0,0,0-.487-1.858c-1.426-2.062-3.387-.076-3.167,1.761" transform="translate(-158.129 -176.257)" fill="#f9e3d2"/>
        <path id="Trazado_720617" data-name="Trazado 720617" d="M141.862,215.877a3.5,3.5,0,0,0-.142,1.368,10.244,10.244,0,0,0,.44,2.484c.227.736.687,1.559,1.456,1.6a1.387,1.387,0,0,0,1.126-.575,3.358,3.358,0,0,0,.533-1.193,12.349,12.349,0,0,0,.451-3.393,2.3,2.3,0,0,0-.184-1.032c-.781-1.533-3.226-.521-3.68.737" transform="translate(-109.733 -165.995)" fill="#f9e3d2"/>
        <path id="Trazado_720618" data-name="Trazado 720618" d="M107.7,247.921a3.185,3.185,0,0,0-.551,2.22,8.221,8.221,0,0,0,.6,3.472,1.974,1.974,0,0,0,.641.818.945.945,0,0,0,.993.067,1.288,1.288,0,0,0,.416-.5,9.535,9.535,0,0,0,.812-5.025,1.93,1.93,0,0,0-.654-1.664,1.845,1.845,0,0,0-2.255.61" transform="translate(-82.971 -191.355)" fill="#f9e3d2"/>
        <path id="Trazado_720619" data-name="Trazado 720619" d="M75.148,306.717a10.325,10.325,0,0,0-.053,2.705,3.017,3.017,0,0,0,.187,1.011,1.023,1.023,0,0,0,.754.638,1.007,1.007,0,0,0,.884-.424,2.633,2.633,0,0,0,.406-.936,15.809,15.809,0,0,0,.563-3.975,1.887,1.887,0,0,0-.118-.817c-.876-1.91-2.46.976-2.623,1.8" transform="translate(-58.101 -235.618)" fill="#f9e3d2"/>
        <path id="Trazado_720620" data-name="Trazado 720620" d="M281.645,58.264a6.76,6.76,0,1,1-6.76-6.76,6.76,6.76,0,0,1,6.76,6.76" transform="translate(-207.624 -39.882)" fill="#ffeee3"/>
        <path id="Trazado_720621" data-name="Trazado 720621" d="M95.192,10.081A10.08,10.08,0,1,1,85.112,0a10.08,10.08,0,0,1,10.08,10.08" transform="translate(-58.101 -0.001)" fill="#ffeee3"/>
        <path id="Trazado_720622" data-name="Trazado 720622" d="M202.3,111.693a4.481,4.481,0,1,1-4.481-4.481,4.481,4.481,0,0,1,4.481,4.481" transform="translate(-149.709 -83.02)" fill="#ffeee3"/>
        <path id="Trazado_720623" data-name="Trazado 720623" d="M89.4,10.089a8.883,8.883,0,0,0-2.37,2.42,6.2,6.2,0,0,0-1.3,3.409,2.956,2.956,0,0,0,1.9,2.883,1.5,1.5,0,0,0,1.026-.029,1.669,1.669,0,0,0,.839-1.246c.1-.511.076-1.039.164-1.552a3.6,3.6,0,0,1,1.8-2.511c1.17-.633,2.774-.679,3.472-1.812a1.389,1.389,0,0,0,.223-.826c-.194-2.474-4.582-1.506-5.759-.737" transform="translate(-66.387 -7.155)" fill="#fff"/>
        <path id="Trazado_720624" data-name="Trazado 720624" d="M199.28,113.6a2.877,2.877,0,0,0-1,1.821,1.707,1.707,0,0,0,.972,1.731,1.013,1.013,0,0,0,.818-.01c.682-.35.533-1.417,1.044-1.988a2.948,2.948,0,0,1,1.265-.612c.445-.164.913-.508.893-.982a.908.908,0,0,0-.517-.721,2.674,2.674,0,0,0-.9-.232,3.267,3.267,0,0,0-2.575.994" transform="translate(-153.531 -87.177)" fill="#fff"/>
        <path id="Trazado_720625" data-name="Trazado 720625" d="M278.616,59.424a4.8,4.8,0,0,0-.883,2.4,2.145,2.145,0,0,0,.573,1.955,1.525,1.525,0,0,0,1,.292,1.929,1.929,0,0,0,1.476-.808c.3-.435.415-.979.691-1.433a2.255,2.255,0,0,1,.932-.849c.536-.262,1.159-.3,1.7-.553s1.01-.87.774-1.418a1.222,1.222,0,0,0-.734-.6c-1.616-.6-4.428-.435-5.526,1.015" transform="translate(-215.045 -44.976)" fill="#fff"/>
        <path id="Trazado_720626" data-name="Trazado 720626" d="M131.791,460.558a3.44,3.44,0,0,0-1-1.045,1.174,1.174,0,0,0-1.358.056l-.273.294a4.672,4.672,0,0,0,3,4.885.647.647,0,0,0,.55.008.591.591,0,0,0,.2-.277c.568-1.308-.3-2.76-1.128-3.92" transform="translate(-99.989 -355.679)" fill="#f2b98f"/>
        <path id="Trazado_720627" data-name="Trazado 720627" d="M164.375,432.879a3.439,3.439,0,0,0-1-1.045,1.173,1.173,0,0,0-1.358.056l-.273.294a4.672,4.672,0,0,0,3,4.885.646.646,0,0,0,.55.008.591.591,0,0,0,.2-.277c.568-1.308-.3-2.76-1.128-3.921" transform="translate(-125.22 -334.246)" fill="#f2b98f"/>
        <path id="Trazado_720628" data-name="Trazado 720628" d="M207.119,410.456a3.434,3.434,0,0,0-1-1.045,1.174,1.174,0,0,0-1.358.056l-.273.294a4.672,4.672,0,0,0,3,4.885.646.646,0,0,0,.55.008.591.591,0,0,0,.2-.277c.568-1.308-.3-2.76-1.128-3.921" transform="translate(-158.319 -316.883)" fill="#f2b98f"/>
        <path id="Trazado_720629" data-name="Trazado 720629" d="M243.112,394.55a3.434,3.434,0,0,0-1-1.045,1.174,1.174,0,0,0-1.358.056l-.273.294a4.672,4.672,0,0,0,3,4.885.646.646,0,0,0,.55.008.591.591,0,0,0,.2-.277c.568-1.308-.3-2.76-1.128-3.921" transform="translate(-186.19 -304.566)" fill="#f2b98f"/>
      </g>
    </g>
  </g>
</svg>
