<svg xmlns="http://www.w3.org/2000/svg" xmlns:xlink="http://www.w3.org/1999/xlink" width="140" height="140" viewBox="0 0 140 140">
  <defs>
    <clipPath id="clip-path">
      <rect id="Rectángulo_344354" data-name="Rectángulo 344354" width="139.865" height="96.663" fill="none"/>
    </clipPath>
    <clipPath id="clip-path-2">
      <rect id="Rectángulo_344352" data-name="Rectángulo 344352" width="139.866" height="96.664" fill="none"/>
    </clipPath>
    <clipPath id="clip-path-3">
      <rect id="Rectángulo_344351" data-name="Rectángulo 344351" width="139.865" height="79.788" fill="none"/>
    </clipPath>
  </defs>
  <g id="Grupo_983938" data-name="Grupo 983938" transform="translate(-383 -558)">
    <circle id="Elipse_5838" data-name="Elipse 5838" cx="70" cy="70" r="70" transform="translate(383 558)" fill="#b20d0d"/>
    <g id="Grupo_983545" data-name="Grupo 983545" transform="translate(383.135 592.315)">
      <g id="Grupo_983544" data-name="Grupo 983544" clip-path="url(#clip-path)">
        <g id="Grupo_983541" data-name="Grupo 983541" transform="translate(0 -0.001)">
          <g id="Grupo_983540" data-name="Grupo 983540" clip-path="url(#clip-path-2)">
            <g id="Grupo_983539" data-name="Grupo 983539" transform="translate(0 16.875)" style="mix-blend-mode: multiply;isolation: isolate">
              <g id="Grupo_983538" data-name="Grupo 983538">
                <g id="Grupo_983537" data-name="Grupo 983537" clip-path="url(#clip-path-3)">
                  <path id="Trazado_718027" data-name="Trazado 718027" d="M118.865,79.3l-2.657-1.523-.571,2.03-1.474.444-3.276-3.237-1.478.185-.659,2-.073,3.566-1.281.871-3.153-4.072-.07,4.077L101.4,80.1l-.742,2.389L99.8,84.753l-2.06-1.806L95.853,81.5l-.617,3.509L93.99,86.23,92.4,85.98l-2.429-4.606-.511,5.142L88.228,88.2l-1.682-.985-1.376,1-1.7-1.5-1.331,1.529-1.861-3.722-1.314,1.8-1.577-1.49-1.188,5.171-1.573-1.227-1.49.724-1.537-1.858-1.486-2.687-1.5,3.039-1.493-.177-1.548,1.2-1.3-3.839L62.436,90.46l-1.3-2.864-1.229-2.8-1.2-2.392-1.9,3.65-1.093-2.849L53.4,88.735l-1.044-2.949-2.124,3.33L49.7,83.978l-.89-2.805L46.92,83.011l-2.348,3.408-.215-5.087-1.546.195L40.59,83.9l-1.686.384.236-5.375-2.775,3.569-2.283,1.847.326-4.932-1.426-.323L29.57,83.188l.452-4.579-.305-2.642-3.153,3.023-.281-2.559-3.39,3,.338-3.463-2.774,1.61-.465-2.032.663-3.469-2.753,1.3.9-3.444L17.293,69.6,12.806,72.44l2.277-4.515L10.8,70.09l-2.394.065,2.535-4.108L8.233,66.3l-3.017.232,5.848-5.468-.829-.955-.927-.919-3.925.3,1.64-2.1-.236-1.278.364-1.387L3.542,54.1,1.648,52.857l-.886-1.5L6.2,49.91l.2-1.224L0,46.481l3.112-1.015.8-1.3,1.233-1.107,2.919-.332,1.244-.814-3.9-3.482,4.632,1.023L7.23,36.035l2.579.038-.642-2.312,1.224-.909,3.346,1.1-1.589-3.542L16.874,33.3l.906-.984L14.271,25.89l4.263,2.987.7-1.466L19.1,24.634l4.051,3.471-.43-3.393.906-1.347,1.711.044,1.776.25L28.25,22.7l1.123-1.025,1.333-.606.561-2.456,3.52,4.777.8-1.855,1.654.38-.334-5.459,2.541,3.02.95-1.894,1.643.383,1.978,1.763.9-2.351,2.008,2.2.5-4.507,1.774,1.268.8-3.835,1.6.334L53.8,17.174l1.532.485,1.048-3.325,1.575.708,1.63,1.577,1.2-3.273,1.377-1.855,1.811,5.527,1.463.433,1.447.313,1.406-2.614,1.479-4.14,1.516.591,1.343,6.028,1.6-3.849L75.6,15.9l1.831-5.229,1.252,3.438,1.107,3.956,1.57-1.127L83.2,14.005l1.528-.128,1.757-1.534.829,4.22,1.491-.011,1.877-1.886,1.426.514,2.007-2.01L95.189,15.2l.473,4.086,1.589-.307L99.183,17.6l2.432-2.736L100.65,22.5l2.8-3.645,1.232.925,2.641-2.636.435,2.914-.218,4.137,3.033-3.163.19,2.955,2.876-2.43-.128,3.338,3.623-3.406-.31,3.428.631,1.733,1.673.095,3.482-2.348.612,1.766-1.977,4.867,2.664-.988.353,1.754,1.347.633,1.308.707-.794,2.582,2.087.006,5.4-2.3-4.54,5.013,2.481.011,4.005-.606-5.588,4.445,7.261-1.739-.707,1.942-4.238,2.816,3.112.541,3.444.836-1.116,1.706-1.779,1.572,3.627,1.466.293,1.638L136.8,54.257l-1.21,1.225-1.746.968-1.972.719-1.123.876,6.224,4.247-1.769.873.244,1.943-4.288-.93.6,2.187-1.962.346.4,2.25-.841,1.29-5.417-3.281.4,2.37.06,2.195-1.915-.057-.746,1.363-.484,1.8-2.97-1.733-.31,2.12Z" transform="translate(0 -10.672)" fill="#e0e0e0"/>
                </g>
              </g>
            </g>
          </g>
        </g>
        <path id="Trazado_718028" data-name="Trazado 718028" d="M114.041,74.272l-3.276-1.11L109.4,75.575l-2.207.773-3.746-3.03-2.184.414-1.539,2.239-1.143,3.82-2.117,1.023-3.446-4.092-1.281,4.254-3.084-3.613-1.787,2.46-1.91,2.3-2.566-1.9-2.429-1.559-1.89,3.487-2.2,1.115-2.312-.414-2.416-4.869-2.135,5.016-2.3,1.472L64.448,83.2l-2.324.719L59.953,82.1l-2.389,1.186-1.831-4.091L53.3,80.59l-1.97-1.9-3.109,4.636L46.2,81.611l-2.405.166L42.018,79.4l-1.45-3.188L37.54,78.483l-2.122-.855-2.589.4-.723-4.344L27.891,77.7,26.95,74.2l-.778-3.412-.784-3.028L21.521,69.9l-.37-3.474-5.244,3.338-.12-3.634L11.6,67.247l1.82-5.187.52-3.31-3-.335-4.459.174,3.189-4.345L8.323,52.576l-3.4-1.208L3.6,49.2,8.5,46.44,4.279,44.359l-2.2-2.707L7.19,40.308l.46-2.081-3.7-4.152,4.984-.054,3.074-.544L10.144,29.3l3.118-.283-1.306-4.579,3.873.794.115-3.586,2.785-.185L22.4,22.911l.6-3.357,3.512,1.8,1.645-1.534-.028-5.4,3.961,3.523.5-4.889,1.637-2.369,3.588,3.586,1.558-2.7,1.611-2.943,4,6.9,2.079-.626,2.073-.735,1.605-3.808,2.533,1.885,2.215-.07,2.258.473,1.961-3.382,2.176-1.735,2.271-.813L66.5,11.832l2.2.12L71.11,5.726l2.181,2.8,2.239.549,2.184.957,1.95,2.671,2.078,1,2.936-4.5,1.474,4.606,2.989-3.6,1.781,2.429,2.658-1.327,2.128.862,1.263,3.571,3.257-2.7.342,5.595,2.073.607,4.873-5.631.04,5.324,2.353.283,3.151-.984-.631,5.43,3.578-1.384,2.31.742,1.3,2.067,1.044,2.236,1.872,1.3L124.415,30l1.447,1.776,3.036.835-3.877,4.674,2.176,1.26-.18,2.209,5.647,1.044-3.292,2.744,1.586,2.222-1,2.19L127.4,50.591l1.349,2.655-3.188.941,2.761,3.975-2.571,1.1,1.45,4.1-2.064,1.486-4.878-1.6-2.06.939.25,3.879-2.361.648-2.815-.193Z" transform="translate(1.211 3.328)" fill="#ffa43b"/>
        <path id="Trazado_718029" data-name="Trazado 718029" d="M75.645,0,73.912,5.229l-1.3-2.119L71.1,6.957,69.826.93,68.391.338l-1.4,4.14-1.33,2.614L64.294,6.78l-1.385-.433L61.2.819l-1.3,1.856L58.76,5.947,57.216,4.37l-1.49-.707-.993,3.324L53.285,6.5,51.214,2.174,49.7,1.842l-.757,3.835-1.679-1.27-.476,4.508-1.9-2.206L44.03,9.061,42.159,7.3l-1.554-.383-.9,1.894L37.3,5.789l.318,5.46-1.565-.381L35.3,12.724,31.963,7.947,31.435,10.4l-1.262.607-1.063,1.025-1.077.954-1.679-.248-1.621-.046-.857,1.347.408,3.393-3.833-3.471.133,2.778-.666,1.464L15.885,15.22l3.321,6.428-.857.984-4.473-2.887,1.505,3.542L12.213,22.18l-1.158.911.609,2.31-2.442-.036,2.657,3.414L7.5,27.758l3.689,3.48-1.178.816-2.761.33L6.081,33.493l-.754,1.3L2.382,35.811l6.052,2.2-.185,1.222L3.1,40.689l.838,1.5,1.792,1.238,3.416.639L8.8,45.451l.223,1.278-1.551,2.1,3.713-.3.878.92.783.955L7.316,55.865l2.856-.231,2.562-.258-2.4,4.107,2.268-.065,4.05-2.163L14.5,61.768l4.246-2.838,1.431.337-.854,3.444,2.6-1.306L21.3,64.873l.44,2.034L24.362,65.3l-.321,3.465,3.208-3,.266,2.559L30.5,65.294l.289,2.642-.429,4.581L33.586,68.4l1.35.321-.308,4.934L36.789,71.8l2.627-3.569-.225,5.376,1.594-.384,2.1-2.373,1.463-.195.2,5.089,2.222-3.409L48.561,70.5l.844,2.807.506,5.136,2.01-3.329.988,2.949,2.19-5.531,1.034,2.851,1.8-3.651,1.134,2.392,1.162,2.8,1.229,2.865,1.735-5.261,1.227,3.838,1.464-1.2,1.412.177L68.714,74.3l1.406,2.687,1.455,1.86,1.41-.724,1.486,1.227L75.6,74.178l1.493,1.488,1.243-1.8,1.762,3.722,1.259-1.529,1.613,1.5,1.3-1.006,1.591.987,1.169-1.689.484-5.142,2.3,4.606,1.5.251,1.18-1.222.583-3.51,1.788,1.448,1.951,1.806.808-2.261.7-2.391,2.62,3.545.068-4.077,2.982,4.073,1.211-.873.068-3.566.623-2,1.4-.183,3.1,3.237,1.395-.446.541-2.03,2.514,1.523-.854-4.271.294-2.12,2.81,1.735.457-1.8.707-1.363,1.811.057-.055-2.195-.38-2.369,5.125,3.28.8-1.289-.375-2.252,1.856-.346-.566-2.187,4.058.93-.229-1.943,1.673-.871-5.889-4.249,1.063-.874,1.866-.721,1.652-.968,1.145-1.227,2.9-1.188-.277-1.64L131,39.29l1.684-1.57,1.056-1.706-3.257-.836-2.946-.542,4.01-2.816.667-1.94-6.869,1.738,5.286-4.445-3.789.606-2.348-.011,4.3-5.013-5.111,2.3-1.975,0,.751-2.584-1.238-.705-1.273-.634-.335-1.752-2.519.987,1.867-4.866-.579-1.768-3.294,2.348-1.581-.095-.6-1.732.293-3.43-3.427,3.408.12-3.338-2.721,2.429L107,10.367l-2.868,3.161.207-4.137-.411-2.913-2.5,2.636-1.164-.925-2.647,3.643.911-7.641-2.3,2.736L94.4,8.3l-1.5.307-.448-4.086L91.423,2.5l-1.9,2.01-1.35-.514L86.4,5.881l-1.411.011L84.2,1.673,82.542,3.207,81.1,3.333,79.362,6.266,77.876,7.394,76.829,3.438Z" transform="translate(1.385 0)" fill="#ffbd59"/>
        <g id="Grupo_983543" data-name="Grupo 983543" transform="translate(0 -0.001)">
          <g id="Grupo_983542" data-name="Grupo 983542" clip-path="url(#clip-path-2)">
            <path id="Trazado_718030" data-name="Trazado 718030" d="M85.655,12.94l-3.873,4.2a7.679,7.679,0,0,0-.449-1.589c-.122,0-4.483.9-4.483.9l.244-1.553-.651-1.953L72.774,14l-1.591-.734L69.8,10.943l-2.487,1.222-.693-2.772L64.3,11.227l-1.02-2.021-2.527,1.369-1.917-.857L55.858,8.008l-2.405.324-1.224,1.795-2.568.612-1.63-.816L45.6,9.475,43.22,7.8,41.672,6.743h2.935l1.956-5.5L47.5,7.518l1.589.814,1.387-3.055,1.344,1.63.49-4.443L54.756,6.54l1.346.9.862-1.02,3.868-3.178L62.665,8.13l2.241-1.956s3.67-3.18,3.67-3.058.814,6.074.814,6.074l2.079,1.224L75.138,5.6l-1.713,5.5,1.02.612,2.772-2.511,3.3-1.526.571,6.075,1.834.122.938-2.976.2,2.65,2.241-2.12.653,3.461L89.324,12l.285,2.891,1.992.968-4.22,1.278-1.237,1.63-1.869-1.3H83.209Z" transform="translate(24.223 0.721)" fill="#ffd36e"/>
            <path id="Trazado_718031" data-name="Trazado 718031" d="M14.629,15.971l1.651,2.048s2.77,1.559,3.251,1.743,5.18,2.421,5.18,2.421h1.414L23.557,18.1l2.261-.637,4.281.56.367-2.048,1.346-.734,1.161.734,2.141-2.751a5.072,5.072,0,0,1,.55.917c.062.245,2.263-1.9,2.263-1.9l1.324-1.956L41.8,11.936l1.384.244,3.547.591,4.707-1.814L54.59,9.926l3.82-.131L54.251,1.6,52.028,6.648l-2-1.194-1.956,2.2L45.813,7.41,43.979,1.6l-.734,4.219L41.152,6a1,1,0,0,0-.6,1.039c.123.734.307,1.466.307,1.466H38.048l-.674-1.654-.549,2.94L35.235,8.122l-1.651-.4V10.04L30.711,7.472V6.188l.8,4.831-2.079-.062L28.9,12.771l-1.494.387L25.88,9.795l-.734,2.385L21.991,11.1l.4,2.117-2.864.245-.378,1.219.378.859-1.784,1.917,1.284,1.1Z" transform="translate(8.504 0.932)" fill="#ffd36e"/>
            <path id="Trazado_718032" data-name="Trazado 718032" d="M98.833,30.252l-.92,1.565.607,1.781-.685,1.546.841,2.094.117.293-.274.04-2.641.294.508,2.484L94.977,41.5l-3.052-.685.117,2.68-.274,2.6L89.147,45.4l-1.271,1.292-.764,2.25-1.428,1.194-1.879.2-1.918-.059-.353-.275-2.171-1.722-.332,3.836-.06.587-1.017-.549L76.82,51.56l-.313.353-.587.685-.489.568-.705-.645-.293-.275-1.233-1.1-.411.509-1,1.233L69.835,51.58,68,50.5,66.431,51.52l-1.7-.194L63.2,53.086l-.077.06L61.4,52.206,59.9,54.515l-.176.255-.021-.04-1.682-2.056L56.353,51.8l-1.643-.509-1.624-.666-1.918,1.9-.881-.588-.685-.449-1.682-.215-.783.723L45.749,53.3l-.1-.43-.764-3.482-2,.977-.979.92-1.505,1.428-.588-3.6-.019-.177-1.428.764-.841.449-.236-.43-.822-1.526-1.036-.451-.53-.234-.1-.43L34.3,45.024l-1.428.783-1.252.666-1.645-.685-1.76-.568.332-3.267-1.682-.568-1.448-.9-.47-1.781H22.072l.841-2.114.2-.47L22.719,34.6l-.255-1.507-.138-.038-3.561-.939-1-1.9-.04-2.054,3.463-1.213.47-1.565-.47-2.113,1.586-1.037.038-.021-.019-.077-.489-2.5,1.428.04,1.35.019-.392-1.565-.449-1.82,2.484.079h.021l2.914,1L29.372,15.6l-.353-2.269,2.916,1.407.664-2.367,2.72,1.664.275-3.561,1.505-1,2.486,1.781,1.624-.451,1.9.607,1.115-2.5L45.67,7.5l2.173,2.152,1.447-1.624,1.6-.958,1.956,2.113,1.722.745,1.664-.06,1.6-1.447,1.682.8,1.7-1.1,1.624,1.624L64.61,8.454,66.136,10.1l2.192-4.089,1.8-.04L71.361,9l1.292,2.133L74.609,10,76.976,7.79,77.525,12l2.916-3.365.449,3.816L83.825,9.8l1.429,1.154,1,1.958,2.386-.685-.547,3.346-.2,1.192,2.388-1.6,1.526-1.037-.215.881-.822,3.365L93.08,18.3,93.04,20.7l.8,1.388,1.937.549,2.935.293.234,1.937.1,1.879,2.25,1.467Z" transform="translate(10.305 3.471)" fill="#ffa43b"/>
            <path id="Trazado_718033" data-name="Trazado 718033" d="M86.563,32.965l-.7.939.449,1.037-.528.9.743,1.409-2.25.176.392,1.467-1.1.685-2.367-.41.1,1.564-.215,1.528-2.035-.411-.958.724-.04.038-.587,1.331-1.1.685-.783.059-.685.059-.391-.019-1.1-.021-.353-.215-1.6-.958L71.3,44.9l-.019.2-.117,1.037L69.5,45.468l-1.1.939-1.722-1.175-1.1,1.018-1.507-.783-1.428-.626-1.213.607-1.311-.119-.372.334-.079.059-.783.685-1.349-.568-1.1,1.252-.2.215-.04.04L54.9,46.113,53.612,45.6l-1.271-.293-1.252-.392L49.6,46.035l-1.233-.607-1.29-.136-1.684,1.192-.215-.762L44.73,44.2l-1.037.372-.509.194-.979.686-.958.685-.47-2.212-1.762.724-.547-.783-.274-.372L37,43.1l-.47-1.467-.157.059-1.448.587-.489.2-.587-.177-.685-.215L31.8,41.75l.194-1.428.059-.49-.685-.176-.606-.157-1.135-.528-.2-.587-.157-.451h-2.23l.8-1.526-.313-.9-.2-.881-2.876-.568L23.7,32.946l-.04-1.194,2.7-.724.351-.92-.372-1.232,1.271-.607-.391-1.526,2.152.04-.645-2,1.937.059,2.269.587-.508-2.388,2.269.822L35.2,22.5l2.113.979.215-2.094,1.154-.588,1.937,1.037,1.252-.255,1.486.353.843-1.467.977-.7.157-.119,1.682,1.252,1.116-.939,1.252-.568,1.505,1.233,1.35.451,1.273-.04,1.251-.86,1.312.468,1.33-.626,1.232.939,1.371-.762,1.192.977,1.7-2.407,1.39-.019.625,1.154.334.626,1,1.252,1.526-.666,1.839-1.29.43,2.465L72.3,20.3l.351,2.231,2.271-1.546,1.115.685L76.8,22.81l1.86-.392-.568,2.661,3.033-1.565-.8,2.5L82.1,25.96l-.04,1.409.626.822,1.507.332,2.269.176.2,1.116.059,1.1,1.762.86Z" transform="translate(13.751 10.893)" fill="#e67d22"/>
            <path id="Trazado_718034" data-name="Trazado 718034" d="M91.367,17.841l-9.32-2.22-3.118.827L75.565,19.2l-3.24-.122-2.935-.245,1.467,4.586s-8.438-1.467-8.621-1.467-9.662-2.1-9.662-2.1l-4.1-14.13-4.953,2.53-1.448,2.1s-2.649.648-2.709,1.32S40,17.841,40,17.841l-4.056-.775-10.517,1.4s-2.834,4.859-3.24,5.25-5.2,3.8-5.2,3.8l5.6,4.094S18.21,32.73,18.517,33s3.362,2.774,3.362,2.774L24.2,38.582,30.623,41l19.138,4.432L61.2,47.349s.307.054.307,1.116,3.656,3,3.656,3l6.151.955,5.479,1.02s23.487-19.007,22.475-23.047-7.9-12.554-7.9-12.554" transform="translate(9.875 3.328)" fill="#e67d22"/>
            <path id="Trazado_718035" data-name="Trazado 718035" d="M62.255,27.782a27.286,27.286,0,0,1,.438,10.152c-.965,5.421-4.421,9.345-11.774,10.832C42.783,50.41,34.532,44.841,32.41,34.341s1.474-27.97,9.63-29.507a7.483,7.483,0,0,1,3.7.291c7.212,2.249,14.7,13.708,16.513,22.657" transform="translate(18.491 2.744)" fill="#f7bf97"/>
            <path id="Trazado_718036" data-name="Trazado 718036" d="M62.693,37.935c-.966,5.419-4.421,9.345-11.774,10.832C42.783,50.411,34.532,44.84,32.41,34.342s1.474-27.97,9.63-29.507a7.483,7.483,0,0,1,3.7.291s-8.767-2.19-8.689,13.45c.06,15.629,7.606,31.23,20.226,24.271a16.089,16.089,0,0,0,5.414-4.913" transform="translate(18.491 2.745)" fill="#ebb086"/>
            <path id="Trazado_718037" data-name="Trazado 718037" d="M40.463,6.287h0a1.932,1.932,0,0,0-1.935,2.731l.022.046a8.221,8.221,0,0,0,6.7,4.753,1.932,1.932,0,0,0,1.935-2.731l-.021-.046a8.22,8.22,0,0,0-6.706-4.753" transform="translate(22.291 3.65)" fill="#ffd3b4"/>
            <path id="Trazado_718038" data-name="Trazado 718038" d="M53.362,39.916a10.565,10.565,0,0,1-.391,2.348.357.357,0,0,0-.04.157c-.079.234-.157.47-.236.685-.1.255-.215.509-.332.764a9.078,9.078,0,0,1-.724,1.349.431.431,0,0,0-.079.119c-.155.255-.332.489-.508.723-.2.236-.372.47-.587.685a12.965,12.965,0,0,1-1.762,1.664c-.255.215-.528.411-.8.607a6.983,6.983,0,0,1-.607.43c-.077.058-.176.117-.255.176V49.6l-.449-1.507-1.037.372-1.39,1.311-.1-.43-.958.685-.47-2.211-1.762.724-.547-.783L38.824,49.19l-.509-3.169-.077-.43-.47.194-.979.392-.841.449-.234-.43-.685-.215-1.369-.332.194-1.429-.528-.234-.1-.432-.606-.155-1.135-.53-.2-.587-1.252.666L28.4,42.264,26.634,41.7l.334-3.267-1.684-.568-1.447-.9-.47-1.782H21.82c-.194-.781-.391-1.584-.547-2.407-.1-.489-.2-.977-.274-1.486-.1-.568-.177-1.154-.255-1.741v-.021c-.1-.783-.177-1.545-.215-2.309-.059-.743-.079-1.486-.079-2.23,0-.588.021-1.175.04-1.762.04-.451.077-.881.117-1.311.019-.138.04-.294.059-.451.059-.449.117-.879.2-1.311,0-.038.019-.077.019-.136.1-.451.2-.881.313-1.311a8.439,8.439,0,0,1,.392-1.252A1.853,1.853,0,0,1,21.762,17c.117-.293.255-.587.392-.86a5.648,5.648,0,0,1,.43-.745,5.65,5.65,0,0,1,.666-.958,1.781,1.781,0,0,1,.312-.353,6.339,6.339,0,0,1,1.684-1.29,3.743,3.743,0,0,1,.762-.334,3.487,3.487,0,0,1,.587-.176,2.39,2.39,0,0,1,.509-.117,4.106,4.106,0,0,1,.685-.1,7.169,7.169,0,0,1,.92-.04c5.811.04,13.442,5.5,18.333,11.622a29.421,29.421,0,0,1,3.033,4.521,25.869,25.869,0,0,1,3.21,9.157,14.5,14.5,0,0,1,.077,2.582" transform="translate(11.888 6.995)" fill="#ffd3b4"/>
            <path id="Trazado_718039" data-name="Trazado 718039" d="M37.768,45.785l-.979.391-.841.451-.234-.43-.685-.215-1.369-.334.194-1.428-.528-.234-.1-.432-.606-.157-1.135-.528-.2-.587-1.252.666L28.4,42.264,26.634,41.7l.334-3.269-1.684-.566-1.447-.9-.47-1.781H21.82c-.194-.783-.391-1.584-.547-2.407-.1-.489-.2-.977-.274-1.486-.1-.568-.177-1.154-.255-1.741v-.021c-.1-.783-.177-1.545-.215-2.309-.059-.743-.079-1.486-.079-2.231,0-.587.021-1.173.04-1.76.04-.451.077-.881.117-1.311.019-.138.04-.294.059-.451.059-.449.117-.881.2-1.311,0-.04.019-.077.019-.136.1-.451.2-.881.313-1.312a8.477,8.477,0,0,1,.392-1.251A1.853,1.853,0,0,1,21.762,17c.117-.294.255-.587.392-.862a5.734,5.734,0,0,1,.43-.743,5.588,5.588,0,0,1,.666-.958,1.781,1.781,0,0,1,.312-.353,6.339,6.339,0,0,1,1.684-1.29,3.743,3.743,0,0,1,.762-.334,3.487,3.487,0,0,1,.587-.176,2.39,2.39,0,0,1,.509-.117,3.947,3.947,0,0,1,.685-.1,7.169,7.169,0,0,1,.92-.04s-8.629.43-4.227,14.714c2.6,8.472,7.631,16.2,13.286,19.039" transform="translate(11.888 6.995)" fill="#ffc095"/>
            <path id="Trazado_718040" data-name="Trazado 718040" d="M46.8,30.615a13.482,13.482,0,0,1-.391,2.348.357.357,0,0,0-.04.157c-.079.234-.157.47-.236.685-.1.255-.215.509-.332.764a9.078,9.078,0,0,1-.724,1.349.431.431,0,0,0-.079.119c-.155.255-.332.489-.508.723-.2.236-.372.47-.587.685a12.965,12.965,0,0,1-1.762,1.664c-.255.215-.528.411-.8.607a6.984,6.984,0,0,1-.607.43,2.764,2.764,0,0,1-.255.157l-.449-1.507-1.037.372L37.6,40.476l-.1-.43-.958.685-.47-2.211-1.762.724-.547-.783-1.507,1.428-.509-3.169c3.7,1.643,7.671,1.134,11.388-2.682a15.328,15.328,0,0,0,3.582-6.006,14.494,14.494,0,0,1,.077,2.582" transform="translate(18.454 16.296)" fill="#ffc095"/>
            <path id="Trazado_718041" data-name="Trazado 718041" d="M25.718,13.545h0A1.846,1.846,0,0,0,24.7,16.578l.033.036A7.852,7.852,0,0,0,32.185,19.1,1.846,1.846,0,0,0,33.2,16.071l-.032-.036a7.851,7.851,0,0,0-7.449-2.489" transform="translate(14.089 7.782)" fill="#ffeada"/>
            <path id="Trazado_718042" data-name="Trazado 718042" d="M85.484,23.616c-.1.549-.215,1.1-.332,1.664-.138.568-.294,1.154-.451,1.722-.176.568-.353,1.115-.549,1.682a.282.282,0,0,1-.038.117c-.2.568-.411,1.135-.647,1.682-.215.528-.43,1.037-.664,1.546-.334.762-.705,1.526-1.1,2.25l-2.622.294.508,2.484-1.409,1.154-3.052-.685.117,2.68-.274,2.6-2.622-.705L71.083,43.4l-.764,2.25-1.428,1.194-1.879.2L65.1,46.98l-.351-.275-.04.04-.587,1.33-1.1.686-.783.059-.059.587-1.018-.549-1.1-.019-.353-.215-.587.685a4.512,4.512,0,0,1-.509-.1c-.253-.059-.489-.117-.723-.176-.079-.021-.157-.04-.215-.059a1.6,1.6,0,0,1-.334-.119c-.332-.1-.666-.215-1-.332a14.178,14.178,0,0,1-4.872-3.267c-5.244-5.381-5.889-10.566-3.62-15.595a22.773,22.773,0,0,1,3.718-5.636c.724-.841,1.507-1.664,2.367-2.5A39.317,39.317,0,0,1,71.3,12.288a15.143,15.143,0,0,1,2.192-.411A10.127,10.127,0,0,1,74.8,11.72a14.479,14.479,0,0,1,5.538.411s.059.019.157.059a7.06,7.06,0,0,1,3.071,1.781,6.264,6.264,0,0,1,1,1.29,7.6,7.6,0,0,1,.685,1.528,11.241,11.241,0,0,1,.392,1.741,16.7,16.7,0,0,1-.157,5.087" transform="translate(27.098 6.761)" fill="#ffd3b4"/>
            <path id="Trazado_718043" data-name="Trazado 718043" d="M85.484,23.41c-.1.549-.215,1.1-.332,1.664-.138.568-.294,1.154-.451,1.722-.176.568-.353,1.115-.549,1.682a.282.282,0,0,1-.038.117c-.2.568-.411,1.135-.647,1.682-.215.528-.43,1.037-.664,1.546-.334.762-.705,1.526-1.1,2.25l-2.622.294.508,2.484-1.409,1.154-3.052-.685L75.25,40l-.274,2.6L72.355,41.9l-1.271,1.292-.764,2.25-1.428,1.194-1.879.2L65.1,46.774l-.351-.275-.04.04-.587,1.33-1.1.686-.783.059-.059.587-1.018-.549-1.1-.019-.353-.215-.587.685a4.512,4.512,0,0,1-.509-.1c-.253-.059-.489-.117-.723-.176-.079-.021-.157-.04-.215-.059a1.6,1.6,0,0,1-.334-.119c-.332-.1-.666-.215-1-.332a14.178,14.178,0,0,1-4.872-3.267c-5.244-5.381-5.889-10.566-3.62-15.595a15.718,15.718,0,0,0,1.7,7.1c6.5,12.875,21.524,4.247,30.387-8.629,8.159-11.817,1.663-15.417.549-15.946a7.06,7.06,0,0,1,3.071,1.781,6.264,6.264,0,0,1,1,1.29,7.6,7.6,0,0,1,.685,1.528,9.408,9.408,0,0,1,.392,1.741,16.7,16.7,0,0,1-.157,5.087" transform="translate(27.098 6.967)" fill="#ffc095"/>
            <path id="Trazado_718044" data-name="Trazado 718044" d="M71.365,13.927h0a1.932,1.932,0,0,1,.06,3.346l-.044.027a8.218,8.218,0,0,1-8.218.145A1.932,1.932,0,0,1,63.1,14.1l.044-.027a8.218,8.218,0,0,1,8.218-.145" transform="translate(36.136 7.497)" fill="#ffeada"/>
            <path id="Trazado_718045" data-name="Trazado 718045" d="M25.74,16.766l-8.928-5.381,5.5,4.831-3.242.122a2.847,2.847,0,0,0-1.9,1.151A7.66,7.66,0,0,1,14.427,19.4l-3.24-2.446,2.139,3.18,2.324,2.139-3.792.305-3.3-.489L13.877,25.2l2.018,3.975L9.17,26.611,5.134,28.2s-1.467.55.794.979a77.069,77.069,0,0,1,7.949,2.568l7.46,2.873.305-3.212-3.362-5.593,7.948-2.805-4.769-1.9,3.18-1.284,2.018-1.773,1.9-1.713Z" transform="translate(2.712 6.618)" fill="#ffd36e"/>
            <path id="Trazado_718046" data-name="Trazado 718046" d="M30.154,29.37l-8.479-.391a25.033,25.033,0,0,1-3.1.827c-.816.082-3.669-.465-4.647-.436S7,25.731,7,25.731H4.472l5.952,4.084.245,2.519-2.854.571,5.626.9h6.033l-2.16,1.385s-4.606,1.5-5.1,1.649a29.111,29.111,0,0,0-3.261,3l7.766-.489,5.441-.682,1.958-2.946,9.213-.939L22.083,40.65l-3.506,1.418-1.3-.862,1.5,3.854,4.043-.416,3.749-1.363s-3.261,2.26-3.341,2.668-1.029,4.973-1.029,4.973L27.79,47.58l-2.355,2.364h1.947l5.3-2.772-1.548,4.892,3.675-1.142,4.4-1.875s-4.227,3.831-4.4,4.077a11.754,11.754,0,0,0,0,2.446l3.009-3.506,3.343-1.63,1.061-.49-1.779,5.3,6.181-3.67,5.136-1.385-1.793,3.261-1.142,1.142.571,4.81,2.364-2.527,2.772-2.854,3.509.163,1.545,4.077v3.506l3.093-4.81s1.392,3.343,1.554,3.669,3.1-3.669,3.1-3.669l2.035-.814,1.747,4.077,1.6,2.445,3.1-6.441,2.777-2.282,3.012-.408v3.749l2.609,3.914,2.119-8.8,3.751,5.789-.245-9.54L85.1,42.932l-2.527,1.875L80.293,44.2H77.358l-1.63,2.242-4.159-3.156L69.7,44.2,67.82,45.461l-5.707,3.016-2.691-3.016-.489-3.751-5.707,5.218L51.759,44.2l.455-2.989-4.124,1.4-1.882.675L45.154,40l-2.69.326H39.692l.245-2.772-4.485,1.113-4.4.844,4.679-2.672-2.559-1.118.569-2.253L30.887,31.03l1.63-1.66-2.282-1.6Z" transform="translate(2.599 14.958)" fill="#ffd36e"/>
            <path id="Trazado_718047" data-name="Trazado 718047" d="M57.133,52.13l6.237,1.529-1.284,5.258,4.342,1.591-1.286,3.729,1.286,1.529,3.765-5.625L69,63.931,71.5,59.774s1.346,3.974,1.346,4.341V56.594l-5.014-2.385s9.722,4.035,9.845,4.464A16.942,16.942,0,0,0,80.246,61l1.834-3.363L79.818,54.82l4.831-.794,2.261.61L83.792,49.2s2.324-1.222,2.813-.917,3.669-.062,3.914-.062a22.469,22.469,0,0,1,2.506,1.529L91.8,45.71l-.734-1.589,5.808.794,2.478,1.14-2.721-2.669-5.81-4.462,6.543-1.651,5.2-1.1s-7.949-3-8.133-3,2.53-1.638,2.53-1.638l3.89-1.358L95.1,29.69l-5.625-2.018L97,26.2l2.751-.49H89.968l8.817-3.276-7.35-.269,2.018-2.63H87.827l.245-2.935L86.6,15.381l-2.873,1.224.183-3.669a38.7,38.7,0,0,0,2.751-3.058c-.307.122-6.818,2.263-6.818,2.263l.98,4.953,2.72,1.162-.367,2.2-.123,1.956,2.751,2.079-4.157,3.24L83.058,31.1,85.137,32.5l-2.263.916-2.568,1.834.522,3.854-6.942.977L72.847,41l-.674,3.18-2.873.183-.855,3.058-2.079,2.139-3.485.122.429,1.958-2.671-2.263-1.671,1.467-3.852.44Z" transform="translate(32.037 5.741)" fill="#ffd36e"/>
          </g>
        </g>
      </g>
    </g>
  </g>
</svg>
