<svg xmlns="http://www.w3.org/2000/svg" xmlns:xlink="http://www.w3.org/1999/xlink" width="140" height="140" viewBox="0 0 140 140">
  <defs>
    <clipPath id="clip-path">
      <rect id="Rectángulo_344370" data-name="Rectángulo 344370" width="105.058" height="109.034" fill="none"/>
    </clipPath>
    <clipPath id="clip-path-3">
      <rect id="Rectángulo_344355" data-name="Rectángulo 344355" width="2.361" height="2.177" fill="none"/>
    </clipPath>
    <clipPath id="clip-path-5">
      <rect id="Rectángulo_344357" data-name="Rectángulo 344357" width="36.372" height="32.404" fill="none"/>
    </clipPath>
    <clipPath id="clip-path-6">
      <rect id="Rectángulo_344358" data-name="Rectángulo 344358" width="26.912" height="10.343" fill="none"/>
    </clipPath>
    <clipPath id="clip-path-7">
      <rect id="Rectángulo_344359" data-name="Rectángulo 344359" width="2.092" height="2.445" fill="none"/>
    </clipPath>
    <clipPath id="clip-path-9">
      <rect id="Rectángulo_344361" data-name="Rectángulo 344361" width="33.734" height="35.275" fill="none"/>
    </clipPath>
    <clipPath id="clip-path-10">
      <rect id="Rectángulo_344362" data-name="Rectángulo 344362" width="27.365" height="7.688" fill="none"/>
    </clipPath>
    <clipPath id="clip-path-11">
      <rect id="Rectángulo_344363" data-name="Rectángulo 344363" width="12.241" height="12.993" fill="none"/>
    </clipPath>
    <clipPath id="clip-path-12">
      <rect id="Rectángulo_344364" data-name="Rectángulo 344364" width="13.583" height="12.685" fill="none"/>
    </clipPath>
    <clipPath id="clip-path-13">
      <rect id="Rectángulo_344367" data-name="Rectángulo 344367" width="88.708" height="88.708" fill="none"/>
    </clipPath>
    <clipPath id="clip-path-14">
      <rect id="Rectángulo_344368" data-name="Rectángulo 344368" width="80.104" height="64.98" fill="none"/>
    </clipPath>
  </defs>
  <g id="Grupo_983939" data-name="Grupo 983939" transform="translate(-730 -558)">
    <circle id="Elipse_5839" data-name="Elipse 5839" cx="70" cy="70" r="70" transform="translate(730 558)" fill="#06d1d1"/>
    <g id="Grupo_983585" data-name="Grupo 983585" transform="translate(744.471 575)">
      <g id="Grupo_983584" data-name="Grupo 983584" clip-path="url(#clip-path)">
        <g id="Grupo_983583" data-name="Grupo 983583">
          <g id="Grupo_983582" data-name="Grupo 983582" clip-path="url(#clip-path)">
            <path id="Trazado_718048" data-name="Trazado 718048" d="M259.4,26.629l-2.07-1.561L271.4,6.407a1.3,1.3,0,0,1,2.07,1.561Z" transform="translate(-174.752 -4.001)" fill="#ffc727"/>
            <g id="Grupo_983548" data-name="Grupo 983548" transform="translate(82.574 20.451)" opacity="0.1">
              <g id="Grupo_983547" data-name="Grupo 983547">
                <g id="Grupo_983546" data-name="Grupo 983546" clip-path="url(#clip-path-3)">
                  <path id="Trazado_718049" data-name="Trazado 718049" d="M257.79,63.733l1.9,1.792-.291.385-2.07-1.561Z" transform="translate(-257.326 -63.733)"/>
                </g>
              </g>
            </g>
            <g id="Grupo_983551" data-name="Grupo 983551" transform="translate(83.492 19.463)" opacity="0.1">
              <g id="Grupo_983550" data-name="Grupo 983550">
                <g id="Grupo_983549" data-name="Grupo 983549" clip-path="url(#clip-path-3)">
                  <path id="Trazado_718050" data-name="Trazado 718050" d="M262.084,62.832l-1.9-1.792.291-.385,2.07,1.561Z" transform="translate(-260.187 -60.654)"/>
                </g>
              </g>
            </g>
            <path id="Trazado_718051" data-name="Trazado 718051" d="M246.339,32.4,214.047,8.046A20.224,20.224,0,1,1,246.339,32.4" transform="translate(-145.361 0.001)" fill="#ffc727"/>
            <g id="Grupo_983554" data-name="Grupo 983554" transform="translate(68.686)" opacity="0.5">
              <g id="Grupo_983553" data-name="Grupo 983553">
                <g id="Grupo_983552" data-name="Grupo 983552" clip-path="url(#clip-path-5)">
                  <path id="Trazado_718052" data-name="Trazado 718052" d="M246.339,32.4,214.047,8.046A20.224,20.224,0,1,1,246.339,32.4" transform="translate(-214.047 0.001)" fill="#fff"/>
                </g>
              </g>
            </g>
            <g id="Grupo_983557" data-name="Grupo 983557" transform="translate(70.729 0.768)" opacity="0.5">
              <g id="Grupo_983556" data-name="Grupo 983556">
                <g id="Grupo_983555" data-name="Grupo 983555" clip-path="url(#clip-path-6)">
                  <path id="Trazado_718053" data-name="Trazado 718053" d="M247.325,6.248c-7.582-4.767-18.466-2.029-24.891,6.489l-2.021-1.525c6.727-8.918,18.338-11.5,25.934-5.77.34.257.665.525.978.806" transform="translate(-220.413 -2.394)" fill="#fff"/>
                </g>
              </g>
            </g>
            <path id="Trazado_718054" data-name="Trazado 718054" d="M27.318,51.972l1.732-1.93L11.656,34.429a1.3,1.3,0,1,0-1.732,1.93Z" transform="translate(-6.447 -23.156)" fill="#ffc727"/>
            <g id="Grupo_983560" data-name="Grupo 983560" transform="translate(20.511 26.372)" opacity="0.1">
              <g id="Grupo_983559" data-name="Grupo 983559">
                <g id="Grupo_983558" data-name="Grupo 983558" clip-path="url(#clip-path-7)">
                  <path id="Trazado_718055" data-name="Trazado 718055" d="M65.437,82.183,63.919,84.3l.359.322,1.732-1.93Z" transform="translate(-63.919 -82.183)"/>
                </g>
              </g>
            </g>
            <g id="Grupo_983563" data-name="Grupo 983563" transform="translate(19.376 25.545)" opacity="0.1">
              <g id="Grupo_983562" data-name="Grupo 983562">
                <g id="Grupo_983561" data-name="Grupo 983561" clip-path="url(#clip-path-7)">
                  <path id="Trazado_718056" data-name="Trazado 718056" d="M60.957,82.052l1.518-2.122-.359-.322-1.732,1.93Z" transform="translate(-60.383 -79.607)"/>
                </g>
              </g>
            </g>
            <path id="Trazado_718057" data-name="Trazado 718057" d="M6.715,54.813l27.019-30.1a20.224,20.224,0,0,0-27.019,30.1" transform="translate(0 -13.269)" fill="#ffc727"/>
            <g id="Grupo_983566" data-name="Grupo 983566" transform="translate(0 6.27)" opacity="0.5">
              <g id="Grupo_983565" data-name="Grupo 983565">
                <g id="Grupo_983564" data-name="Grupo 983564" clip-path="url(#clip-path-9)">
                  <path id="Trazado_718058" data-name="Trazado 718058" d="M6.715,54.813l27.019-30.1a20.224,20.224,0,0,0-27.019,30.1" transform="translate(0 -19.538)" fill="#fff"/>
                </g>
              </g>
            </g>
            <g id="Grupo_983569" data-name="Grupo 983569" transform="translate(4.66 7.544)" opacity="0.5">
              <g id="Grupo_983568" data-name="Grupo 983568">
                <g id="Grupo_983567" data-name="Grupo 983567" clip-path="url(#clip-path-10)">
                  <path id="Trazado_718059" data-name="Trazado 718059" d="M14.523,29.6C21.049,23.471,32.257,24.07,40.2,31.2l1.691-1.884c-8.312-7.461-20.2-7.768-26.56-.687-.285.317-.552.643-.805.978" transform="translate(-14.523 -23.51)" fill="#fff"/>
                </g>
              </g>
            </g>
            <path id="Trazado_718060" data-name="Trazado 718060" d="M86.137,299.294,83.5,312.288l4.528-.439,7.713-7.74Z" transform="translate(-56.708 -203.253)" fill="#ffc727"/>
            <g id="Grupo_983572" data-name="Grupo 983572" transform="translate(26.795 96.041)" opacity="0.1">
              <g id="Grupo_983571" data-name="Grupo 983571">
                <g id="Grupo_983570" data-name="Grupo 983570" clip-path="url(#clip-path-11)">
                  <path id="Trazado_718061" data-name="Trazado 718061" d="M86.137,299.294,83.5,312.288l4.528-.439,7.713-7.74Z" transform="translate(-83.503 -299.294)"/>
                </g>
              </g>
            </g>
            <path id="Trazado_718062" data-name="Trazado 718062" d="M258.017,281.449l5.078,12.246-4.528.438-9.055-6.116Z" transform="translate(-169.446 -191.135)" fill="#ffc727"/>
            <g id="Grupo_983575" data-name="Grupo 983575" transform="translate(80.066 90.315)" opacity="0.1">
              <g id="Grupo_983574" data-name="Grupo 983574">
                <g id="Grupo_983573" data-name="Grupo 983573" clip-path="url(#clip-path-12)">
                  <path id="Trazado_718063" data-name="Trazado 718063" d="M258.017,281.449l5.078,12.246-4.528.438-9.055-6.116Z" transform="translate(-249.512 -281.449)"/>
                </g>
              </g>
            </g>
            <rect id="Rectángulo_344365" data-name="Rectángulo 344365" width="9.965" height="4.207" transform="translate(45.53 5.759) rotate(-5.531)" fill="#37474f"/>
            <rect id="Rectángulo_344366" data-name="Rectángulo 344366" width="4.884" height="3.95" transform="translate(48.465 9.701) rotate(-5.532)" fill="#37474f"/>
            <path id="Trazado_718064" data-name="Trazado 718064" d="M155.961,29.474l-4.83.788-.1-1.026,4.861-.471Z" transform="translate(-102.567 -19.535)" fill="#263238"/>
            <path id="Trazado_718065" data-name="Trazado 718065" d="M104.495,47.2a46.48,46.48,0,1,1-65.427,6.335A46.48,46.48,0,0,1,104.495,47.2" transform="translate(-19.333 -24.857)" fill="#ffc727"/>
            <g id="Grupo_983578" data-name="Grupo 983578" transform="translate(11.189 13.113)" opacity="0.1">
              <g id="Grupo_983577" data-name="Grupo 983577">
                <g id="Grupo_983576" data-name="Grupo 983576" clip-path="url(#clip-path-13)">
                  <path id="Trazado_718066" data-name="Trazado 718066" d="M123.366,80.945a44.351,44.351,0,1,1-48.419-39.87,44.351,44.351,0,0,1,48.419,39.87" transform="translate(-34.867 -40.866)"/>
                </g>
              </g>
            </g>
            <path id="Trazado_718067" data-name="Trazado 718067" d="M126.783,89.106A41.454,41.454,0,1,1,81.527,51.839a41.454,41.454,0,0,1,45.257,37.266" transform="translate(-29.925 -35.072)" fill="#fff"/>
            <g id="Grupo_983581" data-name="Grupo 983581" transform="translate(16.951 22.345)" opacity="0.05">
              <g id="Grupo_983580" data-name="Grupo 983580">
                <g id="Grupo_983579" data-name="Grupo 983579" clip-path="url(#clip-path-14)">
                  <path id="Trazado_718068" data-name="Trazado 718068" d="M131.775,95.608,56.965,128.3a41.131,41.131,0,0,1-4.141-7.952l59.742-50.717a41.416,41.416,0,0,1,19.21,25.975" transform="translate(-52.824 -69.633)"/>
                  <path id="Trazado_718069" data-name="Trazado 718069" d="M148.189,179.493a41.313,41.313,0,0,1-1.072,9.851L77.4,209.22c-.729-.726-1.432-1.484-2.1-2.265Z" transform="translate(-68.088 -144.24)"/>
                </g>
              </g>
            </g>
            <path id="Trazado_718070" data-name="Trazado 718070" d="M248.276,83.964l-1.927,2.34-.714-.588,1.926-2.34c.122.092.242.191.363.29s.238.2.352.3" transform="translate(-166.813 -56.621)" fill="#263238"/>
            <path id="Trazado_718071" data-name="Trazado 718071" d="M191.769,60.373l-.913-.154.5-3c.3.044.61.094.91.152Z" transform="translate(-129.612 -38.859)" fill="#263238"/>
            <path id="Trazado_718072" data-name="Trazado 718072" d="M129.974,66.035l-.864.324-1.065-2.849c.286-.112.574-.223.864-.324Z" transform="translate(-86.956 -42.91)" fill="#263238"/>
            <path id="Trazado_718073" data-name="Trazado 718073" d="M78.726,102.154l-.588.714L75.8,100.939c.092-.122.191-.242.29-.363s.2-.238.3-.351Z" transform="translate(-51.474 -68.064)" fill="#263238"/>
            <path id="Trazado_718074" data-name="Trazado 718074" d="M52.644,160.251l-3-.5c.041-.305.092-.607.147-.909l3,.5Z" transform="translate(-33.717 -107.872)" fill="#263238"/>
            <path id="Trazado_718075" data-name="Trazado 718075" d="M58.787,220.9l-2.849,1.065c-.115-.283-.223-.574-.324-.864l2.846-1.067Z" transform="translate(-37.769 -149.426)" fill="#263238"/>
            <path id="Trazado_718076" data-name="Trazado 718076" d="M95.288,269.748l-1.929,2.342c-.122-.092-.24-.189-.36-.288s-.241-.2-.354-.3l1.929-2.342Z" transform="translate(-62.916 -182.789)" fill="#263238"/>
            <path id="Trazado_718077" data-name="Trazado 718077" d="M152.173,297.783c-.3-.044-.61-.094-.91-.152l.5-3,.912.154Z" transform="translate(-102.724 -200.087)" fill="#263238"/>
            <path id="Trazado_718078" data-name="Trazado 718078" d="M214.39,291.452c-.286.113-.572.22-.864.319l-1.065-2.844.864-.324Z" transform="translate(-144.284 -195.993)" fill="#263238"/>
            <path id="Trazado_718079" data-name="Trazado 718079" d="M264.231,255.5c-.1.12-.2.241-.3.354l-2.342-1.929.588-.714,2.342,1.929c-.092.122-.189.24-.288.36" transform="translate(-177.647 -171.96)" fill="#263238"/>
            <path id="Trazado_718080" data-name="Trazado 718080" d="M290.059,199.851l-3-.5.152-.91,3,.5c-.044.3-.1.607-.152.91" transform="translate(-194.944 -134.764)" fill="#263238"/>
            <path id="Trazado_718081" data-name="Trazado 718081" d="M284.189,136.489l-2.846,1.067-.326-.866,2.849-1.065c.115.283.223.574.324.864" transform="translate(-190.841 -92.104)" fill="#263238"/>
            <path id="Trazado_718082" data-name="Trazado 718082" d="M204.186,181.033l-37.747-2.609.437-3.917,37.429,5.462Z" transform="translate(-113.03 -118.509)" fill="#ffc727"/>
            <path id="Trazado_718083" data-name="Trazado 718083" d="M163.445,92.841l4.689,30.358-3.928.327-1.828-30.6Z" transform="translate(-110.273 -63.049)" fill="#263238"/>
            <path id="Trazado_718084" data-name="Trazado 718084" d="M137.889,194.752l10.583-22.185,3.439,1.926-13.088,20.783Z" transform="translate(-93.642 -117.192)" fill="#263238"/>
            <path id="Trazado_718085" data-name="Trazado 718085" d="M171.75,177.86a1.345,1.345,0,1,1-1.469-1.209,1.345,1.345,0,0,1,1.469,1.209" transform="translate(-114.814 -119.961)" fill="#ffc727"/>
            <path id="Trazado_718086" data-name="Trazado 718086" d="M155.372,63.376l.365,3.772a.358.358,0,0,1-.324.386.348.348,0,0,1-.386-.318l-.3-3.145-.242.172a.323.323,0,0,1-.174.069.36.36,0,0,1-.249-.641l.741-.543c.006-.007.019-.008.024-.015s.018-.015.03-.022.025-.009.038-.01a.037.037,0,0,1,.025-.009.11.11,0,0,1,.044-.011l.02,0h.006l.045,0a.038.038,0,0,0,.026,0,.069.069,0,0,1,.04.009.039.039,0,0,1,.026,0c.02.011.027.017.04.016a.083.083,0,0,0,.027.017c.007.006.021.011.028.017a.1.1,0,0,1,.028.023.084.084,0,0,1,.022.024l.028.023.008.012c0,.006.008.012.008.019s.014.018.016.03.009.025.016.031a.3.3,0,0,0,.01.031.055.055,0,0,0,.017.043l0,.019" transform="translate(-104.525 -42.821)" fill="#263238"/>
            <path id="Trazado_718087" data-name="Trazado 718087" d="M164.36,66.268a.348.348,0,0,1-.317.386l-2.264.219h-.013a.346.346,0,0,1-.273-.09.355.355,0,0,1-.029-.5l1.727-1.9a.807.807,0,0,0,.209-.64.833.833,0,0,0-.265-.536A.815.815,0,0,0,162.5,63a.841.841,0,0,0-.536.265l-.181.2a.35.35,0,0,1-.5.023.356.356,0,0,1-.023-.5l.181-.2a1.515,1.515,0,0,1,.991-.5,1.546,1.546,0,0,1,1.187.4,1.516,1.516,0,0,1,.5.991,1.548,1.548,0,0,1-.395,1.187l-1.1,1.21,1.362-.132a.354.354,0,0,1,.386.324" transform="translate(-109.446 -42.299)" fill="#263238"/>
            <path id="Trazado_718088" data-name="Trazado 718088" d="M217.113,72.211l.365,3.772a.358.358,0,0,1-.324.386.348.348,0,0,1-.386-.318l-.3-3.145-.241.172a.321.321,0,0,1-.174.068.36.36,0,0,1-.249-.641l.741-.543c.006-.007.019-.008.024-.015s.018-.015.03-.022.025-.009.038-.01a.036.036,0,0,1,.025-.009.108.108,0,0,1,.044-.011l.019,0h.006l.045,0a.038.038,0,0,0,.026,0,.068.068,0,0,1,.04.009.038.038,0,0,1,.026,0c.021.011.028.017.041.016a.081.081,0,0,0,.027.017c.007.006.021.011.028.017a.091.091,0,0,1,.028.023.089.089,0,0,1,.022.024l.028.023.008.012c0,.006.007.012.008.019s.015.018.016.03.009.025.016.031a.223.223,0,0,0,.01.031c0,.019,0,.032.017.043l0,.019" transform="translate(-146.454 -48.82)" fill="#263238"/>
            <path id="Trazado_718089" data-name="Trazado 718089" d="M101.718,83.384l.365,3.772a.358.358,0,0,1-.324.386.348.348,0,0,1-.386-.318l-.3-3.145-.242.172a.323.323,0,0,1-.174.069.36.36,0,0,1-.249-.641l.741-.543c.006-.007.019-.008.024-.015s.018-.015.03-.022.025-.009.038-.01a.037.037,0,0,1,.025-.009.11.11,0,0,1,.044-.011l.02,0h.006l.045,0a.038.038,0,0,0,.026,0,.069.069,0,0,1,.04.009.039.039,0,0,1,.026,0c.02.011.027.017.04.016a.093.093,0,0,0,.028.017c.007.006.021.011.028.017a.1.1,0,0,1,.028.023.084.084,0,0,1,.021.024l.028.023.008.012c0,.006.008.012.008.019s.014.018.016.03.009.025.016.031a.281.281,0,0,0,.01.031.055.055,0,0,0,.017.043l0,.019" transform="translate(-68.088 -56.408)" fill="#263238"/>
            <path id="Trazado_718090" data-name="Trazado 718090" d="M108.391,82.738l.365,3.772a.358.358,0,0,1-.324.386.348.348,0,0,1-.386-.318l-.3-3.145-.242.172a.323.323,0,0,1-.174.069.36.36,0,0,1-.249-.641l.741-.543c.006-.007.019-.008.024-.015s.018-.015.03-.022.025-.009.038-.01a.039.039,0,0,1,.025-.009.115.115,0,0,1,.044-.011l.019,0h.006l.045,0a.038.038,0,0,0,.026,0,.069.069,0,0,1,.04.009.038.038,0,0,1,.026,0c.021.011.028.017.04.016a.083.083,0,0,0,.027.017c.007.006.021.011.028.017a.1.1,0,0,1,.028.023.084.084,0,0,1,.021.024l.028.023.008.012c0,.007.008.013.008.019s.014.018.016.03.009.025.016.031a.28.28,0,0,0,.01.031.055.055,0,0,0,.017.043l0,.019" transform="translate(-72.62 -55.969)" fill="#263238"/>
            <path id="Trazado_718091" data-name="Trazado 718091" d="M263.42,113.351a.348.348,0,0,1-.318.386l-2.263.219h-.013a.347.347,0,0,1-.273-.09.355.355,0,0,1-.029-.5l1.726-1.9a.8.8,0,0,0,.21-.64.834.834,0,0,0-.265-.536.815.815,0,0,0-.64-.209.844.844,0,0,0-.536.265l-.181.2a.349.349,0,0,1-.5.022.355.355,0,0,1-.023-.5l.181-.2a1.516,1.516,0,0,1,.991-.5,1.547,1.547,0,0,1,1.187.4,1.517,1.517,0,0,1,.5.991,1.548,1.548,0,0,1-.4,1.187l-1.1,1.21,1.362-.132a.354.354,0,0,1,.386.324" transform="translate(-176.719 -74.274)" fill="#263238"/>
            <path id="Trazado_718092" data-name="Trazado 718092" d="M63.75,128.922l.365,3.772a.358.358,0,0,1-.324.386.348.348,0,0,1-.386-.318l-.3-3.145-.242.172a.323.323,0,0,1-.174.069.36.36,0,0,1-.249-.641l.741-.543c.006-.007.019-.008.024-.015s.018-.015.03-.022.025-.009.038-.01a.039.039,0,0,1,.025-.009.115.115,0,0,1,.044-.011l.019,0h.006l.045,0a.038.038,0,0,0,.026,0,.069.069,0,0,1,.04.009.039.039,0,0,1,.026,0c.02.011.027.017.04.016a.086.086,0,0,0,.028.017c.007.006.02.011.027.017a.1.1,0,0,1,.028.023.089.089,0,0,1,.022.024l.028.023.008.012c0,.007.008.013.008.019s.014.018.016.03.009.025.016.031a.251.251,0,0,0,.01.031.055.055,0,0,0,.017.044l0,.019" transform="translate(-42.304 -87.333)" fill="#263238"/>
            <path id="Trazado_718093" data-name="Trazado 718093" d="M69.9,130.155a2.752,2.752,0,0,1,.287-1.57,1.352,1.352,0,0,1,2.372-.23,2.953,2.953,0,0,1,.3,3.056,1.352,1.352,0,0,1-2.372.229,2.767,2.767,0,0,1-.583-1.486m2.525-.245a2.134,2.134,0,0,0-.417-1.108.746.746,0,0,0-.632-.332.772.772,0,0,0-.57.449,2.263,2.263,0,0,0,.219,2.27.783.783,0,0,0,.646.337.755.755,0,0,0,.556-.454,2.108,2.108,0,0,0,.2-1.161" transform="translate(-47.464 -86.759)" fill="#263238"/>
            <path id="Trazado_718094" data-name="Trazado 718094" d="M57.138,186.5a1.559,1.559,0,0,1,3.079-.459c0,.006,0,.006.007.012.018.121.036.242.048.363a3.762,3.762,0,0,1-.1,1.332,2.248,2.248,0,0,1-.719,1.173,1.84,1.84,0,0,1-.93.393.359.359,0,0,1-.4-.3.372.372,0,0,1,.309-.4,1.177,1.177,0,0,0,.584-.237,1.485,1.485,0,0,0,.426-.661,1.522,1.522,0,0,1-.6.187,1.557,1.557,0,0,1-1.7-1.4m.709-.069a.845.845,0,1,0,1.681-.163.845.845,0,0,0-1.681.163" transform="translate(-38.798 -125.495)" fill="#263238"/>
            <path id="Trazado_718095" data-name="Trazado 718095" d="M282.77,164.7a1.569,1.569,0,0,1,.575,1.074,1.594,1.594,0,0,1-2.6,1.388.363.363,0,0,1,.462-.561.856.856,0,0,0,.632.191.881.881,0,0,0,.589-.309.86.86,0,0,0,.2-.639.835.835,0,0,0-.314-.583.862.862,0,0,0-.632-.2.317.317,0,0,1-.273-.09c-.006,0-.006,0-.007-.006a.365.365,0,0,1-.063-.51l.588-.728-1.036.1a.363.363,0,0,1-.07-.723l1.886-.183a.36.36,0,0,1,.4.323.379.379,0,0,1-.028.177.446.446,0,0,1-.055.1l-.725.909a1.455,1.455,0,0,1,.478.27" transform="translate(-190.484 -110.642)" fill="#263238"/>
            <path id="Trazado_718096" data-name="Trazado 718096" d="M272.887,223.171a.354.354,0,0,1-.324.386l-.064.006.047.486a.353.353,0,0,1-.7.068l-.047-.486-2,.194h-.013a.314.314,0,0,1-.225-.056.343.343,0,0,1-.105-.486l2.081-3.17c.006,0,.006-.007.012-.014a.089.089,0,0,0,.017-.028.069.069,0,0,0,.03-.022c.006-.007.018-.015.024-.021a.068.068,0,0,1,.037-.017c.005-.013.011-.02.024-.021s.019-.009.037-.017a.042.042,0,0,0,.025-.009l.044,0h.026l.039,0a.057.057,0,0,0,.032,0c.007.005.026,0,.04.009s.02,0,.026,0,.028.017.035.023.02.011.034.016a.006.006,0,0,1,.007.005c.006,0,.02,0,.021.011l.028.023c.007.006.015.018.022.023a.19.19,0,0,1,.029.03.049.049,0,0,0,.015.025.271.271,0,0,1,.016.037c0,.006.009.019.009.025a.071.071,0,0,1,.01.038c0,.013.008.018.01.031l0,.019.25,2.583.064-.006a.358.358,0,0,1,.392.317m-1.312-1.822-1.119,1.7,1.272-.123Z" transform="translate(-182.947 -149.373)" fill="#263238"/>
            <path id="Trazado_718097" data-name="Trazado 718097" d="M81.1,241.64a1.535,1.535,0,1,1-2.495-1.043,1.036,1.036,0,0,1-.272-.612,1.06,1.06,0,0,1,2.11-.2,1.036,1.036,0,0,1-.15.653,1.542,1.542,0,0,1,.807,1.206m-.7.067a.836.836,0,0,0-.906-.751.832.832,0,1,0,.16,1.656.831.831,0,0,0,.745-.9m-1.374-1.79a.36.36,0,1,0,.716-.069.36.36,0,0,0-.716.069" transform="translate(-52.996 -162.191)" fill="#263238"/>
            <path id="Trazado_718098" data-name="Trazado 718098" d="M235.882,267.592a1.573,1.573,0,0,1,.575,1.08,1.6,1.6,0,0,1-.358,1.164,1.57,1.57,0,0,1-1.074.575h-.013a1.556,1.556,0,0,1-1.158-.359.353.353,0,0,1-.049-.511.365.365,0,0,1,.511-.05.86.86,0,0,0,1.221-.118.872.872,0,0,0,.2-.632.839.839,0,0,0-.315-.589.829.829,0,0,0-.632-.191.852.852,0,0,0-.589.309.365.365,0,0,1-.512.049c-.028-.023-.05-.054-.078-.076,0-.013,0-.019-.008-.019a.049.049,0,0,0-.016-.03c0-.019-.009-.031-.011-.044s-.007-.006-.008-.012a.319.319,0,0,1-.011-.109l.031-1.674a.391.391,0,0,1,.135-.271c.012-.007.019-.008.024-.015s.012-.008.018-.014a.353.353,0,0,1,.163-.055l1.886-.183a.363.363,0,1,1,.07.722l-1.573.152-.015.64a1.647,1.647,0,0,1,.423-.1,1.571,1.571,0,0,1,1.164.358" transform="translate(-158.609 -180.518)" fill="#263238"/>
            <path id="Trazado_718099" data-name="Trazado 718099" d="M125.188,276.967l-1.233,3.934a.337.337,0,0,1-.305.242.351.351,0,0,1-.137-.013.364.364,0,0,1-.236-.442l1.063-3.413-1.65.16a.362.362,0,0,1-.386-.324.352.352,0,0,1,.317-.385l2.193-.212a.239.239,0,0,1,.064,0,.576.576,0,0,1,.139.038l.021.017a.048.048,0,0,1,.028.023.1.1,0,0,0,.028.023.089.089,0,0,0,.021.024.067.067,0,0,1,.016.031.111.111,0,0,0,.029.03c0,.006.009.025.01.031s.008.019.016.031a.517.517,0,0,1,.013.141c0,.026-.008.046-.013.066" transform="translate(-83.057 -187.781)" fill="#263238"/>
            <path id="Trazado_718100" data-name="Trazado 718100" d="M182.456,287.79a1.559,1.559,0,0,1-3.079.46c0-.006,0-.006-.008-.012-.018-.121-.036-.242-.048-.363a3.769,3.769,0,0,1,.1-1.332,2.247,2.247,0,0,1,.719-1.173,1.838,1.838,0,0,1,.93-.393.359.359,0,0,1,.4.3.372.372,0,0,1-.309.4,1.179,1.179,0,0,0-.584.237,1.476,1.476,0,0,0-.426.661,1.513,1.513,0,0,1,.6-.187,1.557,1.557,0,0,1,1.7,1.4m-.71.069a.845.845,0,1,0-1.681.163.845.845,0,0,0,1.681-.163" transform="translate(-121.765 -193.527)" fill="#263238"/>
          </g>
        </g>
      </g>
    </g>
  </g>
</svg>
