<svg xmlns="http://www.w3.org/2000/svg" xmlns:xlink="http://www.w3.org/1999/xlink" width="217.741" height="139.52" viewBox="0 0 217.741 139.52">
  <defs>
    <clipPath id="clip-path">
      <rect id="Rectángulo_344646" data-name="Rectángulo 344646" width="217.741" height="139.52" fill="none"/>
    </clipPath>
  </defs>
  <g id="Grupo_983914" data-name="Grupo 983914" clip-path="url(#clip-path)">
    <path id="Trazado_720313" data-name="Trazado 720313" d="M112.466,72.322c64.36,0,99.219-10.762,102.966-11.983a1.963,1.963,0,0,0,.1-.6c0-7.483-44.629-13.549-99.681-13.549s-99.68,6.066-99.68,13.549a1.965,1.965,0,0,0,.107.619c3.511,1.328,33.579,11.962,96.186,11.962" transform="translate(-6.928 -19.786)" fill="#8c4d37"/>
    <path id="Trazado_720314" data-name="Trazado 720314" d="M338.369,43.72l-5-2.208c.037-.083,3.683-8.363,6.618-17.2,5.083-15.3,3.512-18.474,3.274-18.836-.33-.039-2.475-.043-8.659,5.1-5.914,4.92-13.909,13.205-23.763,24.625L306.7,31.637c10.571-12.253,19.1-21.012,25.356-26.035,4.44-3.565,10.058-7.327,14.128-4.752,4.14,2.618,3.9,10.167-.779,24.476-3.059,9.357-6.879,18.029-7.04,18.393" transform="translate(-131.377 0)" fill="#8c4d37"/>
    <path id="Trazado_720315" data-name="Trazado 720315" d="M10.748,43.72c-.161-.365-3.981-9.037-7.04-18.393C-.971,11.018-1.211,3.469,2.929.85,7-1.725,12.618,2.038,17.057,5.6c6.254,5.023,14.786,13.782,25.357,26.035l-4.138,3.569C28.422,23.786,20.428,15.5,14.514,10.581c-6.181-5.14-8.328-5.14-8.659-5.1C5.616,5.843,4.043,9.026,9.14,24.35c2.937,8.831,6.571,17.08,6.607,17.162Z" transform="translate(0 0)" fill="#8c4d37"/>
    <path id="Trazado_720316" data-name="Trazado 720316" d="M215.534,60.588c0,7.483-44.629,13.549-99.681,13.549S16.173,68.071,16.173,60.588,60.8,47.039,115.854,47.039s99.681,6.066,99.681,13.549" transform="translate(-6.928 -20.149)" fill="#8c4d37"/>
    <path id="Trazado_720317" data-name="Trazado 720317" d="M39.874,80.99A46.648,46.648,0,0,1,27.822,65.909c-.017-.033-.032-.067-.048-.1q-.247-.515-.472-1.029l-.065-.151q-.213-.492-.4-.982c-.022-.055-.044-.111-.065-.167q-.187-.486-.352-.969c-.018-.053-.038-.105-.055-.158q-.169-.5-.314-1c-.01-.034-.021-.068-.031-.1a20.8,20.8,0,0,1-.673-3.257c0-.037-.006-.072-.01-.108-.034-.3-.06-.6-.077-.895-.005-.09-.006-.178-.01-.268-.01-.239-.016-.476-.014-.711,0-.11.005-.218.009-.327.007-.211.017-.42.034-.626.01-.118.022-.234.034-.35.021-.193.047-.385.077-.575.019-.119.039-.237.062-.355.035-.183.077-.364.121-.544.029-.115.056-.23.088-.344.051-.18.11-.354.171-.529.037-.106.071-.214.111-.319.072-.186.154-.366.238-.546.04-.086.075-.175.118-.259a8.712,8.712,0,0,1,.432-.763c.112-.176.236-.346.365-.512.113-.149.234-.292.358-.434h0c5.343-6.1,21.082-6.11,32.791,1.357a35.081,35.081,0,0,1,6.727,5.478h0c.333.354.647.711.951,1.071.066.078.13.157.2.236q.363.44.7.885c.057.074.114.149.169.224.268.364.524.73.763,1.1.018.029.034.057.053.085.217.336.419.674.612,1.014q.075.132.148.265.266.484.5.97c.023.049.05.1.073.147q.264.562.485,1.127c.028.071.053.143.08.214q.176.466.324.932c.028.089.057.177.083.265a16.645,16.645,0,0,1,.509,2.26c.013.089.025.178.037.268q.063.464.1.927c.006.075.013.151.018.227.023.377.033.755.028,1.131,0,.05,0,.1-.005.149-.007.326-.026.651-.054.976-.009.093-.017.186-.027.28-.035.332-.079.663-.136.992-.007.041-.011.082-.019.122-.067.371-.149.741-.244,1.108-.021.079-.044.159-.066.238q-.121.445-.269.886c-.029.087-.057.173-.087.26-.129.365-.269.728-.425,1.088h0A18.053,18.053,0,0,1,70.126,78.3c-5.869,9.2-19.019,11.979-30.251,2.69" transform="translate(-10.808 -19.32)" fill="#f08f4a"/>
    <path id="Trazado_720318" data-name="Trazado 720318" d="M32.829,72.229a.649.649,0,0,1-.538-.285,14.343,14.343,0,0,1-1.955-10.712.65.65,0,1,1,1.262.314,13.261,13.261,0,0,0,1.769,9.667.651.651,0,0,1-.537,1.016" transform="translate(-12.862 -26.017)" fill="#ffe09c"/>
    <path id="Trazado_720319" data-name="Trazado 720319" d="M191.405,18.807A46.653,46.653,0,0,1,204.952,5.054l.094-.059q.483-.306.966-.591l.142-.082q.463-.27.927-.518l.158-.085q.461-.244.92-.465l.151-.073q.48-.228.959-.432l.1-.042a20.715,20.715,0,0,1,3.154-1.054l.106-.023c.295-.069.588-.131.879-.182.089-.016.176-.027.264-.042.237-.038.472-.072.7-.1.11-.012.218-.021.326-.03.21-.018.418-.033.625-.041.118-.005.235-.007.352-.008.195,0,.388,0,.58.009.121,0,.24.01.36.019.186.013.371.033.554.056.118.014.236.028.352.047.184.029.365.067.545.107.11.024.221.045.329.073.193.05.382.11.571.172.09.029.182.054.272.086.275.1.545.212.809.338.188.09.371.193.551.3.161.094.318.2.474.3h0c6.694,4.582,8.564,20.21,2.536,32.721a35.08,35.08,0,0,1-4.642,7.329h0c-.312.372-.629.727-.95,1.072-.07.075-.141.147-.212.222q-.394.412-.8.8c-.067.065-.134.131-.2.194-.33.309-.663.607-1,.888-.026.022-.053.041-.078.062-.308.255-.62.5-.934.728l-.246.178q-.448.321-.9.612c-.046.029-.091.061-.137.089-.351.22-.705.424-1.062.616-.067.036-.135.069-.2.1q-.441.231-.887.432c-.085.038-.169.077-.254.114a16.561,16.561,0,0,1-2.183.773c-.087.024-.174.046-.262.069q-.453.117-.909.206c-.074.014-.148.031-.223.045q-.558.1-1.12.162c-.049.005-.1.007-.148.012q-.487.047-.976.062l-.281.006c-.333,0-.667,0-1-.017-.042,0-.082,0-.124,0-.376-.022-.753-.06-1.13-.11-.081-.011-.162-.025-.244-.037q-.456-.068-.912-.163c-.09-.018-.179-.036-.268-.056-.377-.085-.754-.181-1.13-.293h0a17.959,17.959,0,0,1-2.635-1.027c-9.832-4.738-14.148-17.467-6.254-29.719" transform="translate(-80.236 -0.527)" fill="#f08f4a"/>
    <path id="Trazado_720320" data-name="Trazado 720320" d="M220.078,10.667a.651.651,0,0,1-.427-1.142,14.348,14.348,0,0,1,10.405-3.21.65.65,0,0,1-.162,1.291,13.256,13.256,0,0,0-9.389,2.9.648.648,0,0,1-.426.159" transform="translate(-93.992 -2.679)" fill="#ffe09c"/>
    <path id="Trazado_720321" data-name="Trazado 720321" d="M243.632,58.687a46.656,46.656,0,0,1,9.118-17.016l.074-.083q.376-.43.76-.839l.113-.119q.37-.389.743-.757l.129-.126q.373-.364.752-.705l.124-.113q.4-.355.8-.684l.082-.069a20.746,20.746,0,0,1,2.729-1.9l.1-.052q.4-.225.792-.424c.081-.04.161-.076.242-.114.216-.1.432-.2.648-.292.1-.043.2-.081.3-.121.2-.077.392-.15.588-.216.112-.038.224-.073.336-.107q.28-.085.559-.155c.117-.029.234-.058.35-.083.183-.04.365-.073.548-.1.117-.019.234-.039.351-.054.185-.024.369-.039.553-.051.113-.008.225-.019.337-.023.2-.007.4,0,.6,0,.094,0,.19,0,.284.006a8.759,8.759,0,0,1,.872.1c.206.034.41.081.614.134.181.045.361.1.54.158h0c7.715,2.508,13.917,16.975,11.661,30.678a35.072,35.072,0,0,1-2.387,8.34h0c-.194.445-.4.875-.61,1.3-.046.092-.093.182-.14.273q-.262.507-.539.99c-.046.081-.091.163-.139.243q-.344.585-.709,1.134c-.018.028-.038.054-.057.082q-.336.5-.691.961-.093.122-.186.241-.34.435-.695.841c-.036.041-.07.084-.106.125q-.412.464-.845.89c-.054.053-.11.1-.165.157q-.358.345-.729.664c-.07.061-.14.122-.211.181a16.624,16.624,0,0,1-1.877,1.357c-.077.047-.154.093-.232.139q-.4.24-.813.454c-.067.035-.134.072-.2.106q-.507.255-1.028.471l-.139.054q-.454.182-.919.334-.134.045-.268.086c-.318.1-.64.188-.966.266l-.12.031c-.368.085-.739.154-1.115.213l-.244.033q-.457.063-.921.1c-.091.007-.181.015-.273.022-.386.025-.775.039-1.167.037h0a18.025,18.025,0,0,1-2.818-.243c-10.769-1.773-18.5-12.768-14.382-26.749" transform="translate(-103.878 -14.768)" fill="#f08f4a"/>
    <path id="Trazado_720322" data-name="Trazado 720322" d="M263.624,46.975a.651.651,0,0,1-.548-1,14.345,14.345,0,0,1,9.078-6.015.651.651,0,0,1,.208,1.285,13.258,13.258,0,0,0-8.19,5.431.649.649,0,0,1-.548.3" transform="translate(-112.645 -17.113)" fill="#ffe09c"/>
    <path id="Trazado_720323" data-name="Trazado 720323" d="M285.3,68.747a46.644,46.644,0,0,1,15.758-11.152l.1-.042q.529-.216,1.055-.41l.155-.057q.5-.184,1-.346l.172-.055q.5-.159.988-.3l.161-.045c.342-.094.682-.178,1.02-.256l.1-.025a20.685,20.685,0,0,1,3.29-.481l.109,0c.3-.016.6-.025.9-.025.09,0,.179,0,.268.006.239,0,.477.012.711.028.11.007.217.018.326.028.21.019.417.041.622.07.118.017.233.035.348.055.192.032.381.069.569.11.118.026.236.053.351.082.181.046.359.1.535.153.114.035.228.07.338.109.177.061.348.13.518.2.1.043.21.083.312.13.181.083.357.175.531.269.084.045.17.085.253.133.253.147.5.3.736.476.169.122.331.255.489.394.142.121.278.251.413.383h0c5.782,5.69,4.869,21.4-3.269,32.656a35.116,35.116,0,0,1-5.861,6.4h0c-.373.311-.748.6-1.124.887-.082.062-.164.121-.247.181q-.46.337-.924.646c-.077.051-.155.105-.232.155-.38.246-.759.48-1.141.7l-.089.048c-.348.2-.7.379-1.047.552-.091.045-.182.089-.274.132-.332.158-.664.306-1,.443l-.151.064q-.576.231-1.153.418c-.073.024-.146.044-.218.067q-.475.149-.95.269l-.27.067a16.634,16.634,0,0,1-2.285.376l-.269.021q-.467.035-.932.043c-.076,0-.151,0-.227,0-.378,0-.755-.011-1.131-.038-.049,0-.1-.01-.148-.014-.324-.026-.648-.064-.971-.111l-.278-.043q-.493-.081-.982-.193l-.121-.026c-.366-.088-.731-.192-1.092-.308-.078-.025-.156-.053-.233-.079q-.437-.147-.869-.321c-.085-.034-.169-.067-.254-.1-.356-.15-.711-.31-1.061-.488h0a18.037,18.037,0,0,1-2.413-1.476c-8.844-6.4-10.848-19.686-.919-30.356" transform="translate(-119.373 -23.796)" fill="#f08f4a"/>
    <path id="Trazado_720324" data-name="Trazado 720324" d="M318.839,63.241a.651.651,0,0,1-.334-1.209,14.346,14.346,0,0,1,10.808-1.327.651.651,0,0,1-.387,1.242,13.256,13.256,0,0,0-9.753,1.2.649.649,0,0,1-.333.092" transform="translate(-136.296 -25.785)" fill="#ffe09c"/>
    <path id="Trazado_720325" data-name="Trazado 720325" d="M89.75,65.368a46.646,46.646,0,0,1-2.091-19.191c0-.037.009-.073.013-.11q.069-.568.154-1.122l.026-.162q.084-.529.185-1.045c.011-.059.022-.118.034-.177q.1-.511.222-1.007c.013-.054.025-.109.038-.163q.128-.517.272-1.016c.01-.034.019-.069.029-.1a20.829,20.829,0,0,1,1.178-3.11c.016-.033.033-.064.049-.1q.2-.409.414-.8c.043-.078.09-.154.135-.231.12-.207.242-.41.369-.608.059-.092.122-.181.183-.271.118-.174.239-.345.364-.51.071-.094.143-.186.217-.278q.183-.228.373-.444c.08-.09.16-.179.242-.266.128-.136.26-.266.393-.394.086-.082.172-.165.259-.243.139-.124.283-.24.428-.355.088-.07.175-.143.265-.209.16-.118.326-.226.493-.333.08-.051.157-.107.238-.156a8.711,8.711,0,0,1,.773-.413c.189-.089.384-.166.582-.237.175-.065.354-.121.536-.174h0c7.782-2.289,21.073,6.141,26.955,18.722a35.086,35.086,0,0,1,2.743,8.229h0c.091.477.166.948.23,1.414.014.1.025.2.038.3q.071.566.115,1.122c.007.093.017.186.023.279.031.451.051.9.055,1.337,0,.034,0,.066,0,.1,0,.4-.007.793-.026,1.183-.005.1-.011.2-.018.3q-.034.55-.1,1.087c-.006.054-.01.109-.017.163-.052.41-.118.814-.194,1.211-.015.075-.032.149-.047.223q-.1.487-.226.96c-.024.09-.047.18-.072.269a16.646,16.646,0,0,1-.781,2.18c-.037.083-.075.164-.113.246q-.2.425-.415.835c-.035.067-.07.135-.106.2q-.274.5-.583.97c-.027.041-.057.081-.085.122-.181.271-.371.536-.569.795-.057.075-.114.149-.173.222q-.31.392-.647.765c-.027.031-.053.063-.081.093-.256.277-.523.545-.8.805-.06.056-.122.11-.183.165q-.341.311-.7.6c-.071.058-.141.115-.213.172-.3.238-.617.47-.942.691h0a18.015,18.015,0,0,1-2.462,1.392c-9.887,4.623-22.477-.082-26.98-13.944" transform="translate(-37.44 -13.609)" fill="#f08f4a"/>
    <path id="Trazado_720326" data-name="Trazado 720326" d="M92.681,51.189a.65.65,0,0,1-.65-.63,14.342,14.342,0,0,1,4.091-10.091.65.65,0,1,1,.9.942,13.257,13.257,0,0,0-3.688,9.109.65.65,0,0,1-.63.671h-.021" transform="translate(-39.419 -17.258)" fill="#ffe09c"/>
    <path id="Trazado_720327" data-name="Trazado 720327" d="M183.305,44.446a46.649,46.649,0,0,1,15.309,11.76l.07.086q.364.442.7.887l.1.131q.324.427.627.856l.1.147q.3.428.574.856l.091.141q.286.449.546.9c.018.031.037.061.054.091a20.8,20.8,0,0,1,1.432,3c.013.034.023.069.036.1.1.285.2.568.289.85.027.086.049.171.074.258.066.229.129.458.184.687.025.107.047.213.069.32.044.206.084.412.117.616.019.117.035.233.051.348q.039.29.062.577c.01.12.019.24.026.359.01.187.012.372.012.557,0,.119,0,.237,0,.355-.007.186-.022.37-.039.554-.01.112-.018.225-.032.336-.025.2-.062.392-.1.587-.018.093-.031.188-.053.28a8.641,8.641,0,0,1-.237.844c-.067.2-.146.392-.232.584-.074.171-.158.34-.244.507h0c-3.728,7.2-19.008,10.976-32.164,6.525a35.091,35.091,0,0,1-7.842-3.709h0c-.408-.264-.8-.536-1.18-.812-.083-.061-.164-.122-.246-.183q-.458-.34-.89-.692c-.072-.059-.146-.117-.217-.177-.347-.289-.683-.584-1-.884-.025-.023-.047-.046-.071-.07-.29-.274-.568-.555-.836-.837-.07-.074-.139-.148-.208-.222-.249-.27-.489-.544-.717-.822-.035-.042-.071-.083-.106-.125-.261-.321-.506-.648-.741-.978-.044-.062-.085-.126-.128-.188q-.283-.41-.537-.828c-.049-.079-.1-.158-.145-.238a16.628,16.628,0,0,1-1.034-2.072c-.035-.083-.067-.167-.1-.252q-.172-.436-.316-.877c-.023-.072-.049-.143-.071-.216q-.169-.542-.3-1.092c-.011-.048-.019-.1-.03-.145-.071-.318-.13-.639-.181-.961-.014-.093-.028-.185-.041-.278-.046-.33-.082-.663-.106-1,0-.041-.008-.082-.011-.123-.024-.376-.032-.755-.029-1.135,0-.082,0-.164.007-.246q.011-.461.05-.925c.007-.091.014-.182.023-.273.038-.385.087-.771.153-1.158h0a17.989,17.989,0,0,1,.7-2.741c3.5-10.339,15.6-16.181,28.729-9.848" transform="translate(-65.814 -17.914)" fill="#f08f4a"/>
    <path id="Trazado_720328" data-name="Trazado 720328" d="M164.586,55.441a.651.651,0,0,1-.548-1,14.345,14.345,0,0,1,9.078-6.015.651.651,0,0,1,.208,1.284,13.257,13.257,0,0,0-8.189,5.431.649.649,0,0,1-.548.3" transform="translate(-70.222 -20.739)" fill="#ffe09c"/>
    <path id="Trazado_720329" data-name="Trazado 720329" d="M190.019,140.575a12.622,12.622,0,0,1-7.471,7.463c-10.858,4-36.613,12.1-66.875,12.1-28.261,0-55.3-8.212-66.705-12.179a12.638,12.638,0,0,1-7.7-7.545L15.75,71.587s29.759,12.1,96.536,12.1c68.228,0,103.31-12.1,103.31-12.1Z" transform="translate(-6.747 -30.664)" fill="#966453"/>
    <path id="Trazado_720330" data-name="Trazado 720330" d="M186.748,199.48c-.827,0-1.653,0-2.483-.011a.26.26,0,0,1-.258-.262.255.255,0,0,1,.262-.258,247.665,247.665,0,0,0,55.613-5.536c5.423-1.2,10.329-2.519,15-4.031a.26.26,0,1,1,.161.5c-4.684,1.517-9.6,2.84-15.044,4.044a247.007,247.007,0,0,1-53.248,5.559" transform="translate(-78.82 -81.116)" fill="#382118"/>
    <path id="Trazado_720331" data-name="Trazado 720331" d="M111.25,196.913h-.012c-16.153-.73-31.795-5.532-44.964-10.132a.26.26,0,1,1,.172-.492c13.134,4.589,28.73,9.377,44.816,10.1a.26.26,0,0,1-.011.52" transform="translate(-28.314 -79.791)" fill="#382118"/>
    <path id="Trazado_720332" data-name="Trazado 720332" d="M285.461,170.325a.26.26,0,0,1-.046-.516,215.785,215.785,0,0,0,25.2-6.136.26.26,0,1,1,.155.5,216.356,216.356,0,0,1-25.261,6.152.26.26,0,0,1-.047,0" transform="translate(-122.166 -70.104)" fill="#382118"/>
    <path id="Trazado_720333" data-name="Trazado 720333" d="M149.347,180.918a226.956,226.956,0,0,1-37.487-2.665.26.26,0,1,1,.086-.513c20.5,3.43,41.436,2.785,61.683,2.161l3.962-.121a.26.26,0,0,1,.016.52l-3.962.121c-8.014.247-16.136.5-24.3.5" transform="translate(-47.822 -76.133)" fill="#382118"/>
    <path id="Trazado_720334" data-name="Trazado 720334" d="M60.631,167.255a.249.249,0,0,1-.067-.009c-3.215-.862-6.416-1.813-9.514-2.826a.26.26,0,0,1,.161-.494c3.09,1.01,6.282,1.958,9.487,2.818a.26.26,0,0,1-.067.512" transform="translate(-21.79 -70.212)" fill="#382118"/>
    <path id="Trazado_720335" data-name="Trazado 720335" d="M191.349,155.145q-1.77,0-3.538-.019a.26.26,0,0,1,0-.52h0a325.912,325.912,0,0,0,71.537-7.162.26.26,0,1,1,.109.509,326.524,326.524,0,0,1-68.114,7.192" transform="translate(-80.339 -63.155)" fill="#382118"/>
    <path id="Trazado_720336" data-name="Trazado 720336" d="M103.795,152.725h-.018a240.288,240.288,0,0,1-47.918-7.919.26.26,0,1,1,.141-.5,239.71,239.71,0,0,0,47.813,7.9.26.26,0,0,1-.018.52" transform="translate(-23.845 -61.809)" fill="#382118"/>
    <path id="Trazado_720337" data-name="Trazado 720337" d="M293.066,124.6a.26.26,0,0,1-.041-.517c9.952-1.611,20.187-3.711,30.419-6.241a.26.26,0,0,1,.125.505c-10.246,2.533-20.494,4.636-30.461,6.25a.257.257,0,0,1-.042,0" transform="translate(-125.424 -50.476)" fill="#382118"/>
    <path id="Trazado_720338" data-name="Trazado 720338" d="M153.5,135.575a368.661,368.661,0,0,1-42.618-2.377.26.26,0,1,1,.06-.517,385.983,385.983,0,0,0,59.684,2.038.262.262,0,0,1,.27.25.26.26,0,0,1-.25.27q-8.759.335-17.145.336" transform="translate(-47.398 -56.833)" fill="#382118"/>
    <path id="Trazado_720339" data-name="Trazado 720339" d="M45.128,120.662a.284.284,0,0,1-.062-.007c-3.791-.921-7.609-1.937-11.347-3.019a.26.26,0,1,1,.145-.5c3.731,1.08,7.541,2.094,11.325,3.013a.26.26,0,0,1-.061.513" transform="translate(-14.363 -50.171)" fill="#382118"/>
    <path id="Trazado_720340" data-name="Trazado 720340" d="M117.772,105.9c-57.915,0-91.511-9-91.844-9.091a.26.26,0,0,1-.182-.32.263.263,0,0,1,.32-.183c.332.091,33.869,9.073,91.707,9.073,58.806,0,96.051-8.984,96.42-9.074a.26.26,0,0,1,.124.5c-.37.091-37.676,9.09-96.544,9.09" transform="translate(-11.024 -41.249)" fill="#382118"/>
    <path id="Trazado_720341" data-name="Trazado 720341" d="M66.858,95.468a.265.265,0,0,1-.107-.023c-.161-.073-16.147-7.335-22.616-15a.26.26,0,0,1,.4-.335C50.925,87.684,66.805,94.9,66.965,94.971a.26.26,0,0,1-.107.5" transform="translate(-18.879 -34.276)" fill="#382118"/>
    <path id="Trazado_720342" data-name="Trazado 720342" d="M112.415,101.055a.254.254,0,0,1-.109-.024c-.169-.078-16.915-7.844-22.438-12.942a.26.26,0,1,1,.353-.382c5.463,5.043,22.135,12.774,22.3,12.851a.26.26,0,0,1-.109.5" transform="translate(-38.459 -37.54)" fill="#382118"/>
    <path id="Trazado_720343" data-name="Trazado 720343" d="M162.6,103.968a.258.258,0,0,1-.085-.014c-.154-.053-15.483-5.376-22.7-11.627a.26.26,0,1,1,.341-.393c7.138,6.186,22.371,11.475,22.525,11.528a.26.26,0,0,1-.085.506" transform="translate(-59.852 -39.352)" fill="#382118"/>
    <path id="Trazado_720344" data-name="Trazado 720344" d="M214.8,103.414a.279.279,0,0,1-.053-.005c-.165-.034-16.572-3.49-26.659-10.215a.26.26,0,1,1,.289-.433c10,6.668,26.313,10.1,26.476,10.138a.26.26,0,0,1-.053.515" transform="translate(-80.519 -39.715)" fill="#382118"/>
    <path id="Trazado_720345" data-name="Trazado 720345" d="M269.182,100.488l-.031,0c-.181-.022-18.234-2.257-26.9-9a.26.26,0,0,1,.32-.411c8.554,6.653,26.463,8.87,26.643,8.891a.26.26,0,0,1-.031.518" transform="translate(-103.725 -38.99)" fill="#382118"/>
    <path id="Trazado_720346" data-name="Trazado 720346" d="M310.982,95.9l-.041,0c-.663-.1-16.274-2.607-20.486-7.837a.26.26,0,0,1,.405-.326c4.087,5.074,20,7.623,20.161,7.648a.26.26,0,0,1-.04.517" transform="translate(-124.392 -37.54)" fill="#382118"/>
    <path id="Trazado_720347" data-name="Trazado 720347" d="M344.719,87.314l-.029,0a35.177,35.177,0,0,1-16.1-6.829.26.26,0,1,1,.325-.406A34.62,34.62,0,0,0,344.748,86.8a.26.26,0,0,1-.029.519" transform="translate(-140.709 -34.276)" fill="#382118"/>
    <path id="Trazado_720348" data-name="Trazado 720348" d="M111.134,82.93c-8.791,0-17.34-.168-25.725-.5-24.818-1.056-46.839-4.383-67.32-10.171l-.046-.017a6.387,6.387,0,0,1-2.256-1.886.26.26,0,0,1,.4-.336,5.88,5.88,0,0,0,2.069,1.745C38.69,77.534,60.663,80.853,85.43,81.907c22.664.907,46.557.59,73.04-.968,21.256-1.635,39.576-4.948,56-10.129a1.34,1.34,0,0,0,.357-.8.26.26,0,1,1,.52-.011,1.926,1.926,0,0,1-.548,1.226l-.046.045-.06.019c-16.482,5.2-34.861,8.532-56.189,10.173-16.708.983-32.386,1.472-47.372,1.472" transform="translate(-6.736 -29.873)" fill="#382118"/>
    <path id="Trazado_720349" data-name="Trazado 720349" d="M99.119,74.743a.283.283,0,0,1-.039,0,.261.261,0,0,1-.22-.3c.014-.1,1.259-9.616-11.495-17.645a.26.26,0,1,1,.277-.441c6.811,4.289,9.639,8.983,10.812,12.167a13.134,13.134,0,0,1,.92,6,.26.26,0,0,1-.256.222" transform="translate(-37.371 -24.124)" fill="#382118"/>
    <path id="Trazado_720350" data-name="Trazado 720350" d="M217.589,62.612a.26.26,0,0,1-.238-.155,35.728,35.728,0,0,0-6.393-9.04,37.6,37.6,0,0,0-21.835-11.345.26.26,0,0,1,.078-.514,38.119,38.119,0,0,1,22.149,11.516,36.27,36.27,0,0,1,6.477,9.174.26.26,0,0,1-.133.342.254.254,0,0,1-.1.022" transform="translate(-80.916 -17.799)" fill="#382118"/>
    <path id="Trazado_720351" data-name="Trazado 720351" d="M283.468,78.188a.261.261,0,0,1-.242-.357c.027-.067,2.808-6.8,12.939-13.143a.26.26,0,1,1,.276.441c-9.974,6.24-12.705,12.83-12.732,12.9a.261.261,0,0,1-.242.163" transform="translate(-121.312 -27.692)" fill="#382118"/>
    <path id="Trazado_720352" data-name="Trazado 720352" d="M33.646,213.633a46.645,46.645,0,0,1-16.058-10.715l-.076-.082q-.392-.416-.761-.837l-.108-.124q-.352-.4-.683-.812l-.113-.14q-.326-.406-.629-.816l-.1-.134q-.315-.429-.6-.86l-.06-.087a20.758,20.758,0,0,1-1.629-2.9c-.015-.033-.028-.066-.043-.1-.123-.277-.24-.553-.345-.829-.033-.084-.06-.168-.091-.252-.081-.225-.159-.449-.229-.673-.032-.1-.061-.209-.09-.314-.058-.2-.111-.4-.158-.607-.027-.115-.051-.23-.074-.344q-.058-.286-.1-.571c-.018-.119-.035-.238-.049-.357-.022-.186-.037-.37-.049-.555-.008-.118-.017-.237-.02-.354-.006-.186,0-.371,0-.556,0-.113,0-.225.009-.337.013-.2.037-.4.062-.592.011-.094.018-.19.033-.283a8.63,8.63,0,0,1,.18-.858c.053-.2.119-.4.192-.6.062-.175.134-.349.21-.522h0c3.24-7.437,18.236-12.216,31.658-8.651a35.078,35.078,0,0,1,8.072,3.179h0c.424.236.832.481,1.231.731.087.055.171.111.257.166q.48.31.934.632c.076.054.154.107.229.161q.549.4,1.06.816c.026.021.05.043.076.065.308.255.6.516.89.78q.112.1.222.208.4.38.771.772c.038.039.077.078.114.118.282.3.549.613.8.927.048.059.093.12.141.179q.31.39.591.79c.054.076.108.151.16.228a16.621,16.621,0,0,1,1.17,2c.04.081.078.162.116.244q.2.423.374.854c.028.07.059.14.086.21.136.353.261.709.37,1.07.014.047.026.1.04.143q.137.47.244.947c.021.091.041.183.059.275.067.326.125.655.171.986.006.041.014.081.019.122.049.374.082.751.1,1.13,0,.082.006.165.01.246q.02.461.012.926c0,.091,0,.182,0,.274-.013.386-.035.775-.075,1.166h0a18.045,18.045,0,0,1-.513,2.782c-2.8,10.549-14.49,17.183-28.01,11.738" transform="translate(-4.957 -76.06)" fill="#f08f4a"/>
    <path id="Trazado_720353" data-name="Trazado 720353" d="M19.02,191.347a.651.651,0,0,1-.525-1.034,14.346,14.346,0,0,1,9.426-5.452.651.651,0,1,1,.13,1.295,13.252,13.252,0,0,0-8.5,4.923.65.65,0,0,1-.526.268" transform="translate(-7.869 -79.184)" fill="#ffe09c"/>
  </g>
</svg>
