<svg xmlns="http://www.w3.org/2000/svg" xmlns:xlink="http://www.w3.org/1999/xlink" width="140" height="140" viewBox="0 0 140 140">
  <defs>
    <clipPath id="clip-path">
      <rect id="Rectángulo_344386" data-name="Rectángulo 344386" width="128.655" height="86.496" fill="none"/>
    </clipPath>
  </defs>
  <g id="Grupo_983943" data-name="Grupo 983943" transform="translate(-514 10698)">
    <circle id="Elipse_5844" data-name="Elipse 5844" cx="70" cy="70" r="70" transform="translate(514 -10698)" fill="#b20d0d"/>
    <g id="Grupo_983613" data-name="Grupo 983613" transform="translate(519.672 -10667.503)">
      <rect id="Rectángulo_344379" data-name="Rectángulo 344379" width="118.708" height="68.307" transform="translate(4.879 10.895)" fill="#aa917c"/>
      <g id="Grupo_983612" data-name="Grupo 983612">
        <g id="Grupo_983611" data-name="Grupo 983611" clip-path="url(#clip-path)">
          <path id="Trazado_718385" data-name="Trazado 718385" d="M227.289,289.206a5.523,5.523,0,0,1-3.665,2.339,3.971,3.971,0,0,0,1.139-.845,1.351,1.351,0,0,0,.288-1.327,6.783,6.783,0,0,1-4.407,1.893,2.92,2.92,0,0,0,.808-1.716,12.4,12.4,0,0,1-3.662,1.515c-.557.131-1.256.173-1.586-.295a1.406,1.406,0,0,1-2.648.206.571.571,0,0,0-.188-.289c-.256-.152-.484.217-.691.431a1.084,1.084,0,0,1-1.111.2,3.185,3.185,0,0,1-1-.641c.061.389-.508.61-.851.417a2.076,2.076,0,0,1-.686-.939.436.436,0,0,0-.184-.213c-.213-.1-.416.163-.472.39s-.095.507-.311.6l-1.662-1.561a.4.4,0,0,0-.248-.138c-.3,0-.208.464-.181.765a.983.983,0,0,1-1.022.936,2.589,2.589,0,0,1-1.421-.578c-.454-.312-1.124-.627-1.486-.211a2.8,2.8,0,0,0-.276.581,1.31,1.31,0,0,1-1.7.382,5.57,5.57,0,0,1-1.449-1.249,2.351,2.351,0,0,0-1.665-.846q.294,1.053.547,2.118c.03.125.051.277-.044.363a.37.37,0,0,1-.326.034l-1.667-.354a4.488,4.488,0,0,1,1.1,1.963l-1.616.244c-.111.3.235.561.535.669s.673.259.689.578a1.209,1.209,0,0,0-1.009,1.134,16.3,16.3,0,0,0,4.605,1.53,32.6,32.6,0,0,0,4.1.356l9.493.423c1.8.08,3.6.16,5.392.061,4.5-.248,8.645-4.285,8.536-8.918" transform="translate(-149.207 -221.217)" fill="#f7ca68"/>
          <path id="Trazado_718386" data-name="Trazado 718386" d="M264.386,292.256a8.333,8.333,0,0,0,.737-3.368c0-.007,0-.013,0-.02q0-.1-.006-.2v-.029c0-.064-.008-.127-.013-.189l0-.032q-.008-.093-.02-.183c0-.01,0-.02,0-.03-.008-.063-.018-.125-.029-.186,0-.006,0-.013,0-.019a3.719,3.719,0,0,0-.15-.575l-.007-.018c-.018-.051-.038-.1-.058-.149-.006-.015-.013-.029-.019-.044-.017-.039-.035-.078-.054-.115l-.027-.052q-.026-.05-.055-.1l-.033-.053c-.019-.029-.038-.058-.058-.086l-.038-.052c-.02-.027-.041-.052-.062-.077s-.027-.033-.042-.048-.046-.048-.069-.071l-.043-.042c-.026-.024-.054-.046-.081-.068l-.039-.032c-.042-.031-.085-.061-.129-.088s-.065-.037-.1-.053-.061-.028-.092-.041h0c-1.338-.555-3.859.689-5.143,2.811a6.267,6.267,0,0,0-.644,1.409h0c-.025.083-.047.165-.068.247,0,.018-.008.036-.013.053-.016.066-.03.132-.042.2,0,.016-.007.033-.009.049-.014.08-.026.158-.035.236l0,.018c-.008.071-.014.141-.018.211,0,.018,0,.036,0,.054q0,.1,0,.195c0,.01,0,.02,0,.029,0,.074.005.147.011.219,0,.014,0,.027,0,.04.006.059.013.117.022.175,0,.016,0,.033.008.049a2.958,2.958,0,0,0,.1.4l.015.046q.027.079.058.156l.015.038c.026.062.054.123.085.183l.013.023c.027.052.056.1.086.152l.027.043c.032.05.065.1.1.148l.013.018c.04.054.083.107.127.158l.029.033q.055.062.113.121l.034.034c.049.048.1.1.154.141h0a3.219,3.219,0,0,0,.411.294c1.668,1.009,3.993.414,5.056-1.962" transform="translate(-197.413 -218.996)" fill="#f08f4a"/>
          <path id="Trazado_718387" data-name="Trazado 718387" d="M295.743,294.879a8.329,8.329,0,0,0-3.428.369l-.019.007q-.1.033-.19.07l-.027.011c-.059.023-.118.047-.175.072l-.03.013q-.085.037-.167.077l-.027.013q-.086.042-.167.086l-.017.009a3.7,3.7,0,0,0-.5.324l-.015.012c-.042.034-.083.068-.123.1l-.035.032c-.031.029-.062.058-.092.088l-.04.042c-.026.027-.051.055-.075.083l-.04.048c-.022.027-.043.054-.063.082l-.037.053c-.019.027-.036.056-.053.084s-.022.036-.033.054-.031.058-.046.088-.018.036-.027.054-.027.066-.039.1c-.006.016-.013.032-.018.048a1.528,1.528,0,0,0-.042.151c-.008.036-.014.073-.019.111s-.008.066-.01.1h0c-.1,1.445,1.877,3.441,4.3,3.986a6.27,6.27,0,0,0,1.541.164c.087,0,.172-.008.255-.014l.054,0q.1-.009.2-.023l.049-.007c.08-.012.159-.025.235-.041l.018,0c.07-.015.138-.032.205-.05l.052-.015c.063-.018.125-.038.186-.058l.028-.009c.07-.025.137-.052.2-.08l.037-.017c.054-.024.107-.05.159-.076l.044-.023a2.943,2.943,0,0,0,.35-.22l.038-.029q.067-.05.13-.1l.031-.026c.051-.045.1-.091.147-.139l.018-.019q.061-.063.117-.129l.032-.039c.038-.046.074-.093.109-.142l.013-.018c.039-.055.075-.112.11-.17l.022-.038q.041-.071.078-.146l.022-.044c.03-.062.059-.126.084-.191a3.208,3.208,0,0,0,.149-.483c.428-1.9-.874-3.918-3.464-4.173" transform="translate(-222.122 -225.682)" fill="#f08f4a"/>
          <path id="Trazado_718388" data-name="Trazado 718388" d="M224.96,287.02a8.332,8.332,0,0,0-1.045-3.285l-.01-.017q-.052-.088-.106-.172l-.016-.025c-.035-.053-.07-.106-.106-.157l-.018-.027c-.036-.051-.072-.1-.109-.148l-.018-.024c-.039-.05-.078-.1-.118-.146L223.4,283a3.726,3.726,0,0,0-.417-.423l-.015-.012c-.042-.035-.083-.068-.125-.1l-.039-.028c-.035-.025-.069-.049-.1-.072l-.049-.031c-.032-.02-.064-.039-.1-.057l-.055-.03c-.031-.016-.062-.031-.093-.046l-.059-.026c-.031-.013-.062-.025-.093-.036l-.06-.021c-.032-.01-.064-.019-.1-.027l-.058-.015c-.035-.008-.07-.013-.1-.019l-.05-.008c-.052-.006-.1-.011-.156-.012-.037,0-.075,0-.112,0s-.067.006-.1.01c-1.436.188-3,2.526-3.049,5.005a6.26,6.26,0,0,0,.147,1.542c.019.084.041.167.065.247,0,.018.01.035.016.052q.029.1.062.192l.016.047c.027.076.057.15.087.222l.007.016c.029.065.059.129.09.191l.025.048q.045.087.095.17l.015.025q.057.095.119.184l.024.033q.052.072.107.141l.031.038a2.956,2.956,0,0,0,.285.3l.036.032q.063.055.128.107l.032.025c.054.041.109.08.165.116l.023.014c.049.031.1.061.15.089l.044.024c.053.028.106.054.161.078l.02.009c.062.027.125.051.189.074l.042.014q.078.026.158.048l.047.013c.067.017.135.032.2.045h0a3.246,3.246,0,0,0,.5.049c1.949.04,3.665-1.638,3.4-4.227" transform="translate(-167.224 -215.886)" fill="#f08f4a"/>
          <path id="Trazado_718389" data-name="Trazado 718389" d="M197.809,302.783q.051-.629.1-1.258a5.332,5.332,0,0,1,2.538.966q.033-.917.067-1.833a12,12,0,0,1,3.726,1.416q.189-1.484.378-2.969c1.514.643,2.587,1.949,4.1,2.6s3.9.091,3.884-1.425a2.676,2.676,0,0,0,3.514,1.54l.366-1.111a2.113,2.113,0,0,0,2.074,1.266,2.047,2.047,0,0,0,1.872-1.5l.7,1.377a2.361,2.361,0,0,0,2.935-1.3l-.027,1.572a6.471,6.471,0,0,0,4.994-2.062c.531,2-1.025,4.068-3.042,5a15.581,15.581,0,0,1-6.639.985c-5.529-.03-12.3.108-17.779-.553a54.024,54.024,0,0,1-7.011-1.516c-3.5-1.25,1.5-2.81,3.255-1.2" transform="translate(-147.99 -228.947)" fill="#ffe09c"/>
          <path id="Trazado_718390" data-name="Trazado 718390" d="M224.382,286.116a.12.12,0,0,1-.111-.164,2.483,2.483,0,0,1,1.206-1.3.12.12,0,0,1,.084.225,2.27,2.27,0,0,0-1.068,1.164.12.12,0,0,1-.111.075" transform="translate(-171.659 -217.879)" fill="#ffe09c"/>
          <path id="Trazado_718391" data-name="Trazado 718391" d="M273.19,288.785a.12.12,0,0,1-.083-.207,2.48,2.48,0,0,1,1.637-.681.12.12,0,0,1-.017.239,2.259,2.259,0,0,0-1.455.615.12.12,0,0,1-.083.033" transform="translate(-209.019 -220.367)" fill="#ffe09c"/>
          <path id="Trazado_718392" data-name="Trazado 718392" d="M295,299.287a.12.12,0,0,1-.083-.207,2.477,2.477,0,0,1,1.637-.681.12.12,0,1,1-.017.239,2.261,2.261,0,0,0-1.455.615.12.12,0,0,1-.083.033" transform="translate(-225.714 -228.405)" fill="#ffe09c"/>
          <path id="Trazado_718393" data-name="Trazado 718393" d="M122.965,253.11a3.572,3.572,0,0,0,.621,1.777.682.682,0,0,0,.4.291.868.868,0,0,0,.755-.394,1.416,1.416,0,0,0,.273-.878,1.158,1.158,0,0,0-.12-.489,5.048,5.048,0,0,0-.612-.714c-.147-.191-.246-.427-.391-.62-.157-.209-.563-.734-.846-.384-.231.286-.112,1.147-.082,1.411" transform="translate(-94.079 -192.571)" fill="#e34927"/>
          <path id="Trazado_718394" data-name="Trazado 718394" d="M100.2,229.55c-.189-.182-.485-.238-.677-.418a.622.622,0,0,1,.189-.989c.592-.256,1.34.374,1.9.064.352-.195.537-.721.941-.666.369.05.437.535.72.763a1.249,1.249,0,0,0,1.056.069.485.485,0,0,1,.373.013.349.349,0,0,1,.115.147c.242.5,0,1.108.191,1.628s.759.848.892,1.374a26.942,26.942,0,0,1-3.394-.7,12.848,12.848,0,0,0-1.692-.26c-.513-.073-.287.1-.4-.33-.069-.256.014-.48-.213-.7" transform="translate(-76.05 -174.166)" fill="#e34927"/>
          <path id="Trazado_718395" data-name="Trazado 718395" d="M71.5,239.233a4.212,4.212,0,0,0-1.609-1.544,4.727,4.727,0,0,0-4.928-.067,5.341,5.341,0,0,0-1.185.979,20.657,20.657,0,0,1-2.481,2.243c-6.432,4.959-7.324,8.526-7.324,8.526-1.516,8.621,11.369,8.337,11.369,8.337,12.032-.758,10.232-5.495,10.232-5.495,1.705-2.369-2.274-6.158-2.274-6.158-5.211-4.642-2.558-5.495-2.558-5.495Z" transform="translate(-41.219 -181.381)" fill="#c96f4f"/>
          <path id="Trazado_718396" data-name="Trazado 718396" d="M88.344,241.27a1.3,1.3,0,0,1,.758-.474,4.811,4.811,0,0,0-.284,1.611c.379-.19.284-.663.568-.853.19.568-.379,1.231.284,1.705.19-.379.758-.474.853-.284a2.315,2.315,0,0,1,.284,1.8c.379-.284.379-.758.663-1.137a11.6,11.6,0,0,1,.19,1.8c.474-.19.379-.947.758-.947.474.095.474.758.758,1.231.19-.284.19-.853.379-.947.474-.189.568.663.947.947a4.752,4.752,0,0,0,.19-1.137c.474.284.568,1.042,1.231,1.137a.829.829,0,0,1,.474-.853c.095-.189.19.284.474.379,0-.284.19-.568.095-.853.569.095.758.663,1.137.947a.628.628,0,0,1,.226-.572c-3.368-3.522-1.22-4.213-1.22-4.213l.758-1.326a4.212,4.212,0,0,0-1.609-1.544,4.727,4.727,0,0,0-4.928-.067,5.346,5.346,0,0,0-1.185.979c-.436.466-.9.908-1.374,1.33-.142.44-.632.79-.426,1.339" transform="translate(-67.584 -181.381)" fill="#f08f4a"/>
          <path id="Trazado_718397" data-name="Trazado 718397" d="M73.3,255.742c-.521-.465-.963-.891-1.337-1.282a.628.628,0,0,0-.226.572c-.379-.284-.569-.853-1.137-.947.095.284-.095.568-.095.853-.284-.095-.379-.569-.474-.379a.829.829,0,0,0-.474.853c-.663-.095-.758-.853-1.232-1.137a4.752,4.752,0,0,1-.19,1.137c-.379-.284-.474-1.137-.947-.947-.19.095-.19.663-.379.947-.284-.474-.284-1.137-.758-1.231-.379,0-.284.758-.758.947a11.607,11.607,0,0,0-.19-1.8c-.284.379-.284.853-.663,1.137a2.314,2.314,0,0,0-.284-1.8c-.095-.19-.663-.095-.853.284-.663-.474-.095-1.137-.284-1.705-.284.19-.19.663-.569.853a4.812,4.812,0,0,1,.284-1.611,1.3,1.3,0,0,0-.758.474c-.206-.549.284-.9.425-1.339q-.538.474-1.107.913c-6.432,4.959-7.324,8.526-7.324,8.526-1.516,8.621,11.369,8.337,11.369,8.337,12.032-.758,10.232-5.495,10.232-5.495,1.705-2.369-2.274-6.158-2.274-6.158" transform="translate(-41.219 -191.069)" fill="#c96f4f"/>
          <path id="Trazado_718398" data-name="Trazado 718398" d="M138.549,287.283a.12.12,0,0,1-.114-.084,6.631,6.631,0,0,0-1.3-2.51l-.01-.011a8.438,8.438,0,0,1-1.059-1.829.12.12,0,0,1,.223-.089,8.359,8.359,0,0,0,1.021,1.765,6.786,6.786,0,0,1,1.35,2.6.12.12,0,0,1-.078.15.122.122,0,0,1-.036.006" transform="translate(-104.146 -216.379)" fill="#382118"/>
          <path id="Trazado_718399" data-name="Trazado 718399" d="M56.4,285.554a.12.12,0,0,1-.108-.068c-.656-1.374-.21-3.989,3.01-7.209a.12.12,0,0,1,.17.17c-3.135,3.135-3.556,5.7-2.963,6.936a.12.12,0,0,1-.108.171" transform="translate(-42.889 -212.978)" fill="#382118"/>
          <path id="Trazado_718400" data-name="Trazado 718400" d="M104.341,286.226a2.531,2.531,0,0,1,.138.349,2.936,2.936,0,0,1,.082.364,3.21,3.21,0,0,1,.029.746,2.972,2.972,0,0,1-.155.733,1.8,1.8,0,0,1-.379.65c.035-.25.062-.484.089-.718s.047-.464.068-.7l.052-.7c.013-.118.015-.237.03-.358s.02-.242.046-.368" transform="translate(-79.65 -219.09)" fill="#f08f4a"/>
          <path id="Trazado_718401" data-name="Trazado 718401" d="M105.309,254.148c-.039.06-.081.121-.126.178a1.779,1.779,0,0,1-.152.161,1.2,1.2,0,0,1-.385.244.9.9,0,0,1-.477.054,1.1,1.1,0,0,1-.444-.179,1.925,1.925,0,0,1-.589-.679,2.559,2.559,0,0,1-.29-.82c.156.243.31.479.476.7a2.561,2.561,0,0,0,.561.564.867.867,0,0,0,.7.15,2.2,2.2,0,0,0,.727-.371" transform="translate(-78.723 -193.738)" fill="#c96f4f"/>
          <path id="Trazado_718402" data-name="Trazado 718402" d="M126.672,293.13a1.7,1.7,0,0,0,.372-.008c.058-.006.116-.011.176-.015s.122,0,.177-.007a1.483,1.483,0,0,0,.292-.027.527.527,0,0,0,.138-.055.387.387,0,0,0,.135-.126.282.282,0,0,1,.019.231.457.457,0,0,1-.137.2.69.69,0,0,1-.439.152,1.3,1.3,0,0,1-.2-.014,1.059,1.059,0,0,1-.2-.05.7.7,0,0,1-.194-.106.406.406,0,0,1-.133-.179" transform="translate(-96.96 -224.192)" fill="#f08f4a"/>
          <path id="Trazado_718403" data-name="Trazado 718403" d="M118.723,282.493c.116-.01.229-.008.335-.018a1.052,1.052,0,0,0,.288-.059.5.5,0,0,0,.195-.139.246.246,0,0,0,.065-.166l-.026-.532.359.409a.643.643,0,0,0,.227.163.677.677,0,0,0,.285.056.721.721,0,0,0,.3-.082.885.885,0,0,0,.281-.231.624.624,0,0,1-.156.381.748.748,0,0,1-.377.236.812.812,0,0,1-.464-.017.838.838,0,0,1-.39-.267l.333-.123a.561.561,0,0,1-.2.421.689.689,0,0,1-.381.168.864.864,0,0,1-.37-.047,1.4,1.4,0,0,1-.311-.155" transform="translate(-90.876 -215.532)" fill="#f08f4a"/>
          <path id="Trazado_718404" data-name="Trazado 718404" d="M88.97,293.741a2.251,2.251,0,0,0,.351.107,2.44,2.44,0,0,0,.305.046,2.556,2.556,0,0,0,.308.009,2.312,2.312,0,0,0,.365-.042.535.535,0,0,1-.277.327.786.786,0,0,1-.839-.076.537.537,0,0,1-.215-.371" transform="translate(-68.101 -224.842)" fill="#f08f4a"/>
          <path id="Trazado_718405" data-name="Trazado 718405" d="M71.974,295.6a2.2,2.2,0,0,0,.315.185,2.48,2.48,0,0,0,.284.115,2.58,2.58,0,0,0,.3.08,2.3,2.3,0,0,0,.363.043.53.53,0,0,1-.343.254.779.779,0,0,1-.794-.267.532.532,0,0,1-.121-.409" transform="translate(-55.087 -226.263)" fill="#f08f4a"/>
          <path id="Trazado_718406" data-name="Trazado 718406" d="M109.769,300.444a1.532,1.532,0,0,0,.3.059c.084.009.16.012.238.014s.154,0,.238,0a1.568,1.568,0,0,0,.3-.044.41.41,0,0,1-.186.319.615.615,0,0,1-.718-.018.411.411,0,0,1-.171-.327" transform="translate(-84.022 -229.973)" fill="#f08f4a"/>
          <path id="Trazado_718407" data-name="Trazado 718407" d="M77.376,279.763c.03.049.05.1.08.139.015.021.032.04.045.059a.323.323,0,0,0,.05.048.361.361,0,0,0,.224.082.815.815,0,0,0,.255-.041,1.6,1.6,0,0,0,.252-.1l.169-.088.084.182a1.116,1.116,0,0,0,.194.3A.519.519,0,0,0,79,280.5a.957.957,0,0,0,.373,0,2.884,2.884,0,0,0,.416-.115,1.094,1.094,0,0,1-.342.309.918.918,0,0,1-.479.133.739.739,0,0,1-.269-.057.825.825,0,0,1-.232-.15,1.146,1.146,0,0,1-.276-.427l.254.095a1.286,1.286,0,0,1-.35.1.848.848,0,0,1-.376-.025.493.493,0,0,1-.3-.249.565.565,0,0,1-.046-.342" transform="translate(-59.221 -214.142)" fill="#f08f4a"/>
          <path id="Trazado_718408" data-name="Trazado 718408" d="M111.112,242.608a5.135,5.135,0,0,0-2.322-1.4.953.953,0,0,0-.961.265c-.23.22-.465.54-.822.513.437.137.706.546,1.09.772a2.444,2.444,0,0,0,1.41.269,1.99,1.99,0,0,1-.34.633Z" transform="translate(-81.908 -184.6)" fill="#e34927"/>
          <path id="Trazado_718409" data-name="Trazado 718409" d="M112.138,243.405c.126.087.369-.156.369-.156a.648.648,0,0,1,1.029.077,1.156,1.156,0,0,0,.437.339,2.081,2.081,0,0,0-.524.272.629.629,0,0,1-.942-.2,1.178,1.178,0,0,0-.369-.33" transform="translate(-85.835 -186.026)" fill="#382118"/>
          <path id="Trazado_718410" data-name="Trazado 718410" d="M114.844,243.878a.3.3,0,1,1-.355.29.325.325,0,0,1,.355-.29" transform="translate(-87.635 -186.675)" fill="#f79854"/>
          <path id="Trazado_718411" data-name="Trazado 718411" d="M116.067,244.837a.129.129,0,1,1-.134.125.129.129,0,0,1,.134-.125" transform="translate(-88.741 -187.408)" fill="#382118"/>
          <path id="Trazado_718412" data-name="Trazado 718412" d="M116.731,252.443a4.542,4.542,0,0,0-1.109,1.893,1.046,1.046,0,0,0-.01.619.843.843,0,0,0,.753.494,1.237,1.237,0,0,0,.877-.341,1.39,1.39,0,0,0,.334-.469,7.517,7.517,0,0,0,.24-1.133c.074-.285.211-.554.288-.839.083-.309.284-1.1-.165-1.138-.367-.034-1.008.7-1.208.914" transform="translate(-88.461 -192.53)" fill="#e34927"/>
          <path id="Trazado_718413" data-name="Trazado 718413" d="M125.922,246.364c1.011.03,1.717,1.263,1.717,1.263a3.981,3.981,0,0,0-1.813-.033c-.143-.1-.759.233-.759.233a3.042,3.042,0,0,1,.612-1,.754.754,0,0,0,.243-.468" transform="translate(-95.731 -188.577)" fill="#ffe09c"/>
          <path id="Trazado_718414" data-name="Trazado 718414" d="M129.016,247.328c-.007.039.041.081.107.093s.126-.01.133-.05-.041-.081-.107-.093-.126.01-.133.05" transform="translate(-98.754 -189.275)" fill="#382118"/>
          <path id="Trazado_718415" data-name="Trazado 718415" d="M21.208,291.594a4.017,4.017,0,0,0,3.364,4.219,10.362,10.362,0,0,1-1.312-3.271,9.451,9.451,0,0,0,4.847,4.2,8.215,8.215,0,0,1-1.851-4.645,12.4,12.4,0,0,0,4.475,4.455,4.636,4.636,0,0,0-.282-2.253A12.615,12.615,0,0,0,32.1,296.7c.144.163.345.338.551.268.166-.057.241-.245.295-.412l.667-2.064,1.259,2.2,2-2.328a19.138,19.138,0,0,1,1.181,2.634,10.984,10.984,0,0,1,2.79-2.431l.789,2.186a22.329,22.329,0,0,1,4.772-1.973,1.144,1.144,0,0,1-.155,1.028.564.564,0,0,0,.484-.154q.023.476.045.953l2.846-1.962a3.781,3.781,0,0,0-.518,1.531,3.788,3.788,0,0,0,3.635-1.939,1.763,1.763,0,0,0-.373,1.322,2.666,2.666,0,0,0,2.558-2.338l-.24,2.29a1.177,1.177,0,0,0,1.324-1.1q.039.907.079,1.813l2.707-1.78a6.014,6.014,0,0,1-3.41,3.786,16.092,16.092,0,0,1-5.107,1.191,110.534,110.534,0,0,1-14.739.661q-3.69-.081-7.37-.407c-2.315-.206-4.061-.033-5.5-2.037a8.6,8.6,0,0,1-1.463-6.036" transform="translate(-16.192 -223.198)" fill="#ffe09c"/>
          <path id="Trazado_718416" data-name="Trazado 718416" d="M397.705,296.63a3.626,3.626,0,0,0-2.421.375l2.146-1.183-2.768.06a12.026,12.026,0,0,0,1.053-2.943q-1.588,1.715-3.238,3.355c-.143.143-.315.294-.5.26s-.292-.212-.389-.378a23.954,23.954,0,0,1-1.123-2.181c-.057,1.085-.284,2.424-1.212,2.726a1.511,1.511,0,0,1-1.557-.6,5.548,5.548,0,0,1-.835-1.694l-.733,1.514a1.474,1.474,0,0,1-.445.619.859.859,0,0,1-1.136-.4,3.27,3.27,0,0,1-.36-1.4l-.862,2.017-.827-1.819-.319,2.141-1.266-2.425a1.752,1.752,0,0,1-.958,2.237,2.241,2.241,0,0,1-2.111-.9,10.983,10.983,0,0,0-1.715-1.811l.164,2.561a8.983,8.983,0,0,1-4.1-2.6q.068,1.184.136,2.367a3.4,3.4,0,0,1-2.316-.57l-.089.713c-.489.132-.949-.28-1.319-.663l-3.742-3.877,1.279,4.632-3.982-2.912,1.524,3.512-3.493-.178a7.919,7.919,0,0,0,2.583,1.435,2.381,2.381,0,0,1-.625,1.1q9.281.306,18.563.578a34.079,34.079,0,0,0,7.492-.334c1.672-.324,3.344-.674,5.01-1.007a9.091,9.091,0,0,0,2.43-.869c.363-.19,1.791-1.51,2.067-1.455" transform="translate(-275.701 -223.609)" fill="#ffe09c"/>
          <path id="Trazado_718417" data-name="Trazado 718417" d="M35.783,150.77q.869.166,1.743.3a1.245,1.245,0,0,0-.585-1.378l3.231.684a2.268,2.268,0,0,0-1.549-1.913,11.373,11.373,0,0,0,3.174.386l-1.677-2a12.765,12.765,0,0,1,2.736.881l-.787-1.517a3.822,3.822,0,0,0,2.61,1.422l.212-1.81a3.3,3.3,0,0,0,2.145,1.832l.39-2.254a5,5,0,0,0,1.931,2.017,12.361,12.361,0,0,0,.8-2.185l.531,2.374a8,8,0,0,0,1.093-1.888l.325,1.367a8.377,8.377,0,0,0,2.881-1.342l-.078,1.324a18.453,18.453,0,0,0,3.848-1.631,4.835,4.835,0,0,0-.543,1.843,13.529,13.529,0,0,0,3.766-.565,1.142,1.142,0,0,0-.281,1.02q2.445-.226,4.881-.534l-2.268,1.246a18.213,18.213,0,0,0,3.666.211,1.554,1.554,0,0,0-1.44,1.4l3.214.007a2.5,2.5,0,0,0-2.9,1.262,3.106,3.106,0,0,0,3.943-1.149,3.116,3.116,0,0,1-1.854,2.854,9,9,0,0,1-3.518.71,57.262,57.262,0,0,1-9.983,0c-4.4-.493-8.836-1.925-13.176-1.033-.412.085-.8.649-1.072.688-.479.07-1.306-.466-1.747-.666a31.312,31.312,0,0,1-3.67-1.965" transform="translate(-27.39 -111.171)" fill="#f7ca68"/>
          <path id="Trazado_718418" data-name="Trazado 718418" d="M76.326,143.13a8.33,8.33,0,0,0-2.01-2.8l-.015-.013q-.077-.067-.154-.131l-.023-.019c-.049-.04-.1-.079-.149-.117l-.026-.019c-.05-.037-.1-.073-.15-.107l-.025-.017c-.052-.036-.1-.07-.157-.1l-.016-.01a3.683,3.683,0,0,0-.528-.273l-.018-.007c-.05-.02-.1-.039-.15-.057l-.046-.015c-.041-.013-.081-.026-.122-.037l-.057-.014c-.036-.009-.073-.017-.109-.024l-.062-.011c-.034-.006-.068-.011-.1-.015l-.064-.007-.1-.005h-.063c-.033,0-.066,0-.1,0l-.06,0c-.035,0-.07.009-.105.014l-.05.008c-.051.01-.1.022-.152.037s-.071.024-.106.038-.061.026-.092.041c-1.308.623-2.069,3.329-1.351,5.7a6.266,6.266,0,0,0,.617,1.421c.045.074.091.146.138.215l.031.045q.058.083.118.163l.03.04c.05.064.1.125.152.184l.012.013c.047.053.1.1.144.154l.038.038c.047.046.094.09.143.133l.022.02q.084.072.17.138l.033.024c.048.035.1.069.144.1l.042.027a2.971,2.971,0,0,0,.364.2l.044.019q.077.033.155.061l.038.014c.064.022.128.042.193.059l.026.006q.085.021.171.038l.049.009c.059.01.118.018.177.025l.022,0c.067.006.134.01.2.012h.044q.082,0,.165,0l.049,0c.069,0,.138-.011.207-.021h0a3.2,3.2,0,0,0,.493-.108c1.866-.564,2.979-2.691,1.924-5.071" transform="translate(-53.496 -106.648)" fill="#f08f4a"/>
          <path id="Trazado_718419" data-name="Trazado 718419" d="M72.634,144.681h-.008a.12.12,0,0,1-.112-.128,2.483,2.483,0,0,1,.745-1.609.12.12,0,1,1,.15.187,2.279,2.279,0,0,0-.655,1.437.12.12,0,0,1-.12.112" transform="translate(-55.505 -109.396)" fill="#ffe09c"/>
          <path id="Trazado_718420" data-name="Trazado 718420" d="M112.252,148.424a8.332,8.332,0,0,0,2.12-2.719l.008-.018q.043-.093.082-.185l.011-.027q.037-.089.07-.176l.011-.03q.032-.087.061-.174l.009-.028q.029-.09.054-.18l.005-.018a3.707,3.707,0,0,0,.113-.583c0-.007,0-.013,0-.019.005-.054.009-.107.012-.16,0-.016,0-.032,0-.048,0-.043,0-.085,0-.127,0-.02,0-.039,0-.058,0-.038,0-.075-.008-.112,0-.021,0-.042-.007-.063s-.009-.069-.015-.1-.008-.042-.012-.063-.015-.065-.023-.1-.01-.041-.016-.061-.02-.063-.032-.094-.013-.038-.02-.057-.028-.065-.044-.1c-.007-.015-.014-.031-.022-.046a1.494,1.494,0,0,0-.079-.135c-.02-.031-.043-.061-.066-.091s-.042-.052-.065-.077h0c-.967-1.078-3.778-1.046-5.852.312a6.263,6.263,0,0,0-1.19.992c-.059.064-.114.129-.167.193l-.034.043q-.064.079-.123.159l-.03.04q-.071.1-.134.2l-.009.015c-.038.061-.073.121-.107.182l-.026.048c-.031.058-.06.116-.087.174l-.013.026c-.031.067-.059.135-.084.2l-.014.038c-.02.056-.039.111-.056.167l-.014.048a2.927,2.927,0,0,0-.086.4c0,.016,0,.032-.006.048q-.01.083-.015.166c0,.014,0,.027,0,.041,0,.067,0,.135,0,.2,0,.009,0,.018,0,.027q0,.087.012.174c0,.017,0,.033.005.05.007.059.015.118.026.177,0,.007,0,.014,0,.022.013.066.028.132.046.2l.012.042q.023.079.05.158l.016.046c.024.065.049.129.078.194a3.192,3.192,0,0,0,.243.443c1.068,1.631,3.422,2.1,5.408.416" transform="translate(-81.405 -108.706)" fill="#f08f4a"/>
          <path id="Trazado_718421" data-name="Trazado 718421" d="M122.065,144.9a.12.12,0,0,1-.07-.217,2.486,2.486,0,0,1,1.715-.448.12.12,0,1,1-.049.235,2.275,2.275,0,0,0-1.526.408.118.118,0,0,1-.07.023" transform="translate(-93.342 -110.38)" fill="#ffe09c"/>
          <path id="Trazado_718422" data-name="Trazado 718422" d="M88.345,161.7l1.474.449q.02-.387.04-.773l2.005.344a2.816,2.816,0,0,0-.609-2.272,3.106,3.106,0,0,1,1.091.782,1.71,1.71,0,0,0,1.192.561c.451-.031.863-.551.629-.937a2.4,2.4,0,0,1,.207.768c.071.258.332.518.574.405a.584.584,0,0,0,.23-.259l.431-.748a3.394,3.394,0,0,0,.409,1.721,3.414,3.414,0,0,0,1.747-1.545,10,10,0,0,1,.06,1.485,7.3,7.3,0,0,0,2.868-.287c-.82.414-1.042,1.487-1.7,2.129a4.134,4.134,0,0,1-2.122.885l-2.245.469c-2.486.519-6.335.306-6.284-3.177" transform="translate(-67.623 -122.051)" fill="#ffe09c"/>
          <path id="Trazado_718423" data-name="Trazado 718423" d="M245.444,80.127a1.641,1.641,0,0,1-.416-1.11.71.71,0,0,1,.576-.48,3.856,3.856,0,0,0,.787-.209c.322-.167.5-.506.742-.764a.875.875,0,0,1,1.05-.225c.161.083.3.218.467.292.4.183.752-.046,1.152.017a1.482,1.482,0,0,1,1.019.923,1.444,1.444,0,0,1-.075,1.2,2.542,2.542,0,0,1-.764.792,10.344,10.344,0,0,1-2.4,1.335c-.494.193-.524.26-.983-.24a13.984,13.984,0,0,1-1.153-1.536" transform="translate(-187.544 -59.128)" fill="#e34927"/>
          <path id="Trazado_718424" data-name="Trazado 718424" d="M229.854,87.871c1.607-3.781,4.547-3.126,5.211-1.421.834,2.146,1.61,5.211,1.61,5.211.758,1.611,4.737,2.179,4.737,2.179,4.358.379,5.021,2.369,5.021,2.369,7.2-5.4,4.926-.379,4.926-.379,4.169-.568.947,2.653.947,2.653,6.063,1.232-4.926,4.832-4.926,4.832-3.79,8.148-17.906,4.358-17.906,4.358-7.769-3.221-.663-11.558-.663-11.558a9.52,9.52,0,0,0,1.895-7.105Z" transform="translate(-172.869 -65.134)" fill="#fff"/>
          <path id="Trazado_718425" data-name="Trazado 718425" d="M246.18,93.368a4.638,4.638,0,0,1,1.636-1.986.953.953,0,0,1,.992.092c.265.176.553.449.9.36-.406.212-.6.662-.937.952a1.449,1.449,0,0,1-.981.488c.012.107.007.318.095.379a8.183,8.183,0,0,0-1.231-.19c-.134.029.19.947.19.947Z" transform="translate(-188.437 -69.872)" fill="#e34927"/>
          <path id="Trazado_718426" data-name="Trazado 718426" d="M252.3,93.241c-.1.114-.395-.065-.395-.065a.648.648,0,0,0-.983.316,1.158,1.158,0,0,1-.345.433,2.072,2.072,0,0,1,.573.142.629.629,0,0,0,.868-.418,1.18,1.18,0,0,1,.282-.407" transform="translate(-191.799 -71.237)" fill="#382118"/>
          <path id="Trazado_718427" data-name="Trazado 718427" d="M253.131,93.943a.3.3,0,1,0,.413.2.326.326,0,0,0-.413-.2" transform="translate(-193.557 -71.897)" fill="#f79854"/>
          <path id="Trazado_718428" data-name="Trazado 718428" d="M253.413,95.024a.129.129,0,1,0,.159.09.129.129,0,0,0-.159-.09" transform="translate(-193.9 -72.732)" fill="#382118"/>
          <path id="Trazado_718429" data-name="Trazado 718429" d="M236.258,96.376c-1.3.09-2.164,1.644-2.164,1.644a5.321,5.321,0,0,1,2.326-.135c.18-.128.982.247.982.247a3.656,3.656,0,0,0-.816-1.193.9.9,0,0,1-.327-.563" transform="translate(-179.185 -73.77)" fill="#ffe09c"/>
          <path id="Trazado_718430" data-name="Trazado 718430" d="M241.964,97.594c.01.048-.05.1-.134.12s-.162-.006-.172-.054.05-.1.134-.12.162.006.172.054" transform="translate(-184.974 -74.656)" fill="#382118"/>
          <path id="Trazado_718431" data-name="Trazado 718431" d="M240.8,104.135c-.25.382-.568.731-.809,1.116a1.449,1.449,0,0,0-.228.549.66.66,0,0,0,.162.553,1.218,1.218,0,0,0,.638.294,5.972,5.972,0,0,0,1.238.1,1.605,1.605,0,0,0,.687-.108,1.244,1.244,0,0,0,.368-.3,1.961,1.961,0,0,0,.577-1.028,2,2,0,0,0-.536-1.353q-.253-.337-.536-.657a1.493,1.493,0,0,0-.488-.4.736.736,0,0,0-.524-.041c-.168.063-.154.125-.166.27a2.172,2.172,0,0,1-.384,1.013" transform="translate(-183.519 -78.703)" fill="#e34927"/>
          <path id="Trazado_718432" data-name="Trazado 718432" d="M278.341,141.955a.12.12,0,0,1-.094-.046,6.158,6.158,0,0,0-3.46-2.019,18.169,18.169,0,0,0-4.115-.318,8.871,8.871,0,0,1-4.83-.926.12.12,0,1,1,.129-.2,8.569,8.569,0,0,0,4.7.888,18.362,18.362,0,0,1,4.169.324,6.393,6.393,0,0,1,3.594,2.1.12.12,0,0,1-.094.194" transform="translate(-203.444 -105.957)" fill="#382118"/>
          <path id="Trazado_718433" data-name="Trazado 718433" d="M289.235,153.7a.12.12,0,0,1-.075-.026,4.848,4.848,0,0,0-3.021-.864c-.4-.006-.805.008-1.2.022a13.865,13.865,0,0,1-2.089-.033,1.792,1.792,0,0,1-1.095-.431.12.12,0,0,1,.171-.168,1.583,1.583,0,0,0,.951.361,13.745,13.745,0,0,0,2.054.031c.4-.014.807-.028,1.211-.022a5.074,5.074,0,0,1,3.167.916.12.12,0,0,1-.074.214" transform="translate(-215.642 -116.476)" fill="#382118"/>
          <path id="Trazado_718434" data-name="Trazado 718434" d="M285.82,161.686a.12.12,0,0,1-.082-.032,1.8,1.8,0,0,0-1.3-.283l-2.406.084a3.348,3.348,0,0,1-2.644-.906.12.12,0,1,1,.138-.2,4.253,4.253,0,0,0,1.65.835,4.2,4.2,0,0,0,.847.027l2.406-.084a1.985,1.985,0,0,1,1.468.347.12.12,0,0,1-.081.208" transform="translate(-213.819 -122.725)" fill="#382118"/>
          <path id="Trazado_718435" data-name="Trazado 718435" d="M320.914,131.919a.12.12,0,0,1-.081-.208,6.289,6.289,0,0,1,3.19-1.357.12.12,0,0,1,.034.237,6.152,6.152,0,0,0-3.062,1.3.119.119,0,0,1-.081.031" transform="translate(-245.55 -99.777)" fill="#382118"/>
          <path id="Trazado_718436" data-name="Trazado 718436" d="M324.145,141.795a.12.12,0,0,1-.025-.237,9.9,9.9,0,0,1,3.37-.189.12.12,0,0,1-.058.233,9.89,9.89,0,0,0-3.261.19l-.026,0" transform="translate(-248.023 -108.137)" fill="#382118"/>
          <path id="Trazado_718437" data-name="Trazado 718437" d="M268.851,119.323c.106-.015.212-.026.317-.035h.016l.02.02a.967.967,0,0,1,.263.594,1.041,1.041,0,0,1-.164.662,1.076,1.076,0,0,1-.563.417,1.09,1.09,0,0,1-.709-.007l.229-.23a1.171,1.171,0,0,1-.376,1.305,1.079,1.079,0,0,1-.648.219.972.972,0,0,1-.613-.2,1.073,1.073,0,0,0,1.083-.225.956.956,0,0,0,.218-.975l-.136-.362.365.132a.825.825,0,0,0,1.091-.733.941.941,0,0,0-.116-.539l.036.019c-.1-.018-.209-.037-.313-.061" transform="translate(-204.085 -91.307)" fill="#d0d1d3"/>
          <path id="Trazado_718438" data-name="Trazado 718438" d="M237.166,139.872a1.356,1.356,0,0,0,.19.672,1.048,1.048,0,0,0,1.065.531,1.36,1.36,0,0,0,.651-.251.934.934,0,0,1-.587.527,1.08,1.08,0,0,1-1.386-.692.935.935,0,0,1,.067-.786" transform="translate(-181.443 -107.064)" fill="#d0d1d3"/>
          <path id="Trazado_718439" data-name="Trazado 718439" d="M253.037,149.155a3.833,3.833,0,0,0,.6.31,2.648,2.648,0,0,0,.6.166,1.446,1.446,0,0,0,.593-.028.751.751,0,0,0,.494-.358.522.522,0,0,1-.092.361.832.832,0,0,1-.293.258,1.207,1.207,0,0,1-.755.123,1.608,1.608,0,0,1-.688-.276,1.3,1.3,0,0,1-.459-.556" transform="translate(-193.685 -114.17)" fill="#d0d1d3"/>
          <path id="Trazado_718440" data-name="Trazado 718440" d="M195.03,154.048c.378-.371.974-.352,1.489-.475s1.062-.632.822-1.1l-1.277-.325,1.543-.1a.974.974,0,0,0,.465-.108.679.679,0,0,0-.021-1.031,1.963,1.963,0,0,0-1.113-.376l1.266-.146a1.114,1.114,0,0,0,.473-.128.765.765,0,0,0,.174-.987,2.229,2.229,0,0,0-.8-.745l2.717.983a1.871,1.871,0,0,0-.493-1.657,3.158,3.158,0,0,0,2.091,1.066l.467-1.69a2.8,2.8,0,0,0,2.544,2.1c1.912.073,3.279-1.756,4.963-2.664a1.654,1.654,0,0,0,1.276,2.351c1.179.066,2.081-1.155,3.257-1.273a2.22,2.22,0,0,0,2.382,1.65,6.464,6.464,0,0,0,2.922-1.179l.185.75a15.882,15.882,0,0,0,3.214-.046,10.249,10.249,0,0,0,7.342-.412,4.262,4.262,0,0,1-1.178,1.26l3.4.19a4.939,4.939,0,0,0-1.94.692,2.858,2.858,0,0,0,1.39.417l-1.165.422a4.339,4.339,0,0,0,2.077.67,1.022,1.022,0,0,0-1.385.87,7.393,7.393,0,0,1,2.072.912,70.786,70.786,0,0,1-27.542.551,14.082,14.082,0,0,0-5.737-.3c-1.118.273-1.4.638-2.532.384a15.7,15.7,0,0,0-3.352-.528" transform="translate(-149.284 -112.263)" fill="#ffe09c"/>
          <path id="Trazado_718441" data-name="Trazado 718441" d="M249.554,158.537l-1.724.55,1.512-2.7a6.3,6.3,0,0,1-2.359,1.4q-.079-.578-.157-1.156a3.011,3.011,0,0,1-1.224.819,1.945,1.945,0,0,0-.483-1.458c-.287.615-.918,1.363-1.643,1.1a1.237,1.237,0,0,1-.6-.565,5.832,5.832,0,0,1-.74-1.792c-.6.4-.862,1.049-1.388,1.511s-1.623.607-1.933.025c-.421.742-1.145,1.618-2.1,1.435-.328-.063-.635-1.7-.971-1.714-.247-.008-.469,1.533-.716,1.531a1.77,1.77,0,0,1-.967-.4,20.6,20.6,0,0,1-3.307-2.84q0,.715.01,1.43a.866.866,0,0,1-.1.491.952.952,0,0,1-1.234.093,1.954,1.954,0,0,1-.654-1.03,1.993,1.993,0,0,1-.605,1.787,1.786,1.786,0,0,1-2.066.169,5.585,5.585,0,0,0,3.546,3.446,17.071,17.071,0,0,0,5.482.957c4.56.215,11.665.69,14.424-3.1" transform="translate(-173.068 -118.101)" fill="#f7ca68"/>
          <path id="Trazado_718442" data-name="Trazado 718442" d="M408.5,82.212a1.189,1.189,0,0,0-.458-.52,1.941,1.941,0,0,0-1.467-.289,2.052,2.052,0,0,1-.617.1c-.421-.042-.77-.476-1.188-.408-.34.055-.546.414-.824.627a7.049,7.049,0,0,1-.642.355.765.765,0,0,0-.41.589c-.01.378.387.627.744.678a3.631,3.631,0,0,1,1.067.148c.259.122.491.374.774.337a.944.944,0,0,0,.312-.127,3.429,3.429,0,0,1,1.943-.371c.262.025.487.152.7-.046s.167-.838.072-1.073" transform="translate(-308.392 -62.068)" fill="#e34927"/>
          <path id="Trazado_718443" data-name="Trazado 718443" d="M426.031,103.577a4.39,4.39,0,0,1,.351.628.647.647,0,0,1-.1.68.732.732,0,0,1-.395.145.636.636,0,0,1-.5-.063.546.546,0,0,1-.128-.16,2.515,2.515,0,0,1-.246-.863,2.417,2.417,0,0,1-.01-1.061c.073-.245.4-.9.7-.63.188.166.164,1.032.326,1.324" transform="translate(-325.27 -78.219)" fill="#e34927"/>
          <path id="Trazado_718444" data-name="Trazado 718444" d="M396.873,95.438A7.385,7.385,0,0,1,396.4,90.7c0-2.653-2.084-3.032-3.505-2.653-1.584.422-1.8,3.505-1.8,3.505-1.516,5.874-3.126,7.579-3.126,7.579-7.295,12.884,20.179,10.137,20.179,10.137,5.684-1.137,4.926-6.253,4.926-6.253a5.759,5.759,0,0,0,2.368-2.937c3.293-7.684-.568-3.884-.568-3.884.379-7.484-2.747-.758-2.747-.758.474-1.99.38-3.326-.379-3.411-.586-.065-.814,1.079-.9,1.8a7.349,7.349,0,0,1-.369,1.616c-.615,1.718-1.1,1.51-1.1,1.51-4.547-4.642-12.505-1.516-12.505-1.516" transform="translate(-296.023 -67.3)" fill="#fff"/>
          <path id="Trazado_718445" data-name="Trazado 718445" d="M413.259,93.875a5.133,5.133,0,0,0-2.473-1.118.953.953,0,0,0-.922.378c-.2.246-.4.591-.755.607.45.084.767.458,1.175.636a2.441,2.441,0,0,0,1.432.1,1.987,1.987,0,0,1-.262.669Z" transform="translate(-313.149 -70.993)" fill="#e34927"/>
          <path id="Trazado_718446" data-name="Trazado 718446" d="M414.2,94.8c.136.072.348-.2.348-.2a.647.647,0,0,1,1.031-.046,1.159,1.159,0,0,0,.475.285,2.077,2.077,0,0,0-.488.333.629.629,0,0,1-.959-.089,1.181,1.181,0,0,0-.406-.283" transform="translate(-317.049 -72.197)" fill="#382118"/>
          <path id="Trazado_718447" data-name="Trazado 718447" d="M416.911,95.159a.3.3,0,1,1-.318.33.325.325,0,0,1,.318-.33" transform="translate(-318.878 -72.838)" fill="#f79854"/>
          <path id="Trazado_718448" data-name="Trazado 718448" d="M418.177,96.053a.129.129,0,1,1-.118.14.129.129,0,0,1,.118-.14" transform="translate(-320 -73.523)" fill="#382118"/>
          <path id="Trazado_718449" data-name="Trazado 718449" d="M418.658,102.055a3.509,3.509,0,0,0-1.024,1,1.2,1.2,0,0,0-.106,1.113.751.751,0,0,0,.276.322,1.072,1.072,0,0,0,.4.132,1.139,1.139,0,0,0,.58-.036,1.008,1.008,0,0,0,.462-.415,2.42,2.42,0,0,0,.378-1.018,5.289,5.289,0,0,1,.155-1.278.73.73,0,0,0,.067-.223.2.2,0,0,0-.114-.2c-.341-.144-.872.452-1.075.6" transform="translate(-319.522 -77.644)" fill="#e34927"/>
          <path id="Trazado_718450" data-name="Trazado 718450" d="M424.429,96.331c.995.237,1.658,1.847,1.658,1.847a3.785,3.785,0,0,0-2.51-.332.314.314,0,0,1,.052-.373,2.4,2.4,0,0,0,.517-.687,2.509,2.509,0,0,1,.284-.456" transform="translate(-324.196 -73.736)" fill="#ffe09c"/>
          <path id="Trazado_718451" data-name="Trazado 718451" d="M427.693,98.076c-.016.034.019.085.078.112s.12.022.136-.013-.019-.085-.078-.113-.121-.022-.137.013" transform="translate(-327.372 -75.049)" fill="#382118"/>
          <path id="Trazado_718452" data-name="Trazado 718452" d="M423.028,127.8c.052.227.141.437.2.665a1.66,1.66,0,0,1,.062.358.863.863,0,0,1-.069.381.81.81,0,0,1-.244.314,1.458,1.458,0,0,1-.329.191,3.254,3.254,0,0,1-.337.122.228.228,0,0,0-.09.044s0,0,0-.008,0-.013,0-.005.038.057.077.121a.765.765,0,0,1,.087.2.922.922,0,0,1,.016.42,1.194,1.194,0,0,1-.4.688,1.625,1.625,0,0,1-.7.314,2.991,2.991,0,0,1-.728.044l.157-.2a.768.768,0,0,1-.008.412.941.941,0,0,1-.193.34,1.055,1.055,0,0,1-.645.356,1.422,1.422,0,0,1-.7-.089,2.541,2.541,0,0,1-.591-.327,3.312,3.312,0,0,0,.626.207,1.39,1.39,0,0,0,.621,0,.878.878,0,0,0,.47-.322.56.56,0,0,0,.108-.491l-.066-.2h.223a3.227,3.227,0,0,0,.65-.064,1.277,1.277,0,0,0,.546-.25.855.855,0,0,0,.291-.479.617.617,0,0,0,0-.266.437.437,0,0,0-.045-.12,1.39,1.39,0,0,1-.095-.179.313.313,0,0,1-.011-.175.3.3,0,0,1,.092-.154.525.525,0,0,1,.218-.108c.114-.03.219-.054.322-.09a.83.83,0,0,0,.481-.34.982.982,0,0,0,.076-.617,6.169,6.169,0,0,1-.079-.69" transform="translate(-320.416 -97.822)" fill="#d0d1d3"/>
          <path id="Trazado_718453" data-name="Trazado 718453" d="M404.42,150.466a.487.487,0,0,0,.207.387.934.934,0,0,0,.387.142,2.607,2.607,0,0,0,.462.034,4.845,4.845,0,0,0,.512-.038.939.939,0,0,1-.461.317,1.2,1.2,0,0,1-.574.042.82.82,0,0,1-.533-.306.545.545,0,0,1-.1-.3.363.363,0,0,1,.1-.276" transform="translate(-309.481 -115.173)" fill="#d0d1d3"/>
          <path id="Trazado_718454" data-name="Trazado 718454" d="M415.675,166.27a.371.371,0,0,1,.289.052,1.228,1.228,0,0,0,.222.1,1.022,1.022,0,0,0,.427.039.908.908,0,0,0,.4-.149,1.283,1.283,0,0,0,.352-.353.687.687,0,0,1-.157.558.831.831,0,0,1-.545.3.874.874,0,0,1-.6-.146.8.8,0,0,1-.205-.214.477.477,0,0,0-.174-.185" transform="translate(-318.175 -127.031)" fill="#d0d1d3"/>
          <path id="Trazado_718455" data-name="Trazado 718455" d="M398.931,165.427a.426.426,0,0,1,.261.087,1.037,1.037,0,0,0,.2.1,1.022,1.022,0,0,0,.393.069.919.919,0,0,0,.382-.1,1.3,1.3,0,0,0,.376-.281.651.651,0,0,1-.206.508.8.8,0,0,1-.542.229.833.833,0,0,1-.553-.19.709.709,0,0,1-.177-.22.7.7,0,0,0-.133-.208" transform="translate(-305.359 -126.534)" fill="#d0d1d3"/>
          <path id="Trazado_718456" data-name="Trazado 718456" d="M498.228,125.572a.12.12,0,0,1-.106-.176,13,13,0,0,1,1.916-2.681.12.12,0,0,1,.17.17,13.012,13.012,0,0,0-1.874,2.624.12.12,0,0,1-.106.064" transform="translate(-381.273 -93.904)" fill="#382118"/>
          <path id="Trazado_718457" data-name="Trazado 718457" d="M492.17,119.66a.12.12,0,0,1-.12-.12,7.452,7.452,0,0,1,.752-1.8.12.12,0,1,1,.211.114,7.18,7.18,0,0,0-.724,1.684.12.12,0,0,1-.12.12" transform="translate(-376.636 -90.077)" fill="#382118"/>
          <path id="Trazado_718458" data-name="Trazado 718458" d="M495.65,141.627a.12.12,0,0,1-.12-.12,6.255,6.255,0,0,0-.9-3.118.12.12,0,0,1,.206-.122,6.5,6.5,0,0,1,.93,3.24.12.12,0,0,1-.12.12" transform="translate(-378.6 -105.79)" fill="#382118"/>
          <path id="Trazado_718459" data-name="Trazado 718459" d="M484.128,127.15a.119.119,0,0,1-.082-.032,10.765,10.765,0,0,0-1.235-.989.12.12,0,1,1,.136-.2,11.034,11.034,0,0,1,1.262,1.01.12.12,0,0,1,.006.17.119.119,0,0,1-.087.038" transform="translate(-369.525 -96.378)" fill="#382118"/>
          <path id="Trazado_718460" data-name="Trazado 718460" d="M460.176,156.906a.12.12,0,0,1-.111-.074,7.926,7.926,0,0,0-4.294-3.63.12.12,0,1,1,.092-.221,8,8,0,0,1,4.422,3.759.12.12,0,0,1-.11.166" transform="translate(-348.81 -117.091)" fill="#382118"/>
          <path id="Trazado_718461" data-name="Trazado 718461" d="M465.068,152.573a.12.12,0,0,1-.086-.2,2.175,2.175,0,0,0,.464-1.848c-.224-1.1-1.383-2.781-5.635-4.59a.12.12,0,0,1,.094-.221c3.495,1.486,5.438,3.091,5.777,4.768a2.376,2.376,0,0,1-.528,2.058.12.12,0,0,1-.086.036" transform="translate(-351.902 -111.526)" fill="#382118"/>
          <path id="Trazado_718462" data-name="Trazado 718462" d="M458.86,136.84a.12.12,0,0,1-.065-.22,1.215,1.215,0,0,0,.475-1.081c-.067-1.189-1.5-3.3-7.948-6.575a.12.12,0,1,1,.109-.214c6.558,3.336,8.013,5.529,8.079,6.782a1.454,1.454,0,0,1-.584,1.289.119.119,0,0,1-.065.019" transform="translate(-345.41 -98.541)" fill="#382118"/>
          <path id="Trazado_718463" data-name="Trazado 718463" d="M364.12,149.609a3.894,3.894,0,0,1,2.514.375L364.4,148.8l2.875.06a11.757,11.757,0,0,1-1.093-2.943q1.649,1.715,3.363,3.355c.149.143.327.294.524.26s.3-.212.4-.378a23.719,23.719,0,0,0,1.166-2.181c.06,1.086.295,2.424,1.259,2.726a1.6,1.6,0,0,0,1.616-.6,5.463,5.463,0,0,0,.867-1.694l.761,1.514a1.48,1.48,0,0,0,.462.619.909.909,0,0,0,1.18-.4,3.177,3.177,0,0,0,.374-1.4l.895,2.017.859-1.819.331,2.141,1.314-2.425a1.73,1.73,0,0,0,.995,2.237,2.369,2.369,0,0,0,2.192-.9,11.173,11.173,0,0,1,1.781-1.811q-.085,1.28-.17,2.561a9.38,9.38,0,0,0,4.26-2.6q-.07,1.184-.141,2.367a3.636,3.636,0,0,0,2.406-.57q.046.356.092.713c.508.132.986-.28,1.371-.663l3.886-3.876-1.328,4.632,4.135-2.912-1.582,3.513,3.627-.178A8.327,8.327,0,0,1,400.4,151.6a2.361,2.361,0,0,0,.649,1.1q-9.639.306-19.279.578a36.739,36.739,0,0,1-7.781-.334c-1.736-.324-3.472-.674-5.2-1.007a9.689,9.689,0,0,1-2.523-.869c-.377-.19-1.859-1.51-2.146-1.455" transform="translate(-278.713 -111.073)" fill="#ffe09c"/>
          <path id="Trazado_718464" data-name="Trazado 718464" d="M390.741,160.111a2.493,2.493,0,0,0,2.085,1.965c1.021.055,2.006-1.088,1.564-2.01a2.984,2.984,0,0,0,1.477,2.542,3.252,3.252,0,0,0,.7-1.412,3.3,3.3,0,0,0,.515,1.717q.567-.524,1.087-1.095c-.2.683.566,1.336,1.278,1.308a3.419,3.419,0,0,0,1.88-.933l.8.94a2.816,2.816,0,0,1,1.269-.563.967.967,0,0,1,1.063.7c1.072-.805,2.853.509,3.871-.364.6-.512.745-1.66,1.532-1.668q.11.7.22,1.4a7.772,7.772,0,0,0,2.441-1.728,4.173,4.173,0,0,1-2.159,3.362c-2.917,1.937-6.635,2.081-10.137,2.072-1.961-.006-4.354.091-6.03-1.041a10.069,10.069,0,0,1-3.451-5.2" transform="translate(-299.09 -122.521)" fill="#f7ca68"/>
          <rect id="Rectángulo_344380" data-name="Rectángulo 344380" width="121.645" height="7.579" transform="translate(3.553 40.264)" fill="#917b64"/>
          <rect id="Rectángulo_344381" data-name="Rectángulo 344381" width="121.645" height="7.579" transform="translate(3.553 74.844)" fill="#917b64"/>
          <rect id="Rectángulo_344382" data-name="Rectángulo 344382" width="2.747" height="74.37" transform="translate(3.553 12.126)" fill="#917b64"/>
          <rect id="Rectángulo_344383" data-name="Rectángulo 344383" width="1.705" height="69.538" transform="translate(43.438 12.126)" fill="#917b64"/>
          <rect id="Rectángulo_344384" data-name="Rectángulo 344384" width="1.705" height="69.538" transform="translate(83.702 12.126)" fill="#917b64"/>
          <rect id="Rectángulo_344385" data-name="Rectángulo 344385" width="2.747" height="74.37" transform="translate(122.45 12.126)" fill="#917b64"/>
          <path id="Trazado_718465" data-name="Trazado 718465" d="M121.408,0H8.479L0,13.405H128.655Z" transform="translate(0 0)" fill="#c96f4f"/>
          <path id="Trazado_718466" data-name="Trazado 718466" d="M53.933,43.484a.122.122,0,0,1-.058-.015.12.12,0,0,1-.046-.163c.214-.386.393-.78.566-1.161a13.825,13.825,0,0,1,.7-1.4.12.12,0,0,1,.206.123,13.574,13.574,0,0,0-.691,1.377c-.175.385-.356.784-.575,1.178a.12.12,0,0,1-.1.062" transform="translate(-41.191 -31.143)" fill="#382118"/>
          <path id="Trazado_718467" data-name="Trazado 718467" d="M66.2,12.943a.122.122,0,0,1-.049-.01.12.12,0,0,1-.06-.159c.336-.744.742-1.537,1.135-2.3.344-.671.7-1.365,1.009-2.027a.12.12,0,0,1,.217.1c-.311.666-.668,1.362-1.013,2.035-.392.764-.8,1.553-1.13,2.292a.12.12,0,0,1-.109.071" transform="translate(-50.581 -6.41)" fill="#382118"/>
          <path id="Trazado_718468" data-name="Trazado 718468" d="M111.386,27.177a.121.121,0,0,1-.046-.009.12.12,0,0,1-.065-.156c.456-1.109.9-2.289,1.344-3.609.185-.544.418-1.079.643-1.6a16.921,16.921,0,0,0,.749-1.934.12.12,0,0,1,.23.068,17.082,17.082,0,0,1-.759,1.962c-.223.513-.453,1.043-.635,1.578-.45,1.324-.892,2.509-1.35,3.623a.12.12,0,0,1-.111.074" transform="translate(-85.167 -15.145)" fill="#382118"/>
          <path id="Trazado_718469" data-name="Trazado 718469" d="M128.44,3.415a.12.12,0,0,1-.112-.163l.335-.86a.12.12,0,0,1,.224.087l-.335.86a.12.12,0,0,1-.112.076" transform="translate(-98.221 -1.772)" fill="#382118"/>
          <path id="Trazado_718470" data-name="Trazado 718470" d="M164.6,47.265a.123.123,0,0,1-.029,0,.12.12,0,0,1-.087-.145c.076-.305.18-.6.29-.917a7.989,7.989,0,0,0,.406-1.461.12.12,0,1,1,.237.035A8.183,8.183,0,0,1,165,46.278c-.108.309-.21.6-.284.9a.12.12,0,0,1-.116.091" transform="translate(-125.903 -34.165)" fill="#382118"/>
          <path id="Trazado_718471" data-name="Trazado 718471" d="M169.953,10.579a.118.118,0,0,1-.032,0,.12.12,0,0,1-.083-.148c.4-1.441.85-2.945,1.282-4.4.355-1.194.722-2.43,1.063-3.625a.12.12,0,0,1,.231.066c-.342,1.2-.709,2.432-1.064,3.627-.432,1.453-.878,2.956-1.281,4.4a.12.12,0,0,1-.115.088" transform="translate(-129.997 -1.772)" fill="#382118"/>
          <path id="Trazado_718472" data-name="Trazado 718472" d="M222.361,23.3h-.018a.12.12,0,0,1-.1-.137c.187-1.236.393-2.491.591-3.705.3-1.857.617-3.776.872-5.656a.12.12,0,0,1,.238.032c-.255,1.883-.569,3.8-.873,5.662-.2,1.213-.4,2.468-.591,3.7a.12.12,0,0,1-.118.1" transform="translate(-170.113 -10.481)" fill="#382118"/>
          <path id="Trazado_718473" data-name="Trazado 718473" d="M229.763,3.169h-.019a.12.12,0,0,1-.1-.137l.159-1.016a.12.12,0,0,1,.237.037l-.159,1.017a.12.12,0,0,1-.118.1" transform="translate(-175.778 -1.464)" fill="#382118"/>
          <path id="Trazado_718474" data-name="Trazado 718474" d="M278,46.345a.12.12,0,0,1-.12-.12c0-.182-.007-.368-.015-.565a5.854,5.854,0,0,1,.071-1.515.12.12,0,0,1,.233.055,5.686,5.686,0,0,0-.064,1.451c.007.19.015.387.015.574a.12.12,0,0,1-.12.12" transform="translate(-212.68 -33.72)" fill="#382118"/>
          <path id="Trazado_718475" data-name="Trazado 718475" d="M278.525,13h0a.12.12,0,0,1-.115-.124c.044-1.157.067-2.354.089-3.512.023-1.22.047-2.481.1-3.7a.12.12,0,0,1,.24.01c-.049,1.213-.073,2.473-.1,3.692-.022,1.159-.045,2.357-.089,3.516a.12.12,0,0,1-.12.115" transform="translate(-213.103 -4.246)" fill="#382118"/>
          <path id="Trazado_718476" data-name="Trazado 718476" d="M332.68,31.5a.12.12,0,0,1-.119-.106c-.17-1.415-.308-2.852-.442-4.242-.09-.937-.183-1.906-.285-2.857a.12.12,0,0,1,.238-.026c.1.953.2,1.922.285,2.86.133,1.389.271,2.824.441,4.236a.12.12,0,0,1-.1.133h-.014" transform="translate(-254 -18.494)" fill="#382118"/>
          <path id="Trazado_718477" data-name="Trazado 718477" d="M330.123,6.522a.12.12,0,0,1-.12-.115,13.881,13.881,0,0,0-.16-1.477,11.832,11.832,0,0,1-.163-1.686.12.12,0,0,1,.24,0,11.49,11.49,0,0,0,.16,1.652,13.975,13.975,0,0,1,.163,1.5.12.12,0,0,1-.115.124h0" transform="translate(-252.351 -2.391)" fill="#382118"/>
          <path id="Trazado_718478" data-name="Trazado 718478" d="M382.562,17.325a.12.12,0,0,1-.117-.094L380.172,6.9a.12.12,0,1,1,.234-.051l2.274,10.326a.12.12,0,0,1-.091.143l-.026,0" transform="translate(-290.997 -5.173)" fill="#382118"/>
          <path id="Trazado_718479" data-name="Trazado 718479" d="M437.783,27a.12.12,0,0,1-.114-.082c-.425-1.276-.847-2.464-1.292-3.721l-.149-.421a.12.12,0,1,1,.226-.08l.149.421c.446,1.258.867,2.446,1.294,3.725a.12.12,0,0,1-.114.158" transform="translate(-333.902 -17.311)" fill="#382118"/>
          <path id="Trazado_718480" data-name="Trazado 718480" d="M429.688,3.736a.12.12,0,0,1-.114-.081c-.1-.3-.2-.607-.306-.917-.282-.853-.574-1.736-.9-2.545A.12.12,0,1,1,428.592.1c.328.816.621,1.7.9,2.559.1.309.2.616.305.915a.12.12,0,0,1-.075.152.122.122,0,0,1-.038.006" transform="translate(-327.886 -0.021)" fill="#382118"/>
          <path id="Trazado_718481" data-name="Trazado 718481" d="M498.384,44.64a.12.12,0,0,1-.109-.069l-1.314-2.822a.12.12,0,1,1,.217-.1l1.314,2.823a.12.12,0,0,1-.109.17" transform="translate(-380.386 -31.825)" fill="#382118"/>
          <path id="Trazado_718482" data-name="Trazado 718482" d="M483.746,13.2a.12.12,0,0,1-.113-.08,23.008,23.008,0,0,0-1.551-3.243c-.2-.4-.369-.821-.531-1.226a11.794,11.794,0,0,0-.794-1.708.12.12,0,0,1,.206-.123,12.005,12.005,0,0,1,.81,1.743c.16.4.327.815.52,1.2a23.1,23.1,0,0,1,1.565,3.275.12.12,0,0,1-.072.153.123.123,0,0,1-.041.007" transform="translate(-367.979 -5.174)" fill="#382118"/>
        </g>
      </g>
    </g>
  </g>
</svg>
