<svg xmlns="http://www.w3.org/2000/svg" xmlns:xlink="http://www.w3.org/1999/xlink" width="140" height="140" viewBox="0 0 140 140">
  <defs>
    <clipPath id="clip-path">
      <rect id="Rectángulo_344559" data-name="Rectángulo 344559" width="67.453" height="106.606" fill="none"/>
    </clipPath>
    <clipPath id="clip-path-3">
      <rect id="Rectángulo_344554" data-name="Rectángulo 344554" width="7.931" height="49.04" transform="translate(16.784 35.681)" fill="none"/>
    </clipPath>
    <clipPath id="clip-path-4">
      <rect id="Rectángulo_344555" data-name="Rectángulo 344555" width="7.529" height="63.599" transform="translate(1.06 30.783)" fill="none"/>
    </clipPath>
    <clipPath id="clip-path-5">
      <rect id="Rectángulo_344556" data-name="Rectángulo 344556" width="5.494" height="9.294" transform="translate(37.745 12.357)" fill="none"/>
    </clipPath>
    <clipPath id="clip-path-6">
      <rect id="Rectángulo_344557" data-name="Rectángulo 344557" width="39.553" height="33.388" transform="translate(0 21.654)" fill="none"/>
    </clipPath>
    <clipPath id="clip-path-7">
      <rect id="Rectángulo_344561" data-name="Rectángulo 344561" width="73.28" height="55.122" fill="none"/>
    </clipPath>
  </defs>
  <g id="Grupo_983957" data-name="Grupo 983957" transform="translate(-8918 10555)">
    <circle id="Elipse_5878" data-name="Elipse 5878" cx="70" cy="70" r="70" transform="translate(8918 -10555)" fill="#06d1d1"/>
    <g id="Grupo_983843" data-name="Grupo 983843" transform="translate(-3.972)">
      <g id="Grupo_983840" data-name="Grupo 983840" transform="translate(8950 -10538.303)">
        <g id="Grupo_983839" data-name="Grupo 983839" clip-path="url(#clip-path)">
          <g id="Grupo_983838" data-name="Grupo 983838">
            <g id="Grupo_983837" data-name="Grupo 983837" clip-path="url(#clip-path)">
              <path id="Trazado_719426" data-name="Trazado 719426" d="M1.332,92.486c-.7,2.235-.838,2.885-.545,4.541A24.186,24.186,0,0,1,1.816,99.51c.429,1.5.364,4,2.591,5.492,2.654,2.1,7.784,2.193,9.4-.042a11.75,11.75,0,0,0-2.067-5.446L9.133,94.671,9.3,90.132,1.816,88.49Z"/>
              <path id="Trazado_719427" data-name="Trazado 719427" d="M46.725,12.637,42.444,26.474,36.523,41.3s-5.577-1.969-5.333-2.718,4.89-13.471,4.89-13.471v-8.66Z" fill="#fff"/>
              <path id="Trazado_719428" data-name="Trazado 719428" d="M24.256,81.07c-.7.921-.7,3.054-.535,5.465.654,2.436,2.962,2.247,4.931,2.554,3.8.594,5.693,3.454,10.752,3.446,3.006-.005,5.012-.649,5.643-2.555a3.247,3.247,0,0,0-1.485-2.673s-6.891-3.089-7.069-3.207a35.875,35.875,0,0,1-3.327-2.614c-.059-.238-1.188-5.525-1.188-5.525H24.553Z"/>
              <path id="Trazado_719429" data-name="Trazado 719429" d="M33.818,82.085c-3.061,1.829-7.234,3.486-9.1,2.637a1.52,1.52,0,0,1-.929-1.162c-.192-.849-.364-1.7-.536-2.546-1.636-8.1-2.415-15.841-.929-22.651L18.552,45.512l-.1-.344-.838-2.879-.1-.344c-.071-7.83,3.182-10.669,8.84-9.9.323.051.646.1.99.172.242.04.505.1.758.162.363.091.727.192,1.111.3l.737,4.526,3.173,19.469c.929,7.537-.6,18.842.7,25.409" fill="#2a7aad"/>
              <g id="Grupo_983827" data-name="Grupo 983827" opacity="0.5" style="mix-blend-mode: multiply;isolation: isolate">
                <g id="Grupo_983826" data-name="Grupo 983826">
                  <g id="Grupo_983825" data-name="Grupo 983825" clip-path="url(#clip-path-3)">
                    <path id="Trazado_719430" data-name="Trazado 719430" d="M24.715,84.721a1.524,1.524,0,0,1-.93-1.162c-.191-.848-.363-1.7-.535-2.546-1.637-8.1-2.415-15.841-.93-22.651L18.552,45.511l-.1-.344c-.2,1.152-.566,3.011-.717,3.85-.162.879-.323,1.768-.495,2.667l-.455-8.345.829-1.051,5.233-6.607c-.1,1.182-.162,2.364-.192,3.566a87.166,87.166,0,0,0,2.061,19.2c-1.97,6.547-.96,16.438,0,26.278" fill="#2e6f99"/>
                  </g>
                </g>
              </g>
              <path id="Trazado_719431" data-name="Trazado 719431" d="M1.06,92.528a3.846,3.846,0,0,0,1.428,1.854,7.9,7.9,0,0,0,7.617.351,119.265,119.265,0,0,1,3.169-24.954c.676-2.856,1.34-5.649,1.954-8.393.739-3.332,1.416-6.564,2-9.7.176-.9.338-1.791.5-2.68.151-.827.514-2.694.714-3.846.038-.226.075-.413.1-.564.639-1.353-.039-8.039,1.665-10.232,1.4-1.816,5.212,1,5.888-1.33.1-.326.176-.664.251-1a9.2,9.2,0,0,0,.2-1.779L25.325,28.5l-1.479.175-1.453.163-.664.088-1.24.138-9.934,1.152L8.6,30.445l-1.929.225-.326.038-.664.075-2.267.276V66.222C1.862,68.915,1.361,74.965,1.2,81.98c-.088,3.383-.1,7-.138,10.548" fill="#2a7aad"/>
              <g id="Grupo_983830" data-name="Grupo 983830" opacity="0.5" style="mix-blend-mode: multiply;isolation: isolate">
                <g id="Grupo_983829" data-name="Grupo 983829">
                  <g id="Grupo_983828" data-name="Grupo 983828" clip-path="url(#clip-path-4)">
                    <path id="Trazado_719432" data-name="Trazado 719432" d="M1.06,92.528a3.846,3.846,0,0,0,1.428,1.854c.15-11.587,2.192-27.309,6.1-33.083A128.593,128.593,0,0,1,5.682,30.783l-2.267.276V66.222C1.862,68.915,1.361,74.965,1.2,81.98c-.088,3.383-.1,7-.138,10.548" fill="#2e6f99"/>
                  </g>
                </g>
              </g>
              <path id="Trazado_719433" data-name="Trazado 719433" d="M0,30.783,1.057,53.651a9.208,9.208,0,0,0,1.712,1.39c6.038,3.875,16.029,1.341,18.172-1.39,0,0-.147-17,.636-17.652.381-.323,1.81,16.459,2.055,16.449,3.728-.059,10.861-1.849,10.186-4.677l-.47-3.024L31.842,35l-.94-6.1,7.261-2.769c3.405-1.575,5.617-5.392,7.584-9.678.117-8.513-.284-16.576-13.377-13.9L19,10.478,7.525,14.97C3.3,16.888,1.252,21.34.44,25.939A30.755,30.755,0,0,0,0,30.783" fill="#fff"/>
              <path id="Trazado_719434" data-name="Trazado 719434" d="M26.176,44.133l2.018-1.9,1.652-2.359,2.568-2.839.15-.235a14.222,14.222,0,0,1,4,3.983l-.3,3.9L35.136,48.32l-.765,1.837c-.4,1.193-1.177,1.147-1.039,0l.244-1.284L32.3,51.638c-.543,1.225-1.292.981-1.117,0l1.048-4.05-2.015,3.617c-.8,1.263-1.784.8-1.112-.589l1.139-2.6.734-2.172-.52-2.721-1.223.52-2,1.422c-1.346,1.055-2.156.091-1.055-.933" fill="#2a7aad"/>
              <path id="Trazado_719435" data-name="Trazado 719435" d="M43.708,12.637c-1.663,6.516-5.146,9.79-10.9,13.621,1.444-3.994,2.456-7.059,1.975-10.1-.559-3.531.523-5.552,3.477-7.566l1.837.5Z" fill="#25435c"/>
              <path id="Trazado_719436" data-name="Trazado 719436" d="M43.239,14.166l-.795,4.813A16.876,16.876,0,0,1,32.8,26.258c3.566-2.455,7.02-6.921,10.436-12.092" fill="#dfecf5"/>
              <path id="Trazado_719437" data-name="Trazado 719437" d="M43.708,17.487l-4.189,1.448c-3.265.444-3.822-2.606-4.036-5.775A4.518,4.518,0,0,1,37.51,9.082l2.009-1.319Z" fill="#ffb294"/>
              <path id="Trazado_719438" data-name="Trazado 719438" d="M37.575,9.877c-1.543.781-1.445,1.989-2,4.388a49.387,49.387,0,0,1-.937,7.416,46.075,46.075,0,0,1-3.458,7.853c.491-4.036.843-7.925,0-10.556l2.636-2.525L31.4,16.1c.842-5.017,2.614-8,5.913-9.449Z" fill="#dfecf5"/>
              <g id="Grupo_983833" data-name="Grupo 983833" opacity="0.5" style="mix-blend-mode: multiply;isolation: isolate">
                <g id="Grupo_983832" data-name="Grupo 983832">
                  <g id="Grupo_983831" data-name="Grupo 983831" clip-path="url(#clip-path-5)">
                    <path id="Trazado_719439" data-name="Trazado 719439" d="M39.519,21.535c-2.107.668-2.39-1.452-.561-9.178l4.282,1.809c-.656,1.873-1.939,6.175-3.721,7.369" fill="#ffb294"/>
                  </g>
                </g>
              </g>
              <path id="Trazado_719440" data-name="Trazado 719440" d="M52.356,9.828a19.024,19.024,0,0,1-1.268,3.542c-.132.348-.4.859-.571,1.3-.016.049-.038.093-.055.143-.455.993-3.372,7.612-6.754,6.079-.943-.425-3.312-1.577-4.3-3.736s-.485-6.06-.485-6.06l-1.347-1.22s-.215-4.41.921-6.392a6.473,6.473,0,0,1,7.331-3.2,8.148,8.148,0,0,1,6.528,9.539" fill="#ffb294"/>
              <path id="Trazado_719441" data-name="Trazado 719441" d="M37.335,10.288l3.641,3.01.919-1.684a1.551,1.551,0,0,1,2.121-.858,7.462,7.462,0,0,0,4.788.973,4.435,4.435,0,0,0,3.238-1.393c2.511-3.454-1.394-8.413-5.265-9.784-4.7-1.664-7.8.713-8.887,3.46a15.881,15.881,0,0,0-.555,6.276"/>
              <path id="Trazado_719442" data-name="Trazado 719442" d="M40.458,9.732a1.1,1.1,0,0,0-1.222-.6,1.054,1.054,0,0,0-.585.555,2.723,2.723,0,0,0-.213.8c-.219,1.458.006,3.594.986,3.165a3.263,3.263,0,0,0,1.034-3.921" fill="#ffb294"/>
              <g id="Grupo_983836" data-name="Grupo 983836" style="mix-blend-mode: multiply;isolation: isolate">
                <g id="Grupo_983835" data-name="Grupo 983835">
                  <g id="Grupo_983834" data-name="Grupo 983834" clip-path="url(#clip-path-6)">
                    <path id="Trazado_719443" data-name="Trazado 719443" d="M0,30.783,1.057,53.651a9.208,9.208,0,0,0,1.712,1.39L3.258,48.3A21.927,21.927,0,0,1,15.529,30.147l1.253-.617,6.1,5.3,5.754,9.238,4.716.675,6.205.89L31.842,35,22.174,21.653C14.081,28.493,6.527,32.7,1.057,26.967L.44,25.939A30.755,30.755,0,0,0,0,30.783" fill="#d1e1eb"/>
                  </g>
                </g>
              </g>
              <path id="Trazado_719444" data-name="Trazado 719444" d="M48.723,41.748l3.225.216,4.767-.216,5.341,1.223,2.895.775,1.671.652c1.366.51.979,1.59-.652,1.1l-2.039-.489-2.487-.449-.082.286,4.75,2.242c1.162.551.734,1.68-.774,1.1L61.852,46.8l-1.391-.576,3.348,2.635c1.162.978.285,1.651-.877.877L59.2,47.7h-.857l1.835,1.794c1.59,1.366.449,1.916-.9.734L57.2,48.679l-2-.693-2.243-.734-1.345-1.264h-2.9Z" fill="#2a7aad"/>
              <path id="Trazado_719445" data-name="Trazado 719445" d="M51.948,41.964c-2.289.586-2.124,3.454-1.158,4.369-7.584.152-14.39-.841-19.763-2.872-4.585-6.969-8.861-13.727-10.315-18.552-3.058-11.783,8.848-9.5,10.6-3.71,1.32,5.147,2.985,9.158,5.463,16.757Z" fill="#fff"/>
            </g>
          </g>
        </g>
      </g>
      <g id="Grupo_983842" data-name="Grupo 983842" transform="translate(8968.311 -10485)">
        <g id="Grupo_983841" data-name="Grupo 983841" clip-path="url(#clip-path-7)">
          <path id="Trazado_719446" data-name="Trazado 719446" d="M241.21,225.347a4.413,4.413,0,0,0,.608-1.246,5.31,5.31,0,0,0-.608,1.246" transform="translate(-204.132 -191.876)" fill="#f7ca68"/>
          <path id="Trazado_719447" data-name="Trazado 719447" d="M253.9,202.752a.087.087,0,0,0-.12-.07,40.811,40.811,0,0,0-3.948,2.248l-.488.3-.059.018c1.2-.826,2.392-2.168,3.488-3.1l-4.062,1.747a5.8,5.8,0,0,1,.259-1.091,3.253,3.253,0,0,1-1.97,1.389q.073-1.2.146-2.409l-1.412,1.686a7.27,7.27,0,0,1,.04-2.16c-.779.182-1.117,1.4-1.761,2.007-1.017.966-2.678-.305-2.433-1.864l-1.289,1.578q-.15-2.039-.3-4.078c-.156,1.231-.371,2.454-.643,3.66l.114-4.023a.1.1,0,0,0-.092-.119.117.117,0,0,0-.1.123l-.139,4.931q-.075.3-.154.593a7.931,7.931,0,0,1-1.52-3.375l-.689,2.567a11.547,11.547,0,0,0-1.281-3.277l-.776,3.1c-.053-.109-.1-.22-.156-.331l-.732-4.94c-.01-.065-.059-.1-.111-.09a.131.131,0,0,0-.076.146l.626,4.226a21.874,21.874,0,0,1-1.071-3.234,25.958,25.958,0,0,0-.609,4.241,7.081,7.081,0,0,1-3.663-3.031l-.375,2.642a8.152,8.152,0,0,1-1.827-3.043,12.189,12.189,0,0,1-2.393,3.85l-2.348-4.393a11.01,11.01,0,0,0-1.128,3.085,4.757,4.757,0,0,1-1.143-2.587l-1.017,2.58c-.083.211-.184.443-.359.521a.309.309,0,0,1-.138.026,16.9,16.9,0,0,0-2.115-2.217.084.084,0,0,0-.134.029.141.141,0,0,0,.017.168,20.093,20.093,0,0,1,1.8,1.824l-2.973-1.953a3.67,3.67,0,0,0,0,1.591,24.4,24.4,0,0,0-2.258-2.462.084.084,0,0,0-.134.028.141.141,0,0,0,.016.169,22.6,22.6,0,0,1,1.658,1.744,4.51,4.51,0,0,0-2.176-1.012,3.972,3.972,0,0,0,1.713,3.1,7.412,7.412,0,0,0,2.85,1.012l.191.268a.084.084,0,0,0,.061.037.087.087,0,0,0,.074-.033.145.145,0,0,0,.01-.171l-.029-.041c6.252,1.229,12.552,2.45,18.933,2.112,3.044-.161,6.081-.682,9.124-.891.555-.038,1.111-.02,1.658-.032-.154.04-.31.075-.465.111.4,0,.808-.1,1.212-.073.441-.123.88-.249,1.313-.381l-.384.229c.217-.046.435-.09.652-.128q.3-.182.6-.365a32.564,32.564,0,0,1,3.8-.979.125.125,0,0,0,.086-.136c0-.066-.051-.112-.1-.1a27.84,27.84,0,0,0-3.016.742,38.044,38.044,0,0,1,3.668-2.076.137.137,0,0,0,.061-.156" transform="translate(-211.894 -169.33)" fill="#f7ca68"/>
          <path id="Trazado_719448" data-name="Trazado 719448" d="M370.089,204.049a7.966,7.966,0,0,1-.574-3.327v-.02q.006-.1.016-.2c0-.01,0-.019,0-.029q.009-.093.022-.184l0-.031c.009-.06.019-.119.029-.178l.005-.029q.017-.091.038-.18l0-.018a3.561,3.561,0,0,1,.179-.555l.008-.017c.021-.049.043-.1.066-.143l.022-.042c.019-.037.039-.074.06-.11l.03-.049c.019-.031.039-.063.06-.093l.036-.051c.02-.028.041-.055.062-.081l.041-.049c.022-.025.044-.049.066-.073l.044-.045c.024-.023.048-.045.073-.066l.045-.039c.027-.022.056-.043.085-.063l.041-.03a1.553,1.553,0,0,1,.134-.08c.033-.017.067-.033.1-.047s.062-.025.094-.036h0c1.369-.478,3.836.858,5.02,2.993a6.045,6.045,0,0,1,.577,1.408h0c.021.082.039.164.056.244l.01.053q.019.1.032.194c0,.016,0,.032.007.048.01.078.018.156.024.233,0,.006,0,.012,0,.018,0,.07.007.138.008.207,0,.018,0,.036,0,.053,0,.064,0,.128-.006.191,0,.009,0,.019,0,.029q-.008.108-.022.213c0,.013,0,.026-.006.039q-.013.086-.031.17c0,.016-.007.032-.01.048a2.843,2.843,0,0,1-.117.388l-.018.044c-.02.051-.042.1-.065.15l-.017.036c-.029.06-.061.118-.094.175l-.014.022q-.044.074-.094.144l-.029.041q-.052.071-.108.14l-.014.017c-.043.051-.088.1-.135.149l-.031.031q-.058.058-.12.112l-.036.032c-.052.045-.105.088-.161.13h0a3.253,3.253,0,0,1-.426.268,3.566,3.566,0,0,1-4.975-2.159" transform="translate(-357.866 -169.607)" fill="#f08f4a"/>
          <path id="Trazado_719449" data-name="Trazado 719449" d="M393.938,201.9a.076.076,0,0,0,.057-.025.072.072,0,0,0-.007-.1,2.474,2.474,0,0,0-1.639-.581.074.074,0,1,0,.017.146,2.37,2.37,0,0,1,1.522.546.076.076,0,0,0,.049.018" transform="translate(-378.621 -172.249)" fill="#ffe09c"/>
          <path id="Trazado_719450" data-name="Trazado 719450" d="M418.8,207.852a8.186,8.186,0,0,1-2.133-2.657l-.008-.018q-.043-.09-.083-.181l-.012-.026q-.037-.087-.071-.172l-.012-.029q-.033-.085-.061-.17l-.01-.028q-.029-.088-.055-.176l-.005-.018a3.545,3.545,0,0,1-.115-.57c0-.006,0-.013,0-.019-.005-.053-.01-.1-.012-.156,0-.016,0-.031,0-.047,0-.042,0-.083,0-.124,0-.019,0-.038,0-.057,0-.037,0-.073.007-.109,0-.021,0-.041.007-.061s.009-.067.015-.1.007-.041.012-.062.014-.063.023-.095.01-.04.017-.06.02-.062.032-.092.013-.037.02-.056.028-.064.044-.095c.007-.015.014-.03.022-.045.024-.045.05-.09.079-.133s.043-.06.066-.089.043-.051.065-.075h0c.969-1.057,3.792-1.03,5.877.3a6.26,6.26,0,0,1,1.2.969h0c.059.062.115.125.169.189l.035.042q.064.077.124.156l.03.039c.047.064.093.129.135.193l.009.015c.038.059.074.118.108.178l.026.047c.031.057.061.113.088.17l.013.026q.046.1.085.2l.014.038q.031.082.056.163l.014.047a2.859,2.859,0,0,1,.087.4c0,.016,0,.031.006.047q.01.081.016.162c0,.013,0,.026,0,.04,0,.066,0,.132,0,.2,0,.009,0,.017,0,.026q0,.085-.012.17c0,.016,0,.033-.005.049-.007.058-.015.115-.026.173,0,.007,0,.014,0,.021-.013.065-.028.129-.046.193l-.012.041q-.023.077-.05.154l-.016.045c-.024.064-.049.127-.078.189h0a3.119,3.119,0,0,1-.243.434c-1.069,1.6-3.433,2.059-5.429.416" transform="translate(-412.865 -172.595)" fill="#f08f4a"/>
          <path id="Trazado_719451" data-name="Trazado 719451" d="M453.654,205a.077.077,0,0,0,.043-.013,2.385,2.385,0,0,1,1.605-.228.076.076,0,0,0,.09-.056.073.073,0,0,0-.057-.088,2.5,2.5,0,0,0-1.725.251.072.072,0,0,0-.018.1.076.076,0,0,0,.062.031" transform="translate(-449.047 -175.143)" fill="#ffe09c"/>
          <path id="Trazado_719452" data-name="Trazado 719452" d="M220.445,219.371a3.479,3.479,0,0,1,1.66.107,3.465,3.465,0,0,1-1.271-.921l.8.133a1.14,1.14,0,0,0-.508-1.231l1.248,1.265L222,216.546l.342,1.406q.1-1.406.2-2.812l1.941,4.069a5.747,5.747,0,0,0,.2-2.495,4.819,4.819,0,0,0,1.959,2.842l.245-2.147c-.085.87.5,1.8,1.223,1.773a1.311,1.311,0,0,0,.828-1.882,3.03,3.03,0,0,0,1.276,1.587.971.971,0,0,0,1.247-1.079c.314.667.9,1.441,1.452,1.077.163-.106.285-.3.462-.364.339-.12.638.286.972.426,1.094.459,1.867-1.942,3.006-1.688q.007,1.064.013,2.128a1.458,1.458,0,0,0,1.745-.513,6.273,6.273,0,0,0,.988-1.965l.059,2.023,2.62-1.8.122,1.922a7.41,7.41,0,0,0,3.017-1.763,1.945,1.945,0,0,0,2.58,1.458c1.046-.283,2.076-.969,3.126-.711q0,.771,0,1.542l4-1.152-.627,1.3,5.04-1.592a1.882,1.882,0,0,1-.679,1.706,5.907,5.907,0,0,0-1.289,1.25,4.982,4.982,0,0,1-.649,1.159,1.527,1.527,0,0,1-.946.319,171.834,171.834,0,0,1-18.644.767q-4.665-.062-9.324-.377a8.267,8.267,0,0,1-3.835-.767c-1.442-.823-2.826-1.893-4.224-2.825" transform="translate(-219.319 -184.203)" fill="#ffe09c"/>
          <rect id="Rectángulo_344560" data-name="Rectángulo 344560" width="37.822" height="14.626" transform="translate(1.984 36.253)" fill="#d49f74"/>
          <path id="Trazado_719453" data-name="Trazado 719453" d="M245.085,321.979h.346a.074.074,0,1,0,0-.147c-1.463,0-2.96,0-4.579-.006h0a.074.074,0,1,0,0,.147c1.492,0,2.88.006,4.233.006" transform="translate(-207.757 -275.548)" fill="#382118"/>
          <path id="Trazado_719454" data-name="Trazado 719454" d="M307.284,321.476l.65,0a.074.074,0,1,0,0-.147h0c-1.28.01-2.565-.012-3.807-.033-1.58-.027-3.214-.054-4.841-.017a.074.074,0,0,0-.074.075.076.076,0,0,0,.077.072c1.623-.037,3.256-.01,4.834.017,1.034.017,2.1.035,3.162.035" transform="translate(-278.882 -275.062)" fill="#382118"/>
          <path id="Trazado_719455" data-name="Trazado 719455" d="M390.56,321.121a.073.073,0,1,0,0-.147c-5.094-.052-10.283-.052-15.3-.052a.074.074,0,1,0,0,.147c5.017,0,10.2,0,15.3.051Z" transform="translate(-372.72 -274.774)" fill="#382118"/>
          <path id="Trazado_719456" data-name="Trazado 719456" d="M268.276,285.079h.257a.073.073,0,1,0,0-.147h0c-.75,0-3.376-.007-5.915-.015-2.456-.008-4.776-.016-5.484-.014a.073.073,0,1,0,0,.147h0c.708,0,3.027.006,5.483.015,2.3.008,4.678.016,5.66.016" transform="translate(-233.261 -243.934)" fill="#382118"/>
          <path id="Trazado_719457" data-name="Trazado 719457" d="M359.749,285.356c2.074,0,4.248,0,6.566-.005a.073.073,0,1,0,0-.147h0c-6.048.009-11.122.006-15.97-.008h0a.074.074,0,1,0,0,.147c2.99.009,6.067.013,9.4.013" transform="translate(-344.798 -244.185)" fill="#382118"/>
          <path id="Trazado_719458" data-name="Trazado 719458" d="M181.269,295.03c-.27,3.277-3.031,5.516-3.557,6.541-.364.71.435.715.71.792,3.8,1.066,3.435,1.87,3.54,1.957s-3.562-.747-3.562-.747c.191,1.084-1.622,1.088-1.622,1.088a1.948,1.948,0,0,0-1.854,1.115c-.375-.769.877-1.809.877-1.809-6.825-.534-6.292.958-6.292.958-.353-2.023,4.927-1.934,4.927-1.934a5.431,5.431,0,0,0-2.933.067c1.021-.954,4.694-.694,4.694-.694,1.66-4.548,2.62-7.031,2.62-7.031Z" transform="translate(-133.695 -252.605)" fill="#ecc362"/>
          <path id="Trazado_719459" data-name="Trazado 719459" d="M168.614,357.286a5.09,5.09,0,0,1-.531-.291.721.721,0,0,1,.274-.41c.591.764.183.639.257.7" transform="translate(-120.206 -305.31)" fill="#a6513c"/>
          <path id="Trazado_719460" data-name="Trazado 719460" d="M214.657,366.368a.717.717,0,0,1-.028-.569,1.745,1.745,0,0,1,.415.046.886.886,0,0,0-.386.523" transform="translate(-173.428 -313.198)" fill="#a6513c"/>
          <path id="Trazado_719461" data-name="Trazado 719461" d="M253.9,363.827h0" transform="translate(-218.085 -311.509)" fill="#a6513c"/>
          <path id="Trazado_719462" data-name="Trazado 719462" d="M251.773,359.712a.851.851,0,0,1,.011-.691c.143.016.211.2.313.268-.426.2-.332.408-.324.423" transform="translate(-215.96 -307.394)" fill="#a6513c"/>
          <path id="Trazado_719463" data-name="Trazado 719463" d="M236.421,348.643s0,0,0,.005a3.9,3.9,0,0,0-.686.1,1.461,1.461,0,0,1,.479-.352.31.31,0,0,1,.208.242" transform="translate(-197.927 -298.301)" fill="#a6513c"/>
          <path id="Trazado_719464" data-name="Trazado 719464" d="M143.782,306.75a16.778,16.778,0,0,1-2.465,6.807c-.364.71.435.715.71.792,3.8,1.066,3.434,1.87,3.54,1.957s-3.562-.747-3.562-.747c.191,1.084-1.622,1.088-1.622,1.088a1.948,1.948,0,0,0-1.854,1.115c-.375-.77.877-1.81.877-1.81-6.826-.534-6.292.958-6.292.958-.353-2.023,4.927-1.934,4.927-1.934a5.43,5.43,0,0,0-2.933.067c1.021-.954,4.694-.694,4.694-.694a20.723,20.723,0,0,0,1.527-7.3Z" transform="translate(-91.929 -262.64)" fill="#ecc362"/>
          <path id="Trazado_719465" data-name="Trazado 719465" d="M132.219,370.857a5.128,5.128,0,0,1-.531-.291.721.721,0,0,1,.274-.41c.591.764.183.639.257.7" transform="translate(-78.44 -316.929)" fill="#a6513c"/>
          <path id="Trazado_719466" data-name="Trazado 719466" d="M178.261,379.939a.716.716,0,0,1-.028-.569,1.747,1.747,0,0,1,.415.046.886.886,0,0,0-.386.523" transform="translate(-131.661 -324.817)" fill="#a6513c"/>
          <path id="Trazado_719467" data-name="Trazado 719467" d="M217.5,377.4h0" transform="translate(-176.318 -323.129)" fill="#a6513c"/>
          <path id="Trazado_719468" data-name="Trazado 719468" d="M215.377,373.283a.851.851,0,0,1,.011-.691c.143.016.211.2.313.268-.426.2-.332.408-.324.423" transform="translate(-174.193 -319.014)" fill="#a6513c"/>
          <path id="Trazado_719469" data-name="Trazado 719469" d="M200.025,362.214s0,0,0,.005a3.9,3.9,0,0,0-.686.1,1.46,1.46,0,0,1,.479-.352.31.31,0,0,1,.208.242" transform="translate(-156.16 -309.921)" fill="#a6513c"/>
          <path id="Trazado_719470" data-name="Trazado 719470" d="M.006,67.748A23.253,23.253,0,0,1,1.649,61.14a17.114,17.114,0,0,1,1.267-2.31.7.7,0,0,1,.08.135c0,.073.151-.073.151-.22.3.073.226.513.451.586.3.073.376-.586.6-.586.376,0,.226,1.026.6.733.3-.147.376-.66.677-.806.15-.147.075.293.15.44.3-.147.376-.44.376-.806.527.22.151,1.173.6,1.026.376-.147.3-.88.6-1.319.226.513.376,1.246.752,1.246.752.073.6-1.393.752-2.126a2.213,2.213,0,0,0,.6,1.173c.226-.66.3-1.466.527-2.126,0,.367.3.733.3,1.1.376-.44.226-.953.376-1.466.376.293.677.733,1.128.88a10.767,10.767,0,0,0,.075-2.2c.226.22.226.586.6.733,0-.367.226-.733.151-1.173a1.977,1.977,0,0,1,.6,1.173V52.442a7.892,7.892,0,0,1,.827,1.319,1.1,1.1,0,0,0,.192-.733c.324,1.506.572,2.789.572,2.789C17.57,66.586,36.625,52,40.93,48.541a.593.593,0,0,1,.967.421c.121,3.019-1.2,4.017-1.2,4.017,3.368.887-.364,8.871-.364,8.871,1.548,3.9-2.458,6.742-2.458,6.742a15.326,15.326,0,0,0-3.612,5.533,14.552,14.552,0,0,1-1.242,2.569c-3.711,6.021-7.653,7.913-9.231,8.459a3.738,3.738,0,0,0-1.554,1.021A9.047,9.047,0,0,0,21.2,87.553c-2.783,1.906-4.438-1.173-4.438-1.173a2.839,2.839,0,0,0-.215-.34,1.459,1.459,0,0,1-.825.228,3.865,3.865,0,0,1-1.1-.225,2.6,2.6,0,0,1-.94-.434,2.236,2.236,0,0,1-.6-1.353l-.152-.79A35.644,35.644,0,0,0,8.811,81.8a2.92,2.92,0,0,1-.964-.543C-.517,74.132.006,67.748.006,67.748" transform="translate(31.172 -41.447)" fill="#f08f4a"/>
          <path id="Trazado_719471" data-name="Trazado 719471" d="M223.056,2.679a4.207,4.207,0,0,0,.606-.718,1.665,1.665,0,0,0-.217-1.747,3.206,3.206,0,0,0-2.512.123,1.6,1.6,0,0,1-.683.127c-.586-.062-1.257-.711-1.685-.309-.246.231-.219.679-.343,1.019a1.33,1.33,0,0,1-1.014.783c-.425.1-.876.089-1.3.207a.713.713,0,0,0-.38.217,1.022,1.022,0,0,0-.166.483,7.7,7.7,0,0,0,.079,2.729A5.319,5.319,0,0,0,218.8,5c.935-.355,2-.45,2.907-.829.822-.342.735-.789,1.346-1.494" transform="translate(-182.307 0)" fill="#e34927"/>
          <path id="Trazado_719472" data-name="Trazado 719472" d="M202.994,26.393a7.883,7.883,0,0,0-.827-1.319v2.785a1.977,1.977,0,0,0-.6-1.173c.075.44-.15.806-.15,1.173-.376-.147-.376-.513-.6-.733a10.768,10.768,0,0,1-.075,2.2c-.451-.147-.752-.586-1.128-.88-.151.513,0,1.026-.376,1.466,0-.366-.3-.733-.3-1.1-.226.66-.3,1.466-.527,2.126a2.213,2.213,0,0,1-.6-1.173c-.15.733,0,2.2-.752,2.126-.376,0-.527-.733-.752-1.246-.3.44-.226,1.173-.6,1.319-.451.147-.075-.806-.6-1.026,0,.366-.075.66-.376.806-.075-.147,0-.586-.151-.44-.3.147-.376.66-.677.806-.376.293-.226-.733-.6-.733-.226,0-.3.66-.6.586-.226-.073-.151-.513-.451-.586,0,.147-.15.293-.15.22a.711.711,0,0,0-.08-.135c.473-.753.958-1.494,1.373-2.3.546-.887.637-1.331,1.092-2.218a4.971,4.971,0,0,0,.455-1.331,4.15,4.15,0,0,0,.091-2.04c-.182-1.6-5.2-2.2-5.189-2.306.007.065,1.69-3.168,3.181-4.021a6.112,6.112,0,0,1,4.264-.668,5.488,5.488,0,0,1,2.751,1.584,24.1,24.1,0,0,1,2.094,3.282,42,42,0,0,1,1.067,4.218,1.1,1.1,0,0,1-.192.733" transform="translate(-157.919 -14.078)" fill="#c96f4f"/>
          <path id="Trazado_719473" data-name="Trazado 719473" d="M237,29.908a7.682,7.682,0,0,1,2.928-2.81,1.475,1.475,0,0,1,1.508.053c.415.238.874.616,1.391.455-.6.345-.85,1.026-1.336,1.481a3.744,3.744,0,0,1-1.983.868c.028.156.881.549,1.018.632Z" transform="translate(-204.519 -23.046)" fill="#e34927"/>
          <path id="Trazado_719474" data-name="Trazado 719474" d="M251.629,33c-.155.168-.6-.1-.6-.1a.987.987,0,0,0-1.489.462,1.724,1.724,0,0,1-.525.637,3.215,3.215,0,0,1,.867.212A.954.954,0,0,0,251.2,33.6a1.742,1.742,0,0,1,.428-.6" transform="translate(-215.095 -28.028)" fill="#382118"/>
          <path id="Trazado_719475" data-name="Trazado 719475" d="M254.553,34.832a.48.48,0,0,0-.383.564.5.5,0,0,0,.624.295.481.481,0,0,0,.383-.564.5.5,0,0,0-.624-.295" transform="translate(-219.416 -29.806)" fill="#f79854"/>
          <path id="Trazado_719476" data-name="Trazado 719476" d="M257.59,37.436a.19.19,0,0,0-.137.234.2.2,0,0,0,.241.134.19.19,0,0,0,.137-.234.2.2,0,0,0-.241-.134" transform="translate(-222.548 -32.047)" fill="#382118"/>
          <path id="Trazado_719477" data-name="Trazado 719477" d="M242.133,155.215a.336.336,0,0,0,.094.289,1.2,1.2,0,0,0,.241.2,3.042,3.042,0,0,0,.55.326.791.791,0,0,0,.261.061.59.59,0,0,0,.237-.037.3.3,0,0,0,.148-.113,1,1,0,0,1,.127-.17.4.4,0,0,1,.185-.107.385.385,0,0,1,.248.02.571.571,0,0,1,.216.188.976.976,0,0,0,.087.1.884.884,0,0,0,.217.152,1.342,1.342,0,0,0,.559.137,3.216,3.216,0,0,0,1.266-.316,2.428,2.428,0,0,1-.543.446,1.833,1.833,0,0,1-.7.249,1.54,1.54,0,0,1-.781-.1,1.294,1.294,0,0,1-.353-.218,1.366,1.366,0,0,1-.143-.152c-.031-.043-.062-.061-.03-.041a.128.128,0,0,0,.08.006.093.093,0,0,0,.041-.02,1.081,1.081,0,0,0-.074.1.764.764,0,0,1-.4.275.977.977,0,0,1-.442.026,1.09,1.09,0,0,1-.388-.147,2.267,2.267,0,0,1-.536-.49,1.158,1.158,0,0,1-.195-.311.5.5,0,0,1-.034-.184.291.291,0,0,1,.06-.169" transform="translate(-209.01 -132.895)" fill="#c96f4f"/>
          <path id="Trazado_719478" data-name="Trazado 719478" d="M188.483,123.116a.438.438,0,0,0,.209.23.454.454,0,0,0,.264.048.993.993,0,0,0,.262-.068c.088-.035.18-.066.264-.1a.727.727,0,0,0,.379-.311c.017-.032.032-.079.055-.134a.542.542,0,0,1,.117-.185.329.329,0,0,1,.239-.09,1.706,1.706,0,0,1,.172.019A1.365,1.365,0,0,0,191.9,121.3l.037-.267.218.109a1.083,1.083,0,0,0,.574.11.989.989,0,0,0,.54-.214,1.227,1.227,0,0,0,.365-.524,1.71,1.71,0,0,0,.1-.728,1.623,1.623,0,0,1,.055.8,1.411,1.411,0,0,1-.332.7,1.2,1.2,0,0,1-.646.365,1.289,1.289,0,0,1-.77-.086l.255-.159a1.792,1.792,0,0,1-.637,1.225,1.45,1.45,0,0,1-1.238.312c-.058-.011-.1-.025-.124-.027s-.02,0-.031,0a.183.183,0,0,0-.052.068c-.022.039-.045.092-.082.148a.74.74,0,0,1-.262.246,1.237,1.237,0,0,1-.3.111c-.1.024-.194.043-.294.056a1.157,1.157,0,0,1-.313.009.591.591,0,0,1-.311-.138.489.489,0,0,1-.174-.306" transform="translate(-148.35 -102.564)" fill="#c96f4f"/>
          <path id="Trazado_719479" data-name="Trazado 719479" d="M267.422,185.06a.928.928,0,0,1-.491.414,1.344,1.344,0,0,1-.658.08,1.324,1.324,0,0,1-.616-.24.907.907,0,0,1-.366-.523,4.688,4.688,0,0,0,.546.186,3.778,3.778,0,0,0,.5.1,3.706,3.706,0,0,0,.509.03,4.6,4.6,0,0,0,.576-.045" transform="translate(-233.29 -158.219)" fill="#c96f4f"/>
          <path id="Trazado_719480" data-name="Trazado 719480" d="M217.185,175.4a.9.9,0,0,1-.235.59,1.312,1.312,0,0,1-.543.37,1.337,1.337,0,0,1-.659.068.939.939,0,0,1-.574-.3,4.74,4.74,0,0,0,.571-.084,3.8,3.8,0,0,0,.489-.141,3.648,3.648,0,0,0,.464-.205,4.516,4.516,0,0,0,.488-.3" transform="translate(-175.658 -150.18)" fill="#c96f4f"/>
          <path id="Trazado_719481" data-name="Trazado 719481" d="M244.23,52.733a3.823,3.823,0,0,1-.011,1.673,4.731,4.731,0,0,0-.1,1.471,1.481,1.481,0,0,0,.816,1.173,1.573,1.573,0,0,0,.6.106,1.82,1.82,0,0,0,1.514-.695,2.326,2.326,0,0,0,.289-.689,3.594,3.594,0,0,0,.019-2.4,2.9,2.9,0,0,0-1.786-1.5,4.9,4.9,0,0,0-1.149-.22c-.274-.022-.814-.122-1.052.033a2.018,2.018,0,0,1,.86,1.047" transform="translate(-210.191 -44.181)" fill="#e34927"/>
          <path id="Trazado_719482" data-name="Trazado 719482" d="M267.046,40.568c-1.472.207-2.314,2.045-2.314,2.045a6.108,6.108,0,0,1,2.644-.341c.194-.161,1.145.2,1.145.2a4.257,4.257,0,0,0-1.048-1.291,1.04,1.04,0,0,1-.428-.614" transform="translate(-234.307 -34.734)" fill="#ffe09c"/>
          <path id="Trazado_719483" data-name="Trazado 719483" d="M275.485,42.882c.016.054-.047.12-.142.147s-.185.006-.2-.048.047-.12.142-.147.185-.006.2.048" transform="translate(-242.808 -36.664)" fill="#382118"/>
          <path id="Trazado_719484" data-name="Trazado 719484" d="M9.106,86.748a.077.077,0,0,0,.048-.017,19.9,19.9,0,0,0,5.028-6.947.073.073,0,0,0-.039-.1.076.076,0,0,0-.1.038,19.745,19.745,0,0,1-4.985,6.891.072.072,0,0,0-.011.1.076.076,0,0,0,.058.027" transform="translate(57.759 -68.224)" fill="#382118"/>
          <path id="Trazado_719485" data-name="Trazado 719485" d="M11.574,146.042a.077.077,0,0,0,.038-.01c.064-.037,1.589-.939,3.578-4.553a.072.072,0,0,0-.031-.1.076.076,0,0,0-.1.03c-1.97,3.577-3.507,4.487-3.522,4.5a.073.073,0,0,0-.027.1.076.076,0,0,0,.065.036" transform="translate(56.384 -121.042)" fill="#382118"/>
          <path id="Trazado_719486" data-name="Trazado 719486" d="M64.984,190.45a16.376,16.376,0,0,0,2.626-.209,15.856,15.856,0,0,0,4.652-1.522,17.409,17.409,0,0,0,4.088-2.912,21.561,21.561,0,0,0,3.412-4.227.072.072,0,0,0-.025-.1.077.077,0,0,0-.1.025,21.407,21.407,0,0,1-3.388,4.2,17.261,17.261,0,0,1-4.052,2.887,15.7,15.7,0,0,1-4.608,1.507,16.8,16.8,0,0,1-5,.04,20.816,20.816,0,0,1-5.278-1.494c-.223-.1-.45-.2-.673-.3a.076.076,0,0,0-.1.035.073.073,0,0,0,.036.1c.225.1.453.2.677.3a20.97,20.97,0,0,0,5.317,1.505,17.64,17.64,0,0,0,2.417.169" transform="translate(-14.834 -155.373)" fill="#382118"/>
          <path id="Trazado_719487" data-name="Trazado 719487" d="M67.717,177.98a27.213,27.213,0,0,0,12.415-3.422.073.073,0,0,0,.031-.1.076.076,0,0,0-.1-.03c-4.815,2.5-9.365,3.63-13.524,3.368a.076.076,0,0,0-.08.069.074.074,0,0,0,.07.078q.59.037,1.19.037" transform="translate(-16.698 -149.339)" fill="#382118"/>
          <path id="Trazado_719488" data-name="Trazado 719488" d="M370.141,310.211a10.574,10.574,0,0,1,4.147-1.062h.025q.127,0,.251,0h.036q.119,0,.236.006l.04,0c.077,0,.153.009.228.015l.037,0q.118.011.232.026l.023,0a4.693,4.693,0,0,1,.722.153l.023.007c.064.02.127.041.189.063l.055.022c.049.019.1.039.146.06l.066.03c.042.02.084.04.124.062l.068.037q.056.032.11.066l.067.043c.034.023.067.047.1.072l.062.048c.032.026.062.053.092.08s.037.033.055.05.06.063.09.1c.014.015.029.03.042.046a1.834,1.834,0,0,1,.116.152c.026.038.049.077.071.117s.038.072.056.109h0c.759,1.592-.656,4.707-3.227,6.369a7.876,7.876,0,0,1-1.718.851h0c-.1.035-.2.066-.3.094l-.066.018q-.122.033-.242.061l-.061.014q-.147.032-.292.055l-.022,0c-.088.013-.175.024-.261.032l-.067.006q-.122.01-.242.014h-.036q-.138,0-.272,0l-.051,0q-.11-.006-.218-.018l-.061-.007a3.765,3.765,0,0,1-.5-.1l-.058-.016q-.1-.028-.2-.062l-.048-.016c-.079-.029-.156-.06-.232-.094l-.03-.014q-.1-.045-.193-.1l-.054-.03q-.1-.054-.189-.114l-.023-.014c-.069-.046-.137-.095-.2-.146l-.042-.034q-.079-.063-.156-.131l-.045-.04c-.062-.058-.124-.117-.183-.18a3.928,3.928,0,0,1-.387-.482c-1.34-1.968-.721-4.814,2.176-6.222" transform="translate(-358.771 -264.69)" fill="#f08f4a"/>
          <path id="Trazado_719489" data-name="Trazado 719489" d="M378.473,313.773a.076.076,0,0,0,.06-.028.072.072,0,0,0-.013-.1,3.167,3.167,0,0,0-2.3-.54.074.074,0,0,0-.061.085.075.075,0,0,0,.088.059,3.069,3.069,0,0,1,2.177.511.077.077,0,0,0,.046.015" transform="translate(-360.778 -268.042)" fill="#ffe09c"/>
        </g>
      </g>
    </g>
  </g>
</svg>
