<svg xmlns="http://www.w3.org/2000/svg" xmlns:xlink="http://www.w3.org/1999/xlink" width="140" height="140" viewBox="0 0 140 140">
  <defs>
    <clipPath id="clip-path">
      <rect id="Rectángulo_344544" data-name="Rectángulo 344544" width="115.699" height="111.504" fill="none"/>
    </clipPath>
    <clipPath id="clip-path-3">
      <rect id="Rectángulo_344538" data-name="Rectángulo 344538" width="115.699" height="66.002" fill="none"/>
    </clipPath>
    <clipPath id="clip-path-5">
      <rect id="Rectángulo_344540" data-name="Rectángulo 344540" width="69.085" height="45.804" fill="none"/>
    </clipPath>
    <clipPath id="clip-path-6">
      <rect id="Rectángulo_344541" data-name="Rectángulo 344541" width="65.809" height="45.947" fill="none"/>
    </clipPath>
    <clipPath id="clip-path-7">
      <rect id="Rectángulo_344542" data-name="Rectángulo 344542" width="51.146" height="25.035" fill="none"/>
    </clipPath>
  </defs>
  <g id="Grupo_983951" data-name="Grupo 983951" transform="translate(-730 -706)">
    <circle id="Elipse_5871" data-name="Elipse 5871" cx="70" cy="70" r="70" transform="translate(730 706)" fill="#06d1d1"/>
    <g id="Grupo_983802" data-name="Grupo 983802" transform="translate(742.151 720.248)">
      <g id="Grupo_983801" data-name="Grupo 983801" clip-path="url(#clip-path)">
        <g id="Grupo_983789" data-name="Grupo 983789" transform="translate(0 0)">
          <g id="Grupo_983788" data-name="Grupo 983788" clip-path="url(#clip-path)">
            <g id="Grupo_983787" data-name="Grupo 983787" transform="translate(0 45.502)" style="mix-blend-mode: multiply;isolation: isolate">
              <g id="Grupo_983786" data-name="Grupo 983786">
                <g id="Grupo_983785" data-name="Grupo 983785" clip-path="url(#clip-path-3)">
                  <path id="Trazado_719012" data-name="Trazado 719012" d="M98.327,91.56l-2.2-1.26-.472,1.68-1.219.368-2.71-2.678-1.223.153-.545,1.655-.06,2.95-1.06.721-2.608-3.368-.058,3.372-2.293-2.933L83.268,94.2l-.708,1.872-1.7-1.494-1.564-1.2-.51,2.9L77.75,97.289l-1.313-.207-2.009-3.81-.423,4.254-1.022,1.4-1.392-.815-1.138.831L69.044,97.7l-1.1,1.265L66.4,95.885l-1.087,1.492-1.3-1.231-.982,4.276-1.3-1.015-1.232.6L59.224,98.47l-1.23-2.222-1.243,2.514-1.235-.147-1.281,1-1.073-3.176-1.516,4.352-1.075-2.369L49.556,96.1l-.992-1.979L47,97.144l-.9-2.357-1.916,4.576-.863-2.441-1.757,2.755-.443-4.25-.736-2.321-1.562,1.52-1.944,2.819-.177-4.208-1.279.161L33.577,95.36l-1.394.318.195-4.446-2.3,2.952-1.889,1.528.269-4.08-1.18-.267-2.821,3.408.374-3.788L24.583,88.8l-2.608,2.5-.233-2.116-2.8,2.481.28-2.865-2.294,1.332-.385-1.681.548-2.87L14.809,86.66l.747-2.849-1.251-.277-3.712,2.348,1.884-3.735L8.934,83.938l-1.98.054,2.1-3.4-2.241.213L4.314,81l4.837-4.523-.685-.79-.767-.76-3.247.25L5.81,73.44l-.195-1.057.3-1.147-2.985-.53L1.363,69.682.631,68.445l4.5-1.2.162-1.012L0,64.408l2.574-.84.659-1.078,1.02-.916L6.669,61.3,7.7,60.627l-3.226-2.88,3.831.846L5.981,55.767l2.133.031-.531-1.912L8.6,53.134l2.768.913-1.315-2.93,3.91,2.39.75-.814-2.9-5.317,3.527,2.47.582-1.213-.116-2.3,3.351,2.871L18.793,46.4l.75-1.114,1.415.037,1.469.207.942-.79.929-.848,1.1-.5.464-2.031,2.912,3.952.662-1.534,1.368.314-.276-4.515,2.1,2.5.786-1.567,1.359.317,1.636,1.458.744-1.945L38.82,42.16l.417-3.728L40.7,39.481l.663-3.172,1.326.276,1.81,3.58,1.268.4.867-2.751,1.3.586,1.349,1.3L50.282,37l1.139-1.534,1.5,4.573,1.21.357,1.2.259,1.163-2.162,1.223-3.425,1.254.489,1.111,4.986L61.4,37.358l1.135,1.754,1.515-4.326,1.036,2.844.916,3.273,1.3-.933,1.517-2.426,1.264-.106,1.453-1.269.685,3.491,1.233-.009L75.01,38.09l1.18.425,1.66-1.663.892,1.676.391,3.38,1.315-.254,1.6-1.138,2.01-2.263-.8,6.321,2.314-3.015,1.019.765,2.184-2.181.36,2.411-.181,3.422,2.509-2.616.157,2.445L94,43.795,93.9,46.556l3-2.818-.256,2.836.522,1.434,1.384.078,2.88-1.942.506,1.461-1.635,4.026,2.2-.818.292,1.451,1.114.523,1.082.585-.657,2.136,1.727.005,4.468-1.906-3.757,4.147,2.054.009,3.313-.5-4.623,3.677,6.007-1.439-.585,1.606-3.506,2.33,2.574.449,2.849.692-.923,1.41-1.472,1.3,3,1.213.242,1.355-2.539.985-1,1.014-1.444.8-1.631.6-.929.723,5.149,3.513-1.464.722.2,1.608-3.549-.769.5,1.809-1.623.286.328,1.861-.7,1.067-4.481-2.714.332,1.961.05,1.816-1.584-.047-.617,1.128-.4,1.491-2.457-1.434-.256,1.754Z" transform="translate(0 -34.786)" fill="#e0e0e0"/>
                </g>
              </g>
            </g>
          </g>
        </g>
        <path id="Trazado_719013" data-name="Trazado 719013" d="M94.7,86.543l-2.71-.918-1.128,2-1.826.638-3.1-2.506-1.806.343-1.273,1.852-.946,3.16-1.751.846-2.85-3.385-1.06,3.519L73.7,89.1l-1.478,2.035-1.58,1.9-2.123-1.575-2.009-1.29-1.563,2.884-1.817.922-1.912-.343-2-4.028-1.766,4.149-1.9,1.218L53.673,93.93l-1.923.6-1.8-1.51L47.976,94l-1.513-3.384-2.009,1.156-1.63-1.574L40.252,94.03l-1.673-1.417-1.99.137-1.472-1.969-1.2-2.637-2.5,1.881-1.755-.708-2.141.328-.6-3.593-3.487,3.322-.778-2.89-.644-2.823-.649-2.5-3.2,1.768-.306-2.875-4.336,2.761-.1-3.006-3.468.922,1.506-4.29.43-2.738-2.481-.277-3.689.144,2.638-3.595L7.243,68.6l-2.811-1L3.337,65.8,7.394,63.52,3.9,61.8,2.083,59.559l4.225-1.112.381-1.72L3.626,53.291l4.124-.044,2.543-.45L8.75,49.338l2.581-.233-1.08-3.789,3.2.657.1-2.967,2.3-.153,3.037,1.2.5-2.777,2.905,1.487L23.65,41.5l-.022-4.467L26.9,39.945l.416-4.045,1.353-1.959,2.969,2.967,1.288-2.235,1.333-2.434,3.307,5.71,1.72-.518L41,36.821l1.329-3.15,2.1,1.559,1.833-.058,1.868.391,1.622-2.8,1.8-1.435,1.878-.672,1.942,4.233,1.82.1,1.992-5.151,1.8,2.315,1.852.454,1.806.791,1.613,2.209,1.719.828,2.429-3.724,1.219,3.81L74.1,33.549l1.473,2.009,2.2-1.1,1.762.714,1.045,2.952,2.695-2.234.283,4.628,1.714.5L89.3,36.366l.033,4.4L91.278,41l2.607-.814-.522,4.492,2.96-1.145,1.911.613,1.078,1.71.863,1.85,1.549,1.078,1.553,1.133,1.2,1.469,2.511.691-3.207,3.867,1.8,1.043-.149,1.829,4.671.862-2.723,2.269,1.312,1.838-.825,1.812-2.115,1.354,1.114,2.2-2.636.778,2.284,3.288-2.128.908,1.2,3.394-1.707,1.228-4.035-1.322-1.7.777.207,3.209-1.953.536-2.33-.16Z" transform="translate(0.642 9.192)" fill="#ffa43b"/>
        <path id="Trazado_719014" data-name="Trazado 719014" d="M95.413,80.888l-2.079-1.26-.447,1.68-1.154.368L89.17,79l-1.158.153L87.5,80.806l-.056,2.95-1,.721-2.468-3.368-.054,3.372-2.17-2.933-.581,1.976-.67,1.872L78.882,83.9,77.4,82.7l-.481,2.9-.976,1.011L74.7,86.411,72.8,82.6l-.4,4.254-.965,1.4-1.317-.815-1.077.831-1.334-1.237-1.041,1.265-1.457-3.079-1.029,1.492-1.233-1.231-.93,4.276-1.231-1.015-1.165.6-1.2-1.537-1.163-2.222L56.077,88.09l-1.168-.146-1.211,1-1.015-3.176-1.435,4.352-1.016-2.369-.961-2.315-.939-1.979-1.485,3.019-.855-2.357-1.813,4.576-.816-2.441L41.7,89l-.42-4.25-.7-2.32L39.1,83.954l-1.838,2.819L37.1,82.565l-1.21.161L34.15,84.688l-1.319.318.184-4.446-2.171,2.952L29.056,85.04l.255-4.08-1.117-.267L25.526,84.1l.353-3.788-.238-2.186-2.468,2.5-.221-2.116L20.3,80.993l.266-2.865L18.393,79.46l-.364-1.681.519-2.87-2.154,1.079.705-2.849-1.182-.277L12.4,75.21l1.782-3.735-3.35,1.791-1.876.054,1.986-3.4-2.12.213-2.362.192L11.041,65.8l-.649-.79-.725-.76L6.6,64.5l1.283-1.734-.184-1.057.284-1.147-2.823-.53L3.672,59.011l-.693-1.237,4.255-1.2.153-1.012-5-1.823,2.436-.84.624-1.078.965-.916,2.284-.275.974-.674-3.052-2.88,3.625.846L8.041,45.1l2.018.031-.5-1.912.958-.752,2.619.913-1.244-2.93,3.7,2.39.709-.814L13.552,36.7l3.337,2.47.551-1.213-.11-2.3L20.5,38.536l-.337-2.807.709-1.114,1.339.037,1.39.207.891-.79.879-.848,1.043-.5.44-2.031,2.755,3.952.627-1.534,1.295.314L31.268,28.9l1.988,2.5L34,29.835l1.286.317,1.549,1.458.7-1.945,1.572,1.823.394-3.728,1.389,1.049.627-3.172,1.256.276,1.714,3.58,1.2.4.821-2.751,1.232.586,1.277,1.3.937-2.708,1.079-1.534,1.417,4.573,1.145.357,1.133.259,1.1-2.162,1.158-3.424,1.186.489,1.05,4.986,1.254-3.184,1.074,1.754,1.435-4.326.978,2.844.867,3.273,1.23-.933L67.5,26.872l1.2-.106L70.067,25.5l.649,3.491,1.168-.009,1.468-1.561,1.117.425,1.57-1.663.844,1.676.371,3.38,1.243-.254,1.513-1.138,1.9-2.263L81.156,33.9l2.191-3.015.963.765,2.068-2.181.34,2.411L86.546,35.3l2.374-2.616.149,2.445,2.252-2.01-.1,2.761,2.836-2.818L93.813,35.9l.493,1.434,1.309.078,2.725-1.942.479,1.461L97.273,40.96l2.085-.818.276,1.451,1.056.523,1.023.585-.621,2.136,1.632.005,4.229-1.906L103.4,47.083l1.942.009,3.134-.5L104.1,50.268l5.684-1.439-.552,1.606-3.319,2.33,2.437.449,2.695.692-.872,1.41-1.393,1.3,2.84,1.213.229,1.355-2.4.985-.947,1.014-1.366.8-1.544.6-.879.723,4.871,3.513-1.384.722.19,1.608-3.356-.769.468,1.809-1.536.286.31,1.861-.658,1.067-4.239-2.714.314,1.961.047,1.816-1.5-.047-.585,1.128-.378,1.491L94.951,75.6l-.243,1.754Z" transform="translate(0.734 7.429)" fill="#ffbd59"/>
        <g id="Grupo_983800" data-name="Grupo 983800" transform="translate(0 0)">
          <g id="Grupo_983799" data-name="Grupo 983799" clip-path="url(#clip-path)">
            <path id="Trazado_719015" data-name="Trazado 719015" d="M78.056,35.033l-3.2,3.473a6.352,6.352,0,0,0-.371-1.315c-.1,0-3.708.742-3.708.742l.2-1.285-.539-1.615L67.4,35.91,66.084,35.3l-1.146-1.922-2.058,1.011L62.308,32.1l-1.922,1.517-.844-1.672-2.09,1.133-1.585-.709-2.46-1.415-1.99.268L50.4,32.706l-2.124.506-1.349-.675-2.014-.37-1.965-1.383-1.281-.878H44.1l1.618-4.552.776,5.193,1.315.674,1.147-2.527,1.112,1.349.406-3.676,2.022,3.372,1.113.742.713-.844,3.2-2.629,1.517,4.046,1.854-1.618s3.036-2.631,3.036-2.53.674,5.024.674,5.024l1.72,1.012,3.035-3.979-1.417,4.552.844.506,2.293-2.077,2.731-1.262.472,5.026,1.517.1.776-2.462.169,2.192,1.854-1.754.54,2.863,1.956-2.391.235,2.391,1.648.8-3.491,1.057L78.46,39.855l-1.546-1.079h-.882Z" transform="translate(12.837 7.811)" fill="#ffd36e"/>
            <path id="Trazado_719016" data-name="Trazado 719016" d="M14.629,37.6,15.995,39.3s2.292,1.29,2.689,1.441,4.285,2,4.285,2h1.169l-2.124-3.38,1.871-.527,3.541.463.3-1.694L28.842,37l.96.607,1.771-2.276a4.2,4.2,0,0,1,.455.759c.051.2,1.872-1.568,1.872-1.568L35,32.9l2.11,1.366,1.145.2,2.934.488,3.894-1.5,2.607-.853,3.16-.109-3.44-6.777L45.566,29.89,43.915,28.9,42.3,30.723l-1.872-.2-1.517-4.8-.607,3.49-1.732.152a.824.824,0,0,0-.494.859c.1.607.254,1.213.254,1.213H34l-.557-1.368-.454,2.432-1.316-1.384-1.366-.335V32.7l-2.377-2.124V29.509l.657,4-1.719-.051-.433,1.5-1.236.32-1.265-2.782-.607,1.974-2.61-.892.334,1.751-2.369.2-.313,1.009.313.71-1.475,1.585,1.062.91Z" transform="translate(4.507 7.922)" fill="#ffd36e"/>
            <path id="Trazado_719017" data-name="Trazado 719017" d="M86.86,48.489l-.632.525-1.41,1.155-.323.551-.2.364-.229.39.5,1.464L84,54.213l.067.175.443,1.088.188.47.094.242-.229.041-1.074.12-1.116.122.43,2.056-1.169.954-2.526-.565.094,2.218-.229,2.149-2.164-.578-1.048,1.062-.632,1.868-1.182.981-.081.013-.268.027-1.21.12L70.8,66.736l-.3-.229-1.787-1.423-.094,1.02-.188,2.15-.041.484-.846-.457-.94-.484-.255.3-.484.564-.4.471-.591-.538-.242-.229-1.022-.9-.335.416-.82,1.022-1.626-1.088-1.519-.887-1.29.846-1.411-.161L55.35,69.061l-.068.054-1.424-.778-1.249,1.907-.148.216-.013-.041-1.384-1.693-1.384-.739L48.6,67.651l-.283-.081-1.343-.551-1.585,1.572-.726-.484-.564-.377-.726-.094-.672-.08-.645.6L40.9,69.236l-.081-.349L40.192,66l-1.652.82-.807.752-1.249,1.182L36,65.769l-.013-.133-1.182.632-.7.362-.188-.349-.685-1.264-.859-.375-.43-.188-.081-.364L31.445,62.4l-1.182.645-1.035.551-1.371-.564-1.451-.471.268-2.7-1.384-.471-1.2-.752-.39-1.465H21.326l.458-1.142.242-.6.161-.39-.255-.994-.068-.269-.215-1.249-.12-.027-2.943-.78-.82-1.571-.041-1.707,2.876-.994.375-1.3L20.6,44.391l1.3-.861.041-.013-.027-.067-.4-2.069,1.182.041,1.116.013-.323-1.3-.375-1.5,2.056.067H25.2l2.406.833-.242-1.478-.3-1.881,2.419,1.169.551-1.962,2.245,1.384.228-2.956,1.251-.82,2.055,1.478,1.345-.375,1.572.5.913-2.069,1.2-1.169,1.8,1.787,1.2-1.343,1.33-.793L46.79,32.74l1.424.619,1.371-.054,1.33-1.2,1.384.658,1.41-.9,1.345,1.343L56.5,32.136l1.264,1.371,1.814-3.387,1.491-.041L62.1,32.593l1.074,1.759,1.613-.927,1.962-1.84.443,3.481,2.419-2.782.377,3.158,2.419-2.19,1.182.967.833,1.613,1.975-.564-.458,2.768-.161.981L77.749,37.7l1.264-.859-.175.725-.228.914-.068.283-.39,1.585,1.908-.068-.027,1.99.659,1.155,1.6.457,2.433.242.187,1.6.081,1.558Z" transform="translate(5.46 9.266)" fill="#ffa43b"/>
            <path id="Trazado_719018" data-name="Trazado 719018" d="M75.695,54.62l-.578.78.364.859L75.05,57l.617,1.169-1.868.148.323,1.21-.9.564-1.962-.336.081,1.29-.175,1.264-1.693-.336-.793.6-.027.027-.484,1.1-.416.256-.5.309-.645.054-.565.041-.322-.014-.9-.013-.3-.174-1.33-.794L63.064,64.5l-.014.162-.094.859-1.37-.551-.914.78-1.424-.981-.9.846L57.1,64.966l-1.182-.525-1.009.511-1.075-.107-.309.281-.067.054-.645.565L51.7,65.275l-.913,1.035-.162.175-.026.041L49.506,65.5l-1.062-.43-1.061-.242L46.94,64.7l-.591-.188-1.223.927-1.022-.5-1.075-.12-1.384.994-.188-.632-.174-.591-.188-.671-.859.309-.417.161-.82.565-.793.564-.388-1.827-1.452.591-.457-.645-.229-.309L34.7,63l-.39-1.209-.133.039-1.2.5-.4.162-.484-.148-.564-.175-1.142-.281.161-1.182.054-.4-.564-.148-.5-.12-.942-.443-.161-.484-.135-.375h-1.84l.659-1.264-.256-.739L26.7,56l-2.378-.47-.632-.927-.041-.981,2.245-.6.281-.767-.309-1.022,1.062-.5-.323-1.262,1.774.041-.538-1.653,1.613.041,1.868.484-.417-1.962,1.881.671.417-1.128.322.148,1.424.658.175-1.733.954-.484,1.613.859,1.035-.215,1.223.3.7-1.21.806-.591.135-.093,1.4,1.035.914-.78,1.035-.471,1.249,1.022,1.116.375,1.061-.039,1.035-.713,1.075.39,1.1-.51,1.02.78,1.129-.632.994.806,1.411-1.988,1.142-.027.525.968.268.51.833,1.035,1.264-.551,1.519-1.062.349,2.043L63.9,44.153l.3,1.84,1.867-1.277.927.565.632.94L69.15,45.9l-.47,2.2,2.513-1.3-.659,2.084L72,48.829,71.972,50l.511.672,1.249.283,1.881.148.162.913.054.914,1.451.712Z" transform="translate(7.286 13.2)" fill="#e67d22"/>
            <path id="Trazado_719019" data-name="Trazado 719019" d="M22.1,39.95,14.713,35.5l4.553,4-2.682.1a2.355,2.355,0,0,0-1.568.952,6.336,6.336,0,0,1-2.276,1.578L10.06,40.1l1.77,2.631,1.923,1.77-3.137.254-2.731-.406,4.4,2.579,1.669,3.288L8.391,48.094,5.053,49.409s-1.214.455.657.81a63.753,63.753,0,0,1,6.576,2.124l6.171,2.377.252-2.657-2.782-4.627,6.576-2.32-3.945-1.575,2.631-1.062,1.669-1.466L24.426,39.6Z" transform="translate(1.437 10.936)" fill="#ffd36e"/>
            <path id="Trazado_719020" data-name="Trazado 719020" d="M25.716,52.856,18.7,52.533a20.708,20.708,0,0,1-2.562.684c-.675.068-3.035-.386-3.844-.361s-5.733-3.011-5.733-3.011H4.472L9.4,53.225l.2,2.084-2.361.472,4.654.742h4.99l-1.787,1.146s-3.81,1.244-4.216,1.364a23.957,23.957,0,0,0-2.7,2.48l6.424-.4,4.5-.564,1.619-2.437,7.621-.777L19.04,62.187l-2.9,1.175-1.079-.713L16.3,65.836l3.345-.344,3.1-1.128a18.756,18.756,0,0,0-2.764,2.207c-.068.337-.852,4.114-.852,4.114l4.628-2.765-1.948,1.956h1.61l4.383-2.293-1.281,4.047,3.04-.944L33.2,69.134s-3.5,3.169-3.636,3.372a9.724,9.724,0,0,0,0,2.024l2.489-2.9,2.765-1.35.878-.4-1.472,4.383,5.113-3.035,4.249-1.146-1.483,2.7-.944.944.472,3.979,1.956-2.092,2.293-2.36,2.9.135,1.278,3.372v2.9l2.559-3.979s1.151,2.765,1.286,3.035,2.565-3.035,2.565-3.035L58.155,75,59.6,78.372,60.92,80.4l2.562-5.328,2.3-1.889,2.492-.336v3.1l2.158,3.237L72.182,71.9l3.1,4.787-.2-7.89-3.911-4.721-2.09,1.551-1.889-.506H64.764l-1.349,1.855-3.44-2.611-1.55.756-1.551,1.045-4.721,2.5-2.226-2.5-.4-3.1L44.8,67.381l-1.214-2.26.377-2.472-3.411,1.158L39,64.364l-.872-2.717-2.225.269H33.606l.2-2.293-3.71.921-3.642.7,3.871-2.211-2.116-.925.471-1.864-2.36-2.014,1.349-1.373-1.888-1.325Z" transform="translate(1.378 15.355)" fill="#ffd36e"/>
            <path id="Trazado_719021" data-name="Trazado 719021" d="M56.784,68.943l5.159,1.265-1.062,4.349,3.592,1.316-1.063,3.084,1.063,1.265,3.115-4.654-.99,3.137,2.073-3.44s1.113,3.288,1.113,3.592V72.636l-4.148-1.973S73.678,74,73.78,74.354A13.962,13.962,0,0,0,75.9,76.277L77.421,73.5,75.55,71.168l4-.657,1.871.5-2.579-4.5s1.923-1.012,2.327-.759,3.035-.051,3.237-.051a18.587,18.587,0,0,1,2.073,1.265l-1.011-3.338-.607-1.316,4.8.658,2.05.943-2.251-2.208-4.806-3.691,5.413-1.366,4.3-.91s-6.576-2.479-6.727-2.479,2.093-1.355,2.093-1.355l3.218-1.124-4.755-.4-4.653-1.669L89.763,47.5l2.276-.4H83.946l7.294-2.71-6.08-.224,1.669-2.174H82.175l.2-2.428-1.214-1.012-2.377,1.012.152-3.035a32.014,32.014,0,0,0,2.276-2.53c-.254.1-5.64,1.872-5.64,1.872l.811,4.1,2.25.961-.3,1.821-.1,1.618,2.276,1.72-3.439,2.68,1.163,2.782,1.72,1.163-1.872.759-2.124,1.517.432,3.188-5.742.808-.859.759-.557,2.631-2.377.152-.708,2.528-1.72,1.771-2.883.1.353,1.619-2.208-1.872L58.3,67.881l-3.186.364Z" transform="translate(16.979 10.471)" fill="#ffd36e"/>
            <path id="Trazado_719022" data-name="Trazado 719022" d="M42.679,61.282a9.247,9.247,0,0,1-.041,1.223c-.013.133-.026.268-.041.4-.026.174-.054.349-.094.523a5.674,5.674,0,0,1-.349,1.251l-.187-.672-.861.31-1.155,1.074-.054-.228-.027-.122-.793.565-.39-1.827-1.451.591-.458-.645-1.249,1.181-.484-2.982-1.2.5-.7.362-.188-.349-.565-.174-1.142-.283.161-1.182-.429-.188-.081-.362-.5-.12-.94-.445-.161-.483-1.035.551L26.9,59.185l-1.223-.4-.228-.067.039-.349.229-2.352L24.4,55.571l-.067-.027-1.2-.752-.39-1.464H20.831q-.022-.606,0-1.21c.013-.323.026-.632.054-.94a17.532,17.532,0,0,1,.658-3.83c.068-.228.148-.457.229-.685a10.079,10.079,0,0,1,.457-1.088c.081-.148.161-.283.242-.416a6.088,6.088,0,0,1,.578-.861c.12-.148.255-.281.375-.4a3.154,3.154,0,0,1,.443-.39,2.384,2.384,0,0,1,.377-.268,4.288,4.288,0,0,1,.6-.323,4.871,4.871,0,0,1,2.378-.335h.027c2.258.2,4.811,1.625,7.149,3.627a25.693,25.693,0,0,1,6.585,8.627,18.126,18.126,0,0,1,1.693,6.45" transform="translate(6.414 13.109)" fill="#ffd3b4"/>
            <path id="Trazado_719023" data-name="Trazado 719023" d="M24.4,54.642c.054.135.12.283.188.416l-.229-.067Z" transform="translate(7.505 16.833)" fill="#ffc095"/>
            <path id="Trazado_719024" data-name="Trazado 719024" d="M24.848,42.913a4.869,4.869,0,0,1,2.378-.336c-.39,0-5.818.175-3.681,9.837a31.046,31.046,0,0,0,.859,3.158l-.067-.027-1.2-.752-.388-1.465H20.831q-.022-.6,0-1.209c.013-.323.026-.632.054-.94a17.519,17.519,0,0,1,.658-3.83c.067-.229.148-.457.229-.685a10.079,10.079,0,0,1,.457-1.088c.081-.148.161-.283.242-.417a5.858,5.858,0,0,1,.578-.859,5.4,5.4,0,0,1,.375-.4,3.073,3.073,0,0,1,.443-.39,2.481,2.481,0,0,1,.377-.269,4.422,4.422,0,0,1,.6-.322" transform="translate(6.414 13.108)" fill="#ffc095"/>
            <path id="Trazado_719025" data-name="Trazado 719025" d="M38.186,56.871a9.247,9.247,0,0,1-.041,1.223c-.013.133-.026.268-.041.4-.026.174-.054.349-.094.523a5.674,5.674,0,0,1-.349,1.251l-.187-.672-.861.31-1.155,1.074-.054-.228a10.821,10.821,0,0,0,2.781-3.884" transform="translate(10.907 17.52)" fill="#ffc095"/>
            <path id="Trazado_719026" data-name="Trazado 719026" d="M25.5,43.755h0a1.268,1.268,0,0,0-.863,2.02l.02.026a5.393,5.393,0,0,0,4.959,2.12,1.267,1.267,0,0,0,.863-2.018l-.02-.027a5.39,5.39,0,0,0-4.959-2.12" transform="translate(7.51 13.467)" fill="#ffeada"/>
            <path id="Trazado_719027" data-name="Trazado 719027" d="M71.25,50.17l.443,1.088-.941.752-.027.041-.054.081-1.114.12.429,2.056-1.168.954L66.291,54.7l.094,2.217-.228,2.15-2.164-.578-1.049,1.061-.63,1.868-.31.255-.872.726-.081.013a2.591,2.591,0,0,1-.309-.349,4.417,4.417,0,0,1-.364-.51A4.552,4.552,0,0,1,60.07,61a3.966,3.966,0,0,1-.228-.551c-.014-.027-.027-.041-.027-.068a5.1,5.1,0,0,1-.188-.6,11.305,11.305,0,0,1-.255-3.762q.02-.465.081-.927a16.324,16.324,0,0,1,1.29-4.5c1.249-2.888,3.239-5.562,5.334-6.476a.466.466,0,0,0,.12-.054.086.086,0,0,0,.055-.013,3.36,3.36,0,0,1,1.639-.256c.148.014.283.041.43.068a4.039,4.039,0,0,1,1.68.994c.12.122.242.255.362.39.094.12.188.229.283.336a9.278,9.278,0,0,1,.833,1.29l-.229.39.5,1.465-.564,1.275Z" transform="translate(18.275 13.484)" fill="#ffd3b4"/>
            <path id="Trazado_719028" data-name="Trazado 719028" d="M61.933,57.9l-.874.726-.08.013a2.511,2.511,0,0,1-.31-.349,4.52,4.52,0,0,1-.362-.51A4.569,4.569,0,0,1,60,57.23a3.843,3.843,0,0,1-.229-.551.142.142,0,0,1-.026-.067,5.1,5.1,0,0,1-.188-.6A7.235,7.235,0,0,0,61.933,57.9" transform="translate(18.347 17.254)" fill="#ffc095"/>
            <path id="Trazado_719029" data-name="Trazado 719029" d="M68.072,53.337l.067.17-.161.029-.313.038c.067-.266.123-.53.181-.8Z" transform="translate(20.845 16.256)" fill="#ffc095"/>
            <path id="Trazado_719030" data-name="Trazado 719030" d="M69.618,50.17l.443,1.088-.94.752a18.081,18.081,0,0,0-.054-2.1c-.5-6.705-3.978-5.994-4.447-5.872a3.36,3.36,0,0,1,1.639-.256c.148.014.283.041.43.068a4.039,4.039,0,0,1,1.68.994c.12.122.242.255.362.39.094.12.188.229.283.336a9.277,9.277,0,0,1,.833,1.29l-.229.39.5,1.465-.564,1.275Z" transform="translate(19.907 13.484)" fill="#ffc095"/>
            <path id="Trazado_719031" data-name="Trazado 719031" d="M65.863,44.676h0a.891.891,0,0,1,.992,1.184l-.008.022a3.794,3.794,0,0,1-2.908,2.436.891.891,0,0,1-.992-1.184l.008-.022a3.792,3.792,0,0,1,2.908-2.436" transform="translate(19.374 13.759)" fill="#ffeada"/>
            <path id="Trazado_719032" data-name="Trazado 719032" d="M62.374,61.889l-.5.309-.645.054-.041.484-.846-.457-.9-.013-.3-.175-.484.564-.4.471-.591-.538-.094.861L56.206,62.9l-.914.78-1.424-.981-.9.846L51.718,62.9l-1.182-.523-1.009.51-1.075-.107-.309.283-.067.054-.645.564-1.116-.47-.645.725-.268.31-.148.215-.014-.041-.026.041-1.088-1.022L43.064,63,42,62.763l-.443-.135c-.068-.323-.122-.658-.162-.981-.739-4.985-.107-9.89,2.782-11.5a4.792,4.792,0,0,1,2.3-.57l.069-.008c4.9-.094,11.851,5.375,14.875,10.535.026.054.067.107.093.161.31.551.606,1.088.861,1.626" transform="translate(12.666 15.269)" fill="#ffd3b4"/>
            <path id="Trazado_719033" data-name="Trazado 719033" d="M45.282,49.567c-.024,0-.044.008-.068.008l.068-.008" transform="translate(13.929 15.27)" fill="#ffc095"/>
            <path id="Trazado_719034" data-name="Trazado 719034" d="M43.925,59.737a31.274,31.274,0,0,0,1.748,4.192l-.269.309-.148.216-.013-.041-.027.041-1.088-1.022L43.065,63,42,62.76l-.443-.133c-.067-.323-.12-.659-.161-.981-.739-4.985-.107-9.89,2.781-11.5a4.8,4.8,0,0,1,2.3-.569c-.646.085-5.635,1.053-2.552,10.164" transform="translate(12.666 15.272)" fill="#ffc095"/>
            <path id="Trazado_719035" data-name="Trazado 719035" d="M45.121,50.817h0a1.268,1.268,0,0,0-.641,2.1l.024.025a5.4,5.4,0,0,0,5.159,1.572,1.268,1.268,0,0,0,.64-2.1l-.022-.025a5.4,5.4,0,0,0-5.159-1.572" transform="translate(13.597 15.612)" fill="#ffeada"/>
            <path id="Trazado_719036" data-name="Trazado 719036" d="M18.34,36.714a1.184,1.184,0,0,0-.629.175c-.559.421-.026,1.282.475,1.771a16.677,16.677,0,0,1,2.965,3.89,1.285,1.285,0,0,1,.226.859,1.332,1.332,0,0,1-.4.606c-1.387,1.427-2.859,2.909-4.767,3.478.22-.065.506.746.613.838.362.319.31.239.836.434a25.341,25.341,0,0,0,3,.523A29.036,29.036,0,0,1,26.4,51.261l-5.26,4.013,4.017,1.92c-.022.913-1.066,1.438-1.448,2.267A2.22,2.22,0,0,0,25.1,62.242a4.584,4.584,0,0,0,3.383-.318c1.33-.57,2.747-1.44,4.115-.971,1.291.443,2.014,1.952,3.33,2.311.475.131,1.1.181,1.245.653.075.243-.025.517.056.757.1.311.455.451.768.549a45.89,45.89,0,0,0,10.107,1.97,3.535,3.535,0,0,1,1.036.186,4.386,4.386,0,0,1,1.018.7A7.244,7.244,0,0,0,54.3,69.611q.065-.946.131-1.893,4.811-.029,9.622-.081c.388,0,.848-.046,1.045-.381.158-.268.075-.611.153-.912.167-.634.947-.85,1.6-.912a15.164,15.164,0,0,1,6.5.807c.425-.379.03-1.078-.408-1.441-.988-.819-.785-1.489-1.993-2.123-1.353-.712-2.719-1.4-4.079-2.1a1.325,1.325,0,0,1-.611-.489c-.36-.674.548-1.308,1.285-1.515a26.346,26.346,0,0,1,7.024-.98,4.121,4.121,0,0,0,1.745-.241c1.38-.646,1.482-2.549,2.323-3.82A3.583,3.583,0,0,1,82.8,52.214c1.609-2.169,1.681-5.075,1.687-7.775a1.658,1.658,0,0,0-.137-.82,1.6,1.6,0,0,0-.93-.63c-6.306-2.251-13.357-.519-19.92-1.838a21.692,21.692,0,0,1-5.672-1.987,4.2,4.2,0,0,1-1.418-1.036,9.061,9.061,0,0,1-.845-1.685c-1.4-2.815-5.074-3.5-8.219-3.568a55.991,55.991,0,0,0-8.553.46,10.067,10.067,0,0,0-4.364,1.36c-1.4.937-2.719.887-4.415,1.031l-11.672.988" transform="translate(4.993 10.123)" fill="#e67d22"/>
            <path id="Trazado_719037" data-name="Trazado 719037" d="M20.986,27.214s17.064-11,30.144-6.6c7.326,1.9,8.109,3.614,8.109,3.614s15.635,4.713,10.6,20.6c-5.68,17.92-28.174,9.169-34.013,6.3a11.375,11.375,0,0,1-6.475-8.14,6.9,6.9,0,0,1-5.936-2.4c-2.3-2.895-2.039-7.7-2.039-7.7s-4.012-2.875-.388-5.668" transform="translate(5.998 6.032)" fill="#fbf5eb"/>
            <path id="Trazado_719038" data-name="Trazado 719038" d="M84.7,25.226c-1.714,1.313-3.925,2.012-5.355,3.193a3.619,3.619,0,0,0-1.4,3.326c.366,3.825,2.311,4.275,3.792,15.234a30.431,30.431,0,0,1,.283,3.992c0,7.865-3.426,13.886-8.714,16.913a16.786,16.786,0,0,1-8.632,2.195,21.335,21.335,0,0,1-3.21-.283c-6.386-1.065-13.239-2.311-19.109-4.674-5.737-2.277-10.543-5.6-13.171-10.827a59.924,59.924,0,0,1-4.525-12.705c-.266-1.1-.515-2.212-.748-3.309-.1-.5-.2-.982-.3-1.481-.082-.416-.149-.832-.233-1.248-.964-5.188-2.311-5.987.483-10.843.283-.515.616-1.231.981-2.013.3-.632.616-1.3.965-1.945a6.434,6.434,0,0,1,2.577-2.994,2.315,2.315,0,0,1,1.347-.067c1.731.334,3.725,1.946,5.04,2.511,2.477,1.1,5.189,1.78,7.567,3.111a3.175,3.175,0,0,1,.466.25A35.557,35.557,0,0,0,54.66,28.2a66.916,66.916,0,0,0,9.147,1.2c.8.05,1.5.067,2.046.067.149,0,.283-.017.432-.017,2.878-.132-.111,1.067-.682-1.829-.483-2.451-1.9-4.84-2.845-9.2C60.912,10.109,67.816.884,76.548,6.339s8.9,10.854,8.9,11.885,2.279,4.706-.748,7" transform="translate(6.836 1.448)" fill="#fbf5eb"/>
            <path id="Trazado_719039" data-name="Trazado 719039" d="M23.025,27.1s11.69-6,23.812.169c6.721,2.917,9.722,2.82,9.722,2.82S70.982,36.945,68.44,51.274c-2.865,16.16-23.854,4.425-29.375.807a15.882,15.882,0,0,1-6.722-8.718,7.875,7.875,0,0,1-5.55-3.188,16.369,16.369,0,0,1-2.739-7.63s-3.9-3.342-1.029-5.444" transform="translate(6.768 7.542)" fill="#f78645"/>
            <path id="Trazado_719040" data-name="Trazado 719040" d="M84.109,21.181c0,1.031.349,5.672-3.243,5.871-3.609.2-7.118,2.695-6.769,6.519C74.464,37.4,78.8,34.2,78.8,49.5c0,2.778,0,5.24-.133,7.435a22.331,22.331,0,0,1-1.13,6.3A10.816,10.816,0,0,1,74.763,67.5c-3.177,2.994-8.832,4.89-18.96,6.254-12.655,1.729-25.112-7.035-30.467-17.613-2.079-4.14-6.37-9.4-7.667-13.953-.067-.183-.1-.366-.15-.548-.233-1.048.233-5.805.15-6.4-.067-.433-.1-.832-.133-1.231a7.9,7.9,0,0,1,.116-2.1,6.21,6.21,0,0,1,1.33-2.645,40.684,40.684,0,0,1,3.21-3.126A50.29,50.29,0,0,0,25.8,22.013c.483-.566.964-1.114,1.464-1.647a22.245,22.245,0,0,1,1.68-1.63,6.165,6.165,0,0,1,2.245-1.43,2.626,2.626,0,0,1,1.4-.051c1.8.416,3.693,1.748,5.422,2.479A44.635,44.635,0,0,1,43.8,22.928c4.191,2.561,8.8,5.555,12.489,5.987a47.041,47.041,0,0,0,6.5.366,9.485,9.485,0,0,0,2.479-.267,2.3,2.3,0,0,0,.483-.149,1.651,1.651,0,0,0,1.313-1.63,9.813,9.813,0,0,0-1.1-3.708C62.456,15.561,67.628,1.74,76.359,7.194s7.75,12.956,7.75,13.987" transform="translate(5.376 1.834)" fill="#fbf5eb"/>
            <path id="Trazado_719041" data-name="Trazado 719041" d="M73.716,18.706h0a2.164,2.164,0,0,1-2.352-1.418,16.642,16.642,0,0,0-1.788-3.749A15.615,15.615,0,0,0,58.437,7.715s-2.3-5.107-1.281-6.8c.515-.849,1.431-.366,2.246.3s1.529,1.5,1.613,1.363c.166-.266-.332-3.476,1.38-2.328a3.221,3.221,0,0,1,1.447,2.4c0-1.181.2-3.527,1.813-1.53a19.733,19.733,0,0,1,3.094,6.737s-.216-5.04,1.58-2.828c1.779,2.212,1.846,6.553,1.846,6.553s1.264-1.281,2.279-.866c.416.15.782.582,1.015,1.481a9.166,9.166,0,0,1-.9,5.9,1.116,1.116,0,0,1-.853.617" transform="translate(17.528 0)" fill="#fa4741"/>
            <path id="Trazado_719042" data-name="Trazado 719042" d="M73.716,18.6h0a2.164,2.164,0,0,1-2.352-1.418,16.642,16.642,0,0,0-1.788-3.749A15.615,15.615,0,0,0,58.437,7.607S56.141,2.5,57.156.8c.515-.849,1.431-.366,2.246.3-.666-.118-1.3-.017-1.347.88a2.429,2.429,0,0,0,.365,1.3c.067.116.133.233.2.366A3.733,3.733,0,0,0,59.551,4.7a6.342,6.342,0,0,0,1.513.716,17.561,17.561,0,0,1,6.071,4.124,40.125,40.125,0,0,1,2.844,3.676,9.316,9.316,0,0,1,.9,1.712c.383.782,1.265,1.962,2.263,1.912.865-.067,1.43-1.264,1.63-1.979a6.185,6.185,0,0,0-.15-3.874,3.732,3.732,0,0,0-.166-.383c.416.15.782.582,1.015,1.481a9.166,9.166,0,0,1-.9,5.9,1.116,1.116,0,0,1-.853.617" transform="translate(17.528 0.108)" fill="#ec2720"/>
            <g id="Grupo_983792" data-name="Grupo 983792" transform="translate(19.768 30)" style="mix-blend-mode: multiply;isolation: isolate">
              <g id="Grupo_983791" data-name="Grupo 983791">
                <g id="Grupo_983790" data-name="Grupo 983790" clip-path="url(#clip-path-5)">
                  <path id="Trazado_719043" data-name="Trazado 719043" d="M84.2,45.353c0,7.867-3.426,13.886-8.714,16.913-3.177,2.994-8.832,4.89-18.96,6.254-12.655,1.729-25.112-7.035-30.467-17.613-2.162-4.3-6.72-9.827-7.817-14.5-.233-1.048.233-5.805.15-6.4-.067-.434-.1-.833-.133-1.232a11.648,11.648,0,0,1-3.143-5.838c.5.782.964,1.513,1.33,2.03a9.777,9.777,0,0,0,1.929,1.712,60.028,60.028,0,0,0,7.417,4.506,13.079,13.079,0,0,0,2.927,1.181h.017c2.178.349,5.588,4.491,10.028,4.457s17.729,1.432,23.417,4.341c5.687,2.927,2.494,11.643,12.89,11.226a16.3,16.3,0,0,0,4.324-.68c5.588-1.782,4.523-6.338,4.523-6.338.1,0,.2-.017.283-.017" transform="translate(-15.113 -22.935)" fill="#f1ede4"/>
                </g>
              </g>
            </g>
            <g id="Grupo_983795" data-name="Grupo 983795" transform="translate(23.045 29.857)" style="mix-blend-mode: multiply;isolation: isolate">
              <g id="Grupo_983794" data-name="Grupo 983794">
                <g id="Grupo_983793" data-name="Grupo 983793" clip-path="url(#clip-path-6)">
                  <path id="Trazado_719044" data-name="Trazado 719044" d="M83.427,45.386c0,7.867-3.426,13.886-8.714,16.913-3.177,2.994-8.832,4.89-18.96,6.254C43.1,70.283,30.64,61.519,25.285,50.94c-2.079-4.14-6.37-9.394-7.667-13.952a46.553,46.553,0,0,1,8.447-.981c14.487-.633,37.137,1.9,38.085,5.636,1.281,5.091-1.813,16.731-12.373,17.863a37,37,0,0,1-8.017.033,25.806,25.806,0,0,1-8.68-2.262c.166.116.865.632,3.625,2.661,7.168,5.67,14.9,5.721,19.791,5.721A29.788,29.788,0,0,0,66.08,64.5c3.941-1.082,8.315-3.061,11.409-6.453a14.993,14.993,0,0,0,3.292-5.587c3.46-10.71.067-16.632-3.941-23.385-3.859-6.519,3.359-6.27,3.908-6.236a3.62,3.62,0,0,0-1.4,3.325c.366,3.825,2.311,4.275,3.792,15.234a30.447,30.447,0,0,1,.283,3.992" transform="translate(-17.617 -22.826)" fill="#f1ede4"/>
                </g>
              </g>
            </g>
            <path id="Trazado_719045" data-name="Trazado 719045" d="M31.316,32.6a5.738,5.738,0,0,1-2.544,1.58h-.017a7.588,7.588,0,0,1-2.628.3A11.884,11.884,0,0,1,18.909,31.2a7.369,7.369,0,0,1-.615-.615,11.638,11.638,0,0,1-3.143-5.838,6.548,6.548,0,0,1,1.363-5.8c2.262-2.445,6.37-2.479,10.046-.349l.5.3a14.814,14.814,0,0,1,1.863,1.448c4.092,3.775,5.172,9.247,2.4,12.257" transform="translate(4.618 5.253)" fill="#fbf5eb"/>
            <path id="Trazado_719046" data-name="Trazado 719046" d="M36.5,17.659c1.4,3.944-.044,8.052-3.222,9.179s-6.886-1.158-8.283-5.1.044-8.052,3.222-9.179,6.886,1.158,8.283,5.1" transform="translate(7.534 3.78)" fill="#fbf5eb"/>
            <path id="Trazado_719047" data-name="Trazado 719047" d="M30.789,17.763c1.4,3.945-.044,8.054-3.222,9.18s-6.886-1.159-8.284-5.1.046-8.052,3.223-9.179,6.886,1.156,8.283,5.1" transform="translate(5.776 3.812)" fill="#fbf5eb"/>
            <path id="Trazado_719048" data-name="Trazado 719048" d="M64.378,47.217C58.706,65.129,36.2,56.382,30.367,53.5a11.336,11.336,0,0,1-6.47-8.132A6.915,6.915,0,0,1,17.96,42.96c-2.294-2.893-2.044-7.7-2.044-7.7a5.251,5.251,0,0,1-1.68-2.111c-.017-.017-.017-.034-.034-.05v-.017c-.382-1.015-.267-2.262,1.33-3.493,0,0,17.064-10.993,30.135-6.586,7.334,1.9,8.117,3.609,8.117,3.609s10.145,3.06,11.459,12.573a18.176,18.176,0,0,1-.865,8.033" transform="translate(4.319 6.765)" fill="#fbf5eb"/>
            <path id="Trazado_719049" data-name="Trazado 719049" d="M70.933,16.93s-3.147-7.922-7.656-5.977-3.748,6.36-1.228,9.587A7.336,7.336,0,0,0,68.5,23.192Z" transform="translate(18.491 3.28)" fill="#ec2720"/>
            <path id="Trazado_719050" data-name="Trazado 719050" d="M71.257,20.386s2.623,5.708-1.967,6.591-4.283-5.083-4.194-5.834a8.615,8.615,0,0,1,1.37-2.432s2.2-.807,4.791,1.674" transform="translate(20.041 5.726)" fill="#ec2720"/>
            <path id="Trazado_719051" data-name="Trazado 719051" d="M62.935,13.918a1.606,1.606,0,0,0,.761,1.734.906.906,0,0,0,1.388-.549,1.605,1.605,0,0,0-.76-1.734.908.908,0,0,0-1.389.549" transform="translate(19.374 4.074)" fill="#473631"/>
            <path id="Trazado_719052" data-name="Trazado 719052" d="M63.574,14.012a.712.712,0,0,0,.336.768.4.4,0,0,0,.615-.243.712.712,0,0,0-.336-.768.4.4,0,0,0-.615.243" transform="translate(19.578 4.222)" fill="#634f46"/>
            <path id="Trazado_719053" data-name="Trazado 719053" d="M75.628,24.868c-3.757-5.745-9.579-3.975-10.478-4.557s-.116-2.293.4-2.744c.483-.432,1.9-.6,2.361-1.048.351-.349.649-1.428,1.082-1.678a2.754,2.754,0,0,1,1.181-.234,4.449,4.449,0,0,1,2.178.383c.4.334,2.944,3.941,3.277,9.878" transform="translate(19.944 4.499)" fill="#f78b1d"/>
            <path id="Trazado_719054" data-name="Trazado 719054" d="M75.378,24.868c-4.64-5.8-12.7-5.758-8.788-7.453,1.566-.681,2.617-2.425,3.333-2.808a4.449,4.449,0,0,1,2.178.383c.4.334,2.944,3.941,3.277,9.878" transform="translate(20.194 4.499)" fill="#ffb51a"/>
            <g id="Grupo_983798" data-name="Grupo 983798" transform="translate(18.554 39.912)" style="mix-blend-mode: multiply;isolation: isolate">
              <g id="Grupo_983797" data-name="Grupo 983797">
                <g id="Grupo_983796" data-name="Grupo 983796" clip-path="url(#clip-path-7)">
                  <path id="Trazado_719055" data-name="Trazado 719055" d="M64.327,44.582c-5.672,17.911-28.173,9.164-34.011,6.287a11.336,11.336,0,0,1-6.47-8.132,6.915,6.915,0,0,1-5.937-2.412c-2.294-2.893-2.044-7.7-2.044-7.7a5.251,5.251,0,0,1-1.68-2.111c1.663,3.459,6.352,1.08,6.8.865-.133.1-.616.483-2.528,2.046-2.561,2.079-.549,6.9,2.645,7.5s4.357-.748,4.357-.748a4.915,4.915,0,0,0,.311,5.074c1.8,2.4,6.025,7.183,21.358,7.183,14.187,0,16.894-9.625,18.062-15.882a18.176,18.176,0,0,1-.865,8.033" transform="translate(-14.185 -30.512)" fill="#f1ede4"/>
                </g>
              </g>
            </g>
            <path id="Trazado_719056" data-name="Trazado 719056" d="M27.964,14.584s-5.4-3.918-7.485.519,4.055,8.1,9.3,8.1c-1.924-3.43-1.82-8.623-1.82-8.623" transform="translate(6.18 4.001)" fill="#fffbf5"/>
            <path id="Trazado_719057" data-name="Trazado 719057" d="M30.341,12.987s-5.682,3.442,2.841,7.324c.555-3.393.693-5.366-2.841-7.324" transform="translate(8.775 4.001)" fill="#fffbf5"/>
            <path id="Trazado_719058" data-name="Trazado 719058" d="M17.291,19.041a6.243,6.243,0,0,0-1.629,5.128c.351,3.326,7.079,1.43,15.077-.446-5.41-1.147-10.607-5.929-10.607-5.929s-2.254.531-2.841,1.248" transform="translate(4.812 5.481)" fill="#fffbf5"/>
            <path id="Trazado_719059" data-name="Trazado 719059" d="M53.074,27.061s-12.3-12.092-38.424,3.43c-.263,2.842,4.65,3,8.334.5,14.763-10.011,30.091-3.929,30.091-3.929" transform="translate(4.51 6.955)" fill="#fffbf5"/>
            <path id="Trazado_719060" data-name="Trazado 719060" d="M39.226,26.465s18.258.853,18.881,10.069c-5.162.45-14.56-11.894-27.527-8.922,3.533-1.455,5.877-1.078,8.646-1.147" transform="translate(9.42 8.153)" fill="#fffbf5"/>
            <path id="Trazado_719061" data-name="Trazado 719061" d="M49.992,35.874S22.025,28.969,24.37,42.341c6.026-2.65,19.274-7.841,25.622-6.467" transform="translate(7.464 10.502)" fill="#fffbf5"/>
            <path id="Trazado_719062" data-name="Trazado 719062" d="M44.12,31.589S20.732,24.6,17.891,37.112c9.725-6.441,19.681-2.82,26.229-5.523" transform="translate(5.512 9.132)" fill="#fffbf5"/>
            <path id="Trazado_719063" data-name="Trazado 719063" d="M56.784,35.938a15.621,15.621,0,0,1-11.156,9.91,61.449,61.449,0,0,1-14.691,1.661s23.422,8.8,25.847-11.571" transform="translate(9.53 11.071)" fill="#fffbf5"/>
            <path id="Trazado_719064" data-name="Trazado 719064" d="M49.357,38.024a30.487,30.487,0,0,0-17.269,1.8c-7.727,3.638-7.054,3.9-7.054,3.9s24.323,4.522,24.323-5.7" transform="translate(7.707 11.554)" fill="#fffbf5"/>
            <path id="Trazado_719065" data-name="Trazado 719065" d="M71.424,21.2s-4.2-1.767-5.054-.208-.149,5.854,3.413,4.764c2.746-.841,1.642-4.556,1.642-4.556" transform="translate(20.344 6.269)" fill="#fa4741"/>
            <path id="Trazado_719066" data-name="Trazado 719066" d="M60.277,27.88s-3.166-.28-3.614,2.56a9.666,9.666,0,0,0,.935,5.428s3.851-4.334,2.679-7.988" transform="translate(17.428 8.586)" fill="#fffbf5"/>
            <path id="Trazado_719067" data-name="Trazado 719067" d="M63.017,31.168a10.093,10.093,0,0,0,.729,9.2l2.683,2.924s2.743-9.207-3.411-12.126" transform="translate(19.175 9.602)" fill="#fffbf5"/>
            <path id="Trazado_719068" data-name="Trazado 719068" d="M59.895,35.011s-3.325,3.6-2.131,8.143l1.022,2.806s5.268-5.89,1.109-10.948" transform="translate(17.715 10.786)" fill="#fffbf5"/>
          </g>
        </g>
      </g>
    </g>
  </g>
</svg>
