<svg xmlns="http://www.w3.org/2000/svg" xmlns:xlink="http://www.w3.org/1999/xlink" width="176.338" height="152" viewBox="0 0 176.338 152">
  <defs>
    <clipPath id="clip-path">
      <rect id="Rect치ngulo_344696" data-name="Rect치ngulo 344696" width="176.338" height="81.219" fill="none"/>
    </clipPath>
  </defs>
  <g id="Grupo_983943" data-name="Grupo 983943" transform="translate(-364.898 -3802.613)">
    <circle id="Elipse_5814" data-name="Elipse 5814" cx="76" cy="76" r="76" transform="translate(377 3802.613)" fill="#ffc403"/>
    <g id="Grupo_983929" data-name="Grupo 983929" transform="translate(364.898 3838.004)">
      <g id="Grupo_983928" data-name="Grupo 983928" transform="translate(0 0)" clip-path="url(#clip-path)">
        <path id="Trazado_720536" data-name="Trazado 720536" d="M48.286,18.781l-.578-.206c-.342-.133-.844-.243-1.323-.386-.967-.269-1.934-.542-1.934-.542L47.117,6.6s4.849,1.316,4.843,1.429Z" transform="translate(103.287 15.33)" fill="#e4e4e4"/>
        <path id="Trazado_720537" data-name="Trazado 720537" d="M49.208,19.23s-.877-.389-1.752-.784L45.6,17.781,49.278,7.026s1.2.432,2.41.867c1.193.512,2.383,1.06,2.383,1.06Z" transform="translate(105.969 16.327)" fill="#b1b1b1"/>
        <path id="Trazado_720538" data-name="Trazado 720538" d="M49.926,19.69s-.186-.13-.459-.326c-.306-.166-.708-.392-1.113-.618s-.794-.472-1.12-.618l-.545-.243L51.551,7.608a38.424,38.424,0,0,1,4.656,2.6Z" transform="translate(108.487 17.672)" fill="#e4e4e4"/>
        <path id="Trazado_720539" data-name="Trazado 720539" d="M50.4,20.016a.575.575,0,0,0-.1-.1c-.073-.063-.176-.15-.3-.253-.243-.209-.568-.489-.9-.768a11.35,11.35,0,0,0-.984-.715l-.459-.316L53.941,8.39s.283.2.708.485c.415.309.994.655,1.526,1.117s1.067.917,1.469,1.256c.2.173.362.316.479.419a1.766,1.766,0,0,1,.176.17Z" transform="translate(110.751 19.496)" fill="#b1b1b1"/>
        <path id="Trazado_720540" data-name="Trazado 720540" d="M50.552,20.079a1.216,1.216,0,0,0-.076-.11c-.053-.066-.13-.166-.223-.283-.176-.236-.412-.555-.635-.881-.578-.588-1.13-1.2-1.13-1.2l7.894-8.179s1,1.037,1.968,2.1c.442.588.881,1.18,1.213,1.622.16.219.292.409.389.538s.143.209.143.209Z" transform="translate(112.668 21.906)" fill="#e4e4e4"/>
        <path id="Trazado_720541" data-name="Trazado 720541" d="M50.382,19.659a13.71,13.71,0,0,0-.535-1.376c-.366-.661-.738-1.329-.738-1.329l9.542-6.182s.193.326.475.814.661,1.133.987,1.815c.3.695.588,1.4.8,1.934a4.978,4.978,0,0,1,.236.651l.073.253Z" transform="translate(114.111 25.031)" fill="#b1b1b1"/>
        <path id="Trazado_720542" data-name="Trazado 720542" d="M49.957,18.712V18.25c-.017-.273-.093-.628-.133-.99a4.7,4.7,0,0,0-.216-.977l-.116-.442,10.842-3.423s.1.372.253.924a13.527,13.527,0,0,1,.455,2.054c.1.761.223,1.522.259,2.094.013.572.02.954.02.954Z" transform="translate(115.001 28.853)" fill="#e4e4e4"/>
        <path id="Trazado_720543" data-name="Trazado 720543" d="M49.531,17.489s.04-.193.1-.475a4.487,4.487,0,0,0,.11-.479c.017-.176.037-.366.053-.552a5.606,5.606,0,0,0,.08-1.02c-.007-.279-.01-.462-.01-.462l11.363-.273s0,.386.01.957a15.364,15.364,0,0,1-.146,2.074c-.04.372-.086.748-.126,1.1-.056.349-.136.661-.193.937-.123.548-.209.911-.209.911Z" transform="translate(115.091 33.064)" fill="#b1b1b1"/>
        <path id="Trazado_720544" data-name="Trazado 720544" d="M49.193,18.192s.083-.186.213-.465a6.558,6.558,0,0,0,.442-1.017c.123-.379.259-.754.366-1.03.056-.283.1-.469.1-.469L61.351,17.93s-.083.356-.213.9c-.183.522-.419,1.22-.661,1.914a16.2,16.2,0,0,1-.788,1.831c-.233.492-.389.818-.389.818Z" transform="translate(114.306 35.346)" fill="#e4e4e4"/>
        <path id="Trazado_720545" data-name="Trazado 720545" d="M48.639,18.935s.123-.176.316-.435.465-.592.691-.947c.422-.728.867-1.436.838-1.446l10.107,5.2a6.4,6.4,0,0,1-.422.784c-.279.462-.645,1.07-1.014,1.682s-.818,1.147-1.127,1.572-.525.708-.525.708Z" transform="translate(113.018 37.427)" fill="#b1b1b1"/>
        <path id="Trazado_720546" data-name="Trazado 720546" d="M47.9,19.491s.163-.153.4-.382.585-.518.891-.838.582-.655.8-.9c.11-.116.206-.219.269-.292s.086-.116.086-.116l8.864,7.123-.15.186c-.1.12-.243.279-.415.475-.346.389-.814.9-1.273,1.419-.475.5-.994.951-1.366,1.306s-.628.585-.628.585Z" transform="translate(111.306 39.405)" fill="#e4e4e4"/>
        <path id="Trazado_720547" data-name="Trazado 720547" d="M47.021,19.874s.2-.123.482-.312a10.933,10.933,0,0,0,1.034-.715c.359-.279.711-.558.977-.764a3.736,3.736,0,0,0,.435-.362l7.478,8.562a7.708,7.708,0,0,1-.648.545c-.405.319-.937.735-1.472,1.153-.522.435-1.11.764-1.522,1.054s-.708.462-.708.462Z" transform="translate(109.259 41.175)" fill="#b1b1b1"/>
        <path id="Trazado_720548" data-name="Trazado 720548" d="M46.033,20.111s.216-.093.538-.236a10.08,10.08,0,0,0,1.143-.582c.409-.219.818-.439,1.123-.608.292-.189.479-.316.479-.316l6.059,9.619-.7.459c-.442.239-1.027.562-1.615.881a17.132,17.132,0,0,1-1.629.824l-.758.336Z" transform="translate(106.963 42.684)" fill="#e4e4e4"/>
        <path id="Trazado_720549" data-name="Trazado 720549" d="M44.967,20.215l.163-.04a3.364,3.364,0,0,0,.409-.13c.336-.12.784-.279,1.23-.442.223-.076.452-.153.658-.226s.389-.176.548-.243l.535-.243,4.643,10.38-.758.336c-.226.1-.489.223-.774.339l-.911.322c-.618.223-1.24.435-1.705.6-.229.08-.425.143-.565.176l-.216.057Z" transform="translate(104.486 43.899)" fill="#b1b1b1"/>
        <path id="Trazado_720550" data-name="Trazado 720550" d="M43.84,20.161s.236-.047.592-.113.838-.143,1.3-.256c.931-.249,1.851-.5,1.851-.5l3.257,10.895-2.519.678c-.635.153-1.273.253-1.752.349s-.794.146-.794.146Z" transform="translate(101.867 44.824)" fill="#e4e4e4"/>
        <path id="Trazado_720551" data-name="Trazado 720551" d="M42.674,20s.249,0,.618-.03.848-.1,1.333-.15.974-.1,1.326-.16.6-.113.6-.113l1.938,11.2s-.319.063-.794.15-1.12.136-1.762.216-1.276.146-1.758.193-.8.043-.8.043Z" transform="translate(99.158 45.432)" fill="#b1b1b1"/>
        <path id="Trazado_720552" data-name="Trazado 720552" d="M41.8,19.715l.622.023c.372,0,.871.05,1.363.027.984-.037,1.961-.076,1.961-.076l.7,11.347-2.556.1c-.638.027-1.273-.023-1.745-.03s-.794-.027-.794-.027Z" transform="translate(96.084 45.748)" fill="#e4e4e4"/>
        <path id="Trazado_720553" data-name="Trazado 720553" d="M41.342,19.6l1.994.206a12.446,12.446,0,0,0,1.363.106l.622.017-.449,11.363s-.316-.013-.794-.027-1.107-.06-1.735-.133c-1.253-.13-2.506-.263-2.506-.263Z" transform="translate(92.564 45.537)" fill="#b1b1b1"/>
        <path id="Trazado_720554" data-name="Trazado 720554" d="M41.236,19.366s.229.066.578.156c.173.047.372.1.595.163.213.043.445.08.678.123l1.263.233a4.443,4.443,0,0,0,.595.09L43.44,31.4s-.312-.027-.8-.123-1.143-.206-1.791-.326c-.329-.063-.658-.116-.957-.179-.3-.08-.575-.156-.811-.216l-.791-.206Z" transform="translate(88.96 45)" fill="#e4e4e4"/>
        <path id="Trazado_720555" data-name="Trazado 720555" d="M40.964,19s.056.027.156.066a3.852,3.852,0,0,0,.415.16c.352.116.814.276,1.276.435a11.485,11.485,0,0,0,1.27.4c.346.093.572.15.572.15L41.705,31.2l-.791-.216c-.479-.11-1.09-.322-1.7-.532s-1.216-.422-1.668-.578c-.233-.076-.415-.153-.542-.206l-.2-.083Z" transform="translate(85.539 44.152)" fill="#b1b1b1"/>
        <path id="Trazado_720556" data-name="Trazado 720556" d="M40.485,18.506l1.838.881,1.845.764L40.016,30.734l-2.336-.97c-1.123-.535-2.247-1.074-2.247-1.074Z" transform="translate(82.333 43.002)" fill="#e4e4e4"/>
        <path id="Trazado_720557" data-name="Trazado 720557" d="M39.821,17.91s.914.552,1.831,1.024c.462.246.914.492,1.26.675.342.166.578.283.578.283L38.438,30.074s-.279-.14-.695-.339c-.4-.216-.947-.509-1.486-.794-1.09-.565-2.117-1.18-2.117-1.18Z" transform="translate(79.331 41.617)" fill="#b1b1b1"/>
        <path id="Trazado_720558" data-name="Trazado 720558" d="M39.008,17.243s.917.568,1.838,1.137c.452.292.914.545,1.26.748s.568.332.568.332l-5.68,9.851s-.259-.156-.651-.382-.914-.522-1.413-.838c-1.007-.628-2.017-1.253-2.017-1.253Z" transform="translate(76.475 40.067)" fill="#e4e4e4"/>
        <path id="Trazado_720559" data-name="Trazado 720559" d="M38.045,16.518s.921.615,1.851,1.223l1.828,1.19-6.1,9.592s-.977-.631-1.958-1.27L31.743,25.98Z" transform="translate(73.759 38.383)" fill="#b1b1b1"/>
        <path id="Trazado_720560" data-name="Trazado 720560" d="M36.947,15.762l3.739,2.513-6.3,9.462L30.606,25.2Z" transform="translate(71.116 36.626)" fill="#e4e4e4"/>
        <path id="Trazado_720561" data-name="Trazado 720561" d="M35.665,14.993s.977.641,1.954,1.28c.951.638,1.908,1.276,1.908,1.276l-6.341,9.436s-.924-.618-1.855-1.236c-.917-.6-1.835-1.2-1.835-1.2Z" transform="translate(68.537 34.839)" fill="#b1b1b1"/>
        <path id="Trazado_720562" data-name="Trazado 720562" d="M34.144,14.239l.651.382c.4.229.914.542,1.409.857s1.007.631,1.386.871.618.4.618.4L32.037,26.3s-.911-.582-1.821-1.157c-.455-.292-.911-.568-1.246-.761s-.568-.336-.568-.336Z" transform="translate(65.993 33.087)" fill="#e4e4e4"/>
        <path id="Trazado_720563" data-name="Trazado 720563" d="M32.29,13.53s.292.136.721.346l1.512.8c.545.3,1.1.585,1.479.821s.655.386.655.386l-5.74,9.808s-.911-.555-1.808-1.017c-.449-.243-.9-.479-1.233-.661l-.558-.263Z" transform="translate(63.477 31.44)" fill="#b1b1b1"/>
        <path id="Trazado_720564" data-name="Trazado 720564" d="M29.944,12.924s.076.027.219.07.346.113.572.206c.455.183,1.067.429,1.678.671s1.187.522,1.619.725l.721.342L29.781,25.165s-.219-.106-.558-.263a12.276,12.276,0,0,0-1.216-.552c-.442-.173-.881-.352-1.21-.485a3.032,3.032,0,0,0-.389-.143,1.463,1.463,0,0,1-.15-.047Z" transform="translate(61.014 30.031)" fill="#e4e4e4"/>
        <path id="Trazado_720565" data-name="Trazado 720565" d="M26.925,12.519a6.04,6.04,0,0,1,.877.15c.515.113,1.2.263,1.891.415s1.31.382,1.8.525l.811.256L28.623,24.62l-.538-.17c-.326-.086-.761-.273-1.183-.346-.838-.176-1.672-.379-1.662-.342Z" transform="translate(58.648 29.09)" fill="#b1b1b1"/>
        <path id="Trazado_720566" data-name="Trazado 720566" d="M23.984,12.518s.09-.013.256-.03a4.515,4.515,0,0,1,.671-.037c.555,0,1.3-.01,2.041-.013s1.446.126,1.991.163c.538.066.9.106.9.106l-1.685,11.24s-.206-.017-.512-.05a9.831,9.831,0,0,0-1.1-.1c-.784.013-1.562,0-1.555.037Z" transform="translate(55.73 28.902)" fill="#e4e4e4"/>
        <path id="Trazado_720567" data-name="Trazado 720567" d="M22.237,13.732a6.018,6.018,0,0,1,.877-.283c.535-.146,1.256-.339,1.974-.532a7.032,7.032,0,0,1,1.08-.209c.346-.043.668-.09.947-.13l.927-.116,1.007,11.32s-.189.033-.475.073c-.143.02-.312.04-.485.06a2.071,2.071,0,0,0-.558.106c-.741.223-1.5.372-1.492.425Z" transform="translate(51.67 28.958)" fill="#b1b1b1"/>
        <path id="Trazado_720568" data-name="Trazado 720568" d="M20.685,15.36l2.466-1.389c1.336-.588,2.7-1.127,2.7-1.127l3.8,10.715s-.731.319-1.486.615c-.728.435-1.472.838-1.472.838Z" transform="translate(48.064 29.846)" fill="#e4e4e4"/>
        <path id="Trazado_720569" data-name="Trazado 720569" d="M19.38,16.858s.249-.216.622-.545c.189-.163.389-.362.648-.552s.532-.389.811-.595c.552-.4,1.11-.8,1.526-1.1a4.161,4.161,0,0,1,.518-.349l.213-.12,6,9.652a26.465,26.465,0,0,0-2.875,2.184Z" transform="translate(45.032 31.605)" fill="#b1b1b1"/>
        <path id="Trazado_720570" data-name="Trazado 720570" d="M18.268,18.22s.881-.927,1.758-1.858c.422-.475.964-.9,1.319-1.233.372-.326.618-.548.618-.548l7.462,8.578s-.173.153-.439.4a12.2,12.2,0,0,0-.961.881c-.671.715-1.346,1.429-1.346,1.429Z" transform="translate(42.448 33.882)" fill="#e4e4e4"/>
        <path id="Trazado_720571" data-name="Trazado 720571" d="M2.926,9.254S16.523-18.5,145.569,22.113l-3.483,11.018S56.307,4.82,38.632,18.471,2.926,9.254,2.926,9.254" transform="translate(6.799 0)" fill="#e4e4e4"/>
        <path id="Trazado_720572" data-name="Trazado 720572" d="M28.773.423C14.371.423,2.426,10.57.123,23.884h57.3C55.119,10.57,43.174.423,28.773.423" transform="translate(0.286 0.984)" fill="#e4e4e4"/>
        <path id="Trazado_720573" data-name="Trazado 720573" d="M58.117,12.172a27.282,27.282,0,0,0-.409-4.69H.409a27.1,27.1,0,0,0,0,9.379h57.3a27.253,27.253,0,0,0,.409-4.69" transform="translate(0 17.386)" fill="#fff"/>
        <rect id="Rect치ngulo_344695" data-name="Rect치ngulo 344695" width="12.707" height="4.897" transform="matrix(0.296, -0.955, 0.955, 0.296, 144.853, 32.797)" fill="#666"/>
        <path id="Trazado_720574" data-name="Trazado 720574" d="M14.108,11.139,7.072,54.459,1.748,53.252Z" transform="translate(4.061 25.883)" fill="#a9edff"/>
        <path id="Trazado_720575" data-name="Trazado 720575" d="M12.019,11.139,24.38,53.252l-5.324,1.206Z" transform="translate(27.929 25.883)" fill="#a9edff"/>
        <path id="Trazado_720576" data-name="Trazado 720576" d="M10.651,11.584,13.38,54.3H7.922Z" transform="translate(18.408 26.918)" fill="#a9edff"/>
      </g>
    </g>
  </g>
</svg>
