<svg xmlns="http://www.w3.org/2000/svg" xmlns:xlink="http://www.w3.org/1999/xlink" width="140" height="140" viewBox="0 0 140 140">
  <defs>
    <clipPath id="clip-path">
      <rect id="Rect치ngulo_344372" data-name="Rect치ngulo 344372" width="136.381" height="92.894" fill="none"/>
    </clipPath>
  </defs>
  <g id="Grupo_983940" data-name="Grupo 983940" transform="translate(-1085 -558)">
    <circle id="Elipse_5840" data-name="Elipse 5840" cx="70" cy="70" r="70" transform="translate(1085 558)" fill="#ffc403"/>
    <g id="Grupo_983587" data-name="Grupo 983587" transform="translate(1086.81 581.553)">
      <g id="Grupo_983586" data-name="Grupo 983586" clip-path="url(#clip-path)">
        <path id="Trazado_718101" data-name="Trazado 718101" d="M125.543,49.265H35.83A18.315,18.315,0,0,1,17.515,30.95V18.315A18.315,18.315,0,0,1,35.83,0h89.713a18.315,18.315,0,0,1,18.315,18.315V30.95a18.315,18.315,0,0,1-18.315,18.315" transform="translate(-12.224)" fill="#deb08e"/>
        <path id="Trazado_718102" data-name="Trazado 718102" d="M130.238,51.652H48.888A18.134,18.134,0,0,1,30.754,33.518V31.974A18.134,18.134,0,0,1,48.888,13.84h81.35a18.134,18.134,0,0,1,18.134,18.134v1.544a18.134,18.134,0,0,1-18.134,18.134" transform="translate(-21.463 -9.659)" fill="#cfa484"/>
        <path id="Trazado_718103" data-name="Trazado 718103" d="M30.1,23.306h-.017a.154.154,0,0,1-.137-.17,10.825,10.825,0,0,1,2.891-6.207,9.786,9.786,0,0,1,6.192-3.042A29.221,29.221,0,0,1,43,13.793l.284.006a.154.154,0,0,1,0,.309h0l-.284-.006a29.065,29.065,0,0,0-3.926.091,9.485,9.485,0,0,0-6,2.948,10.514,10.514,0,0,0-2.809,6.028.155.155,0,0,1-.153.138" transform="translate(-20.9 -9.61)" fill="#382118"/>
        <path id="Trazado_718104" data-name="Trazado 718104" d="M36.329,114.688a3.884,3.884,0,0,1-2.4-.91,9.454,9.454,0,0,1-3.09-7.075.155.155,0,0,1,.151-.158h0a.154.154,0,0,1,.154.151,9.138,9.138,0,0,0,2.971,6.838,3.361,3.361,0,0,0,2.839.774.154.154,0,0,1,.067.3,3.213,3.213,0,0,1-.7.078" transform="translate(-21.526 -74.358)" fill="#382118"/>
        <path id="Trazado_718105" data-name="Trazado 718105" d="M206.08,137.533h0c-5.821-.029-11.771-.043-17.526-.058-5.312-.013-10.806-.026-16.22-.051a.155.155,0,0,1-.154-.156.158.158,0,0,1,.155-.154c5.414.025,10.907.038,16.219.051,5.755.014,11.706.028,17.528.058a.154.154,0,0,1,0,.308" transform="translate(-120.163 -95.692)" fill="#382118"/>
        <path id="Trazado_718106" data-name="Trazado 718106" d="M196.452,15.98h0c-5.821-.029-11.772-.044-17.526-.058-5.312-.013-10.806-.026-16.22-.051a.155.155,0,0,1,0-.309h0c5.414.025,10.907.038,16.219.051,5.755.014,11.706.028,17.528.058a.154.154,0,0,1,0,.309" transform="translate(-113.444 -10.861)" fill="#382118"/>
        <path id="Trazado_718107" data-name="Trazado 718107" d="M398.066,115.419a.154.154,0,0,1-.011-.308c.17-.012.342-.021.514-.029a5.844,5.844,0,0,0,1.778-.272c2.394-.9,4.2-4.435,3.859-7.566a.154.154,0,1,1,.307-.033c.358,3.315-1.5,6.927-4.057,7.888a6.063,6.063,0,0,1-1.872.291c-.17.008-.339.017-.507.029h-.011" transform="translate(-277.702 -74.725)" fill="#382118"/>
        <path id="Trazado_718108" data-name="Trazado 718108" d="M398.967,24.019a.154.154,0,0,1-.153-.134,17.256,17.256,0,0,0-.838-3.759,9.306,9.306,0,0,0-7.755-5.836.155.155,0,0,1,.044-.306,9.607,9.607,0,0,1,8,6.033,17.556,17.556,0,0,1,.854,3.826.155.155,0,0,1-.132.174h-.021" transform="translate(-272.242 -9.759)" fill="#382118"/>
        <path id="Trazado_718109" data-name="Trazado 718109" d="M132.837,194.9H3.545a3.388,3.388,0,0,1-3.471-3.99l4.71-21.553a4.158,4.158,0,0,1,4.062-3.27h118.69a4.158,4.158,0,0,1,4.062,3.27l4.71,21.553a3.388,3.388,0,0,1-3.471,3.99" transform="translate(0 -115.909)" fill="#deb08e"/>
        <path id="Trazado_718110" data-name="Trazado 718110" d="M132.837,194.9H3.545a3.388,3.388,0,0,1-3.471-3.99l4.71-21.553a4.158,4.158,0,0,1,4.062-3.27h118.69a4.158,4.158,0,0,1,4.062,3.27l4.71,21.553a3.388,3.388,0,0,1-3.471,3.99" transform="translate(0 -115.909)" fill="#deb08e"/>
        <path id="Trazado_718111" data-name="Trazado 718111" d="M138.64,183.353l-3.059-14a4.158,4.158,0,0,0-4.062-3.27H12.829a4.158,4.158,0,0,0-4.062,3.27l-3.059,14Z" transform="translate(-3.983 -115.909)" fill="#deb08e"/>
        <path id="Trazado_718112" data-name="Trazado 718112" d="M27.539,146.418a23.689,23.689,0,0,1,3.094-9.3l.03-.048q.151-.247.308-.485l.046-.069q.151-.227.306-.443l.053-.074q.155-.214.315-.418l.052-.067q.168-.212.34-.411l.035-.041a10.545,10.545,0,0,1,1.2-1.186l.043-.034c.119-.1.239-.192.36-.28.037-.027.074-.052.111-.078.1-.07.2-.138.3-.2.047-.03.095-.058.142-.087.092-.055.183-.108.276-.159.053-.028.105-.056.159-.082.088-.045.177-.086.266-.126.056-.025.112-.049.168-.072.088-.036.176-.068.265-.1.057-.02.114-.04.171-.057.09-.028.181-.051.272-.073.056-.014.111-.029.167-.041.1-.021.2-.035.3-.049.048-.007.1-.016.143-.021a4.447,4.447,0,0,1,.444-.027c.106,0,.212,0,.319.014s.189.019.284.033h0c4.077.59,8.428,7.293,8.482,14.345a17.814,17.814,0,0,1-.475,4.379h0c-.059.24-.124.472-.193.7-.015.05-.031.1-.047.148q-.087.276-.184.542c-.016.044-.032.089-.048.134-.081.215-.166.425-.257.629l-.021.046c-.083.185-.172.365-.263.541-.024.046-.048.091-.072.136q-.132.247-.275.481c-.014.023-.028.048-.043.071q-.166.268-.346.518c-.023.032-.046.062-.069.093q-.15.2-.308.4c-.03.036-.06.073-.09.109a8.423,8.423,0,0,1-.822.841l-.1.09q-.18.155-.368.3l-.092.07q-.232.171-.474.324l-.065.039q-.212.13-.431.246l-.127.066c-.151.077-.3.149-.46.216l-.057.026c-.177.074-.357.141-.54.2l-.119.038q-.223.071-.452.13l-.135.034c-.191.046-.384.087-.581.119h0a9.1,9.1,0,0,1-1.431.122c-5.542.042-10.358-4.793-9.5-12.144" transform="translate(-19.151 -92.391)" fill="#fff"/>
        <path id="Trazado_718113" data-name="Trazado 718113" d="M41.8,142.732a.149.149,0,0,1-.06-.012.154.154,0,0,1-.082-.2,7.1,7.1,0,0,1,3.919-3.695.154.154,0,1,1,.1.292,6.908,6.908,0,0,0-3.735,3.522.154.154,0,0,1-.142.095" transform="translate(-29.067 -96.879)" fill="#dedede"/>
        <path id="Trazado_718114" data-name="Trazado 718114" d="M111.182,146.418a23.684,23.684,0,0,1,3.095-9.3l.03-.048q.151-.247.308-.485l.046-.069q.151-.227.306-.443l.053-.074q.155-.214.315-.418l.052-.067q.168-.212.34-.411l.035-.041a10.57,10.57,0,0,1,1.2-1.186l.043-.034c.119-.1.239-.192.36-.28.037-.027.074-.052.111-.078.1-.07.2-.138.3-.2.047-.03.095-.058.142-.087.092-.055.183-.108.276-.159.053-.028.105-.056.159-.082.088-.045.177-.086.266-.126.056-.025.112-.049.168-.072.088-.036.176-.068.265-.1.057-.02.114-.04.171-.057.091-.028.182-.051.272-.073.056-.014.111-.029.167-.041.1-.021.2-.035.3-.049.048-.007.1-.016.143-.021a4.447,4.447,0,0,1,.444-.027c.106,0,.212,0,.319.014s.189.019.284.033h0c4.077.59,8.428,7.293,8.482,14.345a17.814,17.814,0,0,1-.475,4.379h0c-.059.24-.124.472-.193.7-.015.05-.031.1-.047.148q-.087.276-.184.542c-.016.044-.032.089-.048.134-.081.215-.166.425-.257.629l-.022.046c-.083.185-.172.365-.263.541-.024.046-.048.091-.072.136q-.132.247-.275.481c-.014.023-.028.048-.042.071q-.166.268-.346.518c-.023.032-.046.062-.069.093q-.15.2-.308.4c-.03.036-.06.073-.09.109a8.423,8.423,0,0,1-.822.841l-.1.09q-.18.155-.368.3l-.092.07q-.232.171-.474.324l-.065.039q-.212.13-.431.246l-.127.066c-.151.077-.3.149-.46.216l-.057.026c-.176.074-.357.141-.54.2l-.119.038q-.223.071-.452.13l-.135.034c-.191.046-.384.087-.581.119h0a9.1,9.1,0,0,1-1.431.122c-5.542.042-10.358-4.793-9.5-12.144" transform="translate(-77.525 -92.391)" fill="#fff"/>
        <path id="Trazado_718115" data-name="Trazado 718115" d="M125.447,142.732a.15.15,0,0,1-.06-.012.154.154,0,0,1-.082-.2,7.094,7.094,0,0,1,3.918-3.695.154.154,0,0,1,.1.292,6.906,6.906,0,0,0-3.735,3.522.154.154,0,0,1-.142.095" transform="translate(-87.442 -96.879)" fill="#dedede"/>
        <path id="Trazado_718116" data-name="Trazado 718116" d="M194.224,146.418a23.689,23.689,0,0,1,3.094-9.3l.03-.048q.151-.247.308-.485l.046-.069q.151-.227.306-.443l.053-.074q.155-.214.315-.418l.052-.067q.168-.212.34-.411l.035-.041a10.545,10.545,0,0,1,1.2-1.186l.043-.034c.119-.1.239-.192.36-.28.037-.027.074-.052.111-.078.1-.07.2-.138.3-.2.047-.03.095-.058.142-.087.092-.055.183-.108.276-.159.053-.028.105-.056.159-.082.088-.045.177-.086.266-.126.056-.025.112-.049.168-.072.088-.036.176-.068.265-.1.057-.02.114-.04.171-.057.09-.028.181-.051.272-.073.056-.014.111-.029.167-.041.1-.021.2-.035.3-.049.048-.007.1-.016.143-.021a4.448,4.448,0,0,1,.444-.027c.106,0,.212,0,.319.014s.189.019.284.033h0c4.077.59,8.428,7.293,8.482,14.345a17.814,17.814,0,0,1-.475,4.379h0c-.059.24-.124.472-.193.7-.015.05-.031.1-.047.148q-.087.276-.184.542c-.016.044-.032.089-.048.134-.081.215-.166.425-.257.629l-.021.046c-.083.185-.172.365-.263.541-.024.046-.048.091-.072.136q-.132.247-.275.481c-.015.023-.028.048-.043.071q-.166.268-.346.518c-.023.032-.046.062-.069.093q-.15.2-.308.4c-.03.036-.06.073-.09.109a8.423,8.423,0,0,1-.822.841l-.1.09q-.18.155-.368.3l-.092.07q-.232.171-.474.324l-.065.039q-.212.13-.431.246l-.127.066c-.151.077-.3.149-.46.216l-.057.026c-.177.074-.357.141-.54.2l-.119.038q-.223.071-.452.13l-.135.034c-.191.046-.384.087-.581.119h0a9.1,9.1,0,0,1-1.431.122c-5.542.042-10.358-4.793-9.5-12.144" transform="translate(-135.48 -92.391)" fill="#fff"/>
        <path id="Trazado_718117" data-name="Trazado 718117" d="M208.488,142.732a.149.149,0,0,1-.06-.012.154.154,0,0,1-.082-.2,7.1,7.1,0,0,1,3.918-3.695.154.154,0,0,1,.1.292,6.907,6.907,0,0,0-3.735,3.522.154.154,0,0,1-.142.095" transform="translate(-145.396 -96.879)" fill="#dedede"/>
        <path id="Trazado_718118" data-name="Trazado 718118" d="M278.469,146.418a23.685,23.685,0,0,1,3.095-9.3l.03-.048q.151-.247.308-.485l.046-.069q.151-.227.306-.443l.053-.074q.155-.214.315-.418l.052-.067q.168-.212.34-.411l.035-.041a10.546,10.546,0,0,1,1.2-1.186l.043-.034c.119-.1.239-.192.36-.28.037-.027.074-.052.111-.078.1-.07.2-.138.3-.2.047-.03.095-.058.142-.087.092-.055.183-.108.276-.159.053-.028.105-.056.159-.082.088-.045.177-.086.266-.126.056-.025.112-.049.168-.072.088-.036.176-.068.265-.1.057-.02.114-.04.171-.057.091-.028.182-.051.273-.073.056-.014.111-.029.167-.041.1-.021.2-.035.3-.049.048-.007.1-.016.143-.021a4.447,4.447,0,0,1,.444-.027c.106,0,.212,0,.319.014s.189.019.284.033h0c4.077.59,8.428,7.293,8.482,14.345a17.815,17.815,0,0,1-.475,4.379h0c-.059.24-.124.472-.193.7-.015.05-.031.1-.047.148q-.087.276-.184.542c-.016.044-.032.089-.048.134-.081.215-.166.425-.257.629l-.021.046c-.083.185-.172.365-.263.541l-.072.136q-.133.247-.275.481c-.014.023-.028.048-.043.071q-.166.268-.346.518c-.023.032-.046.062-.069.093q-.15.2-.308.4c-.03.036-.06.073-.09.109a8.421,8.421,0,0,1-.822.841l-.1.09q-.18.155-.368.3l-.092.07q-.232.171-.474.324l-.065.039q-.212.13-.431.246l-.127.066c-.151.077-.3.149-.46.216l-.057.026c-.177.074-.357.141-.54.2l-.119.038q-.223.071-.452.13l-.135.034c-.191.046-.384.087-.581.119h0a9.1,9.1,0,0,1-1.431.122c-5.542.042-10.358-4.793-9.5-12.144" transform="translate(-194.274 -92.391)" fill="#fff"/>
        <path id="Trazado_718119" data-name="Trazado 718119" d="M292.733,142.732a.149.149,0,0,1-.06-.012.154.154,0,0,1-.082-.2,7.1,7.1,0,0,1,3.918-3.695.154.154,0,0,1,.1.292,6.907,6.907,0,0,0-3.735,3.522.154.154,0,0,1-.142.095" transform="translate(-204.19 -96.879)" fill="#dedede"/>
        <path id="Trazado_718120" data-name="Trazado 718120" d="M362.714,146.418a23.684,23.684,0,0,1,3.095-9.3l.03-.048q.151-.247.308-.485l.046-.069q.151-.227.306-.443l.053-.074q.155-.214.315-.418l.052-.067q.168-.212.34-.411l.035-.041a10.546,10.546,0,0,1,1.2-1.186l.043-.034c.119-.1.239-.192.359-.28.037-.027.074-.052.111-.078.1-.07.2-.138.3-.2.047-.03.095-.058.142-.087.092-.055.183-.108.276-.159.053-.028.105-.056.159-.082.088-.045.177-.086.266-.126.056-.025.112-.049.168-.072.088-.036.176-.068.265-.1.057-.02.114-.04.171-.057.091-.028.182-.051.272-.073.056-.014.111-.029.167-.041.1-.021.2-.035.3-.049.048-.007.1-.016.143-.021a4.447,4.447,0,0,1,.444-.027c.106,0,.212,0,.319.014s.189.019.284.033h0c4.077.59,8.428,7.293,8.482,14.345a17.814,17.814,0,0,1-.475,4.379h0c-.059.24-.124.472-.193.7-.015.05-.031.1-.047.148q-.087.276-.184.542c-.016.044-.032.089-.048.134-.081.215-.166.425-.257.629l-.021.046c-.083.185-.172.365-.263.541-.024.046-.048.091-.072.136q-.132.247-.275.481c-.014.023-.028.048-.042.071q-.166.268-.346.518c-.023.032-.046.062-.069.093q-.15.2-.308.4c-.03.036-.06.073-.09.109a8.424,8.424,0,0,1-.822.841l-.1.09q-.18.155-.368.3l-.092.07q-.232.171-.474.324l-.065.039q-.212.13-.431.246l-.127.066c-.151.077-.3.149-.46.216l-.057.026c-.177.074-.357.141-.54.2l-.119.038q-.223.071-.452.13l-.135.034c-.191.046-.384.087-.581.119h0a9.1,9.1,0,0,1-1.431.122c-5.542.042-10.358-4.793-9.5-12.144" transform="translate(-253.069 -92.391)" fill="#fff"/>
        <path id="Trazado_718121" data-name="Trazado 718121" d="M376.978,142.732a.149.149,0,0,1-.06-.012.154.154,0,0,1-.082-.2,7.1,7.1,0,0,1,3.918-3.695.154.154,0,0,1,.1.292,6.907,6.907,0,0,0-3.735,3.522.154.154,0,0,1-.142.095" transform="translate(-262.985 -96.879)" fill="#dedede"/>
        <path id="Trazado_718122" data-name="Trazado 718122" d="M92.08,175.712H77.991l4.718-16.181a1.657,1.657,0,0,1,1.536-1.271h1.581a1.657,1.657,0,0,1,1.536,1.271Z" transform="translate(-54.43 -110.449)" fill="#deb08e"/>
        <path id="Trazado_718123" data-name="Trazado 718123" d="M173.918,175.712H159.829l4.718-16.181a1.657,1.657,0,0,1,1.536-1.271h1.581a1.657,1.657,0,0,1,1.536,1.271Z" transform="translate(-111.544 -110.449)" fill="#deb08e"/>
        <path id="Trazado_718124" data-name="Trazado 718124" d="M259.968,175.712H245.879l4.718-16.181a1.657,1.657,0,0,1,1.536-1.271h1.581a1.657,1.657,0,0,1,1.536,1.271Z" transform="translate(-171.599 -110.449)" fill="#deb08e"/>
        <path id="Trazado_718125" data-name="Trazado 718125" d="M341.2,175.712H327.115l4.718-16.181a1.657,1.657,0,0,1,1.536-1.271h1.581a1.657,1.657,0,0,1,1.536,1.271Z" transform="translate(-228.293 -110.449)" fill="#deb08e"/>
        <path id="Trazado_718126" data-name="Trazado 718126" d="M89.847,162.429a.152.152,0,0,1-.055-.01.155.155,0,0,1-.089-.2,9.648,9.648,0,0,0,.4-1.584c.234-1.207.476-2.455,1.52-3.107a3.2,3.2,0,0,1,3.645.385,5.555,5.555,0,0,1,1.062,2.58c.075.347.153.7.26,1.048a.154.154,0,1,1-.295.092c-.111-.356-.19-.721-.267-1.074a5.239,5.239,0,0,0-.988-2.437,2.887,2.887,0,0,0-3.266-.324c-.917.574-1.146,1.755-1.368,2.9a10.019,10.019,0,0,1-.411,1.635.155.155,0,0,1-.144.1" transform="translate(-62.596 -109.667)" fill="#382118"/>
        <path id="Trazado_718127" data-name="Trazado 718127" d="M178.745,162.157a.155.155,0,0,1-.143-.1,8.741,8.741,0,0,1-.4-1.454c-.251-1.163-.488-2.261-1.549-2.615a2.459,2.459,0,0,0-3.271.839,8.5,8.5,0,0,0-.869,2.745l-.053.268a.154.154,0,1,1-.3-.06l.053-.267a8.716,8.716,0,0,1,.905-2.842,2.767,2.767,0,0,1,3.647-.972c1.216.4,1.482,1.642,1.741,2.838a8.377,8.377,0,0,0,.384,1.4.154.154,0,0,1-.143.213" transform="translate(-120.147 -109.855)" fill="#382118"/>
        <path id="Trazado_718128" data-name="Trazado 718128" d="M257.434,162.6a.147.147,0,0,1-.049-.008.154.154,0,0,1-.1-.2,14.337,14.337,0,0,0,.418-1.686,8.257,8.257,0,0,1,.813-2.542l.008-.013a3.009,3.009,0,0,1,4.02-.771l.022.015a5.605,5.605,0,0,1,1.494,3.108c.075.3.152.6.238.893a.154.154,0,1,1-.3.088c-.087-.295-.166-.6-.241-.905a5.413,5.413,0,0,0-1.381-2.937,2.7,2.7,0,0,0-3.6.683,8.051,8.051,0,0,0-.775,2.444,14.561,14.561,0,0,1-.427,1.722.155.155,0,0,1-.147.105" transform="translate(-179.555 -109.526)" fill="#382118"/>
        <path id="Trazado_718129" data-name="Trazado 718129" d="M346.022,162.674a.155.155,0,0,1-.142-.093,9.135,9.135,0,0,1-.5-1.9c-.242-1.274-.47-2.478-1.6-2.816a3.181,3.181,0,0,0-2.785-.015c-1.062.664-1.2,1.883-1.337,3.062-.04.348-.081.708-.146,1.047a.154.154,0,1,1-.3-.058c.063-.327.1-.666.142-1.024.143-1.251.292-2.545,1.483-3.29a3.379,3.379,0,0,1,3.048-.012c1.294.388,1.55,1.741,1.8,3.05a8.909,8.909,0,0,0,.483,1.838.155.155,0,0,1-.08.2.158.158,0,0,1-.061.013" transform="translate(-236.731 -109.721)" fill="#382118"/>
        <path id="Trazado_718130" data-name="Trazado 718130" d="M190.424,218.329a27.12,27.12,0,0,1,3.543-10.65l.034-.055q.174-.284.353-.556l.053-.08q.173-.259.351-.508l.061-.085q.178-.246.361-.479l.06-.077q.193-.242.39-.471l.04-.047a12.044,12.044,0,0,1,1.376-1.358l.05-.039c.136-.112.273-.219.412-.321.042-.031.085-.059.128-.089.113-.08.227-.158.342-.231.054-.034.108-.066.162-.1.1-.063.21-.124.316-.182.06-.033.121-.064.182-.094q.152-.077.3-.144c.064-.028.128-.056.192-.082.1-.041.2-.078.3-.113.065-.023.131-.046.2-.066.1-.032.208-.058.312-.084.063-.016.127-.033.191-.047.113-.024.227-.04.342-.057.055-.008.109-.019.164-.025a5.015,5.015,0,0,1,.508-.031c.121,0,.243.005.365.016s.217.022.325.037h0c4.668.675,9.65,8.35,9.711,16.424a20.408,20.408,0,0,1-.543,5.014h0c-.067.274-.142.541-.221.8-.017.057-.036.113-.053.17q-.1.316-.211.621c-.018.051-.036.1-.055.153-.093.246-.191.486-.295.72l-.025.053c-.1.212-.2.417-.3.619q-.041.079-.082.156-.152.283-.315.551c-.017.027-.032.055-.049.082q-.19.306-.4.593c-.026.036-.053.071-.079.106q-.171.233-.352.453c-.034.042-.068.084-.1.125a9.623,9.623,0,0,1-.941.963c-.039.035-.079.069-.119.1q-.207.177-.421.341c-.035.027-.069.054-.1.08-.177.131-.358.255-.543.372l-.074.044q-.242.149-.493.282l-.145.076c-.173.088-.348.171-.527.247l-.066.029c-.2.085-.408.162-.618.232-.045.015-.091.029-.137.043q-.256.082-.517.149l-.154.039c-.219.052-.44.1-.665.137h0a10.474,10.474,0,0,1-1.639.139c-6.345.048-11.86-5.488-10.882-13.9" transform="translate(-132.818 -141.158)" fill="#fff"/>
        <path id="Trazado_718131" data-name="Trazado 718131" d="M206.808,214.14a.154.154,0,0,1-.142-.214,8.1,8.1,0,0,1,4.473-4.218.154.154,0,0,1,.1.292,7.932,7.932,0,0,0-4.289,4.045.154.154,0,0,1-.142.095" transform="translate(-144.224 -146.349)" fill="#dedede"/>
        <path id="Trazado_718132" data-name="Trazado 718132" d="M272.864,218.329a27.121,27.121,0,0,1,3.543-10.65l.034-.055q.174-.284.353-.556l.053-.08q.173-.259.351-.508l.061-.085q.178-.246.361-.479l.06-.077q.193-.242.39-.471l.04-.047a12.042,12.042,0,0,1,1.376-1.358l.05-.039c.136-.112.273-.219.412-.321.042-.031.085-.059.127-.089.113-.08.227-.158.342-.231.054-.034.108-.066.162-.1.1-.063.21-.124.316-.182.061-.033.121-.064.182-.094q.152-.077.3-.144c.064-.028.128-.056.192-.082.1-.041.2-.078.3-.113.065-.023.13-.046.2-.066.1-.032.208-.058.312-.084.064-.016.127-.033.191-.047.113-.024.227-.04.342-.057.055-.008.109-.019.164-.025a5.016,5.016,0,0,1,.508-.031c.121,0,.243.005.365.016s.217.022.325.037h0c4.668.675,9.65,8.35,9.711,16.424a20.408,20.408,0,0,1-.543,5.014h0c-.067.274-.142.541-.221.8-.017.057-.036.113-.053.17q-.1.316-.211.621c-.018.051-.036.1-.056.153-.093.246-.19.486-.294.72-.008.018-.017.035-.025.053-.1.212-.2.417-.3.619q-.041.079-.082.156-.152.283-.315.551c-.017.027-.032.055-.049.082q-.19.306-.4.593c-.026.036-.053.071-.079.106q-.171.233-.352.453c-.034.042-.068.084-.1.125a9.627,9.627,0,0,1-.941.963c-.039.035-.079.069-.119.1q-.207.177-.421.341c-.035.027-.07.054-.1.08-.177.131-.358.255-.543.372l-.074.044q-.242.149-.493.282l-.145.076c-.172.088-.348.171-.527.247l-.066.029c-.2.085-.408.162-.618.232-.045.015-.091.029-.137.043q-.256.082-.517.149l-.154.039c-.219.052-.44.1-.665.137h0a10.471,10.471,0,0,1-1.639.139c-6.345.048-11.86-5.488-10.882-13.9" transform="translate(-190.352 -141.158)" fill="#fff"/>
        <path id="Trazado_718133" data-name="Trazado 718133" d="M289.248,214.14a.154.154,0,0,1-.142-.214,8.1,8.1,0,0,1,4.473-4.218.154.154,0,0,1,.1.292,7.932,7.932,0,0,0-4.289,4.045.154.154,0,0,1-.142.095" transform="translate(-201.758 -146.349)" fill="#dedede"/>
        <path id="Trazado_718134" data-name="Trazado 718134" d="M354.7,218.329a27.121,27.121,0,0,1,3.543-10.65l.034-.055q.174-.284.353-.556l.053-.08q.173-.259.351-.508l.061-.085q.178-.246.361-.479l.06-.077q.193-.242.39-.471l.04-.047a12.044,12.044,0,0,1,1.376-1.358l.05-.039c.136-.112.273-.219.412-.321.042-.031.085-.059.127-.089.114-.08.227-.158.343-.231.054-.034.108-.066.162-.1.1-.063.21-.124.316-.182.061-.033.121-.064.182-.094q.152-.077.3-.144c.064-.028.128-.056.192-.082.1-.041.2-.078.3-.113.065-.023.13-.046.2-.066.1-.032.208-.058.312-.084.064-.016.127-.033.191-.047.113-.024.227-.04.342-.057.055-.008.109-.019.164-.025a5.015,5.015,0,0,1,.508-.031c.121,0,.243.005.365.016s.217.022.325.037h0c4.668.675,9.65,8.35,9.711,16.424a20.407,20.407,0,0,1-.543,5.014h0c-.067.274-.142.541-.221.8-.017.057-.036.113-.053.17q-.1.316-.211.621c-.018.051-.036.1-.056.153-.093.246-.19.486-.294.72-.008.018-.017.035-.025.053-.1.212-.2.417-.3.619q-.041.079-.082.156-.152.283-.315.551c-.017.027-.032.055-.049.082q-.19.306-.4.593c-.026.036-.053.071-.079.106q-.171.233-.352.453c-.034.042-.068.084-.1.125a9.624,9.624,0,0,1-.941.963c-.039.035-.079.069-.119.1q-.207.177-.421.341c-.035.027-.069.054-.1.08-.177.131-.358.255-.543.372l-.074.044q-.242.149-.493.282l-.145.076c-.173.088-.348.171-.527.247l-.066.029c-.2.085-.408.162-.618.232-.045.015-.091.029-.137.043q-.256.082-.518.149l-.154.039c-.219.052-.44.1-.665.137h0a10.47,10.47,0,0,1-1.639.139c-6.345.048-11.86-5.488-10.882-13.9" transform="translate(-247.467 -141.158)" fill="#fff"/>
        <path id="Trazado_718135" data-name="Trazado 718135" d="M371.086,214.14a.154.154,0,0,1-.142-.214,8.1,8.1,0,0,1,4.473-4.218.154.154,0,1,1,.1.292,7.932,7.932,0,0,0-4.289,4.045.154.154,0,0,1-.142.095" transform="translate(-258.873 -146.349)" fill="#dedede"/>
        <path id="Trazado_718136" data-name="Trazado 718136" d="M202.087,274.856h-5.751a5.979,5.979,0,0,1-5.7-4.167l-3.128-9.831H210.6l-2.76,9.661a5.98,5.98,0,0,1-5.75,4.337" transform="translate(-130.862 -182.052)" fill="#deb08e"/>
        <path id="Trazado_718137" data-name="Trazado 718137" d="M284.527,275.157h-5.751a5.979,5.979,0,0,1-5.7-4.167l-3.128-9.831h23.087l-2.76,9.661a5.98,5.98,0,0,1-5.75,4.337" transform="translate(-188.397 -182.262)" fill="#deb08e"/>
        <path id="Trazado_718138" data-name="Trazado 718138" d="M366.365,275.157h-5.751a5.979,5.979,0,0,1-5.7-4.167l-3.128-9.831h23.087l-2.76,9.661a5.98,5.98,0,0,1-5.75,4.337" transform="translate(-245.512 -182.262)" fill="#deb08e"/>
        <path id="Trazado_718139" data-name="Trazado 718139" d="M205.355,205.888a.154.154,0,0,1-.123-.248c1.942-2.559,5.276-4.665,8.811-2.9a9.53,9.53,0,0,1,2.253,1.6.155.155,0,1,1-.212.225,9.222,9.222,0,0,0-2.179-1.553c-3.367-1.681-6.561.35-8.427,2.811a.155.155,0,0,1-.123.061" transform="translate(-143.209 -141.037)" fill="#382118"/>
        <path id="Trazado_718140" data-name="Trazado 718140" d="M289,205.888a.155.155,0,0,1-.123-.248c1.942-2.559,5.276-4.665,8.811-2.9a9.535,9.535,0,0,1,2.253,1.6.155.155,0,1,1-.212.225,9.215,9.215,0,0,0-2.179-1.553c-3.367-1.681-6.561.35-8.427,2.811a.155.155,0,0,1-.123.061" transform="translate(-201.584 -141.037)" fill="#382118"/>
        <path id="Trazado_718141" data-name="Trazado 718141" d="M370.234,205.888a.154.154,0,0,1-.123-.248c1.942-2.559,5.276-4.665,8.811-2.9a9.53,9.53,0,0,1,2.253,1.6.155.155,0,1,1-.212.225,9.222,9.222,0,0,0-2.179-1.553c-3.368-1.681-6.561.35-8.427,2.811a.155.155,0,0,1-.123.061" transform="translate(-258.278 -141.037)" fill="#382118"/>
        <path id="Trazado_718142" data-name="Trazado 718142" d="M26.748,218.329a27.12,27.12,0,0,1,3.543-10.65l.034-.055q.174-.284.353-.556l.053-.08q.173-.259.351-.508l.061-.085q.178-.246.361-.479l.06-.077q.193-.242.39-.471l.04-.047a12.046,12.046,0,0,1,1.376-1.358l.05-.039c.136-.112.273-.219.412-.321.042-.031.085-.059.127-.089.113-.08.227-.158.342-.231.054-.034.108-.066.162-.1.1-.063.21-.124.316-.182.06-.033.121-.064.182-.094q.152-.077.3-.144c.064-.028.128-.056.192-.082.1-.041.2-.078.3-.113.065-.023.13-.046.2-.066.1-.032.208-.058.312-.084.064-.016.127-.033.191-.047.113-.024.227-.04.342-.057.055-.008.109-.019.164-.025a5.016,5.016,0,0,1,.508-.031c.121,0,.243.005.365.016s.217.022.325.037h0c4.668.675,9.65,8.35,9.711,16.424a20.407,20.407,0,0,1-.543,5.014h0c-.067.274-.142.541-.221.8-.017.057-.036.113-.053.17q-.1.316-.211.621c-.018.051-.036.1-.055.153-.093.246-.191.486-.295.72l-.025.053c-.1.212-.2.417-.3.619q-.041.079-.082.156-.152.283-.315.551c-.017.027-.032.055-.049.082q-.19.306-.4.593c-.026.036-.053.071-.079.106q-.171.233-.352.453c-.034.042-.068.084-.1.125a9.62,9.62,0,0,1-.941.963c-.039.035-.079.069-.119.1q-.207.177-.421.341c-.035.027-.069.054-.1.08-.177.131-.358.255-.543.372l-.074.044q-.242.149-.493.282l-.145.076c-.172.088-.348.171-.527.247l-.066.029c-.2.085-.408.162-.618.232-.045.015-.091.029-.137.043q-.256.082-.518.149l-.154.039c-.219.052-.44.1-.665.137h0a10.473,10.473,0,0,1-1.639.139c-6.345.048-11.86-5.488-10.882-13.9" transform="translate(-18.588 -141.158)" fill="#fff"/>
        <path id="Trazado_718143" data-name="Trazado 718143" d="M43.132,214.14a.154.154,0,0,1-.142-.214,8.1,8.1,0,0,1,4.473-4.218.154.154,0,0,1,.1.292,7.932,7.932,0,0,0-4.289,4.045.154.154,0,0,1-.142.095" transform="translate(-29.994 -146.349)" fill="#dedede"/>
        <path id="Trazado_718144" data-name="Trazado 718144" d="M42.883,205.887a.155.155,0,0,1-.123-.248c1.942-2.559,5.276-4.666,8.811-2.9a9.522,9.522,0,0,1,2.253,1.6.154.154,0,0,1-.211.225,9.223,9.223,0,0,0-2.18-1.553c-3.367-1.681-6.56.35-8.427,2.811a.155.155,0,0,1-.123.061" transform="translate(-29.82 -141.036)" fill="#382118"/>
        <path id="Trazado_718145" data-name="Trazado 718145" d="M108.586,218.329a27.12,27.12,0,0,1,3.543-10.65l.034-.055q.174-.284.353-.556l.053-.08q.173-.259.351-.508l.061-.085q.178-.246.361-.479l.06-.077q.193-.242.39-.471l.04-.047a12.046,12.046,0,0,1,1.376-1.358l.05-.039c.136-.112.273-.219.412-.321.042-.031.085-.059.127-.089.113-.08.227-.158.342-.231.054-.034.108-.066.162-.1.1-.063.21-.124.316-.182.06-.033.121-.064.182-.094q.152-.077.3-.144c.064-.028.128-.056.192-.082.1-.041.2-.078.3-.113.065-.023.13-.046.2-.066.1-.032.208-.058.312-.084.063-.016.127-.033.191-.047.113-.024.227-.04.342-.057.055-.008.109-.019.164-.025a5.016,5.016,0,0,1,.508-.031c.121,0,.243.005.365.016s.217.022.325.037h0c4.668.675,9.65,8.35,9.711,16.424a20.407,20.407,0,0,1-.543,5.014h0c-.067.274-.142.541-.221.8-.017.057-.036.113-.053.17q-.1.316-.211.621c-.018.051-.036.1-.055.153-.093.246-.191.486-.295.72l-.025.053c-.1.212-.2.417-.3.619q-.041.079-.082.156-.152.283-.315.551c-.017.027-.032.055-.049.082q-.19.306-.4.593c-.026.036-.053.071-.079.106q-.171.233-.352.453c-.034.042-.068.084-.1.125a9.619,9.619,0,0,1-.941.963c-.039.035-.079.069-.119.1q-.207.177-.421.341c-.035.027-.069.054-.1.08-.177.131-.358.255-.543.372l-.074.044q-.242.149-.493.282l-.145.076c-.173.088-.348.171-.527.247l-.066.029c-.2.085-.408.162-.618.232-.045.015-.091.029-.137.043q-.256.082-.518.149l-.154.039c-.219.052-.44.1-.665.137h0a10.474,10.474,0,0,1-1.639.139c-6.345.048-11.86-5.488-10.882-13.9" transform="translate(-75.703 -141.158)" fill="#fff"/>
        <path id="Trazado_718146" data-name="Trazado 718146" d="M124.97,214.14a.154.154,0,0,1-.142-.214,8.1,8.1,0,0,1,4.473-4.218.154.154,0,0,1,.1.292,7.932,7.932,0,0,0-4.289,4.045.154.154,0,0,1-.142.095" transform="translate(-87.109 -146.349)" fill="#dedede"/>
        <path id="Trazado_718147" data-name="Trazado 718147" d="M38.411,274.856H32.659a5.979,5.979,0,0,1-5.7-4.167l-3.128-9.831H46.92l-2.76,9.661a5.98,5.98,0,0,1-5.75,4.337" transform="translate(-16.633 -182.052)" fill="#deb08e"/>
        <path id="Trazado_718148" data-name="Trazado 718148" d="M120.249,275.157H114.5a5.979,5.979,0,0,1-5.7-4.167l-3.128-9.831h23.087L126,270.82a5.98,5.98,0,0,1-5.75,4.337" transform="translate(-73.748 -182.262)" fill="#deb08e"/>
        <path id="Trazado_718149" data-name="Trazado 718149" d="M124.721,205.888a.155.155,0,0,1-.123-.248c1.942-2.559,5.276-4.665,8.811-2.9a9.531,9.531,0,0,1,2.253,1.6.154.154,0,0,1-.211.225,9.23,9.23,0,0,0-2.179-1.553c-3.367-1.681-6.561.35-8.427,2.811a.155.155,0,0,1-.123.061" transform="translate(-86.935 -141.037)" fill="#382118"/>
        <rect id="Rect치ngulo_344371" data-name="Rect치ngulo 344371" width="128.889" height="3.09" transform="translate(4.019 75.806)" fill="#deb08e"/>
      </g>
    </g>
  </g>
</svg>
