<svg id="Grupo_983925" data-name="Grupo 983925" xmlns="http://www.w3.org/2000/svg" xmlns:xlink="http://www.w3.org/1999/xlink" width="620" height="629.589" viewBox="0 0 620 629.589">
  <defs>
    <clipPath id="clip-path">
      <rect id="Rectángulo_344679" data-name="Rectángulo 344679" width="620" height="629.589" fill="none"/>
    </clipPath>
  </defs>
  <g id="Grupo_983924" data-name="Grupo 983924" clip-path="url(#clip-path)">
    <path id="Trazado_720354" data-name="Trazado 720354" d="M115.96,322.428H519.985A44.261,44.261,0,0,0,564.118,278.3V44.131A44.261,44.261,0,0,0,519.985,0H115.96A44.26,44.26,0,0,0,71.828,44.131V278.3a44.26,44.26,0,0,0,44.132,44.132" transform="translate(-9.642)" fill="#d69766" fill-rule="evenodd"/>
    <path id="Trazado_720355" data-name="Trazado 720355" d="M610.286,344.334a44.093,44.093,0,0,0,16.1-34.023V280.544c-13.085-17.831-33.585-35.8-64.649-41.16-67.439-11.631,17.4,96.038,17.4,96.038s16.31,4.728,31.144,8.912" transform="translate(-71.911 -32.017)" fill="#ba8153" fill-rule="evenodd"/>
    <path id="Trazado_720356" data-name="Trazado 720356" d="M71.828,300.081v10.232a44.175,44.175,0,0,0,19.321,36.445c16.242-4.51,39.789-11.335,39.789-11.335s84.843-107.67,17.4-96.038c-42.853,7.391-65.611,38.784-76.514,60.7" transform="translate(-9.642 -32.017)" fill="#ba8153" fill-rule="evenodd"/>
    <path id="Trazado_720357" data-name="Trazado 720357" d="M630.272,48.158V44.131A44.26,44.26,0,0,0,586.139,0H564.634s15.519,5.087,10.8,23.466,26.169,26.161,26.169,26.161,19.275-4.647,28.665-1.468" transform="translate(-75.796)" fill="#ecac7a" fill-rule="evenodd"/>
    <path id="Trazado_720358" data-name="Trazado 720358" d="M132.268,0H115.96A44.261,44.261,0,0,0,71.828,44.132v3.047c9.913-.818,23.467,2.448,23.467,2.448s30.884-7.783,26.169-26.162S132.268,0,132.268,0" transform="translate(-9.642 0)" fill="#ecac7a" fill-rule="evenodd"/>
    <path id="Trazado_720359" data-name="Trazado 720359" d="M114.323,27.1H528.9a15.434,15.434,0,0,1,15.391,15.39V287.209A15.435,15.435,0,0,1,528.9,302.6H114.323a15.433,15.433,0,0,1-15.389-15.389V42.494A15.432,15.432,0,0,1,114.323,27.1" transform="translate(-13.281 -3.638)" fill="#83552a" fill-rule="evenodd"/>
    <path id="Trazado_720360" data-name="Trazado 720360" d="M575.563,27.1h8.819a20.724,20.724,0,0,1,20.665,20.665v3.105C595.5,57.788,563.4,80.8,553.726,84.67c-8.981,3.591,11.948-37.089,21.837-57.566" transform="translate(-74.038 -3.638)" fill="#71451d" fill-rule="evenodd"/>
    <path id="Trazado_720361" data-name="Trazado 720361" d="M119.6,27.1h5.5c9.89,20.477,30.818,61.157,21.837,57.566-8.753-3.5-35.844-22.658-48.006-31.4v-5.5A20.724,20.724,0,0,1,119.6,27.1" transform="translate(-13.281 -3.638)" fill="#71451d" fill-rule="evenodd"/>
    <path id="Trazado_720362" data-name="Trazado 720362" d="M169.487,67.5H484.581a30.248,30.248,0,0,1,30.16,30.161V242.889a30.247,30.247,0,0,1-30.16,30.159H169.487a30.246,30.246,0,0,1-30.159-30.159V97.656A30.246,30.246,0,0,1,169.487,67.5" transform="translate(-18.703 -9.06)" fill="#a87348" fill-rule="evenodd"/>
    <path id="Trazado_720363" data-name="Trazado 720363" d="M169.487,67.5H484.581a30.25,30.25,0,0,1,30.161,30.161V242.888a30.249,30.249,0,0,1-30.161,30.16H459.913c-18.967-13.178-42.61-30.61-71.678-53.615-84.143-66.6-207.286-99.178-248.907-108.754V97.656A30.249,30.249,0,0,1,169.487,67.5" transform="translate(-18.703 -9.06)" fill="#b17e53" fill-rule="evenodd"/>
    <path id="Trazado_720364" data-name="Trazado 720364" d="M514.741,209.033v50.912A30.249,30.249,0,0,1,484.58,290.1H169.487a30.249,30.249,0,0,1-30.16-30.16V195.53c15.2-1.441,47.236-2.805,69.723,7.877,30.438,14.457,29.677,27.393,48.7,28.155s55.546-33.48,92.831-24.35,38.808,28.152,55.548,28.914c15.168.691,63.449-39.854,108.611-27.093" transform="translate(-18.703 -26.117)" fill="#956438" fill-rule="evenodd"/>
    <path id="Trazado_720365" data-name="Trazado 720365" d="M546.392,210.8v50.912a30.249,30.249,0,0,1-30.161,30.16H491.564c-18.967-13.177-42.611-30.609-71.678-53.614a403.767,403.767,0,0,0-44.78-30.515,53.328,53.328,0,0,1,7.126,1.236c37.286,9.13,38.808,28.152,55.548,28.914,15.168.691,63.449-39.854,108.612-27.093" transform="translate(-50.354 -27.888)" fill="#a67246" fill-rule="evenodd"/>
    <path id="Trazado_720366" data-name="Trazado 720366" d="M15.229,508.067H611.051L548.99,328.87H77.289Z" transform="translate(-2.044 -44.147)" fill="#83552a" fill-rule="evenodd"/>
    <path id="Trazado_720367" data-name="Trazado 720367" d="M153.727,238.893c48.144,0,87.173,102.108,87.173,150.254a87.173,87.173,0,0,1-174.347,0c0-48.146,39.029-150.254,87.173-150.254" transform="translate(-8.934 -32.069)" fill="#f6edd5" fill-rule="evenodd"/>
    <path id="Trazado_720368" data-name="Trazado 720368" d="M196,267.847c26.776,33.541,44.9,91.387,44.9,124.192a87.173,87.173,0,1,1-174.346,0c0-35.37,21.064-99.865,51.333-131.6-.052.074-42.8,63.3-41.921,121.089.875,57.824,70.964,72.718,109.514,48.625s55.177-71.029,10.522-162.3" transform="translate(-8.934 -34.961)" fill="#f1e9cc" fill-rule="evenodd"/>
    <path id="Trazado_720369" data-name="Trazado 720369" d="M213,299.21l.09.169c.634,1.246,2.518,4.969,5.236,10.526,14.112,30.239,22.717,64.734,22.717,87.339A87.176,87.176,0,0,1,67.581,409.7c11.679,59.612,94.406,94.4,143.006,37.486,47.013-55.06,5.23-142.254,2.409-147.972" transform="translate(-9.072 -40.166)" fill="#dbd1b4" fill-rule="evenodd"/>
    <path id="Trazado_720370" data-name="Trazado 720370" d="M104.437,401.764c-8.323-3.5-21.415-24.491-11.389-67.9s40.878-86.434,64.4-85.859,53.443,53.881,48.186,105.572S141.673,315.9,104.437,401.764" transform="translate(-12.004 -33.291)" fill="#fbf2da" fill-rule="evenodd"/>
    <path id="Trazado_720371" data-name="Trazado 720371" d="M119.5,290.1s15.114-32.855,30.883-31.979-5.695,21.246-14.018,32.855-26.283,20.808-16.865-.875" transform="translate(-15.685 -34.648)" fill="#fff" fill-rule="evenodd"/>
    <path id="Trazado_720372" data-name="Trazado 720372" d="M109.5,319.033c-2.848,0-14.675,16.208-8.1,21.9s21.027-26.284,8.1-21.9" transform="translate(-13.349 -42.771)" fill="#fff" fill-rule="evenodd"/>
    <path id="Trazado_720373" data-name="Trazado 720373" d="M188.373,448.753c.439-.987,1.1-2.3,1.861-1.315s1.972.987.986,1.862-.767,1.971-1.752,1.861-2.737-2.409-1.1-2.409" transform="translate(-25.196 -60.017)" fill="#f1e9cc" fill-rule="evenodd"/>
    <path id="Trazado_720374" data-name="Trazado 720374" d="M194.251,441.115c3.614-1.313,3.724-1.971,4.381-.219s3.833,3.723,3.833,1.642.876-3.834-.438-5.037-.328-3.395-3.286-1.971-5.694,4.6-4.49,5.585" transform="translate(-26.037 -58.403)" fill="#f1e9cc" fill-rule="evenodd"/>
    <path id="Trazado_720375" data-name="Trazado 720375" d="M198.044,448.451c-.219,1.423.657,3.286,1.423,2.409s2.41-1.862,1.751-2.738-4.6-1.422-3.175.329" transform="translate(-26.544 -60.045)" fill="#f1e9cc" fill-rule="evenodd"/>
    <path id="Trazado_720376" data-name="Trazado 720376" d="M209.739,438c1.315,2.19,2.958,4.162,1.205,4.053s-2.081.546-2.738-.987-1.206-2.409-.547-2.518,2.08-.547,2.08-.547" transform="translate(-27.836 -58.797)" fill="#f1e9cc" fill-rule="evenodd"/>
    <path id="Trazado_720377" data-name="Trazado 720377" d="M213.353,434.242c1.533.547,4.819-.876,3.724-2.3s-1.2-2.739-2.628-2.3-3.505,3.725-1.1,4.6" transform="translate(-28.492 -57.663)" fill="#f1e9cc" fill-rule="evenodd"/>
    <path id="Trazado_720378" data-name="Trazado 720378" d="M205.245,431.74c-1.2-.986-1.753-3.286-.219-3.723s2.191-1.534,2.847,0,.985,2.409.11,3.176-2.081,2.08-2.738.547" transform="translate(-27.397 -57.35)" fill="#f1e9cc" fill-rule="evenodd"/>
    <path id="Trazado_720379" data-name="Trazado 720379" d="M226.018,426.223c2.3.219,3.505-.877,2.52-1.643a7.331,7.331,0,0,0-3.5-1.532c-1.424-.22-2.081-2.191-2.41,0s2.081,6.022,3.395,3.176" transform="translate(-29.881 -56.652)" fill="#f1e9cc" fill-rule="evenodd"/>
    <path id="Trazado_720380" data-name="Trazado 720380" d="M213.916,419.271c-.984.985-2.08,2.518-1.2,3.5a4.853,4.853,0,0,0,2.628,1.2s1.861-.768,1.534-1.971-.877-3.285-2.958-2.738" transform="translate(-28.511 -56.27)" fill="#f1e9cc" fill-rule="evenodd"/>
    <path id="Trazado_720381" data-name="Trazado 720381" d="M225.87,412.774c.986-1.205,2.847-1.753,3.5-.439s2.08,3.286.547,3.5-5.475-1.1-4.052-3.066" transform="translate(-30.28 -55.249)" fill="#f1e9cc" fill-rule="evenodd"/>
    <path id="Trazado_720382" data-name="Trazado 720382" d="M224.729,401.6c-1.1.766-2.738,1.314-1.534,1.971s2.3,2.629,3.176,1.205,1.971-2.081,1.2-2.848-2.19-1.532-2.847-.328" transform="translate(-29.905 -53.827)" fill="#f1e9cc" fill-rule="evenodd"/>
    <path id="Trazado_720383" data-name="Trazado 720383" d="M233.606,393.464c0,2.08,2.19,3.286,2.957,1.533s1.972-1.314,1.1-2.519-.329-2.956-1.862-2.19-2.848,1.862-2.19,3.177" transform="translate(-31.336 -52.367)" fill="#f1e9cc" fill-rule="evenodd"/>
    <path id="Trazado_720384" data-name="Trazado 720384" d="M542.2,238.893c48.145,0,87.174,102.108,87.174,150.254a87.174,87.174,0,0,1-174.348,0c0-48.146,39.029-150.254,87.174-150.254" transform="translate(-61.082 -32.069)" fill="#f6edd5" fill-rule="evenodd"/>
    <path id="Trazado_720385" data-name="Trazado 720385" d="M584.476,267.847c26.775,33.541,44.9,91.387,44.9,124.192a87.173,87.173,0,1,1-174.347,0c0-35.37,21.065-99.865,51.333-131.6-.05.074-42.8,63.3-41.92,121.089.876,57.824,70.965,72.718,109.514,48.625s55.177-71.029,10.522-162.3" transform="translate(-61.082 -34.961)" fill="#f1e9cc" fill-rule="evenodd"/>
    <path id="Trazado_720386" data-name="Trazado 720386" d="M601.469,299.21l.091.169c.633,1.246,2.518,4.969,5.235,10.526,14.113,30.239,22.717,64.734,22.717,87.339A87.176,87.176,0,0,1,456.055,409.7c11.679,59.612,94.405,94.4,143,37.486,47.013-55.06,5.231-142.254,2.41-147.972" transform="translate(-61.22 -40.166)" fill="#dbd1b4" fill-rule="evenodd"/>
    <path id="Trazado_720387" data-name="Trazado 720387" d="M492.911,401.764c-8.323-3.5-21.415-24.491-11.389-67.9s40.877-86.434,64.394-85.859,53.443,53.881,48.187,105.572S530.146,315.9,492.911,401.764" transform="translate(-64.153 -33.291)" fill="#fff6e0" fill-rule="evenodd"/>
    <path id="Trazado_720388" data-name="Trazado 720388" d="M507.978,290.1s15.113-32.855,30.883-31.979-5.693,21.246-14.018,32.855-26.284,20.808-16.865-.875" transform="translate(-67.833 -34.648)" fill="#fff" fill-rule="evenodd"/>
    <path id="Trazado_720389" data-name="Trazado 720389" d="M497.977,319.033c-2.847,0-14.675,16.208-8.1,21.9s21.026-26.284,8.1-21.9" transform="translate(-65.497 -42.771)" fill="#fff" fill-rule="evenodd"/>
    <path id="Trazado_720390" data-name="Trazado 720390" d="M576.847,448.753c.438-.987,1.094-2.3,1.861-1.315s1.972.987.985,1.862-.766,1.971-1.752,1.861-2.737-2.409-1.094-2.409" transform="translate(-77.345 -60.017)" fill="#f1e9cc" fill-rule="evenodd"/>
    <path id="Trazado_720391" data-name="Trazado 720391" d="M582.725,441.115c3.614-1.313,3.724-1.971,4.381-.219s3.833,3.723,3.833,1.642.876-3.834-.437-5.037-.33-3.395-3.286-1.971-5.695,4.6-4.491,5.585" transform="translate(-78.185 -58.403)" fill="#f1e9cc" fill-rule="evenodd"/>
    <path id="Trazado_720392" data-name="Trazado 720392" d="M586.518,448.451c-.22,1.423.656,3.286,1.423,2.409s2.409-1.862,1.752-2.738-4.6-1.422-3.176.329" transform="translate(-78.692 -60.045)" fill="#f1e9cc" fill-rule="evenodd"/>
    <path id="Trazado_720393" data-name="Trazado 720393" d="M598.212,438c1.314,2.19,2.957,4.162,1.205,4.053s-2.081.546-2.738-.987-1.2-2.409-.547-2.518,2.08-.547,2.08-.547" transform="translate(-79.984 -58.797)" fill="#f1e9cc" fill-rule="evenodd"/>
    <path id="Trazado_720394" data-name="Trazado 720394" d="M601.826,434.242c1.532.547,4.819-.876,3.723-2.3s-1.2-2.739-2.628-2.3-3.505,3.725-1.1,4.6" transform="translate(-80.64 -57.663)" fill="#f1e9cc" fill-rule="evenodd"/>
    <path id="Trazado_720395" data-name="Trazado 720395" d="M593.719,431.74c-1.205-.986-1.753-3.286-.22-3.723s2.191-1.534,2.848,0,.985,2.409.11,3.176-2.081,2.08-2.738.547" transform="translate(-79.545 -57.35)" fill="#f1e9cc" fill-rule="evenodd"/>
    <path id="Trazado_720396" data-name="Trazado 720396" d="M614.492,426.223c2.3.219,3.5-.877,2.518-1.643a7.327,7.327,0,0,0-3.5-1.532c-1.424-.22-2.081-2.191-2.409,0s2.081,6.022,3.4,3.176" transform="translate(-82.029 -56.652)" fill="#f1e9cc" fill-rule="evenodd"/>
    <path id="Trazado_720397" data-name="Trazado 720397" d="M602.39,419.271c-.985.985-2.08,2.518-1.2,3.5a4.853,4.853,0,0,0,2.629,1.2s1.861-.768,1.532-1.971-.875-3.285-2.957-2.738" transform="translate(-80.659 -56.27)" fill="#f1e9cc" fill-rule="evenodd"/>
    <path id="Trazado_720398" data-name="Trazado 720398" d="M614.343,412.774c.986-1.205,2.848-1.753,3.5-.439s2.081,3.286.548,3.5-5.476-1.1-4.053-3.066" transform="translate(-82.428 -55.249)" fill="#f1e9cc" fill-rule="evenodd"/>
    <path id="Trazado_720399" data-name="Trazado 720399" d="M613.2,401.6c-1.1.766-2.738,1.314-1.533,1.971s2.3,2.629,3.176,1.205,1.971-2.081,1.2-2.848-2.19-1.532-2.847-.328" transform="translate(-82.053 -53.827)" fill="#f1e9cc" fill-rule="evenodd"/>
    <path id="Trazado_720400" data-name="Trazado 720400" d="M622.08,393.464c0,2.08,2.19,3.286,2.957,1.533s1.971-1.314,1.1-2.519-.328-2.956-1.861-2.19-2.848,1.862-2.19,3.177" transform="translate(-83.484 -52.367)" fill="#f1e9cc" fill-rule="evenodd"/>
    <path id="Trazado_720401" data-name="Trazado 720401" d="M346.206,238.893c48.144,0,87.173,102.108,87.173,150.254a87.173,87.173,0,1,1-174.346,0c0-48.146,39.029-150.254,87.173-150.254" transform="translate(-34.772 -32.069)" fill="#f6edd5" fill-rule="evenodd"/>
    <path id="Trazado_720402" data-name="Trazado 720402" d="M388.48,267.847c26.777,33.541,44.9,91.387,44.9,124.192a87.173,87.173,0,1,1-174.347,0c0-35.37,21.064-99.865,51.333-131.6-.051.074-42.8,63.3-41.921,121.089.876,57.824,70.965,72.718,109.514,48.625s55.177-71.029,10.522-162.3" transform="translate(-34.772 -34.961)" fill="#f1e9cc" fill-rule="evenodd"/>
    <path id="Trazado_720403" data-name="Trazado 720403" d="M405.474,299.21l.089.169c.635,1.246,2.519,4.969,5.236,10.526,14.113,30.239,22.718,64.734,22.718,87.339A87.176,87.176,0,0,1,260.059,409.7c11.679,59.612,94.405,94.4,143,37.486,47.013-55.06,5.231-142.254,2.41-147.972" transform="translate(-34.91 -40.166)" fill="#dbd1b4" fill-rule="evenodd"/>
    <path id="Trazado_720404" data-name="Trazado 720404" d="M296.915,401.764c-8.323-3.5-21.416-24.491-11.39-67.9s40.879-86.434,64.4-85.859,53.443,53.881,48.187,105.572S334.151,315.9,296.915,401.764" transform="translate(-37.842 -33.291)" fill="#fff6e0" fill-rule="evenodd"/>
    <path id="Trazado_720405" data-name="Trazado 720405" d="M311.983,290.1s15.114-32.855,30.883-31.979-5.694,21.246-14.018,32.855-26.284,20.808-16.865-.875" transform="translate(-41.523 -34.648)" fill="#fff" fill-rule="evenodd"/>
    <path id="Trazado_720406" data-name="Trazado 720406" d="M301.983,319.033c-2.847,0-14.676,16.208-8.105,21.9s21.028-26.284,8.105-21.9" transform="translate(-39.187 -42.771)" fill="#fff" fill-rule="evenodd"/>
    <path id="Trazado_720407" data-name="Trazado 720407" d="M380.851,448.753c.438-.987,1.1-2.3,1.861-1.315s1.971.987.986,1.862-.767,1.971-1.752,1.861-2.738-2.409-1.1-2.409" transform="translate(-51.034 -60.017)" fill="#f1e9cc" fill-rule="evenodd"/>
    <path id="Trazado_720408" data-name="Trazado 720408" d="M386.73,441.115c3.614-1.313,3.724-1.971,4.381-.219s3.833,3.723,3.833,1.642.876-3.834-.439-5.037-.328-3.395-3.286-1.971-5.694,4.6-4.489,5.585" transform="translate(-51.875 -58.403)" fill="#f1e9cc" fill-rule="evenodd"/>
    <path id="Trazado_720409" data-name="Trazado 720409" d="M390.521,448.451c-.219,1.423.658,3.286,1.424,2.409s2.409-1.862,1.751-2.738-4.6-1.422-3.176.329" transform="translate(-52.382 -60.045)" fill="#f1e9cc" fill-rule="evenodd"/>
    <path id="Trazado_720410" data-name="Trazado 720410" d="M402.218,438c1.314,2.19,2.957,4.162,1.205,4.053s-2.081.546-2.739-.987-1.2-2.409-.547-2.518,2.081-.547,2.081-.547" transform="translate(-53.674 -58.797)" fill="#f1e9cc" fill-rule="evenodd"/>
    <path id="Trazado_720411" data-name="Trazado 720411" d="M405.831,434.242c1.534.547,4.819-.876,3.724-2.3s-1.2-2.739-2.628-2.3-3.5,3.725-1.1,4.6" transform="translate(-54.33 -57.663)" fill="#f1e9cc" fill-rule="evenodd"/>
    <path id="Trazado_720412" data-name="Trazado 720412" d="M397.724,431.74c-1.205-.986-1.753-3.286-.22-3.723s2.192-1.534,2.848,0,.985,2.409.109,3.176-2.081,2.08-2.738.547" transform="translate(-53.235 -57.35)" fill="#f1e9cc" fill-rule="evenodd"/>
    <path id="Trazado_720413" data-name="Trazado 720413" d="M418.5,426.223c2.3.219,3.505-.877,2.519-1.643a7.327,7.327,0,0,0-3.5-1.532c-1.424-.22-2.08-2.191-2.409,0s2.08,6.022,3.395,3.176" transform="translate(-55.719 -56.652)" fill="#f1e9cc" fill-rule="evenodd"/>
    <path id="Trazado_720414" data-name="Trazado 720414" d="M406.395,419.271c-.985.985-2.08,2.518-1.2,3.5a4.852,4.852,0,0,0,2.628,1.2s1.863-.768,1.534-1.971-.877-3.285-2.957-2.738" transform="translate(-54.349 -56.27)" fill="#f1e9cc" fill-rule="evenodd"/>
    <path id="Trazado_720415" data-name="Trazado 720415" d="M418.348,412.774c.986-1.205,2.847-1.753,3.5-.439s2.081,3.286.548,3.5-5.476-1.1-4.053-3.066" transform="translate(-56.118 -55.249)" fill="#f1e9cc" fill-rule="evenodd"/>
    <path id="Trazado_720416" data-name="Trazado 720416" d="M417.207,401.6c-1.1.766-2.738,1.314-1.534,1.971s2.3,2.629,3.177,1.205,1.97-2.081,1.2-2.848-2.19-1.532-2.847-.328" transform="translate(-55.743 -53.827)" fill="#f1e9cc" fill-rule="evenodd"/>
    <path id="Trazado_720417" data-name="Trazado 720417" d="M426.084,393.464c0,2.08,2.19,3.286,2.957,1.533s1.971-1.314,1.1-2.519-.33-2.956-1.863-2.19-2.847,1.862-2.19,3.177" transform="translate(-57.174 -52.367)" fill="#f1e9cc" fill-rule="evenodd"/>
    <path id="Trazado_720418" data-name="Trazado 720418" d="M254.189,326.552c1.013-1.881,3.038-6.368,11-7.236s15.63,0,18.959,7.815c16.74,39.294,24.476,59.5,35.314,100.435l-105.65,6.657c11.57-34.636,23.1-75.572,40.378-107.671" transform="translate(-28.702 -42.828)" fill="#b78050" fill-rule="evenodd"/>
    <path id="Trazado_720419" data-name="Trazado 720419" d="M310.656,400.144c2.87,9.234,5.711,19.228,8.8,30.914l-105.649,6.658c2.978-8.919,5.956-18.255,9.029-27.751,41.213,42.413,30.113-56.109,41.145-63.137,6.673-4.25,13.062-3.215,20.009,30.071s6.367,38.206,15.63,41.1c7.749,2.421,10.633-8.724,11.032-17.856" transform="translate(-28.702 -46.319)" fill="#956438" fill-rule="evenodd"/>
    <path id="Trazado_720420" data-name="Trazado 720420" d="M295.969,432.284l-34.513,2.174C262.725,419.1,269.2,342.3,271.8,340.741c2.894-1.736,8.683-1.157,11.866,23.88,2.39,18.793,9.1,52.177,12.3,67.663" transform="translate(-35.098 -45.662)" fill="#b78050" fill-rule="evenodd"/>
    <path id="Trazado_720421" data-name="Trazado 720421" d="M260,326.552c1.013-1.881,3.038-6.368,11-7.236s15.63,0,18.959,7.815l1.113,2.616c-.407,5.155-10.737,13.083-11.316,13.591s-9.479.434-11.216-.29-11.374-10.909-11.419-10.956q1.413-2.809,2.88-5.54" transform="translate(-34.516 -42.828)" fill="#d69766" fill-rule="evenodd"/>
    <path id="Trazado_720422" data-name="Trazado 720422" d="M269.965,426.707s1.282-74.775,6.656-74.966,11.289,70.916,9.552,74.388-14.762,3.473-16.208.578" transform="translate(-36.24 -47.217)" fill="#d69766" fill-rule="evenodd"/>
    <path id="Trazado_720423" data-name="Trazado 720423" d="M419.18,326.552c1.014-1.881,3.038-6.368,11-7.236s15.63,0,18.959,7.815c16.74,39.294,24.476,59.5,35.314,100.435L378.8,434.223c11.57-34.636,23.1-75.572,40.377-107.671" transform="translate(-50.85 -42.828)" fill="#b78050" fill-rule="evenodd"/>
    <path id="Trazado_720424" data-name="Trazado 720424" d="M475.648,400.144c2.87,9.234,5.711,19.228,8.8,30.914L378.8,437.715c2.979-8.919,5.956-18.255,9.029-27.751,41.212,42.413,30.113-56.109,41.144-63.137,6.673-4.25,13.063-3.215,20.009,30.071s6.368,38.206,15.63,41.1c7.749,2.421,10.634-8.724,11.033-17.856" transform="translate(-50.85 -46.319)" fill="#956438" fill-rule="evenodd"/>
    <path id="Trazado_720425" data-name="Trazado 720425" d="M460.96,432.284l-34.512,2.174c1.269-15.357,7.742-92.154,10.346-93.717,2.894-1.736,8.683-1.157,11.866,23.88,2.39,18.793,9.1,52.177,12.3,67.663" transform="translate(-57.246 -45.662)" fill="#b78050" fill-rule="evenodd"/>
    <path id="Trazado_720426" data-name="Trazado 720426" d="M424.994,326.552c1.014-1.881,3.038-6.368,11-7.236s15.63,0,18.959,7.815l1.113,2.616c-.407,5.155-10.738,13.083-11.315,13.591s-9.48.434-11.216-.29-11.375-10.909-11.421-10.956q1.414-2.809,2.881-5.54" transform="translate(-56.664 -42.828)" fill="#d69766" fill-rule="evenodd"/>
    <path id="Trazado_720427" data-name="Trazado 720427" d="M434.956,426.707s1.282-74.775,6.657-74.966,11.287,70.916,9.551,74.388-14.762,3.473-16.208.578" transform="translate(-58.388 -47.217)" fill="#d69766" fill-rule="evenodd"/>
    <path id="Trazado_720428" data-name="Trazado 720428" d="M214.232,384.375c1.33-2.473,3.993-8.369,14.456-9.511s20.545,0,24.921,10.272c22,51.65,32.172,78.206,46.417,132.015L161.157,525.9c15.208-45.527,30.369-99.336,53.075-141.527" transform="translate(-21.634 -50.273)" fill="#b78050" fill-rule="evenodd"/>
    <path id="Trazado_720429" data-name="Trazado 720429" d="M288.452,481.106c3.772,12.136,7.506,25.273,11.572,40.634l-138.867,8.751c3.916-11.722,7.827-24,11.868-36.476,54.171,55.748,39.581-73.752,54.081-82.989,8.772-5.588,17.17-4.225,26.3,39.526s8.368,50.221,20.545,54.025c10.184,3.182,13.977-11.468,14.5-23.471" transform="translate(-21.634 -54.862)" fill="#956438" fill-rule="evenodd"/>
    <path id="Trazado_720430" data-name="Trazado 720430" d="M269.147,523.351l-45.365,2.859c1.669-20.188,10.177-121.131,13.6-123.185,3.805-2.282,11.412-1.521,15.6,31.389,3.143,24.7,11.962,68.583,16.168,88.937" transform="translate(-30.04 -53.998)" fill="#b78050" fill-rule="evenodd"/>
    <path id="Trazado_720431" data-name="Trazado 720431" d="M221.874,384.375c1.33-2.473,3.993-8.369,14.456-9.511s20.545,0,24.921,10.272l1.463,3.44c-.535,6.775-14.113,17.2-14.872,17.863s-12.462.571-14.743-.381-14.952-14.338-15.012-14.4q1.858-3.692,3.788-7.282" transform="translate(-29.276 -50.273)" fill="#d69766" fill-rule="evenodd"/>
    <path id="Trazado_720432" data-name="Trazado 720432" d="M234.966,516.023s1.687-98.287,8.75-98.538,14.837,93.213,12.555,97.778-19.4,4.564-21.306.76" transform="translate(-31.542 -56.043)" fill="#d69766" fill-rule="evenodd"/>
    <path id="Trazado_720433" data-name="Trazado 720433" d="M431.1,384.375c1.331-2.473,3.993-8.369,14.456-9.511s20.545,0,24.92,10.272c22,51.65,32.173,78.206,46.418,132.015L378.026,525.9c15.207-45.527,30.368-99.336,53.074-141.527" transform="translate(-50.746 -50.273)" fill="#b78050" fill-rule="evenodd"/>
    <path id="Trazado_720434" data-name="Trazado 720434" d="M505.322,481.106c3.772,12.136,7.506,25.273,11.573,40.634l-138.868,8.751c3.915-11.722,7.827-24,11.868-36.476,54.171,55.748,39.58-73.752,54.082-82.989,8.772-5.588,17.17-4.225,26.3,39.526s8.368,50.221,20.544,54.025c10.184,3.182,13.976-11.468,14.5-23.471" transform="translate(-50.746 -54.862)" fill="#956438" fill-rule="evenodd"/>
    <path id="Trazado_720435" data-name="Trazado 720435" d="M486.015,523.351,440.65,526.21c1.669-20.188,10.177-121.131,13.6-123.185,3.8-2.282,11.412-1.521,15.6,31.389,3.142,24.7,11.961,68.583,16.167,88.937" transform="translate(-59.152 -53.998)" fill="#b78050" fill-rule="evenodd"/>
    <path id="Trazado_720436" data-name="Trazado 720436" d="M438.742,384.375c1.331-2.473,3.993-8.369,14.456-9.511s20.545,0,24.92,10.272l1.463,3.44c-.535,6.775-14.112,17.2-14.872,17.863s-12.461.571-14.743-.381-14.952-14.338-15.011-14.4q1.858-3.692,3.787-7.282" transform="translate(-58.388 -50.273)" fill="#d69766" fill-rule="evenodd"/>
    <path id="Trazado_720437" data-name="Trazado 720437" d="M451.835,516.023s1.686-98.287,8.749-98.538,14.837,93.213,12.555,97.778-19.4,4.564-21.3.76" transform="translate(-60.654 -56.043)" fill="#d69766" fill-rule="evenodd"/>
    <path id="Trazado_720438" data-name="Trazado 720438" d="M346.017,324.03c51.405,0,93.076,109.024,93.076,160.43a93.077,93.077,0,0,1-186.154,0c0-51.405,41.672-160.43,93.078-160.43" transform="translate(-33.954 -43.497)" fill="#fbf2da" fill-rule="evenodd"/>
    <path id="Trazado_720439" data-name="Trazado 720439" d="M391.155,354.945c28.589,35.811,47.939,97.576,47.939,132.6a93.077,93.077,0,0,1-186.154,0c0-37.766,22.491-106.628,54.81-140.514-.055.081-45.695,67.587-44.76,129.29.935,61.74,75.771,77.642,116.932,51.918s58.912-75.84,11.233-173.3" transform="translate(-33.954 -46.585)" fill="#f6edd5" fill-rule="evenodd"/>
    <path id="Trazado_720440" data-name="Trazado 720440" d="M409.3,388.432l.1.181c.676,1.329,2.688,5.306,5.59,11.239,15.068,32.287,24.255,69.118,24.255,93.253a93.079,93.079,0,0,1-185.2,13.3c12.469,63.649,100.8,100.8,152.689,40.025,50.2-58.79,5.584-151.889,2.572-157.995" transform="translate(-34.102 -52.143)" fill="#f1e9cc" fill-rule="evenodd"/>
    <path id="Trazado_720441" data-name="Trazado 720441" d="M293.39,497.931c-8.887-3.742-22.866-26.149-12.161-72.5s43.646-92.287,68.756-91.674,57.063,57.53,51.45,112.721-68.289-40.225-108.044,51.45" transform="translate(-37.233 -44.803)" fill="#fff6e0" fill-rule="evenodd"/>
    <path id="Trazado_720442" data-name="Trazado 720442" d="M309.477,378.707s16.136-35.08,32.974-34.144-6.08,22.685-14.967,35.079-28.064,22.217-18.007-.935" transform="translate(-41.162 -46.251)" fill="#fff" fill-rule="evenodd"/>
    <path id="Trazado_720443" data-name="Trazado 720443" d="M298.8,409.6c-3.039,0-15.669,17.306-8.652,23.386S312.6,404.921,298.8,409.6" transform="translate(-38.668 -54.925)" fill="#fff" fill-rule="evenodd"/>
    <path id="Trazado_720444" data-name="Trazado 720444" d="M383.008,548.1c.468-1.052,1.17-2.455,1.988-1.4s2.106,1.053,1.053,1.989-.819,2.1-1.871,1.987-2.923-2.572-1.17-2.572" transform="translate(-51.318 -73.338)" fill="#f1e9cc" fill-rule="evenodd"/>
    <path id="Trazado_720445" data-name="Trazado 720445" d="M389.285,539.947c3.859-1.4,3.976-2.105,4.678-.235s4.092,3.976,4.092,1.755.936-4.093-.468-5.379-.351-3.625-3.508-2.1-6.08,4.911-4.795,5.964" transform="translate(-52.215 -71.615)" fill="#f1e9cc" fill-rule="evenodd"/>
    <path id="Trazado_720446" data-name="Trazado 720446" d="M393.335,547.78c-.234,1.521.7,3.509,1.519,2.572s2.574-1.989,1.871-2.923-4.911-1.519-3.39.351" transform="translate(-52.757 -73.368)" fill="#f1e9cc" fill-rule="evenodd"/>
    <path id="Trazado_720447" data-name="Trazado 720447" d="M405.822,536.627c1.4,2.339,3.157,4.444,1.287,4.326s-2.222.583-2.925-1.053-1.286-2.572-.584-2.69,2.222-.583,2.222-.583" transform="translate(-54.136 -72.036)" fill="#f1e9cc" fill-rule="evenodd"/>
    <path id="Trazado_720448" data-name="Trazado 720448" d="M409.679,532.609c1.637.584,5.146-.935,3.976-2.454s-1.286-2.925-2.807-2.456-3.742,3.976-1.17,4.911" transform="translate(-54.837 -70.825)" fill="#f1e9cc" fill-rule="evenodd"/>
    <path id="Trazado_720449" data-name="Trazado 720449" d="M401.024,529.938c-1.286-1.053-1.872-3.507-.234-3.976s2.338-1.636,3.04,0,1.053,2.572.118,3.391-2.222,2.221-2.924.584" transform="translate(-53.667 -70.491)" fill="#f1e9cc" fill-rule="evenodd"/>
    <path id="Trazado_720450" data-name="Trazado 720450" d="M423.2,524.047c2.455.234,3.742-.935,2.689-1.753a7.808,7.808,0,0,0-3.743-1.638c-1.519-.234-2.221-2.338-2.572,0s2.222,6.431,3.626,3.391" transform="translate(-56.319 -69.745)" fill="#f1e9cc" fill-rule="evenodd"/>
    <path id="Trazado_720451" data-name="Trazado 720451" d="M410.282,516.624c-1.052,1.052-2.221,2.689-1.286,3.742a5.192,5.192,0,0,0,2.808,1.286s1.987-.819,1.637-2.106-.936-3.508-3.158-2.923" transform="translate(-54.857 -69.338)" fill="#f1e9cc" fill-rule="evenodd"/>
    <path id="Trazado_720452" data-name="Trazado 720452" d="M423.045,509.687c1.053-1.287,3.041-1.872,3.742-.468s2.222,3.508.585,3.743-5.846-1.171-4.327-3.274" transform="translate(-56.745 -68.248)" fill="#f1e9cc" fill-rule="evenodd"/>
    <path id="Trazado_720453" data-name="Trazado 720453" d="M421.826,497.761c-1.169.818-2.923,1.4-1.637,2.1s2.455,2.808,3.391,1.286,2.1-2.222,1.286-3.04-2.338-1.637-3.041-.351" transform="translate(-56.345 -66.729)" fill="#f1e9cc" fill-rule="evenodd"/>
    <path id="Trazado_720454" data-name="Trazado 720454" d="M431.305,489.069c0,2.222,2.339,3.507,3.157,1.636s2.1-1.4,1.169-2.688-.351-3.158-1.987-2.339-3.041,1.988-2.339,3.391" transform="translate(-57.873 -65.17)" fill="#f1e9cc" fill-rule="evenodd"/>
    <path id="Trazado_720455" data-name="Trazado 720455" d="M580.683,324.03c51.4,0,93.076,109.024,93.076,160.43a93.077,93.077,0,1,1-186.154,0c0-51.405,41.672-160.43,93.078-160.43" transform="translate(-65.455 -43.497)" fill="#fbf2da" fill-rule="evenodd"/>
    <path id="Trazado_720456" data-name="Trazado 720456" d="M625.82,354.945c28.589,35.811,47.939,97.576,47.939,132.6a93.077,93.077,0,0,1-186.154,0c0-37.766,22.491-106.628,54.81-140.514-.055.081-45.695,67.587-44.76,129.29.935,61.74,75.771,77.642,116.931,51.918s58.912-75.84,11.234-173.3" transform="translate(-65.455 -46.585)" fill="#f6edd5" fill-rule="evenodd"/>
    <path id="Trazado_720457" data-name="Trazado 720457" d="M643.964,388.432l.1.181c.677,1.329,2.688,5.306,5.591,11.239,15.067,32.287,24.254,69.118,24.254,93.253a93.08,93.08,0,0,1-185.2,13.3c12.47,63.649,100.8,100.8,152.69,40.025,50.2-58.79,5.584-151.889,2.572-157.995" transform="translate(-65.603 -52.143)" fill="#f1e9cc" fill-rule="evenodd"/>
    <path id="Trazado_720458" data-name="Trazado 720458" d="M528.056,497.931c-8.887-3.742-22.866-26.149-12.162-72.5s43.646-92.287,68.757-91.674,57.061,57.53,51.45,112.721-68.289-40.225-108.044,51.45" transform="translate(-68.734 -44.803)" fill="#fff6e0" fill-rule="evenodd"/>
    <path id="Trazado_720459" data-name="Trazado 720459" d="M544.142,378.707s16.136-35.08,32.974-34.144-6.08,22.685-14.967,35.079-28.063,22.217-18.007-.935" transform="translate(-72.664 -46.251)" fill="#fff" fill-rule="evenodd"/>
    <path id="Trazado_720460" data-name="Trazado 720460" d="M533.464,409.6c-3.04,0-15.669,17.306-8.653,23.386s22.451-28.064,8.653-23.386" transform="translate(-70.169 -54.925)" fill="#fff" fill-rule="evenodd"/>
    <path id="Trazado_720461" data-name="Trazado 720461" d="M617.674,548.1c.468-1.052,1.169-2.455,1.987-1.4s2.106,1.053,1.053,1.989-.818,2.1-1.871,1.987-2.923-2.572-1.169-2.572" transform="translate(-82.819 -73.338)" fill="#f1e9cc" fill-rule="evenodd"/>
    <path id="Trazado_720462" data-name="Trazado 720462" d="M623.95,539.947c3.859-1.4,3.976-2.105,4.678-.235s4.092,3.976,4.092,1.755.935-4.093-.467-5.379-.352-3.625-3.508-2.1-6.08,4.911-4.795,5.964" transform="translate(-83.717 -71.615)" fill="#f1e9cc" fill-rule="evenodd"/>
    <path id="Trazado_720463" data-name="Trazado 720463" d="M628,547.78c-.235,1.521.7,3.509,1.519,2.572s2.573-1.989,1.872-2.923-4.912-1.519-3.391.351" transform="translate(-84.258 -73.368)" fill="#f1e9cc" fill-rule="evenodd"/>
    <path id="Trazado_720464" data-name="Trazado 720464" d="M640.488,536.627c1.4,2.339,3.157,4.444,1.286,4.326s-2.222.583-2.924-1.053-1.286-2.572-.584-2.69,2.222-.583,2.222-.583" transform="translate(-85.638 -72.036)" fill="#f1e9cc" fill-rule="evenodd"/>
    <path id="Trazado_720465" data-name="Trazado 720465" d="M644.345,532.609c1.637.584,5.144-.935,3.976-2.454s-1.286-2.925-2.806-2.456-3.742,3.976-1.17,4.911" transform="translate(-86.338 -70.825)" fill="#f1e9cc" fill-rule="evenodd"/>
    <path id="Trazado_720466" data-name="Trazado 720466" d="M635.69,529.938c-1.286-1.053-1.872-3.507-.233-3.976s2.338-1.636,3.04,0,1.052,2.572.116,3.391-2.222,2.221-2.923.584" transform="translate(-85.168 -70.491)" fill="#f1e9cc" fill-rule="evenodd"/>
    <path id="Trazado_720467" data-name="Trazado 720467" d="M657.869,524.047c2.455.234,3.742-.935,2.69-1.753a7.815,7.815,0,0,0-3.742-1.638c-1.52-.234-2.222-2.338-2.573,0s2.221,6.431,3.625,3.391" transform="translate(-87.821 -69.745)" fill="#f1e9cc" fill-rule="evenodd"/>
    <path id="Trazado_720468" data-name="Trazado 720468" d="M644.948,516.624c-1.053,1.052-2.221,2.689-1.287,3.742a5.188,5.188,0,0,0,2.807,1.286s1.987-.819,1.637-2.106-.936-3.508-3.157-2.923" transform="translate(-86.358 -69.338)" fill="#f1e9cc" fill-rule="evenodd"/>
    <path id="Trazado_720469" data-name="Trazado 720469" d="M657.71,509.687c1.053-1.287,3.041-1.872,3.743-.468s2.222,3.508.584,3.743-5.846-1.171-4.327-3.274" transform="translate(-88.246 -68.248)" fill="#f1e9cc" fill-rule="evenodd"/>
    <path id="Trazado_720470" data-name="Trazado 720470" d="M656.492,497.761c-1.17.818-2.923,1.4-1.637,2.1s2.454,2.808,3.39,1.286,2.1-2.222,1.287-3.04-2.339-1.637-3.04-.351" transform="translate(-87.846 -66.729)" fill="#f1e9cc" fill-rule="evenodd"/>
    <path id="Trazado_720471" data-name="Trazado 720471" d="M665.971,489.069c0,2.222,2.338,3.507,3.157,1.636s2.1-1.4,1.169-2.688-.35-3.158-1.987-2.339-3.041,1.988-2.338,3.391" transform="translate(-89.374 -65.17)" fill="#f1e9cc" fill-rule="evenodd"/>
    <path id="Trazado_720472" data-name="Trazado 720472" d="M106.9,324.03c51.405,0,93.077,109.024,93.077,160.43a93.077,93.077,0,0,1-186.154,0c0-51.405,41.673-160.43,93.077-160.43" transform="translate(-1.855 -43.497)" fill="#fbf2da" fill-rule="evenodd"/>
    <path id="Trazado_720473" data-name="Trazado 720473" d="M152.034,354.945c28.589,35.811,47.939,97.576,47.939,132.6a93.077,93.077,0,0,1-186.154,0c0-37.766,22.492-106.628,54.81-140.514-.054.081-45.694,67.587-44.76,129.29.936,61.74,75.771,77.642,116.931,51.918s58.913-75.84,11.234-173.3" transform="translate(-1.855 -46.585)" fill="#f6edd5" fill-rule="evenodd"/>
    <path id="Trazado_720474" data-name="Trazado 720474" d="M170.179,388.432l.1.181c.676,1.329,2.689,5.306,5.59,11.239,15.069,32.287,24.255,69.118,24.255,93.253a93.08,93.08,0,0,1-185.2,13.3c12.47,63.649,100.8,100.8,152.689,40.025,50.2-58.79,5.585-151.889,2.574-157.995" transform="translate(-2.002 -52.143)" fill="#f1e9cc" fill-rule="evenodd"/>
    <path id="Trazado_720475" data-name="Trazado 720475" d="M54.269,497.931c-8.886-3.742-22.866-26.149-12.16-72.5s43.645-92.287,68.754-91.674,57.063,57.53,51.45,112.721-68.288-40.225-108.045,51.45" transform="translate(-5.133 -44.803)" fill="#fff6e0" fill-rule="evenodd"/>
    <path id="Trazado_720476" data-name="Trazado 720476" d="M70.357,378.707s16.136-35.08,32.974-34.144-6.079,22.685-14.967,35.079-28.064,22.217-18.007-.935" transform="translate(-9.063 -46.251)" fill="#fff" fill-rule="evenodd"/>
    <path id="Trazado_720477" data-name="Trazado 720477" d="M59.678,409.6c-3.041,0-15.669,17.306-8.653,23.386s22.451-28.064,8.653-23.386" transform="translate(-6.569 -54.925)" fill="#fff" fill-rule="evenodd"/>
    <path id="Trazado_720478" data-name="Trazado 720478" d="M143.888,548.1c.468-1.052,1.169-2.455,1.988-1.4s2.106,1.053,1.054,1.989-.82,2.1-1.873,1.987-2.923-2.572-1.169-2.572" transform="translate(-19.219 -73.338)" fill="#f1e9cc" fill-rule="evenodd"/>
    <path id="Trazado_720479" data-name="Trazado 720479" d="M150.165,539.947c3.858-1.4,3.976-2.105,4.678-.235s4.092,3.976,4.092,1.755.937-4.093-.467-5.379-.352-3.625-3.508-2.1-6.08,4.911-4.795,5.964" transform="translate(-20.116 -71.615)" fill="#f1e9cc" fill-rule="evenodd"/>
    <path id="Trazado_720480" data-name="Trazado 720480" d="M154.213,547.78c-.234,1.521.7,3.509,1.52,2.572s2.573-1.989,1.872-2.923-4.911-1.519-3.392.351" transform="translate(-20.657 -73.368)" fill="#f1e9cc" fill-rule="evenodd"/>
    <path id="Trazado_720481" data-name="Trazado 720481" d="M166.7,536.627c1.4,2.339,3.157,4.444,1.287,4.326s-2.222.583-2.924-1.053-1.287-2.572-.584-2.69,2.222-.583,2.222-.583" transform="translate(-22.037 -72.036)" fill="#f1e9cc" fill-rule="evenodd"/>
    <path id="Trazado_720482" data-name="Trazado 720482" d="M170.559,532.609c1.637.584,5.146-.935,3.976-2.454s-1.286-2.925-2.806-2.456-3.743,3.976-1.17,4.911" transform="translate(-22.737 -70.825)" fill="#f1e9cc" fill-rule="evenodd"/>
    <path id="Trazado_720483" data-name="Trazado 720483" d="M161.9,529.938c-1.287-1.053-1.873-3.507-.235-3.976s2.339-1.636,3.041,0,1.052,2.572.118,3.391-2.222,2.221-2.923.584" transform="translate(-21.568 -70.491)" fill="#f1e9cc" fill-rule="evenodd"/>
    <path id="Trazado_720484" data-name="Trazado 720484" d="M184.083,524.047c2.455.234,3.743-.935,2.69-1.753a7.815,7.815,0,0,0-3.743-1.638c-1.519-.234-2.222-2.338-2.572,0s2.222,6.431,3.625,3.391" transform="translate(-24.22 -69.745)" fill="#f1e9cc" fill-rule="evenodd"/>
    <path id="Trazado_720485" data-name="Trazado 720485" d="M171.163,516.624c-1.053,1.052-2.222,2.689-1.287,3.742a5.186,5.186,0,0,0,2.806,1.286s1.989-.819,1.637-2.106-.935-3.508-3.157-2.923" transform="translate(-22.758 -69.338)" fill="#f1e9cc" fill-rule="evenodd"/>
    <path id="Trazado_720486" data-name="Trazado 720486" d="M183.924,509.687c1.053-1.287,3.041-1.872,3.742-.468s2.221,3.508.584,3.743-5.847-1.171-4.326-3.274" transform="translate(-24.646 -68.248)" fill="#f1e9cc" fill-rule="evenodd"/>
    <path id="Trazado_720487" data-name="Trazado 720487" d="M182.705,497.761c-1.169.818-2.922,1.4-1.637,2.1s2.456,2.808,3.391,1.286,2.1-2.222,1.287-3.04-2.34-1.637-3.041-.351" transform="translate(-24.246 -66.729)" fill="#f1e9cc" fill-rule="evenodd"/>
    <path id="Trazado_720488" data-name="Trazado 720488" d="M192.185,489.069c0,2.222,2.338,3.507,3.157,1.636s2.1-1.4,1.17-2.688-.351-3.158-1.989-2.339-3.04,1.988-2.338,3.391" transform="translate(-25.774 -65.17)" fill="#f1e9cc" fill-rule="evenodd"/>
    <path id="Trazado_720489" data-name="Trazado 720489" d="M247.589,499.819s-14.076,28.534-11.793,38.426,27.012,130.878,39.948,139.247,36.144,4.566,36.144,4.566h57.07s23.208,3.805,36.145-4.566,37.665-129.356,39.946-139.247-11.793-38.426-11.793-38.426c3.783,8.265,3.8,28.154-1.141,31.2-1.4.863-181.983.863-183.385,0-4.946-3.042-4.923-22.931-1.141-31.2" transform="translate(-31.619 -67.095)" fill="#956438" fill-rule="evenodd"/>
    <path id="Trazado_720490" data-name="Trazado 720490" d="M379.713,687.312h8.6s23.208,3.805,36.145-4.566c9.878-6.392,26.633-78.45,35.017-116.564-9.506,34.333-27.968,96.19-39.175,102.476-15.6,8.75,4.944-129.69-3.425-129.7s-36.14,137.689-36.14,140.351c0,.848-.539,4.013-1.019,8" transform="translate(-50.972 -72.349)" fill="#83552a" fill-rule="evenodd"/>
    <path id="Trazado_720491" data-name="Trazado 720491" d="M235.834,543.5c2.283,9.891,27.012,130.878,39.948,139.247s36.144,4.566,36.144,4.566h9.745c-.48-3.992-1.018-7.157-1.018-8,0-2.662-27.772-140.364-36.142-140.351s12.175,138.452-3.423,129.7S235.834,543.5,235.834,543.5" transform="translate(-31.658 -72.349)" fill="#83552a" fill-rule="evenodd"/>
    <path id="Trazado_720492" data-name="Trazado 720492" d="M291.64,536.454s25.876,155.084,29.3,156.987,9.89,3.043,12.934,4.564a31.376,31.376,0,0,0,29.17,0c3.043-1.521,9.509-2.662,12.934-4.564s29.3-156.987,29.3-156.987l-56.816.126Z" transform="translate(-39.149 -72.013)" fill="#a87348" fill-rule="evenodd"/>
    <path id="Trazado_720493" data-name="Trazado 720493" d="M291.64,536.454s.768,4.6,2.056,12.225c0,0,1.044-7.117,29.77-7.687s77.912-.869,79.951,6.509c1.165-6.906,1.857-11.046,1.857-11.046l-56.816.126Z" transform="translate(-39.149 -72.013)" fill="#906035" fill-rule="evenodd"/>
    <path id="Trazado_720494" data-name="Trazado 720494" d="M357.268,704.94a32.382,32.382,0,0,0,14.584-3.6c3.044-1.521,9.51-2.662,12.934-4.565.557-.31,1.712-4.7,3.252-11.8-.121.191-5.74,9.129-9.694,9.129-3.995,0,13.886-126.882,13.886-132.59s-19.023,115.469-20.544,128.8-14.418,14.626-14.418,14.626" transform="translate(-47.959 -75.351)" fill="#956438" fill-rule="evenodd"/>
    <path id="Trazado_720495" data-name="Trazado 720495" d="M321.075,684.973c1.54,7.1,2.7,11.5,3.253,11.806,3.423,1.9,9.89,3.043,12.934,4.564a32.388,32.388,0,0,0,14.585,3.6s-12.9-1.3-14.419-14.626-20.544-134.506-20.544-128.8S334.765,694.1,330.77,694.1c-3.976,0-9.64-9.043-9.695-9.13" transform="translate(-42.538 -75.351)" fill="#956438" fill-rule="evenodd"/>
    <path id="Trazado_720496" data-name="Trazado 720496" d="M248.152,547.683c1.141-1.332,29.675-2.285,31.007,1.711S286.2,656.3,282.582,656.681c-3.147.331-38.887-103.8-34.43-109" transform="translate(-33.26 -73.366)" fill="#a87348" fill-rule="evenodd"/>
    <path id="Trazado_720497" data-name="Trazado 720497" d="M463.385,547.683c-1.14-1.332-29.675-2.285-31.007,1.711s-7.036,106.906-3.422,107.287c3.148.331,38.887-103.8,34.43-109" transform="translate(-57.424 -73.366)" fill="#a87348" fill-rule="evenodd"/>
    <path id="Trazado_720498" data-name="Trazado 720498" d="M319.419,665.4s-18.887-109.743-19.655-112.024,5.195-7.059,15.658-7.059,35,.378,35.384,3.042,2.284,146.1-1.332,146.857-7.99-9.7-9.512-15.6-14.456-123.461-17.88-124.981-12.747-1.331-11.794,5.327,19.023,140.39,9.13,104.438" transform="translate(-40.231 -73.337)" fill="#b78050" fill-rule="evenodd"/>
    <path id="Trazado_720499" data-name="Trazado 720499" d="M12.044,499.819S-2.032,528.353.25,538.245,27.261,669.123,40.2,677.492s36.145,4.566,36.145,4.566h57.07s23.208,3.805,36.144-4.566S207.221,548.136,209.5,538.245s-11.793-38.426-11.793-38.426c3.783,8.265,3.8,28.154-1.141,31.2-1.4.863-181.982.863-183.385,0-4.946-3.042-4.923-22.931-1.141-31.2" transform="translate(0 -67.095)" fill="#956438" fill-rule="evenodd"/>
    <path id="Trazado_720500" data-name="Trazado 720500" d="M144.169,687.312h8.6s23.208,3.805,36.145-4.566c9.878-6.392,26.633-78.45,35.018-116.564-9.507,34.333-27.968,96.19-39.176,102.476-15.6,8.75,4.945-129.69-3.424-129.7s-36.142,137.689-36.142,140.351c0,.848-.538,4.013-1.017,8" transform="translate(-19.353 -72.349)" fill="#83552a" fill-rule="evenodd"/>
    <path id="Trazado_720501" data-name="Trazado 720501" d="M.289,543.5C2.571,553.39,27.3,674.377,40.237,682.746s36.145,4.566,36.145,4.566h9.744c-.48-3.992-1.018-7.157-1.018-8,0-2.662-27.772-140.364-36.141-140.351s12.174,138.452-3.424,129.7S.289,543.5.289,543.5" transform="translate(-0.039 -72.349)" fill="#83552a" fill-rule="evenodd"/>
    <path id="Trazado_720502" data-name="Trazado 720502" d="M56.1,536.454s25.876,155.084,29.3,156.987,9.89,3.043,12.934,4.564a31.376,31.376,0,0,0,29.17,0c3.043-1.521,9.51-2.662,12.934-4.564s29.3-156.987,29.3-156.987l-56.816.126Z" transform="translate(-7.53 -72.013)" fill="#a87348" fill-rule="evenodd"/>
    <path id="Trazado_720503" data-name="Trazado 720503" d="M56.1,536.454s.768,4.6,2.057,12.225c0,0,1.043-7.117,29.769-7.687s77.912-.869,79.952,6.509c1.164-6.906,1.855-11.046,1.855-11.046l-56.816.126Z" transform="translate(-7.53 -72.013)" fill="#906035" fill-rule="evenodd"/>
    <path id="Trazado_720504" data-name="Trazado 720504" d="M121.723,704.94a32.388,32.388,0,0,0,14.585-3.6c3.043-1.521,9.51-2.662,12.934-4.565.558-.31,1.712-4.7,3.252-11.8-.12.191-5.741,9.129-9.693,9.129-4,0,13.886-126.882,13.886-132.59s-19.023,115.469-20.544,128.8-14.419,14.626-14.419,14.626" transform="translate(-16.34 -75.351)" fill="#956438" fill-rule="evenodd"/>
    <path id="Trazado_720505" data-name="Trazado 720505" d="M85.53,684.973c1.54,7.1,2.7,11.5,3.253,11.806,3.423,1.9,9.89,3.043,12.934,4.564a32.382,32.382,0,0,0,14.585,3.6s-12.9-1.3-14.418-14.626-20.545-134.506-20.545-128.8S99.22,694.1,95.225,694.1c-3.976,0-9.64-9.043-9.695-9.13" transform="translate(-10.919 -75.351)" fill="#956438" fill-rule="evenodd"/>
    <path id="Trazado_720506" data-name="Trazado 720506" d="M12.607,547.683c1.141-1.332,29.676-2.285,31.007,1.711S50.652,656.3,47.038,656.681c-3.149.331-38.887-103.8-34.43-109" transform="translate(-1.641 -73.366)" fill="#a87348" fill-rule="evenodd"/>
    <path id="Trazado_720507" data-name="Trazado 720507" d="M227.84,547.683c-1.141-1.332-29.675-2.285-31.006,1.711S189.8,656.3,193.412,656.681c3.147.331,38.886-103.8,34.429-109" transform="translate(-25.805 -73.366)" fill="#a87348" fill-rule="evenodd"/>
    <path id="Trazado_720508" data-name="Trazado 720508" d="M83.874,665.4S64.987,555.661,64.22,553.379s5.194-7.059,15.658-7.059,35,.378,35.385,3.042,2.282,146.1-1.332,146.857-7.99-9.7-9.513-15.6S89.962,557.159,86.538,555.639s-12.746-1.331-11.794,5.327,19.023,140.39,9.13,104.438" transform="translate(-8.612 -73.337)" fill="#b78050" fill-rule="evenodd"/>
    <path id="Trazado_720509" data-name="Trazado 720509" d="M13.116,499.819s-2.1,23.389,6.27,24.53,54.975,1.332,88.075,1.9,287.072,0,287.072,0l-2.283,6.084s-376.294,2.282-380.669.951-5.706-23.208,1.536-33.469" transform="translate(-1.073 -67.095)" fill="#b78050" fill-rule="evenodd"/>
    <path id="Trazado_720510" data-name="Trazado 720510" d="M139.825,525.7s40.878-6.534,51.149-14.142c19-14.075,16.751-20.564,32.347-20.564,14.857,0,13.27,7.2,31.307,20.564,10.271,7.608,51.15,14.142,51.15,14.142-55.889.583-110.079.583-165.953,0" transform="translate(-18.77 -65.911)" fill="#a87348" fill-rule="evenodd"/>
    <path id="Trazado_720511" data-name="Trazado 720511" d="M671.566,499.819s14.076,28.534,11.793,38.426-27.011,130.878-39.947,139.247-36.144,4.566-36.144,4.566H550.2s-23.208,3.805-36.143-4.566-37.666-129.356-39.948-139.247S485.9,499.819,485.9,499.819c-3.782,8.265-3.8,28.154,1.141,31.2,1.4.863,181.982.863,183.385,0,4.946-3.042,4.924-22.931,1.141-31.2" transform="translate(-63.61 -67.095)" fill="#956438" fill-rule="evenodd"/>
    <path id="Trazado_720512" data-name="Trazado 720512" d="M559.6,687.312H551s-23.208,3.805-36.143-4.566c-9.878-6.392-26.633-78.45-35.019-116.564,9.507,34.333,27.969,96.19,39.177,102.476,15.6,8.75-4.945-129.69,3.424-129.7S558.58,676.645,558.58,679.307c0,.848.539,4.013,1.018,8" transform="translate(-64.413 -72.349)" fill="#83552a" fill-rule="evenodd"/>
    <path id="Trazado_720513" data-name="Trazado 720513" d="M702.535,543.5c-2.282,9.891-27.011,130.878-39.947,139.247s-36.144,4.566-36.144,4.566H616.7c.479-3.992,1.017-7.157,1.017-8,0-2.662,27.773-140.364,36.141-140.351s-12.174,138.452,3.425,129.7S702.535,543.5,702.535,543.5" transform="translate(-82.785 -72.349)" fill="#83552a" fill-rule="evenodd"/>
    <path id="Trazado_720514" data-name="Trazado 720514" d="M642.419,536.454s-25.874,155.084-29.3,156.987-9.89,3.043-12.934,4.564a31.375,31.375,0,0,1-29.169,0c-3.044-1.521-9.51-2.662-12.934-4.564s-29.3-156.987-29.3-156.987l56.816.126Z" transform="translate(-70.983 -72.013)" fill="#a87348" fill-rule="evenodd"/>
    <path id="Trazado_720515" data-name="Trazado 720515" d="M642.419,536.454s-.767,4.6-2.056,12.225c0,0-1.044-7.117-29.769-7.687s-77.913-.869-79.951,6.509c-1.166-6.906-1.857-11.046-1.857-11.046l56.816.126Z" transform="translate(-70.983 -72.013)" fill="#906035" fill-rule="evenodd"/>
    <path id="Trazado_720516" data-name="Trazado 720516" d="M588.99,704.94a32.382,32.382,0,0,1-14.584-3.6c-3.044-1.521-9.51-2.662-12.934-4.565-.558-.31-1.712-4.7-3.252-11.8.119.191,5.741,9.129,9.693,9.129,4,0-13.887-126.882-13.887-132.59s19.023,115.469,20.545,128.8S588.99,704.94,588.99,704.94" transform="translate(-74.372 -75.351)" fill="#956438" fill-rule="evenodd"/>
    <path id="Trazado_720517" data-name="Trazado 720517" d="M625.184,684.973c-1.541,7.1-2.7,11.5-3.254,11.806-3.423,1.9-9.889,3.043-12.933,4.564a32.4,32.4,0,0,1-14.586,3.6s12.9-1.3,14.418-14.626,20.545-134.506,20.545-128.8S611.493,694.1,615.489,694.1c3.975,0,9.638-9.043,9.695-9.13" transform="translate(-79.793 -75.351)" fill="#956438" fill-rule="evenodd"/>
    <path id="Trazado_720518" data-name="Trazado 720518" d="M697.944,547.683c-1.141-1.332-29.674-2.285-31.005,1.711S659.9,656.3,663.517,656.681c3.147.331,38.885-103.8,34.428-109" transform="translate(-88.911 -73.366)" fill="#a87348" fill-rule="evenodd"/>
    <path id="Trazado_720519" data-name="Trazado 720519" d="M482.712,547.683c1.141-1.332,29.675-2.285,31.007,1.711s7.036,106.906,3.422,107.287c-3.148.331-38.887-103.8-34.43-109" transform="translate(-64.747 -73.366)" fill="#a87348" fill-rule="evenodd"/>
    <path id="Trazado_720520" data-name="Trazado 720520" d="M624.206,665.4s18.887-109.743,19.654-112.024-5.195-7.059-15.657-7.059-35,.378-35.385,3.042-2.283,146.1,1.331,146.857,7.992-9.7,9.513-15.6,14.455-123.461,17.88-124.981,12.747-1.331,11.794,5.327-19.022,140.39-9.13,104.438" transform="translate(-79.466 -73.337)" fill="#b78050" fill-rule="evenodd"/>
    <path id="Trazado_720521" data-name="Trazado 720521" d="M663.85,499.819s2.1,23.389-6.269,24.53-54.976,1.332-88.076,1.9-153.132,0-153.132,0l2.284,6.084s242.354,2.282,246.729.951,5.708-23.208-1.536-33.469" transform="translate(-55.893 -67.095)" fill="#b78050" fill-rule="evenodd"/>
    <path id="Trazado_720522" data-name="Trazado 720522" d="M149.536,526.294s26.444.965,40.711-5.121c47.744-20.369,23.578-19.267,69.433,1.521,10.319,4.678,42.8,5.132,42.8,5.132Z" transform="translate(-20.074 -67.99)" fill="#956438" fill-rule="evenodd"/>
    <path id="Trazado_720523" data-name="Trazado 720523" d="M211.321,506.236s7.895-10.463,15.694-12.365,12.556-1.048,19.975,6.466,4.66,8.942,2.949,8.562-7.038-8.753-15.5-7.136-29.2,11.891-23.114,4.473" transform="translate(-28.22 -66.181)" fill="#bf8353" fill-rule="evenodd"/>
    <path id="Trazado_720524" data-name="Trazado 720524" d="M379.493,525.7s40.879-6.534,51.15-14.142c19-14.075,16.75-20.564,32.347-20.564,14.857,0,13.27,7.2,31.308,20.564,10.27,7.608,51.15,14.142,51.15,14.142-55.891.583-110.081.583-165.954,0" transform="translate(-50.943 -65.911)" fill="#a87348" fill-rule="evenodd"/>
    <path id="Trazado_720525" data-name="Trazado 720525" d="M389.2,526.294s26.444.965,40.712-5.121c47.743-20.369,23.577-19.267,69.433,1.521,10.318,4.678,42.8,5.132,42.8,5.132Z" transform="translate(-52.246 -67.99)" fill="#956438" fill-rule="evenodd"/>
    <path id="Trazado_720526" data-name="Trazado 720526" d="M450.99,506.236s7.895-10.463,15.694-12.365,12.555-1.048,19.974,6.466,4.661,8.942,2.95,8.562-7.039-8.753-15.5-7.136-29.2,11.891-23.113,4.473" transform="translate(-60.392 -66.181)" fill="#bf8353" fill-rule="evenodd"/>
    <path id="Trazado_720527" data-name="Trazado 720527" d="M256.915,538.16s11.167,23.894,19.884,23.527c7.969-.337,53.489-.059,61.259-.009l.532,0h.074l.532.006c7.769-.05,53.291-.337,61.259,0,8.717.367,19.884-23.527,19.884-23.527L339.2,536.622l-.575-.012-.576-.01Z" transform="translate(-34.488 -72.032)" fill="#d69766" fill-rule="evenodd"/>
    <path id="Trazado_720528" data-name="Trazado 720528" d="M256.915,538.351s11.167,23.894,19.884,23.527c7.969-.337,53.489-.059,61.259-.009l.532,0h.074l.532.006c7.769-.05,53.291-.337,61.259,0,8.717.367,19.884-23.527,19.884-23.527l-17.216-.326s-7.281,16.436-18.654,18.144-95.5,2.664-101.584,0-9.97-17.891-9.97-17.891l-1.506-.2Z" transform="translate(-34.488 -72.224)" fill="#ca9061" fill-rule="evenodd"/>
    <path id="Trazado_720529" data-name="Trazado 720529" d="M168.122,62.073H483.216a29.932,29.932,0,0,1,16.692,5.075c5.345-12.612,13.707-29.175,18.956-40.045h-389.7c5.516,11.42,14.465,29.127,19.745,41.93a30,30,0,0,1,19.216-6.96" transform="translate(-17.338 -3.638)" fill="#5f360c" fill-rule="evenodd"/>
    <path id="Trazado_720530" data-name="Trazado 720530" d="M75.86,250.384S74.34,63.2,76.622,61.673s3.234,1.332,3.615,21.117S76.809,260.079,75.86,250.384" transform="translate(-10.117 -8.232)" fill="#f6b888" fill-rule="evenodd"/>
    <path id="Trazado_720531" data-name="Trazado 720531" d="M633.625,250.384s1.521-187.188-.762-188.711-3.233,1.332-3.614,21.117,3.427,177.289,4.375,167.594" transform="translate(-84.466 -8.232)" fill="#f6b888" fill-rule="evenodd"/>
    <path id="Trazado_720532" data-name="Trazado 720532" d="M513.107,18.568s-377.134-1.52-380.2.762,2.684,3.234,42.543,3.615,357.191-3.428,337.657-4.376" transform="translate(-17.747 -2.426)" fill="#f6b888" fill-rule="evenodd"/>
  </g>
</svg>
