<svg xmlns="http://www.w3.org/2000/svg" xmlns:xlink="http://www.w3.org/1999/xlink" width="140" height="156.351" viewBox="0 0 140 156.351">
  <defs>
    <clipPath id="clip-path">
      <rect id="Rectángulo_344552" data-name="Rectángulo 344552" width="111" height="150.37" fill="none"/>
    </clipPath>
  </defs>
  <g id="Grupo_983953" data-name="Grupo 983953" transform="translate(-8571 11012)">
    <circle id="Elipse_5874" data-name="Elipse 5874" cx="70" cy="70" r="70" transform="translate(8571 -11012)" fill="#b20d0d"/>
    <g id="Grupo_983820" data-name="Grupo 983820" transform="translate(8585.567 -11006.02)">
      <g id="Grupo_983819" data-name="Grupo 983819" clip-path="url(#clip-path)">
        <path id="Trazado_719250" data-name="Trazado 719250" d="M338.559,243.739c7.82,9.1,10.64,13.075,10.64,13.075,9.614,13.588-15.511,12.178-15.511,12.178l-1.41-9.486-4.358-3.974Z" transform="translate(-240.391 -178.68)" fill="#fcaa97"/>
        <path id="Trazado_719251" data-name="Trazado 719251" d="M12.28,250.943c-4.615,4.871-10.512,11.794-10.512,11.794-7.82,12.05,12.819,10.9,12.819,10.9l7.563-13.588Z" transform="translate(0 -183.961)" fill="#fcaa97"/>
        <path id="Trazado_719252" data-name="Trazado 719252" d="M156.957,127.037l-.889,5.725a2.626,2.626,0,0,1-1.941,2.141l-6.785,1.748L164.905,159.6l13.2-23.715-3.971-.924a2.115,2.115,0,0,1-1.632-1.938l-.294-5.086Z" transform="translate(-108.014 -93.128)" fill="#fcaa97"/>
        <path id="Trazado_719253" data-name="Trazado 719253" d="M200.326,137.129a2.114,2.114,0,0,1-1.064-1.714l-.294-5.086-.427-.025-14.7,2.209c5.538,11.072,14.02,6.326,16.484,4.616" transform="translate(-134.771 -95.523)" fill="#c77f6d"/>
        <path id="Trazado_719254" data-name="Trazado 719254" d="M72.875,153.451c1.282,8.2,9.614,16.28,9.614,16.28,8.461-7.948,9.358-15.9,9.358-15.9a165.9,165.9,0,0,1,17.69,5.256c11.794,11.281,17.562,20.126,17.562,20.126A46.407,46.407,0,0,1,114.28,191.4l-6.025-5,2.051,49.1H53.262l2.051-46.148-5.384,3.846c-8.076-4.486-14.486-13.075-14.486-13.075,3.974-5.9,20.639-22.3,20.639-22.3,4.487-2.436,16.793-4.359,16.793-4.359" transform="translate(-25.983 -112.492)" fill="#73c0e6"/>
        <path id="Trazado_719255" data-name="Trazado 719255" d="M154.033,26.148a2.792,2.792,0,0,1-.692-.989l-1.868-3.721a7.412,7.412,0,0,1-.858-2.336,7.648,7.648,0,0,1,.347-2.815l1.569-6.208a4.451,4.451,0,0,1,.841-1.946,8.833,8.833,0,0,1,2.115-1.272c1.583-.986,2.331-3.051,3.889-4.081a7.664,7.664,0,0,1,2.313-.894L167.566.324a4.769,4.769,0,0,1,2.863-.159c.528.2.975.577,1.49.807,1.838.819,4.064-.418,5.935.315,1.981.776,2.747,3.405,4.595,4.481.916.533,2.06.657,2.817,1.417,1.533,1.536.449,4.309,1.065,6.446.392,1.359,1.5,2.5,1.453,3.927-.042,1.405-1.186,2.5-1.607,3.837-.463,1.47.132,1.871-.695,3.156a15.109,15.109,0,0,1-4.359,3.974c-1.168.572-1.627,1-2.823,1.507a10.4,10.4,0,0,1-4.865.4l-11.526-.879c-1.506-.115-3.375-.235-4.539-1.37-.469-.457-.479-.957-1.088-1.344-.667-.424-1.585-.174-2.251-.694" transform="translate(-110.389 0)" fill="#87cbed"/>
        <path id="Trazado_719256" data-name="Trazado 719256" d="M189.4,49.125a1.6,1.6,0,0,0-.859-.112c1.391-8.737-2.507-16.282-10.533-16.851-8.724-.618-12.738,5.84-12.959,14.706a1.63,1.63,0,0,0-1.255-.306c-1.208.251-1.844,2.107-1.421,4.146s1.746,3.488,2.954,3.237a1.358,1.358,0,0,0,.351-.127c1.54,7.23,5.63,12.576,9.664,12.8,4.4.246,8.581-4.3,11.158-10.541,1.177.39,2.734-.718,3.54-2.556.837-1.907.55-3.876-.641-4.4" transform="translate(-118.939 -23.547)" fill="#fcaa97"/>
        <path id="Trazado_719257" data-name="Trazado 719257" d="M212.916,112.533a.153.153,0,0,1-.033,0,.137.137,0,0,1-.1-.165,8.261,8.261,0,0,0,.231-1.777.136.136,0,0,1,.273-.01,8.378,8.378,0,0,1-.239,1.852.136.136,0,0,1-.132.1" transform="translate(-155.984 -80.965)" fill="#382118"/>
        <path id="Trazado_719258" data-name="Trazado 719258" d="M211.194,123.568a2.2,2.2,0,0,1-1.393-.482.136.136,0,1,1,.169-.214,2.21,2.21,0,0,0,2.287.178.136.136,0,0,1,.127.242,2.784,2.784,0,0,1-1.19.275" transform="translate(-153.763 -90.054)" fill="#382118"/>
        <path id="Trazado_719259" data-name="Trazado 719259" d="M167.276,97.759a.136.136,0,0,1-.09-.034,2.15,2.15,0,0,1-.342-2.536.136.136,0,0,1,.249.113,1.873,1.873,0,0,0,.273,2.218.136.136,0,0,1-.09.239" transform="translate(-122.125 -69.722)" fill="#382118"/>
        <path id="Trazado_719260" data-name="Trazado 719260" d="M258.5,107.1a.136.136,0,0,1-.06-.259,1.973,1.973,0,0,0,.927-2.041.136.136,0,0,1,.271-.026,2.276,2.276,0,0,1-1.078,2.313.139.139,0,0,1-.06.014" transform="translate(-189.402 -76.714)" fill="#382118"/>
        <path id="Trazado_719261" data-name="Trazado 719261" d="M239.346,89.5c-.183.283-1.086.027-2.017-.572s-1.539-1.315-1.357-1.6,1.085-.027,2.017.572,1.539,1.315,1.357,1.6" transform="translate(-172.962 -63.939)" fill="#943c26"/>
        <path id="Trazado_719262" data-name="Trazado 719262" d="M187.883,86.265c.1.32,1.042.3,2.1-.039s1.823-.879,1.719-1.2-1.042-.3-2.1.039-1.824.879-1.719,1.2" transform="translate(-137.726 -62.163)" fill="#943c26"/>
        <path id="Trazado_719263" data-name="Trazado 719263" d="M202.784,133.328a44.609,44.609,0,0,0,5.645.505c-3.119,2.967-5.645-.505-5.645-.505" transform="translate(-148.657 -97.74)" fill="#fff"/>
        <path id="Trazado_719264" data-name="Trazado 719264" d="M237.506,116.054c-.078.6-.981.98-2.016.846s-1.812-.731-1.734-1.332.981-.98,2.016-.846,1.812.73,1.734,1.332" transform="translate(-171.358 -84.081)" fill="#ff8382"/>
        <path id="Trazado_719265" data-name="Trazado 719265" d="M184.179,110.528c-.078.6.7,1.2,1.734,1.332s1.938-.244,2.016-.846-.7-1.2-1.734-1.332-1.938.244-2.016.846" transform="translate(-135.014 -80.386)" fill="#ff8382"/>
        <path id="Trazado_719266" data-name="Trazado 719266" d="M203.512,61.818a14.31,14.31,0,0,1-3.27-2.049c-.5-.407-.976-.84-1.438-1.291s-.954-.885-1.453-1.3c-.728-.609-1.476-1.188-2.212-1.777a22.325,22.325,0,0,1,4.5,3.466c4.615,4.1,11.011,4.047,11.011,4.047-.938-11.146-17.651-8.5-17.651-8.5a11.953,11.953,0,0,1,1.193.5l-.086.1c1.017.81,2.071,1.565,3.079,2.371q.758.6,1.469,1.257c.474.443.966.871,1.48,1.27a14.465,14.465,0,0,0,3.345,1.993,14.274,14.274,0,0,0,3.768.948,14.228,14.228,0,0,1-3.733-1.029" transform="translate(-141.482 -39.686)" fill="#943c26"/>
        <path id="Trazado_719267" data-name="Trazado 719267" d="M172.394,42.839c1.423-3.962,5.2-7.726,12.4-6.854,9.871,1.195,11.185,9.033,11.185,9.033.844-6.448,2.225-16.644-9.724-18.008-16.437-1.877-13.863,15.829-13.863,15.829" transform="translate(-126.271 -19.698)" fill="#87cbed"/>
        <path id="Trazado_719268" data-name="Trazado 719268" d="M172.745,66.387a6.821,6.821,0,0,1,.442-1.934,8.18,8.18,0,0,1,.938-1.778,8.394,8.394,0,0,1,1.363-1.5,8.831,8.831,0,0,1,1.692-1.142,11.6,11.6,0,0,1,3.881-1.181,18.533,18.533,0,0,1,4.027-.059,17.811,17.811,0,0,1,2,.283,14.284,14.284,0,0,1,1.957.548,11.44,11.44,0,0,1,3.524,2.014,10.74,10.74,0,0,1,1.421,1.45,10.836,10.836,0,0,1,1.891,3.525,8.781,8.781,0,0,1,.4,1.942,8.732,8.732,0,0,0-.284-.941q-.163-.462-.365-.906A11.86,11.86,0,0,0,194.7,65a11.144,11.144,0,0,0-2.6-2.788,11.8,11.8,0,0,0-3.357-1.741A14.025,14.025,0,0,0,186.9,60a17.448,17.448,0,0,0-1.9-.258,19.8,19.8,0,0,0-3.835,0,12.013,12.013,0,0,0-3.663.95,8.523,8.523,0,0,0-3.012,2.265,8.378,8.378,0,0,0-1.067,1.6,8.157,8.157,0,0,0-.4.89,6.533,6.533,0,0,0-.287.938" transform="translate(-126.636 -43.037)" fill="#4d99bf"/>
        <path id="Trazado_719269" data-name="Trazado 719269" d="M236.674,103a4.344,4.344,0,0,1-2.373-.715.136.136,0,1,1,.148-.229,3.972,3.972,0,0,0,3.339.5.136.136,0,0,1,.1.255,3.626,3.626,0,0,1-1.211.19" transform="translate(-171.715 -74.798)" fill="#382118"/>
        <path id="Trazado_719270" data-name="Trazado 719270" d="M237.323,104.45a.882.882,0,0,0-.089.322.9.9,0,0,0,1.789.136.865.865,0,0,0,0-.132c-.787-.193-1.043-.193-1.7-.325" transform="translate(-173.909 -76.57)" fill="#382118"/>
        <path id="Trazado_719271" data-name="Trazado 719271" d="M190.94,98.523a3.838,3.838,0,0,1-2.274-.568.136.136,0,0,1,.167-.215c.011.008,1.146.85,3.611.349a.136.136,0,0,1,.054.267,7.822,7.822,0,0,1-1.559.167" transform="translate(-138.269 -71.629)" fill="#382118"/>
        <path id="Trazado_719272" data-name="Trazado 719272" d="M194.228,100.194a.886.886,0,0,1,.006.334.893.893,0,1,1-1.759-.316.855.855,0,0,1,.034-.127,5.33,5.33,0,0,0,1.719.11" transform="translate(-141.089 -73.37)" fill="#382118"/>
        <path id="Trazado_719273" data-name="Trazado 719273" d="M108.067,259.33h-.011a.137.137,0,0,1-.125-.147c0-.049.386-4.96.512-12.939a.136.136,0,0,1,.136-.134h0a.136.136,0,0,1,.134.139c-.127,7.988-.509,12.907-.513,12.956a.136.136,0,0,1-.136.126" transform="translate(-79.122 -180.418)" fill="#382118"/>
        <path id="Trazado_719274" data-name="Trazado 719274" d="M307.4,252.345a.137.137,0,0,1-.135-.12,78.41,78.41,0,0,1-.129-8.864.132.132,0,0,1,.139-.134.137.137,0,0,1,.134.139,78.068,78.068,0,0,0,.127,8.826.136.136,0,0,1-.119.152H307.4" transform="translate(-225.132 -178.305)" fill="#382118"/>
        <path id="Trazado_719275" data-name="Trazado 719275" d="M210.463,227.55a1.3,1.3,0,1,1-1.3-1.3,1.3,1.3,0,0,1,1.3,1.3" transform="translate(-152.374 -165.856)" fill="#4d99bf"/>
        <path id="Trazado_719276" data-name="Trazado 719276" d="M209.5,294.306a1.3,1.3,0,1,1-1.3-1.3,1.3,1.3,0,0,1,1.3,1.3" transform="translate(-151.67 -214.794)" fill="#4d99bf"/>
        <path id="Trazado_719277" data-name="Trazado 719277" d="M210.943,355.779a1.3,1.3,0,1,1-1.3-1.3,1.3,1.3,0,0,1,1.3,1.3" transform="translate(-152.726 -259.858)" fill="#4d99bf"/>
        <path id="Trazado_719278" data-name="Trazado 719278" d="M184.023,169.993l-.219-.18a31.968,31.968,0,0,1-9.626-16.511l.8-.17a31.184,31.184,0,0,0,9.13,15.861c5.662-3.537,9.014-15.38,9.047-15.5l.788.219c-.143.514-3.576,12.636-9.677,16.141Z" transform="translate(-127.686 -112.258)" fill="#4d99bf"/>
        <path id="Trazado_719279" data-name="Trazado 719279" d="M201.236,263.558a.136.136,0,0,1-.136-.136V216.313l2.74-2.348a.136.136,0,0,1,.178.207l-2.644,2.267v46.983a.136.136,0,0,1-.136.136" transform="translate(-147.422 -156.829)" fill="#382118"/>
        <path id="Trazado_719280" data-name="Trazado 719280" d="M330.424,261.785l-.431-.7c5.268-3.261,12.647-12.006,12.721-12.093l.627.527c-.305.363-7.539,8.934-12.917,12.263" transform="translate(-241.911 -182.534)" fill="#4d99bf"/>
        <path id="Trazado_719281" data-name="Trazado 719281" d="M45.067,263.827A64.615,64.615,0,0,1,34.21,252.92l.658-.487a63.717,63.717,0,0,0,10.7,10.745Z" transform="translate(-25.079 -185.053)" fill="#4d99bf"/>
        <path id="Trazado_719282" data-name="Trazado 719282" d="M258.981,308.776c-.756,3.465.572,6.7,2.968,7.222s4.951-1.862,5.708-5.328-.572-6.7-2.968-7.222-4.951,1.863-5.708,5.328" transform="translate(-189.698 -222.398)" fill="#fff"/>
        <path id="Trazado_719283" data-name="Trazado 719283" d="M107.529,319.053c0,3.547,1.988,6.423,4.44,6.423s4.44-2.876,4.44-6.423-1.988-6.423-4.44-6.423-4.44,2.876-4.44,6.423" transform="translate(-78.827 -229.183)" fill="#fff"/>
        <path id="Trazado_719284" data-name="Trazado 719284" d="M325.171,464.762a.137.137,0,0,1-.115-.21c.31-.487.609-.993.9-1.484.4-.684.82-1.39,1.276-2.059a.136.136,0,1,1,.225.154c-.451.662-.866,1.365-1.267,2.044-.29.492-.59,1-.9,1.492a.136.136,0,0,1-.115.063" transform="translate(-238.276 -337.913)" fill="#382118"/>
        <path id="Trazado_719285" data-name="Trazado 719285" d="M341.472,295.179a.136.136,0,0,1-.057-.26,59.029,59.029,0,0,1,9.388-2.7.136.136,0,0,1,.055.267,58.754,58.754,0,0,0-9.328,2.683.141.141,0,0,1-.057.012" transform="translate(-250.226 -214.216)" fill="#382118"/>
        <path id="Trazado_719286" data-name="Trazado 719286" d="M295.3,292.635l-4.871,1.666a7.4,7.4,0,0,0-7.435-2.948,16.441,16.441,0,0,0-5.659,3.467,1.223,1.223,0,0,0,1.149,2.071,14.742,14.742,0,0,0,4.125-1.693,3.632,3.632,0,0,1,2.948,0,30.258,30.258,0,0,0-7.46,4.6,1.216,1.216,0,0,0,1.079,2.11c3.237-.811,8.3-2.606,8.3-2.606-1.8,1.8-6.563,3.6-8.572,4.3a1.269,1.269,0,0,0,.039,2.407,7.154,7.154,0,0,0,.841.211c-1.795,1.154.128,1.795.128,1.795,4.871,1.41,11.409-3.077,11.409-3.077l6.538-.257c-.385-10.383-2.564-12.05-2.564-12.05" transform="translate(-203.027 -213.476)" fill="#99d3f0"/>
        <path id="Trazado_719287" data-name="Trazado 719287" d="M287.3,341.31a.1.1,0,0,1-.009-.2,32.743,32.743,0,0,0,8.558-2.172.1.1,0,0,1,.08.188,33,33,0,0,1-8.62,2.187H287.3" transform="translate(-210.536 -248.46)" fill="#382118"/>
        <path id="Trazado_719288" data-name="Trazado 719288" d="M328.311,311.733a.1.1,0,0,1-.089-.152c.016-.029,1.6-2.985-1.158-9.009a.1.1,0,1,1,.186-.085c2.81,6.13,1.219,9.072,1.15,9.194a.1.1,0,0,1-.089.052" transform="translate(-239.757 -221.703)" fill="#382118"/>
        <path id="Trazado_719289" data-name="Trazado 719289" d="M44.9,288.943c-.53,0-2.411-.206-5.59-2.728a.136.136,0,0,1,.169-.214c3.63,2.879,5.519,2.666,5.538,2.664a.137.137,0,0,1,.036.271,1.229,1.229,0,0,1-.153.007" transform="translate(-28.776 -209.64)" fill="#382118"/>
        <path id="Trazado_719290" data-name="Trazado 719290" d="M49.092,285.8a9.649,9.649,0,0,0,3.718-.128,15.083,15.083,0,0,1,2.58-2.6,3.22,3.22,0,0,1,3.371-.341c5.122,2.524,8.406,8.455,8.406,8.455,1.026,3.2-2.179,2.692-2.179,2.692.345.653.6,1.156.784,1.54a1.806,1.806,0,0,1-2.423,2.407c-.867-.424-1.517-.837-1.517-.837.581.743,1.271,1.635,1.734,2.235a1.416,1.416,0,0,1-1.324,2.267,7.354,7.354,0,0,1-2.254-.69c-.769,2.051-7.05-3.077-7.05-3.077-1.923-1.666-6.281,0-6.281,0-4.487-6.794,2.436-11.922,2.436-11.922" transform="translate(-33.094 -207.023)" fill="#99d3f0"/>
        <path id="Trazado_719291" data-name="Trazado 719291" d="M98.435,305.489a.1.1,0,0,1-.087-.049c-1.385-2.265-7.478-7.1-7.54-7.152a.1.1,0,0,1,.127-.16c.252.2,6.184,4.909,7.587,7.206a.1.1,0,0,1-.087.156" transform="translate(-66.541 -218.535)" fill="#382118"/>
        <path id="Trazado_719292" data-name="Trazado 719292" d="M90.653,321.592a.1.1,0,0,1-.08-.038,55.825,55.825,0,0,0-6.009-5.5.1.1,0,1,1,.128-.16,55.986,55.986,0,0,1,6.041,5.528.1.1,0,0,1-.08.166" transform="translate(-61.964 -231.562)" fill="#382118"/>
        <path id="Trazado_719293" data-name="Trazado 719293" d="M84.634,337.056a.1.1,0,0,1-.064-.022c-2.538-2.03-5.743-5.1-5.775-5.134a.1.1,0,0,1,.142-.148c.032.031,3.231,3.1,5.762,5.121a.1.1,0,0,1-.064.182" transform="translate(-57.739 -243.18)" fill="#382118"/>
        <path id="Trazado_719294" data-name="Trazado 719294" d="M64.359,330.7a.1.1,0,0,1-.054-.015,6.788,6.788,0,0,1-2.342-2.661.1.1,0,0,1,.186-.086,6.694,6.694,0,0,0,2.264,2.572.1.1,0,0,1-.054.189" transform="translate(-45.417 -240.363)" fill="#382118"/>
        <path id="Trazado_719295" data-name="Trazado 719295" d="M154.813,471.932l-2.793-23.19h-.85l-.728,1.821-4.128.121-2.064-3.4-2.307.121-1.457,2.793h-4.492l-1.943-3.278-2.914.121-1.578,3.157h-4.007l-1.821-3.035-2.793.121-1.541,2.786-5.258-.115-1.7-3.278-2.671.121-1.7,3.035-4.007.121-1.7-2.914H99.57l-1.942,3.4-2.671.243-1.7-2.307c-.607,4.856-3.489,23.5-3.489,23.5Z" transform="translate(-65.807 -327.45)" fill="#deb08e"/>
        <path id="Trazado_719296" data-name="Trazado 719296" d="M90.148,514.451c0,3.6,2.087,6.526,4.661,6.526s4.661-2.922,4.661-6.526-2.087-6.526-4.661-6.526-4.661,2.922-4.661,6.526" transform="translate(-66.086 -372.349)" fill="#fff"/>
        <path id="Trazado_719297" data-name="Trazado 719297" d="M130.657,516.214c0,3.6,2.087,6.526,4.661,6.526s4.661-2.922,4.661-6.526-2.087-6.526-4.661-6.526-4.661,2.922-4.661,6.526" transform="translate(-95.782 -373.641)" fill="#fff"/>
        <path id="Trazado_719298" data-name="Trazado 719298" d="M172.531,516.654c0,3.6,2.087,6.526,4.661,6.526s4.661-2.922,4.661-6.526-2.087-6.526-4.661-6.526-4.661,2.922-4.661,6.526" transform="translate(-126.479 -373.964)" fill="#fff"/>
        <path id="Trazado_719299" data-name="Trazado 719299" d="M212.559,518.018c0,3.6,2.087,6.526,4.661,6.526s4.662-2.922,4.662-6.526-2.087-6.526-4.662-6.526-4.661,2.922-4.661,6.526" transform="translate(-155.823 -374.964)" fill="#fff"/>
        <path id="Trazado_719300" data-name="Trazado 719300" d="M255.316,515.744c0,3.6,2.087,6.526,4.661,6.526s4.661-2.922,4.661-6.526-2.087-6.527-4.661-6.527-4.661,2.922-4.661,6.527" transform="translate(-187.167 -373.297)" fill="#fff"/>
        <path id="Trazado_719301" data-name="Trazado 719301" d="M296.254,515.289c0,3.6,2.087,6.526,4.661,6.526s4.661-2.922,4.661-6.526-2.087-6.526-4.661-6.526-4.661,2.922-4.661,6.526" transform="translate(-217.178 -372.964)" fill="#fff"/>
        <path id="Trazado_719302" data-name="Trazado 719302" d="M153.952,540.85l-2.963,4.821a2.114,2.114,0,0,1-1.8,1.007h-1.27a2.114,2.114,0,0,1-1.808-1.018l-1.669-2.754a1.621,1.621,0,0,0-2.756-.026l-1.742,2.754a2.114,2.114,0,0,1-1.786.984H136.9a2.114,2.114,0,0,1-1.834-1.063l-1.606-2.8a1.621,1.621,0,0,0-2.793-.034l-1.782,2.942a2.114,2.114,0,0,1-1.808,1.018h-1.261a2.113,2.113,0,0,1-1.808-1.018l-1.669-2.754a1.621,1.621,0,0,0-2.756-.026l-1.742,2.754a2.114,2.114,0,0,1-1.786.984H114.8a2.113,2.113,0,0,1-1.825-1.048l-1.563-2.676a1.621,1.621,0,0,0-2.8.006l-1.575,2.723a2.113,2.113,0,0,1-1.829,1.055h-1.233a2.113,2.113,0,0,1-1.808-1.018l-1.669-2.754a1.621,1.621,0,0,0-2.756-.026l-1.742,2.754a2.114,2.114,0,0,1-1.786.984H93.059a2.27,2.27,0,0,1-1.98-1.16l-2.567-4.85Z" transform="translate(-64.886 -396.308)" fill="#deb08e"/>
        <path id="Trazado_719303" data-name="Trazado 719303" d="M154.813,431.9l-2.793-23.19h-.85l-.728,1.821-4.128.121-2.064-3.4-2.307.121-1.457,2.793h-4.492l-1.943-3.278-2.914.121-1.578,3.157h-4.007l-1.821-3.035-2.793.121-1.541,2.786-5.258-.115-1.7-3.278-2.671.121-1.7,3.035-4.007.121-1.7-2.914H99.57l-1.942,3.4-2.671.243-1.7-2.307c-.607,4.856-3.489,23.5-3.489,23.5Z" transform="translate(-65.807 -298.107)" fill="#deb08e"/>
        <path id="Trazado_719304" data-name="Trazado 719304" d="M90.148,474.423c0,3.6,2.087,6.526,4.661,6.526s4.661-2.922,4.661-6.526-2.087-6.526-4.661-6.526-4.661,2.922-4.661,6.526" transform="translate(-66.086 -343.006)" fill="#fff"/>
        <path id="Trazado_719305" data-name="Trazado 719305" d="M130.657,476.185c0,3.6,2.087,6.526,4.661,6.526s4.661-2.922,4.661-6.526-2.087-6.526-4.661-6.526-4.661,2.922-4.661,6.526" transform="translate(-95.782 -344.297)" fill="#fff"/>
        <path id="Trazado_719306" data-name="Trazado 719306" d="M172.531,476.625c0,3.6,2.087,6.526,4.661,6.526s4.661-2.922,4.661-6.526-2.087-6.526-4.661-6.526-4.661,2.922-4.661,6.526" transform="translate(-126.479 -344.62)" fill="#fff"/>
        <path id="Trazado_719307" data-name="Trazado 719307" d="M212.559,477.99c0,3.6,2.087,6.526,4.661,6.526s4.662-2.922,4.662-6.526-2.087-6.526-4.662-6.526-4.661,2.922-4.661,6.526" transform="translate(-155.823 -345.621)" fill="#fff"/>
        <path id="Trazado_719308" data-name="Trazado 719308" d="M255.316,475.716c0,3.6,2.087,6.526,4.661,6.526s4.661-2.922,4.661-6.526-2.087-6.526-4.661-6.526-4.661,2.922-4.661,6.526" transform="translate(-187.167 -343.954)" fill="#fff"/>
        <path id="Trazado_719309" data-name="Trazado 719309" d="M296.254,475.262c0,3.6,2.087,6.526,4.661,6.526s4.661-2.922,4.661-6.526-2.087-6.527-4.661-6.527-4.661,2.922-4.661,6.527" transform="translate(-217.178 -343.62)" fill="#fff"/>
        <path id="Trazado_719310" data-name="Trazado 719310" d="M153.952,500.822l-2.963,4.821a2.114,2.114,0,0,1-1.8,1.007h-1.27a2.114,2.114,0,0,1-1.808-1.018l-1.669-2.754a1.621,1.621,0,0,0-2.756-.026l-1.742,2.754a2.114,2.114,0,0,1-1.786.984H136.9a2.114,2.114,0,0,1-1.834-1.063l-1.606-2.8a1.621,1.621,0,0,0-2.793-.034l-1.782,2.942a2.114,2.114,0,0,1-1.808,1.018h-1.261a2.114,2.114,0,0,1-1.808-1.018l-1.669-2.754a1.621,1.621,0,0,0-2.756-.026l-1.742,2.754a2.114,2.114,0,0,1-1.786.984H114.8a2.113,2.113,0,0,1-1.825-1.048l-1.563-2.676a1.621,1.621,0,0,0-2.8.006l-1.575,2.723a2.114,2.114,0,0,1-1.829,1.055h-1.233a2.114,2.114,0,0,1-1.808-1.018l-1.669-2.754a1.621,1.621,0,0,0-2.756-.026l-1.742,2.754a2.114,2.114,0,0,1-1.786.984H93.059a2.27,2.27,0,0,1-1.98-1.16l-2.567-4.85Z" transform="translate(-64.886 -366.964)" fill="#deb08e"/>
        <path id="Trazado_719311" data-name="Trazado 719311" d="M154.813,391.876l-2.793-23.19h-.85l-.728,1.821-4.128.121-2.064-3.4-2.307.121-1.457,2.793h-4.492l-1.943-3.278-2.914.121-1.578,3.157h-4.007l-1.821-3.035-2.793.121-1.541,2.786-5.258-.115-1.7-3.278-2.671.121-1.7,3.035-4.007.121-1.7-2.914H99.57l-1.942,3.4-2.671.243-1.7-2.307c-.607,4.856-3.489,23.5-3.489,23.5Z" transform="translate(-65.807 -268.763)" fill="#deb08e"/>
        <path id="Trazado_719312" data-name="Trazado 719312" d="M163.066,382.39c-.4,0-.795-.017-1.167-.051l-.06-.005-.036-.049a14.7,14.7,0,0,1-.913-1.444,12.121,12.121,0,0,0-1.213-1.827,4.362,4.362,0,0,1-.947-.052c-.759-.1-1.235-.121-1.436.346l-.012.022a20.73,20.73,0,0,0-1.273,2.293l-.027.054-.059.016a6.945,6.945,0,0,1-2.166.133,7.467,7.467,0,0,0-2.2.124l-.033,0a1.123,1.123,0,0,1-.737-.3l-.013-.015a8.448,8.448,0,0,1-.745-1.273,4.818,4.818,0,0,0-1.243-1.749,22.6,22.6,0,0,0-2.813.118c-.5.991-1.009,2.013-1.64,3.022l-.019.024a.6.6,0,0,1-.481.168h-.015a14.4,14.4,0,0,0-3.3,0H140.5a1.123,1.123,0,0,1-.737-.3l-.016-.016-.01-.02a14.866,14.866,0,0,0-.826-1.4,15.64,15.64,0,0,1-.8-1.348c-.234,0-.461-.009-.682-.016a7.575,7.575,0,0,0-2.107.13,14.042,14.042,0,0,0-1.3,2.062c-.108.2-.215.388-.322.576l-.039.069h-.079c-.444,0-.905.008-1.352.016a26.613,26.613,0,0,1-4.179-.145l-.056-.008-.034-.045a16.419,16.419,0,0,1-1.554-2.711c-.073-.148-.145-.295-.216-.439-.133,0-.268-.008-.41-.015a3.644,3.644,0,0,0-1.506.134l-.057.023-.055-.027c-.586-.293-.856.123-1.232.843a4.308,4.308,0,0,1-.386.647c-.128.254-.257.48-.382.7s-.255.445-.381.7l-.026.053-.056.017a6.293,6.293,0,0,1-2.067.177,7.264,7.264,0,0,0-1.663.082l-.027,0a1.124,1.124,0,0,1-.738-.3,5.591,5.591,0,0,1-.979-1.527,6.243,6.243,0,0,0-.662-1.134,6.046,6.046,0,0,0-1.028-.015,4.546,4.546,0,0,1-1.483-.1.325.325,0,0,0-.259.078c-.138.22-.276.435-.413.648a17.373,17.373,0,0,0-1.364,2.4l-.01.023-.018.018a.659.659,0,0,0-.074.093.494.494,0,0,1-.371.24.135.135,0,0,1-.156-.113.136.136,0,0,1,.113-.156.229.229,0,0,0,.191-.127.958.958,0,0,1,.086-.11,17.764,17.764,0,0,1,1.374-2.412c.139-.216.279-.435.42-.659l.019-.024a.6.6,0,0,1,.481-.168l.037.005a4.236,4.236,0,0,0,1.415.1,5.923,5.923,0,0,1,1.13.025l.052.007.034.04a6.247,6.247,0,0,1,.731,1.228,5.383,5.383,0,0,0,.928,1.455.842.842,0,0,0,.532.216,7.547,7.547,0,0,1,1.71-.084,6.14,6.14,0,0,0,1.925-.15c.121-.238.243-.452.361-.659s.254-.445.381-.7l.015-.024a3.908,3.908,0,0,0,.366-.614c.318-.608.711-1.362,1.541-.987a4.06,4.06,0,0,1,1.563-.132c.169.008.329.015.482.015h.084l.038.075c.084.169.169.342.254.516a16.531,16.531,0,0,0,1.493,2.622,26.834,26.834,0,0,0,4.08.135c.421-.008.856-.015,1.277-.016.094-.165.187-.334.282-.5a13.933,13.933,0,0,1,1.359-2.139l.029-.034.044-.011a7.659,7.659,0,0,1,2.225-.149c.245.008.5.016.757.016h.084l.038.076a14.89,14.89,0,0,0,.826,1.4,15.223,15.223,0,0,1,.83,1.4.849.849,0,0,0,.522.2,14.626,14.626,0,0,1,3.347,0,.339.339,0,0,0,.27-.078c.633-1.015,1.151-2.05,1.651-3.051l.033-.065.072-.009a22.755,22.755,0,0,1,2.965-.129h.046l.036.027a5,5,0,0,1,1.358,1.871,8.355,8.355,0,0,0,.714,1.224.847.847,0,0,0,.522.21,7.731,7.731,0,0,1,2.256-.128,6.82,6.82,0,0,0,2.024-.108,20.545,20.545,0,0,1,1.256-2.257c.3-.678,1.051-.582,1.716-.5a3.78,3.78,0,0,0,.949.044l.073-.01.049.056a11.922,11.922,0,0,1,1.29,1.924,14.824,14.824,0,0,0,.859,1.368,16.494,16.494,0,0,0,4.261-.26l.024,0a.485.485,0,0,0,.248-.376,1.441,1.441,0,0,1,.229-.727.925.925,0,0,0,.156-.43.136.136,0,1,1,.273,0,1.158,1.158,0,0,1-.189.561,1.183,1.183,0,0,0-.2.6.7.7,0,0,1-.506.649,18.235,18.235,0,0,1-3.219.307" transform="translate(-80.921 -277.149)" fill="#382118"/>
        <path id="Trazado_719313" data-name="Trazado 719313" d="M95.869,399.2l-1.836-2.365a.136.136,0,0,1,.215-.167l1.745,2.248,2.671-.23,2.05-3.406h3.1l1.789,2.912,4.067-.117,1.79-3.034,2.973-.128,1.794,3.283,5.381.112,1.621-2.781,3.1-.128,1.921,3.038h4.064l1.661-3.153,3.228-.128,2.049,3.281h4.577l1.533-2.788,2.586-.129,2.176,3.4,4.185-.117.733-1.74a.136.136,0,1,1,.251.106l-.8,1.9-4.514.126-2.174-3.4-2.275.114-1.537,2.8h-4.889l-2.045-3.275-2.912.115-1.665,3.16h-4.379l-1.917-3.032-2.789.115-1.627,2.791-5.7-.119-1.788-3.273-2.656.115-1.791,3.036-4.376.126-1.792-2.916h-2.789l-2.043,3.393Z" transform="translate(-68.912 -289.503)" fill="#382118"/>
        <path id="Trazado_719314" data-name="Trazado 719314" d="M249.777,415.9a.138.138,0,0,1-.049-.009,3.236,3.236,0,0,0-1.158-.143c-.164,0-.333,0-.5-.012a.137.137,0,0,1,.017-.273c.158.01.323.011.483.012a3.5,3.5,0,0,1,1.255.161.136.136,0,0,1-.049.264" transform="translate(-181.762 -304.567)" fill="#382118"/>
        <path id="Trazado_719315" data-name="Trazado 719315" d="M294.418,420.187a11.107,11.107,0,0,1-1.827-.142l-.043-.007-.031-.031a6.462,6.462,0,0,1-1.107-1.645,6.909,6.909,0,0,0-.815-1.3,2.441,2.441,0,0,0-2.6-.046.136.136,0,1,1-.114-.248,2.618,2.618,0,0,1,2.9.092l.016.016a7.151,7.151,0,0,1,.857,1.361,6.38,6.38,0,0,0,1.028,1.549,14.289,14.289,0,0,0,4.545-.117,3.046,3.046,0,0,1,.47-1.274c.063-.114.125-.227.182-.341a.136.136,0,1,1,.244.121c-.058.117-.122.233-.187.351a2.645,2.645,0,0,0-.439,1.259v.115l-.114.019a18.083,18.083,0,0,1-2.961.27" transform="translate(-210.982 -305.241)" fill="#382118"/>
        <path id="Trazado_719316" data-name="Trazado 719316" d="M91.512,392.092c0,3.6,2.087,6.526,4.661,6.526s4.661-2.922,4.661-6.526-2.087-6.526-4.661-6.526-4.661,2.922-4.661,6.526" transform="translate(-67.086 -282.651)" fill="#fff"/>
        <path id="Trazado_719317" data-name="Trazado 719317" d="M132.021,393.855c0,3.6,2.087,6.526,4.661,6.526s4.661-2.922,4.661-6.526-2.087-6.526-4.661-6.526-4.661,2.922-4.661,6.526" transform="translate(-96.782 -283.943)" fill="#fff"/>
        <path id="Trazado_719318" data-name="Trazado 719318" d="M173.9,394.3c0,3.6,2.087,6.526,4.661,6.526s4.661-2.922,4.661-6.526-2.087-6.526-4.661-6.526-4.661,2.922-4.661,6.526" transform="translate(-127.48 -284.266)" fill="#fff"/>
        <path id="Trazado_719319" data-name="Trazado 719319" d="M213.469,392.931c0,3.6,2.087,6.526,4.661,6.526s4.661-2.922,4.661-6.526-2.087-6.526-4.661-6.526-4.661,2.922-4.661,6.526" transform="translate(-156.49 -283.266)" fill="#fff"/>
        <path id="Trazado_719320" data-name="Trazado 719320" d="M90.148,410.742c0,3.6,2.087,6.526,4.661,6.526s4.661-2.922,4.661-6.526-2.087-6.526-4.661-6.526-4.661,2.922-4.661,6.526" transform="translate(-66.086 -296.322)" fill="#fff"/>
        <path id="Trazado_719321" data-name="Trazado 719321" d="M130.657,412.5c0,3.6,2.087,6.526,4.661,6.526s4.661-2.922,4.661-6.526-2.087-6.526-4.661-6.526-4.661,2.922-4.661,6.526" transform="translate(-95.782 -297.614)" fill="#fff"/>
        <path id="Trazado_719322" data-name="Trazado 719322" d="M172.531,412.945c0,3.6,2.087,6.526,4.661,6.526s4.661-2.922,4.661-6.526-2.087-6.526-4.661-6.526-4.661,2.922-4.661,6.526" transform="translate(-126.479 -297.937)" fill="#fff"/>
        <path id="Trazado_719323" data-name="Trazado 719323" d="M212.559,414.31c0,3.6,2.087,6.526,4.661,6.526s4.662-2.922,4.662-6.526-2.087-6.526-4.662-6.526-4.661,2.922-4.661,6.526" transform="translate(-155.823 -298.937)" fill="#fff"/>
        <path id="Trazado_719324" data-name="Trazado 719324" d="M255.316,412.035c0,3.6,2.087,6.526,4.661,6.526s4.661-2.922,4.661-6.526-2.087-6.526-4.661-6.526-4.661,2.922-4.661,6.526" transform="translate(-187.167 -297.27)" fill="#fff"/>
        <path id="Trazado_719325" data-name="Trazado 719325" d="M90.148,434.4c0,3.6,2.087,6.526,4.661,6.526S99.47,438,99.47,434.4s-2.087-6.526-4.661-6.526-4.661,2.922-4.661,6.526" transform="translate(-66.086 -313.662)" fill="#fff"/>
        <path id="Trazado_719326" data-name="Trazado 719326" d="M100.464,430.69a.136.136,0,0,1-.131-.1c-.53-1.8-2.619-3.437-4.62-2.936a4.45,4.45,0,0,0-3.016,2.821.136.136,0,1,1-.256-.094,4.72,4.72,0,0,1,3.2-2.991c2.149-.538,4.385,1.206,4.95,3.123a.136.136,0,0,1-.092.169.142.142,0,0,1-.039.006" transform="translate(-67.761 -313.24)" fill="#382118"/>
        <path id="Trazado_719327" data-name="Trazado 719327" d="M100.2,407.951a.136.136,0,0,1-.132-.1,5.909,5.909,0,0,0-2.435-3.837,3.637,3.637,0,0,0-2.783-.422,4.637,4.637,0,0,0-2.982,2.991.136.136,0,1,1-.256-.094,4.909,4.909,0,0,1,3.169-3.161,3.907,3.907,0,0,1,2.994.452,6.169,6.169,0,0,1,2.559,4.006.136.136,0,0,1-.1.165.143.143,0,0,1-.032,0" transform="translate(-67.151 -295.581)" fill="#382118"/>
        <path id="Trazado_719328" data-name="Trazado 719328" d="M130.657,436.158c0,3.6,2.087,6.526,4.661,6.526s4.661-2.922,4.661-6.526-2.087-6.526-4.661-6.526-4.661,2.922-4.661,6.526" transform="translate(-95.782 -314.954)" fill="#fff"/>
        <path id="Trazado_719329" data-name="Trazado 719329" d="M172.531,436.6c0,3.6,2.087,6.526,4.661,6.526s4.661-2.922,4.661-6.526-2.087-6.526-4.661-6.526-4.661,2.922-4.661,6.526" transform="translate(-126.479 -315.276)" fill="#fff"/>
        <path id="Trazado_719330" data-name="Trazado 719330" d="M212.559,437.962c0,3.6,2.087,6.526,4.661,6.526s4.662-2.922,4.662-6.526-2.087-6.526-4.662-6.526-4.661,2.922-4.661,6.526" transform="translate(-155.823 -316.277)" fill="#fff"/>
        <path id="Trazado_719331" data-name="Trazado 719331" d="M255.316,435.688c0,3.6,2.087,6.526,4.661,6.526s4.661-2.922,4.661-6.526-2.087-6.526-4.661-6.526-4.661,2.922-4.661,6.526" transform="translate(-187.167 -314.61)" fill="#fff"/>
        <path id="Trazado_719332" data-name="Trazado 719332" d="M296.254,435.233c0,3.6,2.087,6.526,4.661,6.526s4.661-2.922,4.661-6.526-2.087-6.526-4.661-6.526-4.661,2.922-4.661,6.526" transform="translate(-217.178 -314.276)" fill="#fff"/>
        <path id="Trazado_719333" data-name="Trazado 719333" d="M153.952,460.794l-2.963,4.821a2.114,2.114,0,0,1-1.8,1.007h-1.27a2.113,2.113,0,0,1-1.808-1.018l-1.669-2.754a1.621,1.621,0,0,0-2.756-.026l-1.742,2.754a2.114,2.114,0,0,1-1.786.984H136.9a2.114,2.114,0,0,1-1.834-1.063l-1.606-2.8a1.621,1.621,0,0,0-2.793-.034L128.89,465.6a2.113,2.113,0,0,1-1.808,1.019h-1.261a2.113,2.113,0,0,1-1.808-1.018l-1.669-2.754a1.621,1.621,0,0,0-2.756-.026l-1.742,2.754a2.114,2.114,0,0,1-1.786.984H114.8a2.113,2.113,0,0,1-1.825-1.048l-1.563-2.676a1.621,1.621,0,0,0-2.8.006l-1.575,2.723a2.113,2.113,0,0,1-1.829,1.055h-1.233a2.113,2.113,0,0,1-1.808-1.018l-1.669-2.754a1.621,1.621,0,0,0-2.756-.026l-1.742,2.754a2.114,2.114,0,0,1-1.786.984H93.059a2.27,2.27,0,0,1-1.98-1.16l-2.567-4.85Z" transform="translate(-64.886 -337.62)" fill="#deb08e"/>
        <path id="Trazado_719334" data-name="Trazado 719334" d="M90.081,463.986a.137.137,0,0,1-.121-.073l-1.945-3.674a.136.136,0,0,1,.241-.128l1.945,3.674a.137.137,0,0,1-.057.184.138.138,0,0,1-.064.016" transform="translate(-64.511 -337.245)" fill="#382118"/>
        <path id="Trazado_719335" data-name="Trazado 719335" d="M123.861,468.122a.136.136,0,0,1-.122-.076l-.094-.191c-.415-.849-1.042-2.131-2.07-2-1.124.15-1.864,1.644-2.064,2.1a.136.136,0,1,1-.25-.11c.275-.624,1.047-2.095,2.278-2.259s1.9,1.227,2.351,2.146l.093.189a.136.136,0,0,1-.122.2" transform="translate(-87.419 -341.304)" fill="#382118"/>
        <path id="Trazado_719336" data-name="Trazado 719336" d="M164.6,468.485a.136.136,0,0,1-.119-.07c-.141-.254-.263-.531-.383-.8-.377-.851-.733-1.654-1.638-1.836-1.113-.185-1.936.583-2.586,2.421a.136.136,0,1,1-.257-.091c.254-.72,1.028-2.908,2.892-2.6,1.048.21,1.45,1.117,1.839,1.993.116.263.237.534.371.777a.136.136,0,0,1-.053.185.135.135,0,0,1-.066.017" transform="translate(-117.009 -341.235)" fill="#382118"/>
        <path id="Trazado_719337" data-name="Trazado 719337" d="M200.705,468.376a.136.136,0,0,1-.13-.177c.5-1.592,1.41-2.531,2.566-2.647.794-.115,1.235.511,1.623,1.063.094.134.192.273.292.4a5.177,5.177,0,0,1,.36.658,5.409,5.409,0,0,0,.253.482.136.136,0,1,1-.232.143,5.691,5.691,0,0,1-.266-.506,5,5,0,0,0-.335-.616c-.1-.122-.2-.264-.3-.4-.376-.534-.731-1.039-1.367-.949-1.409.141-2.07,1.6-2.338,2.458a.137.137,0,0,1-.13.1" transform="translate(-147.033 -341.276)" fill="#382118"/>
        <path id="Trazado_719338" data-name="Trazado 719338" d="M241.41,468.645l-.021,0a.137.137,0,0,1-.114-.156,3.362,3.362,0,0,1,.65-1.3,6.432,6.432,0,0,0,.353-.551,2.2,2.2,0,0,1,1.674-1.244c1.488-.116,2.089,1.406,2.529,2.519.033.083.065.164.1.242a.137.137,0,0,1-.253.1c-.032-.079-.064-.16-.1-.244-.432-1.091-.968-2.453-2.254-2.348a1.933,1.933,0,0,0-1.456,1.1,6.6,6.6,0,0,1-.369.576,3.18,3.18,0,0,0-.6,1.182.137.137,0,0,1-.135.116" transform="translate(-176.872 -341.168)" fill="#382118"/>
        <path id="Trazado_719339" data-name="Trazado 719339" d="M288.709,467.863a.137.137,0,0,1-.125-.082c-.049-.114-.1-.235-.15-.362-.373-.917-.838-2.059-1.871-2.123-1.13-.067-1.918,1.517-2.176,2.038a.136.136,0,1,1-.245-.121c.481-.975,1.26-2.261,2.437-2.19,1.2.074,1.726,1.356,2.107,2.292.051.124.1.245.148.357a.137.137,0,0,1-.072.179.138.138,0,0,1-.054.011" transform="translate(-208.288 -340.898)" fill="#382118"/>
        <path id="Trazado_719340" data-name="Trazado 719340" d="M123.861,507.982a.136.136,0,0,1-.122-.076l-.094-.191c-.415-.849-1.042-2.131-2.07-2-1.125.15-1.864,1.644-2.064,2.1a.136.136,0,1,1-.25-.11c.275-.624,1.047-2.094,2.278-2.259s1.9,1.227,2.351,2.146l.093.189a.136.136,0,0,1-.122.2" transform="translate(-87.419 -370.525)" fill="#382118"/>
        <path id="Trazado_719341" data-name="Trazado 719341" d="M164.6,508.345a.136.136,0,0,1-.119-.07c-.141-.254-.263-.531-.383-.8-.377-.851-.733-1.654-1.638-1.836-1.113-.185-1.936.583-2.586,2.421a.136.136,0,1,1-.257-.091c.254-.72,1.028-2.91,2.892-2.6,1.048.21,1.45,1.117,1.839,1.993.116.263.237.534.371.777a.137.137,0,0,1-.053.186.135.135,0,0,1-.066.017" transform="translate(-117.009 -370.456)" fill="#382118"/>
        <path id="Trazado_719342" data-name="Trazado 719342" d="M200.705,508.237a.146.146,0,0,1-.041-.006.137.137,0,0,1-.089-.171c.5-1.592,1.41-2.531,2.566-2.647.794-.115,1.235.511,1.623,1.063.094.134.192.273.292.4a5.182,5.182,0,0,1,.36.658,5.4,5.4,0,0,0,.253.482.136.136,0,1,1-.232.143,5.691,5.691,0,0,1-.266-.506,5,5,0,0,0-.335-.616c-.1-.122-.2-.264-.3-.4-.376-.535-.731-1.04-1.367-.949-1.409.141-2.07,1.6-2.338,2.458a.137.137,0,0,1-.13.1" transform="translate(-147.033 -370.497)" fill="#382118"/>
        <path id="Trazado_719343" data-name="Trazado 719343" d="M241.41,508.505l-.021,0a.137.137,0,0,1-.114-.156,3.362,3.362,0,0,1,.65-1.3,6.437,6.437,0,0,0,.353-.551,2.2,2.2,0,0,1,1.674-1.244c1.488-.116,2.089,1.406,2.529,2.519.033.083.065.164.1.242a.137.137,0,0,1-.253.1c-.032-.079-.064-.16-.1-.244-.432-1.091-.968-2.45-2.254-2.348a1.933,1.933,0,0,0-1.456,1.1,6.6,6.6,0,0,1-.369.576,3.18,3.18,0,0,0-.6,1.182.137.137,0,0,1-.135.116" transform="translate(-176.872 -370.389)" fill="#382118"/>
        <path id="Trazado_719344" data-name="Trazado 719344" d="M288.709,507.724a.137.137,0,0,1-.125-.082c-.049-.114-.1-.235-.15-.362-.373-.917-.838-2.059-1.871-2.123-1.13-.067-1.918,1.517-2.176,2.038a.136.136,0,1,1-.245-.121c.481-.975,1.26-2.263,2.437-2.19,1.2.074,1.726,1.356,2.107,2.292.051.124.1.245.148.357a.137.137,0,0,1-.072.179.143.143,0,0,1-.054.011" transform="translate(-208.288 -370.118)" fill="#382118"/>
        <path id="Trazado_719345" data-name="Trazado 719345" d="M141.285,432.612a.136.136,0,0,1-.131-.1c-.53-1.8-2.618-3.436-4.62-2.936a4.45,4.45,0,0,0-3.016,2.821.136.136,0,0,1-.256-.094,4.72,4.72,0,0,1,3.2-2.991c2.149-.537,4.385,1.206,4.95,3.123a.136.136,0,0,1-.092.169.142.142,0,0,1-.039.006" transform="translate(-97.686 -314.649)" fill="#382118"/>
        <path id="Trazado_719346" data-name="Trazado 719346" d="M141.021,409.534a.136.136,0,0,1-.132-.1,6.142,6.142,0,0,0-2.489-3.987,3.353,3.353,0,0,0-2.6-.4,5.041,5.041,0,0,0-3.11,3.119.136.136,0,1,1-.256-.094,5.323,5.323,0,0,1,3.3-3.289,3.624,3.624,0,0,1,2.812.429,6.4,6.4,0,0,1,2.612,4.157.136.136,0,0,1-.1.165.147.147,0,0,1-.032,0" transform="translate(-97.077 -296.652)" fill="#382118"/>
        <path id="Trazado_719347" data-name="Trazado 719347" d="M182.587,432.612a.136.136,0,0,1-.131-.1c-.53-1.8-2.619-3.436-4.62-2.936a4.449,4.449,0,0,0-3.016,2.821.137.137,0,0,1-.257-.094,4.721,4.721,0,0,1,3.2-2.991c2.148-.537,4.385,1.206,4.95,3.123a.137.137,0,0,1-.092.169.14.14,0,0,1-.038.006" transform="translate(-127.963 -314.649)" fill="#382118"/>
        <path id="Trazado_719348" data-name="Trazado 719348" d="M183.284,409.868a.136.136,0,0,1-.132-.1,5.864,5.864,0,0,0-2.457-3.807,3.778,3.778,0,0,0-2.89-.452,4.455,4.455,0,0,0-2.853,2.991.136.136,0,1,1-.256-.094,4.717,4.717,0,0,1,3.04-3.161,4.048,4.048,0,0,1,3.1.482,6.016,6.016,0,0,1,2.581,3.976.136.136,0,0,1-.1.165.145.145,0,0,1-.032,0" transform="translate(-128.059 -296.986)" fill="#382118"/>
        <path id="Trazado_719349" data-name="Trazado 719349" d="M222.929,434.533a.136.136,0,0,1-.131-.1c-.531-1.8-2.618-3.436-4.62-2.936a4.449,4.449,0,0,0-3.016,2.821.136.136,0,0,1-.256-.094,4.719,4.719,0,0,1,3.2-2.991c2.148-.537,4.385,1.206,4.95,3.123a.136.136,0,0,1-.092.169.141.141,0,0,1-.039.006" transform="translate(-157.537 -316.058)" fill="#382118"/>
        <path id="Trazado_719350" data-name="Trazado 719350" d="M256.946,432.325a.139.139,0,0,1-.047-.008.137.137,0,0,1-.081-.175,5.482,5.482,0,0,1,3.425-3.289c2.132-.533,4.459,1.335,5.038,3.3a.137.137,0,0,1-.262.077c-.534-1.809-2.752-3.6-4.707-3.111a5.2,5.2,0,0,0-3.238,3.119.137.137,0,0,1-.128.089" transform="translate(-188.262 -314.316)" fill="#382118"/>
        <path id="Trazado_719351" data-name="Trazado 719351" d="M222.664,411.79a.136.136,0,0,1-.132-.1,5.864,5.864,0,0,0-2.457-3.807,3.778,3.778,0,0,0-2.89-.452,4.455,4.455,0,0,0-2.853,2.991.136.136,0,1,1-.256-.094,4.717,4.717,0,0,1,3.04-3.161,4.048,4.048,0,0,1,3.1.482,6.017,6.017,0,0,1,2.581,3.976.136.136,0,0,1-.1.165.131.131,0,0,1-.032,0" transform="translate(-156.929 -298.395)" fill="#382118"/>
      </g>
    </g>
  </g>
</svg>
