<svg xmlns="http://www.w3.org/2000/svg" xmlns:xlink="http://www.w3.org/1999/xlink" width="89.323" height="161.55" viewBox="0 0 89.323 161.55">
  <defs>
    <clipPath id="clip-path">
      <rect id="Rectángulo_344643" data-name="Rectángulo 344643" width="89.323" height="161.55" fill="none"/>
    </clipPath>
  </defs>
  <g id="Grupo_983911" data-name="Grupo 983911" transform="translate(0 0)">
    <path id="Trazado_720298" data-name="Trazado 720298" d="M32.1,7.643H12.338v4.5L32.1,13.909Z" transform="translate(22.439 13.901)" fill="#368f8f"/>
    <path id="Trazado_720299" data-name="Trazado 720299" d="M12.338,0V7.841L32.1,8.817V0Z" transform="translate(22.44 0)" fill="#368f8f"/>
    <rect id="Rectángulo_344638" data-name="Rectángulo 344638" width="31.051" height="15.278" transform="translate(29.507 6.266)" fill="#23bf20"/>
    <rect id="Rectángulo_344639" data-name="Rectángulo 344639" width="3.005" height="15.278" transform="translate(33.43 6.266)" fill="#91d995"/>
    <rect id="Rectángulo_344640" data-name="Rectángulo 344640" width="3.005" height="15.278" transform="translate(40.212 6.266)" fill="#91d995"/>
    <rect id="Rectángulo_344641" data-name="Rectángulo 344641" width="3.005" height="15.278" transform="translate(46.988 6.266)" fill="#91d995"/>
    <rect id="Rectángulo_344642" data-name="Rectángulo 344642" width="3.005" height="15.278" transform="translate(53.767 6.266)" fill="#91d995"/>
    <g id="Grupo_983910" data-name="Grupo 983910" transform="translate(0 0)">
      <g id="Grupo_983909" data-name="Grupo 983909" clip-path="url(#clip-path)">
        <path id="Trazado_720300" data-name="Trazado 720300" d="M60.223,9.123H29.1C21.068,9.123-11.006,69.345,3.9,130.41c1.905,7.808,6.508,14.545,14.542,14.545H70.881c8.033,0,12.639-6.737,14.545-14.545,14.9-61.065-17.177-121.287-25.2-121.287M22.737,96.851c-24.114,0-2.884-63.734,6.706-63.734,6.881,0,8.682,18.6,8.682,47.2,0,6.858-2.385,16.538-15.387,16.538" transform="translate(-0.001 16.594)" fill="#66becc"/>
        <path id="Trazado_720301" data-name="Trazado 720301" d="M36.756,16.848C41.292,32,40.824,75.376,34.9,83.187c-9.3,12.25-32.173,7.267-32.173,7.267.031,6.641,1.821,31.959,8.966,31.959H70.7c7.675-9.051,15.568-67.678-4.273-105.564Z" transform="translate(4.952 30.643)" fill="#f6c43a"/>
      </g>
    </g>
  </g>
</svg>
