<svg xmlns="http://www.w3.org/2000/svg" width="152.84" height="152" viewBox="0 0 152.84 152">
  <g id="Grupo_983946" data-name="Grupo 983946" transform="translate(4190.84 7915.387)">
    <circle id="Elipse_5817" data-name="Elipse 5817" cx="76" cy="76" r="76" transform="translate(-4190 -7915.387)" fill="#ffc403"/>
    <g id="Grupo_983934" data-name="Grupo 983934" transform="translate(-4190.84 -7886.399)">
      <rect id="Rectángulo_344702" data-name="Rectángulo 344702" width="25.772" height="53.878" transform="translate(65.281 14.534)" fill="#979797"/>
      <rect id="Rectángulo_344703" data-name="Rectángulo 344703" width="66.475" height="25.778" transform="translate(44.93 47.97)" fill="#979797"/>
      <rect id="Rectángulo_344704" data-name="Rectángulo 344704" width="39.225" height="29.073" transform="translate(58.581 0.001)" fill="gray"/>
      <rect id="Rectángulo_344705" data-name="Rectángulo 344705" width="42.879" height="2.75" transform="translate(56.729 24.201)" fill="#cacaca"/>
      <rect id="Rectángulo_344706" data-name="Rectángulo 344706" width="42.879" height="2.75" transform="translate(56.729 16.96)" fill="#cacaca"/>
      <rect id="Rectángulo_344707" data-name="Rectángulo 344707" width="42.879" height="2.75" transform="translate(56.729 9.721)" fill="#cacaca"/>
      <rect id="Rectángulo_344708" data-name="Rectángulo 344708" width="42.879" height="2.75" transform="translate(56.729 2.483)" fill="#cacaca"/>
      <rect id="Rectángulo_344709" data-name="Rectángulo 344709" width="45.071" height="35.461" transform="translate(2.744 43.129)" fill="#979797"/>
      <rect id="Rectángulo_344710" data-name="Rectángulo 344710" width="5.487" height="38.942" transform="translate(42.331 41.39)" fill="#cacaca"/>
      <rect id="Rectángulo_344711" data-name="Rectángulo 344711" width="5.487" height="42.328" transform="translate(0 39.696)" fill="#b1b1b1"/>
      <rect id="Rectángulo_344712" data-name="Rectángulo 344712" width="2.744" height="42.328" transform="translate(2.744 39.696)" fill="#e4e4e4"/>
      <rect id="Rectángulo_344713" data-name="Rectángulo 344713" width="43.937" height="34.576" transform="translate(106.805 43.573)" fill="#979797"/>
      <rect id="Rectángulo_344714" data-name="Rectángulo 344714" width="5.345" height="41.263" transform="translate(147.495 40.231)" fill="#b1b1b1"/>
      <rect id="Rectángulo_344715" data-name="Rectángulo 344715" width="2.677" height="41.263" transform="translate(147.495 40.231)" fill="#e4e4e4"/>
      <rect id="Rectángulo_344716" data-name="Rectángulo 344716" width="5.345" height="37.962" transform="translate(106.235 41.882)" fill="#cacaca"/>
    </g>
  </g>
</svg>
