<svg xmlns="http://www.w3.org/2000/svg" xmlns:xlink="http://www.w3.org/1999/xlink" width="140" height="140" viewBox="0 0 140 140">
  <defs>
    <clipPath id="clip-path">
      <rect id="Rectángulo_344551" data-name="Rectángulo 344551" width="66.692" height="115.932" fill="none"/>
    </clipPath>
  </defs>
  <g id="Grupo_983955" data-name="Grupo 983955" transform="translate(-9273 11012)">
    <circle id="Elipse_5876" data-name="Elipse 5876" cx="70" cy="70" r="70" transform="translate(9273 -11012)" fill="#ffc403"/>
    <g id="Grupo_983818" data-name="Grupo 983818" transform="translate(9316.296 -10999.966)">
      <g id="Grupo_983817" data-name="Grupo 983817" clip-path="url(#clip-path)">
        <path id="Trazado_719221" data-name="Trazado 719221" d="M78.8,226.063l1.5,15.13-.488,4.663a1.5,1.5,0,0,0,1.489,1.653h14.94a1.5,1.5,0,0,0,.831-2.744l-7.958-4.307.147-14.4Z" transform="translate(-45.864 -131.577)" fill="#3b47bd"/>
        <path id="Trazado_719222" data-name="Trazado 719222" d="M81.2,273.093a1.5,1.5,0,0,0,1.49,1.653H97.628a1.5,1.5,0,0,0,1.449-1.887H81.224Z" transform="translate(-47.256 -158.815)" fill="#fffff8"/>
        <path id="Trazado_719223" data-name="Trazado 719223" d="M15.8,224.823,11.3,239.953l2.269,4.092a1.5,1.5,0,0,1-1.31,2.224H2.484a1.5,1.5,0,0,1-1.391-2.053l1.4-5,3.024-15.285Z" transform="translate(-0.573 -130.338)" fill="#3b47bd"/>
        <path id="Trazado_719224" data-name="Trazado 719224" d="M2.487,274.747h9.779a1.5,1.5,0,0,0,1.445-1.887H1.042a1.5,1.5,0,0,0,1.445,1.887" transform="translate(-0.576 -158.815)" fill="#fffff8"/>
        <path id="Trazado_719225" data-name="Trazado 719225" d="M6.7,261.536a6.565,6.565,0,0,1,7.93-.735" transform="translate(-3.9 -151.186)" fill="none" stroke="#7e89fd" stroke-linecap="round" stroke-linejoin="round" stroke-width="0.717"/>
        <path id="Trazado_719226" data-name="Trazado 719226" d="M54.644,39.962,51.522,36.5,44.885,24.568a5.023,5.023,0,0,0-1.547-1.7l-6.665-4.574S37.646,9.234,37.8,7.662,38.245.847,33.153.1A8.351,8.351,0,0,0,28.7.61a6.176,6.176,0,0,0-3.713,4.671L23.418,16.422l-8.882,3.712a5.022,5.022,0,0,0-1.945,1.447L2.053,37.6A8.782,8.782,0,0,0,.909,47.112,4.754,4.754,0,0,0,3.681,49.7c1.776.539,4.248.453,6.8.648,0,0-6.85,31.463-7.581,42.087a5.065,5.065,0,0,0,1.386,3.839,10.316,10.316,0,0,0,5.943,3.3c4.6.6,9.191-1.6,9.889-4.792S26.214,76.8,26.214,76.8l3.112,16.112a4.843,4.843,0,0,0,1.791,3.315c1.837,1.465,5.023,3.437,8.376,2.889,5.192-.849,6.977-6.411,6.789-8.537-.245-2.764-2.644-45.009-2.644-45.009A29.107,29.107,0,0,0,48.705,49.4c5.218,2.746,8.663-3.322,8.663-3.322l1.313-1.961Z" transform="translate(0 0)" fill="#fffff8"/>
        <path id="Trazado_719227" data-name="Trazado 719227" d="M117.281,87.1s-5.288,1.809-4.015,8.7" transform="translate(-65.81 -50.697)" fill="none" stroke="#7e89fd" stroke-linecap="round" stroke-linejoin="round" stroke-width="0.717"/>
        <path id="Trazado_719228" data-name="Trazado 719228" d="M7.145,94.474s2.086-2.69,4.332-2.091c2.418.645,6.065,1.8,6.065,1.8" transform="translate(-4.159 -53.72)" fill="none" stroke="#7e89fd" stroke-linecap="round" stroke-linejoin="round" stroke-width="0.717"/>
        <path id="Trazado_719229" data-name="Trazado 719229" d="M62.719,99.481s5.891-52.944,4.992-60.518" transform="translate(-36.505 -22.678)" fill="none" stroke="#7e89fd" stroke-linecap="round" stroke-linejoin="round" stroke-width="1.433"/>
        <line id="Línea_2965" data-name="Línea 2965" x1="1.748" y1="11.385" transform="translate(41.917 34.368)" fill="none" stroke="#7e89fd" stroke-linecap="round" stroke-linejoin="round" stroke-width="0.717"/>
        <path id="Trazado_719230" data-name="Trazado 719230" d="M55.508,38.612a6.836,6.836,0,0,0,3.014,3.934" transform="translate(-32.308 -22.474)" fill="none" stroke="#7e89fd" stroke-linecap="round" stroke-linejoin="round" stroke-width="0.717"/>
        <path id="Trazado_719231" data-name="Trazado 719231" d="M85.252,43.056s-1.388,2-2.3,2.376" transform="translate(-48.28 -25.06)" fill="none" stroke="#7e89fd" stroke-linecap="round" stroke-linejoin="round" stroke-width="0.717"/>
        <path id="Trazado_719232" data-name="Trazado 719232" d="M67.97,10.661s-2.193,5.516-.658,8.736,7.039,1.358,7.778-3.37c.547-3.5,1.032-5.254-.615-7.014s-5.908-.8-6.506,1.647" transform="translate(-38.861 -4.722)" fill="#ffd1cd"/>
        <path id="Trazado_719233" data-name="Trazado 719233" d="M74.8,25.386a1.953,1.953,0,0,1-.8-.511,3.423,3.423,0,0,1-.479-1.117,2.06,2.06,0,0,0-2.346-1.522c-.871.159-1.5.832-2.334,1.093a2.582,2.582,0,0,1-1.336.081,2.418,2.418,0,0,1-.626-.229,8.159,8.159,0,0,0,.437,4.417c1.4,2.941,6.114,1.64,7.483-2.21" transform="translate(-38.862 -12.92)" fill="#3b47bd"/>
        <path id="Trazado_719234" data-name="Trazado 719234" d="M71.546,31.653a.794.794,0,1,1-.869-.889.891.891,0,0,1,.869.889" transform="translate(-40.743 -17.904)" fill="#7e89fd"/>
        <path id="Trazado_719235" data-name="Trazado 719235" d="M79.334,34.456c-.339.417-.81.6-1.05.4s-.16-.693.179-1.11.81-.6,1.05-.4.16.693-.18,1.109" transform="translate(-45.484 -19.363)" fill="#7e89fd"/>
        <path id="Trazado_719236" data-name="Trazado 719236" d="M67.533,13.048a1.179,1.179,0,0,0-1.381.932L65.8,15.8H65.8a2.2,2.2,0,0,0,3.974,1.6,1.4,1.4,0,0,1,2.5.486,2.2,2.2,0,0,0,4.284,0h.006l.353-1.821a1.178,1.178,0,0,0-.932-1.381Z" transform="translate(-38.288 -7.581)" fill="none" stroke="#fffff8" stroke-miterlimit="10" stroke-width="0.717"/>
        <rect id="Rectángulo_344550" data-name="Rectángulo 344550" width="22.215" height="15.675" transform="translate(26.087 52.809) rotate(-85.13)" fill="#f8cc76"/>
        <path id="Trazado_719237" data-name="Trazado 719237" d="M46.792,98.24a2.192,2.192,0,0,0-1.373-.724.842.842,0,0,0,.464-1.017c-.153-.523-3.4-.641-4.971-.667l-.065-.008.109-1.4s-2.929-.01-3.936.93-10.653-.627-10.653-.627A9.871,9.871,0,0,0,24.175,105.3a74.737,74.737,0,0,0,11.95-1.936l.113-.008a16.052,16.052,0,0,0,4.833-.261c2.015-.515,2.025-1.68,2.025-1.68l1.175-.176c1.947-.729.9-1.829.9-1.829l.037.193s2.224-.661,1.586-1.366" transform="translate(-13.689 -54.958)" fill="#3b47bd"/>
        <line id="Línea_2966" data-name="Línea 2966" x1="4.743" y1="0.15" transform="translate(27.287 42.417)" fill="none" stroke="#7e89fd" stroke-linecap="round" stroke-linejoin="round" stroke-width="0.717"/>
        <line id="Línea_2967" data-name="Línea 2967" x1="4.674" y1="0.235" transform="translate(27.056 44.396)" fill="none" stroke="#7e89fd" stroke-linecap="round" stroke-linejoin="round" stroke-width="0.717"/>
        <line id="Línea_2968" data-name="Línea 2968" x1="3.02" y1="0.148" transform="translate(26.639 46.324)" fill="none" stroke="#7e89fd" stroke-linecap="round" stroke-linejoin="round" stroke-width="0.717"/>
        <path id="Trazado_719238" data-name="Trazado 719238" d="M131.655,58.549l.366-.849a.651.651,0,0,0-.027-.571l-.522-.948s1.509-2.859.662-3.5c-.915-.688-1.848.651-2.092.979L127.333,57.3a2.961,2.961,0,0,0-.643-1.9,1.293,1.293,0,0,0-.8-.443c-.562-.112-.412.3-.435.737a2.406,2.406,0,0,1-.378,1.141,6.945,6.945,0,0,0-.7,1.77,11.531,11.531,0,0,0-.007,2.629c.2.858-2.263,4.26-4.063,6.6a4.277,4.277,0,0,0,.087,5.344,15.147,15.147,0,0,0,6.5,4.168s3.175-3.661,3.962-11.321l1.7-3.98a1.739,1.739,0,0,0,0-1.358Z" transform="translate(-69.5 -30.552)" fill="#3b47bd"/>
        <path id="Trazado_719239" data-name="Trazado 719239" d="M144.9,61.318s-2.585,2.027-2.41,2.8,1.807.5,2.758-.512" transform="translate(-82.932 -35.689)" fill="none" stroke="#7e89fd" stroke-linecap="round" stroke-linejoin="round" stroke-width="0.717"/>
        <path id="Trazado_719240" data-name="Trazado 719240" d="M144.327,68.733s-1.457.781-1.289,1.661,3.078-.692,3.078-.692" transform="translate(-83.246 -40.005)" fill="none" stroke="#7e89fd" stroke-linecap="round" stroke-linejoin="round" stroke-width="0.717"/>
        <path id="Trazado_719241" data-name="Trazado 719241" d="M144.629,73.042s-1.3.764-.657,1.6c.506.655,2.247-.337,2.247-.337" transform="translate(-83.692 -42.513)" fill="none" stroke="#7e89fd" stroke-linecap="round" stroke-linejoin="round" stroke-width="0.717"/>
        <path id="Trazado_719242" data-name="Trazado 719242" d="M128.5,59.955l1.82.135a2.048,2.048,0,0,0,.146-.663c.007-.131,0-.257,0-.37l-1.888-.14a.52.52,0,1,0-.077,1.038" transform="translate(-74.512 -34.291)" fill="#f8cc76"/>
        <path id="Trazado_719243" data-name="Trazado 719243" d="M146.244,60.6l-1.589-.548-7.795-.578a2.7,2.7,0,0,1,.532,1.083l7.186.533,1.632-.186a.157.157,0,0,0,.033-.3" transform="translate(-79.658 -34.617)" fill="#f8cc76"/>
        <path id="Trazado_719244" data-name="Trazado 719244" d="M139.023,69.865s.562-2.845-1.161-4.268a4.506,4.506,0,0,0,.211-1.6" transform="translate(-80.241 -37.248)" fill="none" stroke="#7e89fd" stroke-linecap="round" stroke-linejoin="round" stroke-width="0.717"/>
        <path id="Trazado_719245" data-name="Trazado 719245" d="M42.047,174.932s7.189,7.089,18.171,1.8" transform="translate(-24.473 -101.817)" fill="none" stroke="#7e89fd" stroke-linecap="round" stroke-linejoin="round" stroke-width="0.717"/>
        <path id="Trazado_719246" data-name="Trazado 719246" d="M73.05,19.629a.356.356,0,1,1,.356.356.356.356,0,0,1-.356-.356" transform="translate(-42.518 -11.218)" fill="#29141d"/>
        <path id="Trazado_719247" data-name="Trazado 719247" d="M82.949,21.7a.356.356,0,1,1,.356.356.356.356,0,0,1-.356-.356" transform="translate(-48.28 -12.424)" fill="#29141d"/>
        <path id="Trazado_719248" data-name="Trazado 719248" d="M72.244,16.95a1.316,1.316,0,0,1,1.725.449" transform="translate(-42.049 -9.775)" fill="none" stroke="#29141d" stroke-linecap="round" stroke-linejoin="round" stroke-width="0.717"/>
        <path id="Trazado_719249" data-name="Trazado 719249" d="M82.1,18.76a1.316,1.316,0,0,1,1.746.362" transform="translate(-47.787 -10.808)" fill="none" stroke="#29141d" stroke-linecap="round" stroke-linejoin="round" stroke-width="0.717"/>
        <line id="Línea_2969" data-name="Línea 2969" y1="7.955" x2="1.832" transform="translate(11.929 32.053)" fill="none" stroke="#7e89fd" stroke-linecap="round" stroke-linejoin="round" stroke-width="0.717"/>
      </g>
    </g>
  </g>
</svg>
